<svg width="277" height="197" viewBox="0 0 277 197" fill="none" xmlns="http://www.w3.org/2000/svg">
<path d="M0 50C0 22.3858 22.3858 0 50 0H277V147C277 174.614 254.614 197 227 197H0V50Z" fill="#C3B7A6"/>
<path d="M42.6534 49.1307V50.6932H36.6591V49.1307H42.6534ZM33.1932 52.4545H35.0114C35.1676 53.4773 35.5133 54.2633 36.0483 54.8125C36.5833 55.3617 37.4403 55.6364 38.6193 55.6364C39.4527 55.6364 40.1487 55.402 40.7074 54.9332C41.2708 54.4645 41.6922 53.8442 41.9716 53.0724C42.2557 52.3007 42.3977 51.4602 42.3977 50.5511V48.9318C42.3977 47.928 42.2391 47.045 41.9219 46.2827C41.6094 45.5156 41.1572 44.919 40.5653 44.4929C39.9782 44.062 39.2727 43.8466 38.4489 43.8466C37.7292 43.8466 37.1326 43.9744 36.6591 44.2301C36.1856 44.4858 35.8163 44.8527 35.5511 45.331C35.286 45.8092 35.1061 46.3845 35.0114 47.0568H33.1932C33.2879 46.1288 33.5412 45.3049 33.9531 44.5852C34.3698 43.8608 34.9498 43.2926 35.6932 42.8807C36.4413 42.464 37.3598 42.2557 38.4489 42.2557C39.6326 42.2557 40.6553 42.5327 41.517 43.0866C42.3788 43.6359 43.044 44.41 43.5128 45.4091C43.9815 46.4034 44.2159 47.5682 44.2159 48.9034V50.5795C44.2159 51.9148 43.9839 53.0795 43.5199 54.0739C43.0559 55.0634 42.4048 55.8329 41.5668 56.3821C40.7287 56.9266 39.7462 57.1989 38.6193 57.1989C37.464 57.1989 36.5028 56.9905 35.7358 56.5739C34.9735 56.1525 34.384 55.5843 33.9673 54.8693C33.5554 54.1496 33.2973 53.3447 33.1932 52.4545ZM46.9521 57V46.0909H48.6282V50.8352H49.7362L53.6566 46.0909H55.8157L51.4123 51.3466L55.8725 57H53.7134L50.1339 52.3977H48.6282V57H46.9521ZM61.6768 57.2273C60.692 57.2273 59.8279 56.9929 59.0845 56.5241C58.3459 56.0554 57.7682 55.3996 57.3516 54.5568C56.9396 53.714 56.7337 52.7292 56.7337 51.6023C56.7337 50.4659 56.9396 49.474 57.3516 48.6264C57.7682 47.7789 58.3459 47.1207 59.0845 46.652C59.8279 46.1832 60.692 45.9489 61.6768 45.9489C62.6617 45.9489 63.5234 46.1832 64.2621 46.652C65.0054 47.1207 65.5831 47.7789 65.995 48.6264C66.4117 49.474 66.62 50.4659 66.62 51.6023C66.62 52.7292 66.4117 53.714 65.995 54.5568C65.5831 55.3996 65.0054 56.0554 64.2621 56.5241C63.5234 56.9929 62.6617 57.2273 61.6768 57.2273ZM61.6768 55.7216C62.425 55.7216 63.0405 55.5298 63.5234 55.1463C64.0064 54.7628 64.3639 54.2585 64.5959 53.6335C64.8279 53.0085 64.9439 52.3314 64.9439 51.6023C64.9439 50.8731 64.8279 50.1937 64.5959 49.5639C64.3639 48.9342 64.0064 48.4252 63.5234 48.0369C63.0405 47.6487 62.425 47.4545 61.6768 47.4545C60.9287 47.4545 60.3132 47.6487 59.8303 48.0369C59.3473 48.4252 58.9898 48.9342 58.7578 49.5639C58.5258 50.1937 58.4098 50.8731 58.4098 51.6023C58.4098 52.3314 58.5258 53.0085 58.7578 53.6335C58.9898 54.2585 59.3473 54.7628 59.8303 55.1463C60.3132 55.5298 60.9287 55.7216 61.6768 55.7216ZM76.4798 50.7784V52.3409H70.457V50.7784H76.4798ZM70.8548 46.0909V57H69.1786V46.0909H70.8548ZM77.7582 46.0909V57H76.082V46.0909H77.7582ZM85.2511 57.2273C84.2662 57.2273 83.4021 56.9929 82.6587 56.5241C81.9201 56.0554 81.3424 55.3996 80.9258 54.5568C80.5138 53.714 80.3079 52.7292 80.3079 51.6023C80.3079 50.4659 80.5138 49.474 80.9258 48.6264C81.3424 47.7789 81.9201 47.1207 82.6587 46.652C83.4021 46.1832 84.2662 45.9489 85.2511 45.9489C86.2359 45.9489 87.0977 46.1832 87.8363 46.652C88.5797 47.1207 89.1573 47.7789 89.5692 48.6264C89.9859 49.474 90.1942 50.4659 90.1942 51.6023C90.1942 52.7292 89.9859 53.714 89.5692 54.5568C89.1573 55.3996 88.5797 56.0554 87.8363 56.5241C87.0977 56.9929 86.2359 57.2273 85.2511 57.2273ZM85.2511 55.7216C85.9992 55.7216 86.6147 55.5298 87.0977 55.1463C87.5806 54.7628 87.9381 54.2585 88.1701 53.6335C88.4021 53.0085 88.5181 52.3314 88.5181 51.6023C88.5181 50.8731 88.4021 50.1937 88.1701 49.5639C87.9381 48.9342 87.5806 48.4252 87.0977 48.0369C86.6147 47.6487 85.9992 47.4545 85.2511 47.4545C84.503 47.4545 83.8874 47.6487 83.4045 48.0369C82.9215 48.4252 82.564 48.9342 82.332 49.5639C82.1 50.1937 81.984 50.8731 81.984 51.6023C81.984 52.3314 82.1 53.0085 82.332 53.6335C82.564 54.2585 82.9215 54.7628 83.4045 55.1463C83.8874 55.5298 84.503 55.7216 85.2511 55.7216ZM98.7188 54.7273L102.526 46.0909H104.116L99.4006 57H98.0369L93.4062 46.0909H94.9688L98.7188 54.7273ZM94.429 46.0909V57H92.7528V46.0909H94.429ZM103.009 57V46.0909H104.685V57H103.009ZM109.429 54.5284L114.685 46.0909H116.616V57H114.94V48.5625L109.713 57H107.753V46.0909H109.429V54.5284ZM121.363 54.5284L126.618 46.0909H128.55V57H126.874V48.5625L121.647 57H119.686V46.0909H121.363V54.5284ZM137.245 57V46.0909H141.705C142.879 46.0909 143.812 46.3561 144.504 46.8864C145.195 47.4167 145.54 48.1174 145.54 48.9886C145.54 49.6515 145.344 50.1652 144.951 50.5298C144.558 50.8897 144.054 51.1335 143.438 51.2614C143.841 51.3182 144.231 51.4602 144.61 51.6875C144.994 51.9148 145.311 52.2273 145.562 52.625C145.813 53.018 145.938 53.5009 145.938 54.0739C145.938 54.6326 145.796 55.1321 145.512 55.5724C145.228 56.0128 144.821 56.3608 144.29 56.6165C143.76 56.8722 143.126 57 142.387 57H137.245ZM138.836 55.4659H142.387C142.965 55.4659 143.417 55.3286 143.744 55.054C144.07 54.7794 144.234 54.4053 144.234 53.9318C144.234 53.3684 144.07 52.9257 143.744 52.6037C143.417 52.277 142.965 52.1136 142.387 52.1136H138.836V55.4659ZM138.836 50.6648H141.705C142.155 50.6648 142.541 50.6032 142.863 50.4801C143.185 50.3523 143.431 50.1723 143.602 49.9403C143.777 49.7036 143.864 49.4242 143.864 49.1023C143.864 48.643 143.673 48.2831 143.289 48.0227C142.906 47.7576 142.378 47.625 141.705 47.625H138.836V50.6648ZM148.475 61.0909V46.0909H150.095V47.8239H150.294C150.417 47.6345 150.587 47.393 150.805 47.0994C151.028 46.8011 151.345 46.536 151.757 46.304C152.173 46.0672 152.737 45.9489 153.447 45.9489C154.366 45.9489 155.175 46.1785 155.876 46.6378C156.577 47.0971 157.124 47.7481 157.517 48.5909C157.91 49.4337 158.106 50.428 158.106 51.5739C158.106 52.7292 157.91 53.7306 157.517 54.5781C157.124 55.4209 156.579 56.0743 155.883 56.5384C155.187 56.9976 154.385 57.2273 153.475 57.2273C152.775 57.2273 152.214 57.1113 151.792 56.8793C151.371 56.6425 151.047 56.375 150.819 56.0767C150.592 55.7737 150.417 55.5227 150.294 55.3239H150.152V61.0909H148.475ZM150.123 51.5455C150.123 52.3693 150.244 53.0961 150.485 53.7259C150.727 54.3509 151.08 54.8409 151.544 55.196C152.008 55.5464 152.576 55.7216 153.248 55.7216C153.949 55.7216 154.534 55.5369 155.002 55.1676C155.476 54.7936 155.831 54.2917 156.068 53.6619C156.309 53.0275 156.43 52.322 156.43 51.5455C156.43 50.7784 156.312 50.0871 156.075 49.4716C155.843 48.8513 155.49 48.3613 155.017 48.0014C154.548 47.6368 153.958 47.4545 153.248 47.4545C152.566 47.4545 151.993 47.6274 151.529 47.973C151.065 48.3139 150.715 48.7921 150.478 49.4077C150.242 50.0185 150.123 50.7311 150.123 51.5455ZM165.237 57.2273C164.186 57.2273 163.279 56.9953 162.517 56.5312C161.759 56.0625 161.174 55.4091 160.762 54.571C160.355 53.7282 160.152 52.7481 160.152 51.6307C160.152 50.5133 160.355 49.5284 160.762 48.6761C161.174 47.8191 161.747 47.1515 162.481 46.6733C163.22 46.1903 164.082 45.9489 165.066 45.9489C165.635 45.9489 166.196 46.0436 166.75 46.233C167.304 46.4223 167.808 46.7301 168.262 47.1562C168.717 47.5777 169.079 48.1364 169.349 48.8324C169.619 49.5284 169.754 50.3854 169.754 51.4034V52.1136H161.345V50.6648H168.049C168.049 50.0492 167.926 49.5 167.68 49.017C167.439 48.5341 167.093 48.1529 166.643 47.8736C166.198 47.5942 165.672 47.4545 165.066 47.4545C164.399 47.4545 163.821 47.6203 163.333 47.9517C162.85 48.2784 162.479 48.7045 162.218 49.2301C161.958 49.7557 161.828 50.3191 161.828 50.9205V51.8864C161.828 52.7102 161.97 53.4086 162.254 53.9815C162.543 54.5497 162.943 54.983 163.454 55.2812C163.966 55.5748 164.56 55.7216 165.237 55.7216C165.677 55.7216 166.075 55.66 166.43 55.5369C166.79 55.4091 167.1 55.2197 167.36 54.9688C167.621 54.7131 167.822 54.3958 167.964 54.017L169.583 54.4716C169.413 55.0208 169.127 55.5038 168.724 55.9205C168.322 56.3324 167.824 56.6544 167.233 56.8864C166.641 57.1136 165.975 57.2273 165.237 57.2273ZM178.27 54.7273L182.076 46.0909H183.667L178.951 57H177.588L172.957 46.0909H174.52L178.27 54.7273ZM173.98 46.0909V57H172.304V46.0909H173.98ZM182.559 57V46.0909H184.235V57H182.559ZM191.877 57.2273C190.826 57.2273 189.92 56.9953 189.157 56.5312C188.4 56.0625 187.815 55.4091 187.403 54.571C186.996 53.7282 186.792 52.7481 186.792 51.6307C186.792 50.5133 186.996 49.5284 187.403 48.6761C187.815 47.8191 188.388 47.1515 189.122 46.6733C189.86 46.1903 190.722 45.9489 191.707 45.9489C192.275 45.9489 192.836 46.0436 193.39 46.233C193.944 46.4223 194.449 46.7301 194.903 47.1562C195.358 47.5777 195.72 48.1364 195.99 48.8324C196.26 49.5284 196.395 50.3854 196.395 51.4034V52.1136H187.985V50.6648H194.69C194.69 50.0492 194.567 49.5 194.321 49.017C194.079 48.5341 193.734 48.1529 193.284 47.8736C192.839 47.5942 192.313 47.4545 191.707 47.4545C191.039 47.4545 190.462 47.6203 189.974 47.9517C189.491 48.2784 189.119 48.7045 188.859 49.2301C188.599 49.7557 188.468 50.3191 188.468 50.9205V51.8864C188.468 52.7102 188.61 53.4086 188.895 53.9815C189.183 54.5497 189.583 54.983 190.095 55.2812C190.606 55.5748 191.2 55.7216 191.877 55.7216C192.318 55.7216 192.716 55.66 193.071 55.5369C193.431 55.4091 193.741 55.2197 194.001 54.9688C194.261 54.7131 194.463 54.3958 194.605 54.017L196.224 54.4716C196.054 55.0208 195.767 55.5038 195.365 55.9205C194.962 56.3324 194.465 56.6544 193.873 56.8864C193.281 57.1136 192.616 57.2273 191.877 57.2273ZM206.245 50.7784V52.3409H200.223V50.7784H206.245ZM200.62 46.0909V57H198.944V46.0909H200.62ZM207.524 46.0909V57H205.848V46.0909H207.524ZM212.261 54.5284L217.517 46.0909H219.449V57H217.772V48.5625L212.545 57H210.585V46.0909H212.261V54.5284ZM40.8352 74.7784V76.3409H34.8125V74.7784H40.8352ZM35.2102 70.0909V81H33.5341V70.0909H35.2102ZM42.1136 70.0909V81H40.4375V70.0909H42.1136ZM48.3849 81.2557C47.6937 81.2557 47.0663 81.1255 46.5028 80.8651C45.9394 80.5999 45.492 80.2188 45.1605 79.7216C44.8291 79.2197 44.6634 78.6136 44.6634 77.9034C44.6634 77.2784 44.7865 76.7718 45.0327 76.3835C45.2789 75.9905 45.608 75.6828 46.0199 75.4602C46.4318 75.2377 46.8864 75.072 47.3835 74.9631C47.8854 74.8494 48.3897 74.7595 48.8963 74.6932C49.5592 74.608 50.0966 74.544 50.5085 74.5014C50.9252 74.4541 51.2282 74.3759 51.4176 74.267C51.6117 74.1581 51.7088 73.9687 51.7088 73.6989V73.642C51.7088 72.9413 51.517 72.3968 51.1335 72.0085C50.7547 71.6203 50.1795 71.4261 49.4077 71.4261C48.6075 71.4261 47.9801 71.6013 47.5256 71.9517C47.071 72.3021 46.7514 72.6761 46.5668 73.0739L44.9759 72.5057C45.2599 71.8428 45.6387 71.3267 46.1122 70.9574C46.5904 70.5833 47.1113 70.3229 47.6747 70.1761C48.2429 70.0246 48.8016 69.9489 49.3509 69.9489C49.7012 69.9489 50.1037 69.9915 50.5582 70.0767C51.0175 70.1572 51.4602 70.3253 51.8864 70.581C52.3172 70.8366 52.6747 71.2225 52.9588 71.7386C53.2429 72.2547 53.3849 72.946 53.3849 73.8125V81H51.7088V79.5227H51.6236C51.5099 79.7595 51.3205 80.0128 51.0554 80.2827C50.7902 80.5526 50.4375 80.7822 49.9972 80.9716C49.5568 81.161 49.0194 81.2557 48.3849 81.2557ZM48.6406 79.75C49.3035 79.75 49.8622 79.6198 50.3168 79.3594C50.776 79.099 51.1217 78.7628 51.3537 78.3509C51.5904 77.9389 51.7088 77.5057 51.7088 77.0511V75.517C51.6378 75.6023 51.4815 75.6804 51.2401 75.7514C51.0033 75.8177 50.7287 75.8769 50.4162 75.929C50.1084 75.9763 49.8078 76.0189 49.5142 76.0568C49.2254 76.09 48.991 76.1184 48.8111 76.142C48.3755 76.1989 47.9683 76.2912 47.5895 76.419C47.2154 76.5421 46.9124 76.7292 46.6804 76.9801C46.4531 77.2263 46.3395 77.5625 46.3395 77.9886C46.3395 78.571 46.5549 79.0114 46.9858 79.3097C47.4214 79.6032 47.973 79.75 48.6406 79.75ZM62.0692 81V70.0909H70.6488V81H68.9727V71.6534H63.7454V81H62.0692ZM78.1417 81.2273C77.1568 81.2273 76.2927 80.9929 75.5494 80.5241C74.8107 80.0554 74.2331 79.3996 73.8164 78.5568C73.4045 77.714 73.1985 76.7292 73.1985 75.6023C73.1985 74.4659 73.4045 73.474 73.8164 72.6264C74.2331 71.7789 74.8107 71.1207 75.5494 70.652C76.2927 70.1832 77.1568 69.9489 78.1417 69.9489C79.1265 69.9489 79.9883 70.1832 80.7269 70.652C81.4703 71.1207 82.0479 71.7789 82.4599 72.6264C82.8765 73.474 83.0849 74.4659 83.0849 75.6023C83.0849 76.7292 82.8765 77.714 82.4599 78.5568C82.0479 79.3996 81.4703 80.0554 80.7269 80.5241C79.9883 80.9929 79.1265 81.2273 78.1417 81.2273ZM78.1417 79.7216C78.8898 79.7216 79.5053 79.5298 79.9883 79.1463C80.4712 78.7628 80.8287 78.2585 81.0607 77.6335C81.2927 77.0085 81.4087 76.3314 81.4087 75.6023C81.4087 74.8731 81.2927 74.1937 81.0607 73.5639C80.8287 72.9342 80.4712 72.4252 79.9883 72.0369C79.5053 71.6487 78.8898 71.4545 78.1417 71.4545C77.3936 71.4545 76.7781 71.6487 76.2951 72.0369C75.8121 72.4252 75.4547 72.9342 75.2227 73.5639C74.9906 74.1937 74.8746 74.8731 74.8746 75.6023C74.8746 76.3314 74.9906 77.0085 75.2227 77.6335C75.4547 78.2585 75.8121 78.7628 76.2951 79.1463C76.7781 79.5298 77.3936 79.7216 78.1417 79.7216ZM87.3196 78.5284L92.5753 70.0909H94.5071V81H92.831V72.5625L87.6037 81H85.6435V70.0909H87.3196V78.5284ZM102.009 81.2273C100.986 81.2273 100.105 80.9858 99.3668 80.5028C98.6282 80.0199 98.06 79.3546 97.6623 78.5071C97.2646 77.6596 97.0657 76.6913 97.0657 75.6023C97.0657 74.4943 97.2693 73.5166 97.6765 72.669C98.0884 71.8168 98.6613 71.1515 99.3952 70.6733C100.134 70.1903 100.996 69.9489 101.98 69.9489C102.748 69.9489 103.439 70.0909 104.054 70.375C104.67 70.6591 105.174 71.0568 105.567 71.5682C105.96 72.0795 106.204 72.6761 106.299 73.358H104.623C104.495 72.8608 104.211 72.4205 103.77 72.0369C103.335 71.6487 102.748 71.4545 102.009 71.4545C101.355 71.4545 100.783 71.625 100.29 71.9659C99.8024 72.3021 99.4213 72.7779 99.1467 73.3935C98.8768 74.0043 98.7418 74.7216 98.7418 75.5455C98.7418 76.3883 98.8744 77.1222 99.1396 77.7472C99.4094 78.3722 99.7882 78.8575 100.276 79.2031C100.768 79.5488 101.346 79.7216 102.009 79.7216C102.444 79.7216 102.84 79.6458 103.195 79.4943C103.55 79.3428 103.851 79.125 104.097 78.8409C104.343 78.5568 104.518 78.2159 104.623 77.8182H106.299C106.204 78.4621 105.97 79.0421 105.596 79.5582C105.226 80.0696 104.736 80.4768 104.125 80.7798C103.519 81.0781 102.814 81.2273 102.009 81.2273ZM108.749 81V70.0909H110.425V74.8352H111.533L115.453 70.0909H117.613L113.209 75.3466L117.669 81H115.51L111.931 76.3977H110.425V81H108.749ZM125.116 81V70.0909H133.696V81H132.02V71.6534H126.792V81H125.116ZM139.967 81.2557C139.276 81.2557 138.648 81.1255 138.085 80.8651C137.521 80.5999 137.074 80.2188 136.743 79.7216C136.411 79.2197 136.245 78.6136 136.245 77.9034C136.245 77.2784 136.368 76.7718 136.615 76.3835C136.861 75.9905 137.19 75.6828 137.602 75.4602C138.014 75.2377 138.468 75.072 138.966 74.9631C139.467 74.8494 139.972 74.7595 140.478 74.6932C141.141 74.608 141.679 74.544 142.091 74.5014C142.507 74.4541 142.81 74.3759 143 74.267C143.194 74.1581 143.291 73.9687 143.291 73.6989V73.642C143.291 72.9413 143.099 72.3968 142.716 72.0085C142.337 71.6203 141.761 71.4261 140.99 71.4261C140.19 71.4261 139.562 71.6013 139.108 71.9517C138.653 72.3021 138.333 72.6761 138.149 73.0739L136.558 72.5057C136.842 71.8428 137.221 71.3267 137.694 70.9574C138.172 70.5833 138.693 70.3229 139.257 70.1761C139.825 70.0246 140.384 69.9489 140.933 69.9489C141.283 69.9489 141.686 69.9915 142.14 70.0767C142.6 70.1572 143.042 70.3253 143.468 70.581C143.899 70.8366 144.257 71.2225 144.541 71.7386C144.825 72.2547 144.967 72.946 144.967 73.8125V81H143.291V79.5227H143.206C143.092 79.7595 142.903 80.0128 142.637 80.2827C142.372 80.5526 142.02 80.7822 141.579 80.9716C141.139 81.161 140.601 81.2557 139.967 81.2557ZM140.223 79.75C140.886 79.75 141.444 79.6198 141.899 79.3594C142.358 79.099 142.704 78.7628 142.936 78.3509C143.172 77.9389 143.291 77.5057 143.291 77.0511V75.517C143.22 75.6023 143.064 75.6804 142.822 75.7514C142.585 75.8177 142.311 75.8769 141.998 75.929C141.69 75.9763 141.39 76.0189 141.096 76.0568C140.807 76.09 140.573 76.1184 140.393 76.142C139.958 76.1989 139.55 76.2912 139.172 76.419C138.797 76.5421 138.494 76.7292 138.262 76.9801C138.035 77.2263 137.922 77.5625 137.922 77.9886C137.922 78.571 138.137 79.0114 138.568 79.3097C139.003 79.6032 139.555 79.75 140.223 79.75ZM148.026 85.0909V70.0909H149.646V71.8239H149.844C149.968 71.6345 150.138 71.393 150.356 71.0994C150.578 70.8011 150.896 70.536 151.308 70.304C151.724 70.0672 152.288 69.9489 152.998 69.9489C153.916 69.9489 154.726 70.1785 155.427 70.6378C156.128 71.0971 156.674 71.7481 157.067 72.5909C157.46 73.4337 157.657 74.428 157.657 75.5739C157.657 76.7292 157.46 77.7306 157.067 78.5781C156.674 79.4209 156.13 80.0743 155.434 80.5384C154.738 80.9976 153.935 81.2273 153.026 81.2273C152.326 81.2273 151.764 81.1113 151.343 80.8793C150.922 80.6425 150.597 80.375 150.37 80.0767C150.143 79.7737 149.968 79.5227 149.844 79.3239H149.702V85.0909H148.026ZM149.674 75.5455C149.674 76.3693 149.795 77.0961 150.036 77.7259C150.278 78.3509 150.63 78.8409 151.094 79.196C151.558 79.5464 152.127 79.7216 152.799 79.7216C153.5 79.7216 154.085 79.5369 154.553 79.1676C155.027 78.7936 155.382 78.2917 155.619 77.6619C155.86 77.0275 155.981 76.322 155.981 75.5455C155.981 74.7784 155.862 74.0871 155.626 73.4716C155.394 72.8513 155.041 72.3613 154.567 72.0014C154.099 71.6368 153.509 71.4545 152.799 71.4545C152.117 71.4545 151.544 71.6274 151.08 71.973C150.616 72.3139 150.266 72.7921 150.029 73.4077C149.792 74.0185 149.674 74.7311 149.674 75.5455ZM158.788 71.6534V70.0909H167.652V71.6534H164.072V81H162.396V71.6534H158.788ZM177.398 74.7784V76.3409H171.375V74.7784H177.398ZM171.773 70.0909V81H170.097V70.0909H171.773ZM178.676 70.0909V81H177V70.0909H178.676ZM186.311 81.2273C185.26 81.2273 184.353 80.9953 183.591 80.5312C182.833 80.0625 182.249 79.4091 181.837 78.571C181.429 77.7282 181.226 76.7481 181.226 75.6307C181.226 74.5133 181.429 73.5284 181.837 72.6761C182.249 71.8191 182.821 71.1515 183.555 70.6733C184.294 70.1903 185.156 69.9489 186.141 69.9489C186.709 69.9489 187.27 70.0436 187.824 70.233C188.378 70.4223 188.882 70.7301 189.337 71.1562C189.791 71.5777 190.153 72.1364 190.423 72.8324C190.693 73.5284 190.828 74.3854 190.828 75.4034V76.1136H182.419V74.6648H189.124C189.124 74.0492 189 73.5 188.754 73.017C188.513 72.5341 188.167 72.1529 187.717 71.8736C187.272 71.5942 186.747 71.4545 186.141 71.4545C185.473 71.4545 184.895 71.6203 184.408 71.9517C183.925 72.2784 183.553 72.7045 183.293 73.2301C183.032 73.7557 182.902 74.3191 182.902 74.9205V75.8864C182.902 76.7102 183.044 77.4086 183.328 77.9815C183.617 78.5497 184.017 78.983 184.528 79.2812C185.04 79.5748 185.634 79.7216 186.311 79.7216C186.751 79.7216 187.149 79.66 187.504 79.5369C187.864 79.4091 188.174 79.2197 188.435 78.9688C188.695 78.7131 188.896 78.3958 189.038 78.017L190.658 78.4716C190.487 79.0208 190.201 79.5038 189.798 79.9205C189.396 80.3324 188.899 80.6544 188.307 80.8864C187.715 81.1136 187.05 81.2273 186.311 81.2273ZM193.378 85.0909V70.0909H194.997V71.8239H195.196C195.319 71.6345 195.49 71.393 195.707 71.0994C195.93 70.8011 196.247 70.536 196.659 70.304C197.076 70.0672 197.639 69.9489 198.349 69.9489C199.268 69.9489 200.078 70.1785 200.778 70.6378C201.479 71.0971 202.026 71.7481 202.419 72.5909C202.812 73.4337 203.009 74.428 203.009 75.5739C203.009 76.7292 202.812 77.7306 202.419 78.5781C202.026 79.4209 201.482 80.0743 200.786 80.5384C200.089 80.9976 199.287 81.2273 198.378 81.2273C197.677 81.2273 197.116 81.1113 196.695 80.8793C196.273 80.6425 195.949 80.375 195.722 80.0767C195.494 79.7737 195.319 79.5227 195.196 79.3239H195.054V85.0909H193.378ZM195.026 75.5455C195.026 76.3693 195.146 77.0961 195.388 77.7259C195.629 78.3509 195.982 78.8409 196.446 79.196C196.91 79.5464 197.478 79.7216 198.151 79.7216C198.851 79.7216 199.436 79.5369 199.905 79.1676C200.378 78.7936 200.733 78.2917 200.97 77.6619C201.212 77.0275 201.332 76.322 201.332 75.5455C201.332 74.7784 201.214 74.0871 200.977 73.4716C200.745 72.8513 200.393 72.3613 199.919 72.0014C199.45 71.6368 198.861 71.4545 198.151 71.4545C197.469 71.4545 196.896 71.6274 196.432 71.973C195.968 72.3139 195.617 72.7921 195.381 73.4077C195.144 74.0185 195.026 74.7311 195.026 75.5455ZM209.997 81.2273C209.012 81.2273 208.148 80.9929 207.405 80.5241C206.666 80.0554 206.089 79.3996 205.672 78.5568C205.26 77.714 205.054 76.7292 205.054 75.6023C205.054 74.4659 205.26 73.474 205.672 72.6264C206.089 71.7789 206.666 71.1207 207.405 70.652C208.148 70.1832 209.012 69.9489 209.997 69.9489C210.982 69.9489 211.844 70.1832 212.582 70.652C213.326 71.1207 213.903 71.7789 214.315 72.6264C214.732 73.474 214.94 74.4659 214.94 75.6023C214.94 76.7292 214.732 77.714 214.315 78.5568C213.903 79.3996 213.326 80.0554 212.582 80.5241C211.844 80.9929 210.982 81.2273 209.997 81.2273ZM209.997 79.7216C210.745 79.7216 211.361 79.5298 211.844 79.1463C212.327 78.7628 212.684 78.2585 212.916 77.6335C213.148 77.0085 213.264 76.3314 213.264 75.6023C213.264 74.8731 213.148 74.1937 212.916 73.5639C212.684 72.9342 212.327 72.4252 211.844 72.0369C211.361 71.6487 210.745 71.4545 209.997 71.4545C209.249 71.4545 208.634 71.6487 208.151 72.0369C207.668 72.4252 207.31 72.9342 207.078 73.5639C206.846 74.1937 206.73 74.8731 206.73 75.6023C206.73 76.3314 206.846 77.0085 207.078 77.6335C207.31 78.2585 207.668 78.7628 208.151 79.1463C208.634 79.5298 209.249 79.7216 209.997 79.7216ZM217.499 81V70.0909H221.959C223.133 70.0909 224.066 70.3561 224.757 70.8864C225.449 71.4167 225.794 72.1174 225.794 72.9886C225.794 73.6515 225.598 74.1652 225.205 74.5298C224.812 74.8897 224.308 75.1335 223.692 75.2614C224.095 75.3182 224.485 75.4602 224.864 75.6875C225.248 75.9148 225.565 76.2273 225.816 76.625C226.067 77.018 226.192 77.5009 226.192 78.0739C226.192 78.6326 226.05 79.1321 225.766 79.5724C225.482 80.0128 225.075 80.3608 224.544 80.6165C224.014 80.8722 223.38 81 222.641 81H217.499ZM219.09 79.4659H222.641C223.219 79.4659 223.671 79.3286 223.998 79.054C224.324 78.7794 224.488 78.4053 224.488 77.9318C224.488 77.3684 224.324 76.9257 223.998 76.6037C223.671 76.277 223.219 76.1136 222.641 76.1136H219.09V79.4659ZM219.09 74.6648H221.959C222.409 74.6648 222.795 74.6032 223.117 74.4801C223.439 74.3523 223.685 74.1723 223.855 73.9403C224.031 73.7036 224.118 73.4242 224.118 73.1023C224.118 72.643 223.926 72.2831 223.543 72.0227C223.159 71.7576 222.632 71.625 221.959 71.625H219.09V74.6648ZM236.031 78.5284L241.286 70.0909H243.218V81H241.542V72.5625L236.315 81H234.354V70.0909H236.031V78.5284ZM32.8523 102.216H34.642C34.6799 102.708 34.9025 103.082 35.3097 103.338C35.7216 103.594 36.2566 103.722 36.9148 103.722C37.5871 103.722 38.1624 103.584 38.6406 103.31C39.1188 103.03 39.358 102.58 39.358 101.96C39.358 101.596 39.268 101.278 39.0881 101.009C38.9081 100.734 38.6548 100.521 38.3281 100.369C38.0014 100.218 37.6155 100.142 37.1705 100.142H35.2955V98.6364H37.1705C37.8381 98.6364 38.3305 98.4848 38.6477 98.1818C38.9697 97.8788 39.1307 97.5 39.1307 97.0455C39.1307 96.5578 38.9579 96.1671 38.6122 95.8736C38.2666 95.5753 37.7765 95.4261 37.142 95.4261C36.5028 95.4261 35.9702 95.5705 35.544 95.8594C35.1179 96.1435 34.893 96.5104 34.8693 96.9602H33.108C33.1269 96.3731 33.3068 95.8546 33.6477 95.4048C33.9886 94.9503 34.4527 94.5952 35.0398 94.3395C35.6269 94.0791 36.2992 93.9489 37.0568 93.9489C37.8239 93.9489 38.4891 94.0838 39.0526 94.3537C39.6207 94.6188 40.0587 94.9811 40.3665 95.4403C40.679 95.8949 40.8352 96.411 40.8352 96.9886C40.8352 97.6042 40.6624 98.1013 40.3168 98.4801C39.9711 98.8589 39.5379 99.1288 39.017 99.2898V99.4034C39.429 99.4318 39.7865 99.5644 40.0895 99.8011C40.3973 100.033 40.6364 100.339 40.8068 100.717C40.9773 101.091 41.0625 101.506 41.0625 101.96C41.0625 102.623 40.8849 103.201 40.5298 103.693C40.1747 104.181 39.687 104.56 39.0668 104.83C38.4465 105.095 37.7386 105.227 36.9432 105.227C36.1714 105.227 35.4801 105.102 34.8693 104.851C34.2585 104.595 33.7732 104.242 33.4134 103.793C33.0582 103.338 32.8712 102.812 32.8523 102.216ZM46.6271 105.256C45.9358 105.256 45.3085 105.125 44.745 104.865C44.1816 104.6 43.7341 104.219 43.4027 103.722C43.0713 103.22 42.9055 102.614 42.9055 101.903C42.9055 101.278 43.0286 100.772 43.2749 100.384C43.5211 99.9905 43.8501 99.6828 44.2621 99.4602C44.674 99.2377 45.1286 99.072 45.6257 98.9631C46.1276 98.8494 46.6319 98.7595 47.1385 98.6932C47.8014 98.608 48.3388 98.544 48.7507 98.5014C49.1674 98.4541 49.4704 98.3759 49.6598 98.267C49.8539 98.1581 49.951 97.9687 49.951 97.6989V97.642C49.951 96.9413 49.7592 96.3968 49.3757 96.0085C48.9969 95.6203 48.4216 95.4261 47.6499 95.4261C46.8497 95.4261 46.2223 95.6013 45.7678 95.9517C45.3132 96.3021 44.9936 96.6761 44.8089 97.0739L43.218 96.5057C43.5021 95.8428 43.8809 95.3267 44.3544 94.9574C44.8326 94.5833 45.3535 94.3229 45.9169 94.1761C46.4851 94.0246 47.0438 93.9489 47.593 93.9489C47.9434 93.9489 48.3459 93.9915 48.8004 94.0767C49.2597 94.1572 49.7024 94.3253 50.1286 94.581C50.5594 94.8366 50.9169 95.2225 51.201 95.7386C51.4851 96.2547 51.6271 96.946 51.6271 97.8125V105H49.951V103.523H49.8658C49.7521 103.759 49.5627 104.013 49.2976 104.283C49.0324 104.553 48.6797 104.782 48.2393 104.972C47.799 105.161 47.2616 105.256 46.6271 105.256ZM46.8828 103.75C47.5457 103.75 48.1044 103.62 48.5589 103.359C49.0182 103.099 49.3639 102.763 49.5959 102.351C49.8326 101.939 49.951 101.506 49.951 101.051V99.517C49.88 99.6023 49.7237 99.6804 49.4822 99.7514C49.2455 99.8177 48.9709 99.8769 48.6584 99.929C48.3506 99.9763 48.05 100.019 47.7564 100.057C47.4676 100.09 47.2332 100.118 47.0533 100.142C46.6177 100.199 46.2105 100.291 45.8317 100.419C45.4576 100.542 45.1546 100.729 44.9226 100.98C44.6953 101.226 44.5817 101.562 44.5817 101.989C44.5817 102.571 44.7971 103.011 45.228 103.31C45.6636 103.603 46.2152 103.75 46.8828 103.75ZM54.6864 105V94.0909H56.3626V98.8352H57.4705L61.391 94.0909H63.5501L59.1467 99.3466L63.6069 105H61.4478L57.8683 100.398H56.3626V105H54.6864ZM64.4627 105V103.438H64.8604C65.1871 103.438 65.4594 103.374 65.6772 103.246C65.895 103.113 66.0702 102.884 66.2028 102.557C66.3401 102.225 66.4442 101.766 66.5153 101.179C66.591 100.587 66.6455 99.8343 66.6786 98.9205L66.8775 94.0909H74.1502V105H72.4741V95.6534H68.4684L68.2979 99.5455C68.2601 100.44 68.1796 101.229 68.0565 101.911C67.9381 102.588 67.7558 103.156 67.5096 103.615C67.2681 104.074 66.9461 104.42 66.5437 104.652C66.1412 104.884 65.637 105 65.0309 105H64.4627ZM82.4528 98.8636V100.426H76.6857V98.8636H82.4528ZM78.1062 94.0909V105H76.43V94.0909H78.1062ZM85.805 105.227C84.8202 105.227 83.9561 104.993 83.2127 104.524C82.4741 104.055 81.8964 103.4 81.4798 102.557C81.0678 101.714 80.8619 100.729 80.8619 99.6023C80.8619 98.4659 81.0678 97.474 81.4798 96.6264C81.8964 95.7789 82.4741 95.1207 83.2127 94.652C83.9561 94.1832 84.8202 93.9489 85.805 93.9489C86.7899 93.9489 87.6516 94.1832 88.3903 94.652C89.1336 95.1207 89.7113 95.7789 90.1232 96.6264C90.5399 97.474 90.7482 98.4659 90.7482 99.6023C90.7482 100.729 90.5399 101.714 90.1232 102.557C89.7113 103.4 89.1336 104.055 88.3903 104.524C87.6516 104.993 86.7899 105.227 85.805 105.227ZM85.805 103.722C86.5531 103.722 87.1687 103.53 87.6516 103.146C88.1346 102.763 88.4921 102.259 88.7241 101.634C88.9561 101.009 89.0721 100.331 89.0721 99.6023C89.0721 98.8731 88.9561 98.1937 88.7241 97.5639C88.4921 96.9342 88.1346 96.4252 87.6516 96.0369C87.1687 95.6487 86.5531 95.4545 85.805 95.4545C85.0569 95.4545 84.4414 95.6487 83.9585 96.0369C83.4755 96.4252 83.118 96.9342 82.886 97.5639C82.654 98.1937 82.538 98.8731 82.538 99.6023C82.538 100.331 82.654 101.009 82.886 101.634C83.118 102.259 83.4755 102.763 83.9585 103.146C84.4414 103.53 85.0569 103.722 85.805 103.722ZM101.885 94.0909V105H100.208V94.0909H101.885ZM101.231 99.2898V100.852C100.852 100.994 100.476 101.12 100.102 101.229C99.7279 101.333 99.3349 101.416 98.9229 101.477C98.511 101.534 98.0588 101.562 97.5664 101.562C96.3306 101.562 95.3387 101.229 94.5906 100.561C93.8472 99.8935 93.4755 98.892 93.4755 97.5568V94.0625H95.1516V97.5568C95.1516 98.1155 95.2582 98.5748 95.4712 98.9347C95.6843 99.2945 95.9731 99.562 96.3377 99.7372C96.7023 99.9124 97.1119 100 97.5664 100C98.2766 100 98.9182 99.9361 99.4911 99.8082C100.069 99.6757 100.649 99.5028 101.231 99.2898ZM109.534 105.227C108.483 105.227 107.576 104.995 106.814 104.531C106.056 104.062 105.471 103.409 105.059 102.571C104.652 101.728 104.449 100.748 104.449 99.6307C104.449 98.5133 104.652 97.5284 105.059 96.6761C105.471 95.8191 106.044 95.1515 106.778 94.6733C107.517 94.1903 108.378 93.9489 109.363 93.9489C109.931 93.9489 110.493 94.0436 111.047 94.233C111.6 94.4223 112.105 94.7301 112.559 95.1562C113.014 95.5777 113.376 96.1364 113.646 96.8324C113.916 97.5284 114.051 98.3854 114.051 99.4034V100.114H105.642V98.6648H112.346C112.346 98.0492 112.223 97.5 111.977 97.017C111.735 96.5341 111.39 96.1529 110.94 95.8736C110.495 95.5942 109.969 95.4545 109.363 95.4545C108.696 95.4545 108.118 95.6203 107.63 95.9517C107.147 96.2784 106.776 96.7045 106.515 97.2301C106.255 97.7557 106.125 98.3191 106.125 98.9205V99.8864C106.125 100.71 106.267 101.409 106.551 101.982C106.84 102.55 107.24 102.983 107.751 103.281C108.262 103.575 108.857 103.722 109.534 103.722C109.974 103.722 110.372 103.66 110.727 103.537C111.087 103.409 111.397 103.22 111.657 102.969C111.918 102.713 112.119 102.396 112.261 102.017L113.88 102.472C113.71 103.021 113.423 103.504 113.021 103.92C112.618 104.332 112.121 104.654 111.529 104.886C110.938 105.114 110.272 105.227 109.534 105.227ZM123.902 98.7784V100.341H117.879V98.7784H123.902ZM118.277 94.0909V105H116.6V94.0909H118.277ZM125.18 94.0909V105H123.504V94.0909H125.18ZM129.917 102.528L135.173 94.0909H137.105V105H135.429V96.5625L130.201 105H128.241V94.0909H129.917V102.528ZM144.749 105.227C143.697 105.227 142.791 104.995 142.028 104.531C141.271 104.062 140.686 103.409 140.274 102.571C139.867 101.728 139.663 100.748 139.663 99.6307C139.663 98.5133 139.867 97.5284 140.274 96.6761C140.686 95.8191 141.259 95.1515 141.993 94.6733C142.732 94.1903 143.593 93.9489 144.578 93.9489C145.146 93.9489 145.707 94.0436 146.261 94.233C146.815 94.4223 147.32 94.7301 147.774 95.1562C148.229 95.5777 148.591 96.1364 148.861 96.8324C149.131 97.5284 149.266 98.3854 149.266 99.4034V100.114H140.857V98.6648H147.561C147.561 98.0492 147.438 97.5 147.192 97.017C146.95 96.5341 146.605 96.1529 146.155 95.8736C145.71 95.5942 145.184 95.4545 144.578 95.4545C143.911 95.4545 143.333 95.6203 142.845 95.9517C142.362 96.2784 141.991 96.7045 141.73 97.2301C141.47 97.7557 141.339 98.3191 141.339 98.9205V99.8864C141.339 100.71 141.482 101.409 141.766 101.982C142.054 102.55 142.455 102.983 142.966 103.281C143.477 103.575 144.071 103.722 144.749 103.722C145.189 103.722 145.587 103.66 145.942 103.537C146.302 103.409 146.612 103.22 146.872 102.969C147.133 102.713 147.334 102.396 147.476 102.017L149.095 102.472C148.925 103.021 148.638 103.504 148.236 103.92C147.833 104.332 147.336 104.654 146.744 104.886C146.152 105.114 145.487 105.227 144.749 105.227ZM161.872 105.227C160.849 105.227 159.969 104.986 159.23 104.503C158.491 104.02 157.923 103.355 157.526 102.507C157.128 101.66 156.929 100.691 156.929 99.6023C156.929 98.4943 157.133 97.5166 157.54 96.669C157.952 95.8168 158.525 95.1515 159.259 94.6733C159.997 94.1903 160.859 93.9489 161.844 93.9489C162.611 93.9489 163.302 94.0909 163.918 94.375C164.533 94.6591 165.037 95.0568 165.43 95.5682C165.823 96.0795 166.067 96.6761 166.162 97.358H164.486C164.358 96.8608 164.074 96.4205 163.634 96.0369C163.198 95.6487 162.611 95.4545 161.872 95.4545C161.219 95.4545 160.646 95.625 160.153 95.9659C159.666 96.3021 159.285 96.7779 159.01 97.3935C158.74 98.0043 158.605 98.7216 158.605 99.5455C158.605 100.388 158.738 101.122 159.003 101.747C159.273 102.372 159.652 102.857 160.139 103.203C160.632 103.549 161.209 103.722 161.872 103.722C162.308 103.722 162.703 103.646 163.058 103.494C163.413 103.343 163.714 103.125 163.96 102.841C164.206 102.557 164.382 102.216 164.486 101.818H166.162C166.067 102.462 165.833 103.042 165.459 103.558C165.089 104.07 164.599 104.477 163.989 104.78C163.383 105.078 162.677 105.227 161.872 105.227ZM167.447 108.125V103.438H168.357C168.579 103.205 168.771 102.955 168.932 102.685C169.093 102.415 169.232 102.095 169.351 101.726C169.474 101.352 169.578 100.897 169.663 100.362C169.749 99.8224 169.824 99.1714 169.891 98.4091L170.26 94.0909H177.192V103.438H178.868V108.125H177.192V105H169.124V108.125H167.447ZM170.26 103.438H175.516V95.6534H171.822L171.538 98.4091C171.42 99.5502 171.273 100.547 171.098 101.399C170.923 102.251 170.643 102.931 170.26 103.438ZM185.667 105.227C184.615 105.227 183.709 104.995 182.946 104.531C182.189 104.062 181.604 103.409 181.192 102.571C180.785 101.728 180.581 100.748 180.581 99.6307C180.581 98.5133 180.785 97.5284 181.192 96.6761C181.604 95.8191 182.177 95.1515 182.911 94.6733C183.65 94.1903 184.511 93.9489 185.496 93.9489C186.064 93.9489 186.625 94.0436 187.179 94.233C187.733 94.4223 188.238 94.7301 188.692 95.1562C189.147 95.5777 189.509 96.1364 189.779 96.8324C190.049 97.5284 190.184 98.3854 190.184 99.4034V100.114H181.775V98.6648H188.479C188.479 98.0492 188.356 97.5 188.11 97.017C187.868 96.5341 187.523 96.1529 187.073 95.8736C186.628 95.5942 186.102 95.4545 185.496 95.4545C184.828 95.4545 184.251 95.6203 183.763 95.9517C183.28 96.2784 182.908 96.7045 182.648 97.2301C182.388 97.7557 182.257 98.3191 182.257 98.9205V99.8864C182.257 100.71 182.4 101.409 182.684 101.982C182.972 102.55 183.373 102.983 183.884 103.281C184.395 103.575 184.989 103.722 185.667 103.722C186.107 103.722 186.505 103.66 186.86 103.537C187.22 103.409 187.53 103.22 187.79 102.969C188.051 102.713 188.252 102.396 188.394 102.017L190.013 102.472C189.843 103.021 189.556 103.504 189.154 103.92C188.751 104.332 188.254 104.654 187.662 104.886C187.07 105.114 186.405 105.227 185.667 105.227ZM191.767 105V103.438H192.165C192.492 103.438 192.764 103.374 192.982 103.246C193.2 103.113 193.375 102.884 193.507 102.557C193.645 102.225 193.749 101.766 193.82 101.179C193.896 100.587 193.95 99.8343 193.983 98.9205L194.182 94.0909H201.455V105H199.779V95.6534H195.773L195.603 99.5455C195.565 100.44 195.484 101.229 195.361 101.911C195.243 102.588 195.06 103.156 194.814 103.615C194.573 104.074 194.251 104.42 193.848 104.652C193.446 104.884 192.942 105 192.336 105H191.767ZM208.962 105.227C207.977 105.227 207.113 104.993 206.37 104.524C205.631 104.055 205.053 103.4 204.637 102.557C204.225 101.714 204.019 100.729 204.019 99.6023C204.019 98.4659 204.225 97.474 204.637 96.6264C205.053 95.7789 205.631 95.1207 206.37 94.652C207.113 94.1832 207.977 93.9489 208.962 93.9489C209.947 93.9489 210.809 94.1832 211.547 94.652C212.291 95.1207 212.868 95.7789 213.28 96.6264C213.697 97.474 213.905 98.4659 213.905 99.6023C213.905 100.729 213.697 101.714 213.28 102.557C212.868 103.4 212.291 104.055 211.547 104.524C210.809 104.993 209.947 105.227 208.962 105.227ZM208.962 103.722C209.71 103.722 210.326 103.53 210.809 103.146C211.292 102.763 211.649 102.259 211.881 101.634C212.113 101.009 212.229 100.331 212.229 99.6023C212.229 98.8731 212.113 98.1937 211.881 97.5639C211.649 96.9342 211.292 96.4252 210.809 96.0369C210.326 95.6487 209.71 95.4545 208.962 95.4545C208.214 95.4545 207.598 95.6487 207.115 96.0369C206.632 96.4252 206.275 96.9342 206.043 97.5639C205.811 98.1937 205.695 98.8731 205.695 99.6023C205.695 100.331 205.811 101.009 206.043 101.634C206.275 102.259 206.632 102.763 207.115 103.146C207.598 103.53 208.214 103.722 208.962 103.722ZM216.464 105V94.0909H218.14V98.8352H219.248L223.168 94.0909H225.327L220.924 99.3466L225.384 105H223.225L219.646 100.398H218.14V105H216.464Z" fill="white"/>
<path d="M134.594 156.139V151.139L154.594 142.332V148.085L140.901 153.582L141.085 153.284V153.994L140.901 153.696L154.594 159.193V164.946L134.594 156.139ZM176.556 168.398C174.435 168.398 172.546 168.033 170.888 167.304C169.241 166.565 167.939 165.552 166.982 164.264C166.035 162.967 165.548 161.471 165.519 159.776H171.712C171.75 160.486 171.982 161.111 172.408 161.651C172.844 162.181 173.422 162.593 174.141 162.886C174.861 163.18 175.671 163.327 176.57 163.327C177.508 163.327 178.336 163.161 179.056 162.83C179.776 162.498 180.339 162.039 180.746 161.452C181.154 160.865 181.357 160.187 181.357 159.42C181.357 158.644 181.139 157.957 180.704 157.361C180.278 156.755 179.662 156.281 178.857 155.94C178.062 155.599 177.115 155.429 176.016 155.429H173.303V150.912H176.016C176.944 150.912 177.763 150.751 178.474 150.429C179.193 150.107 179.752 149.662 180.15 149.094C180.548 148.516 180.746 147.844 180.746 147.077C180.746 146.348 180.571 145.708 180.221 145.159C179.88 144.6 179.397 144.165 178.772 143.852C178.156 143.54 177.437 143.384 176.613 143.384C175.78 143.384 175.017 143.535 174.326 143.838C173.635 144.132 173.081 144.553 172.664 145.102C172.247 145.652 172.025 146.295 171.996 147.034H166.102C166.13 145.358 166.608 143.881 167.536 142.602C168.464 141.324 169.714 140.325 171.286 139.605C172.868 138.876 174.653 138.511 176.641 138.511C178.649 138.511 180.406 138.876 181.911 139.605C183.417 140.334 184.586 141.319 185.42 142.56C186.263 143.791 186.679 145.173 186.67 146.707C186.679 148.336 186.173 149.695 185.15 150.784C184.137 151.873 182.816 152.564 181.187 152.858V153.085C183.327 153.36 184.956 154.103 186.073 155.315C187.2 156.518 187.759 158.024 187.749 159.832C187.759 161.49 187.281 162.962 186.315 164.25C185.358 165.538 184.037 166.551 182.352 167.29C180.666 168.028 178.734 168.398 176.556 168.398ZM201.577 168.639C199.134 168.63 197.031 168.028 195.27 166.835C193.518 165.642 192.169 163.914 191.222 161.651C190.284 159.387 189.82 156.665 189.83 153.483C189.83 150.311 190.298 147.607 191.236 145.372C192.183 143.137 193.532 141.437 195.284 140.273C197.045 139.098 199.143 138.511 201.577 138.511C204.01 138.511 206.103 139.098 207.855 140.273C209.616 141.447 210.971 143.152 211.918 145.386C212.865 147.612 213.333 150.311 213.324 153.483C213.324 156.674 212.85 159.402 211.903 161.665C210.966 163.928 209.621 165.656 207.869 166.849C206.117 168.043 204.02 168.639 201.577 168.639ZM201.577 163.54C203.243 163.54 204.574 162.702 205.568 161.026C206.563 159.349 207.055 156.835 207.045 153.483C207.045 151.277 206.818 149.439 206.364 147.972C205.919 146.504 205.284 145.401 204.46 144.662C203.646 143.923 202.685 143.554 201.577 143.554C199.92 143.554 198.594 144.383 197.599 146.04C196.605 147.697 196.103 150.178 196.094 153.483C196.094 155.718 196.316 157.583 196.761 159.08C197.216 160.566 197.855 161.684 198.679 162.432C199.503 163.17 200.469 163.54 201.577 163.54ZM231.633 162.545V161.011C231.633 159.847 231.879 158.777 232.371 157.801C232.873 156.816 233.598 156.03 234.545 155.443C235.501 154.847 236.666 154.548 238.039 154.548C239.431 154.548 240.601 154.842 241.548 155.429C242.504 156.016 243.224 156.802 243.707 157.787C244.199 158.762 244.445 159.837 244.445 161.011V162.545C244.445 163.71 244.199 164.785 243.707 165.77C243.214 166.745 242.49 167.527 241.533 168.114C240.577 168.71 239.412 169.009 238.039 169.009C236.647 169.009 235.478 168.71 234.531 168.114C233.584 167.527 232.864 166.745 232.371 165.77C231.879 164.785 231.633 163.71 231.633 162.545ZM235.766 161.011V162.545C235.766 163.218 235.927 163.852 236.249 164.449C236.581 165.045 237.177 165.344 238.039 165.344C238.901 165.344 239.488 165.05 239.8 164.463C240.122 163.876 240.283 163.237 240.283 162.545V161.011C240.283 160.32 240.132 159.676 239.829 159.08C239.526 158.483 238.929 158.185 238.039 158.185C237.187 158.185 236.595 158.483 236.263 159.08C235.932 159.676 235.766 160.32 235.766 161.011ZM216.704 145.898V144.364C216.704 143.189 216.955 142.115 217.457 141.139C217.959 140.154 218.683 139.368 219.63 138.781C220.586 138.194 221.742 137.901 223.096 137.901C224.497 137.901 225.672 138.194 226.619 138.781C227.566 139.368 228.285 140.154 228.778 141.139C229.27 142.115 229.516 143.189 229.516 144.364V145.898C229.516 147.072 229.265 148.147 228.763 149.122C228.271 150.098 227.547 150.879 226.59 151.466C225.643 152.044 224.478 152.332 223.096 152.332C221.713 152.332 220.544 152.039 219.587 151.452C218.64 150.855 217.921 150.074 217.428 149.108C216.945 148.133 216.704 147.062 216.704 145.898ZM220.866 144.364V145.898C220.866 146.589 221.027 147.228 221.349 147.815C221.68 148.402 222.263 148.696 223.096 148.696C223.967 148.696 224.559 148.402 224.871 147.815C225.193 147.228 225.354 146.589 225.354 145.898V144.364C225.354 143.672 225.203 143.028 224.9 142.432C224.597 141.835 223.996 141.537 223.096 141.537C222.253 141.537 221.671 141.84 221.349 142.446C221.027 143.052 220.866 143.691 220.866 144.364ZM218.579 168L238.579 138.909H242.3L222.3 168H218.579Z" fill="white"/>
</svg>
