<svg width="337" height="271" viewBox="0 0 337 271" fill="none" xmlns="http://www.w3.org/2000/svg">
<path d="M50.2159 109.557H53.3608C54.6903 109.557 55.8693 109.849 56.8977 110.435C57.9318 111.014 58.7415 111.83 59.3267 112.881C59.9176 113.926 60.2131 115.142 60.2131 116.528C60.2131 117.903 59.9176 119.111 59.3267 120.151C58.7415 121.19 57.9318 122.003 56.8977 122.588C55.8693 123.168 54.6903 123.457 53.3608 123.457H50.2159C48.8864 123.457 47.7045 123.17 46.6705 122.597C45.6364 122.017 44.8239 121.21 44.233 120.176C43.6477 119.142 43.3551 117.935 43.3551 116.554C43.3551 115.162 43.6506 113.94 44.2415 112.889C44.8324 111.838 45.642 111.02 46.6705 110.435C47.7045 109.849 48.8864 109.557 50.2159 109.557ZM50.2159 111.832C49.3068 111.832 48.5313 112.023 47.8892 112.403C47.2472 112.778 46.7557 113.318 46.4148 114.023C46.0739 114.727 45.9034 115.571 45.9034 116.554C45.9034 117.514 46.0739 118.341 46.4148 119.034C46.7614 119.722 47.2557 120.253 47.8977 120.628C48.5398 120.997 49.3125 121.182 50.2159 121.182H53.3693C54.2727 121.182 55.0426 120.997 55.679 120.628C56.321 120.253 56.8097 119.719 57.1449 119.026C57.4858 118.327 57.6562 117.494 57.6562 116.528C57.6562 115.557 57.4858 114.722 57.1449 114.023C56.8097 113.318 56.321 112.778 55.679 112.403C55.0426 112.023 54.2727 111.832 53.3693 111.832H50.2159ZM53.0881 107.239V125.716H50.5057V107.239H53.0881ZM68.9254 125.264C67.6357 125.264 66.5249 124.989 65.593 124.438C64.6669 123.881 63.951 123.099 63.4453 122.094C62.9453 121.082 62.6953 119.898 62.6953 118.54C62.6953 117.199 62.9453 116.017 63.4453 114.994C63.951 113.972 64.6555 113.173 65.5589 112.599C66.468 112.026 67.5305 111.739 68.7464 111.739C69.4851 111.739 70.201 111.861 70.8942 112.105C71.5874 112.349 72.2095 112.733 72.7607 113.256C73.3118 113.778 73.7464 114.457 74.0646 115.293C74.3828 116.122 74.5419 117.131 74.5419 118.318V119.222H64.1357V117.312H72.0447C72.0447 116.642 71.9084 116.048 71.6357 115.531C71.3629 115.009 70.9794 114.597 70.4851 114.295C69.9964 113.994 69.4226 113.844 68.7635 113.844C68.0476 113.844 67.4226 114.02 66.8885 114.372C66.3601 114.719 65.951 115.173 65.6612 115.736C65.3771 116.293 65.2351 116.898 65.2351 117.551V119.043C65.2351 119.918 65.3885 120.662 65.6953 121.276C66.0078 121.889 66.4425 122.358 66.9993 122.682C67.5561 123 68.2067 123.159 68.951 123.159C69.4339 123.159 69.8743 123.091 70.272 122.955C70.6697 122.812 71.0135 122.602 71.3033 122.324C71.593 122.045 71.8146 121.702 71.968 121.293L74.38 121.727C74.1868 122.437 73.8402 123.06 73.3402 123.594C72.8459 124.122 72.2237 124.534 71.4737 124.83C70.7294 125.119 69.88 125.264 68.9254 125.264ZM77.3693 129.909V111.909H79.858V114.031H80.071C80.2188 113.759 80.4318 113.443 80.7102 113.085C80.9886 112.727 81.375 112.415 81.8693 112.148C82.3636 111.875 83.017 111.739 83.8295 111.739C84.8864 111.739 85.8295 112.006 86.6591 112.54C87.4886 113.074 88.1392 113.844 88.6108 114.849C89.0881 115.855 89.3267 117.065 89.3267 118.48C89.3267 119.895 89.0909 121.108 88.6193 122.119C88.1477 123.125 87.5 123.901 86.6761 124.446C85.8523 124.986 84.9119 125.256 83.8551 125.256C83.0597 125.256 82.4091 125.122 81.9034 124.855C81.4034 124.588 81.0114 124.276 80.7273 123.918C80.4432 123.56 80.2244 123.241 80.071 122.963H79.9176V129.909H77.3693ZM79.8665 118.455C79.8665 119.375 80 120.182 80.267 120.875C80.5341 121.568 80.9205 122.111 81.4261 122.503C81.9318 122.889 82.5511 123.082 83.2841 123.082C84.0455 123.082 84.6818 122.881 85.1932 122.477C85.7045 122.068 86.0909 121.514 86.3523 120.815C86.6193 120.116 86.7528 119.33 86.7528 118.455C86.7528 117.591 86.6222 116.815 86.3608 116.128C86.1051 115.44 85.7188 114.898 85.2017 114.5C84.6903 114.102 84.0511 113.903 83.2841 113.903C82.5455 113.903 81.9205 114.094 81.4091 114.474C80.9034 114.855 80.5199 115.386 80.2585 116.068C79.9972 116.75 79.8665 117.545 79.8665 118.455ZM99.5284 121.847L103.756 111.909H105.955L100.474 125H98.5824L93.2131 111.909H95.3864L99.5284 121.847ZM94.679 111.909V125H92.1818V111.909H94.679ZM104.446 125V111.909H106.926V125H104.446ZM115.964 125.264C114.675 125.264 113.564 124.989 112.632 124.438C111.706 123.881 110.99 123.099 110.484 122.094C109.984 121.082 109.734 119.898 109.734 118.54C109.734 117.199 109.984 116.017 110.484 114.994C110.99 113.972 111.695 113.173 112.598 112.599C113.507 112.026 114.57 111.739 115.786 111.739C116.524 111.739 117.24 111.861 117.933 112.105C118.626 112.349 119.249 112.733 119.8 113.256C120.351 113.778 120.786 114.457 121.104 115.293C121.422 116.122 121.581 117.131 121.581 118.318V119.222H111.175V117.312H119.084C119.084 116.642 118.947 116.048 118.675 115.531C118.402 115.009 118.018 114.597 117.524 114.295C117.036 113.994 116.462 113.844 115.803 113.844C115.087 113.844 114.462 114.02 113.928 114.372C113.399 114.719 112.99 115.173 112.7 115.736C112.416 116.293 112.274 116.898 112.274 117.551V119.043C112.274 119.918 112.428 120.662 112.734 121.276C113.047 121.889 113.482 122.358 114.038 122.682C114.595 123 115.246 123.159 115.99 123.159C116.473 123.159 116.913 123.091 117.311 122.955C117.709 122.812 118.053 122.602 118.342 122.324C118.632 122.045 118.854 121.702 119.007 121.293L121.419 121.727C121.226 122.437 120.879 123.06 120.379 123.594C119.885 124.122 119.263 124.534 118.513 124.83C117.768 125.119 116.919 125.264 115.964 125.264ZM124.408 129.909V111.909H126.897V114.031H127.11C127.258 113.759 127.471 113.443 127.749 113.085C128.028 112.727 128.414 112.415 128.908 112.148C129.403 111.875 130.056 111.739 130.869 111.739C131.925 111.739 132.869 112.006 133.698 112.54C134.528 113.074 135.178 113.844 135.65 114.849C136.127 115.855 136.366 117.065 136.366 118.48C136.366 119.895 136.13 121.108 135.658 122.119C135.187 123.125 134.539 123.901 133.715 124.446C132.891 124.986 131.951 125.256 130.894 125.256C130.099 125.256 129.448 125.122 128.942 124.855C128.442 124.588 128.05 124.276 127.766 123.918C127.482 123.56 127.263 123.241 127.11 122.963H126.957V129.909H124.408ZM126.906 118.455C126.906 119.375 127.039 120.182 127.306 120.875C127.573 121.568 127.96 122.111 128.465 122.503C128.971 122.889 129.59 123.082 130.323 123.082C131.085 123.082 131.721 122.881 132.232 122.477C132.744 122.068 133.13 121.514 133.391 120.815C133.658 120.116 133.792 119.33 133.792 118.455C133.792 117.591 133.661 116.815 133.4 116.128C133.144 115.44 132.758 114.898 132.241 114.5C131.729 114.102 131.09 113.903 130.323 113.903C129.585 113.903 128.96 114.094 128.448 114.474C127.942 114.855 127.559 115.386 127.298 116.068C127.036 116.75 126.906 117.545 126.906 118.455ZM143.031 125.29C142.201 125.29 141.451 125.136 140.781 124.83C140.11 124.517 139.579 124.065 139.187 123.474C138.8 122.884 138.607 122.159 138.607 121.301C138.607 120.562 138.749 119.955 139.033 119.477C139.317 119 139.701 118.622 140.184 118.344C140.667 118.065 141.207 117.855 141.803 117.713C142.4 117.571 143.008 117.463 143.627 117.389C144.411 117.298 145.048 117.224 145.536 117.168C146.025 117.105 146.38 117.006 146.602 116.869C146.823 116.733 146.934 116.511 146.934 116.205V116.145C146.934 115.401 146.724 114.824 146.303 114.415C145.888 114.006 145.269 113.801 144.445 113.801C143.587 113.801 142.911 113.991 142.417 114.372C141.928 114.747 141.59 115.165 141.403 115.625L139.008 115.08C139.292 114.284 139.707 113.642 140.252 113.153C140.803 112.659 141.437 112.301 142.153 112.08C142.869 111.852 143.621 111.739 144.411 111.739C144.934 111.739 145.488 111.801 146.073 111.926C146.664 112.045 147.215 112.267 147.727 112.591C148.244 112.915 148.667 113.378 148.996 113.98C149.326 114.577 149.491 115.352 149.491 116.307V125H147.002V123.21H146.9C146.735 123.54 146.488 123.864 146.158 124.182C145.829 124.5 145.406 124.764 144.888 124.974C144.371 125.185 143.752 125.29 143.031 125.29ZM143.585 123.244C144.289 123.244 144.891 123.105 145.391 122.827C145.897 122.548 146.281 122.185 146.542 121.736C146.809 121.281 146.942 120.795 146.942 120.278V118.591C146.852 118.682 146.675 118.767 146.414 118.847C146.158 118.92 145.866 118.986 145.536 119.043C145.207 119.094 144.886 119.142 144.573 119.188C144.261 119.227 143.999 119.261 143.789 119.29C143.295 119.352 142.843 119.457 142.434 119.605C142.031 119.753 141.707 119.966 141.462 120.244C141.224 120.517 141.104 120.881 141.104 121.335C141.104 121.966 141.337 122.443 141.803 122.767C142.269 123.085 142.863 123.244 143.585 123.244ZM160.232 121.847L164.459 111.909H166.658L161.178 125H159.286L153.916 111.909H156.089L160.232 121.847ZM155.382 111.909V125H152.885V111.909H155.382ZM165.149 125V111.909H167.629V125H165.149ZM50.8352 142.778V144.341H44.8125V142.778H50.8352ZM45.2102 138.091V149H43.5341V138.091H45.2102ZM52.1136 138.091V149H50.4375V138.091H52.1136ZM58.3849 149.256C57.6937 149.256 57.0663 149.125 56.5028 148.865C55.9394 148.6 55.492 148.219 55.1605 147.722C54.8291 147.22 54.6634 146.614 54.6634 145.903C54.6634 145.278 54.7865 144.772 55.0327 144.384C55.2789 143.991 55.608 143.683 56.0199 143.46C56.4318 143.238 56.8864 143.072 57.3835 142.963C57.8854 142.849 58.3897 142.759 58.8963 142.693C59.5592 142.608 60.0966 142.544 60.5085 142.501C60.9252 142.454 61.2282 142.376 61.4176 142.267C61.6117 142.158 61.7088 141.969 61.7088 141.699V141.642C61.7088 140.941 61.517 140.397 61.1335 140.009C60.7547 139.62 60.1795 139.426 59.4077 139.426C58.6075 139.426 57.9801 139.601 57.5256 139.952C57.071 140.302 56.7514 140.676 56.5668 141.074L54.9759 140.506C55.2599 139.843 55.6387 139.327 56.1122 138.957C56.5904 138.583 57.1113 138.323 57.6747 138.176C58.2429 138.025 58.8016 137.949 59.3509 137.949C59.7012 137.949 60.1037 137.991 60.5582 138.077C61.0175 138.157 61.4602 138.325 61.8864 138.581C62.3172 138.837 62.6747 139.223 62.9588 139.739C63.2429 140.255 63.3849 140.946 63.3849 141.812V149H61.7088V147.523H61.6236C61.5099 147.759 61.3205 148.013 61.0554 148.283C60.7902 148.553 60.4375 148.782 59.9972 148.972C59.5568 149.161 59.0194 149.256 58.3849 149.256ZM58.6406 147.75C59.3035 147.75 59.8622 147.62 60.3168 147.359C60.776 147.099 61.1217 146.763 61.3537 146.351C61.5904 145.939 61.7088 145.506 61.7088 145.051V143.517C61.6378 143.602 61.4815 143.68 61.2401 143.751C61.0033 143.818 60.7287 143.877 60.4162 143.929C60.1084 143.976 59.8078 144.019 59.5142 144.057C59.2254 144.09 58.991 144.118 58.8111 144.142C58.3755 144.199 57.9683 144.291 57.5895 144.419C57.2154 144.542 56.9124 144.729 56.6804 144.98C56.4531 145.226 56.3395 145.562 56.3395 145.989C56.3395 146.571 56.5549 147.011 56.9858 147.31C57.4214 147.603 57.973 147.75 58.6406 147.75ZM65.2795 152.125V147.438H66.1886C66.4111 147.205 66.6029 146.955 66.7638 146.685C66.9248 146.415 67.0645 146.095 67.1829 145.726C67.306 145.352 67.4102 144.897 67.4954 144.362C67.5806 143.822 67.6564 143.171 67.7227 142.409L68.092 138.091H75.0238V147.438H76.6999V152.125H75.0238V149H66.9556V152.125H65.2795ZM68.092 147.438H73.3477V139.653H69.6545L69.3704 142.409C69.252 143.55 69.1052 144.547 68.93 145.399C68.7549 146.251 68.4755 146.931 68.092 147.438ZM83.4986 149.227C82.4474 149.227 81.5407 148.995 80.7784 148.531C80.0208 148.062 79.4361 147.409 79.0241 146.571C78.617 145.728 78.4134 144.748 78.4134 143.631C78.4134 142.513 78.617 141.528 79.0241 140.676C79.4361 139.819 80.009 139.152 80.7429 138.673C81.4815 138.19 82.3433 137.949 83.3281 137.949C83.8963 137.949 84.4574 138.044 85.0114 138.233C85.5653 138.422 86.0696 138.73 86.5241 139.156C86.9787 139.578 87.3409 140.136 87.6108 140.832C87.8807 141.528 88.0156 142.385 88.0156 143.403V144.114H79.6065V142.665H86.3111C86.3111 142.049 86.188 141.5 85.9418 141.017C85.7003 140.534 85.3546 140.153 84.9048 139.874C84.4598 139.594 83.9342 139.455 83.3281 139.455C82.6605 139.455 82.0829 139.62 81.5952 139.952C81.1122 140.278 80.7405 140.705 80.4801 141.23C80.2197 141.756 80.0895 142.319 80.0895 142.92V143.886C80.0895 144.71 80.2315 145.409 80.5156 145.982C80.8045 146.55 81.2045 146.983 81.7159 147.281C82.2273 147.575 82.8215 147.722 83.4986 147.722C83.9389 147.722 84.3366 147.66 84.6918 147.537C85.0516 147.409 85.3617 147.22 85.6222 146.969C85.8826 146.713 86.0838 146.396 86.2259 146.017L87.8452 146.472C87.6747 147.021 87.3883 147.504 86.9858 147.92C86.5833 148.332 86.0862 148.654 85.4943 148.886C84.9025 149.114 84.2372 149.227 83.4986 149.227ZM89.5906 149L94.0224 143.46L89.6474 138.091H91.636L95.2724 142.75H96.1815V138.091H97.8576V142.75H98.7383L102.375 138.091H104.363L100.017 143.46L104.42 149H102.403L98.7099 144.312H97.8576V149H96.1815V144.312H95.3292L91.6076 149H89.5906ZM114.116 142.778V144.341H108.094V142.778H114.116ZM108.491 138.091V149H106.815V138.091H108.491ZM115.395 138.091V149H113.719V138.091H115.395ZM119.905 142.04H123.03C124.308 142.04 125.286 142.364 125.963 143.013C126.64 143.661 126.979 144.483 126.979 145.477C126.979 146.131 126.827 146.725 126.524 147.26C126.221 147.79 125.776 148.214 125.189 148.531C124.602 148.844 123.882 149 123.03 149H118.456V138.091H120.132V147.438H123.03C123.693 147.438 124.237 147.262 124.663 146.912C125.089 146.562 125.303 146.112 125.303 145.562C125.303 144.985 125.089 144.514 124.663 144.149C124.237 143.785 123.693 143.602 123.03 143.602H119.905V142.04ZM128.712 149V138.091H130.388V149H128.712ZM138.03 149.227C136.979 149.227 136.072 148.995 135.31 148.531C134.552 148.062 133.967 147.409 133.555 146.571C133.148 145.728 132.945 144.748 132.945 143.631C132.945 142.513 133.148 141.528 133.555 140.676C133.967 139.819 134.54 139.152 135.274 138.673C136.013 138.19 136.875 137.949 137.859 137.949C138.428 137.949 138.989 138.044 139.543 138.233C140.097 138.422 140.601 138.73 141.055 139.156C141.51 139.578 141.872 140.136 142.142 140.832C142.412 141.528 142.547 142.385 142.547 143.403V144.114H134.138V142.665H140.842C140.842 142.049 140.719 141.5 140.473 141.017C140.232 140.534 139.886 140.153 139.436 139.874C138.991 139.594 138.465 139.455 137.859 139.455C137.192 139.455 136.614 139.62 136.126 139.952C135.643 140.278 135.272 140.705 135.011 141.23C134.751 141.756 134.621 142.319 134.621 142.92V143.886C134.621 144.71 134.763 145.409 135.047 145.982C135.336 146.55 135.736 146.983 136.247 147.281C136.759 147.575 137.353 147.722 138.03 147.722C138.47 147.722 138.868 147.66 139.223 147.537C139.583 147.409 139.893 147.22 140.153 146.969C140.414 146.713 140.615 146.396 140.757 146.017L142.376 146.472C142.206 147.021 141.92 147.504 141.517 147.92C141.115 148.332 140.617 148.654 140.026 148.886C139.434 149.114 138.768 149.227 138.03 149.227ZM150.722 149V138.091H159.301V149H157.625V139.653H152.398V149H150.722ZM166.794 149.227C165.809 149.227 164.945 148.993 164.202 148.524C163.463 148.055 162.885 147.4 162.469 146.557C162.057 145.714 161.851 144.729 161.851 143.602C161.851 142.466 162.057 141.474 162.469 140.626C162.885 139.779 163.463 139.121 164.202 138.652C164.945 138.183 165.809 137.949 166.794 137.949C167.779 137.949 168.641 138.183 169.379 138.652C170.123 139.121 170.7 139.779 171.112 140.626C171.529 141.474 171.737 142.466 171.737 143.602C171.737 144.729 171.529 145.714 171.112 146.557C170.7 147.4 170.123 148.055 169.379 148.524C168.641 148.993 167.779 149.227 166.794 149.227ZM166.794 147.722C167.542 147.722 168.158 147.53 168.641 147.146C169.124 146.763 169.481 146.259 169.713 145.634C169.945 145.009 170.061 144.331 170.061 143.602C170.061 142.873 169.945 142.194 169.713 141.564C169.481 140.934 169.124 140.425 168.641 140.037C168.158 139.649 167.542 139.455 166.794 139.455C166.046 139.455 165.43 139.649 164.947 140.037C164.464 140.425 164.107 140.934 163.875 141.564C163.643 142.194 163.527 142.873 163.527 143.602C163.527 144.331 163.643 145.009 163.875 145.634C164.107 146.259 164.464 146.763 164.947 147.146C165.43 147.53 166.046 147.722 166.794 147.722ZM174.296 149V138.091H175.972V142.835H177.08L181 138.091H183.159L178.756 143.347L183.216 149H181.057L177.478 144.398H175.972V149H174.296ZM186.118 153.091C185.833 153.091 185.58 153.067 185.358 153.02C185.135 152.977 184.981 152.935 184.896 152.892L185.322 151.415C185.729 151.519 186.089 151.557 186.402 151.528C186.714 151.5 186.991 151.36 187.233 151.109C187.479 150.863 187.704 150.463 187.907 149.909L188.22 149.057L184.186 138.091H186.004L189.015 146.784H189.129L192.14 138.091H193.958L189.328 150.591C189.119 151.154 188.861 151.621 188.554 151.99C188.246 152.364 187.888 152.641 187.481 152.821C187.079 153.001 186.624 153.091 186.118 153.091ZM196.171 149V138.091H204.75V149H203.074V139.653H197.847V149H196.171ZM211.022 149.256C210.33 149.256 209.703 149.125 209.14 148.865C208.576 148.6 208.129 148.219 207.797 147.722C207.466 147.22 207.3 146.614 207.3 145.903C207.3 145.278 207.423 144.772 207.669 144.384C207.916 143.991 208.245 143.683 208.657 143.46C209.069 143.238 209.523 143.072 210.02 142.963C210.522 142.849 211.026 142.759 211.533 142.693C212.196 142.608 212.733 142.544 213.145 142.501C213.562 142.454 213.865 142.376 214.054 142.267C214.248 142.158 214.346 141.969 214.346 141.699V141.642C214.346 140.941 214.154 140.397 213.77 140.009C213.391 139.62 212.816 139.426 212.044 139.426C211.244 139.426 210.617 139.601 210.162 139.952C209.708 140.302 209.388 140.676 209.203 141.074L207.613 140.506C207.897 139.843 208.275 139.327 208.749 138.957C209.227 138.583 209.748 138.323 210.311 138.176C210.88 138.025 211.438 137.949 211.988 137.949C212.338 137.949 212.74 137.991 213.195 138.077C213.654 138.157 214.097 138.325 214.523 138.581C214.954 138.837 215.311 139.223 215.596 139.739C215.88 140.255 216.022 140.946 216.022 141.812V149H214.346V147.523H214.26C214.147 147.759 213.957 148.013 213.692 148.283C213.427 148.553 213.074 148.782 212.634 148.972C212.194 149.161 211.656 149.256 211.022 149.256ZM211.277 147.75C211.94 147.75 212.499 147.62 212.953 147.359C213.413 147.099 213.758 146.763 213.99 146.351C214.227 145.939 214.346 145.506 214.346 145.051V143.517C214.275 143.602 214.118 143.68 213.877 143.751C213.64 143.818 213.365 143.877 213.053 143.929C212.745 143.976 212.444 144.019 212.151 144.057C211.862 144.09 211.628 144.118 211.448 144.142C211.012 144.199 210.605 144.291 210.226 144.419C209.852 144.542 209.549 144.729 209.317 144.98C209.09 145.226 208.976 145.562 208.976 145.989C208.976 146.571 209.192 147.011 209.623 147.31C210.058 147.603 210.61 147.75 211.277 147.75ZM217.597 139.653V138.091H226.46V139.653H222.881V149H221.205V139.653H217.597ZM232.913 149.227C231.862 149.227 230.955 148.995 230.192 148.531C229.435 148.062 228.85 147.409 228.438 146.571C228.031 145.728 227.827 144.748 227.827 143.631C227.827 142.513 228.031 141.528 228.438 140.676C228.85 139.819 229.423 139.152 230.157 138.673C230.896 138.19 231.757 137.949 232.742 137.949C233.31 137.949 233.871 138.044 234.425 138.233C234.979 138.422 235.484 138.73 235.938 139.156C236.393 139.578 236.755 140.136 237.025 140.832C237.295 141.528 237.43 142.385 237.43 143.403V144.114H229.021V142.665H235.725C235.725 142.049 235.602 141.5 235.356 141.017C235.114 140.534 234.769 140.153 234.319 139.874C233.874 139.594 233.348 139.455 232.742 139.455C232.075 139.455 231.497 139.62 231.009 139.952C230.526 140.278 230.155 140.705 229.894 141.23C229.634 141.756 229.504 142.319 229.504 142.92V143.886C229.504 144.71 229.646 145.409 229.93 145.982C230.219 146.55 230.619 146.983 231.13 147.281C231.641 147.575 232.236 147.722 232.913 147.722C233.353 147.722 233.751 147.66 234.106 147.537C234.466 147.409 234.776 147.22 235.036 146.969C235.297 146.713 235.498 146.396 235.64 146.017L237.259 146.472C237.089 147.021 236.802 147.504 236.4 147.92C235.997 148.332 235.5 148.654 234.908 148.886C234.317 149.114 233.651 149.227 232.913 149.227ZM239.013 149V147.438H239.411C239.738 147.438 240.01 147.374 240.228 147.246C240.446 147.113 240.621 146.884 240.754 146.557C240.891 146.225 240.995 145.766 241.066 145.179C241.142 144.587 241.196 143.834 241.229 142.92L241.428 138.091H248.701V149H247.025V139.653H243.019L242.849 143.545C242.811 144.44 242.73 145.229 242.607 145.911C242.489 146.588 242.307 147.156 242.06 147.615C241.819 148.074 241.497 148.42 241.094 148.652C240.692 148.884 240.188 149 239.582 149H239.013ZM253.452 146.528L258.708 138.091H260.64V149H258.964V140.562L253.737 149H251.776V138.091H253.452V146.528Z" fill="#A39078"/>
<path d="M57.5625 5.54545V23H54.9375V7.79545H46.7216V23H44.0966V5.54545H57.5625ZM67.027 23.2642C65.7372 23.2642 64.6264 22.9886 63.6946 22.4375C62.7685 21.8807 62.0526 21.0994 61.5469 20.0938C61.0469 19.0824 60.7969 17.8977 60.7969 16.5398C60.7969 15.1989 61.0469 14.017 61.5469 12.9943C62.0526 11.9716 62.7571 11.1733 63.6605 10.5994C64.5696 10.0256 65.6321 9.73864 66.848 9.73864C67.5866 9.73864 68.3026 9.8608 68.9957 10.1051C69.6889 10.3494 70.3111 10.733 70.8622 11.2557C71.4134 11.7784 71.848 12.4574 72.1662 13.2926C72.4844 14.1222 72.6435 15.1307 72.6435 16.3182V17.2216H62.2372V15.3125H70.1463C70.1463 14.642 70.0099 14.0483 69.7372 13.5312C69.4645 13.0085 69.081 12.5966 68.5866 12.2955C68.098 11.9943 67.5241 11.8438 66.8651 11.8438C66.1491 11.8438 65.5241 12.0199 64.9901 12.3722C64.4616 12.7187 64.0526 13.1733 63.7628 13.7358C63.4787 14.2926 63.3366 14.8977 63.3366 15.5511V17.0426C63.3366 17.9176 63.4901 18.6619 63.7969 19.2756C64.1094 19.8892 64.544 20.358 65.1009 20.6818C65.6577 21 66.3082 21.1591 67.0526 21.1591C67.5355 21.1591 67.9759 21.0909 68.3736 20.9545C68.7713 20.8125 69.1151 20.6023 69.4048 20.3239C69.6946 20.0455 69.9162 19.7017 70.0696 19.2926L72.4815 19.7273C72.2884 20.4375 71.9418 21.0597 71.4418 21.5938C70.9474 22.1222 70.3253 22.5341 69.5753 22.8295C68.831 23.1193 67.9815 23.2642 67.027 23.2642ZM75.4709 27.9091V9.90909H77.9595V12.0312H78.1726C78.3203 11.7585 78.5334 11.4432 78.8118 11.0852C79.0902 10.7273 79.4766 10.4148 79.9709 10.1477C80.4652 9.875 81.1186 9.73864 81.9311 9.73864C82.9879 9.73864 83.9311 10.0057 84.7607 10.5398C85.5902 11.0739 86.2408 11.8437 86.7124 12.8494C87.1896 13.8551 87.4283 15.0653 87.4283 16.4801C87.4283 17.8949 87.1925 19.108 86.7209 20.1193C86.2493 21.125 85.6016 21.9006 84.7777 22.446C83.9538 22.9858 83.0135 23.2557 81.9567 23.2557C81.1612 23.2557 80.5107 23.1222 80.005 22.8551C79.505 22.5881 79.1129 22.2756 78.8288 21.9176C78.5447 21.5597 78.326 21.2415 78.1726 20.9631H78.0192V27.9091H75.4709ZM77.968 16.4545C77.968 17.375 78.1016 18.1818 78.3686 18.875C78.6357 19.5682 79.022 20.1108 79.5277 20.5028C80.0334 20.8892 80.6527 21.0824 81.3857 21.0824C82.147 21.0824 82.7834 20.8807 83.2947 20.4773C83.8061 20.0682 84.1925 19.5142 84.4538 18.8153C84.7209 18.1165 84.8544 17.3295 84.8544 16.4545C84.8544 15.5909 84.7237 14.8153 84.4624 14.1278C84.2067 13.4403 83.8203 12.8977 83.3033 12.5C82.7919 12.1023 82.1527 11.9034 81.3857 11.9034C80.647 11.9034 80.022 12.0937 79.5107 12.4744C79.005 12.8551 78.6214 13.3864 78.3601 14.0682C78.0987 14.75 77.968 15.5455 77.968 16.4545ZM95.9254 23.2642C94.6357 23.2642 93.5249 22.9886 92.593 22.4375C91.6669 21.8807 90.951 21.0994 90.4453 20.0938C89.9453 19.0824 89.6953 17.8977 89.6953 16.5398C89.6953 15.1989 89.9453 14.017 90.4453 12.9943C90.951 11.9716 91.6555 11.1733 92.5589 10.5994C93.468 10.0256 94.5305 9.73864 95.7464 9.73864C96.4851 9.73864 97.201 9.8608 97.8942 10.1051C98.5874 10.3494 99.2095 10.733 99.7607 11.2557C100.312 11.7784 100.746 12.4574 101.065 13.2926C101.383 14.1222 101.542 15.1307 101.542 16.3182V17.2216H91.1357V15.3125H99.0447C99.0447 14.642 98.9084 14.0483 98.6357 13.5312C98.3629 13.0085 97.9794 12.5966 97.4851 12.2955C96.9964 11.9943 96.4226 11.8438 95.7635 11.8438C95.0476 11.8438 94.4226 12.0199 93.8885 12.3722C93.3601 12.7187 92.951 13.1733 92.6612 13.7358C92.3771 14.2926 92.2351 14.8977 92.2351 15.5511V17.0426C92.2351 17.9176 92.3885 18.6619 92.6953 19.2756C93.0078 19.8892 93.4425 20.358 93.9993 20.6818C94.5561 21 95.2067 21.1591 95.951 21.1591C96.4339 21.1591 96.8743 21.0909 97.272 20.9545C97.6697 20.8125 98.0135 20.6023 98.3033 20.3239C98.593 20.0455 98.8146 19.7017 98.968 19.2926L101.38 19.7273C101.187 20.4375 100.84 21.0597 100.34 21.5938C99.8459 22.1222 99.2237 22.5341 98.4737 22.8295C97.7294 23.1193 96.88 23.2642 95.9254 23.2642ZM104.369 27.9091V9.90909H106.858V12.0312H107.071C107.219 11.7585 107.432 11.4432 107.71 11.0852C107.989 10.7273 108.375 10.4148 108.869 10.1477C109.364 9.875 110.017 9.73864 110.83 9.73864C111.886 9.73864 112.83 10.0057 113.659 10.5398C114.489 11.0739 115.139 11.8437 115.611 12.8494C116.088 13.8551 116.327 15.0653 116.327 16.4801C116.327 17.8949 116.091 19.108 115.619 20.1193C115.148 21.125 114.5 21.9006 113.676 22.446C112.852 22.9858 111.912 23.2557 110.855 23.2557C110.06 23.2557 109.409 23.1222 108.903 22.8551C108.403 22.5881 108.011 22.2756 107.727 21.9176C107.443 21.5597 107.224 21.2415 107.071 20.9631H106.918V27.9091H104.369ZM106.866 16.4545C106.866 17.375 107 18.1818 107.267 18.875C107.534 19.5682 107.92 20.1108 108.426 20.5028C108.932 20.8892 109.551 21.0824 110.284 21.0824C111.045 21.0824 111.682 20.8807 112.193 20.4773C112.705 20.0682 113.091 19.5142 113.352 18.8153C113.619 18.1165 113.753 17.3295 113.753 16.4545C113.753 15.5909 113.622 14.8153 113.361 14.1278C113.105 13.4403 112.719 12.8977 112.202 12.5C111.69 12.1023 111.051 11.9034 110.284 11.9034C109.545 11.9034 108.92 12.0937 108.409 12.4744C107.903 12.8551 107.52 13.3864 107.259 14.0682C106.997 14.75 106.866 15.5455 106.866 16.4545ZM122.991 23.2898C122.162 23.2898 121.412 23.1364 120.741 22.8295C120.071 22.517 119.54 22.0653 119.148 21.4744C118.761 20.8835 118.568 20.1591 118.568 19.3011C118.568 18.5625 118.71 17.9545 118.994 17.4773C119.278 17 119.662 16.6222 120.145 16.3438C120.628 16.0653 121.168 15.8551 121.764 15.7131C122.361 15.571 122.969 15.4631 123.588 15.3892C124.372 15.2983 125.009 15.2244 125.497 15.1676C125.986 15.1051 126.341 15.0057 126.562 14.8693C126.784 14.733 126.895 14.5114 126.895 14.2045V14.1449C126.895 13.4006 126.685 12.8239 126.264 12.4148C125.849 12.0057 125.23 11.8011 124.406 11.8011C123.548 11.8011 122.872 11.9915 122.378 12.3722C121.889 12.7472 121.551 13.1648 121.364 13.625L118.969 13.0795C119.253 12.2841 119.668 11.642 120.213 11.1534C120.764 10.6591 121.398 10.3011 122.114 10.0795C122.83 9.85227 123.582 9.73864 124.372 9.73864C124.895 9.73864 125.449 9.80114 126.034 9.92614C126.625 10.0455 127.176 10.267 127.688 10.5909C128.205 10.9148 128.628 11.3778 128.957 11.9801C129.287 12.5767 129.452 13.3523 129.452 14.3068V23H126.963V21.2102H126.861C126.696 21.5398 126.449 21.8636 126.119 22.1818C125.79 22.5 125.366 22.7642 124.849 22.9744C124.332 23.1847 123.713 23.2898 122.991 23.2898ZM123.545 21.2443C124.25 21.2443 124.852 21.1051 125.352 20.8267C125.858 20.5483 126.241 20.1847 126.503 19.7358C126.77 19.2812 126.903 18.7955 126.903 18.2784V16.5909C126.813 16.6818 126.636 16.767 126.375 16.8466C126.119 16.9205 125.827 16.9858 125.497 17.0426C125.168 17.0937 124.847 17.142 124.534 17.1875C124.222 17.2273 123.96 17.2614 123.75 17.2898C123.256 17.3523 122.804 17.4574 122.395 17.6051C121.991 17.7528 121.668 17.9659 121.423 18.2443C121.185 18.517 121.065 18.8807 121.065 19.3352C121.065 19.9659 121.298 20.4432 121.764 20.767C122.23 21.0852 122.824 21.2443 123.545 21.2443ZM142.945 5.03409L144.002 6.64489C143.61 7.00284 143.164 7.25852 142.664 7.41193C142.17 7.55966 141.599 7.65341 140.951 7.69318C140.303 7.72727 139.562 7.75852 138.727 7.78693C137.783 7.81534 137.008 8.01989 136.4 8.40057C135.792 8.77557 135.323 9.33239 134.994 10.071C134.67 10.804 134.46 11.7244 134.363 12.8324H134.525C134.951 12.0199 135.542 11.4119 136.298 11.0085C137.059 10.6051 137.914 10.4034 138.863 10.4034C139.92 10.4034 140.86 10.6449 141.684 11.1278C142.508 11.6108 143.156 12.3182 143.627 13.25C144.104 14.1761 144.343 15.3097 144.343 16.6506C144.343 18.0085 144.093 19.1818 143.593 20.1705C143.099 21.1591 142.4 21.9233 141.496 22.4631C140.599 22.9972 139.539 23.2642 138.317 23.2642C137.096 23.2642 136.031 22.9886 135.121 22.4375C134.218 21.8807 133.516 21.0568 133.016 19.9659C132.522 18.875 132.275 17.5284 132.275 15.9261V14.6307C132.275 11.6364 132.809 9.38352 133.877 7.87216C134.945 6.3608 136.542 5.58523 138.667 5.54545C139.354 5.52841 139.968 5.52557 140.508 5.53693C141.048 5.54261 141.519 5.51705 141.923 5.46023C142.332 5.39773 142.673 5.25568 142.945 5.03409ZM138.326 21.125C139.036 21.125 139.647 20.946 140.158 20.5881C140.675 20.2244 141.073 19.7102 141.352 19.0455C141.63 18.3807 141.769 17.5966 141.769 16.6932C141.769 15.8068 141.63 15.054 141.352 14.4347C141.073 13.8153 140.675 13.3437 140.158 13.0199C139.641 12.6903 139.022 12.5256 138.3 12.5256C137.766 12.5256 137.289 12.6193 136.869 12.8068C136.448 12.9886 136.087 13.2585 135.786 13.6165C135.491 13.9744 135.261 14.4119 135.096 14.929C134.937 15.4403 134.852 16.0284 134.84 16.6932C134.84 18.0455 135.15 19.1222 135.769 19.9233C136.394 20.7244 137.246 21.125 138.326 21.125ZM152.704 23.2642C151.477 23.2642 150.406 22.983 149.491 22.4205C148.576 21.858 147.866 21.071 147.36 20.0597C146.854 19.0483 146.602 17.8665 146.602 16.5142C146.602 15.1562 146.854 13.9687 147.36 12.9517C147.866 11.9347 148.576 11.1449 149.491 10.5824C150.406 10.0199 151.477 9.73864 152.704 9.73864C153.931 9.73864 155.002 10.0199 155.917 10.5824C156.832 11.1449 157.542 11.9347 158.048 12.9517C158.553 13.9687 158.806 15.1562 158.806 16.5142C158.806 17.8665 158.553 19.0483 158.048 20.0597C157.542 21.071 156.832 21.858 155.917 22.4205C155.002 22.983 153.931 23.2642 152.704 23.2642ZM152.712 21.125C153.508 21.125 154.167 20.9148 154.69 20.4943C155.212 20.0739 155.599 19.5142 155.849 18.8153C156.104 18.1165 156.232 17.3466 156.232 16.5057C156.232 15.6705 156.104 14.9034 155.849 14.2045C155.599 13.5 155.212 12.9347 154.69 12.5085C154.167 12.0824 153.508 11.8693 152.712 11.8693C151.911 11.8693 151.246 12.0824 150.718 12.5085C150.195 12.9347 149.806 13.5 149.55 14.2045C149.3 14.9034 149.175 15.6705 149.175 16.5057C149.175 17.3466 149.3 18.1165 149.55 18.8153C149.806 19.5142 150.195 20.0739 150.718 20.4943C151.246 20.9148 151.911 21.125 152.712 21.125ZM160.074 12.108V9.90909H171.119V12.108H166.849V23H164.361V12.108H160.074ZM183.714 9.90909V23H181.225V9.90909H183.714ZM182.631 15.9858V18.1847C182.239 18.3437 181.825 18.4858 181.387 18.6108C180.95 18.7301 180.489 18.8239 180.006 18.892C179.523 18.9602 179.021 18.9943 178.498 18.9943C176.879 18.9943 175.592 18.5994 174.637 17.8097C173.683 17.0142 173.205 15.7983 173.205 14.1619V9.88352H175.685V14.1619C175.685 14.7812 175.799 15.2841 176.026 15.6705C176.254 16.0568 176.577 16.3409 176.998 16.5227C177.418 16.7045 177.918 16.7955 178.498 16.7955C179.265 16.7955 179.972 16.7244 180.62 16.5824C181.273 16.4347 181.944 16.2358 182.631 15.9858ZM189.601 19.429L195.371 9.90909H198.115V23H195.618V13.4716L189.874 23H187.104V9.90909H189.601V19.429ZM201.541 23V9.90909H204.089V15.3977H205.317L209.638 9.90909H212.791L207.72 16.2756L212.851 23H209.689L205.743 17.767H204.089V23H201.541ZM218.64 23.2898C217.81 23.2898 217.06 23.1364 216.39 22.8295C215.719 22.517 215.188 22.0653 214.796 21.4744C214.41 20.8835 214.217 20.1591 214.217 19.3011C214.217 18.5625 214.359 17.9545 214.643 17.4773C214.927 17 215.31 16.6222 215.793 16.3438C216.276 16.0653 216.816 15.8551 217.413 15.7131C218.009 15.571 218.617 15.4631 219.237 15.3892C220.021 15.2983 220.657 15.2244 221.146 15.1676C221.634 15.1051 221.989 15.0057 222.211 14.8693C222.433 14.733 222.543 14.5114 222.543 14.2045V14.1449C222.543 13.4006 222.333 12.8239 221.913 12.4148C221.498 12.0057 220.879 11.8011 220.055 11.8011C219.197 11.8011 218.521 11.9915 218.026 12.3722C217.538 12.7472 217.2 13.1648 217.012 13.625L214.617 13.0795C214.901 12.2841 215.316 11.642 215.862 11.1534C216.413 10.6591 217.046 10.3011 217.762 10.0795C218.478 9.85227 219.231 9.73864 220.021 9.73864C220.543 9.73864 221.097 9.80114 221.683 9.92614C222.273 10.0455 222.825 10.267 223.336 10.5909C223.853 10.9148 224.276 11.3778 224.606 11.9801C224.935 12.5767 225.1 13.3523 225.1 14.3068V23H222.612V21.2102H222.509C222.344 21.5398 222.097 21.8636 221.768 22.1818C221.438 22.5 221.015 22.7642 220.498 22.9744C219.981 23.1847 219.362 23.2898 218.64 23.2898ZM219.194 21.2443C219.898 21.2443 220.501 21.1051 221.001 20.8267C221.506 20.5483 221.89 20.1847 222.151 19.7358C222.418 19.2812 222.552 18.7955 222.552 18.2784V16.5909C222.461 16.6818 222.285 16.767 222.023 16.8466C221.768 16.9205 221.475 16.9858 221.146 17.0426C220.816 17.0937 220.495 17.142 220.183 17.1875C219.87 17.2273 219.609 17.2614 219.398 17.2898C218.904 17.3523 218.452 17.4574 218.043 17.6051C217.64 17.7528 217.316 17.9659 217.072 18.2443C216.833 18.517 216.714 18.8807 216.714 19.3352C216.714 19.9659 216.947 20.4432 217.413 20.767C217.879 21.0852 218.472 21.2443 219.194 21.2443ZM235.841 19.8466L240.068 9.90909H242.267L236.787 23H234.895L229.526 9.90909H231.699L235.841 19.8466ZM230.991 9.90909V23H228.494V9.90909H230.991ZM240.759 23V9.90909H243.239V23H240.759ZM43.5341 47V36.0909H45.2102V40.8352H46.3182L50.2386 36.0909H52.3977L47.9943 41.3466L52.4545 47H50.2955L46.7159 42.3977H45.2102V47H43.5341ZM57.4865 47.2557C56.7952 47.2557 56.1679 47.1255 55.6044 46.8651C55.041 46.5999 54.5935 46.2188 54.2621 45.7216C53.9306 45.2197 53.7649 44.6136 53.7649 43.9034C53.7649 43.2784 53.888 42.7718 54.1342 42.3835C54.3804 41.9905 54.7095 41.6828 55.1214 41.4602C55.5334 41.2377 55.9879 41.072 56.4851 40.9631C56.987 40.8494 57.4912 40.7595 57.9979 40.6932C58.6607 40.608 59.1982 40.544 59.6101 40.5014C60.0268 40.4541 60.3298 40.3759 60.5192 40.267C60.7133 40.1581 60.8104 39.9687 60.8104 39.6989V39.642C60.8104 38.9413 60.6186 38.3968 60.2351 38.0085C59.8563 37.6203 59.281 37.4261 58.5092 37.4261C57.709 37.4261 57.0817 37.6013 56.6271 37.9517C56.1726 38.3021 55.853 38.6761 55.6683 39.0739L54.0774 38.5057C54.3615 37.8428 54.7403 37.3267 55.2138 36.9574C55.692 36.5833 56.2128 36.3229 56.7763 36.1761C57.3445 36.0246 57.9032 35.9489 58.4524 35.9489C58.8028 35.9489 59.2053 35.9915 59.6598 36.0767C60.1191 36.1572 60.5618 36.3253 60.9879 36.581C61.4188 36.8366 61.7763 37.2225 62.0604 37.7386C62.3445 38.2547 62.4865 38.946 62.4865 39.8125V47H60.8104V45.5227H60.7251C60.6115 45.7595 60.4221 46.0128 60.157 46.2827C59.8918 46.5526 59.5391 46.7822 59.0987 46.9716C58.6584 47.161 58.121 47.2557 57.4865 47.2557ZM57.7422 45.75C58.4051 45.75 58.9638 45.6198 59.4183 45.3594C59.8776 45.099 60.2232 44.7628 60.4553 44.3509C60.692 43.9389 60.8104 43.5057 60.8104 43.0511V41.517C60.7393 41.6023 60.5831 41.6804 60.3416 41.7514C60.1049 41.8177 59.8303 41.8769 59.5178 41.929C59.21 41.9763 58.9093 42.0189 58.6158 42.0568C58.3269 42.09 58.0926 42.1184 57.9126 42.142C57.477 42.1989 57.0698 42.2912 56.6911 42.419C56.317 42.5421 56.014 42.7292 55.782 42.9801C55.5547 43.2263 55.4411 43.5625 55.4411 43.9886C55.4411 44.571 55.6565 45.0114 56.0874 45.3097C56.523 45.6032 57.0746 45.75 57.7422 45.75ZM73.9549 36.0909V47H72.2788V36.0909H73.9549ZM73.3015 41.2898V42.8523C72.9227 42.9943 72.5463 43.1198 72.1722 43.2287C71.7982 43.3329 71.4052 43.4157 70.9933 43.4773C70.5813 43.5341 70.1291 43.5625 69.6367 43.5625C68.4009 43.5625 67.409 43.2287 66.6609 42.5611C65.9175 41.8935 65.5458 40.892 65.5458 39.5568V36.0625H67.2219V39.5568C67.2219 40.1155 67.3285 40.5748 67.5415 40.9347C67.7546 41.2945 68.0434 41.562 68.408 41.7372C68.7726 41.9124 69.1822 42 69.6367 42C70.3469 42 70.9885 41.9361 71.5614 41.8082C72.1391 41.6757 72.7191 41.5028 73.3015 41.2898ZM81.604 47.2273C80.5529 47.2273 79.6462 46.9953 78.8839 46.5312C78.1263 46.0625 77.5415 45.4091 77.1296 44.571C76.7224 43.7282 76.5188 42.7481 76.5188 41.6307C76.5188 40.5133 76.7224 39.5284 77.1296 38.6761C77.5415 37.8191 78.1145 37.1515 78.8484 36.6733C79.587 36.1903 80.4487 35.9489 81.4336 35.9489C82.0018 35.9489 82.5629 36.0436 83.1168 36.233C83.6708 36.4223 84.1751 36.7301 84.6296 37.1562C85.0842 37.5777 85.4464 38.1364 85.7163 38.8324C85.9862 39.5284 86.1211 40.3854 86.1211 41.4034V42.1136H77.712V40.6648H84.4165C84.4165 40.0492 84.2934 39.5 84.0472 39.017C83.8058 38.5341 83.4601 38.1529 83.0103 37.8736C82.5652 37.5942 82.0397 37.4545 81.4336 37.4545C80.766 37.4545 80.1883 37.6203 79.7006 37.9517C79.2177 38.2784 78.846 38.7045 78.5856 39.2301C78.3252 39.7557 78.195 40.3191 78.195 40.9205V41.8864C78.195 42.7102 78.337 43.4086 78.6211 43.9815C78.9099 44.5497 79.31 44.983 79.8214 45.2812C80.3327 45.5748 80.927 45.7216 81.604 45.7216C82.0444 45.7216 82.4421 45.66 82.7972 45.5369C83.1571 45.4091 83.4672 45.2197 83.7276 44.9688C83.988 44.7131 84.1893 44.3958 84.3313 44.017L85.9506 44.4716C85.7802 45.0208 85.4937 45.5038 85.0913 45.9205C84.6888 46.3324 84.1916 46.6544 83.5998 46.8864C83.0079 47.1136 82.3427 47.2273 81.604 47.2273ZM93.1026 47.2273C92.0799 47.2273 91.1992 46.9858 90.4606 46.5028C89.7219 46.0199 89.1538 45.3546 88.756 44.5071C88.3583 43.6596 88.1594 42.6913 88.1594 41.6023C88.1594 40.4943 88.363 39.5166 88.7702 38.669C89.1822 37.8168 89.7551 37.1515 90.489 36.6733C91.2276 36.1903 92.0894 35.9489 93.0742 35.9489C93.8413 35.9489 94.5326 36.0909 95.1481 36.375C95.7636 36.6591 96.2679 37.0568 96.6609 37.5682C97.0539 38.0795 97.2977 38.6761 97.3924 39.358H95.7163C95.5884 38.8608 95.3043 38.4205 94.864 38.0369C94.4284 37.6487 93.8413 37.4545 93.1026 37.4545C92.4492 37.4545 91.8763 37.625 91.3839 37.9659C90.8962 38.3021 90.515 38.7779 90.2404 39.3935C89.9705 40.0043 89.8356 40.7216 89.8356 41.5455C89.8356 42.3883 89.9682 43.1222 90.2333 43.7472C90.5032 44.3722 90.882 44.8575 91.3697 45.2031C91.8621 45.5488 92.4397 45.7216 93.1026 45.7216C93.5382 45.7216 93.9336 45.6458 94.2887 45.4943C94.6438 45.3428 94.9445 45.125 95.1907 44.8409C95.4369 44.5568 95.6121 44.2159 95.7163 43.8182H97.3924C97.2977 44.4621 97.0633 45.0421 96.6893 45.5582C96.32 46.0696 95.8299 46.4768 95.2191 46.7798C94.613 47.0781 93.9076 47.2273 93.1026 47.2273ZM98.9833 37.6534V36.0909H107.847V37.6534H104.267V47H102.591V37.6534H98.9833ZM110.292 47V36.0909H114.752C115.926 36.0909 116.859 36.3561 117.55 36.8864C118.242 37.4167 118.587 38.1174 118.587 38.9886C118.587 39.6515 118.391 40.1652 117.998 40.5298C117.605 40.8897 117.101 41.1335 116.485 41.2614C116.888 41.3182 117.278 41.4602 117.657 41.6875C118.04 41.9148 118.358 42.2273 118.609 42.625C118.86 43.018 118.985 43.5009 118.985 44.0739C118.985 44.6326 118.843 45.1321 118.559 45.5724C118.275 46.0128 117.868 46.3608 117.337 46.6165C116.807 46.8722 116.173 47 115.434 47H110.292ZM111.883 45.4659H115.434C116.012 45.4659 116.464 45.3286 116.79 45.054C117.117 44.7794 117.281 44.4053 117.281 43.9318C117.281 43.3684 117.117 42.9257 116.79 42.6037C116.464 42.277 116.012 42.1136 115.434 42.1136H111.883V45.4659ZM111.883 40.6648H114.752C115.202 40.6648 115.588 40.6032 115.91 40.4801C116.232 40.3523 116.478 40.1723 116.648 39.9403C116.824 39.7036 116.911 39.4242 116.911 39.1023C116.911 38.643 116.719 38.2831 116.336 38.0227C115.952 37.7576 115.424 37.625 114.752 37.625H111.883V40.6648ZM126.096 47.2273C125.045 47.2273 124.138 46.9953 123.376 46.5312C122.618 46.0625 122.034 45.4091 121.622 44.571C121.215 43.7282 121.011 42.7481 121.011 41.6307C121.011 40.5133 121.215 39.5284 121.622 38.6761C122.034 37.8191 122.607 37.1515 123.341 36.6733C124.079 36.1903 124.941 35.9489 125.926 35.9489C126.494 35.9489 127.055 36.0436 127.609 36.233C128.163 36.4223 128.667 36.7301 129.122 37.1562C129.576 37.5777 129.939 38.1364 130.208 38.8324C130.478 39.5284 130.613 40.3854 130.613 41.4034V42.1136H122.204V40.6648H128.909C128.909 40.0492 128.786 39.5 128.539 39.017C128.298 38.5341 127.952 38.1529 127.502 37.8736C127.057 37.5942 126.532 37.4545 125.926 37.4545C125.258 37.4545 124.681 37.6203 124.193 37.9517C123.71 38.2784 123.338 38.7045 123.078 39.2301C122.817 39.7557 122.687 40.3191 122.687 40.9205V41.8864C122.687 42.7102 122.829 43.4086 123.113 43.9815C123.402 44.5497 123.802 44.983 124.314 45.2812C124.825 45.5748 125.419 45.7216 126.096 45.7216C126.537 45.7216 126.934 45.66 127.289 45.5369C127.649 45.4091 127.959 45.2197 128.22 44.9688C128.48 44.7131 128.681 44.3958 128.824 44.017L130.443 44.4716C130.272 45.0208 129.986 45.5038 129.583 45.9205C129.181 46.3324 128.684 46.6544 128.092 46.8864C127.5 47.1136 126.835 47.2273 126.096 47.2273ZM140.464 40.7784V42.3409H134.441V40.7784H140.464ZM134.839 36.0909V47H133.163V36.0909H134.839ZM141.743 36.0909V47H140.066V36.0909H141.743ZM152.105 40.7784V42.3409H146.082V40.7784H152.105ZM146.48 36.0909V47H144.804V36.0909H146.48ZM153.383 36.0909V47H151.707V36.0909H153.383ZM160.876 47.2273C159.891 47.2273 159.027 46.9929 158.284 46.5241C157.545 46.0554 156.967 45.3996 156.551 44.5568C156.139 43.714 155.933 42.7292 155.933 41.6023C155.933 40.4659 156.139 39.474 156.551 38.6264C156.967 37.7789 157.545 37.1207 158.284 36.652C159.027 36.1832 159.891 35.9489 160.876 35.9489C161.861 35.9489 162.723 36.1832 163.461 36.652C164.205 37.1207 164.782 37.7789 165.194 38.6264C165.611 39.474 165.819 40.4659 165.819 41.6023C165.819 42.7292 165.611 43.714 165.194 44.5568C164.782 45.3996 164.205 46.0554 163.461 46.5241C162.723 46.9929 161.861 47.2273 160.876 47.2273ZM160.876 45.7216C161.624 45.7216 162.24 45.5298 162.723 45.1463C163.206 44.7628 163.563 44.2585 163.795 43.6335C164.027 43.0085 164.143 42.3314 164.143 41.6023C164.143 40.8731 164.027 40.1937 163.795 39.5639C163.563 38.9342 163.206 38.4252 162.723 38.0369C162.24 37.6487 161.624 37.4545 160.876 37.4545C160.128 37.4545 159.512 37.6487 159.029 38.0369C158.547 38.4252 158.189 38.9342 157.957 39.5639C157.725 40.1937 157.609 40.8731 157.609 41.6023C157.609 42.3314 157.725 43.0085 157.957 43.6335C158.189 44.2585 158.547 44.7628 159.029 45.1463C159.512 45.5298 160.128 45.7216 160.876 45.7216ZM172.952 47.2273C171.901 47.2273 170.994 46.9953 170.232 46.5312C169.474 46.0625 168.889 45.4091 168.477 44.571C168.07 43.7282 167.866 42.7481 167.866 41.6307C167.866 40.5133 168.07 39.5284 168.477 38.6761C168.889 37.8191 169.462 37.1515 170.196 36.6733C170.935 36.1903 171.796 35.9489 172.781 35.9489C173.349 35.9489 173.911 36.0436 174.464 36.233C175.018 36.4223 175.523 36.7301 175.977 37.1562C176.432 37.5777 176.794 38.1364 177.064 38.8324C177.334 39.5284 177.469 40.3854 177.469 41.4034V42.1136H169.06V40.6648H175.764C175.764 40.0492 175.641 39.5 175.395 39.017C175.153 38.5341 174.808 38.1529 174.358 37.8736C173.913 37.5942 173.387 37.4545 172.781 37.4545C172.114 37.4545 171.536 37.6203 171.048 37.9517C170.565 38.2784 170.194 38.7045 169.933 39.2301C169.673 39.7557 169.543 40.3191 169.543 40.9205V41.8864C169.543 42.7102 169.685 43.4086 169.969 43.9815C170.258 44.5497 170.658 44.983 171.169 45.2812C171.68 45.5748 172.275 45.7216 172.952 45.7216C173.392 45.7216 173.79 45.66 174.145 45.5369C174.505 45.4091 174.815 45.2197 175.075 44.9688C175.336 44.7131 175.537 44.3958 175.679 44.017L177.298 44.4716C177.128 45.0208 176.841 45.5038 176.439 45.9205C176.036 46.3324 175.539 46.6544 174.947 46.8864C174.356 47.1136 173.69 47.2273 172.952 47.2273ZM190.075 47.2273C189.053 47.2273 188.172 46.9858 187.433 46.5028C186.695 46.0199 186.126 45.3546 185.729 44.5071C185.331 43.6596 185.132 42.6913 185.132 41.6023C185.132 40.4943 185.336 39.5166 185.743 38.669C186.155 37.8168 186.728 37.1515 187.462 36.6733C188.2 36.1903 189.062 35.9489 190.047 35.9489C190.814 35.9489 191.505 36.0909 192.121 36.375C192.736 36.6591 193.241 37.0568 193.634 37.5682C194.027 38.0795 194.27 38.6761 194.365 39.358H192.689C192.561 38.8608 192.277 38.4205 191.837 38.0369C191.401 37.6487 190.814 37.4545 190.075 37.4545C189.422 37.4545 188.849 37.625 188.357 37.9659C187.869 38.3021 187.488 38.7779 187.213 39.3935C186.943 40.0043 186.808 40.7216 186.808 41.5455C186.808 42.3883 186.941 43.1222 187.206 43.7472C187.476 44.3722 187.855 44.8575 188.342 45.2031C188.835 45.5488 189.412 45.7216 190.075 45.7216C190.511 45.7216 190.906 45.6458 191.261 45.4943C191.616 45.3428 191.917 45.125 192.163 44.8409C192.41 44.5568 192.585 44.2159 192.689 43.8182H194.365C194.27 44.4621 194.036 45.0421 193.662 45.5582C193.293 46.0696 192.803 46.4768 192.192 46.7798C191.586 47.0781 190.88 47.2273 190.075 47.2273ZM198.264 40.0398H201.389C202.668 40.0398 203.645 40.3641 204.322 41.0128C205 41.6615 205.338 42.483 205.338 43.4773C205.338 44.1307 205.187 44.7249 204.884 45.2599C204.58 45.7902 204.135 46.214 203.548 46.5312C202.961 46.8438 202.241 47 201.389 47H196.815V36.0909H198.491V45.4375H201.389C202.052 45.4375 202.597 45.2623 203.023 44.9119C203.449 44.5616 203.662 44.1117 203.662 43.5625C203.662 42.9848 203.449 42.5137 203.023 42.1491C202.597 41.7846 202.052 41.6023 201.389 41.6023H198.264V40.0398ZM207.071 47V36.0909H208.747V47H207.071ZM211.815 51.0909V36.0909H213.435V37.8239H213.634C213.757 37.6345 213.927 37.393 214.145 37.0994C214.367 36.8011 214.685 36.536 215.097 36.304C215.513 36.0672 216.077 35.9489 216.787 35.9489C217.705 35.9489 218.515 36.1785 219.216 36.6378C219.917 37.0971 220.464 37.7481 220.857 38.5909C221.25 39.4337 221.446 40.428 221.446 41.5739C221.446 42.7292 221.25 43.7306 220.857 44.5781C220.464 45.4209 219.919 46.0743 219.223 46.5384C218.527 46.9976 217.724 47.2273 216.815 47.2273C216.115 47.2273 215.554 47.1113 215.132 46.8793C214.711 46.6425 214.386 46.375 214.159 46.0767C213.932 45.7737 213.757 45.5227 213.634 45.3239H213.491V51.0909H211.815ZM213.463 41.5455C213.463 42.3693 213.584 43.0961 213.825 43.7259C214.067 44.3509 214.42 44.8409 214.884 45.196C215.348 45.5464 215.916 45.7216 216.588 45.7216C217.289 45.7216 217.874 45.5369 218.342 45.1676C218.816 44.7936 219.171 44.2917 219.408 43.6619C219.649 43.0275 219.77 42.322 219.77 41.5455C219.77 40.7784 219.652 40.0871 219.415 39.4716C219.183 38.8513 218.83 38.3613 218.357 38.0014C217.888 37.6368 217.298 37.4545 216.588 37.4545C215.906 37.4545 215.333 37.6274 214.869 37.973C214.405 38.3139 214.055 38.7921 213.818 39.4077C213.581 40.0185 213.463 40.7311 213.463 41.5455ZM225.452 40.0398H228.577C229.855 40.0398 230.833 40.3641 231.51 41.0128C232.187 41.6615 232.526 42.483 232.526 43.4773C232.526 44.1307 232.374 44.7249 232.071 45.2599C231.768 45.7902 231.323 46.214 230.736 46.5312C230.149 46.8438 229.429 47 228.577 47H224.003V36.0909H225.679V45.4375H228.577C229.24 45.4375 229.784 45.2623 230.21 44.9119C230.636 44.5616 230.849 44.1117 230.849 43.5625C230.849 42.9848 230.636 42.5137 230.21 42.1491C229.784 41.7846 229.24 41.6023 228.577 41.6023H225.452V40.0398ZM239.651 47.2273C238.6 47.2273 237.693 46.9953 236.931 46.5312C236.173 46.0625 235.588 45.4091 235.176 44.571C234.769 43.7282 234.566 42.7481 234.566 41.6307C234.566 40.5133 234.769 39.5284 235.176 38.6761C235.588 37.8191 236.161 37.1515 236.895 36.6733C237.634 36.1903 238.496 35.9489 239.48 35.9489C240.049 35.9489 240.61 36.0436 241.164 36.233C241.718 36.4223 242.222 36.7301 242.676 37.1562C243.131 37.5777 243.493 38.1364 243.763 38.8324C244.033 39.5284 244.168 40.3854 244.168 41.4034V42.1136H235.759V40.6648H242.463C242.463 40.0492 242.34 39.5 242.094 39.017C241.853 38.5341 241.507 38.1529 241.057 37.8736C240.612 37.5942 240.087 37.4545 239.48 37.4545C238.813 37.4545 238.235 37.6203 237.748 37.9517C237.265 38.2784 236.893 38.7045 236.632 39.2301C236.372 39.7557 236.242 40.3191 236.242 40.9205V41.8864C236.242 42.7102 236.384 43.4086 236.668 43.9815C236.957 44.5497 237.357 44.983 237.868 45.2812C238.38 45.5748 238.974 45.7216 239.651 45.7216C240.091 45.7216 240.489 45.66 240.844 45.5369C241.204 45.4091 241.514 45.2197 241.775 44.9688C242.035 44.7131 242.236 44.3958 242.378 44.017L243.998 44.4716C243.827 45.0208 243.541 45.5038 243.138 45.9205C242.736 46.3324 242.239 46.6544 241.647 46.8864C241.055 47.1136 240.39 47.2273 239.651 47.2273Z" fill="#A39078"/>
<path d="M57.5625 209.545V227H54.9375V211.795H46.7216V227H44.0966V209.545H57.5625ZM66.8991 227.264C65.6719 227.264 64.6009 226.983 63.6861 226.42C62.7713 225.858 62.0611 225.071 61.5554 224.06C61.0497 223.048 60.7969 221.866 60.7969 220.514C60.7969 219.156 61.0497 217.969 61.5554 216.952C62.0611 215.935 62.7713 215.145 63.6861 214.582C64.6009 214.02 65.6719 213.739 66.8991 213.739C68.1264 213.739 69.1974 214.02 70.1122 214.582C71.027 215.145 71.7372 215.935 72.2429 216.952C72.7486 217.969 73.0014 219.156 73.0014 220.514C73.0014 221.866 72.7486 223.048 72.2429 224.06C71.7372 225.071 71.027 225.858 70.1122 226.42C69.1974 226.983 68.1264 227.264 66.8991 227.264ZM66.9077 225.125C67.7031 225.125 68.3622 224.915 68.8849 224.494C69.4077 224.074 69.794 223.514 70.044 222.815C70.2997 222.116 70.4276 221.347 70.4276 220.506C70.4276 219.67 70.2997 218.903 70.044 218.205C69.794 217.5 69.4077 216.935 68.8849 216.509C68.3622 216.082 67.7031 215.869 66.9077 215.869C66.1065 215.869 65.4418 216.082 64.9134 216.509C64.3906 216.935 64.0014 217.5 63.7457 218.205C63.4957 218.903 63.3707 219.67 63.3707 220.506C63.3707 221.347 63.4957 222.116 63.7457 222.815C64.0014 223.514 64.3906 224.074 64.9134 224.494C65.4418 224.915 66.1065 225.125 66.9077 225.125ZM75.8459 227V213.909H78.3942V219.398H79.6214L83.9425 213.909H87.0959L82.0249 220.276L87.1555 227H83.9936L80.0476 221.767H78.3942V227H75.8459ZM90.8161 231.909C90.4354 231.909 90.0888 231.878 89.7763 231.815C89.4638 231.759 89.2308 231.696 89.0774 231.628L89.6911 229.54C90.157 229.665 90.5717 229.719 90.9354 229.702C91.299 229.685 91.62 229.548 91.8984 229.293C92.1825 229.037 92.4325 228.619 92.6484 228.04L92.9638 227.17L88.174 213.909H90.9013L94.2166 224.068H94.353L97.6683 213.909H100.404L95.0092 228.747C94.7592 229.429 94.4411 230.006 94.0547 230.477C93.6683 230.955 93.2081 231.313 92.674 231.551C92.1399 231.79 91.5206 231.909 90.8161 231.909ZM102.799 227V213.909H113.478V227H110.981V216.108H105.279V227H102.799ZM120.695 227.29C119.865 227.29 119.115 227.136 118.445 226.83C117.774 226.517 117.243 226.065 116.851 225.474C116.464 224.884 116.271 224.159 116.271 223.301C116.271 222.562 116.413 221.955 116.697 221.477C116.982 221 117.365 220.622 117.848 220.344C118.331 220.065 118.871 219.855 119.467 219.713C120.064 219.571 120.672 219.463 121.291 219.389C122.075 219.298 122.712 219.224 123.2 219.168C123.689 219.105 124.044 219.006 124.266 218.869C124.487 218.733 124.598 218.511 124.598 218.205V218.145C124.598 217.401 124.388 216.824 123.967 216.415C123.553 216.006 122.933 215.801 122.109 215.801C121.251 215.801 120.575 215.991 120.081 216.372C119.592 216.747 119.254 217.165 119.067 217.625L116.672 217.08C116.956 216.284 117.371 215.642 117.916 215.153C118.467 214.659 119.101 214.301 119.817 214.08C120.533 213.852 121.286 213.739 122.075 213.739C122.598 213.739 123.152 213.801 123.737 213.926C124.328 214.045 124.879 214.267 125.391 214.591C125.908 214.915 126.331 215.378 126.661 215.98C126.99 216.577 127.155 217.352 127.155 218.307V227H124.666V225.21H124.564C124.399 225.54 124.152 225.864 123.822 226.182C123.493 226.5 123.07 226.764 122.553 226.974C122.036 227.185 121.416 227.29 120.695 227.29ZM121.249 225.244C121.953 225.244 122.555 225.105 123.055 224.827C123.561 224.548 123.945 224.185 124.206 223.736C124.473 223.281 124.607 222.795 124.607 222.278V220.591C124.516 220.682 124.339 220.767 124.078 220.847C123.822 220.92 123.53 220.986 123.2 221.043C122.871 221.094 122.55 221.142 122.237 221.188C121.925 221.227 121.663 221.261 121.453 221.29C120.959 221.352 120.507 221.457 120.098 221.605C119.695 221.753 119.371 221.966 119.126 222.244C118.888 222.517 118.768 222.881 118.768 223.335C118.768 223.966 119.001 224.443 119.467 224.767C119.933 225.085 120.527 225.244 121.249 225.244ZM128.925 216.108V213.909H139.971V216.108H135.701V227H133.212V216.108H128.925ZM147.699 227.264C146.409 227.264 145.298 226.989 144.366 226.438C143.44 225.881 142.724 225.099 142.219 224.094C141.719 223.082 141.469 221.898 141.469 220.54C141.469 219.199 141.719 218.017 142.219 216.994C142.724 215.972 143.429 215.173 144.332 214.599C145.241 214.026 146.304 213.739 147.52 213.739C148.259 213.739 148.974 213.861 149.668 214.105C150.361 214.349 150.983 214.733 151.534 215.256C152.085 215.778 152.52 216.457 152.838 217.293C153.156 218.122 153.315 219.131 153.315 220.318V221.222H142.909V219.312H150.818C150.818 218.642 150.682 218.048 150.409 217.531C150.136 217.009 149.753 216.597 149.259 216.295C148.77 215.994 148.196 215.844 147.537 215.844C146.821 215.844 146.196 216.02 145.662 216.372C145.134 216.719 144.724 217.173 144.435 217.736C144.151 218.293 144.009 218.898 144.009 219.551V221.043C144.009 221.918 144.162 222.662 144.469 223.276C144.781 223.889 145.216 224.358 145.773 224.682C146.33 225 146.98 225.159 147.724 225.159C148.207 225.159 148.648 225.091 149.045 224.955C149.443 224.812 149.787 224.602 150.077 224.324C150.366 224.045 150.588 223.702 150.741 223.293L153.153 223.727C152.96 224.437 152.614 225.06 152.114 225.594C151.619 226.122 150.997 226.534 150.247 226.83C149.503 227.119 148.653 227.264 147.699 227.264ZM155.112 227L155.103 224.793H155.572C155.935 224.793 156.239 224.716 156.484 224.562C156.734 224.403 156.938 224.136 157.097 223.761C157.256 223.386 157.379 222.869 157.464 222.21C157.549 221.545 157.612 220.71 157.651 219.705L157.881 213.909H167.018V227H164.521V216.108H160.242L160.038 220.557C159.987 221.636 159.876 222.58 159.705 223.386C159.54 224.193 159.299 224.866 158.981 225.406C158.663 225.94 158.254 226.341 157.754 226.608C157.254 226.869 156.646 227 155.93 227H155.112ZM178.223 227V216.082H175.087C174.342 216.082 173.763 216.256 173.348 216.602C172.933 216.949 172.726 217.403 172.726 217.966C172.726 218.523 172.916 218.972 173.297 219.312C173.683 219.648 174.223 219.815 174.916 219.815H178.964V221.878H174.916C173.95 221.878 173.115 221.719 172.411 221.401C171.712 221.077 171.172 220.619 170.791 220.028C170.416 219.437 170.229 218.739 170.229 217.932C170.229 217.108 170.422 216.398 170.808 215.801C171.2 215.199 171.76 214.733 172.487 214.403C173.22 214.074 174.087 213.909 175.087 213.909H180.618V227H178.223ZM169.632 227L173.322 220.386H175.93L172.24 227H169.632ZM191.357 223.847L195.584 213.909H197.783L192.303 227H190.411L185.041 213.909H187.214L191.357 223.847ZM186.507 213.909V227H184.01V213.909H186.507ZM196.274 227V213.909H198.754V227H196.274ZM43.5341 251V240.091H47.9943C49.1686 240.091 50.1013 240.356 50.7926 240.886C51.4839 241.417 51.8295 242.117 51.8295 242.989C51.8295 243.652 51.633 244.165 51.2401 244.53C50.8471 244.89 50.3428 245.134 49.7273 245.261C50.1297 245.318 50.5204 245.46 50.8991 245.688C51.2827 245.915 51.5999 246.227 51.8509 246.625C52.1018 247.018 52.2273 247.501 52.2273 248.074C52.2273 248.633 52.0852 249.132 51.8011 249.572C51.517 250.013 51.1098 250.361 50.5795 250.616C50.0492 250.872 49.4148 251 48.6761 251H43.5341ZM45.125 249.466H48.6761C49.2538 249.466 49.706 249.329 50.0327 249.054C50.3594 248.779 50.5227 248.405 50.5227 247.932C50.5227 247.368 50.3594 246.926 50.0327 246.604C49.706 246.277 49.2538 246.114 48.6761 246.114H45.125V249.466ZM45.125 244.665H47.9943C48.4441 244.665 48.83 244.603 49.152 244.48C49.474 244.352 49.7202 244.172 49.8906 243.94C50.0658 243.704 50.1534 243.424 50.1534 243.102C50.1534 242.643 49.9616 242.283 49.5781 242.023C49.1946 241.758 48.6667 241.625 47.9943 241.625H45.125V244.665ZM56.2134 244.04H59.3384C60.6168 244.04 61.5946 244.364 62.2717 245.013C62.9487 245.661 63.2873 246.483 63.2873 247.477C63.2873 248.131 63.1358 248.725 62.8327 249.26C62.5297 249.79 62.0846 250.214 61.4975 250.531C60.9104 250.844 60.1907 251 59.3384 251H54.7646V240.091H56.4407V249.438H59.3384C60.0013 249.438 60.5458 249.262 60.9719 248.912C61.3981 248.562 61.6112 248.112 61.6112 247.562C61.6112 246.985 61.3981 246.514 60.9719 246.149C60.5458 245.785 60.0013 245.602 59.3384 245.602H56.2134V244.04ZM65.0202 251V240.091H66.6964V251H65.0202ZM76.4975 240.091V241.653H71.4407V251H69.7646V240.091H76.4975ZM82.8097 251.227C81.8248 251.227 80.9607 250.993 80.2173 250.524C79.4787 250.055 78.901 249.4 78.4844 248.557C78.0724 247.714 77.8665 246.729 77.8665 245.602C77.8665 244.466 78.0724 243.474 78.4844 242.626C78.901 241.779 79.4787 241.121 80.2173 240.652C80.9607 240.183 81.8248 239.949 82.8097 239.949C83.7945 239.949 84.6563 240.183 85.3949 240.652C86.1383 241.121 86.7159 241.779 87.1278 242.626C87.5445 243.474 87.7528 244.466 87.7528 245.602C87.7528 246.729 87.5445 247.714 87.1278 248.557C86.7159 249.4 86.1383 250.055 85.3949 250.524C84.6563 250.993 83.7945 251.227 82.8097 251.227ZM82.8097 249.722C83.5578 249.722 84.1733 249.53 84.6562 249.146C85.1392 248.763 85.4967 248.259 85.7287 247.634C85.9607 247.009 86.0767 246.331 86.0767 245.602C86.0767 244.873 85.9607 244.194 85.7287 243.564C85.4967 242.934 85.1392 242.425 84.6562 242.037C84.1733 241.649 83.5578 241.455 82.8097 241.455C82.0616 241.455 81.446 241.649 80.9631 242.037C80.4801 242.425 80.1226 242.934 79.8906 243.564C79.6586 244.194 79.5426 244.873 79.5426 245.602C79.5426 246.331 79.6586 247.009 79.8906 247.634C80.1226 248.259 80.4801 248.763 80.9631 249.146C81.446 249.53 82.0616 249.722 82.8097 249.722ZM89.1467 254.125V249.438H90.0558C90.2783 249.205 90.4701 248.955 90.631 248.685C90.792 248.415 90.9317 248.095 91.0501 247.726C91.1732 247.352 91.2773 246.897 91.3626 246.362C91.4478 245.822 91.5236 245.171 91.5898 244.409L91.9592 240.091H98.891V249.438H100.567V254.125H98.891V251H90.8228V254.125H89.1467ZM91.9592 249.438H97.2148V241.653H93.5217L93.2376 244.409C93.1192 245.55 92.9724 246.547 92.7972 247.399C92.622 248.251 92.3427 248.931 91.9592 249.438ZM110.093 244.778V246.341H104.07V244.778H110.093ZM104.468 240.091V251H102.792V240.091H104.468ZM111.371 240.091V251H109.695V240.091H111.371ZM115.881 244.04H119.006C120.285 244.04 121.263 244.364 121.94 245.013C122.617 245.661 122.955 246.483 122.955 247.477C122.955 248.131 122.804 248.725 122.501 249.26C122.198 249.79 121.753 250.214 121.165 250.531C120.578 250.844 119.859 251 119.006 251H114.433V240.091H116.109V249.438H119.006C119.669 249.438 120.214 249.262 120.64 248.912C121.066 248.562 121.279 248.112 121.279 247.562C121.279 246.985 121.066 246.514 120.64 246.149C120.214 245.785 119.669 245.602 119.006 245.602H115.881V244.04ZM124.688 251V240.091H126.364V251H124.688ZM134.006 251.227C132.955 251.227 132.049 250.995 131.286 250.531C130.529 250.062 129.944 249.409 129.532 248.571C129.125 247.728 128.921 246.748 128.921 245.631C128.921 244.513 129.125 243.528 129.532 242.676C129.944 241.819 130.517 241.152 131.251 240.673C131.989 240.19 132.851 239.949 133.836 239.949C134.404 239.949 134.965 240.044 135.519 240.233C136.073 240.422 136.577 240.73 137.032 241.156C137.487 241.578 137.849 242.136 138.119 242.832C138.388 243.528 138.523 244.385 138.523 245.403V246.114H130.114V244.665H136.819C136.819 244.049 136.696 243.5 136.45 243.017C136.208 242.534 135.862 242.153 135.413 241.874C134.968 241.594 134.442 241.455 133.836 241.455C133.168 241.455 132.591 241.62 132.103 241.952C131.62 242.278 131.248 242.705 130.988 243.23C130.728 243.756 130.597 244.319 130.597 244.92V245.886C130.597 246.71 130.739 247.409 131.023 247.982C131.312 248.55 131.712 248.983 132.224 249.281C132.735 249.575 133.329 249.722 134.006 249.722C134.447 249.722 134.844 249.66 135.2 249.537C135.559 249.409 135.87 249.22 136.13 248.969C136.39 248.713 136.592 248.396 136.734 248.017L138.353 248.472C138.183 249.021 137.896 249.504 137.494 249.92C137.091 250.332 136.594 250.654 136.002 250.886C135.41 251.114 134.745 251.227 134.006 251.227ZM146.698 251V240.091H155.278V251H153.602V241.653H148.374V251H146.698ZM158.339 255.091V240.091H159.958V241.824H160.157C160.28 241.634 160.451 241.393 160.668 241.099C160.891 240.801 161.208 240.536 161.62 240.304C162.037 240.067 162.6 239.949 163.31 239.949C164.229 239.949 165.039 240.179 165.739 240.638C166.44 241.097 166.987 241.748 167.38 242.591C167.773 243.434 167.969 244.428 167.969 245.574C167.969 246.729 167.773 247.731 167.38 248.578C166.987 249.421 166.442 250.074 165.746 250.538C165.05 250.998 164.248 251.227 163.339 251.227C162.638 251.227 162.077 251.111 161.656 250.879C161.234 250.643 160.91 250.375 160.683 250.077C160.455 249.774 160.28 249.523 160.157 249.324H160.015V255.091H158.339ZM159.987 245.545C159.987 246.369 160.107 247.096 160.349 247.726C160.59 248.351 160.943 248.841 161.407 249.196C161.871 249.546 162.439 249.722 163.112 249.722C163.812 249.722 164.397 249.537 164.866 249.168C165.339 248.794 165.694 248.292 165.931 247.662C166.173 247.027 166.293 246.322 166.293 245.545C166.293 244.778 166.175 244.087 165.938 243.472C165.706 242.851 165.353 242.361 164.88 242.001C164.411 241.637 163.822 241.455 163.112 241.455C162.43 241.455 161.857 241.627 161.393 241.973C160.929 242.314 160.578 242.792 160.342 243.408C160.105 244.018 159.987 244.731 159.987 245.545ZM175.1 251.227C174.049 251.227 173.142 250.995 172.38 250.531C171.622 250.062 171.038 249.409 170.626 248.571C170.219 247.728 170.015 246.748 170.015 245.631C170.015 244.513 170.219 243.528 170.626 242.676C171.038 241.819 171.611 241.152 172.344 240.673C173.083 240.19 173.945 239.949 174.93 239.949C175.498 239.949 176.059 240.044 176.613 240.233C177.167 240.422 177.671 240.73 178.126 241.156C178.58 241.578 178.942 242.136 179.212 242.832C179.482 243.528 179.617 244.385 179.617 245.403V246.114H171.208V244.665H177.913C177.913 244.049 177.79 243.5 177.543 243.017C177.302 242.534 176.956 242.153 176.506 241.874C176.061 241.594 175.536 241.455 174.93 241.455C174.262 241.455 173.684 241.62 173.197 241.952C172.714 242.278 172.342 242.705 172.082 243.23C171.821 243.756 171.691 244.319 171.691 244.92V245.886C171.691 246.71 171.833 247.409 172.117 247.982C172.406 248.55 172.806 248.983 173.317 249.281C173.829 249.575 174.423 249.722 175.1 249.722C175.54 249.722 175.938 249.66 176.293 249.537C176.653 249.409 176.963 249.22 177.224 248.969C177.484 248.713 177.685 248.396 177.827 248.017L179.447 248.472C179.276 249.021 178.99 249.504 178.587 249.92C178.185 250.332 177.688 250.654 177.096 250.886C176.504 251.114 175.839 251.227 175.1 251.227ZM181.002 254.125V249.438H181.911C182.134 249.205 182.326 248.955 182.487 248.685C182.647 248.415 182.787 248.095 182.906 247.726C183.029 247.352 183.133 246.897 183.218 246.362C183.303 245.822 183.379 245.171 183.445 244.409L183.815 240.091H190.746V249.438H192.423V254.125H190.746V251H182.678V254.125H181.002ZM183.815 249.438H189.07V241.653H185.377L185.093 244.409C184.975 245.55 184.828 246.547 184.653 247.399C184.478 248.251 184.198 248.931 183.815 249.438ZM193.681 251V249.438H194.079C194.406 249.438 194.678 249.374 194.896 249.246C195.114 249.113 195.289 248.884 195.422 248.557C195.559 248.225 195.663 247.766 195.734 247.179C195.81 246.587 195.864 245.834 195.897 244.92L196.096 240.091H203.369V251H201.693V241.653H197.687L197.517 245.545C197.479 246.44 197.398 247.229 197.275 247.911C197.157 248.588 196.975 249.156 196.728 249.615C196.487 250.074 196.165 250.42 195.762 250.652C195.36 250.884 194.856 251 194.25 251H193.681ZM210.876 251.227C209.891 251.227 209.027 250.993 208.284 250.524C207.545 250.055 206.967 249.4 206.551 248.557C206.139 247.714 205.933 246.729 205.933 245.602C205.933 244.466 206.139 243.474 206.551 242.626C206.967 241.779 207.545 241.121 208.284 240.652C209.027 240.183 209.891 239.949 210.876 239.949C211.861 239.949 212.723 240.183 213.461 240.652C214.205 241.121 214.782 241.779 215.194 242.626C215.611 243.474 215.819 244.466 215.819 245.602C215.819 246.729 215.611 247.714 215.194 248.557C214.782 249.4 214.205 250.055 213.461 250.524C212.723 250.993 211.861 251.227 210.876 251.227ZM210.876 249.722C211.624 249.722 212.24 249.53 212.723 249.146C213.206 248.763 213.563 248.259 213.795 247.634C214.027 247.009 214.143 246.331 214.143 245.602C214.143 244.873 214.027 244.194 213.795 243.564C213.563 242.934 213.206 242.425 212.723 242.037C212.24 241.649 211.624 241.455 210.876 241.455C210.128 241.455 209.512 241.649 209.029 242.037C208.547 242.425 208.189 242.934 207.957 243.564C207.725 244.194 207.609 244.873 207.609 245.602C207.609 246.331 207.725 247.009 207.957 247.634C208.189 248.259 208.547 248.763 209.029 249.146C209.512 249.53 210.128 249.722 210.876 249.722ZM217.247 251L221.679 245.46L217.304 240.091H219.292L222.929 244.75H223.838V240.091H225.514V244.75H226.395L230.031 240.091H232.02L227.673 245.46L232.076 251H230.059L226.366 246.312H225.514V251H223.838V246.312H222.985L219.264 251H217.247ZM238.596 251.227C237.545 251.227 236.638 250.995 235.876 250.531C235.118 250.062 234.534 249.409 234.122 248.571C233.715 247.728 233.511 246.748 233.511 245.631C233.511 244.513 233.715 243.528 234.122 242.676C234.534 241.819 235.107 241.152 235.841 240.673C236.579 240.19 237.441 239.949 238.426 239.949C238.994 239.949 239.555 240.044 240.109 240.233C240.663 240.422 241.167 240.73 241.622 241.156C242.076 241.578 242.439 242.136 242.708 242.832C242.978 243.528 243.113 244.385 243.113 245.403V246.114H234.704V244.665H241.409C241.409 244.049 241.286 243.5 241.039 243.017C240.798 242.534 240.452 242.153 240.002 241.874C239.557 241.594 239.032 241.455 238.426 241.455C237.758 241.455 237.181 241.62 236.693 241.952C236.21 242.278 235.838 242.705 235.578 243.23C235.317 243.756 235.187 244.319 235.187 244.92V245.886C235.187 246.71 235.329 247.409 235.613 247.982C235.902 248.55 236.302 248.983 236.814 249.281C237.325 249.575 237.919 249.722 238.596 249.722C239.037 249.722 239.434 249.66 239.789 249.537C240.149 249.409 240.459 249.22 240.72 248.969C240.98 248.713 241.181 248.396 241.324 248.017L242.943 248.472C242.772 249.021 242.486 249.504 242.083 249.92C241.681 250.332 241.184 250.654 240.592 250.886C240 251.114 239.335 251.227 238.596 251.227ZM252.964 244.778V246.341H246.941V244.778H252.964ZM247.339 240.091V251H245.663V240.091H247.339ZM254.243 240.091V251H252.566V240.091H254.243ZM258.98 248.528L264.235 240.091H266.167V251H264.491V242.562L259.264 251H257.304V240.091H258.98V248.528ZM275.8 251V241.625H272.902C272.249 241.625 271.735 241.777 271.361 242.08C270.987 242.383 270.8 242.799 270.8 243.33C270.8 243.85 270.968 244.26 271.304 244.558C271.645 244.857 272.111 245.006 272.703 245.006H276.226V246.568H272.703C271.964 246.568 271.328 246.438 270.793 246.178C270.258 245.917 269.846 245.545 269.557 245.062C269.268 244.575 269.124 243.997 269.124 243.33C269.124 242.657 269.275 242.08 269.578 241.597C269.881 241.114 270.314 240.742 270.878 240.482C271.446 240.221 272.121 240.091 272.902 240.091H277.391V251H275.8ZM268.527 251L271.624 245.574H273.442L270.345 251H268.527Z" fill="#A39078"/>
<rect y="5" width="18" height="18" rx="3" fill="#A39078" fill-opacity="0.5"/>
<rect y="110" width="18" height="18" rx="3" fill="#A39078" fill-opacity="0.5"/>
<rect y="210" width="18" height="18" rx="3" fill="#A39078" fill-opacity="0.5"/>
</svg>
