<svg width="278" height="232" viewBox="0 0 278 232" fill="none" xmlns="http://www.w3.org/2000/svg">
<g filter="url(#filter0_d_2060_6)">
<rect width="270" height="224" rx="10" transform="matrix(1 0 0 -1 0 225)" fill="url(#paint0_linear_2060_6)"/>
</g>
<path d="M28.7727 70H27.3636C27.2803 69.5947 27.1345 69.2386 26.9261 68.9318C26.7216 68.625 26.4716 68.3674 26.1761 68.1591C25.8845 67.947 25.5606 67.7879 25.2045 67.6818C24.8485 67.5758 24.4773 67.5227 24.0909 67.5227C23.3864 67.5227 22.7481 67.7008 22.1761 68.0568C21.608 68.4129 21.1553 68.9375 20.8182 69.6307C20.4848 70.3239 20.3182 71.1742 20.3182 72.1818C20.3182 73.1894 20.4848 74.0398 20.8182 74.733C21.1553 75.4261 21.608 75.9508 22.1761 76.3068C22.7481 76.6629 23.3864 76.8409 24.0909 76.8409C24.4773 76.8409 24.8485 76.7879 25.2045 76.6818C25.5606 76.5758 25.8845 76.4186 26.1761 76.2102C26.4716 75.9981 26.7216 75.7386 26.9261 75.4318C27.1345 75.1212 27.2803 74.7652 27.3636 74.3636H28.7727C28.6667 74.9583 28.4735 75.4905 28.1932 75.9602C27.9129 76.4299 27.5644 76.8295 27.1477 77.1591C26.7311 77.4848 26.2633 77.733 25.7443 77.9034C25.2292 78.0739 24.678 78.1591 24.0909 78.1591C23.0985 78.1591 22.2159 77.9167 21.4432 77.4318C20.6705 76.947 20.0625 76.2576 19.6193 75.3636C19.1761 74.4697 18.9545 73.4091 18.9545 72.1818C18.9545 70.9545 19.1761 69.8939 19.6193 69C20.0625 68.1061 20.6705 67.4167 21.4432 66.9318C22.2159 66.447 23.0985 66.2045 24.0909 66.2045C24.678 66.2045 25.2292 66.2898 25.7443 66.4602C26.2633 66.6307 26.7311 66.8807 27.1477 67.2102C27.5644 67.536 27.9129 67.9337 28.1932 68.4034C28.4735 68.8693 28.6667 69.4015 28.7727 70ZM30.0679 78V69.2727H33.6361C34.5755 69.2727 35.3217 69.4848 35.8747 69.9091C36.4277 70.3333 36.7043 70.8939 36.7043 71.5909C36.7043 72.1212 36.5471 72.5322 36.2327 72.8239C35.9183 73.1117 35.5149 73.3068 35.0224 73.4091C35.3444 73.4545 35.6569 73.5682 35.9599 73.75C36.2668 73.9318 36.5205 74.1818 36.7213 74.5C36.9221 74.8144 37.0224 75.2008 37.0224 75.6591C37.0224 76.1061 36.9088 76.5057 36.6815 76.858C36.4543 77.2102 36.1285 77.4886 35.7043 77.6932C35.28 77.8977 34.7724 78 34.1815 78H30.0679ZM31.3406 76.7727H34.1815C34.6437 76.7727 35.0054 76.6629 35.2668 76.4432C35.5281 76.2235 35.6588 75.9242 35.6588 75.5455C35.6588 75.0947 35.5281 74.7405 35.2668 74.483C35.0054 74.2216 34.6437 74.0909 34.1815 74.0909H31.3406V76.7727ZM31.3406 72.9318H33.6361C33.9959 72.9318 34.3046 72.8826 34.5622 72.7841C34.8198 72.6818 35.0168 72.5379 35.1531 72.3523C35.2933 72.1629 35.3634 71.9394 35.3634 71.6818C35.3634 71.3144 35.2099 71.0265 34.9031 70.8182C34.5963 70.6061 34.174 70.5 33.6361 70.5H31.3406V72.9318ZM43.5023 78V70.5H41.1841C40.6614 70.5 40.2504 70.6212 39.9511 70.8636C39.6519 71.1061 39.5023 71.4394 39.5023 71.8636C39.5023 72.2803 39.6367 72.608 39.9057 72.8466C40.1784 73.0852 40.5515 73.2045 41.025 73.2045H43.8432V74.4545H41.025C40.4341 74.4545 39.9246 74.3504 39.4966 74.142C39.0686 73.9337 38.739 73.6364 38.508 73.25C38.2769 72.8598 38.1614 72.3977 38.1614 71.8636C38.1614 71.3258 38.2826 70.8636 38.525 70.4773C38.7674 70.0909 39.114 69.7936 39.5648 69.5852C40.0193 69.3769 40.5591 69.2727 41.1841 69.2727H44.775V78H43.5023ZM37.6841 78L40.1614 73.6591H41.6159L39.1386 78H37.6841ZM45.8912 78L49.4366 73.5682L45.9366 69.2727H47.5276L50.4366 73H51.1639V69.2727H52.5048V73H53.2094L56.1185 69.2727H57.7094L54.2321 73.5682L57.7548 78H56.1412L53.1866 74.25H52.5048V78H51.1639V74.25H50.4821L47.5048 78H45.8912ZM60.2119 76.0227L64.4165 69.2727H65.9619V78H64.621V71.25L60.4392 78H58.871V69.2727H60.2119V76.0227ZM66.4304 70.5227V69.2727H73.5213V70.5227H70.6577V78H69.3168V70.5227H66.4304ZM77.8832 78.1818C77.0423 78.1818 76.317 77.9962 75.7071 77.625C75.101 77.25 74.6332 76.7273 74.3037 76.0568C73.9779 75.3826 73.8151 74.5985 73.8151 73.7045C73.8151 72.8106 73.9779 72.0227 74.3037 71.3409C74.6332 70.6553 75.0916 70.1212 75.6787 69.7386C76.2696 69.3523 76.959 69.1591 77.7469 69.1591C78.2014 69.1591 78.6503 69.2348 79.0935 69.3864C79.5366 69.5379 79.9401 69.7841 80.3037 70.125C80.6673 70.4621 80.9571 70.9091 81.173 71.4659C81.3889 72.0227 81.4969 72.7083 81.4969 73.5227V74.0909H74.7696V72.9318H80.1332C80.1332 72.4394 80.0348 72 79.8378 71.6136C79.6446 71.2273 79.3681 70.9223 79.0082 70.6989C78.6522 70.4754 78.2317 70.3636 77.7469 70.3636C77.2128 70.3636 76.7507 70.4962 76.3605 70.7614C75.9741 71.0227 75.6768 71.3636 75.4685 71.7841C75.2601 72.2045 75.156 72.6553 75.156 73.1364V73.9091C75.156 74.5682 75.2696 75.1269 75.4969 75.5852C75.7279 76.0398 76.048 76.3864 76.4571 76.625C76.8662 76.8598 77.3416 76.9773 77.8832 76.9773C78.2355 76.9773 78.5537 76.928 78.8378 76.8295C79.1257 76.7273 79.3738 76.5758 79.5821 76.375C79.7904 76.1705 79.9514 75.9167 80.0651 75.6136L81.3605 75.9773C81.2241 76.4167 80.995 76.803 80.673 77.1364C80.351 77.4659 79.9533 77.7235 79.4798 77.9091C79.0063 78.0909 78.4741 78.1818 77.8832 78.1818ZM86.2821 78.1818C85.4639 78.1818 84.7594 77.9886 84.1685 77.6023C83.5776 77.2159 83.123 76.6837 82.8048 76.0057C82.4866 75.3277 82.3276 74.553 82.3276 73.6818C82.3276 72.7955 82.4904 72.0133 82.8162 71.3352C83.1457 70.6534 83.6041 70.1212 84.1912 69.7386C84.7821 69.3523 85.4715 69.1591 86.2594 69.1591C86.873 69.1591 87.426 69.2727 87.9185 69.5C88.4109 69.7273 88.8143 70.0455 89.1287 70.4545C89.4431 70.8636 89.6382 71.3409 89.7139 71.8864H88.373C88.2707 71.4886 88.0435 71.1364 87.6912 70.8295C87.3427 70.5189 86.873 70.3636 86.2821 70.3636C85.7594 70.3636 85.301 70.5 84.9071 70.7727C84.517 71.0417 84.212 71.4223 83.9923 71.9148C83.7764 72.4034 83.6685 72.9773 83.6685 73.6364C83.6685 74.3106 83.7745 74.8977 83.9866 75.3977C84.2026 75.8977 84.5056 76.286 84.8957 76.5625C85.2897 76.839 85.7518 76.9773 86.2821 76.9773C86.6306 76.9773 86.9469 76.9167 87.231 76.7955C87.5151 76.6742 87.7556 76.5 87.9526 76.2727C88.1495 76.0455 88.2897 75.7727 88.373 75.4545H89.7139C89.6382 75.9697 89.4507 76.4337 89.1514 76.8466C88.856 77.2557 88.4639 77.5814 87.9753 77.8239C87.4904 78.0625 86.926 78.1818 86.2821 78.1818ZM92.0332 72.4318H94.5332C95.556 72.4318 96.3382 72.6913 96.8798 73.2102C97.4215 73.7292 97.6923 74.3864 97.6923 75.1818C97.6923 75.7045 97.5711 76.1799 97.3287 76.608C97.0863 77.0322 96.7302 77.3712 96.2605 77.625C95.7908 77.875 95.2151 78 94.5332 78H90.8741V69.2727H92.2151V76.75H94.5332C95.0635 76.75 95.4991 76.6098 95.8401 76.3295C96.181 76.0492 96.3514 75.6894 96.3514 75.25C96.3514 74.7879 96.181 74.411 95.8401 74.1193C95.4991 73.8277 95.0635 73.6818 94.5332 73.6818H92.0332V72.4318ZM106.179 78.1818C105.361 78.1818 104.656 77.9886 104.065 77.6023C103.474 77.2159 103.02 76.6837 102.702 76.0057C102.384 75.3277 102.224 74.553 102.224 73.6818C102.224 72.7955 102.387 72.0133 102.713 71.3352C103.043 70.6534 103.501 70.1212 104.088 69.7386C104.679 69.3523 105.368 69.1591 106.156 69.1591C106.77 69.1591 107.323 69.2727 107.815 69.5C108.308 69.7273 108.711 70.0455 109.026 70.4545C109.34 70.8636 109.535 71.3409 109.611 71.8864H108.27C108.168 71.4886 107.94 71.1364 107.588 70.8295C107.24 70.5189 106.77 70.3636 106.179 70.3636C105.656 70.3636 105.198 70.5 104.804 70.7727C104.414 71.0417 104.109 71.4223 103.889 71.9148C103.673 72.4034 103.565 72.9773 103.565 73.6364C103.565 74.3106 103.671 74.8977 103.884 75.3977C104.099 75.8977 104.402 76.286 104.793 76.5625C105.187 76.839 105.649 76.9773 106.179 76.9773C106.527 76.9773 106.844 76.9167 107.128 76.7955C107.412 76.6742 107.652 76.5 107.849 76.2727C108.046 76.0455 108.187 75.7727 108.27 75.4545H109.611C109.535 75.9697 109.348 76.4337 109.048 76.8466C108.753 77.2557 108.361 77.5814 107.872 77.8239C107.387 78.0625 106.823 78.1818 106.179 78.1818ZM120.312 73.0227V74.2727H115.494V73.0227H120.312ZM115.812 69.2727V78H114.471V69.2727H115.812ZM121.335 69.2727V78H119.994V69.2727H121.335ZM125.552 78.2045C124.999 78.2045 124.497 78.1004 124.046 77.892C123.595 77.6799 123.237 77.375 122.972 76.9773C122.707 76.5758 122.574 76.0909 122.574 75.5227C122.574 75.0227 122.673 74.6174 122.87 74.3068C123.067 73.9924 123.33 73.7462 123.66 73.5682C123.989 73.3902 124.353 73.2576 124.751 73.1705C125.152 73.0795 125.555 73.0076 125.961 72.9545C126.491 72.8864 126.921 72.8352 127.251 72.8011C127.584 72.7633 127.826 72.7008 127.978 72.6136C128.133 72.5265 128.211 72.375 128.211 72.1591V72.1136C128.211 71.553 128.057 71.1174 127.751 70.8068C127.448 70.4962 126.987 70.3409 126.37 70.3409C125.73 70.3409 125.228 70.4811 124.864 70.7614C124.501 71.0417 124.245 71.3409 124.097 71.6591L122.824 71.2045C123.052 70.6742 123.355 70.2614 123.734 69.9659C124.116 69.6667 124.533 69.4583 124.984 69.3409C125.438 69.2197 125.885 69.1591 126.324 69.1591C126.605 69.1591 126.927 69.1932 127.29 69.2614C127.658 69.3258 128.012 69.4602 128.353 69.6648C128.698 69.8693 128.984 70.178 129.211 70.5909C129.438 71.0038 129.552 71.5568 129.552 72.25V78H128.211V76.8182H128.143C128.052 77.0076 127.9 77.2102 127.688 77.4261C127.476 77.642 127.194 77.8258 126.841 77.9773C126.489 78.1288 126.059 78.2045 125.552 78.2045ZM125.756 77C126.287 77 126.734 76.8958 127.097 76.6875C127.465 76.4792 127.741 76.2102 127.927 75.8807C128.116 75.5511 128.211 75.2045 128.211 74.8409V73.6136C128.154 73.6818 128.029 73.7443 127.836 73.8011C127.646 73.8542 127.427 73.9015 127.177 73.9432C126.93 73.9811 126.69 74.0152 126.455 74.0455C126.224 74.072 126.037 74.0947 125.893 74.1136C125.544 74.1591 125.218 74.233 124.915 74.3352C124.616 74.4337 124.374 74.5833 124.188 74.7841C124.006 74.9811 123.915 75.25 123.915 75.5909C123.915 76.0568 124.088 76.4091 124.432 76.6477C124.781 76.8826 125.222 77 125.756 77ZM135.972 76.1818L139.017 69.2727H140.29L136.517 78H135.426L131.722 69.2727H132.972L135.972 76.1818ZM132.54 69.2727V78H131.199V69.2727H132.54ZM139.404 78V69.2727H140.745V78H139.404ZM143.74 76.0227L147.945 69.2727H149.49V78H148.149V71.25L143.967 78H142.399V69.2727H143.74V76.0227ZM156.187 76.0227L160.391 69.2727H161.937V78H160.596V71.25L156.414 78H154.846V69.2727H156.187V76.0227ZM167.293 78V69.2727H174.157V78H172.816V70.5227H168.634V78H167.293ZM179.351 78.1818C178.563 78.1818 177.872 77.9943 177.277 77.6193C176.686 77.2443 176.224 76.7197 175.891 76.0455C175.561 75.3712 175.396 74.5833 175.396 73.6818C175.396 72.7727 175.561 71.9792 175.891 71.3011C176.224 70.6231 176.686 70.0966 177.277 69.7216C177.872 69.3466 178.563 69.1591 179.351 69.1591C180.139 69.1591 180.828 69.3466 181.419 69.7216C182.014 70.0966 182.476 70.6231 182.805 71.3011C183.139 71.9792 183.305 72.7727 183.305 73.6818C183.305 74.5833 183.139 75.3712 182.805 76.0455C182.476 76.7197 182.014 77.2443 181.419 77.6193C180.828 77.9943 180.139 78.1818 179.351 78.1818ZM179.351 76.9773C179.949 76.9773 180.442 76.8239 180.828 76.517C181.214 76.2102 181.5 75.8068 181.686 75.3068C181.872 74.8068 181.964 74.2652 181.964 73.6818C181.964 73.0985 181.872 72.5549 181.686 72.0511C181.5 71.5473 181.214 71.1402 180.828 70.8295C180.442 70.5189 179.949 70.3636 179.351 70.3636C178.752 70.3636 178.26 70.5189 177.874 70.8295C177.487 71.1402 177.201 71.5473 177.016 72.0511C176.83 72.5549 176.737 73.0985 176.737 73.6818C176.737 74.2652 176.83 74.8068 177.016 75.3068C177.201 75.8068 177.487 76.2102 177.874 76.517C178.26 76.8239 178.752 76.9773 179.351 76.9773ZM183.78 78V76.75H184.098C184.359 76.75 184.577 76.6989 184.751 76.5966C184.925 76.4905 185.066 76.3068 185.172 76.0455C185.281 75.7803 185.365 75.4129 185.422 74.9432C185.482 74.4697 185.526 73.8674 185.552 73.1364L185.711 69.2727H191.53V78H190.189V70.5227H186.984L186.848 73.6364C186.817 74.3523 186.753 74.983 186.655 75.5284C186.56 76.0701 186.414 76.5246 186.217 76.892C186.024 77.2595 185.766 77.536 185.444 77.7216C185.122 77.9072 184.719 78 184.234 78H183.78ZM193.741 81.2727C193.514 81.2727 193.311 81.2538 193.133 81.2159C192.955 81.1818 192.832 81.1477 192.764 81.1136L193.105 79.9318C193.43 80.0152 193.718 80.0455 193.968 80.0227C194.218 80 194.44 79.8883 194.633 79.6875C194.83 79.4905 195.01 79.1705 195.173 78.7273L195.423 78.0455L192.195 69.2727H193.65L196.059 76.2273H196.15L198.559 69.2727H200.014L196.309 79.2727C196.142 79.7235 195.936 80.0966 195.69 80.392C195.444 80.6913 195.158 80.9129 194.832 81.0568C194.51 81.2008 194.146 81.2727 193.741 81.2727ZM207.445 69.2727V78H206.104V69.2727H207.445ZM206.922 73.4318V74.6818C206.619 74.7955 206.318 74.8958 206.019 74.983C205.72 75.0663 205.405 75.1326 205.076 75.1818C204.746 75.2273 204.385 75.25 203.991 75.25C203.002 75.25 202.208 74.983 201.61 74.4489C201.015 73.9148 200.718 73.1136 200.718 72.0455V69.25H202.059V72.0455C202.059 72.4924 202.144 72.8598 202.314 73.1477C202.485 73.4356 202.716 73.6496 203.008 73.7898C203.299 73.9299 203.627 74 203.991 74C204.559 74 205.072 73.9489 205.53 73.8466C205.993 73.7405 206.457 73.6023 206.922 73.4318ZM210.446 76.0227L214.651 69.2727H216.196V78H214.855V71.25L210.674 78H209.105V69.2727H210.446V76.0227ZM216.665 70.5227V69.2727H223.756V70.5227H220.892V78H219.551V70.5227H216.665ZM228.118 78.1818C227.277 78.1818 226.551 77.9962 225.941 77.625C225.335 77.25 224.868 76.7273 224.538 76.0568C224.212 75.3826 224.049 74.5985 224.049 73.7045C224.049 72.8106 224.212 72.0227 224.538 71.3409C224.868 70.6553 225.326 70.1212 225.913 69.7386C226.504 69.3523 227.193 69.1591 227.981 69.1591C228.436 69.1591 228.885 69.2348 229.328 69.3864C229.771 69.5379 230.174 69.7841 230.538 70.125C230.902 70.4621 231.191 70.9091 231.407 71.4659C231.623 72.0227 231.731 72.7083 231.731 73.5227V74.0909H225.004V72.9318H230.368C230.368 72.4394 230.269 72 230.072 71.6136C229.879 71.2273 229.602 70.9223 229.243 70.6989C228.887 70.4754 228.466 70.3636 227.981 70.3636C227.447 70.3636 226.985 70.4962 226.595 70.7614C226.209 71.0227 225.911 71.3636 225.703 71.7841C225.495 72.2045 225.39 72.6553 225.39 73.1364V73.9091C225.39 74.5682 225.504 75.1269 225.731 75.5852C225.962 76.0398 226.282 76.3864 226.691 76.625C227.101 76.8598 227.576 76.9773 228.118 76.9773C228.47 76.9773 228.788 76.928 229.072 76.8295C229.36 76.7273 229.608 76.5758 229.816 76.375C230.025 76.1705 230.186 75.9167 230.299 75.6136L231.595 75.9773C231.459 76.4167 231.229 76.803 230.907 77.1364C230.585 77.4659 230.188 77.7235 229.714 77.9091C229.241 78.0909 228.709 78.1818 228.118 78.1818ZM19.2273 97V88.2727H22.7955C23.7348 88.2727 24.4811 88.4848 25.0341 88.9091C25.5871 89.3333 25.8636 89.8939 25.8636 90.5909C25.8636 91.1212 25.7064 91.5322 25.392 91.8239C25.0777 92.1117 24.6742 92.3068 24.1818 92.4091C24.5038 92.4545 24.8163 92.5682 25.1193 92.75C25.4261 92.9318 25.6799 93.1818 25.8807 93.5C26.0814 93.8144 26.1818 94.2008 26.1818 94.6591C26.1818 95.1061 26.0682 95.5057 25.8409 95.858C25.6136 96.2102 25.2879 96.4886 24.8636 96.6932C24.4394 96.8977 23.9318 97 23.3409 97H19.2273ZM20.5 95.7727H23.3409C23.803 95.7727 24.1648 95.6629 24.4261 95.4432C24.6875 95.2235 24.8182 94.9242 24.8182 94.5455C24.8182 94.0947 24.6875 93.7405 24.4261 93.483C24.1648 93.2216 23.803 93.0909 23.3409 93.0909H20.5V95.7727ZM20.5 91.9318H22.7955C23.1553 91.9318 23.464 91.8826 23.7216 91.7841C23.9792 91.6818 24.1761 91.5379 24.3125 91.3523C24.4527 91.1629 24.5227 90.9394 24.5227 90.6818C24.5227 90.3144 24.3693 90.0265 24.0625 89.8182C23.7557 89.6061 23.3333 89.5 22.7955 89.5H20.5V91.9318ZM30.9571 97.1818C30.1692 97.1818 29.4779 96.9943 28.8832 96.6193C28.2923 96.2443 27.8302 95.7197 27.4969 95.0455C27.1673 94.3712 27.0026 93.5833 27.0026 92.6818C27.0026 91.7727 27.1673 90.9792 27.4969 90.3011C27.8302 89.6231 28.2923 89.0966 28.8832 88.7216C29.4779 88.3466 30.1692 88.1591 30.9571 88.1591C31.745 88.1591 32.4344 88.3466 33.0253 88.7216C33.62 89.0966 34.0821 89.6231 34.4116 90.3011C34.745 90.9792 34.9116 91.7727 34.9116 92.6818C34.9116 93.5833 34.745 94.3712 34.4116 95.0455C34.0821 95.7197 33.62 96.2443 33.0253 96.6193C32.4344 96.9943 31.745 97.1818 30.9571 97.1818ZM30.9571 95.9773C31.5556 95.9773 32.048 95.8239 32.4344 95.517C32.8207 95.2102 33.1067 94.8068 33.2923 94.3068C33.4779 93.8068 33.5707 93.2652 33.5707 92.6818C33.5707 92.0985 33.4779 91.5549 33.2923 91.0511C33.1067 90.5473 32.8207 90.1402 32.4344 89.8295C32.048 89.5189 31.5556 89.3636 30.9571 89.3636C30.3586 89.3636 29.8662 89.5189 29.4798 89.8295C29.0935 90.1402 28.8075 90.5473 28.6219 91.0511C28.4363 91.5549 28.3435 92.0985 28.3435 92.6818C28.3435 93.2652 28.4363 93.8068 28.6219 94.3068C28.8075 94.8068 29.0935 95.2102 29.4798 95.517C29.8662 95.8239 30.3586 95.9773 30.9571 95.9773ZM35.6131 94.7727H37.0449C37.0752 95.1667 37.2532 95.4659 37.579 95.6705C37.9085 95.875 38.3366 95.9773 38.8631 95.9773C39.4009 95.9773 39.8612 95.8674 40.2437 95.6477C40.6263 95.4242 40.8176 95.0644 40.8176 94.5682C40.8176 94.2765 40.7456 94.0227 40.6017 93.8068C40.4578 93.5871 40.2551 93.4167 39.9937 93.2955C39.7324 93.1742 39.4237 93.1136 39.0676 93.1136H37.5676V91.9091H39.0676C39.6017 91.9091 39.9956 91.7879 40.2494 91.5455C40.507 91.303 40.6358 91 40.6358 90.6364C40.6358 90.2462 40.4975 89.9337 40.221 89.6989C39.9445 89.4602 39.5525 89.3409 39.0449 89.3409C38.5335 89.3409 38.1074 89.4564 37.7665 89.6875C37.4256 89.9148 37.2456 90.2083 37.2267 90.5682H35.8176C35.8328 90.0985 35.9767 89.6837 36.2494 89.3239C36.5222 88.9602 36.8934 88.6761 37.3631 88.4716C37.8328 88.2633 38.3706 88.1591 38.9767 88.1591C39.5903 88.1591 40.1225 88.267 40.5733 88.483C41.0278 88.6951 41.3782 88.9848 41.6244 89.3523C41.8744 89.7159 41.9994 90.1288 41.9994 90.5909C41.9994 91.0833 41.8612 91.4811 41.5847 91.7841C41.3081 92.0871 40.9616 92.303 40.5449 92.4318V92.5227C40.8744 92.5455 41.1604 92.6515 41.4028 92.8409C41.6491 93.0265 41.8403 93.2708 41.9767 93.5739C42.1131 93.8731 42.1812 94.2045 42.1812 94.5682C42.1812 95.0985 42.0392 95.5606 41.7551 95.9545C41.471 96.3447 41.0809 96.6477 40.5847 96.8636C40.0884 97.0758 39.5222 97.1818 38.8858 97.1818C38.2684 97.1818 37.7153 97.0814 37.2267 96.8807C36.7381 96.6761 36.3498 96.3939 36.0619 96.0341C35.7778 95.6705 35.6282 95.25 35.6131 94.7727ZM48.0375 95.1818L51.083 88.2727H52.3557L48.583 97H47.492L43.7875 88.2727H45.0375L48.0375 95.1818ZM44.6057 88.2727V97H43.2648V88.2727H44.6057ZM51.4693 97V88.2727H52.8102V97H51.4693ZM58.0102 97.1818C57.2223 97.1818 56.5311 96.9943 55.9364 96.6193C55.3455 96.2443 54.8833 95.7197 54.55 95.0455C54.2205 94.3712 54.0557 93.5833 54.0557 92.6818C54.0557 91.7727 54.2205 90.9792 54.55 90.3011C54.8833 89.6231 55.3455 89.0966 55.9364 88.7216C56.5311 88.3466 57.2223 88.1591 58.0102 88.1591C58.7981 88.1591 59.4875 88.3466 60.0784 88.7216C60.6731 89.0966 61.1352 89.6231 61.4648 90.3011C61.7981 90.9792 61.9648 91.7727 61.9648 92.6818C61.9648 93.5833 61.7981 94.3712 61.4648 95.0455C61.1352 95.7197 60.6731 96.2443 60.0784 96.6193C59.4875 96.9943 58.7981 97.1818 58.0102 97.1818ZM58.0102 95.9773C58.6087 95.9773 59.1011 95.8239 59.4875 95.517C59.8739 95.2102 60.1598 94.8068 60.3455 94.3068C60.5311 93.8068 60.6239 93.2652 60.6239 92.6818C60.6239 92.0985 60.5311 91.5549 60.3455 91.0511C60.1598 90.5473 59.8739 90.1402 59.4875 89.8295C59.1011 89.5189 58.6087 89.3636 58.0102 89.3636C57.4117 89.3636 56.9193 89.5189 56.533 89.8295C56.1466 90.1402 55.8606 90.5473 55.675 91.0511C55.4894 91.5549 55.3966 92.0985 55.3966 92.6818C55.3966 93.2652 55.4894 93.8068 55.675 94.3068C55.8606 94.8068 56.1466 95.2102 56.533 95.517C56.9193 95.8239 57.4117 95.9773 58.0102 95.9773ZM62.3068 97L65.8523 92.5682L62.3523 88.2727H63.9432L66.8523 92H67.5795V88.2727H68.9205V92H69.625L72.5341 88.2727H74.125L70.6477 92.5682L74.1705 97H72.5568L69.6023 93.25H68.9205V97H67.5795V93.25H66.8977L63.9205 97H62.3068ZM81.1276 92.0227V93.2727H76.3094V92.0227H81.1276ZM76.6276 88.2727V97H75.2866V88.2727H76.6276ZM82.1503 88.2727V97H80.8094V88.2727H82.1503ZM87.3446 97.1818C86.5567 97.1818 85.8654 96.9943 85.2707 96.6193C84.6798 96.2443 84.2177 95.7197 83.8844 95.0455C83.5548 94.3712 83.3901 93.5833 83.3901 92.6818C83.3901 91.7727 83.5548 90.9792 83.8844 90.3011C84.2177 89.6231 84.6798 89.0966 85.2707 88.7216C85.8654 88.3466 86.5567 88.1591 87.3446 88.1591C88.1325 88.1591 88.8219 88.3466 89.4128 88.7216C90.0075 89.0966 90.4696 89.6231 90.7991 90.3011C91.1325 90.9792 91.2991 91.7727 91.2991 92.6818C91.2991 93.5833 91.1325 94.3712 90.7991 95.0455C90.4696 95.7197 90.0075 96.2443 89.4128 96.6193C88.8219 96.9943 88.1325 97.1818 87.3446 97.1818ZM87.3446 95.9773C87.9431 95.9773 88.4355 95.8239 88.8219 95.517C89.2082 95.2102 89.4942 94.8068 89.6798 94.3068C89.8654 93.8068 89.9582 93.2652 89.9582 92.6818C89.9582 92.0985 89.8654 91.5549 89.6798 91.0511C89.4942 90.5473 89.2082 90.1402 88.8219 89.8295C88.4355 89.5189 87.9431 89.3636 87.3446 89.3636C86.7461 89.3636 86.2537 89.5189 85.8673 89.8295C85.481 90.1402 85.195 90.5473 85.0094 91.0511C84.8238 91.5549 84.731 92.0985 84.731 92.6818C84.731 93.2652 84.8238 93.8068 85.0094 94.3068C85.195 94.8068 85.481 95.2102 85.8673 95.517C86.2537 95.8239 86.7461 95.9773 87.3446 95.9773ZM96.0915 97.1818C95.2733 97.1818 94.5687 96.9886 93.9778 96.6023C93.3869 96.2159 92.9324 95.6837 92.6142 95.0057C92.296 94.3277 92.1369 93.553 92.1369 92.6818C92.1369 91.7955 92.2998 91.0133 92.6256 90.3352C92.9551 89.6534 93.4134 89.1212 94.0006 88.7386C94.5915 88.3523 95.2809 88.1591 96.0687 88.1591C96.6824 88.1591 97.2354 88.2727 97.7278 88.5C98.2203 88.7273 98.6237 89.0455 98.9381 89.4545C99.2525 89.8636 99.4475 90.3409 99.5233 90.8864H98.1824C98.0801 90.4886 97.8528 90.1364 97.5006 89.8295C97.1521 89.5189 96.6824 89.3636 96.0915 89.3636C95.5687 89.3636 95.1104 89.5 94.7165 89.7727C94.3263 90.0417 94.0214 90.4223 93.8017 90.9148C93.5858 91.4034 93.4778 91.9773 93.4778 92.6364C93.4778 93.3106 93.5839 93.8977 93.796 94.3977C94.0119 94.8977 94.315 95.286 94.7051 95.5625C95.0991 95.839 95.5612 95.9773 96.0915 95.9773C96.44 95.9773 96.7562 95.9167 97.0403 95.7955C97.3244 95.6742 97.565 95.5 97.7619 95.2727C97.9589 95.0455 98.0991 94.7727 98.1824 94.4545H99.5233C99.4475 94.9697 99.26 95.4337 98.9608 95.8466C98.6653 96.2557 98.2733 96.5814 97.7847 96.8239C97.2998 97.0625 96.7354 97.1818 96.0915 97.1818ZM99.996 89.5227V88.2727H107.087V89.5227H104.223V97H102.882V89.5227H99.996ZM109.402 91.4318H111.902C112.925 91.4318 113.707 91.6913 114.249 92.2102C114.79 92.7292 115.061 93.3864 115.061 94.1818C115.061 94.7045 114.94 95.1799 114.697 95.608C114.455 96.0322 114.099 96.3712 113.629 96.625C113.16 96.875 112.584 97 111.902 97H108.243V88.2727H109.584V95.75H111.902C112.432 95.75 112.868 95.6098 113.209 95.3295C113.55 95.0492 113.72 94.6894 113.72 94.25C113.72 93.7879 113.55 93.411 113.209 93.1193C112.868 92.8277 112.432 92.6818 111.902 92.6818H109.402V91.4318ZM123.548 97.1818C122.73 97.1818 122.025 96.9886 121.434 96.6023C120.843 96.2159 120.389 95.6837 120.07 95.0057C119.752 94.3277 119.593 93.553 119.593 92.6818C119.593 91.7955 119.756 91.0133 120.082 90.3352C120.411 89.6534 120.87 89.1212 121.457 88.7386C122.048 88.3523 122.737 88.1591 123.525 88.1591C124.139 88.1591 124.692 88.2727 125.184 88.5C125.677 88.7273 126.08 89.0455 126.394 89.4545C126.709 89.8636 126.904 90.3409 126.98 90.8864H125.639C125.536 90.4886 125.309 90.1364 124.957 89.8295C124.608 89.5189 124.139 89.3636 123.548 89.3636C123.025 89.3636 122.567 89.5 122.173 89.7727C121.783 90.0417 121.478 90.4223 121.258 90.9148C121.042 91.4034 120.934 91.9773 120.934 92.6364C120.934 93.3106 121.04 93.8977 121.252 94.3977C121.468 94.8977 121.771 95.286 122.161 95.5625C122.555 95.839 123.017 95.9773 123.548 95.9773C123.896 95.9773 124.213 95.9167 124.497 95.7955C124.781 95.6742 125.021 95.5 125.218 95.2727C125.415 95.0455 125.555 94.7727 125.639 94.4545H126.98C126.904 94.9697 126.716 95.4337 126.417 95.8466C126.122 96.2557 125.73 96.5814 125.241 96.8239C124.756 97.0625 124.192 97.1818 123.548 97.1818ZM127.452 89.5227V88.2727H134.543V89.5227H131.68V97H130.339V89.5227H127.452ZM137.814 97.2045C137.261 97.2045 136.759 97.1004 136.309 96.892C135.858 96.6799 135.5 96.375 135.235 95.9773C134.97 95.5758 134.837 95.0909 134.837 94.5227C134.837 94.0227 134.935 93.6174 135.132 93.3068C135.329 92.9924 135.593 92.7462 135.922 92.5682C136.252 92.3902 136.615 92.2576 137.013 92.1705C137.415 92.0795 137.818 92.0076 138.223 91.9545C138.754 91.8864 139.184 91.8352 139.513 91.8011C139.846 91.7633 140.089 91.7008 140.24 91.6136C140.396 91.5265 140.473 91.375 140.473 91.1591V91.1136C140.473 90.553 140.32 90.1174 140.013 89.8068C139.71 89.4962 139.25 89.3409 138.632 89.3409C137.992 89.3409 137.49 89.4811 137.127 89.7614C136.763 90.0417 136.507 90.3409 136.36 90.6591L135.087 90.2045C135.314 89.6742 135.617 89.2614 135.996 88.9659C136.379 88.6667 136.795 88.4583 137.246 88.3409C137.701 88.2197 138.148 88.1591 138.587 88.1591C138.867 88.1591 139.189 88.1932 139.553 88.2614C139.92 88.3258 140.274 88.4602 140.615 88.6648C140.96 88.8693 141.246 89.178 141.473 89.5909C141.701 90.0038 141.814 90.5568 141.814 91.25V97H140.473V95.8182H140.405C140.314 96.0076 140.163 96.2102 139.951 96.4261C139.738 96.642 139.456 96.8258 139.104 96.9773C138.752 97.1288 138.322 97.2045 137.814 97.2045ZM138.019 96C138.549 96 138.996 95.8958 139.36 95.6875C139.727 95.4792 140.004 95.2102 140.189 94.8807C140.379 94.5511 140.473 94.2045 140.473 93.8409V92.6136C140.416 92.6818 140.291 92.7443 140.098 92.8011C139.909 92.8542 139.689 92.9015 139.439 92.9432C139.193 92.9811 138.952 93.0152 138.718 93.0455C138.487 93.072 138.299 93.0947 138.155 93.1136C137.807 93.1591 137.481 93.233 137.178 93.3352C136.879 93.4337 136.636 93.5833 136.451 93.7841C136.269 93.9811 136.178 94.25 136.178 94.5909C136.178 95.0568 136.35 95.4091 136.695 95.6477C137.043 95.8826 137.485 96 138.019 96ZM142.274 89.5227V88.2727H149.365V89.5227H146.501V97H145.161V89.5227H142.274ZM151.68 91.4318H154.18C155.203 91.4318 155.985 91.6913 156.527 92.2102C157.068 92.7292 157.339 93.3864 157.339 94.1818C157.339 94.7045 157.218 95.1799 156.976 95.608C156.733 96.0322 156.377 96.3712 155.907 96.625C155.438 96.875 154.862 97 154.18 97H150.521V88.2727H151.862V95.75H154.18C154.71 95.75 155.146 95.6098 155.487 95.3295C155.828 95.0492 155.998 94.6894 155.998 94.25C155.998 93.7879 155.828 93.411 155.487 93.1193C155.146 92.8277 154.71 92.6818 154.18 92.6818H151.68V91.4318ZM169.008 88.2727V97H167.667V88.2727H169.008ZM168.485 92.4318V93.6818C168.182 93.7955 167.881 93.8958 167.582 93.983C167.282 94.0663 166.968 94.1326 166.638 94.1818C166.309 94.2273 165.947 94.25 165.553 94.25C164.564 94.25 163.771 93.983 163.172 93.4489C162.578 92.9148 162.28 92.1136 162.28 91.0455V88.25H163.621V91.0455C163.621 91.4924 163.707 91.8598 163.877 92.1477C164.047 92.4356 164.279 92.6496 164.57 92.7898C164.862 92.9299 165.189 93 165.553 93C166.121 93 166.635 92.9489 167.093 92.8466C167.555 92.7405 168.019 92.6023 168.485 92.4318ZM173.236 97.2045C172.683 97.2045 172.181 97.1004 171.73 96.892C171.28 96.6799 170.922 96.375 170.657 95.9773C170.391 95.5758 170.259 95.0909 170.259 94.5227C170.259 94.0227 170.357 93.6174 170.554 93.3068C170.751 92.9924 171.014 92.7462 171.344 92.5682C171.674 92.3902 172.037 92.2576 172.435 92.1705C172.836 92.0795 173.24 92.0076 173.645 91.9545C174.175 91.8864 174.605 91.8352 174.935 91.8011C175.268 91.7633 175.511 91.7008 175.662 91.6136C175.818 91.5265 175.895 91.375 175.895 91.1591V91.1136C175.895 90.553 175.742 90.1174 175.435 89.8068C175.132 89.4962 174.672 89.3409 174.054 89.3409C173.414 89.3409 172.912 89.4811 172.549 89.7614C172.185 90.0417 171.929 90.3409 171.782 90.6591L170.509 90.2045C170.736 89.6742 171.039 89.2614 171.418 88.9659C171.8 88.6667 172.217 88.4583 172.668 88.3409C173.122 88.2197 173.569 88.1591 174.009 88.1591C174.289 88.1591 174.611 88.1932 174.975 88.2614C175.342 88.3258 175.696 88.4602 176.037 88.6648C176.382 88.8693 176.668 89.178 176.895 89.5909C177.122 90.0038 177.236 90.5568 177.236 91.25V97H175.895V95.8182H175.827C175.736 96.0076 175.585 96.2102 175.372 96.4261C175.16 96.642 174.878 96.8258 174.526 96.9773C174.174 97.1288 173.744 97.2045 173.236 97.2045ZM173.441 96C173.971 96 174.418 95.8958 174.782 95.6875C175.149 95.4792 175.425 95.2102 175.611 94.8807C175.8 94.5511 175.895 94.2045 175.895 93.8409V92.6136C175.838 92.6818 175.713 92.7443 175.52 92.8011C175.331 92.8542 175.111 92.9015 174.861 92.9432C174.615 92.9811 174.374 93.0152 174.139 93.0455C173.908 93.072 173.721 93.0947 173.577 93.1136C173.229 93.1591 172.903 93.233 172.6 93.3352C172.3 93.4337 172.058 93.5833 171.872 93.7841C171.691 93.9811 171.6 94.25 171.6 94.5909C171.6 95.0568 171.772 95.4091 172.117 95.6477C172.465 95.8826 172.907 96 173.441 96ZM182.429 97.1818C181.611 97.1818 180.906 96.9886 180.315 96.6023C179.724 96.2159 179.27 95.6837 178.952 95.0057C178.634 94.3277 178.474 93.553 178.474 92.6818C178.474 91.7955 178.637 91.0133 178.963 90.3352C179.293 89.6534 179.751 89.1212 180.338 88.7386C180.929 88.3523 181.618 88.1591 182.406 88.1591C183.02 88.1591 183.573 88.2727 184.065 88.5C184.558 88.7273 184.961 89.0455 185.276 89.4545C185.59 89.8636 185.785 90.3409 185.861 90.8864H184.52C184.418 90.4886 184.19 90.1364 183.838 89.8295C183.49 89.5189 183.02 89.3636 182.429 89.3636C181.906 89.3636 181.448 89.5 181.054 89.7727C180.664 90.0417 180.359 90.4223 180.139 90.9148C179.923 91.4034 179.815 91.9773 179.815 92.6364C179.815 93.3106 179.921 93.8977 180.134 94.3977C180.349 94.8977 180.652 95.286 181.043 95.5625C181.437 95.839 181.899 95.9773 182.429 95.9773C182.777 95.9773 183.094 95.9167 183.378 95.7955C183.662 95.6742 183.902 95.5 184.099 95.2727C184.296 95.0455 184.437 94.7727 184.52 94.4545H185.861C185.785 94.9697 185.598 95.4337 185.298 95.8466C185.003 96.2557 184.611 96.5814 184.122 96.8239C183.637 97.0625 183.073 97.1818 182.429 97.1818ZM186.334 89.5227V88.2727H193.424V89.5227H190.561V97H189.22V89.5227H186.334ZM195.739 91.4318H198.239C199.262 91.4318 200.044 91.6913 200.586 92.2102C201.128 92.7292 201.399 93.3864 201.399 94.1818C201.399 94.7045 201.277 95.1799 201.035 95.608C200.793 96.0322 200.436 96.3712 199.967 96.625C199.497 96.875 198.921 97 198.239 97H194.58V88.2727H195.921V95.75H198.239C198.77 95.75 199.205 95.6098 199.546 95.3295C199.887 95.0492 200.058 94.6894 200.058 94.25C200.058 93.7879 199.887 93.411 199.546 93.1193C199.205 92.8277 198.77 92.6818 198.239 92.6818H195.739V91.4318ZM206.822 92.0909V93.3409H202.208V92.0909H206.822ZM203.344 88.2727V97H202.003V88.2727H203.344ZM209.503 97.1818C208.716 97.1818 208.024 96.9943 207.43 96.6193C206.839 96.2443 206.377 95.7197 206.043 95.0455C205.714 94.3712 205.549 93.5833 205.549 92.6818C205.549 91.7727 205.714 90.9792 206.043 90.3011C206.377 89.6231 206.839 89.0966 207.43 88.7216C208.024 88.3466 208.716 88.1591 209.503 88.1591C210.291 88.1591 210.981 88.3466 211.572 88.7216C212.166 89.0966 212.628 89.6231 212.958 90.3011C213.291 90.9792 213.458 91.7727 213.458 92.6818C213.458 93.5833 213.291 94.3712 212.958 95.0455C212.628 95.7197 212.166 96.2443 211.572 96.6193C210.981 96.9943 210.291 97.1818 209.503 97.1818ZM209.503 95.9773C210.102 95.9773 210.594 95.8239 210.981 95.517C211.367 95.2102 211.653 94.8068 211.839 94.3068C212.024 93.8068 212.117 93.2652 212.117 92.6818C212.117 92.0985 212.024 91.5549 211.839 91.0511C211.653 90.5473 211.367 90.1402 210.981 89.8295C210.594 89.5189 210.102 89.3636 209.503 89.3636C208.905 89.3636 208.413 89.5189 208.026 89.8295C207.64 90.1402 207.354 90.5473 207.168 91.0511C206.983 91.5549 206.89 92.0985 206.89 92.6818C206.89 93.2652 206.983 93.8068 207.168 94.3068C207.354 94.8068 207.64 95.2102 208.026 95.517C208.413 95.8239 208.905 95.9773 209.503 95.9773ZM19.0227 116V114.977L25.2955 105.614H18.9545V104.364H26.9773V105.386L20.7045 114.75H27.0455V116H19.0227ZM32.0864 116.182C31.2455 116.182 30.5201 115.996 29.9102 115.625C29.3042 115.25 28.8364 114.727 28.5068 114.057C28.1811 113.383 28.0182 112.598 28.0182 111.705C28.0182 110.811 28.1811 110.023 28.5068 109.341C28.8364 108.655 29.2947 108.121 29.8818 107.739C30.4727 107.352 31.1621 107.159 31.95 107.159C32.4045 107.159 32.8534 107.235 33.2966 107.386C33.7398 107.538 34.1432 107.784 34.5068 108.125C34.8705 108.462 35.1602 108.909 35.3761 109.466C35.592 110.023 35.7 110.708 35.7 111.523V112.091H28.9727V110.932H34.3364C34.3364 110.439 34.2379 110 34.0409 109.614C33.8477 109.227 33.5712 108.922 33.2114 108.699C32.8553 108.475 32.4348 108.364 31.95 108.364C31.4159 108.364 30.9538 108.496 30.5636 108.761C30.1773 109.023 29.8799 109.364 29.6716 109.784C29.4633 110.205 29.3591 110.655 29.3591 111.136V111.909C29.3591 112.568 29.4727 113.127 29.7 113.585C29.9311 114.04 30.2511 114.386 30.6602 114.625C31.0693 114.86 31.5447 114.977 32.0864 114.977C32.4386 114.977 32.7568 114.928 33.0409 114.83C33.3288 114.727 33.5769 114.576 33.7852 114.375C33.9936 114.17 34.1545 113.917 34.2682 113.614L35.5636 113.977C35.4273 114.417 35.1981 114.803 34.8761 115.136C34.5542 115.466 34.1564 115.723 33.683 115.909C33.2095 116.091 32.6773 116.182 32.0864 116.182ZM36.9398 116V107.273H38.2352V108.591H38.3261C38.4852 108.159 38.7731 107.809 39.1898 107.54C39.6064 107.271 40.0761 107.136 40.5989 107.136C40.6973 107.136 40.8205 107.138 40.9682 107.142C41.1159 107.146 41.2277 107.152 41.3034 107.159V108.523C41.258 108.511 41.1538 108.494 40.9909 108.472C40.8318 108.445 40.6633 108.432 40.4852 108.432C40.061 108.432 39.6822 108.521 39.3489 108.699C39.0193 108.873 38.758 109.116 38.5648 109.426C38.3754 109.733 38.2807 110.083 38.2807 110.477V116H36.9398ZM43.4338 110.75V116H42.0929V107.273H43.3884V108.636H43.502C43.7065 108.193 44.0171 107.837 44.4338 107.568C44.8505 107.295 45.3884 107.159 46.0474 107.159C46.6384 107.159 47.1554 107.28 47.5986 107.523C48.0418 107.761 48.3865 108.125 48.6327 108.614C48.8789 109.098 49.002 109.712 49.002 110.455V116H47.6611V110.545C47.6611 109.86 47.4831 109.326 47.127 108.943C46.7709 108.557 46.2823 108.364 45.6611 108.364C45.233 108.364 44.8505 108.456 44.5134 108.642C44.18 108.828 43.9168 109.098 43.7236 109.455C43.5304 109.811 43.4338 110.242 43.4338 110.75ZM54.1977 116.182C53.4098 116.182 52.7186 115.994 52.1239 115.619C51.533 115.244 51.0708 114.72 50.7375 114.045C50.408 113.371 50.2432 112.583 50.2432 111.682C50.2432 110.773 50.408 109.979 50.7375 109.301C51.0708 108.623 51.533 108.097 52.1239 107.722C52.7186 107.347 53.4098 107.159 54.1977 107.159C54.9856 107.159 55.675 107.347 56.2659 107.722C56.8606 108.097 57.3227 108.623 57.6523 109.301C57.9856 109.979 58.1523 110.773 58.1523 111.682C58.1523 112.583 57.9856 113.371 57.6523 114.045C57.3227 114.72 56.8606 115.244 56.2659 115.619C55.675 115.994 54.9856 116.182 54.1977 116.182ZM54.1977 114.977C54.7962 114.977 55.2886 114.824 55.675 114.517C56.0614 114.21 56.3473 113.807 56.533 113.307C56.7186 112.807 56.8114 112.265 56.8114 111.682C56.8114 111.098 56.7186 110.555 56.533 110.051C56.3473 109.547 56.0614 109.14 55.675 108.83C55.2886 108.519 54.7962 108.364 54.1977 108.364C53.5992 108.364 53.1068 108.519 52.7205 108.83C52.3341 109.14 52.0481 109.547 51.8625 110.051C51.6769 110.555 51.5841 111.098 51.5841 111.682C51.5841 112.265 51.6769 112.807 51.8625 113.307C52.0481 113.807 52.3341 114.21 52.7205 114.517C53.1068 114.824 53.5992 114.977 54.1977 114.977ZM62.6946 116.159C61.9295 116.159 61.2704 116.019 60.7173 115.739C60.1643 115.458 59.7382 115.074 59.4389 114.585C59.1397 114.097 58.9901 113.538 58.9901 112.909C58.9901 112.424 59.0923 111.994 59.2969 111.619C59.5052 111.241 59.7912 110.89 60.1548 110.568C60.5223 110.242 60.9446 109.917 61.4219 109.591L63.1037 108.341C63.4332 108.125 63.6965 107.894 63.8935 107.648C64.0942 107.402 64.1946 107.08 64.1946 106.682C64.1946 106.386 64.0639 106.1 63.8026 105.824C63.545 105.547 63.206 105.409 62.7855 105.409C62.4901 105.409 62.2287 105.485 62.0014 105.636C61.7779 105.784 61.6018 105.973 61.473 106.205C61.348 106.432 61.2855 106.667 61.2855 106.909C61.2855 107.182 61.3594 107.458 61.5071 107.739C61.6586 108.015 61.8499 108.299 62.081 108.591C62.3158 108.879 62.5582 109.174 62.8082 109.477L68.1491 116H66.5355L62.1264 110.682C61.7173 110.189 61.3461 109.742 61.0128 109.341C60.6795 108.939 60.4143 108.544 60.2173 108.153C60.0204 107.763 59.9219 107.341 59.9219 106.886C59.9219 106.364 60.0374 105.905 60.2685 105.511C60.5033 105.114 60.831 104.805 61.2514 104.585C61.6757 104.362 62.1719 104.25 62.7401 104.25C63.3234 104.25 63.8253 104.364 64.2457 104.591C64.6662 104.814 64.9901 105.112 65.2173 105.483C65.4446 105.85 65.5582 106.25 65.5582 106.682C65.5582 107.239 65.42 107.722 65.1435 108.131C64.867 108.54 64.4901 108.92 64.0128 109.273L61.6946 111C61.1719 111.386 60.8177 111.761 60.6321 112.125C60.4465 112.489 60.3537 112.75 60.3537 112.909C60.3537 113.273 60.4484 113.612 60.6378 113.926C60.8272 114.241 61.0942 114.494 61.4389 114.688C61.7836 114.881 62.187 114.977 62.6491 114.977C63.0885 114.977 63.5166 114.884 63.9332 114.699C64.3499 114.509 64.7268 114.237 65.0639 113.881C65.4048 113.525 65.6738 113.097 65.8707 112.597C66.0715 112.097 66.1719 111.534 66.1719 110.909H67.4673C67.4673 111.682 67.3783 112.312 67.2003 112.801C67.0223 113.29 66.8215 113.672 66.598 113.949C66.3745 114.225 66.1946 114.432 66.0582 114.568C66.0128 114.625 65.9711 114.682 65.9332 114.739C65.8954 114.795 65.8537 114.852 65.8082 114.909C65.4332 115.33 64.9598 115.644 64.3878 115.852C63.8158 116.057 63.2514 116.159 62.6946 116.159ZM69.0153 116V104.364H76.0381V105.614H70.4244V109.545H75.6744V110.795H70.4244V114.75H76.129V116H69.0153ZM78.596 107.273L80.6869 110.841L82.7778 107.273H84.3233L81.5051 111.636L84.3233 116H82.7778L80.6869 112.614L78.596 116H77.0506L79.8233 111.636L77.0506 107.273H78.596ZM88.6227 116.182C87.8045 116.182 87.1 115.989 86.5091 115.602C85.9182 115.216 85.4636 114.684 85.1455 114.006C84.8273 113.328 84.6682 112.553 84.6682 111.682C84.6682 110.795 84.8311 110.013 85.1568 109.335C85.4864 108.653 85.9447 108.121 86.5318 107.739C87.1227 107.352 87.8121 107.159 88.6 107.159C89.2136 107.159 89.7667 107.273 90.2591 107.5C90.7515 107.727 91.1549 108.045 91.4693 108.455C91.7837 108.864 91.9788 109.341 92.0545 109.886H90.7136C90.6114 109.489 90.3841 109.136 90.0318 108.83C89.6833 108.519 89.2136 108.364 88.6227 108.364C88.1 108.364 87.6417 108.5 87.2477 108.773C86.8576 109.042 86.5526 109.422 86.333 109.915C86.117 110.403 86.0091 110.977 86.0091 111.636C86.0091 112.311 86.1152 112.898 86.3273 113.398C86.5432 113.898 86.8462 114.286 87.2364 114.562C87.6303 114.839 88.0924 114.977 88.6227 114.977C88.9712 114.977 89.2875 114.917 89.5716 114.795C89.8557 114.674 90.0962 114.5 90.2932 114.273C90.4902 114.045 90.6303 113.773 90.7136 113.455H92.0545C91.9788 113.97 91.7913 114.434 91.492 114.847C91.1966 115.256 90.8045 115.581 90.3159 115.824C89.8311 116.062 89.2667 116.182 88.6227 116.182ZM94.5557 110.75V116H93.2148V104.364H94.5557V108.636H94.6693C94.8739 108.186 95.1807 107.828 95.5898 107.562C96.0027 107.294 96.5519 107.159 97.2375 107.159C97.8322 107.159 98.353 107.278 98.8 107.517C99.247 107.752 99.5936 108.114 99.8398 108.602C100.09 109.087 100.215 109.705 100.215 110.455V116H98.8739V110.545C98.8739 109.852 98.6939 109.316 98.3341 108.938C97.978 108.555 97.4837 108.364 96.8511 108.364C96.4117 108.364 96.0178 108.456 95.6693 108.642C95.3246 108.828 95.0519 109.098 94.8511 109.455C94.6542 109.811 94.5557 110.242 94.5557 110.75ZM104.436 116.205C103.883 116.205 103.381 116.1 102.93 115.892C102.48 115.68 102.122 115.375 101.857 114.977C101.591 114.576 101.459 114.091 101.459 113.523C101.459 113.023 101.557 112.617 101.754 112.307C101.951 111.992 102.214 111.746 102.544 111.568C102.874 111.39 103.237 111.258 103.635 111.17C104.036 111.08 104.44 111.008 104.845 110.955C105.375 110.886 105.805 110.835 106.135 110.801C106.468 110.763 106.711 110.701 106.862 110.614C107.018 110.527 107.095 110.375 107.095 110.159V110.114C107.095 109.553 106.942 109.117 106.635 108.807C106.332 108.496 105.872 108.341 105.254 108.341C104.614 108.341 104.112 108.481 103.749 108.761C103.385 109.042 103.129 109.341 102.982 109.659L101.709 109.205C101.936 108.674 102.239 108.261 102.618 107.966C103 107.667 103.417 107.458 103.868 107.341C104.322 107.22 104.769 107.159 105.209 107.159C105.489 107.159 105.811 107.193 106.175 107.261C106.542 107.326 106.896 107.46 107.237 107.665C107.582 107.869 107.868 108.178 108.095 108.591C108.322 109.004 108.436 109.557 108.436 110.25V116H107.095V114.818H107.027C106.936 115.008 106.785 115.21 106.572 115.426C106.36 115.642 106.078 115.826 105.726 115.977C105.374 116.129 104.944 116.205 104.436 116.205ZM104.641 115C105.171 115 105.618 114.896 105.982 114.688C106.349 114.479 106.625 114.21 106.811 113.881C107 113.551 107.095 113.205 107.095 112.841V111.614C107.038 111.682 106.913 111.744 106.72 111.801C106.531 111.854 106.311 111.902 106.061 111.943C105.815 111.981 105.574 112.015 105.339 112.045C105.108 112.072 104.921 112.095 104.777 112.114C104.429 112.159 104.103 112.233 103.8 112.335C103.5 112.434 103.258 112.583 103.072 112.784C102.891 112.981 102.8 113.25 102.8 113.591C102.8 114.057 102.972 114.409 103.317 114.648C103.665 114.883 104.107 115 104.641 115ZM111.424 110.75V116H110.084V107.273H111.379V108.636H111.493C111.697 108.193 112.008 107.837 112.424 107.568C112.841 107.295 113.379 107.159 114.038 107.159C114.629 107.159 115.146 107.28 115.589 107.523C116.032 107.761 116.377 108.125 116.623 108.614C116.87 109.098 116.993 109.712 116.993 110.455V116H115.652V110.545C115.652 109.86 115.474 109.326 115.118 108.943C114.762 108.557 114.273 108.364 113.652 108.364C113.224 108.364 112.841 108.456 112.504 108.642C112.171 108.828 111.907 109.098 111.714 109.455C111.521 109.811 111.424 110.242 111.424 110.75ZM122.166 119.455C121.518 119.455 120.961 119.371 120.495 119.205C120.029 119.042 119.641 118.826 119.33 118.557C119.024 118.292 118.779 118.008 118.597 117.705L119.666 116.955C119.787 117.114 119.94 117.295 120.126 117.5C120.311 117.708 120.565 117.888 120.887 118.04C121.213 118.195 121.639 118.273 122.166 118.273C122.87 118.273 123.452 118.102 123.91 117.761C124.368 117.42 124.597 116.886 124.597 116.159V114.386H124.484C124.385 114.545 124.245 114.742 124.063 114.977C123.885 115.208 123.628 115.415 123.291 115.597C122.957 115.775 122.507 115.864 121.938 115.864C121.234 115.864 120.601 115.697 120.041 115.364C119.484 115.03 119.043 114.545 118.717 113.909C118.395 113.273 118.234 112.5 118.234 111.591C118.234 110.697 118.391 109.919 118.705 109.256C119.02 108.589 119.457 108.074 120.018 107.71C120.579 107.343 121.226 107.159 121.961 107.159C122.529 107.159 122.98 107.254 123.313 107.443C123.65 107.629 123.908 107.841 124.086 108.08C124.268 108.314 124.408 108.508 124.507 108.659H124.643V107.273H125.938V116.25C125.938 117 125.768 117.61 125.427 118.08C125.09 118.553 124.635 118.9 124.063 119.119C123.495 119.343 122.863 119.455 122.166 119.455ZM122.12 114.659C122.658 114.659 123.113 114.536 123.484 114.29C123.855 114.044 124.137 113.689 124.33 113.227C124.524 112.765 124.62 112.212 124.62 111.568C124.62 110.939 124.525 110.384 124.336 109.903C124.147 109.422 123.866 109.045 123.495 108.773C123.124 108.5 122.666 108.364 122.12 108.364C121.552 108.364 121.079 108.508 120.7 108.795C120.325 109.083 120.043 109.47 119.853 109.955C119.668 110.439 119.575 110.977 119.575 111.568C119.575 112.174 119.669 112.71 119.859 113.176C120.052 113.638 120.336 114.002 120.711 114.267C121.09 114.528 121.56 114.659 122.12 114.659ZM131.252 116.182C130.411 116.182 129.686 115.996 129.076 115.625C128.47 115.25 128.002 114.727 127.672 114.057C127.347 113.383 127.184 112.598 127.184 111.705C127.184 110.811 127.347 110.023 127.672 109.341C128.002 108.655 128.46 108.121 129.047 107.739C129.638 107.352 130.328 107.159 131.116 107.159C131.57 107.159 132.019 107.235 132.462 107.386C132.905 107.538 133.309 107.784 133.672 108.125C134.036 108.462 134.326 108.909 134.542 109.466C134.758 110.023 134.866 110.708 134.866 111.523V112.091H128.138V110.932H133.502C133.502 110.439 133.404 110 133.207 109.614C133.013 109.227 132.737 108.922 132.377 108.699C132.021 108.475 131.6 108.364 131.116 108.364C130.582 108.364 130.119 108.496 129.729 108.761C129.343 109.023 129.046 109.364 128.837 109.784C128.629 110.205 128.525 110.655 128.525 111.136V111.909C128.525 112.568 128.638 113.127 128.866 113.585C129.097 114.04 129.417 114.386 129.826 114.625C130.235 114.86 130.71 114.977 131.252 114.977C131.604 114.977 131.922 114.928 132.207 114.83C132.494 114.727 132.743 114.576 132.951 114.375C133.159 114.17 133.32 113.917 133.434 113.614L134.729 113.977C134.593 114.417 134.364 114.803 134.042 115.136C133.72 115.466 133.322 115.723 132.849 115.909C132.375 116.091 131.843 116.182 131.252 116.182Z" fill="white"/>
<path d="M18.5966 45.2188V38.767H19.7472C20.1392 38.4375 20.5057 37.9687 20.8466 37.3608C21.1875 36.7528 21.4773 35.9318 21.7159 34.8977C21.9545 33.8636 22.1193 32.5369 22.2102 30.9176L22.6193 23.5455H33.3835V38.767H35.3608V45.1932H32.8381V41H21.1193V45.2188H18.5966ZM22.8494 38.767H30.8608V25.8125H25.0057L24.733 30.9176C24.6591 32.1506 24.5369 33.2585 24.3665 34.2415C24.2017 35.2244 23.9886 36.0937 23.7273 36.8494C23.4716 37.5994 23.179 38.2386 22.8494 38.767ZM37.0099 41L37.0014 38.7926H37.4702C37.8338 38.7926 38.1378 38.7159 38.3821 38.5625C38.6321 38.4034 38.8366 38.1364 38.9957 37.7614C39.1548 37.3864 39.277 36.8693 39.3622 36.2102C39.4474 35.5455 39.5099 34.7102 39.5497 33.7045L39.7798 27.9091H48.9162V41H46.419V30.108H42.1406L41.9361 34.5568C41.8849 35.6364 41.7741 36.5795 41.6037 37.3864C41.4389 38.1932 41.1974 38.8665 40.8793 39.4062C40.5611 39.9403 40.152 40.3409 39.652 40.608C39.152 40.8693 38.544 41 37.8281 41H37.0099ZM60.1214 41V30.0824H56.9851C56.2408 30.0824 55.6612 30.2557 55.2464 30.6023C54.8317 30.9489 54.6243 31.4034 54.6243 31.9659C54.6243 32.5227 54.8146 32.9716 55.1953 33.3125C55.5817 33.6477 56.1214 33.8153 56.8146 33.8153H60.8629V35.8778H56.8146C55.8487 35.8778 55.0135 35.7187 54.3089 35.4006C53.6101 35.0767 53.0703 34.6193 52.6896 34.0284C52.3146 33.4375 52.1271 32.7386 52.1271 31.9318C52.1271 31.108 52.3203 30.3977 52.7067 29.8011C53.0987 29.1989 53.6584 28.733 54.3857 28.4034C55.1186 28.0739 55.9851 27.9091 56.9851 27.9091H62.5163V41H60.1214ZM51.5305 41L55.2209 34.3864H57.8288L54.1385 41H51.5305ZM72.2599 41V27.9091H82.9389V41H80.4418V30.108H74.7401V41H72.2599ZM90.1555 41.2898C89.326 41.2898 88.576 41.1364 87.9055 40.8295C87.2351 40.517 86.7038 40.0653 86.3118 39.4744C85.9254 38.8835 85.7322 38.1591 85.7322 37.3011C85.7322 36.5625 85.8743 35.9545 86.1584 35.4773C86.4425 35 86.826 34.6222 87.3089 34.3438C87.7919 34.0653 88.3317 33.8551 88.9283 33.7131C89.5249 33.571 90.1328 33.4631 90.7521 33.3892C91.5362 33.2983 92.1726 33.2244 92.6612 33.1676C93.1499 33.1051 93.505 33.0057 93.7266 32.8693C93.9482 32.733 94.0589 32.5114 94.0589 32.2045V32.1449C94.0589 31.4006 93.8487 30.8239 93.4283 30.4148C93.0135 30.0057 92.3942 29.8011 91.5703 29.8011C90.7124 29.8011 90.0362 29.9915 89.5419 30.3722C89.0533 30.7472 88.7152 31.1648 88.5277 31.625L86.1328 31.0795C86.4169 30.2841 86.8317 29.642 87.3771 29.1534C87.9283 28.6591 88.5618 28.3011 89.2777 28.0795C89.9936 27.8523 90.7464 27.7386 91.5362 27.7386C92.0589 27.7386 92.6129 27.8011 93.1982 27.9261C93.7891 28.0455 94.3402 28.267 94.8516 28.5909C95.3686 28.9148 95.7919 29.3778 96.1214 29.9801C96.451 30.5767 96.6158 31.3523 96.6158 32.3068V41H94.1271V39.2102H94.0249C93.8601 39.5398 93.6129 39.8636 93.2834 40.1818C92.9538 40.5 92.5305 40.7642 92.0135 40.9744C91.4964 41.1847 90.8771 41.2898 90.1555 41.2898ZM90.7095 39.2443C91.4141 39.2443 92.0163 39.1051 92.5163 38.8267C93.022 38.5483 93.4055 38.1847 93.6669 37.7358C93.9339 37.2812 94.0675 36.7955 94.0675 36.2784V34.5909C93.9766 34.6818 93.8004 34.767 93.5391 34.8466C93.2834 34.9205 92.9908 34.9858 92.6612 35.0426C92.3317 35.0937 92.0107 35.142 91.6982 35.1875C91.3857 35.2273 91.1243 35.2614 90.9141 35.2898C90.4197 35.3523 89.968 35.4574 89.5589 35.6051C89.1555 35.7528 88.8317 35.9659 88.5874 36.2443C88.3487 36.517 88.2294 36.8807 88.2294 37.3352C88.2294 37.9659 88.4624 38.4432 88.9283 38.767C89.3942 39.0852 89.9879 39.2443 90.7095 39.2443ZM100.01 45.9091V27.9091H102.499V30.0312H102.712C102.859 29.7585 103.072 29.4432 103.351 29.0852C103.629 28.7273 104.016 28.4148 104.51 28.1477C105.004 27.875 105.658 27.7386 106.47 27.7386C107.527 27.7386 108.47 28.0057 109.3 28.5398C110.129 29.0739 110.78 29.8437 111.251 30.8494C111.729 31.8551 111.967 33.0653 111.967 34.4801C111.967 35.8949 111.732 37.108 111.26 38.1193C110.788 39.125 110.141 39.9006 109.317 40.446C108.493 40.9858 107.553 41.2557 106.496 41.2557C105.7 41.2557 105.05 41.1222 104.544 40.8551C104.044 40.5881 103.652 40.2756 103.368 39.9176C103.084 39.5597 102.865 39.2415 102.712 38.9631H102.558V45.9091H100.01ZM102.507 34.4545C102.507 35.375 102.641 36.1818 102.908 36.875C103.175 37.5682 103.561 38.1108 104.067 38.5028C104.572 38.8892 105.192 39.0824 105.925 39.0824C106.686 39.0824 107.322 38.8807 107.834 38.4773C108.345 38.0682 108.732 37.5142 108.993 36.8153C109.26 36.1165 109.393 35.3295 109.393 34.4545C109.393 33.5909 109.263 32.8153 109.001 32.1278C108.746 31.4403 108.359 30.8977 107.842 30.5C107.331 30.1023 106.692 29.9034 105.925 29.9034C105.186 29.9034 104.561 30.0937 104.05 30.4744C103.544 30.8551 103.161 31.3864 102.899 32.0682C102.638 32.75 102.507 33.5455 102.507 34.4545ZM113.246 30.108V27.9091H124.291V30.108H120.021V41H117.533V30.108H113.246ZM135.859 33.3551V35.5625H128.768V33.3551H135.859ZM129.484 27.9091V41H126.987V27.9091H129.484ZM137.64 27.9091V41H135.151V27.9091H137.64ZM146.691 41.2642C145.401 41.2642 144.29 40.9886 143.359 40.4375C142.433 39.8807 141.717 39.0994 141.211 38.0938C140.711 37.0824 140.461 35.8977 140.461 34.5398C140.461 33.1989 140.711 32.017 141.211 30.9943C141.717 29.9716 142.421 29.1733 143.325 28.5994C144.234 28.0256 145.296 27.7386 146.512 27.7386C147.251 27.7386 147.967 27.8608 148.66 28.1051C149.353 28.3494 149.975 28.733 150.526 29.2557C151.077 29.7784 151.512 30.4574 151.83 31.2926C152.148 32.1222 152.308 33.1307 152.308 34.3182V35.2216H141.901V33.3125H149.81C149.81 32.642 149.674 32.0483 149.401 31.5312C149.129 31.0085 148.745 30.5966 148.251 30.2955C147.762 29.9943 147.188 29.8438 146.529 29.8438C145.813 29.8438 145.188 30.0199 144.654 30.3722C144.126 30.7187 143.717 31.1733 143.427 31.7358C143.143 32.2926 143.001 32.8977 143.001 33.5511V35.0426C143.001 35.9176 143.154 36.6619 143.461 37.2756C143.773 37.8892 144.208 38.358 144.765 38.6818C145.322 39 145.972 39.1591 146.717 39.1591C147.2 39.1591 147.64 39.0909 148.038 38.9545C148.435 38.8125 148.779 38.6023 149.069 38.3239C149.359 38.0455 149.58 37.7017 149.734 37.2926L152.146 37.7273C151.952 38.4375 151.606 39.0597 151.106 39.5938C150.612 40.1222 149.989 40.5341 149.239 40.8295C148.495 41.1193 147.646 41.2642 146.691 41.2642ZM155.135 45.9091V27.9091H157.624V30.0312H157.837C157.984 29.7585 158.197 29.4432 158.476 29.0852C158.754 28.7273 159.141 28.4148 159.635 28.1477C160.129 27.875 160.783 27.7386 161.595 27.7386C162.652 27.7386 163.595 28.0057 164.425 28.5398C165.254 29.0739 165.905 29.8437 166.376 30.8494C166.854 31.8551 167.092 33.0653 167.092 34.4801C167.092 35.8949 166.857 37.108 166.385 38.1193C165.913 39.125 165.266 39.9006 164.442 40.446C163.618 40.9858 162.678 41.2557 161.621 41.2557C160.825 41.2557 160.175 41.1222 159.669 40.8551C159.169 40.5881 158.777 40.2756 158.493 39.9176C158.209 39.5597 157.99 39.2415 157.837 38.9631H157.683V45.9091H155.135ZM157.632 34.4545C157.632 35.375 157.766 36.1818 158.033 36.875C158.3 37.5682 158.686 38.1108 159.192 38.5028C159.697 38.8892 160.317 39.0824 161.05 39.0824C161.811 39.0824 162.447 38.8807 162.959 38.4773C163.47 38.0682 163.857 37.5142 164.118 36.8153C164.385 36.1165 164.518 35.3295 164.518 34.4545C164.518 33.5909 164.388 32.8153 164.126 32.1278C163.871 31.4403 163.484 30.8977 162.967 30.5C162.456 30.1023 161.817 29.9034 161.05 29.9034C160.311 29.9034 159.686 30.0937 159.175 30.4744C158.669 30.8551 158.286 31.3864 158.024 32.0682C157.763 32.75 157.632 33.5455 157.632 34.4545ZM175.462 41.2642C174.234 41.2642 173.163 40.983 172.249 40.4205C171.334 39.858 170.624 39.071 170.118 38.0597C169.612 37.0483 169.359 35.8665 169.359 34.5142C169.359 33.1562 169.612 31.9687 170.118 30.9517C170.624 29.9347 171.334 29.1449 172.249 28.5824C173.163 28.0199 174.234 27.7386 175.462 27.7386C176.689 27.7386 177.76 28.0199 178.675 28.5824C179.589 29.1449 180.3 29.9347 180.805 30.9517C181.311 31.9687 181.564 33.1562 181.564 34.5142C181.564 35.8665 181.311 37.0483 180.805 38.0597C180.3 39.071 179.589 39.858 178.675 40.4205C177.76 40.983 176.689 41.2642 175.462 41.2642ZM175.47 39.125C176.266 39.125 176.925 38.9148 177.447 38.4943C177.97 38.0739 178.357 37.5142 178.607 36.8153C178.862 36.1165 178.99 35.3466 178.99 34.5057C178.99 33.6705 178.862 32.9034 178.607 32.2045C178.357 31.5 177.97 30.9347 177.447 30.5085C176.925 30.0824 176.266 29.8693 175.47 29.8693C174.669 29.8693 174.004 30.0824 173.476 30.5085C172.953 30.9347 172.564 31.5 172.308 32.2045C172.058 32.9034 171.933 33.6705 171.933 34.5057C171.933 35.3466 172.058 36.1165 172.308 36.8153C172.564 37.5142 172.953 38.0739 173.476 38.4943C174.004 38.9148 174.669 39.125 175.47 39.125ZM184.408 41V27.9091H189.837C191.315 27.9091 192.485 28.2244 193.349 28.8551C194.212 29.4801 194.644 30.3295 194.644 31.4034C194.644 32.1705 194.4 32.7784 193.911 33.2273C193.423 33.6761 192.775 33.9773 191.968 34.1307C192.553 34.1989 193.09 34.375 193.579 34.6591C194.067 34.9375 194.46 35.3125 194.755 35.7841C195.056 36.2557 195.207 36.8182 195.207 37.4716C195.207 38.1648 195.028 38.7784 194.67 39.3125C194.312 39.8409 193.792 40.2557 193.11 40.5568C192.434 40.8523 191.619 41 190.664 41H184.408ZM186.803 38.8693H190.664C191.295 38.8693 191.789 38.7187 192.147 38.4176C192.505 38.1165 192.684 37.7074 192.684 37.1903C192.684 36.5824 192.505 36.1051 192.147 35.7585C191.789 35.4062 191.295 35.2301 190.664 35.2301H186.803V38.8693ZM186.803 33.3636H189.863C190.34 33.3636 190.749 33.2955 191.09 33.1591C191.437 33.0227 191.701 32.8295 191.883 32.5795C192.07 32.3239 192.164 32.0227 192.164 31.6761C192.164 31.1705 191.957 30.7756 191.542 30.4915C191.127 30.2074 190.559 30.0653 189.837 30.0653H186.803V33.3636Z" fill="white"/>
<defs>
<filter id="filter0_d_2060_6" x="0" y="0" width="278" height="232" filterUnits="userSpaceOnUse" color-interpolation-filters="sRGB">
<feFlood flood-opacity="0" result="BackgroundImageFix"/>
<feColorMatrix in="SourceAlpha" type="matrix" values="0 0 0 0 0 0 0 0 0 0 0 0 0 0 0 0 0 0 127 0" result="hardAlpha"/>
<feOffset dx="4" dy="3"/>
<feGaussianBlur stdDeviation="2"/>
<feComposite in2="hardAlpha" operator="out"/>
<feColorMatrix type="matrix" values="0 0 0 0 0 0 0 0 0 0 0 0 0 0 0 0 0 0 0.1 0"/>
<feBlend mode="normal" in2="BackgroundImageFix" result="effect1_dropShadow_2060_6"/>
<feBlend mode="normal" in="SourceGraphic" in2="effect1_dropShadow_2060_6" result="shape"/>
</filter>
<linearGradient id="paint0_linear_2060_6" x1="135" y1="0" x2="135" y2="224" gradientUnits="userSpaceOnUse">
<stop stop-color="#C3B7A6"/>
<stop offset="1" stop-color="#A39078"/>
</linearGradient>
</defs>
</svg>
