<svg width="277" height="197" viewBox="0 0 277 197" fill="none" xmlns="http://www.w3.org/2000/svg">
<path d="M0 50C0 22.3858 22.3858 0 50 0H277V147C277 174.614 254.614 197 227 197H0V50Z" fill="#C3B7A6"/>
<path d="M48.642 42.4545V57H46.8807V44.017H39.5511V57H37.7898V42.4545H48.642ZM56.3995 57.2273C55.4147 57.2273 54.5505 56.9929 53.8072 56.5241C53.0685 56.0554 52.4909 55.3996 52.0742 54.5568C51.6623 53.714 51.4563 52.7292 51.4563 51.6023C51.4563 50.4659 51.6623 49.474 52.0742 48.6264C52.4909 47.7789 53.0685 47.1207 53.8072 46.652C54.5505 46.1832 55.4147 45.9489 56.3995 45.9489C57.3844 45.9489 58.2461 46.1832 58.9847 46.652C59.7281 47.1207 60.3058 47.7789 60.7177 48.6264C61.1344 49.474 61.3427 50.4659 61.3427 51.6023C61.3427 52.7292 61.1344 53.714 60.7177 54.5568C60.3058 55.3996 59.7281 56.0554 58.9847 56.5241C58.2461 56.9929 57.3844 57.2273 56.3995 57.2273ZM56.3995 55.7216C57.1476 55.7216 57.7631 55.5298 58.2461 55.1463C58.729 54.7628 59.0865 54.2585 59.3185 53.6335C59.5505 53.0085 59.6665 52.3314 59.6665 51.6023C59.6665 50.8731 59.5505 50.1937 59.3185 49.5639C59.0865 48.9342 58.729 48.4252 58.2461 48.0369C57.7631 47.6487 57.1476 47.4545 56.3995 47.4545C55.6514 47.4545 55.0359 47.6487 54.5529 48.0369C54.07 48.4252 53.7125 48.9342 53.4805 49.5639C53.2485 50.1937 53.1325 50.8731 53.1325 51.6023C53.1325 52.3314 53.2485 53.0085 53.4805 53.6335C53.7125 54.2585 54.07 54.7628 54.5529 55.1463C55.0359 55.5298 55.6514 55.7216 56.3995 55.7216ZM62.7365 60.125V55.4375H63.6456C63.8681 55.2055 64.0599 54.9545 64.2209 54.6847C64.3819 54.4148 64.5215 54.0952 64.6399 53.7259C64.763 53.3518 64.8672 52.8973 64.9524 52.3622C65.0376 51.8224 65.1134 51.1714 65.1797 50.4091L65.549 46.0909H72.4808V55.4375H74.157V60.125H72.4808V57H64.4126V60.125H62.7365ZM65.549 55.4375H70.8047V47.6534H67.1115L66.8274 50.4091C66.709 51.5502 66.5623 52.5469 66.3871 53.3991C66.2119 54.2514 65.9325 54.9309 65.549 55.4375ZM75.217 60.125V55.4375H76.1261C76.3486 55.2055 76.5404 54.9545 76.7013 54.6847C76.8623 54.4148 77.002 54.0952 77.1204 53.7259C77.2435 53.3518 77.3477 52.8973 77.4329 52.3622C77.5181 51.8224 77.5939 51.1714 77.6602 50.4091L78.0295 46.0909H84.9613V55.4375H86.6374V60.125H84.9613V57H76.8931V60.125H75.217ZM78.0295 55.4375H83.2852V47.6534H79.592L79.3079 50.4091C79.1895 51.5502 79.0427 52.5469 78.8675 53.3991C78.6924 54.2514 78.413 54.9309 78.0295 55.4375ZM93.4361 57.2273C92.3849 57.2273 91.4782 56.9953 90.7159 56.5312C89.9583 56.0625 89.3736 55.4091 88.9616 54.571C88.5545 53.7282 88.3509 52.7481 88.3509 51.6307C88.3509 50.5133 88.5545 49.5284 88.9616 48.6761C89.3736 47.8191 89.9465 47.1515 90.6804 46.6733C91.419 46.1903 92.2808 45.9489 93.2656 45.9489C93.8338 45.9489 94.3949 46.0436 94.9489 46.233C95.5028 46.4223 96.0071 46.7301 96.4616 47.1562C96.9162 47.5777 97.2784 48.1364 97.5483 48.8324C97.8182 49.5284 97.9531 50.3854 97.9531 51.4034V52.1136H89.544V50.6648H96.2486C96.2486 50.0492 96.1255 49.5 95.8793 49.017C95.6378 48.5341 95.2921 48.1529 94.8423 47.8736C94.3973 47.5942 93.8717 47.4545 93.2656 47.4545C92.598 47.4545 92.0204 47.6203 91.5327 47.9517C91.0497 48.2784 90.678 48.7045 90.4176 49.2301C90.1572 49.7557 90.027 50.3191 90.027 50.9205V51.8864C90.027 52.7102 90.169 53.4086 90.4531 53.9815C90.742 54.5497 91.142 54.983 91.6534 55.2812C92.1648 55.5748 92.759 55.7216 93.4361 55.7216C93.8764 55.7216 94.2741 55.66 94.6293 55.5369C94.9891 55.4091 95.2992 55.2197 95.5597 54.9688C95.8201 54.7131 96.0213 54.3958 96.1634 54.017L97.7827 54.4716C97.6122 55.0208 97.3258 55.5038 96.9233 55.9205C96.5208 56.3324 96.0237 56.6544 95.4318 56.8864C94.84 57.1136 94.1747 57.2273 93.4361 57.2273ZM100.503 61.0909V46.0909H102.122V47.8239H102.321C102.444 47.6345 102.615 47.393 102.832 47.0994C103.055 46.8011 103.372 46.536 103.784 46.304C104.201 46.0672 104.764 45.9489 105.474 45.9489C106.393 45.9489 107.203 46.1785 107.903 46.6378C108.604 47.0971 109.151 47.7481 109.544 48.5909C109.937 49.4337 110.134 50.428 110.134 51.5739C110.134 52.7292 109.937 53.7306 109.544 54.5781C109.151 55.4209 108.607 56.0743 107.911 56.5384C107.214 56.9976 106.412 57.2273 105.503 57.2273C104.802 57.2273 104.241 57.1113 103.82 56.8793C103.398 56.6425 103.074 56.375 102.847 56.0767C102.619 55.7737 102.444 55.5227 102.321 55.3239H102.179V61.0909H100.503ZM102.151 51.5455C102.151 52.3693 102.271 53.0961 102.513 53.7259C102.754 54.3509 103.107 54.8409 103.571 55.196C104.035 55.5464 104.603 55.7216 105.276 55.7216C105.976 55.7216 106.561 55.5369 107.03 55.1676C107.503 54.7936 107.858 54.2917 108.095 53.6619C108.337 53.0275 108.457 52.322 108.457 51.5455C108.457 50.7784 108.339 50.0871 108.102 49.4716C107.87 48.8513 107.518 48.3613 107.044 48.0014C106.575 47.6368 105.986 47.4545 105.276 47.4545C104.594 47.4545 104.021 47.6274 103.557 47.973C103.093 48.3139 102.742 48.7921 102.506 49.4077C102.269 50.0185 102.151 50.7311 102.151 51.5455ZM111.559 57L115.991 51.4602L111.616 46.0909H113.605L117.241 50.75H118.15V46.0909H119.826V50.75H120.707L124.343 46.0909H126.332L121.985 51.4602L126.389 57H124.372L120.679 52.3125H119.826V57H118.15V52.3125H117.298L113.576 57H111.559ZM128.784 57V46.0909H130.46V50.8352H131.568L135.489 46.0909H137.648L133.244 51.3466L137.705 57H135.545L131.966 52.3977H130.46V57H128.784ZM142.737 57.2557C142.045 57.2557 141.418 57.1255 140.854 56.8651C140.291 56.5999 139.844 56.2188 139.512 55.7216C139.181 55.2197 139.015 54.6136 139.015 53.9034C139.015 53.2784 139.138 52.7718 139.384 52.3835C139.63 51.9905 139.96 51.6828 140.371 51.4602C140.783 51.2377 141.238 51.072 141.735 50.9631C142.237 50.8494 142.741 50.7595 143.248 50.6932C143.911 50.608 144.448 50.544 144.86 50.5014C145.277 50.4541 145.58 50.3759 145.769 50.267C145.963 50.1581 146.06 49.9687 146.06 49.6989V49.642C146.06 48.9413 145.869 48.3968 145.485 48.0085C145.106 47.6203 144.531 47.4261 143.759 47.4261C142.959 47.4261 142.332 47.6013 141.877 47.9517C141.423 48.3021 141.103 48.6761 140.918 49.0739L139.327 48.5057C139.612 47.8428 139.99 47.3267 140.464 46.9574C140.942 46.5833 141.463 46.3229 142.026 46.1761C142.594 46.0246 143.153 45.9489 143.702 45.9489C144.053 45.9489 144.455 45.9915 144.91 46.0767C145.369 46.1572 145.812 46.3253 146.238 46.581C146.669 46.8366 147.026 47.2225 147.31 47.7386C147.594 48.2547 147.737 48.946 147.737 49.8125V57H146.06V55.5227H145.975C145.862 55.7595 145.672 56.0128 145.407 56.2827C145.142 56.5526 144.789 56.7822 144.349 56.9716C143.908 57.161 143.371 57.2557 142.737 57.2557ZM142.992 55.75C143.655 55.75 144.214 55.6198 144.668 55.3594C145.128 55.099 145.473 54.7628 145.705 54.3509C145.942 53.9389 146.06 53.5057 146.06 53.0511V51.517C145.989 51.6023 145.833 51.6804 145.592 51.7514C145.355 51.8177 145.08 51.8769 144.768 51.929C144.46 51.9763 144.159 52.0189 143.866 52.0568C143.577 52.09 143.343 52.1184 143.163 52.142C142.727 52.1989 142.32 52.2912 141.941 52.419C141.567 52.5421 141.264 52.7292 141.032 52.9801C140.805 53.2263 140.691 53.5625 140.691 53.9886C140.691 54.571 140.906 55.0114 141.337 55.3097C141.773 55.6032 142.325 55.75 142.992 55.75ZM156.421 57V46.0909H158.097V50.8352H159.205L163.125 46.0909H165.284L160.881 51.3466L165.341 57H163.182L159.603 52.3977H158.097V57H156.421ZM166.197 57V55.4375H166.595C166.922 55.4375 167.194 55.3736 167.412 55.2457C167.629 55.1132 167.805 54.8835 167.937 54.5568C168.074 54.2254 168.179 53.7661 168.25 53.179C168.325 52.5871 168.38 51.8343 168.413 50.9205L168.612 46.0909H175.885V57H174.208V47.6534H170.203L170.032 51.5455C169.994 52.4403 169.914 53.2287 169.791 53.9105C169.672 54.5876 169.49 55.1558 169.244 55.6151C169.002 56.0743 168.681 56.42 168.278 56.652C167.876 56.884 167.371 57 166.765 57H166.197ZM180.636 54.5284L185.892 46.0909H187.824V57H186.147V48.5625L180.92 57H178.96V46.0909H180.636V54.5284ZM195.467 57.2273C194.416 57.2273 193.509 56.9953 192.747 56.5312C191.99 56.0625 191.405 55.4091 190.993 54.571C190.586 53.7282 190.382 52.7481 190.382 51.6307C190.382 50.5133 190.586 49.5284 190.993 48.6761C191.405 47.8191 191.978 47.1515 192.712 46.6733C193.45 46.1903 194.312 45.9489 195.297 45.9489C195.865 45.9489 196.426 46.0436 196.98 46.233C197.534 46.4223 198.038 46.7301 198.493 47.1562C198.947 47.5777 199.31 48.1364 199.58 48.8324C199.849 49.5284 199.984 50.3854 199.984 51.4034V52.1136H191.575V50.6648H198.28C198.28 50.0492 198.157 49.5 197.911 49.017C197.669 48.5341 197.323 48.1529 196.874 47.8736C196.429 47.5942 195.903 47.4545 195.297 47.4545C194.629 47.4545 194.052 47.6203 193.564 47.9517C193.081 48.2784 192.709 48.7045 192.449 49.2301C192.188 49.7557 192.058 50.3191 192.058 50.9205V51.8864C192.058 52.7102 192.2 53.4086 192.484 53.9815C192.773 54.5497 193.173 54.983 193.685 55.2812C194.196 55.5748 194.79 55.7216 195.467 55.7216C195.908 55.7216 196.305 55.66 196.661 55.5369C197.02 55.4091 197.33 55.2197 197.591 54.9688C197.851 54.7131 198.053 54.3958 198.195 54.017L199.814 54.4716C199.643 55.0208 199.357 55.5038 198.955 55.9205C198.552 56.3324 198.055 56.6544 197.463 56.8864C196.871 57.1136 196.206 57.2273 195.467 57.2273ZM209.835 50.7784V52.3409H203.812V50.7784H209.835ZM204.21 46.0909V57H202.534V46.0909H204.21ZM211.114 46.0909V57H209.438V46.0909H211.114ZM212.69 47.6534V46.0909H221.554V47.6534H217.974V57H216.298V47.6534H212.69ZM227.864 57.2273C226.879 57.2273 226.015 56.9929 225.272 56.5241C224.533 56.0554 223.956 55.3996 223.539 54.5568C223.127 53.714 222.921 52.7292 222.921 51.6023C222.921 50.4659 223.127 49.474 223.539 48.6264C223.956 47.7789 224.533 47.1207 225.272 46.652C226.015 46.1832 226.879 45.9489 227.864 45.9489C228.849 45.9489 229.711 46.1832 230.45 46.652C231.193 47.1207 231.771 47.7789 232.183 48.6264C232.599 49.474 232.808 50.4659 232.808 51.6023C232.808 52.7292 232.599 53.714 232.183 54.5568C231.771 55.3996 231.193 56.0554 230.45 56.5241C229.711 56.9929 228.849 57.2273 227.864 57.2273ZM227.864 55.7216C228.612 55.7216 229.228 55.5298 229.711 55.1463C230.194 54.7628 230.551 54.2585 230.783 53.6335C231.015 53.0085 231.131 52.3314 231.131 51.6023C231.131 50.8731 231.015 50.1937 230.783 49.5639C230.551 48.9342 230.194 48.4252 229.711 48.0369C229.228 47.6487 228.612 47.4545 227.864 47.4545C227.116 47.4545 226.501 47.6487 226.018 48.0369C225.535 48.4252 225.177 48.9342 224.945 49.5639C224.713 50.1937 224.597 50.8731 224.597 51.6023C224.597 52.3314 224.713 53.0085 224.945 53.6335C225.177 54.2585 225.535 54.7628 226.018 55.1463C226.501 55.5298 227.116 55.7216 227.864 55.7216ZM235.366 57V46.0909H239.826C241.001 46.0909 241.933 46.3561 242.625 46.8864C243.316 47.4167 243.662 48.1174 243.662 48.9886C243.662 49.6515 243.465 50.1652 243.072 50.5298C242.679 50.8897 242.175 51.1335 241.559 51.2614C241.962 51.3182 242.352 51.4602 242.731 51.6875C243.115 51.9148 243.432 52.2273 243.683 52.625C243.934 53.018 244.059 53.5009 244.059 54.0739C244.059 54.6326 243.917 55.1321 243.633 55.5724C243.349 56.0128 242.942 56.3608 242.412 56.6165C241.881 56.8722 241.247 57 240.508 57H235.366ZM236.957 55.4659H240.508C241.086 55.4659 241.538 55.3286 241.865 55.054C242.191 54.7794 242.355 54.4053 242.355 53.9318C242.355 53.3684 242.191 52.9257 241.865 52.6037C241.538 52.277 241.086 52.1136 240.508 52.1136H236.957V55.4659ZM236.957 50.6648H239.826C240.276 50.6648 240.662 50.6032 240.984 50.4801C241.306 50.3523 241.552 50.1723 241.723 49.9403C241.898 49.7036 241.985 49.4242 241.985 49.1023C241.985 48.643 241.794 48.2831 241.41 48.0227C241.027 47.7576 240.499 47.625 239.826 47.625H236.957V50.6648ZM36.3693 84.125V79.4375H37.2784C37.5009 79.2055 37.6927 78.9545 37.8537 78.6847C38.0147 78.4148 38.1544 78.0952 38.2727 77.7259C38.3958 77.3518 38.5 76.8973 38.5852 76.3622C38.6705 75.8224 38.7462 75.1714 38.8125 74.4091L39.1818 70.0909H46.1136V79.4375H47.7898V84.125H46.1136V81H38.0455V84.125H36.3693ZM39.1818 79.4375H44.4375V71.6534H40.7443L40.4602 74.4091C40.3419 75.5502 40.1951 76.5469 40.0199 77.3991C39.8447 78.2514 39.5653 78.9309 39.1818 79.4375ZM49.0487 81V79.4375H49.4464C49.7731 79.4375 50.0453 79.3736 50.2631 79.2457C50.4809 79.1132 50.6561 78.8835 50.7887 78.5568C50.926 78.2254 51.0302 77.7661 51.1012 77.179C51.177 76.5871 51.2314 75.8343 51.2646 74.9205L51.4634 70.0909H58.7362V81H57.06V71.6534H53.0543L52.8839 75.5455C52.846 76.4403 52.7655 77.2287 52.6424 77.9105C52.524 78.5876 52.3417 79.1558 52.0955 79.6151C51.854 80.0743 51.5321 80.42 51.1296 80.652C50.7272 80.884 50.2229 81 49.6168 81H49.0487ZM68.3739 81V71.625H65.4762C64.8228 71.625 64.3091 71.7765 63.935 72.0795C63.561 72.3826 63.3739 72.7992 63.3739 73.3295C63.3739 73.8504 63.542 74.2599 63.8782 74.5582C64.2191 74.8565 64.6855 75.0057 65.2773 75.0057H68.8001V76.5682H65.2773C64.5387 76.5682 63.9019 76.438 63.3668 76.1776C62.8318 75.9171 62.4199 75.5455 62.131 75.0625C61.8422 74.5748 61.6978 73.9972 61.6978 73.3295C61.6978 72.6572 61.8493 72.0795 62.1523 71.5966C62.4554 71.1136 62.8886 70.742 63.4521 70.4815C64.0202 70.2211 64.695 70.0909 65.4762 70.0909H69.9648V81H68.3739ZM61.1012 81L64.1978 75.5739H66.016L62.9194 81H61.1012ZM78.6669 85.0909V70.0909H80.2862V71.8239H80.4851C80.6082 71.6345 80.7786 71.393 80.9964 71.0994C81.219 70.8011 81.5362 70.536 81.9482 70.304C82.3648 70.0672 82.9283 69.9489 83.6385 69.9489C84.5571 69.9489 85.3667 70.1785 86.0675 70.6378C86.7682 71.0971 87.3151 71.7481 87.7081 72.5909C88.1011 73.4337 88.2976 74.428 88.2976 75.5739C88.2976 76.7292 88.1011 77.7306 87.7081 78.5781C87.3151 79.4209 86.7706 80.0743 86.0746 80.5384C85.3786 80.9976 84.576 81.2273 83.6669 81.2273C82.9661 81.2273 82.4051 81.1113 81.9837 80.8793C81.5623 80.6425 81.2379 80.375 81.0107 80.0767C80.7834 79.7737 80.6082 79.5227 80.4851 79.3239H80.343V85.0909H78.6669ZM80.3146 75.5455C80.3146 76.3693 80.4354 77.0961 80.6768 77.7259C80.9183 78.3509 81.2711 78.8409 81.7351 79.196C82.1991 79.5464 82.7673 79.7216 83.4396 79.7216C84.1404 79.7216 84.7251 79.5369 85.1939 79.1676C85.6674 78.7936 86.0225 78.2917 86.2592 77.6619C86.5007 77.0275 86.6214 76.322 86.6214 75.5455C86.6214 74.7784 86.5031 74.0871 86.2663 73.4716C86.0343 72.8513 85.6816 72.3613 85.2081 72.0014C84.7393 71.6368 84.1499 71.4545 83.4396 71.4545C82.7578 71.4545 82.1849 71.6274 81.7209 71.973C81.2569 72.3139 80.9065 72.7921 80.6697 73.4077C80.433 74.0185 80.3146 74.7311 80.3146 75.5455ZM95.4283 81.2273C94.3771 81.2273 93.4704 80.9953 92.7081 80.5312C91.9505 80.0625 91.3658 79.4091 90.9538 78.571C90.5466 77.7282 90.343 76.7481 90.343 75.6307C90.343 74.5133 90.5466 73.5284 90.9538 72.6761C91.3658 71.8191 91.9387 71.1515 92.6726 70.6733C93.4112 70.1903 94.273 69.9489 95.2578 69.9489C95.826 69.9489 96.3871 70.0436 96.9411 70.233C97.495 70.4223 97.9993 70.7301 98.4538 71.1562C98.9084 71.5777 99.2706 72.1364 99.5405 72.8324C99.8104 73.5284 99.9453 74.3854 99.9453 75.4034V76.1136H91.5362V74.6648H98.2408C98.2408 74.0492 98.1177 73.5 97.8714 73.017C97.63 72.5341 97.2843 72.1529 96.8345 71.8736C96.3894 71.5942 95.8639 71.4545 95.2578 71.4545C94.5902 71.4545 94.0125 71.6203 93.5249 71.9517C93.0419 72.2784 92.6702 72.7045 92.4098 73.2301C92.1494 73.7557 92.0192 74.3191 92.0192 74.9205V75.8864C92.0192 76.7102 92.1612 77.4086 92.4453 77.9815C92.7341 78.5497 93.1342 78.983 93.6456 79.2812C94.157 79.5748 94.7512 79.7216 95.4283 79.7216C95.8686 79.7216 96.2663 79.66 96.6214 79.5369C96.9813 79.4091 97.2914 79.2197 97.5518 78.9688C97.8123 78.7131 98.0135 78.3958 98.1555 78.017L99.7749 78.4716C99.6044 79.0208 99.3179 79.5038 98.9155 79.9205C98.513 80.3324 98.0159 80.6544 97.424 80.8864C96.8321 81.1136 96.1669 81.2273 95.4283 81.2273ZM102.495 70.0909H104.171V79.4375H108.29V70.0909H109.967V79.4375H114.086V70.0909H115.762V81H102.495V70.0909ZM123.397 81.2273C122.346 81.2273 121.439 80.9953 120.677 80.5312C119.919 80.0625 119.335 79.4091 118.923 78.571C118.515 77.7282 118.312 76.7481 118.312 75.6307C118.312 74.5133 118.515 73.5284 118.923 72.6761C119.335 71.8191 119.907 71.1515 120.641 70.6733C121.38 70.1903 122.242 69.9489 123.227 69.9489C123.795 69.9489 124.356 70.0436 124.91 70.233C125.464 70.4223 125.968 70.7301 126.423 71.1562C126.877 71.5777 127.239 72.1364 127.509 72.8324C127.779 73.5284 127.914 74.3854 127.914 75.4034V76.1136H119.505V74.6648H126.21C126.21 74.0492 126.086 73.5 125.84 73.017C125.599 72.5341 125.253 72.1529 124.803 71.8736C124.358 71.5942 123.833 71.4545 123.227 71.4545C122.559 71.4545 121.981 71.6203 121.494 71.9517C121.011 72.2784 120.639 72.7045 120.379 73.2301C120.118 73.7557 119.988 74.3191 119.988 74.9205V75.8864C119.988 76.7102 120.13 77.4086 120.414 77.9815C120.703 78.5497 121.103 78.983 121.614 79.2812C122.126 79.5748 122.72 79.7216 123.397 79.7216C123.837 79.7216 124.235 79.66 124.59 79.5369C124.95 79.4091 125.26 79.2197 125.521 78.9688C125.781 78.7131 125.982 78.3958 126.124 78.017L127.744 78.4716C127.573 79.0208 127.287 79.5038 126.884 79.9205C126.482 80.3324 125.985 80.6544 125.393 80.8864C124.801 81.1136 124.136 81.2273 123.397 81.2273ZM137.765 74.7784V76.3409H131.742V74.7784H137.765ZM132.14 70.0909V81H130.464V70.0909H132.14ZM139.043 70.0909V81H137.367V70.0909H139.043ZM143.781 78.5284L149.036 70.0909H150.968V81H149.292V72.5625L144.065 81H142.104V70.0909H143.781V78.5284ZM160.6 81V71.625H157.703C157.049 71.625 156.536 71.7765 156.162 72.0795C155.788 72.3826 155.6 72.7992 155.6 73.3295C155.6 73.8504 155.769 74.2599 156.105 74.5582C156.446 74.8565 156.912 75.0057 157.504 75.0057H161.027V76.5682H157.504C156.765 76.5682 156.128 76.438 155.593 76.1776C155.058 75.9171 154.646 75.5455 154.358 75.0625C154.069 74.5748 153.924 73.9972 153.924 73.3295C153.924 72.6572 154.076 72.0795 154.379 71.5966C154.682 71.1136 155.115 70.742 155.679 70.4815C156.247 70.2211 156.922 70.0909 157.703 70.0909H162.191V81H160.6ZM153.328 81L156.424 75.5739H158.243L155.146 81H153.328ZM169.928 81V79.4375H170.325C170.652 79.4375 170.924 79.3736 171.142 79.2457C171.36 79.1132 171.535 78.8835 171.668 78.5568C171.805 78.2254 171.909 77.7661 171.98 77.179C172.056 76.5871 172.11 75.8343 172.143 74.9205L172.342 70.0909H179.615V81H177.939V71.6534H173.933L173.763 75.5455C173.725 76.4403 173.644 77.2287 173.521 77.9105C173.403 78.5876 173.221 79.1558 172.974 79.6151C172.733 80.0743 172.411 80.42 172.009 80.652C171.606 80.884 171.102 81 170.496 81H169.928ZM187.918 74.8636V76.4261H182.151V74.8636H187.918ZM183.571 70.0909V81H181.895V70.0909H183.571ZM191.27 81.2273C190.285 81.2273 189.421 80.9929 188.678 80.5241C187.939 80.0554 187.361 79.3996 186.945 78.5568C186.533 77.714 186.327 76.7292 186.327 75.6023C186.327 74.4659 186.533 73.474 186.945 72.6264C187.361 71.7789 187.939 71.1207 188.678 70.652C189.421 70.1832 190.285 69.9489 191.27 69.9489C192.255 69.9489 193.116 70.1832 193.855 70.652C194.598 71.1207 195.176 71.7789 195.588 72.6264C196.005 73.474 196.213 74.4659 196.213 75.6023C196.213 76.7292 196.005 77.714 195.588 78.5568C195.176 79.3996 194.598 80.0554 193.855 80.5241C193.116 80.9929 192.255 81.2273 191.27 81.2273ZM191.27 79.7216C192.018 79.7216 192.634 79.5298 193.116 79.1463C193.599 78.7628 193.957 78.2585 194.189 77.6335C194.421 77.0085 194.537 76.3314 194.537 75.6023C194.537 74.8731 194.421 74.1937 194.189 73.5639C193.957 72.9342 193.599 72.4252 193.116 72.0369C192.634 71.6487 192.018 71.4545 191.27 71.4545C190.522 71.4545 189.906 71.6487 189.423 72.0369C188.94 72.4252 188.583 72.9342 188.351 73.5639C188.119 74.1937 188.003 74.8731 188.003 75.6023C188.003 76.3314 188.119 77.0085 188.351 77.6335C188.583 78.2585 188.94 78.7628 189.423 79.1463C189.906 79.5298 190.522 79.7216 191.27 79.7216ZM207.037 66L207.889 67.0227C207.558 67.3447 207.174 67.5696 206.739 67.6974C206.303 67.8253 205.811 67.9034 205.261 67.9318C204.712 67.9602 204.101 67.9886 203.429 68.017C202.671 68.0455 202.044 68.2301 201.547 68.571C201.05 68.9119 200.666 69.4044 200.396 70.0483C200.126 70.6922 199.954 71.483 199.878 72.4205H200.02C200.389 71.7386 200.901 71.2367 201.554 70.9148C202.207 70.5928 202.908 70.4318 203.656 70.4318C204.509 70.4318 205.276 70.6307 205.957 71.0284C206.639 71.4261 207.179 72.0156 207.577 72.7969C207.974 73.5781 208.173 74.5417 208.173 75.6875C208.173 76.8286 207.97 77.8134 207.562 78.642C207.16 79.4706 206.594 80.1098 205.865 80.5597C205.141 81.0047 204.291 81.2273 203.315 81.2273C202.34 81.2273 201.485 80.9976 200.751 80.5384C200.018 80.0743 199.447 79.3878 199.04 78.4787C198.633 77.5649 198.429 76.4356 198.429 75.0909V73.9261C198.429 71.4972 198.841 69.6553 199.665 68.4006C200.493 67.1458 201.739 66.4972 203.401 66.4545C203.988 66.4356 204.511 66.4309 204.97 66.4403C205.429 66.4498 205.83 66.4285 206.17 66.3764C206.511 66.3243 206.8 66.1989 207.037 66ZM203.315 79.7216C203.973 79.7216 204.539 79.5559 205.013 79.2244C205.491 78.893 205.858 78.4266 206.114 77.8253C206.369 77.2192 206.497 76.5066 206.497 75.6875C206.497 74.892 206.367 74.215 206.107 73.6562C205.851 73.0975 205.484 72.6714 205.006 72.3778C204.527 72.0843 203.955 71.9375 203.287 71.9375C202.799 71.9375 202.361 72.0204 201.973 72.1861C201.585 72.3518 201.253 72.5956 200.979 72.9176C200.704 73.2396 200.491 73.6326 200.339 74.0966C200.193 74.5606 200.115 75.0909 200.105 75.6875C200.105 76.9091 200.392 77.8868 200.964 78.6207C201.537 79.3546 202.321 79.7216 203.315 79.7216ZM212.186 74.0398H215.311C216.589 74.0398 217.567 74.3641 218.244 75.0128C218.921 75.6615 219.26 76.483 219.26 77.4773C219.26 78.1307 219.108 78.7249 218.805 79.2599C218.502 79.7902 218.057 80.214 217.47 80.5312C216.883 80.8438 216.163 81 215.311 81H210.737V70.0909H212.413V79.4375H215.311C215.974 79.4375 216.518 79.2623 216.945 78.9119C217.371 78.5616 217.584 78.1117 217.584 77.5625C217.584 76.9848 217.371 76.5137 216.945 76.1491C216.518 75.7846 215.974 75.6023 215.311 75.6023H212.186V74.0398ZM220.993 81V70.0909H222.669V81H220.993ZM226.987 70.0909L229.601 74.5511L232.214 70.0909H234.146L230.624 75.5455L234.146 81H232.214L229.601 76.767L226.987 81H225.055L228.521 75.5455L225.055 70.0909H226.987ZM37.5341 105V94.0909H41.9943C43.1686 94.0909 44.1013 94.3561 44.7926 94.8864C45.4839 95.4167 45.8295 96.1174 45.8295 96.9886C45.8295 97.6515 45.633 98.1652 45.2401 98.5298C44.8471 98.8897 44.3428 99.1335 43.7273 99.2614C44.1297 99.3182 44.5204 99.4602 44.8991 99.6875C45.2827 99.9148 45.5999 100.227 45.8509 100.625C46.1018 101.018 46.2273 101.501 46.2273 102.074C46.2273 102.633 46.0852 103.132 45.8011 103.572C45.517 104.013 45.1098 104.361 44.5795 104.616C44.0492 104.872 43.4148 105 42.6761 105H37.5341ZM39.125 103.466H42.6761C43.2538 103.466 43.706 103.329 44.0327 103.054C44.3594 102.779 44.5227 102.405 44.5227 101.932C44.5227 101.368 44.3594 100.926 44.0327 100.604C43.706 100.277 43.2538 100.114 42.6761 100.114H39.125V103.466ZM39.125 98.6648H41.9943C42.4441 98.6648 42.83 98.6032 43.152 98.4801C43.474 98.3523 43.7202 98.1723 43.8906 97.9403C44.0658 97.7036 44.1534 97.4242 44.1534 97.1023C44.1534 96.643 43.9616 96.2831 43.5781 96.0227C43.1946 95.7576 42.6667 95.625 41.9943 95.625H39.125V98.6648ZM53.1964 105.227C52.2115 105.227 51.3474 104.993 50.604 104.524C49.8654 104.055 49.2878 103.4 48.8711 102.557C48.4592 101.714 48.2532 100.729 48.2532 99.6023C48.2532 98.4659 48.4592 97.474 48.8711 96.6264C49.2878 95.7789 49.8654 95.1207 50.604 94.652C51.3474 94.1832 52.2115 93.9489 53.1964 93.9489C54.1812 93.9489 55.043 94.1832 55.7816 94.652C56.525 95.1207 57.1026 95.7789 57.5146 96.6264C57.9312 97.474 58.1396 98.4659 58.1396 99.6023C58.1396 100.729 57.9312 101.714 57.5146 102.557C57.1026 103.4 56.525 104.055 55.7816 104.524C55.043 104.993 54.1812 105.227 53.1964 105.227ZM53.1964 103.722C53.9445 103.722 54.56 103.53 55.043 103.146C55.5259 102.763 55.8834 102.259 56.1154 101.634C56.3474 101.009 56.4634 100.331 56.4634 99.6023C56.4634 98.8731 56.3474 98.1937 56.1154 97.5639C55.8834 96.9342 55.5259 96.4252 55.043 96.0369C54.56 95.6487 53.9445 95.4545 53.1964 95.4545C52.4483 95.4545 51.8327 95.6487 51.3498 96.0369C50.8668 96.4252 50.5094 96.9342 50.2773 97.5639C50.0453 98.1937 49.9293 98.8731 49.9293 99.6023C49.9293 100.331 50.0453 101.009 50.2773 101.634C50.5094 102.259 50.8668 102.763 51.3498 103.146C51.8327 103.53 52.4483 103.722 53.1964 103.722ZM60.6982 105V94.0909H69.2777V105H67.6016V95.6534H62.3743V105H60.6982ZM72.3388 109.091V94.0909H73.9581V95.8239H74.157C74.2801 95.6345 74.4505 95.393 74.6683 95.0994C74.8909 94.8011 75.2081 94.536 75.62 94.304C76.0367 94.0672 76.6001 93.9489 77.3104 93.9489C78.2289 93.9489 79.0386 94.1785 79.7393 94.6378C80.4401 95.0971 80.987 95.7481 81.38 96.5909C81.773 97.4337 81.9695 98.428 81.9695 99.5739C81.9695 100.729 81.773 101.731 81.38 102.578C80.987 103.421 80.4425 104.074 79.7464 104.538C79.0504 104.998 78.2479 105.227 77.3388 105.227C76.638 105.227 76.0769 105.111 75.6555 104.879C75.2341 104.643 74.9098 104.375 74.6825 104.077C74.4553 103.774 74.2801 103.523 74.157 103.324H74.0149V109.091H72.3388ZM73.9865 99.5455C73.9865 100.369 74.1072 101.096 74.3487 101.726C74.5902 102.351 74.9429 102.841 75.407 103.196C75.871 103.546 76.4392 103.722 77.1115 103.722C77.8123 103.722 78.397 103.537 78.8658 103.168C79.3393 102.794 79.6944 102.292 79.9311 101.662C80.1726 101.027 80.2933 100.322 80.2933 99.5455C80.2933 98.7784 80.175 98.0871 79.9382 97.4716C79.7062 96.8513 79.3535 96.3613 78.88 96.0014C78.4112 95.6368 77.8217 95.4545 77.1115 95.4545C76.4297 95.4545 75.8568 95.6274 75.3928 95.973C74.9287 96.3139 74.5784 96.7921 74.3416 97.4077C74.1049 98.0185 73.9865 98.7311 73.9865 99.5455ZM88.9581 105.227C87.9732 105.227 87.1091 104.993 86.3658 104.524C85.6271 104.055 85.0495 103.4 84.6328 102.557C84.2209 101.714 84.0149 100.729 84.0149 99.6023C84.0149 98.4659 84.2209 97.474 84.6328 96.6264C85.0495 95.7789 85.6271 95.1207 86.3658 94.652C87.1091 94.1832 87.9732 93.9489 88.9581 93.9489C89.9429 93.9489 90.8047 94.1832 91.5433 94.652C92.2867 95.1207 92.8643 95.7789 93.2763 96.6264C93.6929 97.474 93.9013 98.4659 93.9013 99.6023C93.9013 100.729 93.6929 101.714 93.2763 102.557C92.8643 103.4 92.2867 104.055 91.5433 104.524C90.8047 104.993 89.9429 105.227 88.9581 105.227ZM88.9581 103.722C89.7062 103.722 90.3217 103.53 90.8047 103.146C91.2876 102.763 91.6451 102.259 91.8771 101.634C92.1091 101.009 92.2251 100.331 92.2251 99.6023C92.2251 98.8731 92.1091 98.1937 91.8771 97.5639C91.6451 96.9342 91.2876 96.4252 90.8047 96.0369C90.3217 95.6487 89.7062 95.4545 88.9581 95.4545C88.21 95.4545 87.5945 95.6487 87.1115 96.0369C86.6286 96.4252 86.2711 96.9342 86.0391 97.5639C85.8071 98.1937 85.6911 98.8731 85.6911 99.6023C85.6911 100.331 85.8071 101.009 86.0391 101.634C86.2711 102.259 86.6286 102.763 87.1115 103.146C87.5945 103.53 88.21 103.722 88.9581 103.722ZM100.892 105.227C99.869 105.227 98.9883 104.986 98.2496 104.503C97.511 104.02 96.9428 103.355 96.5451 102.507C96.1474 101.66 95.9485 100.691 95.9485 99.6023C95.9485 98.4943 96.1521 97.5166 96.5593 96.669C96.9712 95.8168 97.5442 95.1515 98.2781 94.6733C99.0167 94.1903 99.8784 93.9489 100.863 93.9489C101.63 93.9489 102.322 94.0909 102.937 94.375C103.553 94.6591 104.057 95.0568 104.45 95.5682C104.843 96.0795 105.087 96.6761 105.181 97.358H103.505C103.377 96.8608 103.093 96.4205 102.653 96.0369C102.217 95.6487 101.63 95.4545 100.892 95.4545C100.238 95.4545 99.6654 95.625 99.1729 95.9659C98.6853 96.3021 98.3041 96.7779 98.0295 97.3935C97.7596 98.0043 97.6246 98.7216 97.6246 99.5455C97.6246 100.388 97.7572 101.122 98.0224 101.747C98.2923 102.372 98.671 102.857 99.1587 103.203C99.6512 103.549 100.229 103.722 100.892 103.722C101.327 103.722 101.723 103.646 102.078 103.494C102.433 103.343 102.734 103.125 102.98 102.841C103.226 102.557 103.401 102.216 103.505 101.818H105.181C105.087 102.462 104.852 103.042 104.478 103.558C104.109 104.07 103.619 104.477 103.008 104.78C102.402 105.078 101.697 105.227 100.892 105.227ZM112.064 105.227C111.079 105.227 110.215 104.993 109.471 104.524C108.733 104.055 108.155 103.4 107.738 102.557C107.326 101.714 107.12 100.729 107.12 99.6023C107.12 98.4659 107.326 97.474 107.738 96.6264C108.155 95.7789 108.733 95.1207 109.471 94.652C110.215 94.1832 111.079 93.9489 112.064 93.9489C113.048 93.9489 113.91 94.1832 114.649 94.652C115.392 95.1207 115.97 95.7789 116.382 96.6264C116.798 97.474 117.007 98.4659 117.007 99.6023C117.007 100.729 116.798 101.714 116.382 102.557C115.97 103.4 115.392 104.055 114.649 104.524C113.91 104.993 113.048 105.227 112.064 105.227ZM112.064 103.722C112.812 103.722 113.427 103.53 113.91 103.146C114.393 102.763 114.751 102.259 114.983 101.634C115.215 101.009 115.331 100.331 115.331 99.6023C115.331 98.8731 115.215 98.1937 114.983 97.5639C114.751 96.9342 114.393 96.4252 113.91 96.0369C113.427 95.6487 112.812 95.4545 112.064 95.4545C111.315 95.4545 110.7 95.6487 110.217 96.0369C109.734 96.4252 109.377 96.9342 109.145 97.5639C108.913 98.1937 108.797 98.8731 108.797 99.6023C108.797 100.331 108.913 101.009 109.145 101.634C109.377 102.259 109.734 102.763 110.217 103.146C110.7 103.53 111.315 103.722 112.064 103.722ZM119.565 105V94.0909H124.026C125.2 94.0909 126.133 94.3561 126.824 94.8864C127.515 95.4167 127.861 96.1174 127.861 96.9886C127.861 97.6515 127.664 98.1652 127.271 98.5298C126.878 98.8897 126.374 99.1335 125.759 99.2614C126.161 99.3182 126.552 99.4602 126.93 99.6875C127.314 99.9148 127.631 100.227 127.882 100.625C128.133 101.018 128.259 101.501 128.259 102.074C128.259 102.633 128.116 103.132 127.832 103.572C127.548 104.013 127.141 104.361 126.611 104.616C126.08 104.872 125.446 105 124.707 105H119.565ZM121.156 103.466H124.707C125.285 103.466 125.737 103.329 126.064 103.054C126.391 102.779 126.554 102.405 126.554 101.932C126.554 101.368 126.391 100.926 126.064 100.604C125.737 100.277 125.285 100.114 124.707 100.114H121.156V103.466ZM121.156 98.6648H124.026C124.475 98.6648 124.861 98.6032 125.183 98.4801C125.505 98.3523 125.751 98.1723 125.922 97.9403C126.097 97.7036 126.185 97.4242 126.185 97.1023C126.185 96.643 125.993 96.2831 125.609 96.0227C125.226 95.7576 124.698 95.625 124.026 95.625H121.156V98.6648Z" fill="white"/>
<path d="M170.358 169V164.568L180.713 154.98C181.594 154.128 182.332 153.361 182.929 152.679C183.535 151.997 183.994 151.33 184.307 150.676C184.619 150.013 184.776 149.298 184.776 148.531C184.776 147.679 184.581 146.945 184.193 146.33C183.805 145.705 183.275 145.226 182.602 144.895C181.93 144.554 181.168 144.384 180.315 144.384C179.425 144.384 178.649 144.563 177.986 144.923C177.323 145.283 176.812 145.799 176.452 146.472C176.092 147.144 175.912 147.944 175.912 148.872H170.074C170.074 146.969 170.505 145.316 171.366 143.915C172.228 142.513 173.436 141.429 174.989 140.662C176.542 139.895 178.331 139.511 180.358 139.511C182.441 139.511 184.255 139.881 185.798 140.619C187.351 141.348 188.559 142.362 189.42 143.659C190.282 144.956 190.713 146.443 190.713 148.119C190.713 149.218 190.495 150.302 190.06 151.372C189.634 152.442 188.871 153.631 187.773 154.938C186.674 156.235 185.126 157.793 183.128 159.611L178.881 163.773V163.972H191.097V169H170.358ZM192.488 163.886V159.043L204.633 139.909H208.809V146.614H206.337L198.681 158.73V158.957H215.94V163.886H192.488ZM206.451 169V162.409L206.565 160.264V139.909H212.332V169H206.451ZM230.765 138.545L221.39 173.375H216.177L225.552 138.545H230.765ZM232.774 169L244.834 145.136V144.938H230.786V139.909H251.197V145.009L239.124 169H232.774Z" fill="white"/>
</svg>
