<svg width="689" height="293" viewBox="0 0 689 293" fill="none" xmlns="http://www.w3.org/2000/svg">
<path d="M0.5 50C0.5 22.6619 22.6619 0.5 50 0.5H688.5V243C688.5 270.338 666.338 292.5 639 292.5H0.5V50Z" stroke="#A39078"/>
<path d="M39.8764 36.8182H44.6705L53.0057 57.1705H53.3125L61.6477 36.8182H66.4418V63H62.6832V44.054H62.4403L54.7188 62.9616H51.5994L43.8778 44.0412H43.6349V63H39.8764V36.8182ZM74.7546 50.1136H80.4563C82.8597 50.1136 84.7092 50.7102 86.0046 51.9034C87.3001 53.0966 87.9478 54.6349 87.9478 56.5185C87.9478 57.7457 87.658 58.8494 87.0785 59.8295C86.4989 60.8097 85.6509 61.5852 84.5344 62.1562C83.418 62.7188 82.0586 63 80.4563 63H71.8782V43.3636H75.6239V59.7017H80.4563C81.5558 59.7017 82.4592 59.4162 83.1665 58.8452C83.8739 58.2656 84.2276 57.5284 84.2276 56.6335C84.2276 55.6875 83.8739 54.9162 83.1665 54.3196C82.4592 53.7145 81.5558 53.4119 80.4563 53.4119H74.7546V50.1136ZM90.7347 63V43.3636H94.5572V63H90.7347ZM112.96 57.6435L121.615 43.3636H125.731V63H121.985V48.7074L113.369 63H109.214V43.3636H112.96V57.6435ZM139.142 63.3963C137.241 63.3963 135.605 62.9659 134.233 62.1051C132.869 61.2358 131.821 60.0384 131.088 58.5128C130.355 56.9872 129.988 55.2401 129.988 53.2713C129.988 51.277 130.363 49.517 131.113 47.9915C131.863 46.4574 132.92 45.2599 134.284 44.3991C135.647 43.5384 137.254 43.108 139.103 43.108C140.595 43.108 141.924 43.3849 143.092 43.9389C144.26 44.4844 145.201 45.2514 145.917 46.2401C146.642 47.2287 147.072 48.3835 147.208 49.7045H143.488C143.284 48.7841 142.815 47.9915 142.082 47.3267C141.358 46.6619 140.386 46.3295 139.167 46.3295C138.102 46.3295 137.169 46.6108 136.368 47.1733C135.575 47.7273 134.957 48.5199 134.514 49.5511C134.071 50.5739 133.849 51.7841 133.849 53.1818C133.849 54.6136 134.066 55.8494 134.501 56.8892C134.936 57.929 135.549 58.7344 136.342 59.3054C137.143 59.8764 138.085 60.1619 139.167 60.1619C139.892 60.1619 140.548 60.0298 141.136 59.7656C141.733 59.4929 142.231 59.1051 142.632 58.6023C143.041 58.0994 143.326 57.4943 143.488 56.7869H147.208C147.072 58.0568 146.659 59.1903 145.968 60.1875C145.278 61.1847 144.353 61.9687 143.194 62.5398C142.044 63.1108 140.693 63.3963 139.142 63.3963ZM151.296 63V43.3636H167.315V63H163.569V46.6619H155.016V63H151.296ZM180.696 63.3963C178.855 63.3963 177.249 62.9744 175.877 62.1307C174.505 61.2869 173.439 60.1065 172.681 58.5895C171.922 57.0724 171.543 55.2997 171.543 53.2713C171.543 51.2344 171.922 49.4531 172.681 47.9276C173.439 46.402 174.505 45.2173 175.877 44.3736C177.249 43.5298 178.855 43.108 180.696 43.108C182.537 43.108 184.144 43.5298 185.516 44.3736C186.888 45.2173 187.953 46.402 188.712 47.9276C189.471 49.4531 189.85 51.2344 189.85 53.2713C189.85 55.2997 189.471 57.0724 188.712 58.5895C187.953 60.1065 186.888 61.2869 185.516 62.1307C184.144 62.9744 182.537 63.3963 180.696 63.3963ZM180.709 60.1875C181.902 60.1875 182.891 59.8722 183.675 59.2415C184.459 58.6108 185.039 57.7713 185.414 56.723C185.797 55.6747 185.989 54.5199 185.989 53.2585C185.989 52.0057 185.797 50.8551 185.414 49.8068C185.039 48.75 184.459 47.902 183.675 47.2628C182.891 46.6236 181.902 46.304 180.709 46.304C179.507 46.304 178.51 46.6236 177.718 47.2628C176.934 47.902 176.35 48.75 175.966 49.8068C175.591 50.8551 175.404 52.0057 175.404 53.2585C175.404 54.5199 175.591 55.6747 175.966 56.723C176.35 57.7713 176.934 58.6108 177.718 59.2415C178.51 59.8722 179.507 60.1875 180.709 60.1875ZM192.57 63L192.557 59.6889H193.26C193.805 59.6889 194.261 59.5739 194.628 59.3438C195.003 59.1051 195.31 58.7045 195.548 58.142C195.787 57.5795 195.97 56.804 196.098 55.8153C196.226 54.8182 196.32 53.5653 196.379 52.0568L196.724 43.3636H210.429V63H206.683V46.6619H200.266L199.959 53.3352C199.882 54.9545 199.716 56.3693 199.46 57.5795C199.213 58.7898 198.851 59.7997 198.374 60.6094C197.896 61.4105 197.283 62.0114 196.533 62.4119C195.783 62.804 194.871 63 193.797 63H192.57ZM218.403 50.1136H224.105C226.508 50.1136 228.358 50.7102 229.653 51.9034C230.949 53.0966 231.596 54.6349 231.596 56.5185C231.596 57.7457 231.306 58.8494 230.727 59.8295C230.147 60.8097 229.299 61.5852 228.183 62.1562C227.066 62.7188 225.707 63 224.105 63H215.527V43.3636H219.272V59.7017H224.105C225.204 59.7017 226.108 59.4162 226.815 58.8452C227.522 58.2656 227.876 57.5284 227.876 56.6335C227.876 55.6875 227.522 54.9162 226.815 54.3196C226.108 53.7145 225.204 53.4119 224.105 53.4119H218.403V50.1136ZM234.719 57.8097H238.631C238.682 58.6108 239.044 59.2287 239.717 59.6634C240.399 60.098 241.281 60.3153 242.364 60.3153C243.463 60.3153 244.401 60.081 245.176 59.6122C245.952 59.1349 246.339 58.3977 246.339 57.4006C246.339 56.804 246.19 56.2841 245.892 55.8409C245.602 55.3892 245.189 55.0398 244.652 54.7926C244.124 54.5455 243.497 54.4219 242.773 54.4219H239.577V51.4176H242.773C243.855 51.4176 244.665 51.1705 245.202 50.6761C245.739 50.1818 246.007 49.5639 246.007 48.8224C246.007 48.0213 245.717 47.3778 245.138 46.892C244.567 46.3977 243.77 46.1506 242.747 46.1506C241.707 46.1506 240.842 46.3849 240.152 46.8537C239.462 47.3139 239.099 47.9105 239.065 48.6435H235.205C235.23 47.544 235.563 46.581 236.202 45.7543C236.849 44.919 237.719 44.2713 238.81 43.8111C239.909 43.3423 241.158 43.108 242.555 43.108C244.013 43.108 245.274 43.3423 246.339 43.8111C247.405 44.2798 248.227 44.9276 248.807 45.7543C249.395 46.581 249.689 47.5312 249.689 48.6051C249.689 49.6875 249.365 50.5739 248.717 51.2642C248.078 51.946 247.243 52.4361 246.212 52.7344V52.9389C246.97 52.9901 247.643 53.2202 248.232 53.6293C248.82 54.0384 249.28 54.5795 249.612 55.2528C249.945 55.9261 250.111 56.6889 250.111 57.5412C250.111 58.7429 249.778 59.7827 249.114 60.6605C248.457 61.5384 247.545 62.2159 246.378 62.6932C245.219 63.1619 243.893 63.3963 242.402 63.3963C240.953 63.3963 239.653 63.1705 238.503 62.7188C237.361 62.2585 236.453 61.6108 235.78 60.7756C235.115 59.9403 234.761 58.9517 234.719 57.8097ZM256.474 70.3636C255.903 70.3636 255.383 70.3168 254.914 70.223C254.446 70.1378 254.096 70.044 253.866 69.9418L254.787 66.8097C255.485 66.9972 256.108 67.0781 256.653 67.0526C257.199 67.027 257.68 66.8224 258.098 66.4389C258.524 66.0554 258.899 65.429 259.223 64.5597L259.696 63.2557L252.511 43.3636H256.602L261.575 58.6023H261.779L266.752 43.3636H270.856L262.764 65.6207C262.389 66.6435 261.912 67.5085 261.332 68.2159C260.752 68.9318 260.062 69.4688 259.261 69.8267C258.46 70.1847 257.531 70.3636 256.474 70.3636ZM282.244 63.3963C280.309 63.3963 278.643 62.983 277.245 62.1562C275.856 61.321 274.782 60.1491 274.023 58.6406C273.273 57.1236 272.898 55.3466 272.898 53.3097C272.898 51.2983 273.273 49.5256 274.023 47.9915C274.782 46.4574 275.839 45.2599 277.194 44.3991C278.558 43.5384 280.151 43.108 281.975 43.108C283.083 43.108 284.157 43.2912 285.197 43.6577C286.237 44.0241 287.17 44.5994 287.996 45.3835C288.823 46.1676 289.475 47.1861 289.952 48.4389C290.43 49.6832 290.668 51.196 290.668 52.9773V54.3324H275.059V51.4688H286.923C286.923 50.4631 286.718 49.5724 286.309 48.7969C285.9 48.0128 285.325 47.3949 284.583 46.9432C283.85 46.4915 282.989 46.2656 282.001 46.2656C280.927 46.2656 279.989 46.5298 279.188 47.0582C278.396 47.5781 277.782 48.2599 277.347 49.1037C276.921 49.9389 276.708 50.8466 276.708 51.8267V54.0639C276.708 55.3764 276.938 56.4929 277.398 57.4134C277.867 58.3338 278.519 59.0369 279.354 59.5227C280.19 60 281.165 60.2386 282.282 60.2386C283.006 60.2386 283.667 60.1364 284.263 59.9318C284.86 59.7187 285.376 59.4034 285.81 58.9858C286.245 58.5682 286.577 58.0526 286.808 57.4389L290.425 58.0909C290.136 59.1562 289.616 60.0895 288.866 60.8906C288.124 61.6832 287.191 62.3011 286.066 62.7443C284.95 63.179 283.675 63.3963 282.244 63.3963ZM305.929 58.2699L312.27 43.3636H315.569L307.348 63H304.51L296.456 43.3636H299.716L305.929 58.2699ZM298.655 43.3636V63H294.909V43.3636H298.655ZM313.306 63V43.3636H317.026V63H313.306ZM39.5696 107V87.3636H55.5881V107H51.8423V90.6619H43.2898V107H39.5696ZM69.1616 107.396C67.2269 107.396 65.5607 106.983 64.163 106.156C62.7738 105.321 61.6999 104.149 60.9414 102.641C60.1914 101.124 59.8164 99.3466 59.8164 97.3097C59.8164 95.2983 60.1914 93.5256 60.9414 91.9915C61.6999 90.4574 62.7567 89.2599 64.1119 88.3991C65.4755 87.5384 67.0692 87.108 68.8931 87.108C70.0011 87.108 71.0749 87.2912 72.1147 87.6577C73.1545 88.0241 74.0877 88.5994 74.9144 89.3835C75.7411 90.1676 76.3931 91.1861 76.8704 92.4389C77.3477 93.6832 77.5863 95.196 77.5863 96.9773V98.3324H61.9769V95.4688H73.8406C73.8406 94.4631 73.636 93.5724 73.2269 92.7969C72.8178 92.0128 72.2425 91.3949 71.5011 90.9432C70.7681 90.4915 69.9073 90.2656 68.9187 90.2656C67.8448 90.2656 66.9073 90.5298 66.1062 91.0582C65.3136 91.5781 64.6999 92.2599 64.2653 93.1037C63.8391 93.9389 63.6261 94.8466 63.6261 95.8267V98.0639C63.6261 99.3764 63.8562 100.493 64.3164 101.413C64.7852 102.334 65.4371 103.037 66.2724 103.523C67.1076 104 68.0835 104.239 69.1999 104.239C69.9244 104.239 70.5849 104.136 71.1815 103.932C71.7781 103.719 72.2937 103.403 72.7283 102.986C73.163 102.568 73.4954 102.053 73.7255 101.439L77.3434 102.091C77.0536 103.156 76.5337 104.089 75.7837 104.891C75.0423 105.683 74.109 106.301 72.984 106.744C71.8675 107.179 70.5934 107.396 69.1616 107.396ZM81.8274 114.364V87.3636H85.5604V90.5469H85.88C86.1016 90.1378 86.4212 89.6648 86.8388 89.1278C87.2564 88.5909 87.8359 88.1222 88.5774 87.7216C89.3189 87.3125 90.299 87.108 91.5178 87.108C93.103 87.108 94.5178 87.5085 95.7621 88.3097C97.0064 89.1108 97.9822 90.2656 98.6896 91.7741C99.4055 93.2827 99.7635 95.098 99.7635 97.2202C99.7635 99.3423 99.4098 101.162 98.7024 102.679C97.995 104.187 97.0234 105.351 95.7876 106.169C94.5518 106.979 93.1413 107.384 91.5561 107.384C90.3629 107.384 89.3871 107.183 88.6286 106.783C87.8786 106.382 87.2905 105.913 86.8643 105.376C86.4382 104.839 86.1101 104.362 85.88 103.945H85.6499V114.364H81.8274ZM85.5732 97.1818C85.5732 98.5625 85.7734 99.7727 86.174 100.812C86.5746 101.852 87.1541 102.666 87.9126 103.254C88.6712 103.834 89.6001 104.124 90.6996 104.124C91.8416 104.124 92.7962 103.821 93.5632 103.216C94.3303 102.602 94.9098 101.771 95.3018 100.723C95.7024 99.6747 95.9027 98.4943 95.9027 97.1818C95.9027 95.8864 95.7067 94.723 95.3146 93.6918C94.9311 92.6605 94.3516 91.8466 93.576 91.25C92.8089 90.6534 91.8501 90.3551 90.6996 90.3551C89.5916 90.3551 88.6541 90.6406 87.8871 91.2116C87.1286 91.7827 86.5533 92.5795 86.1612 93.6023C85.7692 94.625 85.5732 95.8182 85.5732 97.1818ZM112.509 107.396C110.575 107.396 108.908 106.983 107.511 106.156C106.121 105.321 105.048 104.149 104.289 102.641C103.539 101.124 103.164 99.3466 103.164 97.3097C103.164 95.2983 103.539 93.5256 104.289 91.9915C105.048 90.4574 106.104 89.2599 107.46 88.3991C108.823 87.5384 110.417 87.108 112.241 87.108C113.349 87.108 114.423 87.2912 115.462 87.6577C116.502 88.0241 117.435 88.5994 118.262 89.3835C119.089 90.1676 119.741 91.1861 120.218 92.4389C120.695 93.6832 120.934 95.196 120.934 96.9773V98.3324H105.325V95.4688H117.188C117.188 94.4631 116.984 93.5724 116.575 92.7969C116.165 92.0128 115.59 91.3949 114.849 90.9432C114.116 90.4915 113.255 90.2656 112.266 90.2656C111.192 90.2656 110.255 90.5298 109.454 91.0582C108.661 91.5781 108.048 92.2599 107.613 93.1037C107.187 93.9389 106.974 94.8466 106.974 95.8267V98.0639C106.974 99.3764 107.204 100.493 107.664 101.413C108.133 102.334 108.785 103.037 109.62 103.523C110.455 104 111.431 104.239 112.548 104.239C113.272 104.239 113.933 104.136 114.529 103.932C115.126 103.719 115.641 103.403 116.076 102.986C116.511 102.568 116.843 102.053 117.073 101.439L120.691 102.091C120.401 103.156 119.881 104.089 119.131 104.891C118.39 105.683 117.457 106.301 116.332 106.744C115.215 107.179 113.941 107.396 112.509 107.396ZM123.257 112.663V103.689H124.855C125.265 103.314 125.61 102.866 125.891 102.347C126.181 101.827 126.424 101.209 126.62 100.493C126.824 99.777 126.995 98.9418 127.131 97.9872C127.267 97.0241 127.387 95.9247 127.489 94.6889L128.103 87.3636H141.449V103.689H144.466V112.663H140.733V107H127.042V112.663H123.257ZM128.946 103.689H137.716V90.6364H131.529L131.12 94.6889C130.924 96.7514 130.676 98.5412 130.378 100.058C130.08 101.567 129.603 102.777 128.946 103.689ZM156.474 107.396C154.633 107.396 153.026 106.974 151.654 106.131C150.282 105.287 149.217 104.107 148.458 102.589C147.7 101.072 147.32 99.2997 147.32 97.2713C147.32 95.2344 147.7 93.4531 148.458 91.9276C149.217 90.402 150.282 89.2173 151.654 88.3736C153.026 87.5298 154.633 87.108 156.474 87.108C158.315 87.108 159.921 87.5298 161.293 88.3736C162.665 89.2173 163.731 90.402 164.489 91.9276C165.248 93.4531 165.627 95.2344 165.627 97.2713C165.627 99.2997 165.248 101.072 164.489 102.589C163.731 104.107 162.665 105.287 161.293 106.131C159.921 106.974 158.315 107.396 156.474 107.396ZM156.487 104.188C157.68 104.188 158.668 103.872 159.452 103.241C160.237 102.611 160.816 101.771 161.191 100.723C161.575 99.6747 161.766 98.5199 161.766 97.2585C161.766 96.0057 161.575 94.8551 161.191 93.8068C160.816 92.75 160.237 91.902 159.452 91.2628C158.668 90.6236 157.68 90.304 156.487 90.304C155.285 90.304 154.288 90.6236 153.495 91.2628C152.711 91.902 152.127 92.75 151.744 93.8068C151.369 94.8551 151.181 96.0057 151.181 97.2585C151.181 98.5199 151.369 99.6747 151.744 100.723C152.127 101.771 152.711 102.611 153.495 103.241C154.288 103.872 155.285 104.188 156.487 104.188ZM169.894 107V87.3636H178.037C180.253 87.3636 182.009 87.8366 183.304 88.7827C184.6 89.7202 185.248 90.9943 185.248 92.6051C185.248 93.7557 184.881 94.6676 184.148 95.3409C183.415 96.0142 182.444 96.4659 181.233 96.696C182.111 96.7983 182.917 97.0625 183.65 97.4886C184.382 97.9062 184.971 98.4687 185.414 99.1761C185.865 99.8835 186.091 100.727 186.091 101.707C186.091 102.747 185.823 103.668 185.286 104.469C184.749 105.261 183.969 105.884 182.946 106.335C181.932 106.778 180.709 107 179.277 107H169.894ZM173.486 103.804H179.277C180.223 103.804 180.965 103.578 181.502 103.126C182.039 102.675 182.307 102.061 182.307 101.286C182.307 100.374 182.039 99.6577 181.502 99.1378C180.965 98.6094 180.223 98.3452 179.277 98.3452H173.486V103.804ZM173.486 95.5455H178.076C178.792 95.5455 179.405 95.4432 179.917 95.2386C180.436 95.0341 180.833 94.7443 181.105 94.3693C181.387 93.9858 181.527 93.5341 181.527 93.0142C181.527 92.2557 181.216 91.6634 180.594 91.2372C179.972 90.8111 179.12 90.598 178.037 90.598H173.486V95.5455ZM193.161 94.1136H198.863C201.266 94.1136 203.115 94.7102 204.411 95.9034C205.706 97.0966 206.354 98.6349 206.354 100.518C206.354 101.746 206.064 102.849 205.485 103.83C204.905 104.81 204.057 105.585 202.941 106.156C201.824 106.719 200.465 107 198.863 107H190.284V87.3636H194.03V103.702H198.863C199.962 103.702 200.865 103.416 201.573 102.845C202.28 102.266 202.634 101.528 202.634 100.634C202.634 99.6875 202.28 98.9162 201.573 98.3196C200.865 97.7145 199.962 97.4119 198.863 97.4119H193.161V94.1136ZM209.141 107V87.3636H212.963V107H209.141ZM226.556 107.396C224.621 107.396 222.955 106.983 221.558 106.156C220.168 105.321 219.094 104.149 218.336 102.641C217.586 101.124 217.211 99.3466 217.211 97.3097C217.211 95.2983 217.586 93.5256 218.336 91.9915C219.094 90.4574 220.151 89.2599 221.506 88.3991C222.87 87.5384 224.464 87.108 226.288 87.108C227.396 87.108 228.469 87.2912 229.509 87.6577C230.549 88.0241 231.482 88.5994 232.309 89.3835C233.136 90.1676 233.788 91.1861 234.265 92.4389C234.742 93.6832 234.981 95.196 234.981 96.9773V98.3324H219.371V95.4688H231.235C231.235 94.4631 231.031 93.5724 230.621 92.7969C230.212 92.0128 229.637 91.3949 228.896 90.9432C228.163 90.4915 227.302 90.2656 226.313 90.2656C225.239 90.2656 224.302 90.5298 223.501 91.0582C222.708 91.5781 222.094 92.2599 221.66 93.1037C221.234 93.9389 221.021 94.8466 221.021 95.8267V98.0639C221.021 99.3764 221.251 100.493 221.711 101.413C222.18 102.334 222.832 103.037 223.667 103.523C224.502 104 225.478 104.239 226.594 104.239C227.319 104.239 227.979 104.136 228.576 103.932C229.173 103.719 229.688 103.403 230.123 102.986C230.558 102.568 230.89 102.053 231.12 101.439L234.738 102.091C234.448 103.156 233.928 104.089 233.178 104.891C232.437 105.683 231.504 106.301 230.379 106.744C229.262 107.179 227.988 107.396 226.556 107.396ZM247.65 90.6619V87.3636H264.218V90.6619H257.813V107H254.08V90.6619H247.65ZM275.81 107.396C273.875 107.396 272.209 106.983 270.811 106.156C269.422 105.321 268.348 104.149 267.59 102.641C266.84 101.124 266.465 99.3466 266.465 97.3097C266.465 95.2983 266.84 93.5256 267.59 91.9915C268.348 90.4574 269.405 89.2599 270.76 88.3991C272.124 87.5384 273.718 87.108 275.542 87.108C276.65 87.108 277.723 87.2912 278.763 87.6577C279.803 88.0241 280.736 88.5994 281.563 89.3835C282.39 90.1676 283.042 91.1861 283.519 92.4389C283.996 93.6832 284.235 95.196 284.235 96.9773V98.3324H268.625V95.4688H280.489C280.489 94.4631 280.284 93.5724 279.875 92.7969C279.466 92.0128 278.891 91.3949 278.15 90.9432C277.417 90.4915 276.556 90.2656 275.567 90.2656C274.493 90.2656 273.556 90.5298 272.755 91.0582C271.962 91.5781 271.348 92.2599 270.914 93.1037C270.488 93.9389 270.275 94.8466 270.275 95.8267V98.0639C270.275 99.3764 270.505 100.493 270.965 101.413C271.434 102.334 272.086 103.037 272.921 103.523C273.756 104 274.732 104.239 275.848 104.239C276.573 104.239 277.233 104.136 277.83 103.932C278.426 103.719 278.942 103.403 279.377 102.986C279.811 102.568 280.144 102.053 280.374 101.439L283.992 102.091C283.702 103.156 283.182 104.089 282.432 104.891C281.691 105.683 280.757 106.301 279.632 106.744C278.516 107.179 277.242 107.396 275.81 107.396ZM291.036 87.3636L295.37 95.0085L299.742 87.3636H303.922L297.799 97.1818L303.973 107H299.793L295.37 99.6619L290.959 107H286.766L292.877 97.1818L286.843 87.3636H291.036ZM321.155 95.5327V98.8438H310.519V95.5327H321.155ZM311.593 87.3636V107H307.847V87.3636H311.593ZM323.827 87.3636V107H320.094V87.3636H323.827ZM337.212 107.396C335.371 107.396 333.765 106.974 332.392 106.131C331.02 105.287 329.955 104.107 329.196 102.589C328.438 101.072 328.059 99.2997 328.059 97.2713C328.059 95.2344 328.438 93.4531 329.196 91.9276C329.955 90.402 331.02 89.2173 332.392 88.3736C333.765 87.5298 335.371 87.108 337.212 87.108C339.053 87.108 340.659 87.5298 342.032 88.3736C343.404 89.2173 344.469 90.402 345.228 91.9276C345.986 93.4531 346.365 95.2344 346.365 97.2713C346.365 99.2997 345.986 101.072 345.228 102.589C344.469 104.107 343.404 105.287 342.032 106.131C340.659 106.974 339.053 107.396 337.212 107.396ZM337.225 104.188C338.418 104.188 339.407 103.872 340.191 103.241C340.975 102.611 341.554 101.771 341.929 100.723C342.313 99.6747 342.505 98.5199 342.505 97.2585C342.505 96.0057 342.313 94.8551 341.929 93.8068C341.554 92.75 340.975 91.902 340.191 91.2628C339.407 90.6236 338.418 90.304 337.225 90.304C336.023 90.304 335.026 90.6236 334.233 91.2628C333.449 91.902 332.865 92.75 332.482 93.8068C332.107 94.8551 331.919 96.0057 331.919 97.2585C331.919 98.5199 332.107 99.6747 332.482 100.723C332.865 101.771 333.449 102.611 334.233 103.241C335.026 103.872 336.023 104.188 337.225 104.188ZM349.085 107L349.072 103.689H349.776C350.321 103.689 350.777 103.574 351.143 103.344C351.518 103.105 351.825 102.705 352.064 102.142C352.303 101.58 352.486 100.804 352.614 99.8153C352.741 98.8182 352.835 97.5653 352.895 96.0568L353.24 87.3636H366.945V107H363.199V90.6619H356.781L356.474 97.3352C356.398 98.9545 356.232 100.369 355.976 101.58C355.729 102.79 355.366 103.8 354.889 104.609C354.412 105.411 353.798 106.011 353.048 106.412C352.298 106.804 351.386 107 350.312 107H349.085ZM380.314 107.396C378.473 107.396 376.866 106.974 375.494 106.131C374.122 105.287 373.056 104.107 372.298 102.589C371.539 101.072 371.16 99.2997 371.16 97.2713C371.16 95.2344 371.539 93.4531 372.298 91.9276C373.056 90.402 374.122 89.2173 375.494 88.3736C376.866 87.5298 378.473 87.108 380.314 87.108C382.154 87.108 383.761 87.5298 385.133 88.3736C386.505 89.2173 387.571 90.402 388.329 91.9276C389.088 93.4531 389.467 95.2344 389.467 97.2713C389.467 99.2997 389.088 101.072 388.329 102.589C387.571 104.107 386.505 105.287 385.133 106.131C383.761 106.974 382.154 107.396 380.314 107.396ZM380.326 104.188C381.52 104.188 382.508 103.872 383.292 103.241C384.076 102.611 384.656 101.771 385.031 100.723C385.414 99.6747 385.606 98.5199 385.606 97.2585C385.606 96.0057 385.414 94.8551 385.031 93.8068C384.656 92.75 384.076 91.902 383.292 91.2628C382.508 90.6236 381.52 90.304 380.326 90.304C379.125 90.304 378.127 90.6236 377.335 91.2628C376.551 91.902 375.967 92.75 375.583 93.8068C375.208 94.8551 375.021 96.0057 375.021 97.2585C375.021 98.5199 375.208 99.6747 375.583 100.723C375.967 101.771 376.551 102.611 377.335 103.241C378.127 103.872 379.125 104.188 380.326 104.188ZM406.288 87.3636V90.6619H397.505V107H393.734V87.3636H406.288ZM414.073 101.643L422.728 87.3636H426.844V107H423.099V92.7074L414.482 107H410.327V87.3636H414.073V101.643ZM435.729 101.643L444.384 87.3636H448.501V107H444.755V92.7074L436.138 107H431.984V87.3636H435.729V101.643ZM458.613 103.42L458.421 104.814C458.293 105.837 458.076 106.902 457.769 108.01C457.471 109.126 457.16 110.162 456.836 111.116C456.521 112.071 456.261 112.83 456.056 113.392H453.346C453.457 112.864 453.61 112.148 453.806 111.244C454.002 110.349 454.194 109.348 454.381 108.24C454.569 107.132 454.71 106.003 454.803 104.852L454.931 103.42H458.613ZM55.3324 131.364V151H51.5994V131.364H55.3324ZM53.7088 140.479V143.777C53.1207 144.016 52.4986 144.229 51.8423 144.416C51.1861 144.595 50.4957 144.736 49.7713 144.838C49.0469 144.94 48.2926 144.991 47.5085 144.991C45.0795 144.991 43.1491 144.399 41.7173 143.214C40.2855 142.021 39.5696 140.197 39.5696 137.743V131.325H43.2898V137.743C43.2898 138.672 43.4602 139.426 43.8011 140.006C44.142 140.585 44.6278 141.011 45.2585 141.284C45.8892 141.557 46.6392 141.693 47.5085 141.693C48.6591 141.693 49.7202 141.587 50.6918 141.374C51.6719 141.152 52.6776 140.854 53.7088 140.479ZM57.9819 134.662V131.364H74.5501V134.662H68.1452V151H64.4123V134.662H57.9819ZM85.9503 151.396C84.1094 151.396 82.5028 150.974 81.1307 150.131C79.7585 149.287 78.6932 148.107 77.9347 146.589C77.1761 145.072 76.7969 143.3 76.7969 141.271C76.7969 139.234 77.1761 137.453 77.9347 135.928C78.6932 134.402 79.7585 133.217 81.1307 132.374C82.5028 131.53 84.1094 131.108 85.9503 131.108C87.7912 131.108 89.3977 131.53 90.7699 132.374C92.142 133.217 93.2074 134.402 93.9659 135.928C94.7244 137.453 95.1037 139.234 95.1037 141.271C95.1037 143.3 94.7244 145.072 93.9659 146.589C93.2074 148.107 92.142 149.287 90.7699 150.131C89.3977 150.974 87.7912 151.396 85.9503 151.396ZM85.9631 148.188C87.1563 148.188 88.1449 147.872 88.929 147.241C89.7131 146.611 90.2926 145.771 90.6676 144.723C91.0511 143.675 91.2429 142.52 91.2429 141.259C91.2429 140.006 91.0511 138.855 90.6676 137.807C90.2926 136.75 89.7131 135.902 88.929 135.263C88.1449 134.624 87.1563 134.304 85.9631 134.304C84.7614 134.304 83.7642 134.624 82.9716 135.263C82.1875 135.902 81.6037 136.75 81.2202 137.807C80.8452 138.855 80.6577 140.006 80.6577 141.259C80.6577 142.52 80.8452 143.675 81.2202 144.723C81.6037 145.771 82.1875 146.611 82.9716 147.241C83.7642 147.872 84.7614 148.188 85.9631 148.188ZM117.169 151.396C115.328 151.396 113.722 150.974 112.349 150.131C110.977 149.287 109.912 148.107 109.153 146.589C108.395 145.072 108.016 143.3 108.016 141.271C108.016 139.234 108.395 137.453 109.153 135.928C109.912 134.402 110.977 133.217 112.349 132.374C113.722 131.53 115.328 131.108 117.169 131.108C119.01 131.108 120.616 131.53 121.989 132.374C123.361 133.217 124.426 134.402 125.185 135.928C125.943 137.453 126.322 139.234 126.322 141.271C126.322 143.3 125.943 145.072 125.185 146.589C124.426 148.107 123.361 149.287 121.989 150.131C120.616 150.974 119.01 151.396 117.169 151.396ZM117.182 148.188C118.375 148.188 119.364 147.872 120.148 147.241C120.932 146.611 121.511 145.771 121.886 144.723C122.27 143.675 122.462 142.52 122.462 141.259C122.462 140.006 122.27 138.855 121.886 137.807C121.511 136.75 120.932 135.902 120.148 135.263C119.364 134.624 118.375 134.304 117.182 134.304C115.98 134.304 114.983 134.624 114.19 135.263C113.406 135.902 112.822 136.75 112.439 137.807C112.064 138.855 111.876 140.006 111.876 141.259C111.876 142.52 112.064 143.675 112.439 144.723C112.822 145.771 113.406 146.611 114.19 147.241C114.983 147.872 115.98 148.188 117.182 148.188ZM145.738 124.051L147.324 126.467C146.735 127.004 146.066 127.388 145.316 127.618C144.575 127.839 143.718 127.98 142.747 128.04C141.775 128.091 140.663 128.138 139.41 128.18C137.995 128.223 136.832 128.53 135.92 129.101C135.008 129.663 134.305 130.499 133.811 131.607C133.325 132.706 133.01 134.087 132.865 135.749H133.108C133.747 134.53 134.633 133.618 135.767 133.013C136.909 132.408 138.191 132.105 139.615 132.105C141.2 132.105 142.61 132.467 143.846 133.192C145.082 133.916 146.054 134.977 146.761 136.375C147.477 137.764 147.835 139.464 147.835 141.476C147.835 143.513 147.46 145.273 146.71 146.756C145.968 148.239 144.92 149.385 143.565 150.195C142.218 150.996 140.629 151.396 138.797 151.396C136.964 151.396 135.366 150.983 134.002 150.156C132.647 149.321 131.595 148.085 130.845 146.449C130.103 144.812 129.733 142.793 129.733 140.389V138.446C129.733 133.955 130.534 130.575 132.136 128.308C133.738 126.041 136.133 124.878 139.321 124.818C140.352 124.793 141.272 124.788 142.082 124.805C142.892 124.814 143.599 124.776 144.204 124.69C144.818 124.597 145.329 124.384 145.738 124.051ZM138.809 148.188C139.875 148.188 140.791 147.919 141.558 147.382C142.333 146.837 142.93 146.065 143.348 145.068C143.765 144.071 143.974 142.895 143.974 141.54C143.974 140.21 143.765 139.081 143.348 138.152C142.93 137.223 142.333 136.516 141.558 136.03C140.782 135.536 139.853 135.288 138.771 135.288C137.97 135.288 137.254 135.429 136.623 135.71C135.993 135.983 135.451 136.388 135 136.925C134.556 137.462 134.211 138.118 133.964 138.893C133.725 139.661 133.598 140.543 133.581 141.54C133.581 143.568 134.045 145.183 134.974 146.385C135.912 147.587 137.19 148.188 138.809 148.188ZM160.568 151.396C158.633 151.396 156.967 150.983 155.569 150.156C154.18 149.321 153.106 148.149 152.348 146.641C151.598 145.124 151.223 143.347 151.223 141.31C151.223 139.298 151.598 137.526 152.348 135.991C153.106 134.457 154.163 133.26 155.518 132.399C156.882 131.538 158.475 131.108 160.299 131.108C161.407 131.108 162.481 131.291 163.521 131.658C164.561 132.024 165.494 132.599 166.321 133.384C167.147 134.168 167.799 135.186 168.277 136.439C168.754 137.683 168.993 139.196 168.993 140.977V142.332H153.383V139.469H165.247C165.247 138.463 165.042 137.572 164.633 136.797C164.224 136.013 163.649 135.395 162.907 134.943C162.174 134.491 161.314 134.266 160.325 134.266C159.251 134.266 158.314 134.53 157.512 135.058C156.72 135.578 156.106 136.26 155.672 137.104C155.245 137.939 155.032 138.847 155.032 139.827V142.064C155.032 143.376 155.262 144.493 155.723 145.413C156.191 146.334 156.843 147.037 157.679 147.523C158.514 148 159.49 148.239 160.606 148.239C161.331 148.239 161.991 148.136 162.588 147.932C163.184 147.719 163.7 147.403 164.135 146.986C164.569 146.568 164.902 146.053 165.132 145.439L168.75 146.091C168.46 147.156 167.94 148.089 167.19 148.891C166.449 149.683 165.515 150.301 164.39 150.744C163.274 151.179 162 151.396 160.568 151.396ZM181.505 151.396C179.604 151.396 177.968 150.966 176.596 150.105C175.232 149.236 174.184 148.038 173.451 146.513C172.718 144.987 172.352 143.24 172.352 141.271C172.352 139.277 172.727 137.517 173.477 135.991C174.227 134.457 175.283 133.26 176.647 132.399C178.011 131.538 179.617 131.108 181.467 131.108C182.958 131.108 184.288 131.385 185.455 131.939C186.623 132.484 187.565 133.251 188.281 134.24C189.005 135.229 189.435 136.384 189.572 137.705H185.852C185.647 136.784 185.178 135.991 184.445 135.327C183.721 134.662 182.749 134.33 181.531 134.33C180.465 134.33 179.532 134.611 178.731 135.173C177.938 135.727 177.32 136.52 176.877 137.551C176.434 138.574 176.212 139.784 176.212 141.182C176.212 142.614 176.43 143.849 176.864 144.889C177.299 145.929 177.913 146.734 178.705 147.305C179.506 147.876 180.448 148.162 181.531 148.162C182.255 148.162 182.911 148.03 183.499 147.766C184.096 147.493 184.594 147.105 184.995 146.602C185.404 146.099 185.69 145.494 185.852 144.787H189.572C189.435 146.057 189.022 147.19 188.332 148.188C187.641 149.185 186.717 149.969 185.558 150.54C184.407 151.111 183.056 151.396 181.505 151.396ZM193.659 151V131.364H209.678V151H205.932V134.662H197.38V151H193.659ZM223.251 151.396C221.317 151.396 219.651 150.983 218.253 150.156C216.864 149.321 215.79 148.149 215.031 146.641C214.281 145.124 213.906 143.347 213.906 141.31C213.906 139.298 214.281 137.526 215.031 135.991C215.79 134.457 216.847 133.26 218.202 132.399C219.565 131.538 221.159 131.108 222.983 131.108C224.091 131.108 225.165 131.291 226.205 131.658C227.244 132.024 228.178 132.599 229.004 133.384C229.831 134.168 230.483 135.186 230.96 136.439C231.438 137.683 231.676 139.196 231.676 140.977V142.332H216.067V139.469H227.93C227.93 138.463 227.726 137.572 227.317 136.797C226.908 136.013 226.332 135.395 225.591 134.943C224.858 134.491 223.997 134.266 223.009 134.266C221.935 134.266 220.997 134.53 220.196 135.058C219.403 135.578 218.79 136.26 218.355 137.104C217.929 137.939 217.716 138.847 217.716 139.827V142.064C217.716 143.376 217.946 144.493 218.406 145.413C218.875 146.334 219.527 147.037 220.362 147.523C221.197 148 222.173 148.239 223.29 148.239C224.014 148.239 224.675 148.136 225.271 147.932C225.868 147.719 226.384 147.403 226.818 146.986C227.253 146.568 227.585 146.053 227.815 145.439L231.433 146.091C231.143 147.156 230.624 148.089 229.874 148.891C229.132 149.683 228.199 150.301 227.074 150.744C225.957 151.179 224.683 151.396 223.251 151.396ZM251.68 131.364V151H247.947V131.364H251.68ZM250.056 140.479V143.777C249.468 144.016 248.846 144.229 248.19 144.416C247.534 144.595 246.843 144.736 246.119 144.838C245.395 144.94 244.64 144.991 243.856 144.991C241.427 144.991 239.497 144.399 238.065 143.214C236.633 142.021 235.917 140.197 235.917 137.743V131.325H239.637V137.743C239.637 138.672 239.808 139.426 240.149 140.006C240.49 140.585 240.975 141.011 241.606 141.284C242.237 141.557 242.987 141.693 243.856 141.693C245.007 141.693 246.068 141.587 247.039 141.374C248.02 141.152 249.025 140.854 250.056 140.479ZM260.511 145.643L269.165 131.364H273.282V151H269.536V136.707L260.92 151H256.765V131.364H260.511V145.643ZM278.421 151V131.364H286.565C288.781 131.364 290.536 131.837 291.832 132.783C293.127 133.72 293.775 134.994 293.775 136.605C293.775 137.756 293.408 138.668 292.675 139.341C291.942 140.014 290.971 140.466 289.761 140.696C290.638 140.798 291.444 141.062 292.177 141.489C292.91 141.906 293.498 142.469 293.941 143.176C294.393 143.884 294.619 144.727 294.619 145.707C294.619 146.747 294.35 147.668 293.813 148.469C293.276 149.261 292.496 149.884 291.474 150.335C290.46 150.778 289.237 151 287.805 151H278.421ZM282.013 147.804H287.805C288.751 147.804 289.492 147.578 290.029 147.126C290.566 146.675 290.835 146.061 290.835 145.286C290.835 144.374 290.566 143.658 290.029 143.138C289.492 142.609 288.751 142.345 287.805 142.345H282.013V147.804ZM282.013 139.545H286.603C287.319 139.545 287.933 139.443 288.444 139.239C288.964 139.034 289.36 138.744 289.633 138.369C289.914 137.986 290.055 137.534 290.055 137.014C290.055 136.256 289.744 135.663 289.121 135.237C288.499 134.811 287.647 134.598 286.565 134.598H282.013V139.545ZM304.526 151.435C303.282 151.435 302.157 151.205 301.151 150.744C300.146 150.276 299.349 149.598 298.761 148.712C298.181 147.825 297.891 146.739 297.891 145.452C297.891 144.344 298.104 143.432 298.531 142.716C298.957 142 299.532 141.433 300.256 141.016C300.981 140.598 301.79 140.283 302.685 140.07C303.58 139.857 304.492 139.695 305.421 139.584C306.597 139.447 307.552 139.337 308.285 139.251C309.018 139.158 309.55 139.009 309.883 138.804C310.215 138.599 310.381 138.267 310.381 137.807V137.717C310.381 136.601 310.066 135.736 309.435 135.122C308.813 134.509 307.884 134.202 306.648 134.202C305.362 134.202 304.347 134.487 303.606 135.058C302.873 135.621 302.366 136.247 302.085 136.938L298.492 136.119C298.918 134.926 299.54 133.963 300.359 133.23C301.185 132.489 302.136 131.952 303.21 131.619C304.283 131.278 305.413 131.108 306.597 131.108C307.381 131.108 308.212 131.202 309.09 131.389C309.977 131.568 310.803 131.901 311.57 132.386C312.346 132.872 312.981 133.567 313.475 134.47C313.969 135.365 314.217 136.528 314.217 137.96V151H310.484V148.315H310.33C310.083 148.81 309.712 149.295 309.218 149.773C308.724 150.25 308.089 150.646 307.313 150.962C306.538 151.277 305.609 151.435 304.526 151.435ZM305.357 148.366C306.414 148.366 307.317 148.158 308.067 147.74C308.826 147.322 309.401 146.777 309.793 146.104C310.194 145.422 310.394 144.693 310.394 143.918V141.386C310.258 141.523 309.994 141.651 309.602 141.77C309.218 141.881 308.779 141.979 308.285 142.064C307.79 142.141 307.309 142.213 306.84 142.281C306.371 142.341 305.979 142.392 305.664 142.435C304.923 142.528 304.245 142.686 303.631 142.908C303.026 143.129 302.54 143.449 302.174 143.866C301.816 144.276 301.637 144.821 301.637 145.503C301.637 146.449 301.987 147.165 302.685 147.651C303.384 148.128 304.275 148.366 305.357 148.366ZM327.771 151.396C325.836 151.396 324.17 150.983 322.772 150.156C321.383 149.321 320.309 148.149 319.551 146.641C318.801 145.124 318.426 143.347 318.426 141.31C318.426 139.298 318.801 137.526 319.551 135.991C320.309 134.457 321.366 133.26 322.721 132.399C324.085 131.538 325.679 131.108 327.502 131.108C328.61 131.108 329.684 131.291 330.724 131.658C331.764 132.024 332.697 132.599 333.524 133.384C334.35 134.168 335.002 135.186 335.48 136.439C335.957 137.683 336.196 139.196 336.196 140.977V142.332H320.586V139.469H332.45C332.45 138.463 332.245 137.572 331.836 136.797C331.427 136.013 330.852 135.395 330.11 134.943C329.377 134.491 328.517 134.266 327.528 134.266C326.454 134.266 325.517 134.53 324.716 135.058C323.923 135.578 323.309 136.26 322.875 137.104C322.449 137.939 322.235 138.847 322.235 139.827V142.064C322.235 143.376 322.466 144.493 322.926 145.413C323.395 146.334 324.047 147.037 324.882 147.523C325.717 148 326.693 148.239 327.809 148.239C328.534 148.239 329.194 148.136 329.791 147.932C330.387 147.719 330.903 147.403 331.338 146.986C331.772 146.568 332.105 146.053 332.335 145.439L335.953 146.091C335.663 147.156 335.143 148.089 334.393 148.891C333.652 149.683 332.718 150.301 331.593 150.744C330.477 151.179 329.203 151.396 327.771 151.396ZM338.705 134.662V131.364H355.273V134.662H348.868V151H345.135V134.662H338.705ZM361.834 151.243C361.135 151.243 360.534 150.996 360.032 150.501C359.529 149.999 359.277 149.393 359.277 148.686C359.277 147.987 359.529 147.391 360.032 146.896C360.534 146.393 361.135 146.142 361.834 146.142C362.533 146.142 363.134 146.393 363.637 146.896C364.14 147.391 364.391 147.987 364.391 148.686C364.391 149.155 364.272 149.585 364.033 149.977C363.803 150.361 363.496 150.668 363.113 150.898C362.729 151.128 362.303 151.243 361.834 151.243ZM361.834 136.95C361.135 136.95 360.534 136.699 360.032 136.196C359.529 135.693 359.277 135.092 359.277 134.393C359.277 133.695 359.529 133.098 360.032 132.604C360.534 132.101 361.135 131.849 361.834 131.849C362.533 131.849 363.134 132.101 363.637 132.604C364.14 133.098 364.391 133.695 364.391 134.393C364.391 134.862 364.272 135.293 364.033 135.685C363.803 136.068 363.496 136.375 363.113 136.605C362.729 136.835 362.303 136.95 361.834 136.95Z" fill="#A39078"/>
<path d="M298.55 217.372L302.072 209.091H303.905L299.338 220H297.761L293.287 209.091H295.098L298.55 217.372ZM294.509 209.091V220H292.428V209.091H294.509ZM302.648 220V209.091H304.714V220H302.648ZM309.626 217.024L314.434 209.091H316.721V220H314.64V212.06L309.853 220H307.545V209.091H309.626V217.024ZM326.969 213.629V215.469H321.06V213.629H326.969ZM321.657 209.091V220H319.576V209.091H321.657ZM328.454 209.091V220H326.38V209.091H328.454ZM333.376 217.024L338.184 209.091H340.471V220H338.39V212.06L333.603 220H331.295V209.091H333.376V217.024ZM349.448 217.372L352.971 209.091H354.803L350.237 220H348.66L344.185 209.091H345.996L349.448 217.372ZM345.407 209.091V220H343.326V209.091H345.407ZM353.546 220V209.091H355.613V220H353.546ZM360.524 217.024L365.332 209.091H367.619V220H365.538V212.06L360.751 220H358.443V209.091H360.524V217.024ZM369.828 217.116H372.001C372.03 217.562 372.231 217.905 372.605 218.146C372.984 218.388 373.474 218.509 374.075 218.509C374.686 218.509 375.207 218.378 375.638 218.118C376.069 217.853 376.284 217.443 376.284 216.889C376.284 216.558 376.201 216.269 376.036 216.023C375.875 215.772 375.645 215.578 375.347 215.44C375.053 215.303 374.705 215.234 374.303 215.234H372.527V213.565H374.303C374.904 213.565 375.354 213.428 375.652 213.153C375.95 212.879 376.099 212.536 376.099 212.124C376.099 211.679 375.938 211.321 375.616 211.051C375.299 210.777 374.857 210.639 374.288 210.639C373.711 210.639 373.23 210.769 372.847 211.03C372.463 211.286 372.262 211.617 372.243 212.024H370.098C370.112 211.413 370.297 210.878 370.652 210.419C371.012 209.955 371.495 209.595 372.101 209.339C372.712 209.079 373.405 208.949 374.182 208.949C374.991 208.949 375.692 209.079 376.284 209.339C376.876 209.6 377.333 209.96 377.655 210.419C377.982 210.878 378.145 211.406 378.145 212.003C378.145 212.604 377.965 213.097 377.605 213.48C377.25 213.859 376.786 214.131 376.213 214.297V214.411C376.634 214.439 377.009 214.567 377.335 214.794C377.662 215.021 377.918 215.322 378.102 215.696C378.287 216.07 378.379 216.494 378.379 216.967C378.379 217.635 378.195 218.213 377.825 218.7C377.461 219.188 376.954 219.564 376.305 219.83C375.661 220.09 374.925 220.22 374.097 220.22C373.292 220.22 372.57 220.095 371.93 219.844C371.296 219.588 370.792 219.228 370.418 218.764C370.048 218.3 369.852 217.751 369.828 217.116ZM383.747 220.241C383.056 220.241 382.431 220.114 381.872 219.858C381.313 219.598 380.87 219.221 380.544 218.729C380.222 218.236 380.061 217.633 380.061 216.918C380.061 216.302 380.179 215.795 380.416 215.398C380.653 215 380.972 214.685 381.375 214.453C381.777 214.221 382.227 214.046 382.724 213.928C383.221 213.809 383.728 213.719 384.244 213.658C384.897 213.582 385.428 213.52 385.835 213.473C386.242 213.421 386.538 213.338 386.723 213.224C386.907 213.111 387 212.926 387 212.67V212.621C387 212 386.824 211.52 386.474 211.179C386.128 210.838 385.612 210.668 384.926 210.668C384.211 210.668 383.647 210.826 383.235 211.143C382.828 211.456 382.547 211.804 382.39 212.188L380.395 211.733C380.631 211.07 380.977 210.535 381.431 210.128C381.891 209.716 382.419 209.418 383.015 209.233C383.612 209.044 384.239 208.949 384.897 208.949C385.333 208.949 385.795 209.001 386.282 209.105C386.775 209.205 387.234 209.389 387.66 209.659C388.091 209.929 388.444 210.315 388.718 210.817C388.993 211.314 389.13 211.96 389.13 212.756V220H387.056V218.509H386.971C386.834 218.783 386.628 219.053 386.353 219.318C386.079 219.583 385.726 219.804 385.295 219.979C384.864 220.154 384.348 220.241 383.747 220.241ZM384.208 218.537C384.796 218.537 385.297 218.421 385.714 218.189C386.136 217.957 386.455 217.654 386.673 217.28C386.895 216.901 387.007 216.496 387.007 216.065V214.659C386.931 214.735 386.784 214.806 386.566 214.872C386.353 214.934 386.109 214.988 385.835 215.036C385.56 215.078 385.293 215.118 385.032 215.156C384.772 215.189 384.554 215.218 384.379 215.241C383.967 215.294 383.591 215.381 383.25 215.504C382.913 215.627 382.644 215.805 382.44 216.037C382.241 216.264 382.142 216.567 382.142 216.946C382.142 217.472 382.336 217.869 382.724 218.139C383.112 218.404 383.607 218.537 384.208 218.537ZM400.858 209.091V218.26H402.456V223.516H400.361V220H391.959V209.091H394.04V218.168H398.784V209.091H400.858ZM406.891 217.024L411.7 209.091H413.987V220H411.906V212.06L407.119 220H404.81V209.091H406.891V217.024ZM422.332 213.707V215.554H416.515V213.707H422.332ZM418.241 209.091V220H416.117V209.091H418.241ZM425.656 220.22C424.642 220.22 423.757 219.983 422.999 219.51C422.242 219.036 421.655 218.378 421.238 217.536C420.821 216.688 420.613 215.705 420.613 214.588C420.613 213.461 420.821 212.476 421.238 211.634C421.655 210.786 422.242 210.128 422.999 209.659C423.757 209.186 424.642 208.949 425.656 208.949C426.674 208.949 427.559 209.186 428.312 209.659C429.069 210.128 429.656 210.786 430.073 211.634C430.495 212.476 430.705 213.461 430.705 214.588C430.705 215.705 430.495 216.688 430.073 217.536C429.656 218.378 429.069 219.036 428.312 219.51C427.559 219.983 426.674 220.22 425.656 220.22ZM425.656 218.402C426.342 218.402 426.903 218.229 427.339 217.884C427.779 217.533 428.103 217.069 428.312 216.491C428.52 215.914 428.624 215.279 428.624 214.588C428.624 213.892 428.52 213.255 428.312 212.678C428.103 212.095 427.779 211.629 427.339 211.278C426.903 210.928 426.342 210.753 425.656 210.753C424.974 210.753 424.413 210.928 423.972 211.278C423.532 211.629 423.208 212.095 422.999 212.678C422.791 213.255 422.687 213.892 422.687 214.588C422.687 215.279 422.791 215.914 422.999 216.491C423.208 217.069 423.532 217.533 423.972 217.884C424.413 218.229 424.974 218.402 425.656 218.402ZM292.534 248.091V233.091H294.153V234.824H294.352C294.475 234.634 294.646 234.393 294.864 234.099C295.086 233.801 295.403 233.536 295.815 233.304C296.232 233.067 296.795 232.949 297.506 232.949C298.424 232.949 299.234 233.179 299.935 233.638C300.635 234.097 301.182 234.748 301.575 235.591C301.968 236.434 302.165 237.428 302.165 238.574C302.165 239.729 301.968 240.731 301.575 241.578C301.182 242.421 300.638 243.074 299.942 243.538C299.246 243.998 298.443 244.227 297.534 244.227C296.833 244.227 296.272 244.111 295.851 243.879C295.429 243.643 295.105 243.375 294.878 243.077C294.651 242.774 294.475 242.523 294.352 242.324H294.21V248.091H292.534ZM294.182 238.545C294.182 239.369 294.303 240.096 294.544 240.726C294.786 241.351 295.138 241.841 295.602 242.196C296.066 242.546 296.634 242.722 297.307 242.722C298.008 242.722 298.592 242.537 299.061 242.168C299.535 241.794 299.89 241.292 300.126 240.662C300.368 240.027 300.489 239.322 300.489 238.545C300.489 237.778 300.37 237.087 300.134 236.472C299.902 235.851 299.549 235.361 299.075 235.001C298.607 234.637 298.017 234.455 297.307 234.455C296.625 234.455 296.052 234.627 295.588 234.973C295.124 235.314 294.774 235.792 294.537 236.408C294.3 237.018 294.182 237.731 294.182 238.545ZM306.398 241.528L311.653 233.091H313.585V244H311.909V235.562L306.682 244H304.722V233.091H306.398V241.528ZM321.087 244.227C320.064 244.227 319.184 243.986 318.445 243.503C317.706 243.02 317.138 242.355 316.74 241.507C316.343 240.66 316.144 239.691 316.144 238.602C316.144 237.494 316.347 236.517 316.755 235.669C317.167 234.817 317.739 234.152 318.473 233.673C319.212 233.19 320.074 232.949 321.059 232.949C321.826 232.949 322.517 233.091 323.132 233.375C323.748 233.659 324.252 234.057 324.645 234.568C325.038 235.08 325.282 235.676 325.377 236.358H323.701C323.573 235.861 323.289 235.42 322.848 235.037C322.413 234.649 321.826 234.455 321.087 234.455C320.434 234.455 319.861 234.625 319.368 234.966C318.881 235.302 318.499 235.778 318.225 236.393C317.955 237.004 317.82 237.722 317.82 238.545C317.82 239.388 317.953 240.122 318.218 240.747C318.488 241.372 318.866 241.857 319.354 242.203C319.846 242.549 320.424 242.722 321.087 242.722C321.523 242.722 321.918 242.646 322.273 242.494C322.628 242.343 322.929 242.125 323.175 241.841C323.421 241.557 323.596 241.216 323.701 240.818H325.377C325.282 241.462 325.048 242.042 324.674 242.558C324.304 243.07 323.814 243.477 323.203 243.78C322.597 244.078 321.892 244.227 321.087 244.227ZM327.827 244V233.091H329.503V237.835H330.611L334.532 233.091H336.691L332.287 238.347L336.748 244H334.588L331.009 239.398H329.503V244H327.827ZM342.552 244.227C341.567 244.227 340.703 243.993 339.96 243.524C339.221 243.055 338.643 242.4 338.227 241.557C337.815 240.714 337.609 239.729 337.609 238.602C337.609 237.466 337.815 236.474 338.227 235.626C338.643 234.779 339.221 234.121 339.96 233.652C340.703 233.183 341.567 232.949 342.552 232.949C343.537 232.949 344.398 233.183 345.137 233.652C345.88 234.121 346.458 234.779 346.87 235.626C347.287 236.474 347.495 237.466 347.495 238.602C347.495 239.729 347.287 240.714 346.87 241.557C346.458 242.4 345.88 243.055 345.137 243.524C344.398 243.993 343.537 244.227 342.552 244.227ZM342.552 242.722C343.3 242.722 343.915 242.53 344.398 242.146C344.881 241.763 345.239 241.259 345.471 240.634C345.703 240.009 345.819 239.331 345.819 238.602C345.819 237.873 345.703 237.194 345.471 236.564C345.239 235.934 344.881 235.425 344.398 235.037C343.915 234.649 343.3 234.455 342.552 234.455C341.804 234.455 341.188 234.649 340.705 235.037C340.222 235.425 339.865 235.934 339.633 236.564C339.401 237.194 339.285 237.873 339.285 238.602C339.285 239.331 339.401 240.009 339.633 240.634C339.865 241.259 340.222 241.763 340.705 242.146C341.188 242.53 341.804 242.722 342.552 242.722ZM350.054 244V233.091H354.514C355.688 233.091 356.621 233.356 357.312 233.886C358.003 234.417 358.349 235.117 358.349 235.989C358.349 236.652 358.153 237.165 357.76 237.53C357.367 237.89 356.862 238.134 356.247 238.261C356.649 238.318 357.04 238.46 357.419 238.688C357.802 238.915 358.119 239.227 358.37 239.625C358.621 240.018 358.747 240.501 358.747 241.074C358.747 241.633 358.605 242.132 358.321 242.572C358.037 243.013 357.629 243.361 357.099 243.616C356.569 243.872 355.934 244 355.196 244H350.054ZM351.645 242.466H355.196C355.773 242.466 356.225 242.329 356.552 242.054C356.879 241.779 357.042 241.405 357.042 240.932C357.042 240.368 356.879 239.926 356.552 239.604C356.225 239.277 355.773 239.114 355.196 239.114H351.645V242.466ZM351.645 237.665H354.514C354.964 237.665 355.35 237.603 355.672 237.48C355.993 237.352 356.24 237.172 356.41 236.94C356.585 236.704 356.673 236.424 356.673 236.102C356.673 235.643 356.481 235.283 356.098 235.023C355.714 234.758 355.186 234.625 354.514 234.625H351.645V237.665Z" fill="#A39078"/>
<path d="M511.428 220V209.091H520.327V220H518.246V210.923H513.494V220H511.428ZM523.166 224.091V209.091H525.24V210.859H525.417C525.54 210.632 525.718 210.369 525.95 210.071C526.182 209.773 526.504 209.512 526.916 209.29C527.328 209.062 527.872 208.949 528.549 208.949C529.43 208.949 530.216 209.171 530.907 209.616C531.599 210.062 532.141 210.703 532.534 211.541C532.931 212.379 533.13 213.388 533.13 214.567C533.13 215.746 532.934 216.757 532.541 217.599C532.148 218.437 531.608 219.084 530.922 219.538C530.235 219.988 529.451 220.213 528.571 220.213C527.908 220.213 527.366 220.102 526.944 219.879C526.528 219.657 526.201 219.396 525.964 219.098C525.727 218.8 525.545 218.535 525.417 218.303H525.289V224.091H523.166ZM525.247 214.545C525.247 215.312 525.358 215.985 525.581 216.562C525.803 217.14 526.125 217.592 526.547 217.919C526.968 218.241 527.484 218.402 528.095 218.402C528.729 218.402 529.26 218.234 529.686 217.898C530.112 217.557 530.434 217.095 530.652 216.513C530.874 215.93 530.985 215.275 530.985 214.545C530.985 213.826 530.877 213.179 530.659 212.607C530.446 212.034 530.124 211.581 529.693 211.25C529.267 210.919 528.734 210.753 528.095 210.753C527.479 210.753 526.958 210.911 526.532 211.229C526.111 211.546 525.791 211.989 525.574 212.557C525.356 213.125 525.247 213.788 525.247 214.545ZM540.105 220.22C539.082 220.22 538.19 219.986 537.427 219.517C536.665 219.048 536.073 218.393 535.652 217.55C535.23 216.707 535.02 215.722 535.02 214.595C535.02 213.464 535.23 212.474 535.652 211.626C536.073 210.779 536.665 210.121 537.427 209.652C538.19 209.183 539.082 208.949 540.105 208.949C541.127 208.949 542.02 209.183 542.782 209.652C543.545 210.121 544.136 210.779 544.558 211.626C544.979 212.474 545.19 213.464 545.19 214.595C545.19 215.722 544.979 216.707 544.558 217.55C544.136 218.393 543.545 219.048 542.782 219.517C542.02 219.986 541.127 220.22 540.105 220.22ZM540.112 218.438C540.775 218.438 541.324 218.262 541.76 217.912C542.195 217.562 542.517 217.095 542.725 216.513C542.939 215.93 543.045 215.289 543.045 214.588C543.045 213.892 542.939 213.253 542.725 212.67C542.517 212.083 542.195 211.612 541.76 211.257C541.324 210.902 540.775 210.724 540.112 210.724C539.444 210.724 538.89 210.902 538.45 211.257C538.014 211.612 537.69 212.083 537.477 212.67C537.269 213.253 537.164 213.892 537.164 214.588C537.164 215.289 537.269 215.93 537.477 216.513C537.69 217.095 538.014 217.562 538.45 217.912C538.89 218.262 539.444 218.438 540.112 218.438ZM546.914 217.116H549.087C549.116 217.562 549.317 217.905 549.691 218.146C550.07 218.388 550.56 218.509 551.161 218.509C551.772 218.509 552.293 218.378 552.724 218.118C553.155 217.853 553.37 217.443 553.37 216.889C553.37 216.558 553.287 216.269 553.121 216.023C552.96 215.772 552.731 215.578 552.433 215.44C552.139 215.303 551.791 215.234 551.388 215.234H549.613V213.565H551.388C551.99 213.565 552.44 213.428 552.738 213.153C553.036 212.879 553.185 212.536 553.185 212.124C553.185 211.679 553.024 211.321 552.702 211.051C552.385 210.777 551.942 210.639 551.374 210.639C550.797 210.639 550.316 210.769 549.933 211.03C549.549 211.286 549.348 211.617 549.329 212.024H547.184C547.198 211.413 547.383 210.878 547.738 210.419C548.098 209.955 548.581 209.595 549.187 209.339C549.798 209.079 550.491 208.949 551.268 208.949C552.077 208.949 552.778 209.079 553.37 209.339C553.962 209.6 554.419 209.96 554.741 210.419C555.067 210.878 555.231 211.406 555.231 212.003C555.231 212.604 555.051 213.097 554.691 213.48C554.336 213.859 553.872 214.131 553.299 214.297V214.411C553.72 214.439 554.094 214.567 554.421 214.794C554.748 215.021 555.004 215.322 555.188 215.696C555.373 216.07 555.465 216.494 555.465 216.967C555.465 217.635 555.281 218.213 554.911 218.7C554.547 219.188 554.04 219.564 553.391 219.83C552.747 220.09 552.011 220.22 551.183 220.22C550.378 220.22 549.656 220.095 549.016 219.844C548.382 219.588 547.878 219.228 547.504 218.764C547.134 218.3 546.938 217.751 546.914 217.116ZM557.658 224.091V209.091H559.732V210.859H559.909C560.033 210.632 560.21 210.369 560.442 210.071C560.674 209.773 560.996 209.512 561.408 209.29C561.82 209.062 562.364 208.949 563.042 208.949C563.922 208.949 564.708 209.171 565.4 209.616C566.091 210.062 566.633 210.703 567.026 211.541C567.424 212.379 567.623 213.388 567.623 214.567C567.623 215.746 567.426 216.757 567.033 217.599C566.64 218.437 566.1 219.084 565.414 219.538C564.727 219.988 563.944 220.213 563.063 220.213C562.4 220.213 561.858 220.102 561.436 219.879C561.02 219.657 560.693 219.396 560.456 219.098C560.22 218.8 560.037 218.535 559.909 218.303H559.782V224.091H557.658ZM559.739 214.545C559.739 215.312 559.85 215.985 560.073 216.562C560.295 217.14 560.617 217.592 561.039 217.919C561.46 218.241 561.976 218.402 562.587 218.402C563.221 218.402 563.752 218.234 564.178 217.898C564.604 217.557 564.926 217.095 565.144 216.513C565.366 215.93 565.478 215.275 565.478 214.545C565.478 213.826 565.369 213.179 565.151 212.607C564.938 212.034 564.616 211.581 564.185 211.25C563.759 210.919 563.226 210.753 562.587 210.753C561.971 210.753 561.451 210.911 561.025 211.229C560.603 211.546 560.283 211.989 560.066 212.557C559.848 213.125 559.739 213.788 559.739 214.545ZM573.176 220.241C572.485 220.241 571.86 220.114 571.301 219.858C570.743 219.598 570.3 219.221 569.973 218.729C569.651 218.236 569.49 217.633 569.49 216.918C569.49 216.302 569.609 215.795 569.846 215.398C570.082 215 570.402 214.685 570.804 214.453C571.207 214.221 571.657 214.046 572.154 213.928C572.651 213.809 573.158 213.719 573.674 213.658C574.327 213.582 574.857 213.52 575.265 213.473C575.672 213.421 575.968 213.338 576.152 213.224C576.337 213.111 576.429 212.926 576.429 212.67V212.621C576.429 212 576.254 211.52 575.904 211.179C575.558 210.838 575.042 210.668 574.355 210.668C573.641 210.668 573.077 210.826 572.665 211.143C572.258 211.456 571.976 211.804 571.82 212.188L569.824 211.733C570.061 211.07 570.407 210.535 570.861 210.128C571.32 209.716 571.848 209.418 572.445 209.233C573.042 209.044 573.669 208.949 574.327 208.949C574.763 208.949 575.224 209.001 575.712 209.105C576.204 209.205 576.664 209.389 577.09 209.659C577.521 209.929 577.873 210.315 578.148 210.817C578.423 211.314 578.56 211.96 578.56 212.756V220H576.486V218.509H576.401C576.264 218.783 576.058 219.053 575.783 219.318C575.508 219.583 575.156 219.804 574.725 219.979C574.294 220.154 573.778 220.241 573.176 220.241ZM573.638 218.537C574.225 218.537 574.727 218.421 575.144 218.189C575.565 217.957 575.885 217.654 576.103 217.28C576.325 216.901 576.436 216.496 576.436 216.065V214.659C576.361 214.735 576.214 214.806 575.996 214.872C575.783 214.934 575.539 214.988 575.265 215.036C574.99 215.078 574.722 215.118 574.462 215.156C574.202 215.189 573.984 215.218 573.809 215.241C573.397 215.294 573.02 215.381 572.679 215.504C572.343 215.627 572.073 215.805 571.87 216.037C571.671 216.264 571.571 216.567 571.571 216.946C571.571 217.472 571.766 217.869 572.154 218.139C572.542 218.404 573.037 218.537 573.638 218.537ZM590.146 209.091V220H588.072V209.091H590.146ZM589.244 214.155V215.987C588.917 216.12 588.571 216.238 588.207 216.342C587.842 216.442 587.459 216.52 587.056 216.577C586.654 216.634 586.235 216.662 585.799 216.662C584.45 216.662 583.377 216.333 582.582 215.675C581.786 215.012 581.388 213.999 581.388 212.635V209.07H583.455V212.635C583.455 213.151 583.55 213.57 583.739 213.892C583.929 214.214 584.199 214.451 584.549 214.602C584.899 214.754 585.316 214.83 585.799 214.83C586.438 214.83 587.028 214.77 587.567 214.652C588.112 214.529 588.671 214.363 589.244 214.155ZM600.364 213.629V215.469H594.455V213.629H600.364ZM595.051 209.091V220H592.971V209.091H595.051ZM601.848 209.091V220H599.775V209.091H601.848ZM609.284 220.22C608.262 220.22 607.369 219.986 606.607 219.517C605.845 219.048 605.253 218.393 604.831 217.55C604.41 216.707 604.199 215.722 604.199 214.595C604.199 213.464 604.41 212.474 604.831 211.626C605.253 210.779 605.845 210.121 606.607 209.652C607.369 209.183 608.262 208.949 609.284 208.949C610.307 208.949 611.2 209.183 611.962 209.652C612.724 210.121 613.316 210.779 613.738 211.626C614.159 212.474 614.37 213.464 614.37 214.595C614.37 215.722 614.159 216.707 613.738 217.55C613.316 218.393 612.724 219.048 611.962 219.517C611.2 219.986 610.307 220.22 609.284 220.22ZM609.292 218.438C609.954 218.438 610.504 218.262 610.939 217.912C611.375 217.562 611.697 217.095 611.905 216.513C612.118 215.93 612.225 215.289 612.225 214.588C612.225 213.892 612.118 213.253 611.905 212.67C611.697 212.083 611.375 211.612 610.939 211.257C610.504 210.902 609.954 210.724 609.292 210.724C608.624 210.724 608.07 210.902 607.63 211.257C607.194 211.612 606.87 212.083 606.657 212.67C606.448 213.253 606.344 213.892 606.344 214.588C606.344 215.289 606.448 215.93 606.657 216.513C606.87 217.095 607.194 217.562 607.63 217.912C608.07 218.262 608.624 218.438 609.292 218.438ZM621.335 220.22C620.279 220.22 619.37 219.981 618.608 219.503C617.85 219.02 617.268 218.355 616.861 217.507C616.454 216.66 616.25 215.689 616.25 214.595C616.25 213.487 616.458 212.509 616.875 211.662C617.292 210.81 617.879 210.144 618.636 209.666C619.394 209.188 620.286 208.949 621.314 208.949C622.143 208.949 622.881 209.103 623.53 209.411C624.179 209.714 624.702 210.14 625.099 210.689C625.502 211.238 625.741 211.88 625.817 212.614H623.75C623.636 212.102 623.376 211.662 622.969 211.293C622.566 210.923 622.027 210.739 621.349 210.739C620.758 210.739 620.239 210.895 619.794 211.207C619.354 211.515 619.01 211.955 618.764 212.528C618.518 213.097 618.395 213.769 618.395 214.545C618.395 215.341 618.516 216.027 618.757 216.605C618.999 217.183 619.339 217.63 619.78 217.947C620.225 218.265 620.748 218.423 621.349 218.423C621.752 218.423 622.116 218.35 622.443 218.203C622.775 218.052 623.052 217.836 623.274 217.557C623.501 217.277 623.66 216.941 623.75 216.548H625.817C625.741 217.254 625.511 217.884 625.128 218.438C624.744 218.991 624.231 219.427 623.587 219.744C622.947 220.062 622.197 220.22 621.335 220.22ZM627.262 210.923V209.091H636.467V210.923H632.908V220H630.835V210.923H627.262ZM640.311 212.841H643.478C644.814 212.841 645.841 213.172 646.561 213.835C647.28 214.498 647.64 215.353 647.64 216.399C647.64 217.081 647.479 217.694 647.157 218.239C646.835 218.783 646.364 219.214 645.744 219.531C645.124 219.844 644.368 220 643.478 220H638.713V209.091H640.794V218.168H643.478C644.089 218.168 644.591 218.009 644.984 217.692C645.377 217.37 645.574 216.96 645.574 216.463C645.574 215.937 645.377 215.509 644.984 215.178C644.591 214.841 644.089 214.673 643.478 214.673H640.311V212.841ZM515.966 244.227C514.943 244.227 514.063 243.986 513.324 243.503C512.585 243.02 512.017 242.355 511.619 241.507C511.222 240.66 511.023 239.691 511.023 238.602C511.023 237.494 511.226 236.517 511.634 235.669C512.045 234.817 512.618 234.152 513.352 233.673C514.091 233.19 514.953 232.949 515.938 232.949C516.705 232.949 517.396 233.091 518.011 233.375C518.627 233.659 519.131 234.057 519.524 234.568C519.917 235.08 520.161 235.676 520.256 236.358H518.58C518.452 235.861 518.168 235.42 517.727 235.037C517.292 234.649 516.705 234.455 515.966 234.455C515.313 234.455 514.74 234.625 514.247 234.966C513.759 235.302 513.378 235.778 513.104 236.393C512.834 237.004 512.699 237.722 512.699 238.545C512.699 239.388 512.831 240.122 513.097 240.747C513.366 241.372 513.745 241.857 514.233 242.203C514.725 242.549 515.303 242.722 515.966 242.722C516.402 242.722 516.797 242.646 517.152 242.494C517.507 242.343 517.808 242.125 518.054 241.841C518.3 241.557 518.475 241.216 518.58 240.818H520.256C520.161 241.462 519.927 242.042 519.553 242.558C519.183 243.07 518.693 243.477 518.082 243.78C517.476 244.078 516.771 244.227 515.966 244.227ZM521.541 247.125V242.438H522.45C522.673 242.205 522.865 241.955 523.026 241.685C523.187 241.415 523.326 241.095 523.445 240.726C523.568 240.352 523.672 239.897 523.757 239.362C523.842 238.822 523.918 238.171 523.984 237.409L524.354 233.091H531.286V242.438H532.962V247.125H531.286V244H523.217V247.125H521.541ZM524.354 242.438H529.609V234.653H525.916L525.632 237.409C525.514 238.55 525.367 239.547 525.192 240.399C525.017 241.251 524.737 241.931 524.354 242.438ZM539.76 244.227C538.709 244.227 537.802 243.995 537.04 243.531C536.283 243.062 535.698 242.409 535.286 241.571C534.879 240.728 534.675 239.748 534.675 238.631C534.675 237.513 534.879 236.528 535.286 235.676C535.698 234.819 536.271 234.152 537.005 233.673C537.743 233.19 538.605 232.949 539.59 232.949C540.158 232.949 540.719 233.044 541.273 233.233C541.827 233.422 542.331 233.73 542.786 234.156C543.24 234.578 543.603 235.136 543.873 235.832C544.142 236.528 544.277 237.385 544.277 238.403V239.114H535.868V237.665H542.573C542.573 237.049 542.45 236.5 542.203 236.017C541.962 235.534 541.616 235.153 541.167 234.874C540.721 234.594 540.196 234.455 539.59 234.455C538.922 234.455 538.345 234.62 537.857 234.952C537.374 235.278 537.002 235.705 536.742 236.23C536.481 236.756 536.351 237.319 536.351 237.92V238.886C536.351 239.71 536.493 240.409 536.777 240.982C537.066 241.55 537.466 241.983 537.978 242.281C538.489 242.575 539.083 242.722 539.76 242.722C540.201 242.722 540.598 242.66 540.953 242.537C541.313 242.409 541.623 242.22 541.884 241.969C542.144 241.713 542.346 241.396 542.488 241.017L544.107 241.472C543.936 242.021 543.65 242.504 543.248 242.92C542.845 243.332 542.348 243.654 541.756 243.886C541.164 244.114 540.499 244.227 539.76 244.227ZM545.861 244V242.438H546.259C546.586 242.438 546.858 242.374 547.076 242.246C547.293 242.113 547.469 241.884 547.601 241.557C547.739 241.225 547.843 240.766 547.914 240.179C547.989 239.587 548.044 238.834 548.077 237.92L548.276 233.091H555.549V244H553.873V234.653H549.867L549.696 238.545C549.658 239.44 549.578 240.229 549.455 240.911C549.337 241.588 549.154 242.156 548.908 242.615C548.667 243.074 548.345 243.42 547.942 243.652C547.54 243.884 547.035 244 546.429 244H545.861ZM558.624 244V233.091H560.3V237.835H561.408L565.328 233.091H567.488L563.084 238.347L567.544 244H565.385L561.806 239.398H560.3V244H558.624ZM571.042 241.528L576.298 233.091H578.23V244H576.554V235.562L571.326 244H569.366V233.091H571.042V241.528Z" fill="#A39078"/>
<path d="M56.6023 220.241C55.911 220.241 55.286 220.114 54.7273 219.858C54.1686 219.598 53.7259 219.221 53.3991 218.729C53.0772 218.236 52.9162 217.633 52.9162 216.918C52.9162 216.302 53.0346 215.795 53.2713 215.398C53.508 215 53.8277 214.685 54.2301 214.453C54.6326 214.221 55.0824 214.046 55.5795 213.928C56.0767 213.809 56.5833 213.719 57.0994 213.658C57.7528 213.582 58.2831 213.52 58.6903 213.473C59.0975 213.421 59.3935 213.338 59.5781 213.224C59.7628 213.111 59.8551 212.926 59.8551 212.67V212.621C59.8551 212 59.6799 211.52 59.3295 211.179C58.9839 210.838 58.4678 210.668 57.7812 210.668C57.0663 210.668 56.5028 210.826 56.0909 211.143C55.6837 211.456 55.402 211.804 55.2457 212.188L53.25 211.733C53.4867 211.07 53.8324 210.535 54.2869 210.128C54.7462 209.716 55.2741 209.418 55.8707 209.233C56.4673 209.044 57.0947 208.949 57.7528 208.949C58.1884 208.949 58.6501 209.001 59.1378 209.105C59.6302 209.205 60.0895 209.389 60.5156 209.659C60.9465 209.929 61.2992 210.315 61.5739 210.817C61.8485 211.314 61.9858 211.96 61.9858 212.756V220H59.9119V218.509H59.8267C59.6894 218.783 59.4834 219.053 59.2088 219.318C58.9342 219.583 58.5814 219.804 58.1506 219.979C57.7197 220.154 57.2036 220.241 56.6023 220.241ZM57.0639 218.537C57.651 218.537 58.1529 218.421 58.5696 218.189C58.991 217.957 59.3106 217.654 59.5284 217.28C59.7509 216.901 59.8622 216.496 59.8622 216.065V214.659C59.7865 214.735 59.6397 214.806 59.4219 214.872C59.2088 214.934 58.965 214.988 58.6903 215.036C58.4157 215.078 58.1482 215.118 57.8878 215.156C57.6274 215.189 57.4096 215.218 57.2344 215.241C56.8224 215.294 56.446 215.381 56.1051 215.504C55.7689 215.627 55.4991 215.805 55.2955 216.037C55.0966 216.264 54.9972 216.567 54.9972 216.946C54.9972 217.472 55.1913 217.869 55.5795 218.139C55.9678 218.404 56.4626 218.537 57.0639 218.537ZM64.8143 220V209.091H69.3384C70.5695 209.091 71.5449 209.354 72.2646 209.879C72.9843 210.4 73.3441 211.108 73.3441 212.003C73.3441 212.642 73.1405 213.149 72.7333 213.523C72.3261 213.897 71.7863 214.148 71.114 214.276C71.6017 214.332 72.0491 214.479 72.4563 214.716C72.8635 214.948 73.1902 215.26 73.4364 215.653C73.6874 216.046 73.8129 216.515 73.8129 217.06C73.8129 217.637 73.6637 218.149 73.3654 218.594C73.0671 219.034 72.6339 219.38 72.0657 219.631C71.5022 219.877 70.8228 220 70.0273 220H64.8143ZM66.81 218.224H70.0273C70.5529 218.224 70.9648 218.099 71.2631 217.848C71.5614 217.597 71.7106 217.256 71.7106 216.825C71.7106 216.319 71.5614 215.921 71.2631 215.632C70.9648 215.339 70.5529 215.192 70.0273 215.192H66.81V218.224ZM66.81 213.636H69.3597C69.7575 213.636 70.0984 213.58 70.3825 213.466C70.6713 213.352 70.8915 213.191 71.043 212.983C71.1992 212.77 71.2773 212.519 71.2773 212.23C71.2773 211.809 71.1045 211.48 70.7589 211.243C70.4132 211.006 69.9397 210.888 69.3384 210.888H66.81V213.636ZM75.5316 210.923V209.091H84.7362V210.923H81.1779V220H79.104V210.923H75.5316ZM91.0696 220.22C90.0469 220.22 89.1544 219.986 88.392 219.517C87.6297 219.048 87.0379 218.393 86.6165 217.55C86.1951 216.707 85.9844 215.722 85.9844 214.595C85.9844 213.464 86.1951 212.474 86.6165 211.626C87.0379 210.779 87.6297 210.121 88.392 209.652C89.1544 209.183 90.0469 208.949 91.0696 208.949C92.0923 208.949 92.9848 209.183 93.7472 209.652C94.5095 210.121 95.1013 210.779 95.5227 211.626C95.9441 212.474 96.1548 213.464 96.1548 214.595C96.1548 215.722 95.9441 216.707 95.5227 217.55C95.1013 218.393 94.5095 219.048 93.7472 219.517C92.9848 219.986 92.0923 220.22 91.0696 220.22ZM91.0767 218.438C91.7396 218.438 92.2888 218.262 92.7244 217.912C93.16 217.562 93.482 217.095 93.6903 216.513C93.9034 215.93 94.0099 215.289 94.0099 214.588C94.0099 213.892 93.9034 213.253 93.6903 212.67C93.482 212.083 93.16 211.612 92.7244 211.257C92.2888 210.902 91.7396 210.724 91.0767 210.724C90.4091 210.724 89.8551 210.902 89.4148 211.257C88.9792 211.612 88.6548 212.083 88.4418 212.67C88.2334 213.253 88.1293 213.892 88.1293 214.588C88.1293 215.289 88.2334 215.93 88.4418 216.513C88.6548 217.095 88.9792 217.562 89.4148 217.912C89.8551 218.262 90.4091 218.438 91.0767 218.438ZM104.647 217.372L108.17 209.091H110.002L105.436 220H103.859L99.3846 209.091H101.196L104.647 217.372ZM100.606 209.091V220H98.5252V209.091H100.606ZM108.745 220V209.091H110.812V220H108.745ZM116.817 220.241C116.126 220.241 115.501 220.114 114.942 219.858C114.383 219.598 113.941 219.221 113.614 218.729C113.292 218.236 113.131 217.633 113.131 216.918C113.131 216.302 113.249 215.795 113.486 215.398C113.723 215 114.042 214.685 114.445 214.453C114.847 214.221 115.297 214.046 115.794 213.928C116.292 213.809 116.798 213.719 117.314 213.658C117.968 213.582 118.498 213.52 118.905 213.473C119.312 213.421 119.608 213.338 119.793 213.224C119.978 213.111 120.07 212.926 120.07 212.67V212.621C120.07 212 119.895 211.52 119.544 211.179C119.199 210.838 118.683 210.668 117.996 210.668C117.281 210.668 116.718 210.826 116.306 211.143C115.899 211.456 115.617 211.804 115.461 212.188L113.465 211.733C113.702 211.07 114.047 210.535 114.502 210.128C114.961 209.716 115.489 209.418 116.086 209.233C116.682 209.044 117.31 208.949 117.968 208.949C118.403 208.949 118.865 209.001 119.353 209.105C119.845 209.205 120.304 209.389 120.73 209.659C121.161 209.929 121.514 210.315 121.789 210.817C122.063 211.314 122.201 211.96 122.201 212.756V220H120.127V218.509H120.042C119.904 218.783 119.698 219.053 119.424 219.318C119.149 219.583 118.796 219.804 118.365 219.979C117.935 220.154 117.418 220.241 116.817 220.241ZM117.279 218.537C117.866 218.537 118.368 218.421 118.784 218.189C119.206 217.957 119.525 217.654 119.743 217.28C119.966 216.901 120.077 216.496 120.077 216.065V214.659C120.001 214.735 119.855 214.806 119.637 214.872C119.424 214.934 119.18 214.988 118.905 215.036C118.631 215.078 118.363 215.118 118.103 215.156C117.842 215.189 117.624 215.218 117.449 215.241C117.037 215.294 116.661 215.381 116.32 215.504C115.984 215.627 115.714 215.805 115.51 216.037C115.311 216.264 115.212 216.567 115.212 216.946C115.212 217.472 115.406 217.869 115.794 218.139C116.183 218.404 116.677 218.537 117.279 218.537ZM123.676 210.923V209.091H132.881V210.923H129.322V220H127.249V210.923H123.676ZM137.208 217.024L142.016 209.091H144.303V220H142.222V212.06L137.435 220H135.127V209.091H137.208V217.024ZM146.512 217.116H148.685C148.713 217.562 148.915 217.905 149.289 218.146C149.667 218.388 150.158 218.509 150.759 218.509C151.37 218.509 151.891 218.378 152.321 218.118C152.752 217.853 152.968 217.443 152.968 216.889C152.968 216.558 152.885 216.269 152.719 216.023C152.558 215.772 152.328 215.578 152.03 215.44C151.737 215.303 151.389 215.234 150.986 215.234H149.211V213.565H150.986C151.587 213.565 152.037 213.428 152.336 213.153C152.634 212.879 152.783 212.536 152.783 212.124C152.783 211.679 152.622 211.321 152.3 211.051C151.983 210.777 151.54 210.639 150.972 210.639C150.394 210.639 149.914 210.769 149.53 211.03C149.147 211.286 148.945 211.617 148.926 212.024H146.782C146.796 211.413 146.98 210.878 147.336 210.419C147.695 209.955 148.178 209.595 148.784 209.339C149.395 209.079 150.089 208.949 150.865 208.949C151.675 208.949 152.376 209.079 152.968 209.339C153.56 209.6 154.016 209.96 154.338 210.419C154.665 210.878 154.828 211.406 154.828 212.003C154.828 212.604 154.649 213.097 154.289 213.48C153.934 213.859 153.47 214.131 152.897 214.297V214.411C153.318 214.439 153.692 214.567 154.019 214.794C154.346 215.021 154.601 215.322 154.786 215.696C154.971 216.07 155.063 216.494 155.063 216.967C155.063 217.635 154.878 218.213 154.509 218.7C154.144 219.188 153.638 219.564 152.989 219.83C152.345 220.09 151.609 220.22 150.78 220.22C149.975 220.22 149.253 220.095 148.614 219.844C147.98 219.588 147.475 219.228 147.101 218.764C146.732 218.3 146.535 217.751 146.512 217.116ZM160.43 220.241C159.739 220.241 159.114 220.114 158.555 219.858C157.997 219.598 157.554 219.221 157.227 218.729C156.905 218.236 156.744 217.633 156.744 216.918C156.744 216.302 156.863 215.795 157.099 215.398C157.336 215 157.656 214.685 158.058 214.453C158.461 214.221 158.911 214.046 159.408 213.928C159.905 213.809 160.411 213.719 160.928 213.658C161.581 213.582 162.111 213.52 162.518 213.473C162.926 213.421 163.222 213.338 163.406 213.224C163.591 213.111 163.683 212.926 163.683 212.67V212.621C163.683 212 163.508 211.52 163.158 211.179C162.812 210.838 162.296 210.668 161.609 210.668C160.894 210.668 160.331 210.826 159.919 211.143C159.512 211.456 159.23 211.804 159.074 212.188L157.078 211.733C157.315 211.07 157.661 210.535 158.115 210.128C158.574 209.716 159.102 209.418 159.699 209.233C160.295 209.044 160.923 208.949 161.581 208.949C162.017 208.949 162.478 209.001 162.966 209.105C163.458 209.205 163.918 209.389 164.344 209.659C164.775 209.929 165.127 210.315 165.402 210.817C165.677 211.314 165.814 211.96 165.814 212.756V220H163.74V218.509H163.655C163.518 218.783 163.312 219.053 163.037 219.318C162.762 219.583 162.41 219.804 161.979 219.979C161.548 220.154 161.032 220.241 160.43 220.241ZM160.892 218.537C161.479 218.537 161.981 218.421 162.398 218.189C162.819 217.957 163.139 217.654 163.357 217.28C163.579 216.901 163.69 216.496 163.69 216.065V214.659C163.615 214.735 163.468 214.806 163.25 214.872C163.037 214.934 162.793 214.988 162.518 215.036C162.244 215.078 161.976 215.118 161.716 215.156C161.455 215.189 161.238 215.218 161.062 215.241C160.651 215.294 160.274 215.381 159.933 215.504C159.597 215.627 159.327 215.805 159.124 216.037C158.925 216.264 158.825 216.567 158.825 216.946C158.825 217.472 159.019 217.869 159.408 218.139C159.796 218.404 160.291 218.537 160.892 218.537ZM177.542 209.091V218.26H179.14V223.516H177.044V220H168.642V209.091H170.723V218.168H175.468V209.091H177.542ZM183.575 217.024L188.383 209.091H190.67V220H188.589V212.06L183.802 220H181.494V209.091H183.575V217.024ZM199.015 213.707V215.554H193.199V213.707H199.015ZM194.924 209.091V220H192.801V209.091H194.924ZM202.339 220.22C201.326 220.22 200.44 219.983 199.683 219.51C198.925 219.036 198.338 218.378 197.922 217.536C197.505 216.688 197.297 215.705 197.297 214.588C197.297 213.461 197.505 212.476 197.922 211.634C198.338 210.786 198.925 210.128 199.683 209.659C200.44 209.186 201.326 208.949 202.339 208.949C203.357 208.949 204.243 209.186 204.995 209.659C205.753 210.128 206.34 210.786 206.757 211.634C207.178 212.476 207.389 213.461 207.389 214.588C207.389 215.705 207.178 216.688 206.757 217.536C206.34 218.378 205.753 219.036 204.995 219.51C204.243 219.983 203.357 220.22 202.339 220.22ZM202.339 218.402C203.026 218.402 203.587 218.229 204.022 217.884C204.463 217.533 204.787 217.069 204.995 216.491C205.204 215.914 205.308 215.279 205.308 214.588C205.308 213.892 205.204 213.255 204.995 212.678C204.787 212.095 204.463 211.629 204.022 211.278C203.587 210.928 203.026 210.753 202.339 210.753C201.657 210.753 201.096 210.928 200.656 211.278C200.216 211.629 199.891 212.095 199.683 212.678C199.475 213.255 199.37 213.892 199.37 214.588C199.37 215.279 199.475 215.914 199.683 216.491C199.891 217.069 200.216 217.533 200.656 217.884C201.096 218.229 201.657 218.402 202.339 218.402ZM57.9659 244.227C56.9432 244.227 56.0625 243.986 55.3239 243.503C54.5852 243.02 54.017 242.355 53.6193 241.507C53.2216 240.66 53.0227 239.691 53.0227 238.602C53.0227 237.494 53.2263 236.517 53.6335 235.669C54.0455 234.817 54.6184 234.152 55.3523 233.673C56.0909 233.19 56.9527 232.949 57.9375 232.949C58.7045 232.949 59.3958 233.091 60.0114 233.375C60.6269 233.659 61.1312 234.057 61.5241 234.568C61.9171 235.08 62.161 235.676 62.2557 236.358H60.5795C60.4517 235.861 60.1676 235.42 59.7273 235.037C59.2917 234.649 58.7045 234.455 57.9659 234.455C57.3125 234.455 56.7396 234.625 56.2472 234.966C55.7595 235.302 55.3783 235.778 55.1037 236.393C54.8338 237.004 54.6989 237.722 54.6989 238.545C54.6989 239.388 54.8314 240.122 55.0966 240.747C55.3665 241.372 55.7453 241.857 56.233 242.203C56.7254 242.549 57.303 242.722 57.9659 242.722C58.4015 242.722 58.7969 242.646 59.152 242.494C59.5071 242.343 59.8078 242.125 60.054 241.841C60.3002 241.557 60.4754 241.216 60.5795 240.818H62.2557C62.161 241.462 61.9266 242.042 61.5526 242.558C61.1832 243.07 60.6932 243.477 60.0824 243.78C59.4763 244.078 58.7708 244.227 57.9659 244.227ZM63.5412 247.125V242.438H64.4503C64.6728 242.205 64.8646 241.955 65.0256 241.685C65.1866 241.415 65.3262 241.095 65.4446 240.726C65.5677 240.352 65.6719 239.897 65.7571 239.362C65.8423 238.822 65.9181 238.171 65.9844 237.409L66.3537 233.091H73.2855V242.438H74.9616V247.125H73.2855V244H65.2173V247.125H63.5412ZM66.3537 242.438H71.6094V234.653H67.9162L67.6321 237.409C67.5137 238.55 67.367 239.547 67.1918 240.399C67.0166 241.251 66.7372 241.931 66.3537 242.438ZM81.7603 244.227C80.7092 244.227 79.8024 243.995 79.0401 243.531C78.2826 243.062 77.6978 242.409 77.2859 241.571C76.8787 240.728 76.6751 239.748 76.6751 238.631C76.6751 237.513 76.8787 236.528 77.2859 235.676C77.6978 234.819 78.2707 234.152 79.0046 233.673C79.7433 233.19 80.605 232.949 81.5898 232.949C82.158 232.949 82.7191 233.044 83.2731 233.233C83.8271 233.422 84.3313 233.73 84.7859 234.156C85.2404 234.578 85.6026 235.136 85.8725 235.832C86.1424 236.528 86.2773 237.385 86.2773 238.403V239.114H77.8683V237.665H84.5728C84.5728 237.049 84.4497 236.5 84.2035 236.017C83.962 235.534 83.6164 235.153 83.1665 234.874C82.7215 234.594 82.1959 234.455 81.5898 234.455C80.9222 234.455 80.3446 234.62 79.8569 234.952C79.3739 235.278 79.0022 235.705 78.7418 236.23C78.4814 236.756 78.3512 237.319 78.3512 237.92V238.886C78.3512 239.71 78.4933 240.409 78.7773 240.982C79.0662 241.55 79.4663 241.983 79.9776 242.281C80.489 242.575 81.0832 242.722 81.7603 242.722C82.2006 242.722 82.5984 242.66 82.9535 242.537C83.3133 242.409 83.6235 242.22 83.8839 241.969C84.1443 241.713 84.3455 241.396 84.4876 241.017L86.1069 241.472C85.9364 242.021 85.65 242.504 85.2475 242.92C84.8451 243.332 84.3479 243.654 83.756 243.886C83.1642 244.114 82.4989 244.227 81.7603 244.227ZM87.8612 244V242.438H88.2589C88.5856 242.438 88.8578 242.374 89.0756 242.246C89.2934 242.113 89.4686 241.884 89.6012 241.557C89.7385 241.225 89.8427 240.766 89.9137 240.179C89.9895 239.587 90.0439 238.834 90.0771 237.92L90.2759 233.091H97.5487V244H95.8725V234.653H91.8668L91.6964 238.545C91.6585 239.44 91.578 240.229 91.4549 240.911C91.3365 241.588 91.1542 242.156 90.908 242.615C90.6665 243.074 90.3446 243.42 89.9421 243.652C89.5397 243.884 89.0354 244 88.4293 244H87.8612ZM105.056 244.227C104.071 244.227 103.207 243.993 102.463 243.524C101.725 243.055 101.147 242.4 100.73 241.557C100.319 240.714 100.113 239.729 100.113 238.602C100.113 237.466 100.319 236.474 100.73 235.626C101.147 234.779 101.725 234.121 102.463 233.652C103.207 233.183 104.071 232.949 105.056 232.949C106.041 232.949 106.902 233.183 107.641 233.652C108.384 234.121 108.962 234.779 109.374 235.626C109.791 236.474 109.999 237.466 109.999 238.602C109.999 239.729 109.791 240.714 109.374 241.557C108.962 242.4 108.384 243.055 107.641 243.524C106.902 243.993 106.041 244.227 105.056 244.227ZM105.056 242.722C105.804 242.722 106.419 242.53 106.902 242.146C107.385 241.763 107.743 241.259 107.975 240.634C108.207 240.009 108.323 239.331 108.323 238.602C108.323 237.873 108.207 237.194 107.975 236.564C107.743 235.934 107.385 235.425 106.902 235.037C106.419 234.649 105.804 234.455 105.056 234.455C104.308 234.455 103.692 234.649 103.209 235.037C102.726 235.425 102.369 235.934 102.137 236.564C101.905 237.194 101.789 237.873 101.789 238.602C101.789 239.331 101.905 240.009 102.137 240.634C102.369 241.259 102.726 241.763 103.209 242.146C103.692 242.53 104.308 242.722 105.056 242.722ZM112.558 244V233.091H114.234V237.835H115.342L119.262 233.091H121.421L117.018 238.347L121.478 244H119.319L115.739 239.398H114.234V244H112.558Z" fill="#A39078"/>
<line x1="37.5" y1="208" x2="37.5" y2="248" stroke="#A39078"/>
<line x1="279.5" y1="208" x2="279.5" y2="248" stroke="#A39078"/>
<line x1="497.5" y1="207" x2="497.5" y2="247" stroke="#A39078"/>
</svg>
