<svg width="372" height="73" viewBox="0 0 372 73" fill="none" xmlns="http://www.w3.org/2000/svg">
<path d="M10.1136 0.363636V12H8.70455V1.61364H2.84091V12H1.43182V0.363636H10.1136ZM11.9741 15.2727V3.27273H13.2696V4.65909H13.4287C13.5272 4.50758 13.6635 4.31439 13.8378 4.07955C14.0158 3.84091 14.2696 3.62879 14.5991 3.44318C14.9325 3.25379 15.3832 3.15909 15.9514 3.15909C16.6863 3.15909 17.334 3.3428 17.8946 3.71023C18.4552 4.07765 18.8927 4.59848 19.2071 5.27273C19.5215 5.94697 19.6787 6.74242 19.6787 7.65909C19.6787 8.58333 19.5215 9.38447 19.2071 10.0625C18.8927 10.7367 18.4571 11.2595 17.9003 11.6307C17.3435 11.9981 16.7014 12.1818 15.9741 12.1818C15.4135 12.1818 14.9647 12.089 14.6276 11.9034C14.2904 11.714 14.031 11.5 13.8491 11.2614C13.6673 11.0189 13.5272 10.8182 13.4287 10.6591H13.3151V15.2727H11.9741ZM13.2923 7.63636C13.2923 8.29545 13.3889 8.87689 13.5821 9.38068C13.7753 9.88068 14.0575 10.2727 14.4287 10.5568C14.7999 10.8371 15.2545 10.9773 15.7923 10.9773C16.3529 10.9773 16.8207 10.8295 17.1957 10.5341C17.5745 10.2348 17.8586 9.83333 18.048 9.32955C18.2412 8.82197 18.3378 8.25758 18.3378 7.63636C18.3378 7.02273 18.2431 6.4697 18.0537 5.97727C17.8681 5.48106 17.5859 5.08902 17.2071 4.80114C16.8321 4.50947 16.3605 4.36364 15.7923 4.36364C15.2469 4.36364 14.7885 4.50189 14.4173 4.77841C14.0461 5.05114 13.7658 5.43371 13.5764 5.92614C13.387 6.41477 13.2923 6.98485 13.2923 7.63636ZM24.5832 12.1818C23.7423 12.1818 23.017 11.9962 22.4071 11.625C21.801 11.25 21.3332 10.7273 21.0037 10.0568C20.6779 9.38258 20.5151 8.59848 20.5151 7.70455C20.5151 6.81061 20.6779 6.02273 21.0037 5.34091C21.3332 4.6553 21.7916 4.12121 22.3787 3.73864C22.9696 3.35227 23.659 3.15909 24.4469 3.15909C24.9014 3.15909 25.3503 3.23485 25.7935 3.38636C26.2366 3.53788 26.6401 3.78409 27.0037 4.125C27.3673 4.46212 27.6571 4.90909 27.873 5.46591C28.0889 6.02273 28.1969 6.70833 28.1969 7.52273V8.09091H21.4696V6.93182H26.8332C26.8332 6.43939 26.7348 6 26.5378 5.61364C26.3446 5.22727 26.0681 4.92235 25.7082 4.69886C25.3522 4.47538 24.9317 4.36364 24.4469 4.36364C23.9128 4.36364 23.4507 4.49621 23.0605 4.76136C22.6741 5.02273 22.3768 5.36364 22.1685 5.78409C21.9601 6.20455 21.856 6.6553 21.856 7.13636V7.90909C21.856 8.56818 21.9696 9.12689 22.1969 9.58523C22.4279 10.0398 22.748 10.3864 23.1571 10.625C23.5662 10.8598 24.0416 10.9773 24.5832 10.9773C24.9355 10.9773 25.2537 10.928 25.5378 10.8295C25.8257 10.7273 26.0738 10.5758 26.2821 10.375C26.4904 10.1705 26.6514 9.91667 26.7651 9.61364L28.0605 9.97727C27.9241 10.4167 27.695 10.803 27.373 11.1364C27.051 11.4659 26.6533 11.7235 26.1798 11.9091C25.7063 12.0909 25.1741 12.1818 24.5832 12.1818ZM28.5048 14.5V10.75H29.2321C29.4101 10.5644 29.5635 10.3636 29.6923 10.1477C29.8211 9.93182 29.9329 9.67614 30.0276 9.38068C30.126 9.08144 30.2094 8.7178 30.2776 8.28977C30.3457 7.85795 30.4063 7.33712 30.4594 6.72727L30.7548 3.27273H36.3003V10.75H37.6412V14.5H36.3003V12H29.8457V14.5H28.5048ZM30.7548 10.75H34.9594V4.52273H32.0048L31.7776 6.72727C31.6829 7.64015 31.5654 8.4375 31.4253 9.11932C31.2851 9.80114 31.0616 10.3447 30.7548 10.75ZM37.8483 12V10.75H38.1665C38.4278 10.75 38.6456 10.6989 38.8199 10.5966C38.9941 10.4905 39.1343 10.3068 39.2403 10.0455C39.3502 9.7803 39.4335 9.41288 39.4903 8.94318C39.5509 8.4697 39.5945 7.86742 39.621 7.13636L39.7801 3.27273H45.5983V12H44.2574V4.52273H41.0528L40.9165 7.63636C40.8862 8.35227 40.8218 8.98295 40.7233 9.52841C40.6286 10.0701 40.4828 10.5246 40.2858 10.892C40.0926 11.2595 39.835 11.536 39.5131 11.7216C39.1911 11.9072 38.7877 12 38.3028 12H37.8483ZM49.8267 12.2045C49.2737 12.2045 48.7718 12.1004 48.321 11.892C47.8703 11.6799 47.5123 11.375 47.2472 10.9773C46.982 10.5758 46.8494 10.0909 46.8494 9.52273C46.8494 9.02273 46.9479 8.61742 47.1449 8.30682C47.3419 7.99242 47.6051 7.74621 47.9347 7.56818C48.2642 7.39015 48.6278 7.25758 49.0256 7.17045C49.4271 7.07955 49.8305 7.00758 50.2358 6.95455C50.7661 6.88636 51.196 6.83523 51.5256 6.80114C51.8589 6.76326 52.1013 6.70076 52.2528 6.61364C52.4081 6.52652 52.4858 6.375 52.4858 6.15909V6.11364C52.4858 5.55303 52.3324 5.11742 52.0256 4.80682C51.7225 4.49621 51.2623 4.34091 50.6449 4.34091C50.0047 4.34091 49.5028 4.48106 49.1392 4.76136C48.7756 5.04167 48.5199 5.34091 48.3722 5.65909L47.0994 5.20455C47.3267 4.67424 47.6297 4.26136 48.0085 3.96591C48.3911 3.66667 48.8078 3.45833 49.2585 3.34091C49.7131 3.2197 50.16 3.15909 50.5994 3.15909C50.8797 3.15909 51.2017 3.19318 51.5653 3.26136C51.9328 3.32576 52.2869 3.46023 52.6278 3.66477C52.9725 3.86932 53.2585 4.17803 53.4858 4.59091C53.7131 5.00379 53.8267 5.55682 53.8267 6.25V12H52.4858V10.8182H52.4176C52.3267 11.0076 52.1752 11.2102 51.9631 11.4261C51.7509 11.642 51.4688 11.8258 51.1165 11.9773C50.7642 12.1288 50.3343 12.2045 49.8267 12.2045ZM50.0312 11C50.5616 11 51.0085 10.8958 51.3722 10.6875C51.7396 10.4792 52.0161 10.2102 52.2017 9.88068C52.3911 9.55114 52.4858 9.20455 52.4858 8.84091V7.61364C52.429 7.68182 52.304 7.74432 52.1108 7.80114C51.9214 7.85417 51.7017 7.90151 51.4517 7.94318C51.2055 7.98106 50.965 8.01515 50.7301 8.04545C50.4991 8.07197 50.3116 8.0947 50.1676 8.11364C49.8191 8.15909 49.4934 8.23295 49.1903 8.33523C48.8911 8.43371 48.6487 8.58333 48.4631 8.78409C48.2813 8.98106 48.1903 9.25 48.1903 9.59091C48.1903 10.0568 48.3627 10.4091 48.7074 10.6477C49.0559 10.8826 49.4972 11 50.0312 11ZM60.8605 3.27273V4.52273H56.8151V12H55.4741V3.27273H60.8605ZM64.133 12.2045C63.5799 12.2045 63.078 12.1004 62.6273 11.892C62.1765 11.6799 61.8186 11.375 61.5534 10.9773C61.2883 10.5758 61.1557 10.0909 61.1557 9.52273C61.1557 9.02273 61.2542 8.61742 61.4511 8.30682C61.6481 7.99242 61.9114 7.74621 62.2409 7.56818C62.5705 7.39015 62.9341 7.25758 63.3318 7.17045C63.7333 7.07955 64.1367 7.00758 64.542 6.95455C65.0724 6.88636 65.5023 6.83523 65.8318 6.80114C66.1652 6.76326 66.4076 6.70076 66.5591 6.61364C66.7144 6.52652 66.792 6.375 66.792 6.15909V6.11364C66.792 5.55303 66.6386 5.11742 66.3318 4.80682C66.0288 4.49621 65.5686 4.34091 64.9511 4.34091C64.311 4.34091 63.8091 4.48106 63.4455 4.76136C63.0818 5.04167 62.8261 5.34091 62.6784 5.65909L61.4057 5.20455C61.633 4.67424 61.936 4.26136 62.3148 3.96591C62.6974 3.66667 63.114 3.45833 63.5648 3.34091C64.0193 3.2197 64.4663 3.15909 64.9057 3.15909C65.186 3.15909 65.508 3.19318 65.8716 3.26136C66.239 3.32576 66.5932 3.46023 66.9341 3.66477C67.2788 3.86932 67.5648 4.17803 67.792 4.59091C68.0193 5.00379 68.133 5.55682 68.133 6.25V12H66.792V10.8182H66.7239C66.633 11.0076 66.4814 11.2102 66.2693 11.4261C66.0572 11.642 65.775 11.8258 65.4227 11.9773C65.0705 12.1288 64.6405 12.2045 64.133 12.2045ZM64.3375 11C64.8678 11 65.3148 10.8958 65.6784 10.6875C66.0458 10.4792 66.3224 10.2102 66.508 9.88068C66.6974 9.55114 66.792 9.20455 66.792 8.84091V7.61364C66.7352 7.68182 66.6102 7.74432 66.417 7.80114C66.2277 7.85417 66.008 7.90151 65.758 7.94318C65.5117 7.98106 65.2712 8.01515 65.0364 8.04545C64.8053 8.07197 64.6178 8.0947 64.4739 8.11364C64.1254 8.15909 63.7996 8.23295 63.4966 8.33523C63.1974 8.43371 62.9549 8.58333 62.7693 8.78409C62.5875 8.98106 62.4966 9.25 62.4966 9.59091C62.4966 10.0568 62.6689 10.4091 63.0136 10.6477C63.3621 10.8826 63.8034 11 64.3375 11ZM73.4395 12.1818C72.5986 12.1818 71.8732 11.9962 71.2634 11.625C70.6573 11.25 70.1895 10.7273 69.8599 10.0568C69.5342 9.38258 69.3713 8.59848 69.3713 7.70455C69.3713 6.81061 69.5342 6.02273 69.8599 5.34091C70.1895 4.6553 70.6478 4.12121 71.2349 3.73864C71.8259 3.35227 72.5152 3.15909 73.3031 3.15909C73.7577 3.15909 74.2065 3.23485 74.6497 3.38636C75.0929 3.53788 75.4963 3.78409 75.8599 4.125C76.2236 4.46212 76.5134 4.90909 76.7293 5.46591C76.9452 6.02273 77.0531 6.70833 77.0531 7.52273V8.09091H70.3259V6.93182H75.6895C75.6895 6.43939 75.591 6 75.394 5.61364C75.2009 5.22727 74.9243 4.92235 74.5645 4.69886C74.2084 4.47538 73.788 4.36364 73.3031 4.36364C72.769 4.36364 72.3069 4.49621 71.9168 4.76136C71.5304 5.02273 71.233 5.36364 71.0247 5.78409C70.8164 6.20455 70.7122 6.6553 70.7122 7.13636V7.90909C70.7122 8.56818 70.8259 9.12689 71.0531 9.58523C71.2842 10.0398 71.6043 10.3864 72.0134 10.625C72.4224 10.8598 72.8978 10.9773 73.4395 10.9773C73.7918 10.9773 74.1099 10.928 74.394 10.8295C74.6819 10.7273 74.93 10.5758 75.1384 10.375C75.3467 10.1705 75.5077 9.91667 75.6213 9.61364L76.9168 9.97727C76.7804 10.4167 76.5512 10.803 76.2293 11.1364C75.9073 11.4659 75.5096 11.7235 75.0361 11.9091C74.5626 12.0909 74.0304 12.1818 73.4395 12.1818ZM83.0656 10.1818L86.1111 3.27273H87.3838L83.6111 12H82.5202L78.8156 3.27273H80.0656L83.0656 10.1818ZM79.6338 3.27273V12H78.2929V3.27273H79.6338ZM86.4974 12V3.27273H87.8384V12H86.4974ZM93.1929 12V3.27273H96.7611C97.7005 3.27273 98.4467 3.48485 98.9997 3.90909C99.5527 4.33333 99.8293 4.89394 99.8293 5.59091C99.8293 6.12121 99.6721 6.5322 99.3577 6.82386C99.0433 7.11174 98.6399 7.30682 98.1474 7.40909C98.4694 7.45455 98.7819 7.56818 99.0849 7.75C99.3918 7.93182 99.6455 8.18182 99.8463 8.5C100.047 8.81439 100.147 9.20076 100.147 9.65909C100.147 10.1061 100.034 10.5057 99.8065 10.858C99.5793 11.2102 99.2535 11.4886 98.8293 11.6932C98.405 11.8977 97.8974 12 97.3065 12H93.1929ZM94.4656 10.7727H97.3065C97.7687 10.7727 98.1304 10.6629 98.3918 10.4432C98.6531 10.2235 98.7838 9.92424 98.7838 9.54545C98.7838 9.0947 98.6531 8.74053 98.3918 8.48295C98.1304 8.22159 97.7687 8.09091 97.3065 8.09091H94.4656V10.7727ZM94.4656 6.93182H96.7611C97.1209 6.93182 97.4296 6.88258 97.6872 6.78409C97.9448 6.68182 98.1418 6.53788 98.2781 6.35227C98.4183 6.16288 98.4883 5.93939 98.4883 5.68182C98.4883 5.31439 98.3349 5.02651 98.0281 4.81818C97.7213 4.60606 97.299 4.5 96.7611 4.5H94.4656V6.93182ZM103.945 12.2045C103.392 12.2045 102.891 12.1004 102.44 11.892C101.989 11.6799 101.631 11.375 101.366 10.9773C101.101 10.5758 100.968 10.0909 100.968 9.52273C100.968 9.02273 101.067 8.61742 101.264 8.30682C101.461 7.99242 101.724 7.74621 102.053 7.56818C102.383 7.39015 102.747 7.25758 103.144 7.17045C103.546 7.07955 103.949 7.00758 104.355 6.95455C104.885 6.88636 105.315 6.83523 105.644 6.80114C105.978 6.76326 106.22 6.70076 106.372 6.61364C106.527 6.52652 106.605 6.375 106.605 6.15909V6.11364C106.605 5.55303 106.451 5.11742 106.144 4.80682C105.841 4.49621 105.381 4.34091 104.764 4.34091C104.123 4.34091 103.622 4.48106 103.258 4.76136C102.894 5.04167 102.639 5.34091 102.491 5.65909L101.218 5.20455C101.445 4.67424 101.748 4.26136 102.127 3.96591C102.51 3.66667 102.927 3.45833 103.377 3.34091C103.832 3.2197 104.279 3.15909 104.718 3.15909C104.998 3.15909 105.32 3.19318 105.684 3.26136C106.052 3.32576 106.406 3.46023 106.747 3.66477C107.091 3.86932 107.377 4.17803 107.605 4.59091C107.832 5.00379 107.945 5.55682 107.945 6.25V12H106.605V10.8182H106.536C106.445 11.0076 106.294 11.2102 106.082 11.4261C105.87 11.642 105.588 11.8258 105.235 11.9773C104.883 12.1288 104.453 12.2045 103.945 12.2045ZM104.15 11C104.68 11 105.127 10.8958 105.491 10.6875C105.858 10.4792 106.135 10.2102 106.32 9.88068C106.51 9.55114 106.605 9.20455 106.605 8.84091V7.61364C106.548 7.68182 106.423 7.74432 106.23 7.80114C106.04 7.85417 105.82 7.90151 105.57 7.94318C105.324 7.98106 105.084 8.01515 104.849 8.04545C104.618 8.07197 104.43 8.0947 104.286 8.11364C103.938 8.15909 103.612 8.23295 103.309 8.33523C103.01 8.43371 102.767 8.58333 102.582 8.78409C102.4 8.98106 102.309 9.25 102.309 9.59091C102.309 10.0568 102.481 10.4091 102.826 10.6477C103.175 10.8826 103.616 11 104.15 11ZM114.366 10.1818L117.411 3.27273H118.684L114.911 12H113.82L110.116 3.27273H111.366L114.366 10.1818ZM110.934 3.27273V12H109.593V3.27273H110.934ZM117.797 12V3.27273H119.138V12H117.797ZM125.834 10.0227L130.038 3.27273H131.584V12H130.243V5.25L126.061 12H124.493V3.27273H125.834V10.0227ZM136.785 12.1818C135.967 12.1818 135.262 11.9886 134.672 11.6023C134.081 11.2159 133.626 10.6837 133.308 10.0057C132.99 9.32765 132.831 8.55303 132.831 7.68182C132.831 6.79545 132.994 6.01326 133.319 5.33523C133.649 4.65341 134.107 4.12121 134.694 3.73864C135.285 3.35227 135.975 3.15909 136.762 3.15909C137.376 3.15909 137.929 3.27273 138.422 3.5C138.914 3.72727 139.317 4.04545 139.632 4.45455C139.946 4.86364 140.141 5.34091 140.217 5.88636H138.876C138.774 5.48864 138.547 5.13636 138.194 4.82955C137.846 4.51894 137.376 4.36364 136.785 4.36364C136.262 4.36364 135.804 4.5 135.41 4.77273C135.02 5.04167 134.715 5.42235 134.495 5.91477C134.28 6.40341 134.172 6.97727 134.172 7.63636C134.172 8.31061 134.278 8.89773 134.49 9.39773C134.706 9.89773 135.009 10.286 135.399 10.5625C135.793 10.839 136.255 10.9773 136.785 10.9773C137.134 10.9773 137.45 10.9167 137.734 10.7955C138.018 10.6742 138.259 10.5 138.456 10.2727C138.653 10.0455 138.793 9.77273 138.876 9.45455H140.217C140.141 9.9697 139.954 10.4337 139.655 10.8466C139.359 11.2557 138.967 11.5814 138.478 11.8239C137.994 12.0625 137.429 12.1818 136.785 12.1818ZM148.105 3.27273V12H146.764V3.27273H148.105ZM147.582 7.43182V8.68182C147.279 8.79545 146.978 8.89583 146.678 8.98295C146.379 9.06629 146.065 9.13258 145.735 9.18182C145.406 9.22727 145.044 9.25 144.65 9.25C143.661 9.25 142.868 8.98295 142.269 8.44886C141.675 7.91477 141.377 7.11364 141.377 6.04545V3.25H142.718V6.04545C142.718 6.49242 142.803 6.85985 142.974 7.14773C143.144 7.43561 143.375 7.64962 143.667 7.78977C143.959 7.92992 144.286 8 144.65 8C145.218 8 145.731 7.94886 146.19 7.84659C146.652 7.74053 147.116 7.60227 147.582 7.43182ZM153.424 12.1818C152.583 12.1818 151.858 11.9962 151.248 11.625C150.642 11.25 150.174 10.7273 149.844 10.0568C149.519 9.38258 149.356 8.59848 149.356 7.70455C149.356 6.81061 149.519 6.02273 149.844 5.34091C150.174 4.6553 150.632 4.12121 151.219 3.73864C151.81 3.35227 152.5 3.15909 153.288 3.15909C153.742 3.15909 154.191 3.23485 154.634 3.38636C155.077 3.53788 155.481 3.78409 155.844 4.125C156.208 4.46212 156.498 4.90909 156.714 5.46591C156.93 6.02273 157.038 6.70833 157.038 7.52273V8.09091H150.31V6.93182H155.674C155.674 6.43939 155.575 6 155.378 5.61364C155.185 5.22727 154.909 4.92235 154.549 4.69886C154.193 4.47538 153.772 4.36364 153.288 4.36364C152.753 4.36364 152.291 4.49621 151.901 4.76136C151.515 5.02273 151.217 5.36364 151.009 5.78409C150.801 6.20455 150.697 6.6553 150.697 7.13636V7.90909C150.697 8.56818 150.81 9.12689 151.038 9.58523C151.269 10.0398 151.589 10.3864 151.998 10.625C152.407 10.8598 152.882 10.9773 153.424 10.9773C153.776 10.9773 154.094 10.928 154.378 10.8295C154.666 10.7273 154.914 10.5758 155.123 10.375C155.331 10.1705 155.492 9.91667 155.606 9.61364L156.901 9.97727C156.765 10.4167 156.536 10.803 156.214 11.1364C155.892 11.4659 155.494 11.7235 155.02 11.9091C154.547 12.0909 154.015 12.1818 153.424 12.1818ZM158.277 15.2727V3.27273H159.573V4.65909H159.732C159.83 4.50758 159.967 4.31439 160.141 4.07955C160.319 3.84091 160.573 3.62879 160.902 3.44318C161.236 3.25379 161.686 3.15909 162.255 3.15909C162.989 3.15909 163.637 3.3428 164.198 3.71023C164.758 4.07765 165.196 4.59848 165.51 5.27273C165.825 5.94697 165.982 6.74242 165.982 7.65909C165.982 8.58333 165.825 9.38447 165.51 10.0625C165.196 10.7367 164.76 11.2595 164.203 11.6307C163.647 11.9981 163.005 12.1818 162.277 12.1818C161.717 12.1818 161.268 12.089 160.931 11.9034C160.594 11.714 160.334 11.5 160.152 11.2614C159.97 11.0189 159.83 10.8182 159.732 10.6591H159.618V15.2727H158.277ZM159.595 7.63636C159.595 8.29545 159.692 8.87689 159.885 9.38068C160.078 9.88068 160.361 10.2727 160.732 10.5568C161.103 10.8371 161.558 10.9773 162.095 10.9773C162.656 10.9773 163.124 10.8295 163.499 10.5341C163.878 10.2348 164.162 9.83333 164.351 9.32955C164.544 8.82197 164.641 8.25758 164.641 7.63636C164.641 7.02273 164.546 6.4697 164.357 5.97727C164.171 5.48106 163.889 5.08902 163.51 4.80114C163.135 4.50947 162.664 4.36364 162.095 4.36364C161.55 4.36364 161.092 4.50189 160.72 4.77841C160.349 5.05114 160.069 5.43371 159.88 5.92614C159.69 6.41477 159.595 6.98485 159.595 7.63636ZM167.227 12V3.27273H174.091V12H172.75V4.52273H168.568V12H167.227ZM176.899 6.43182H179.399C180.422 6.43182 181.204 6.69129 181.745 7.21023C182.287 7.72917 182.558 8.38636 182.558 9.18182C182.558 9.70455 182.437 10.1799 182.194 10.608C181.952 11.0322 181.596 11.3712 181.126 11.625C180.656 11.875 180.081 12 179.399 12H175.74V3.27273H177.081V10.75H179.399C179.929 10.75 180.365 10.6098 180.706 10.3295C181.047 10.0492 181.217 9.68939 181.217 9.25C181.217 8.78788 181.047 8.41098 180.706 8.11932C180.365 7.82765 179.929 7.68182 179.399 7.68182H176.899V6.43182ZM183.944 12V3.27273H185.285V12H183.944ZM186.94 12V3.27273H190.508C191.447 3.27273 192.194 3.48485 192.747 3.90909C193.3 4.33333 193.576 4.89394 193.576 5.59091C193.576 6.12121 193.419 6.5322 193.105 6.82386C192.79 7.11174 192.387 7.30682 191.894 7.40909C192.216 7.45455 192.529 7.56818 192.832 7.75C193.139 7.93182 193.392 8.18182 193.593 8.5C193.794 8.81439 193.894 9.20076 193.894 9.65909C193.894 10.1061 193.781 10.5057 193.553 10.858C193.326 11.2102 193 11.4886 192.576 11.6932C192.152 11.8977 191.644 12 191.053 12H186.94ZM188.212 10.7727H191.053C191.516 10.7727 191.877 10.6629 192.139 10.4432C192.4 10.2235 192.531 9.92424 192.531 9.54545C192.531 9.0947 192.4 8.74053 192.139 8.48295C191.877 8.22159 191.516 8.09091 191.053 8.09091H188.212V10.7727ZM188.212 6.93182H190.508C190.868 6.93182 191.177 6.88258 191.434 6.78409C191.692 6.68182 191.889 6.53788 192.025 6.35227C192.165 6.16288 192.235 5.93939 192.235 5.68182C192.235 5.31439 192.082 5.02651 191.775 4.81818C191.468 4.60606 191.046 4.5 190.508 4.5H188.212V6.93182ZM197.692 12.2045C197.139 12.2045 196.637 12.1004 196.187 11.892C195.736 11.6799 195.378 11.375 195.113 10.9773C194.848 10.5758 194.715 10.0909 194.715 9.52273C194.715 9.02273 194.814 8.61742 195.011 8.30682C195.207 7.99242 195.471 7.74621 195.8 7.56818C196.13 7.39015 196.493 7.25758 196.891 7.17045C197.293 7.07955 197.696 7.00758 198.101 6.95455C198.632 6.88636 199.062 6.83523 199.391 6.80114C199.725 6.76326 199.967 6.70076 200.118 6.61364C200.274 6.52652 200.351 6.375 200.351 6.15909V6.11364C200.351 5.55303 200.198 5.11742 199.891 4.80682C199.588 4.49621 199.128 4.34091 198.511 4.34091C197.87 4.34091 197.368 4.48106 197.005 4.76136C196.641 5.04167 196.386 5.34091 196.238 5.65909L194.965 5.20455C195.192 4.67424 195.495 4.26136 195.874 3.96591C196.257 3.66667 196.673 3.45833 197.124 3.34091C197.579 3.2197 198.026 3.15909 198.465 3.15909C198.745 3.15909 199.067 3.19318 199.431 3.26136C199.798 3.32576 200.153 3.46023 200.493 3.66477C200.838 3.86932 201.124 4.17803 201.351 4.59091C201.579 5.00379 201.692 5.55682 201.692 6.25V12H200.351V10.8182H200.283C200.192 11.0076 200.041 11.2102 199.829 11.4261C199.617 11.642 199.334 11.8258 198.982 11.9773C198.63 12.1288 198.2 12.2045 197.692 12.2045ZM197.897 11C198.427 11 198.874 10.8958 199.238 10.6875C199.605 10.4792 199.882 10.2102 200.067 9.88068C200.257 9.55114 200.351 9.20455 200.351 8.84091V7.61364C200.295 7.68182 200.17 7.74432 199.976 7.80114C199.787 7.85417 199.567 7.90151 199.317 7.94318C199.071 7.98106 198.831 8.01515 198.596 8.04545C198.365 8.07197 198.177 8.0947 198.033 8.11364C197.685 8.15909 197.359 8.23295 197.056 8.33523C196.757 8.43371 196.514 8.58333 196.329 8.78409C196.147 8.98106 196.056 9.25 196.056 9.59091C196.056 10.0568 196.228 10.4091 196.573 10.6477C196.922 10.8826 197.363 11 197.897 11ZM207.522 7.09091V8.34091H202.908V7.09091H207.522ZM204.044 3.27273V12H202.703V3.27273H204.044ZM210.203 12.1818C209.416 12.1818 208.724 11.9943 208.13 11.6193C207.539 11.2443 207.077 10.7197 206.743 10.0455C206.414 9.37121 206.249 8.58333 206.249 7.68182C206.249 6.77273 206.414 5.97917 206.743 5.30114C207.077 4.62311 207.539 4.09659 208.13 3.72159C208.724 3.34659 209.416 3.15909 210.203 3.15909C210.991 3.15909 211.681 3.34659 212.272 3.72159C212.866 4.09659 213.328 4.62311 213.658 5.30114C213.991 5.97917 214.158 6.77273 214.158 7.68182C214.158 8.58333 213.991 9.37121 213.658 10.0455C213.328 10.7197 212.866 11.2443 212.272 11.6193C211.681 11.9943 210.991 12.1818 210.203 12.1818ZM210.203 10.9773C210.802 10.9773 211.294 10.8239 211.681 10.517C212.067 10.2102 212.353 9.80682 212.539 9.30682C212.724 8.80682 212.817 8.26515 212.817 7.68182C212.817 7.09848 212.724 6.55492 212.539 6.05114C212.353 5.54735 212.067 5.14015 211.681 4.82955C211.294 4.51894 210.802 4.36364 210.203 4.36364C209.605 4.36364 209.113 4.51894 208.726 4.82955C208.34 5.14015 208.054 5.54735 207.868 6.05114C207.683 6.55492 207.59 7.09848 207.59 7.68182C207.59 8.26515 207.683 8.80682 207.868 9.30682C208.054 9.80682 208.34 10.2102 208.726 10.517C209.113 10.8239 209.605 10.9773 210.203 10.9773ZM227.449 10.75L227.29 14.5H225.903V12H224.767V10.75H227.449ZM215.54 3.27273H216.881V10.75H220.176V3.27273H221.517V10.75H224.812V3.27273H226.153V12H215.54V3.27273ZM229.463 15.2727C229.236 15.2727 229.033 15.2538 228.855 15.2159C228.677 15.1818 228.554 15.1477 228.486 15.1136L228.826 13.9318C229.152 14.0152 229.44 14.0455 229.69 14.0227C229.94 14 230.162 13.8883 230.355 13.6875C230.552 13.4905 230.732 13.1705 230.895 12.7273L231.145 12.0455L227.917 3.27273H229.372L231.781 10.2273H231.872L234.281 3.27273H235.736L232.031 13.2727C231.864 13.7235 231.658 14.0966 231.412 14.392C231.165 14.6913 230.879 14.9129 230.554 15.0568C230.232 15.2008 229.868 15.2727 229.463 15.2727ZM240.887 7.09091V8.34091H236.274V7.09091H240.887ZM237.41 3.27273V12H236.069V3.27273H237.41ZM243.569 12.1818C242.781 12.1818 242.09 11.9943 241.495 11.6193C240.904 11.2443 240.442 10.7197 240.109 10.0455C239.779 9.37121 239.614 8.58333 239.614 7.68182C239.614 6.77273 239.779 5.97917 240.109 5.30114C240.442 4.62311 240.904 4.09659 241.495 3.72159C242.09 3.34659 242.781 3.15909 243.569 3.15909C244.357 3.15909 245.046 3.34659 245.637 3.72159C246.232 4.09659 246.694 4.62311 247.024 5.30114C247.357 5.97917 247.524 6.77273 247.524 7.68182C247.524 8.58333 247.357 9.37121 247.024 10.0455C246.694 10.7197 246.232 11.2443 245.637 11.6193C245.046 11.9943 244.357 12.1818 243.569 12.1818ZM243.569 10.9773C244.168 10.9773 244.66 10.8239 245.046 10.517C245.433 10.2102 245.719 9.80682 245.904 9.30682C246.09 8.80682 246.183 8.26515 246.183 7.68182C246.183 7.09848 246.09 6.55492 245.904 6.05114C245.719 5.54735 245.433 5.14015 245.046 4.82955C244.66 4.51894 244.168 4.36364 243.569 4.36364C242.971 4.36364 242.478 4.51894 242.092 4.82955C241.705 5.14015 241.419 5.54735 241.234 6.05114C241.048 6.55492 240.955 7.09848 240.955 7.68182C240.955 8.26515 241.048 8.80682 241.234 9.30682C241.419 9.80682 241.705 10.2102 242.092 10.517C242.478 10.8239 242.971 10.9773 243.569 10.9773ZM253.946 10.0227L258.151 3.27273H259.696V12H258.355V5.25L254.174 12H252.605V3.27273H253.946V10.0227ZM267.193 7.02273V8.27273H262.375V7.02273H267.193ZM262.693 3.27273V12H261.352V3.27273H262.693ZM268.216 3.27273V12H266.875V3.27273H268.216ZM273.41 14.9773V0.363636H274.751V14.9773H273.41ZM273.41 12.1818C272.819 12.1818 272.281 12.0758 271.797 11.8636C271.312 11.6477 270.895 11.3428 270.547 10.9489C270.198 10.5511 269.929 10.0758 269.74 9.52273C269.55 8.9697 269.456 8.35606 269.456 7.68182C269.456 7 269.55 6.38258 269.74 5.82955C269.929 5.27273 270.198 4.79545 270.547 4.39773C270.895 4 271.312 3.69508 271.797 3.48295C272.281 3.26705 272.819 3.15909 273.41 3.15909H273.819V12.1818H273.41ZM273.41 10.9773H273.638V4.36364H273.41C272.963 4.36364 272.575 4.45455 272.245 4.63636C271.916 4.81439 271.643 5.05871 271.427 5.36932C271.215 5.67614 271.056 6.02841 270.95 6.42614C270.848 6.82386 270.797 7.24242 270.797 7.68182C270.797 8.26515 270.889 8.80682 271.075 9.30682C271.261 9.80682 271.547 10.2102 271.933 10.517C272.319 10.8239 272.812 10.9773 273.41 10.9773ZM274.751 12.1818H274.342V3.15909H274.751C275.342 3.15909 275.88 3.26705 276.365 3.48295C276.85 3.69508 277.266 4 277.615 4.39773C277.963 4.79545 278.232 5.27273 278.422 5.82955C278.611 6.38258 278.706 7 278.706 7.68182C278.706 8.35606 278.611 8.9697 278.422 9.52273C278.232 10.0758 277.963 10.5511 277.615 10.9489C277.266 11.3428 276.85 11.6477 276.365 11.8636C275.88 12.0758 275.342 12.1818 274.751 12.1818ZM274.751 10.9773C275.202 10.9773 275.59 10.8902 275.916 10.7159C276.245 10.5379 276.516 10.2955 276.728 9.98864C276.944 9.67803 277.103 9.32576 277.206 8.93182C277.312 8.53409 277.365 8.11742 277.365 7.68182C277.365 7.09848 277.272 6.55492 277.086 6.05114C276.901 5.54735 276.615 5.14015 276.228 4.82955C275.842 4.51894 275.35 4.36364 274.751 4.36364H274.524V10.9773H274.751ZM283.501 12.1818C282.713 12.1818 282.022 11.9943 281.427 11.6193C280.836 11.2443 280.374 10.7197 280.041 10.0455C279.711 9.37121 279.546 8.58333 279.546 7.68182C279.546 6.77273 279.711 5.97917 280.041 5.30114C280.374 4.62311 280.836 4.09659 281.427 3.72159C282.022 3.34659 282.713 3.15909 283.501 3.15909C284.289 3.15909 284.978 3.34659 285.569 3.72159C286.164 4.09659 286.626 4.62311 286.955 5.30114C287.289 5.97917 287.455 6.77273 287.455 7.68182C287.455 8.58333 287.289 9.37121 286.955 10.0455C286.626 10.7197 286.164 11.2443 285.569 11.6193C284.978 11.9943 284.289 12.1818 283.501 12.1818ZM283.501 10.9773C284.099 10.9773 284.592 10.8239 284.978 10.517C285.364 10.2102 285.65 9.80682 285.836 9.30682C286.022 8.80682 286.114 8.26515 286.114 7.68182C286.114 7.09848 286.022 6.55492 285.836 6.05114C285.65 5.54735 285.364 5.14015 284.978 4.82955C284.592 4.51894 284.099 4.36364 283.501 4.36364C282.902 4.36364 282.41 4.51894 282.024 4.82955C281.637 5.14015 281.351 5.54735 281.166 6.05114C280.98 6.55492 280.887 7.09848 280.887 7.68182C280.887 8.26515 280.98 8.80682 281.166 9.30682C281.351 9.80682 281.637 10.2102 282.024 10.517C282.41 10.8239 282.902 10.9773 283.501 10.9773ZM288.702 15.2727V3.27273H289.998V4.65909H290.157C290.255 4.50758 290.392 4.31439 290.566 4.07955C290.744 3.84091 290.998 3.62879 291.327 3.44318C291.661 3.25379 292.111 3.15909 292.68 3.15909C293.414 3.15909 294.062 3.3428 294.623 3.71023C295.183 4.07765 295.621 4.59848 295.935 5.27273C296.25 5.94697 296.407 6.74242 296.407 7.65909C296.407 8.58333 296.25 9.38447 295.935 10.0625C295.621 10.7367 295.185 11.2595 294.628 11.6307C294.072 11.9981 293.43 12.1818 292.702 12.1818C292.142 12.1818 291.693 12.089 291.356 11.9034C291.019 11.714 290.759 11.5 290.577 11.2614C290.395 11.0189 290.255 10.8182 290.157 10.6591H290.043V15.2727H288.702ZM290.02 7.63636C290.02 8.29545 290.117 8.87689 290.31 9.38068C290.503 9.88068 290.786 10.2727 291.157 10.5568C291.528 10.8371 291.983 10.9773 292.52 10.9773C293.081 10.9773 293.549 10.8295 293.924 10.5341C294.303 10.2348 294.587 9.83333 294.776 9.32955C294.969 8.82197 295.066 8.25758 295.066 7.63636C295.066 7.02273 294.971 6.4697 294.782 5.97727C294.596 5.48106 294.314 5.08902 293.935 4.80114C293.56 4.50947 293.089 4.36364 292.52 4.36364C291.975 4.36364 291.517 4.50189 291.145 4.77841C290.774 5.05114 290.494 5.43371 290.305 5.92614C290.115 6.41477 290.02 6.98485 290.02 7.63636ZM302.425 10.1818L305.47 3.27273H306.743L302.97 12H301.88L298.175 3.27273H299.425L302.425 10.1818ZM298.993 3.27273V12H297.652V3.27273H298.993ZM305.857 12V3.27273H307.198V12H305.857ZM311.42 12.2045C310.867 12.2045 310.366 12.1004 309.915 11.892C309.464 11.6799 309.106 11.375 308.841 10.9773C308.576 10.5758 308.443 10.0909 308.443 9.52273C308.443 9.02273 308.542 8.61742 308.739 8.30682C308.936 7.99242 309.199 7.74621 309.528 7.56818C309.858 7.39015 310.222 7.25758 310.619 7.17045C311.021 7.07955 311.424 7.00758 311.83 6.95455C312.36 6.88636 312.79 6.83523 313.119 6.80114C313.453 6.76326 313.695 6.70076 313.847 6.61364C314.002 6.52652 314.08 6.375 314.08 6.15909V6.11364C314.08 5.55303 313.926 5.11742 313.619 4.80682C313.316 4.49621 312.856 4.34091 312.239 4.34091C311.598 4.34091 311.097 4.48106 310.733 4.76136C310.369 5.04167 310.114 5.34091 309.966 5.65909L308.693 5.20455C308.92 4.67424 309.223 4.26136 309.602 3.96591C309.985 3.66667 310.402 3.45833 310.852 3.34091C311.307 3.2197 311.754 3.15909 312.193 3.15909C312.473 3.15909 312.795 3.19318 313.159 3.26136C313.527 3.32576 313.881 3.46023 314.222 3.66477C314.566 3.86932 314.852 4.17803 315.08 4.59091C315.307 5.00379 315.42 5.55682 315.42 6.25V12H314.08V10.8182H314.011C313.92 11.0076 313.769 11.2102 313.557 11.4261C313.345 11.642 313.063 11.8258 312.71 11.9773C312.358 12.1288 311.928 12.2045 311.42 12.2045ZM311.625 11C312.155 11 312.602 10.8958 312.966 10.6875C313.333 10.4792 313.61 10.2102 313.795 9.88068C313.985 9.55114 314.08 9.20455 314.08 8.84091V7.61364C314.023 7.68182 313.898 7.74432 313.705 7.80114C313.515 7.85417 313.295 7.90151 313.045 7.94318C312.799 7.98106 312.559 8.01515 312.324 8.04545C312.093 8.07197 311.905 8.0947 311.761 8.11364C311.413 8.15909 311.087 8.23295 310.784 8.33523C310.485 8.43371 310.242 8.58333 310.057 8.78409C309.875 8.98106 309.784 9.25 309.784 9.59091C309.784 10.0568 309.956 10.4091 310.301 10.6477C310.65 10.8826 311.091 11 311.625 11ZM323.932 3.27273V10.75H325.159V14.8182H323.818V12H317.068V3.27273H318.409V10.75H322.591V3.27273H323.932ZM327.765 10.0227L331.97 3.27273H333.515V12H332.174V5.25L327.992 12H326.424V3.27273H327.765V10.0227ZM339.353 7.09091V8.34091H334.739V7.09091H339.353ZM335.876 3.27273V12H334.535V3.27273H335.876ZM342.035 12.1818C341.247 12.1818 340.555 11.9943 339.961 11.6193C339.37 11.2443 338.908 10.7197 338.574 10.0455C338.245 9.37121 338.08 8.58333 338.08 7.68182C338.08 6.77273 338.245 5.97917 338.574 5.30114C338.908 4.62311 339.37 4.09659 339.961 3.72159C340.555 3.34659 341.247 3.15909 342.035 3.15909C342.823 3.15909 343.512 3.34659 344.103 3.72159C344.698 4.09659 345.16 4.62311 345.489 5.30114C345.823 5.97917 345.989 6.77273 345.989 7.68182C345.989 8.58333 345.823 9.37121 345.489 10.0455C345.16 10.7197 344.698 11.2443 344.103 11.6193C343.512 11.9943 342.823 12.1818 342.035 12.1818ZM342.035 10.9773C342.633 10.9773 343.126 10.8239 343.512 10.517C343.898 10.2102 344.184 9.80682 344.37 9.30682C344.555 8.80682 344.648 8.26515 344.648 7.68182C344.648 7.09848 344.555 6.55492 344.37 6.05114C344.184 5.54735 343.898 5.14015 343.512 4.82955C343.126 4.51894 342.633 4.36364 342.035 4.36364C341.436 4.36364 340.944 4.51894 340.557 4.82955C340.171 5.14015 339.885 5.54735 339.699 6.05114C339.514 6.55492 339.421 7.09848 339.421 7.68182C339.421 8.26515 339.514 8.80682 339.699 9.30682C339.885 9.80682 340.171 10.2102 340.557 10.517C340.944 10.8239 341.436 10.9773 342.035 10.9773ZM354.616 12.1818C353.829 12.1818 353.137 11.9943 352.543 11.6193C351.952 11.2443 351.49 10.7197 351.156 10.0455C350.827 9.37121 350.662 8.58333 350.662 7.68182C350.662 6.77273 350.827 5.97917 351.156 5.30114C351.49 4.62311 351.952 4.09659 352.543 3.72159C353.137 3.34659 353.829 3.15909 354.616 3.15909C355.404 3.15909 356.094 3.34659 356.685 3.72159C357.279 4.09659 357.741 4.62311 358.071 5.30114C358.404 5.97917 358.571 6.77273 358.571 7.68182C358.571 8.58333 358.404 9.37121 358.071 10.0455C357.741 10.7197 357.279 11.2443 356.685 11.6193C356.094 11.9943 355.404 12.1818 354.616 12.1818ZM354.616 10.9773C355.215 10.9773 355.707 10.8239 356.094 10.517C356.48 10.2102 356.766 9.80682 356.952 9.30682C357.137 8.80682 357.23 8.26515 357.23 7.68182C357.23 7.09848 357.137 6.55492 356.952 6.05114C356.766 5.54735 356.48 5.14015 356.094 4.82955C355.707 4.51894 355.215 4.36364 354.616 4.36364C354.018 4.36364 353.526 4.51894 353.139 4.82955C352.753 5.14015 352.467 5.54735 352.281 6.05114C352.096 6.55492 352.003 7.09848 352.003 7.68182C352.003 8.26515 352.096 8.80682 352.281 9.30682C352.467 9.80682 352.753 10.2102 353.139 10.517C353.526 10.8239 354.018 10.9773 354.616 10.9773ZM1.22727 31V22.2727H8.09091V31H6.75V23.5227H2.56818V31H1.22727ZM13.2852 31.1818C12.4973 31.1818 11.8061 30.9943 11.2114 30.6193C10.6205 30.2443 10.1583 29.7197 9.825 29.0455C9.49545 28.3712 9.33068 27.5833 9.33068 26.6818C9.33068 25.7727 9.49545 24.9792 9.825 24.3011C10.1583 23.6231 10.6205 23.0966 11.2114 22.7216C11.8061 22.3466 12.4973 22.1591 13.2852 22.1591C14.0731 22.1591 14.7625 22.3466 15.3534 22.7216C15.9481 23.0966 16.4102 23.6231 16.7398 24.3011C17.0731 24.9792 17.2398 25.7727 17.2398 26.6818C17.2398 27.5833 17.0731 28.3712 16.7398 29.0455C16.4102 29.7197 15.9481 30.2443 15.3534 30.6193C14.7625 30.9943 14.0731 31.1818 13.2852 31.1818ZM13.2852 29.9773C13.8837 29.9773 14.3761 29.8239 14.7625 29.517C15.1489 29.2102 15.4348 28.8068 15.6205 28.3068C15.8061 27.8068 15.8989 27.2652 15.8989 26.6818C15.8989 26.0985 15.8061 25.5549 15.6205 25.0511C15.4348 24.5473 15.1489 24.1402 14.7625 23.8295C14.3761 23.5189 13.8837 23.3636 13.2852 23.3636C12.6867 23.3636 12.1943 23.5189 11.808 23.8295C11.4216 24.1402 11.1356 24.5473 10.95 25.0511C10.7644 25.5549 10.6716 26.0985 10.6716 26.6818C10.6716 27.2652 10.7644 27.8068 10.95 28.3068C11.1356 28.8068 11.4216 29.2102 11.808 29.517C12.1943 29.8239 12.6867 29.9773 13.2852 29.9773ZM22.0321 31.1818C21.2139 31.1818 20.5094 30.9886 19.9185 30.6023C19.3276 30.2159 18.873 29.6837 18.5548 29.0057C18.2366 28.3277 18.0776 27.553 18.0776 26.6818C18.0776 25.7955 18.2404 25.0133 18.5662 24.3352C18.8957 23.6534 19.3541 23.1212 19.9412 22.7386C20.5321 22.3523 21.2215 22.1591 22.0094 22.1591C22.623 22.1591 23.176 22.2727 23.6685 22.5C24.1609 22.7273 24.5643 23.0455 24.8787 23.4545C25.1931 23.8636 25.3882 24.3409 25.4639 24.8864H24.123C24.0207 24.4886 23.7935 24.1364 23.4412 23.8295C23.0927 23.5189 22.623 23.3636 22.0321 23.3636C21.5094 23.3636 21.051 23.5 20.6571 23.7727C20.267 24.0417 19.962 24.4223 19.7423 24.9148C19.5264 25.4034 19.4185 25.9773 19.4185 26.6364C19.4185 27.3106 19.5245 27.8977 19.7366 28.3977C19.9526 28.8977 20.2556 29.286 20.6457 29.5625C21.0397 29.839 21.5018 29.9773 22.0321 29.9773C22.3806 29.9773 22.6969 29.9167 22.981 29.7955C23.2651 29.6742 23.5056 29.5 23.7026 29.2727C23.8995 29.0455 24.0397 28.7727 24.123 28.4545H25.4639C25.3882 28.9697 25.2007 29.4337 24.9014 29.8466C24.606 30.2557 24.2139 30.5814 23.7253 30.8239C23.2404 31.0625 22.676 31.1818 22.0321 31.1818ZM25.9366 23.5227V22.2727H33.0276V23.5227H30.1639V31H28.823V23.5227H25.9366ZM36.2986 31.2045C35.7455 31.2045 35.2437 31.1004 34.7929 30.892C34.3421 30.6799 33.9842 30.375 33.719 29.9773C33.4539 29.5758 33.3213 29.0909 33.3213 28.5227C33.3213 28.0227 33.4198 27.6174 33.6168 27.3068C33.8137 26.9924 34.077 26.7462 34.4065 26.5682C34.7361 26.3902 35.0997 26.2576 35.4974 26.1705C35.899 26.0795 36.3024 26.0076 36.7077 25.9545C37.238 25.8864 37.6679 25.8352 37.9974 25.8011C38.3308 25.7633 38.5732 25.7008 38.7247 25.6136C38.88 25.5265 38.9577 25.375 38.9577 25.1591V25.1136C38.9577 24.553 38.8043 24.1174 38.4974 23.8068C38.1944 23.4962 37.7342 23.3409 37.1168 23.3409C36.4766 23.3409 35.9747 23.4811 35.6111 23.7614C35.2474 24.0417 34.9918 24.3409 34.844 24.6591L33.5713 24.2045C33.7986 23.6742 34.1016 23.2614 34.4804 22.9659C34.863 22.6667 35.2796 22.4583 35.7304 22.3409C36.1849 22.2197 36.6319 22.1591 37.0713 22.1591C37.3516 22.1591 37.6736 22.1932 38.0372 22.2614C38.4046 22.3258 38.7588 22.4602 39.0997 22.6648C39.4444 22.8693 39.7304 23.178 39.9577 23.5909C40.1849 24.0038 40.2986 24.5568 40.2986 25.25V31H38.9577V29.8182H38.8895C38.7986 30.0076 38.6471 30.2102 38.4349 30.4261C38.2228 30.642 37.9406 30.8258 37.5884 30.9773C37.2361 31.1288 36.8062 31.2045 36.2986 31.2045ZM36.5031 30C37.0334 30 37.4804 29.8958 37.844 29.6875C38.2115 29.4792 38.488 29.2102 38.6736 28.8807C38.863 28.5511 38.9577 28.2045 38.9577 27.8409V26.6136C38.9009 26.6818 38.7759 26.7443 38.5827 26.8011C38.3933 26.8542 38.1736 26.9015 37.9236 26.9432C37.6774 26.9811 37.4368 27.0152 37.202 27.0455C36.9709 27.072 36.7834 27.0947 36.6395 27.1136C36.291 27.1591 35.9652 27.233 35.6622 27.3352C35.363 27.4337 35.1205 27.5833 34.9349 27.7841C34.7531 27.9811 34.6622 28.25 34.6622 28.5909C34.6622 29.0568 34.8346 29.4091 35.1793 29.6477C35.5277 29.8826 35.969 30 36.5031 30ZM41.946 31V22.2727H45.5142C46.4536 22.2727 47.1998 22.4848 47.7528 22.9091C48.3059 23.3333 48.5824 23.8939 48.5824 24.5909C48.5824 25.1212 48.4252 25.5322 48.1108 25.8239C47.7964 26.1117 47.393 26.3068 46.9006 26.4091C47.2225 26.4545 47.535 26.5682 47.8381 26.75C48.1449 26.9318 48.3987 27.1818 48.5994 27.5C48.8002 27.8144 48.9006 28.2008 48.9006 28.6591C48.9006 29.1061 48.7869 29.5057 48.5597 29.858C48.3324 30.2102 48.0066 30.4886 47.5824 30.6932C47.1581 30.8977 46.6506 31 46.0597 31H41.946ZM43.2188 29.7727H46.0597C46.5218 29.7727 46.8835 29.6629 47.1449 29.4432C47.4063 29.2235 47.5369 28.9242 47.5369 28.5455C47.5369 28.0947 47.4063 27.7405 47.1449 27.483C46.8835 27.2216 46.5218 27.0909 46.0597 27.0909H43.2188V29.7727ZM43.2188 25.9318H45.5142C45.8741 25.9318 46.1828 25.8826 46.4403 25.7841C46.6979 25.6818 46.8949 25.5379 47.0312 25.3523C47.1714 25.1629 47.2415 24.9394 47.2415 24.6818C47.2415 24.3144 47.0881 24.0265 46.7812 23.8182C46.4744 23.6061 46.0521 23.5 45.5142 23.5H43.2188V25.9318ZM62.0395 29.75L61.8804 33.5H60.494V31H59.3577V29.75H62.0395ZM50.1304 22.2727H51.4713V29.75H54.7668V22.2727H56.1077V29.75H59.4031V22.2727H60.744V31H50.1304V22.2727ZM64.5307 29.0227L68.7352 22.2727H70.2807V31H68.9398V24.25L64.758 31H63.1898V22.2727H64.5307V29.0227ZM71.9366 31V22.2727H73.2776V26.0682H74.1639L77.3003 22.2727H79.0276L75.5048 26.4773L79.073 31H77.3457L74.4821 27.3182H73.2776V31H71.9366ZM82.2986 31.2045C81.7456 31.2045 81.2437 31.1004 80.7929 30.892C80.3421 30.6799 79.9842 30.375 79.719 29.9773C79.4539 29.5758 79.3213 29.0909 79.3213 28.5227C79.3213 28.0227 79.4198 27.6174 79.6168 27.3068C79.8137 26.9924 80.077 26.7462 80.4065 26.5682C80.7361 26.3902 81.0997 26.2576 81.4974 26.1705C81.899 26.0795 82.3024 26.0076 82.7077 25.9545C83.238 25.8864 83.6679 25.8352 83.9974 25.8011C84.3308 25.7633 84.5732 25.7008 84.7247 25.6136C84.88 25.5265 84.9577 25.375 84.9577 25.1591V25.1136C84.9577 24.553 84.8043 24.1174 84.4974 23.8068C84.1944 23.4962 83.7342 23.3409 83.1168 23.3409C82.4766 23.3409 81.9747 23.4811 81.6111 23.7614C81.2474 24.0417 80.9918 24.3409 80.844 24.6591L79.5713 24.2045C79.7986 23.6742 80.1016 23.2614 80.4804 22.9659C80.863 22.6667 81.2796 22.4583 81.7304 22.3409C82.1849 22.2197 82.6319 22.1591 83.0713 22.1591C83.3516 22.1591 83.6736 22.1932 84.0372 22.2614C84.4046 22.3258 84.7588 22.4602 85.0997 22.6648C85.4444 22.8693 85.7304 23.178 85.9577 23.5909C86.1849 24.0038 86.2986 24.5568 86.2986 25.25V31H84.9577V29.8182H84.8895C84.7986 30.0076 84.6471 30.2102 84.4349 30.4261C84.2228 30.642 83.9406 30.8258 83.5884 30.9773C83.2361 31.1288 82.8062 31.2045 82.2986 31.2045ZM82.5031 30C83.0334 30 83.4804 29.8958 83.844 29.6875C84.2115 29.4792 84.488 29.2102 84.6736 28.8807C84.863 28.5511 84.9577 28.2045 84.9577 27.8409V26.6136C84.9009 26.6818 84.7759 26.7443 84.5827 26.8011C84.3933 26.8542 84.1736 26.9015 83.9236 26.9432C83.6774 26.9811 83.4368 27.0152 83.202 27.0455C82.9709 27.072 82.7834 27.0947 82.6395 27.1136C82.291 27.1591 81.9652 27.233 81.6622 27.3352C81.363 27.4337 81.1206 27.5833 80.9349 27.7841C80.7531 27.9811 80.6622 28.25 80.6622 28.5909C80.6622 29.0568 80.8346 29.4091 81.1793 29.6477C81.5277 29.8826 81.969 30 82.5031 30ZM88.946 22.2727L91.0369 25.8409L93.1278 22.2727H94.6733L91.8551 26.6364L94.6733 31H93.1278L91.0369 27.6136L88.946 31H87.4006L90.1733 26.6364L87.4006 22.2727H88.946ZM100.828 29.0227L105.032 22.2727H106.578V31H105.237V24.25L101.055 31H99.4866V22.2727H100.828V29.0227ZM113.274 29.0227L117.479 22.2727H119.024V31H117.684V24.25L113.502 31H111.934V22.2727H113.274V29.0227ZM121.68 22.2727L123.771 25.8409L125.862 22.2727H127.408L124.589 26.6364L127.408 31H125.862L123.771 27.6136L121.68 31H120.135L122.908 26.6364L120.135 22.2727H121.68ZM132.221 31V22.2727H139.085V31H137.744V23.5227H133.562V31H132.221ZM140.734 34.2727V22.2727H142.029V23.6591H142.188C142.287 23.5076 142.423 23.3144 142.597 23.0795C142.775 22.8409 143.029 22.6288 143.359 22.4432C143.692 22.2538 144.143 22.1591 144.711 22.1591C145.446 22.1591 146.093 22.3428 146.654 22.7102C147.215 23.0777 147.652 23.5985 147.966 24.2727C148.281 24.947 148.438 25.7424 148.438 26.6591C148.438 27.5833 148.281 28.3845 147.966 29.0625C147.652 29.7367 147.216 30.2595 146.66 30.6307C146.103 30.9981 145.461 31.1818 144.734 31.1818C144.173 31.1818 143.724 31.089 143.387 30.9034C143.05 30.714 142.79 30.5 142.609 30.2614C142.427 30.0189 142.287 29.8182 142.188 29.6591H142.074V34.2727H140.734ZM142.052 26.6364C142.052 27.2955 142.148 27.8769 142.341 28.3807C142.535 28.8807 142.817 29.2727 143.188 29.5568C143.559 29.8371 144.014 29.9773 144.552 29.9773C145.112 29.9773 145.58 29.8295 145.955 29.5341C146.334 29.2348 146.618 28.8333 146.807 28.3295C147.001 27.822 147.097 27.2576 147.097 26.6364C147.097 26.0227 147.002 25.4697 146.813 24.9773C146.627 24.4811 146.345 24.089 145.966 23.8011C145.591 23.5095 145.12 23.3636 144.552 23.3636C144.006 23.3636 143.548 23.5019 143.177 23.7784C142.805 24.0511 142.525 24.4337 142.336 24.9261C142.146 25.4148 142.052 25.9848 142.052 26.6364ZM153.229 31.1818C152.441 31.1818 151.75 30.9943 151.155 30.6193C150.564 30.2443 150.102 29.7197 149.769 29.0455C149.439 28.3712 149.274 27.5833 149.274 26.6818C149.274 25.7727 149.439 24.9792 149.769 24.3011C150.102 23.6231 150.564 23.0966 151.155 22.7216C151.75 22.3466 152.441 22.1591 153.229 22.1591C154.017 22.1591 154.706 22.3466 155.297 22.7216C155.892 23.0966 156.354 23.6231 156.684 24.3011C157.017 24.9792 157.184 25.7727 157.184 26.6818C157.184 27.5833 157.017 28.3712 156.684 29.0455C156.354 29.7197 155.892 30.2443 155.297 30.6193C154.706 30.9943 154.017 31.1818 153.229 31.1818ZM153.229 29.9773C153.827 29.9773 154.32 29.8239 154.706 29.517C155.093 29.2102 155.379 28.8068 155.564 28.3068C155.75 27.8068 155.843 27.2652 155.843 26.6818C155.843 26.0985 155.75 25.5549 155.564 25.0511C155.379 24.5473 155.093 24.1402 154.706 23.8295C154.32 23.5189 153.827 23.3636 153.229 23.3636C152.63 23.3636 152.138 23.5189 151.752 23.8295C151.365 24.1402 151.079 24.5473 150.894 25.0511C150.708 25.5549 150.615 26.0985 150.615 26.6818C150.615 27.2652 150.708 27.8068 150.894 28.3068C151.079 28.8068 151.365 29.2102 151.752 29.517C152.138 29.8239 152.63 29.9773 153.229 29.9773ZM157.499 33.5V29.75H158.226C158.404 29.5644 158.557 29.3636 158.686 29.1477C158.815 28.9318 158.927 28.6761 159.021 28.3807C159.12 28.0814 159.203 27.7178 159.271 27.2898C159.339 26.858 159.4 26.3371 159.453 25.7273L159.749 22.2727H165.294V29.75H166.635V33.5H165.294V31H158.839V33.5H157.499ZM159.749 29.75H163.953V23.5227H160.999L160.771 25.7273C160.677 26.6402 160.559 27.4375 160.419 28.1193C160.279 28.8011 160.055 29.3447 159.749 29.75ZM168.478 34.2727C168.251 34.2727 168.048 34.2538 167.87 34.2159C167.692 34.1818 167.569 34.1477 167.501 34.1136L167.842 32.9318C168.168 33.0152 168.456 33.0455 168.706 33.0227C168.956 33 169.177 32.8883 169.37 32.6875C169.567 32.4905 169.747 32.1705 169.91 31.7273L170.16 31.0455L166.933 22.2727H168.387L170.797 29.2273H170.887L173.297 22.2727H174.751L171.047 32.2727C170.88 32.7235 170.673 33.0966 170.427 33.392C170.181 33.6913 169.895 33.9129 169.569 34.0568C169.247 34.2008 168.884 34.2727 168.478 34.2727ZM175.721 31V22.2727H177.062V26.0682H177.948L181.085 22.2727H182.812L179.289 26.4773L182.857 31H181.13L178.266 27.3182H177.062V31H175.721ZM190.378 22.2727V29.75H191.606V33.8182H190.265V31H183.515V22.2727H184.856V29.75H189.038V22.2727H190.378ZM194.212 29.0227L198.416 22.2727H199.962V31H198.621V24.25L194.439 31H192.871V22.2727H194.212V29.0227ZM202.959 29.0227L207.163 22.2727H208.709V31H207.368V24.25L203.186 31H201.618V22.2727H202.959V29.0227ZM212.365 29.4091L212.274 30.0227C212.209 30.4545 212.111 30.9167 211.978 31.4091C211.85 31.9015 211.715 32.3655 211.575 32.8011C211.435 33.2367 211.319 33.5833 211.228 33.8409H210.206C210.255 33.5985 210.319 33.2784 210.399 32.8807C210.478 32.483 210.558 32.0379 210.637 31.5455C210.721 31.0568 210.789 30.5568 210.842 30.0455L210.91 29.4091H212.365ZM224.476 22.2727V31H223.136V22.2727H224.476ZM223.954 26.4318V27.6818C223.651 27.7955 223.35 27.8958 223.05 27.983C222.751 28.0663 222.437 28.1326 222.107 28.1818C221.778 28.2273 221.416 28.25 221.022 28.25C220.033 28.25 219.24 27.983 218.641 27.4489C218.047 26.9148 217.749 26.1136 217.749 25.0455V22.25H219.09V25.0455C219.09 25.4924 219.175 25.8598 219.346 26.1477C219.516 26.4356 219.747 26.6496 220.039 26.7898C220.331 26.9299 220.658 27 221.022 27C221.59 27 222.103 26.9489 222.562 26.8466C223.024 26.7405 223.488 26.6023 223.954 26.4318ZM224.949 23.5227V22.2727H232.04V23.5227H229.176V31H227.836V23.5227H224.949ZM236.288 31.1818C235.5 31.1818 234.809 30.9943 234.214 30.6193C233.624 30.2443 233.161 29.7197 232.828 29.0455C232.499 28.3712 232.334 27.5833 232.334 26.6818C232.334 25.7727 232.499 24.9792 232.828 24.3011C233.161 23.6231 233.624 23.0966 234.214 22.7216C234.809 22.3466 235.5 22.1591 236.288 22.1591C237.076 22.1591 237.766 22.3466 238.357 22.7216C238.951 23.0966 239.413 23.6231 239.743 24.3011C240.076 24.9792 240.243 25.7727 240.243 26.6818C240.243 27.5833 240.076 28.3712 239.743 29.0455C239.413 29.7197 238.951 30.2443 238.357 30.6193C237.766 30.9943 237.076 31.1818 236.288 31.1818ZM236.288 29.9773C236.887 29.9773 237.379 29.8239 237.766 29.517C238.152 29.2102 238.438 28.8068 238.624 28.3068C238.809 27.8068 238.902 27.2652 238.902 26.6818C238.902 26.0985 238.809 25.5549 238.624 25.0511C238.438 24.5473 238.152 24.1402 237.766 23.8295C237.379 23.5189 236.887 23.3636 236.288 23.3636C235.69 23.3636 235.197 23.5189 234.811 23.8295C234.425 24.1402 234.139 24.5473 233.953 25.0511C233.768 25.5549 233.675 26.0985 233.675 26.6818C233.675 27.2652 233.768 27.8068 233.953 28.3068C234.139 28.8068 234.425 29.2102 234.811 29.517C235.197 29.8239 235.69 29.9773 236.288 29.9773ZM245.19 31V22.2727H252.053V31H250.712V23.5227H246.531V31H245.19ZM257.248 31.1818C256.46 31.1818 255.769 30.9943 255.174 30.6193C254.583 30.2443 254.121 29.7197 253.788 29.0455C253.458 28.3712 253.293 27.5833 253.293 26.6818C253.293 25.7727 253.458 24.9792 253.788 24.3011C254.121 23.6231 254.583 23.0966 255.174 22.7216C255.769 22.3466 256.46 22.1591 257.248 22.1591C258.036 22.1591 258.725 22.3466 259.316 22.7216C259.911 23.0966 260.373 23.6231 260.702 24.3011C261.036 24.9792 261.202 25.7727 261.202 26.6818C261.202 27.5833 261.036 28.3712 260.702 29.0455C260.373 29.7197 259.911 30.2443 259.316 30.6193C258.725 30.9943 258.036 31.1818 257.248 31.1818ZM257.248 29.9773C257.846 29.9773 258.339 29.8239 258.725 29.517C259.111 29.2102 259.397 28.8068 259.583 28.3068C259.769 27.8068 259.861 27.2652 259.861 26.6818C259.861 26.0985 259.769 25.5549 259.583 25.0511C259.397 24.5473 259.111 24.1402 258.725 23.8295C258.339 23.5189 257.846 23.3636 257.248 23.3636C256.649 23.3636 256.157 23.5189 255.77 23.8295C255.384 24.1402 255.098 24.5473 254.913 25.0511C254.727 25.5549 254.634 26.0985 254.634 26.6818C254.634 27.2652 254.727 27.8068 254.913 28.3068C255.098 28.8068 255.384 29.2102 255.77 29.517C256.157 29.8239 256.649 29.9773 257.248 29.9773ZM267.222 29.1818L270.267 22.2727H271.54L267.767 31H266.676L262.972 22.2727H264.222L267.222 29.1818ZM263.79 22.2727V31H262.449V22.2727H263.79ZM270.654 31V22.2727H271.995V31H270.654ZM277.195 31.1818C276.407 31.1818 275.715 30.9943 275.121 30.6193C274.53 30.2443 274.068 29.7197 273.734 29.0455C273.405 28.3712 273.24 27.5833 273.24 26.6818C273.24 25.7727 273.405 24.9792 273.734 24.3011C274.068 23.6231 274.53 23.0966 275.121 22.7216C275.715 22.3466 276.407 22.1591 277.195 22.1591C277.982 22.1591 278.672 22.3466 279.263 22.7216C279.857 23.0966 280.32 23.6231 280.649 24.3011C280.982 24.9792 281.149 25.7727 281.149 26.6818C281.149 27.5833 280.982 28.3712 280.649 29.0455C280.32 29.7197 279.857 30.2443 279.263 30.6193C278.672 30.9943 277.982 31.1818 277.195 31.1818ZM277.195 29.9773C277.793 29.9773 278.286 29.8239 278.672 29.517C279.058 29.2102 279.344 28.8068 279.53 28.3068C279.715 27.8068 279.808 27.2652 279.808 26.6818C279.808 26.0985 279.715 25.5549 279.53 25.0511C279.344 24.5473 279.058 24.1402 278.672 23.8295C278.286 23.5189 277.793 23.3636 277.195 23.3636C276.596 23.3636 276.104 23.5189 275.717 23.8295C275.331 24.1402 275.045 24.5473 274.859 25.0511C274.674 25.5549 274.581 26.0985 274.581 26.6818C274.581 27.2652 274.674 27.8068 274.859 28.3068C275.045 28.8068 275.331 29.2102 275.717 29.517C276.104 29.8239 276.596 29.9773 277.195 29.9773ZM281.491 31L285.037 26.5682L281.537 22.2727H283.128L286.037 26H286.764V22.2727H288.105V26H288.809L291.718 22.2727H293.309L289.832 26.5682L293.355 31H291.741L288.787 27.25H288.105V31H286.764V27.25H286.082L283.105 31H281.491ZM297.771 31.1818C296.93 31.1818 296.204 30.9962 295.595 30.625C294.989 30.25 294.521 29.7273 294.191 29.0568C293.865 28.3826 293.703 27.5985 293.703 26.7045C293.703 25.8106 293.865 25.0227 294.191 24.3409C294.521 23.6553 294.979 23.1212 295.566 22.7386C296.157 22.3523 296.846 22.1591 297.634 22.1591C298.089 22.1591 298.538 22.2348 298.981 22.3864C299.424 22.5379 299.828 22.7841 300.191 23.125C300.555 23.4621 300.845 23.9091 301.061 24.4659C301.276 25.0227 301.384 25.7083 301.384 26.5227V27.0909H294.657V25.9318H300.021C300.021 25.4394 299.922 25 299.725 24.6136C299.532 24.2273 299.256 23.9223 298.896 23.6989C298.54 23.4754 298.119 23.3636 297.634 23.3636C297.1 23.3636 296.638 23.4962 296.248 23.7614C295.862 24.0227 295.564 24.3636 295.356 24.7841C295.148 25.2045 295.043 25.6553 295.043 26.1364V26.9091C295.043 27.5682 295.157 28.1269 295.384 28.5852C295.615 29.0398 295.936 29.3864 296.345 29.625C296.754 29.8598 297.229 29.9773 297.771 29.9773C298.123 29.9773 298.441 29.928 298.725 29.8295C299.013 29.7273 299.261 29.5758 299.47 29.375C299.678 29.1705 299.839 28.9167 299.953 28.6136L301.248 28.9773C301.112 29.4167 300.882 29.803 300.561 30.1364C300.239 30.4659 299.841 30.7235 299.367 30.9091C298.894 31.0909 298.362 31.1818 297.771 31.1818ZM301.812 23.5227V22.2727H308.903V23.5227H306.039V31H304.698V23.5227H301.812ZM313.759 31V22.2727H317.327C318.266 22.2727 319.012 22.4848 319.565 22.9091C320.118 23.3333 320.395 23.8939 320.395 24.5909C320.395 25.1212 320.238 25.5322 319.923 25.8239C319.609 26.1117 319.205 26.3068 318.713 26.4091C319.035 26.4545 319.348 26.5682 319.651 26.75C319.957 26.9318 320.211 27.1818 320.412 27.5C320.613 27.8144 320.713 28.2008 320.713 28.6591C320.713 29.1061 320.599 29.5057 320.372 29.858C320.145 30.2102 319.819 30.4886 319.395 30.6932C318.971 30.8977 318.463 31 317.872 31H313.759ZM315.031 29.7727H317.872C318.334 29.7727 318.696 29.6629 318.957 29.4432C319.219 29.2235 319.349 28.9242 319.349 28.5455C319.349 28.0947 319.219 27.7405 318.957 27.483C318.696 27.2216 318.334 27.0909 317.872 27.0909H315.031V29.7727ZM315.031 25.9318H317.327C317.687 25.9318 317.995 25.8826 318.253 25.7841C318.51 25.6818 318.707 25.5379 318.844 25.3523C318.984 25.1629 319.054 24.9394 319.054 24.6818C319.054 24.3144 318.901 24.0265 318.594 23.8182C318.287 23.6061 317.865 23.5 317.327 23.5H315.031V25.9318ZM324.511 31.2045C323.958 31.2045 323.456 31.1004 323.005 30.892C322.555 30.6799 322.197 30.375 321.932 29.9773C321.666 29.5758 321.534 29.0909 321.534 28.5227C321.534 28.0227 321.632 27.6174 321.829 27.3068C322.026 26.9924 322.29 26.7462 322.619 26.5682C322.949 26.3902 323.312 26.2576 323.71 26.1705C324.111 26.0795 324.515 26.0076 324.92 25.9545C325.45 25.8864 325.88 25.8352 326.21 25.8011C326.543 25.7633 326.786 25.7008 326.937 25.6136C327.093 25.5265 327.17 25.375 327.17 25.1591V25.1136C327.17 24.553 327.017 24.1174 326.71 23.8068C326.407 23.4962 325.947 23.3409 325.329 23.3409C324.689 23.3409 324.187 23.4811 323.824 23.7614C323.46 24.0417 323.204 24.3409 323.057 24.6591L321.784 24.2045C322.011 23.6742 322.314 23.2614 322.693 22.9659C323.075 22.6667 323.492 22.4583 323.943 22.3409C324.397 22.2197 324.844 22.1591 325.284 22.1591C325.564 22.1591 325.886 22.1932 326.25 22.2614C326.617 22.3258 326.971 22.4602 327.312 22.6648C327.657 22.8693 327.943 23.178 328.17 23.5909C328.397 24.0038 328.511 24.5568 328.511 25.25V31H327.17V29.8182H327.102C327.011 30.0076 326.86 30.2102 326.647 30.4261C326.435 30.642 326.153 30.8258 325.801 30.9773C325.449 31.1288 325.019 31.2045 324.511 31.2045ZM324.716 30C325.246 30 325.693 29.8958 326.057 29.6875C326.424 29.4792 326.7 29.2102 326.886 28.8807C327.075 28.5511 327.17 28.2045 327.17 27.8409V26.6136C327.113 26.6818 326.988 26.7443 326.795 26.8011C326.606 26.8542 326.386 26.9015 326.136 26.9432C325.89 26.9811 325.649 27.0152 325.415 27.0455C325.183 27.072 324.996 27.0947 324.852 27.1136C324.504 27.1591 324.178 27.233 323.875 27.3352C323.575 27.4337 323.333 27.5833 323.147 27.7841C322.966 27.9811 322.875 28.25 322.875 28.5909C322.875 29.0568 323.047 29.4091 323.392 29.6477C323.74 29.8826 324.182 30 324.716 30ZM334.931 29.1818L337.977 22.2727H339.249L335.477 31H334.386L330.681 22.2727H331.931L334.931 29.1818ZM331.499 22.2727V31H330.159V22.2727H331.499ZM338.363 31V22.2727H339.704V31H338.363ZM2.09091 53.2727C1.86364 53.2727 1.66098 53.2538 1.48295 53.2159C1.30492 53.1818 1.18182 53.1477 1.11364 53.1136L1.45455 51.9318C1.7803 52.0152 2.06818 52.0455 2.31818 52.0227C2.56818 52 2.78977 51.8883 2.98295 51.6875C3.17992 51.4905 3.35985 51.1705 3.52273 50.7273L3.77273 50.0455L0.545455 41.2727H2L4.40909 48.2273H4.5L6.90909 41.2727H8.36364L4.65909 51.2727C4.49242 51.7235 4.28598 52.0966 4.03977 52.392C3.79356 52.6913 3.50758 52.9129 3.18182 53.0568C2.85985 53.2008 2.49621 53.2727 2.09091 53.2727ZM8.78807 47.7727H10.2199C10.2502 48.1667 10.4282 48.4659 10.754 48.6705C11.0835 48.875 11.5116 48.9773 12.0381 48.9773C12.5759 48.9773 13.0362 48.8674 13.4187 48.6477C13.8013 48.4242 13.9926 48.0644 13.9926 47.5682C13.9926 47.2765 13.9206 47.0227 13.7767 46.8068C13.6328 46.5871 13.4301 46.4167 13.1687 46.2955C12.9074 46.1742 12.5987 46.1136 12.2426 46.1136H10.7426V44.9091H12.2426C12.7767 44.9091 13.1706 44.7879 13.4244 44.5455C13.682 44.303 13.8108 44 13.8108 43.6364C13.8108 43.2462 13.6725 42.9337 13.396 42.6989C13.1195 42.4602 12.7275 42.3409 12.2199 42.3409C11.7085 42.3409 11.2824 42.4564 10.9415 42.6875C10.6006 42.9148 10.4206 43.2083 10.4017 43.5682H8.99261C9.00776 43.0985 9.1517 42.6837 9.42443 42.3239C9.69716 41.9602 10.0684 41.6761 10.5381 41.4716C11.0078 41.2633 11.5456 41.1591 12.1517 41.1591C12.7653 41.1591 13.2975 41.267 13.7483 41.483C14.2028 41.6951 14.5532 41.9848 14.7994 42.3523C15.0494 42.7159 15.1744 43.1288 15.1744 43.5909C15.1744 44.0833 15.0362 44.4811 14.7597 44.7841C14.4831 45.0871 14.1366 45.303 13.7199 45.4318V45.5227C14.0494 45.5455 14.3354 45.6515 14.5778 45.8409C14.8241 46.0265 15.0153 46.2708 15.1517 46.5739C15.2881 46.8731 15.3562 47.2045 15.3562 47.5682C15.3562 48.0985 15.2142 48.5606 14.9301 48.9545C14.646 49.3447 14.2559 49.6477 13.7597 49.8636C13.2634 50.0758 12.6972 50.1818 12.0608 50.1818C11.4434 50.1818 10.8903 50.0814 10.4017 49.8807C9.91307 49.6761 9.52481 49.3939 9.23693 49.0341C8.95284 48.6705 8.80322 48.25 8.78807 47.7727ZM22.2807 45.0227V46.2727H17.4625V45.0227H22.2807ZM17.7807 41.2727V50H16.4398V41.2727H17.7807ZM23.3034 41.2727V50H21.9625V41.2727H23.3034ZM27.5205 50.2045C26.9674 50.2045 26.4655 50.1004 26.0148 49.892C25.564 49.6799 25.2061 49.375 24.9409 48.9773C24.6758 48.5758 24.5432 48.0909 24.5432 47.5227C24.5432 47.0227 24.6417 46.6174 24.8386 46.3068C25.0356 45.9924 25.2989 45.7462 25.6284 45.5682C25.958 45.3902 26.3216 45.2576 26.7193 45.1705C27.1208 45.0795 27.5242 45.0076 27.9295 44.9545C28.4598 44.8864 28.8898 44.8352 29.2193 44.8011C29.5527 44.7633 29.7951 44.7008 29.9466 44.6136C30.1019 44.5265 30.1795 44.375 30.1795 44.1591V44.1136C30.1795 43.553 30.0261 43.1174 29.7193 42.8068C29.4163 42.4962 28.9561 42.3409 28.3386 42.3409C27.6985 42.3409 27.1966 42.4811 26.833 42.7614C26.4693 43.0417 26.2136 43.3409 26.0659 43.6591L24.7932 43.2045C25.0205 42.6742 25.3235 42.2614 25.7023 41.9659C26.0848 41.6667 26.5015 41.4583 26.9523 41.3409C27.4068 41.2197 27.8538 41.1591 28.2932 41.1591C28.5735 41.1591 28.8955 41.1932 29.2591 41.2614C29.6265 41.3258 29.9807 41.4602 30.3216 41.6648C30.6663 41.8693 30.9523 42.178 31.1795 42.5909C31.4068 43.0038 31.5205 43.5568 31.5205 44.25V50H30.1795V48.8182H30.1114C30.0205 49.0076 29.8689 49.2102 29.6568 49.4261C29.4447 49.642 29.1625 49.8258 28.8102 49.9773C28.458 50.1288 28.028 50.2045 27.5205 50.2045ZM27.725 49C28.2553 49 28.7023 48.8958 29.0659 48.6875C29.4333 48.4792 29.7098 48.2102 29.8955 47.8807C30.0848 47.5511 30.1795 47.2045 30.1795 46.8409V45.6136C30.1227 45.6818 29.9977 45.7443 29.8045 45.8011C29.6152 45.8542 29.3955 45.9015 29.1455 45.9432C28.8992 45.9811 28.6587 46.0152 28.4239 46.0455C28.1928 46.072 28.0053 46.0947 27.8614 46.1136C27.5129 46.1591 27.1871 46.233 26.8841 46.3352C26.5848 46.4337 26.3424 46.5833 26.1568 46.7841C25.975 46.9811 25.8841 47.25 25.8841 47.5909C25.8841 48.0568 26.0564 48.4091 26.4011 48.6477C26.7496 48.8826 27.1909 49 27.725 49ZM31.9804 42.5227V41.2727H39.0713V42.5227H36.2077V50H34.8668V42.5227H31.9804ZM41.3864 44.4318H43.8864C44.9091 44.4318 45.6913 44.6913 46.233 45.2102C46.7746 45.7292 47.0455 46.3864 47.0455 47.1818C47.0455 47.7045 46.9242 48.1799 46.6818 48.608C46.4394 49.0322 46.0833 49.3712 45.6136 49.625C45.1439 49.875 44.5682 50 43.8864 50H40.2273V41.2727H41.5682V48.75H43.8864C44.4167 48.75 44.8523 48.6098 45.1932 48.3295C45.5341 48.0492 45.7045 47.6894 45.7045 47.25C45.7045 46.7879 45.5341 46.411 45.1932 46.1193C44.8523 45.8277 44.4167 45.6818 43.8864 45.6818H41.3864V44.4318ZM50.2866 48.4091L50.1957 49.0227C50.1313 49.4545 50.0329 49.9167 49.9003 50.4091C49.7715 50.9015 49.637 51.3655 49.4969 51.8011C49.3567 52.2367 49.2412 52.5833 49.1503 52.8409H48.1276C48.1768 52.5985 48.2412 52.2784 48.3207 51.8807C48.4003 51.483 48.4798 51.0379 48.5594 50.5455C48.6427 50.0568 48.7109 49.5568 48.7639 49.0455L48.8321 48.4091H50.2866ZM55.671 50V41.2727H57.0119V45.0682H57.8983L61.0347 41.2727H62.7619L59.2392 45.4773L62.8074 50H61.0801L58.2165 46.3182H57.0119V50H55.671ZM66.033 50.2045C65.4799 50.2045 64.978 50.1004 64.5273 49.892C64.0765 49.6799 63.7186 49.375 63.4534 48.9773C63.1883 48.5758 63.0557 48.0909 63.0557 47.5227C63.0557 47.0227 63.1542 46.6174 63.3511 46.3068C63.5481 45.9924 63.8114 45.7462 64.1409 45.5682C64.4705 45.3902 64.8341 45.2576 65.2318 45.1705C65.6333 45.0795 66.0367 45.0076 66.442 44.9545C66.9723 44.8864 67.4023 44.8352 67.7318 44.8011C68.0652 44.7633 68.3076 44.7008 68.4591 44.6136C68.6144 44.5265 68.692 44.375 68.692 44.1591V44.1136C68.692 43.553 68.5386 43.1174 68.2318 42.8068C67.9288 42.4962 67.4686 42.3409 66.8511 42.3409C66.211 42.3409 65.7091 42.4811 65.3455 42.7614C64.9818 43.0417 64.7261 43.3409 64.5784 43.6591L63.3057 43.2045C63.533 42.6742 63.836 42.2614 64.2148 41.9659C64.5973 41.6667 65.014 41.4583 65.4648 41.3409C65.9193 41.2197 66.3663 41.1591 66.8057 41.1591C67.086 41.1591 67.408 41.1932 67.7716 41.2614C68.139 41.3258 68.4932 41.4602 68.8341 41.6648C69.1788 41.8693 69.4648 42.178 69.692 42.5909C69.9193 43.0038 70.033 43.5568 70.033 44.25V50H68.692V48.8182H68.6239C68.533 49.0076 68.3814 49.2102 68.1693 49.4261C67.9572 49.642 67.675 49.8258 67.3227 49.9773C66.9705 50.1288 66.5405 50.2045 66.033 50.2045ZM66.2375 49C66.7678 49 67.2148 48.8958 67.5784 48.6875C67.9458 48.4792 68.2223 48.2102 68.408 47.8807C68.5973 47.5511 68.692 47.2045 68.692 46.8409V45.6136C68.6352 45.6818 68.5102 45.7443 68.317 45.8011C68.1277 45.8542 67.908 45.9015 67.658 45.9432C67.4117 45.9811 67.1712 46.0152 66.9364 46.0455C66.7053 46.072 66.5178 46.0947 66.3739 46.1136C66.0254 46.1591 65.6996 46.233 65.3966 46.3352C65.0973 46.4337 64.8549 46.5833 64.6693 46.7841C64.4875 46.9811 64.3966 47.25 64.3966 47.5909C64.3966 48.0568 64.5689 48.4091 64.9136 48.6477C65.2621 48.8826 65.7034 49 66.2375 49ZM71.6804 50V41.2727H73.0213V45.0682H73.9077L77.044 41.2727H78.7713L75.2486 45.4773L78.8168 50H77.0895L74.2259 46.3182H73.0213V50H71.6804ZM82.0423 50.2045C81.4893 50.2045 80.9874 50.1004 80.5366 49.892C80.0859 49.6799 79.7279 49.375 79.4628 48.9773C79.1976 48.5758 79.0651 48.0909 79.0651 47.5227C79.0651 47.0227 79.1635 46.6174 79.3605 46.3068C79.5575 45.9924 79.8207 45.7462 80.1503 45.5682C80.4798 45.3902 80.8435 45.2576 81.2412 45.1705C81.6427 45.0795 82.0461 45.0076 82.4514 44.9545C82.9817 44.8864 83.4116 44.8352 83.7412 44.8011C84.0745 44.7633 84.3169 44.7008 84.4685 44.6136C84.6238 44.5265 84.7014 44.375 84.7014 44.1591V44.1136C84.7014 43.553 84.548 43.1174 84.2412 42.8068C83.9382 42.4962 83.4779 42.3409 82.8605 42.3409C82.2204 42.3409 81.7185 42.4811 81.3548 42.7614C80.9912 43.0417 80.7355 43.3409 80.5878 43.6591L79.3151 43.2045C79.5423 42.6742 79.8454 42.2614 80.2241 41.9659C80.6067 41.6667 81.0234 41.4583 81.4741 41.3409C81.9287 41.2197 82.3757 41.1591 82.8151 41.1591C83.0954 41.1591 83.4173 41.1932 83.781 41.2614C84.1484 41.3258 84.5026 41.4602 84.8435 41.6648C85.1882 41.8693 85.4741 42.178 85.7014 42.5909C85.9287 43.0038 86.0423 43.5568 86.0423 44.25V50H84.7014V48.8182H84.6332C84.5423 49.0076 84.3908 49.2102 84.1787 49.4261C83.9666 49.642 83.6844 49.8258 83.3321 49.9773C82.9798 50.1288 82.5499 50.2045 82.0423 50.2045ZM82.2469 49C82.7772 49 83.2241 48.8958 83.5878 48.6875C83.9552 48.4792 84.2317 48.2102 84.4173 47.8807C84.6067 47.5511 84.7014 47.2045 84.7014 46.8409V45.6136C84.6446 45.6818 84.5196 45.7443 84.3264 45.8011C84.137 45.8542 83.9173 45.9015 83.6673 45.9432C83.4211 45.9811 83.1806 46.0152 82.9457 46.0455C82.7147 46.072 82.5272 46.0947 82.3832 46.1136C82.0348 46.1591 81.709 46.233 81.406 46.3352C81.1067 46.4337 80.8643 46.5833 80.6787 46.7841C80.4969 46.9811 80.406 47.25 80.406 47.5909C80.406 48.0568 80.5783 48.4091 80.923 48.6477C81.2715 48.8826 81.7128 49 82.2469 49ZM92.9398 50V42.5H90.6216C90.0989 42.5 89.6879 42.6212 89.3886 42.8636C89.0894 43.1061 88.9398 43.4394 88.9398 43.8636C88.9398 44.2803 89.0742 44.608 89.3432 44.8466C89.6159 45.0852 89.989 45.2045 90.4625 45.2045H93.2807V46.4545H90.4625C89.8716 46.4545 89.3621 46.3504 88.9341 46.142C88.5061 45.9337 88.1765 45.6364 87.9455 45.25C87.7144 44.8598 87.5989 44.3977 87.5989 43.8636C87.5989 43.3258 87.7201 42.8636 87.9625 42.4773C88.2049 42.0909 88.5515 41.7936 89.0023 41.5852C89.4568 41.3769 89.9966 41.2727 90.6216 41.2727H94.2125V50H92.9398ZM87.1216 50L89.5989 45.6591H91.0534L88.5761 50H87.1216ZM106.438 41.2727V48.75H107.665V52.8182H106.324V50H99.5742V41.2727H100.915V48.75H105.097V41.2727H106.438ZM112.496 50.1818C111.655 50.1818 110.929 49.9962 110.32 49.625C109.714 49.25 109.246 48.7273 108.916 48.0568C108.59 47.3826 108.428 46.5985 108.428 45.7045C108.428 44.8106 108.59 44.0227 108.916 43.3409C109.246 42.6553 109.704 42.1212 110.291 41.7386C110.882 41.3523 111.571 41.1591 112.359 41.1591C112.814 41.1591 113.263 41.2348 113.706 41.3864C114.149 41.5379 114.553 41.7841 114.916 42.125C115.28 42.4621 115.57 42.9091 115.786 43.4659C116.001 44.0227 116.109 44.7083 116.109 45.5227V46.0909H109.382V44.9318H114.746C114.746 44.4394 114.647 44 114.45 43.6136C114.257 43.2273 113.981 42.9223 113.621 42.6989C113.265 42.4754 112.844 42.3636 112.359 42.3636C111.825 42.3636 111.363 42.4962 110.973 42.7614C110.587 43.0227 110.289 43.3636 110.081 43.7841C109.873 44.2045 109.768 44.6553 109.768 45.1364V45.9091C109.768 46.5682 109.882 47.1269 110.109 47.5852C110.34 48.0398 110.661 48.3864 111.07 48.625C111.479 48.8598 111.954 48.9773 112.496 48.9773C112.848 48.9773 113.166 48.928 113.45 48.8295C113.738 48.7273 113.986 48.5758 114.195 48.375C114.403 48.1705 114.564 47.9167 114.678 47.6136L115.973 47.9773C115.837 48.4167 115.607 48.803 115.286 49.1364C114.964 49.4659 114.566 49.7235 114.092 49.9091C113.619 50.0909 113.087 50.1818 112.496 50.1818ZM123.19 45.0227V46.2727H118.372V45.0227H123.19ZM118.69 41.2727V50H117.349V41.2727H118.69ZM124.213 41.2727V50H122.872V41.2727H124.213ZM128.43 50.2045C127.877 50.2045 127.375 50.1004 126.924 49.892C126.473 49.6799 126.115 49.375 125.85 48.9773C125.585 48.5758 125.453 48.0909 125.453 47.5227C125.453 47.0227 125.551 46.6174 125.748 46.3068C125.945 45.9924 126.208 45.7462 126.538 45.5682C126.867 45.3902 127.231 45.2576 127.629 45.1705C128.03 45.0795 128.434 45.0076 128.839 44.9545C129.369 44.8864 129.799 44.8352 130.129 44.8011C130.462 44.7633 130.704 44.7008 130.856 44.6136C131.011 44.5265 131.089 44.375 131.089 44.1591V44.1136C131.089 43.553 130.936 43.1174 130.629 42.8068C130.326 42.4962 129.865 42.3409 129.248 42.3409C128.608 42.3409 128.106 42.4811 127.742 42.7614C127.379 43.0417 127.123 43.3409 126.975 43.6591L125.703 43.2045C125.93 42.6742 126.233 42.2614 126.612 41.9659C126.994 41.6667 127.411 41.4583 127.862 41.3409C128.316 41.2197 128.763 41.1591 129.203 41.1591C129.483 41.1591 129.805 41.1932 130.168 41.2614C130.536 41.3258 130.89 41.4602 131.231 41.6648C131.576 41.8693 131.862 42.178 132.089 42.5909C132.316 43.0038 132.43 43.5568 132.43 44.25V50H131.089V48.8182H131.021C130.93 49.0076 130.778 49.2102 130.566 49.4261C130.354 49.642 130.072 49.8258 129.72 49.9773C129.367 50.1288 128.937 50.2045 128.43 50.2045ZM128.634 49C129.165 49 129.612 48.8958 129.975 48.6875C130.343 48.4792 130.619 48.2102 130.805 47.8807C130.994 47.5511 131.089 47.2045 131.089 46.8409V45.6136C131.032 45.6818 130.907 45.7443 130.714 45.8011C130.525 45.8542 130.305 45.9015 130.055 45.9432C129.809 45.9811 129.568 46.0152 129.333 46.0455C129.102 46.072 128.915 46.0947 128.771 46.1136C128.422 46.1591 128.096 46.233 127.793 46.3352C127.494 46.4337 127.252 46.5833 127.066 46.7841C126.884 46.9811 126.793 47.25 126.793 47.5909C126.793 48.0568 126.966 48.4091 127.311 48.6477C127.659 48.8826 128.1 49 128.634 49ZM143.618 45.0227V46.2727H138.8V45.0227H143.618ZM139.118 41.2727V50H137.777V41.2727H139.118ZM144.641 41.2727V50H143.3V41.2727H144.641ZM148.858 50.2045C148.305 50.2045 147.803 50.1004 147.352 49.892C146.902 49.6799 146.544 49.375 146.278 48.9773C146.013 48.5758 145.881 48.0909 145.881 47.5227C145.881 47.0227 145.979 46.6174 146.176 46.3068C146.373 45.9924 146.636 45.7462 146.966 45.5682C147.295 45.3902 147.659 45.2576 148.057 45.1705C148.458 45.0795 148.862 45.0076 149.267 44.9545C149.797 44.8864 150.227 44.8352 150.557 44.8011C150.89 44.7633 151.133 44.7008 151.284 44.6136C151.439 44.5265 151.517 44.375 151.517 44.1591V44.1136C151.517 43.553 151.364 43.1174 151.057 42.8068C150.754 42.4962 150.294 42.3409 149.676 42.3409C149.036 42.3409 148.534 42.4811 148.17 42.7614C147.807 43.0417 147.551 43.3409 147.403 43.6591L146.131 43.2045C146.358 42.6742 146.661 42.2614 147.04 41.9659C147.422 41.6667 147.839 41.4583 148.29 41.3409C148.744 41.2197 149.191 41.1591 149.631 41.1591C149.911 41.1591 150.233 41.1932 150.597 41.2614C150.964 41.3258 151.318 41.4602 151.659 41.6648C152.004 41.8693 152.29 42.178 152.517 42.5909C152.744 43.0038 152.858 43.5568 152.858 44.25V50H151.517V48.8182H151.449C151.358 49.0076 151.206 49.2102 150.994 49.4261C150.782 49.642 150.5 49.8258 150.148 49.9773C149.795 50.1288 149.366 50.2045 148.858 50.2045ZM149.062 49C149.593 49 150.04 48.8958 150.403 48.6875C150.771 48.4792 151.047 48.2102 151.233 47.8807C151.422 47.5511 151.517 47.2045 151.517 46.8409V45.6136C151.46 45.6818 151.335 45.7443 151.142 45.8011C150.953 45.8542 150.733 45.9015 150.483 45.9432C150.237 45.9811 149.996 46.0152 149.761 46.0455C149.53 46.072 149.343 46.0947 149.199 46.1136C148.85 46.1591 148.525 46.233 148.222 46.3352C147.922 46.4337 147.68 46.5833 147.494 46.7841C147.313 46.9811 147.222 47.25 147.222 47.5909C147.222 48.0568 147.394 48.4091 147.739 48.6477C148.087 48.8826 148.528 49 149.062 49ZM157.66 47.7727H159.092C159.122 48.1667 159.3 48.4659 159.626 48.6705C159.955 48.875 160.383 48.9773 160.91 48.9773C161.448 48.9773 161.908 48.8674 162.291 48.6477C162.673 48.4242 162.864 48.0644 162.864 47.5682C162.864 47.2765 162.793 47.0227 162.649 46.8068C162.505 46.5871 162.302 46.4167 162.041 46.2955C161.779 46.1742 161.471 46.1136 161.114 46.1136H159.614V44.9091H161.114C161.649 44.9091 162.043 44.7879 162.296 44.5455C162.554 44.303 162.683 44 162.683 43.6364C162.683 43.2462 162.544 42.9337 162.268 42.6989C161.991 42.4602 161.599 42.3409 161.092 42.3409C160.58 42.3409 160.154 42.4564 159.813 42.6875C159.472 42.9148 159.293 43.2083 159.274 43.5682H157.864C157.88 43.0985 158.024 42.6837 158.296 42.3239C158.569 41.9602 158.94 41.6761 159.41 41.4716C159.88 41.2633 160.418 41.1591 161.024 41.1591C161.637 41.1591 162.169 41.267 162.62 41.483C163.075 41.6951 163.425 41.9848 163.671 42.3523C163.921 42.7159 164.046 43.1288 164.046 43.5909C164.046 44.0833 163.908 44.4811 163.632 44.7841C163.355 45.0871 163.008 45.303 162.592 45.4318V45.5227C162.921 45.5455 163.207 45.6515 163.45 45.8409C163.696 46.0265 163.887 46.2708 164.024 46.5739C164.16 46.8731 164.228 47.2045 164.228 47.5682C164.228 48.0985 164.086 48.5606 163.802 48.9545C163.518 49.3447 163.128 49.6477 162.632 49.8636C162.135 50.0758 161.569 50.1818 160.933 50.1818C160.315 50.1818 159.762 50.0814 159.274 49.8807C158.785 49.6761 158.397 49.3939 158.109 49.0341C157.825 48.6705 157.675 48.25 157.66 47.7727ZM168.971 50.1818C168.13 50.1818 167.404 49.9962 166.795 49.625C166.189 49.25 165.721 48.7273 165.391 48.0568C165.065 47.3826 164.903 46.5985 164.903 45.7045C164.903 44.8106 165.065 44.0227 165.391 43.3409C165.721 42.6553 166.179 42.1212 166.766 41.7386C167.357 41.3523 168.047 41.1591 168.834 41.1591C169.289 41.1591 169.738 41.2348 170.181 41.3864C170.624 41.5379 171.028 41.7841 171.391 42.125C171.755 42.4621 172.045 42.9091 172.261 43.4659C172.476 44.0227 172.584 44.7083 172.584 45.5227V46.0909H165.857V44.9318H171.221C171.221 44.4394 171.122 44 170.925 43.6136C170.732 43.2273 170.456 42.9223 170.096 42.6989C169.74 42.4754 169.319 42.3636 168.834 42.3636C168.3 42.3636 167.838 42.4962 167.448 42.7614C167.062 43.0227 166.764 43.3636 166.556 43.7841C166.348 44.2045 166.243 44.6553 166.243 45.1364V45.9091C166.243 46.5682 166.357 47.1269 166.584 47.5852C166.815 48.0398 167.136 48.3864 167.545 48.625C167.954 48.8598 168.429 48.9773 168.971 48.9773C169.323 48.9773 169.641 48.928 169.925 48.8295C170.213 48.7273 170.461 48.5758 170.67 48.375C170.878 48.1705 171.039 47.9167 171.153 47.6136L172.448 47.9773C172.312 48.4167 172.082 48.803 171.761 49.1364C171.439 49.4659 171.041 49.7235 170.567 49.9091C170.094 50.0909 169.562 50.1818 168.971 50.1818ZM173.824 53.2727V41.2727H175.12V42.6591H175.279C175.377 42.5076 175.514 42.3144 175.688 42.0795C175.866 41.8409 176.12 41.6288 176.449 41.4432C176.782 41.2538 177.233 41.1591 177.801 41.1591C178.536 41.1591 179.184 41.3428 179.745 41.7102C180.305 42.0777 180.743 42.5985 181.057 43.2727C181.371 43.947 181.529 44.7424 181.529 45.6591C181.529 46.5833 181.371 47.3845 181.057 48.0625C180.743 48.7367 180.307 49.2595 179.75 49.6307C179.193 49.9981 178.551 50.1818 177.824 50.1818C177.264 50.1818 176.815 50.089 176.478 49.9034C176.14 49.714 175.881 49.5 175.699 49.2614C175.517 49.0189 175.377 48.8182 175.279 48.6591H175.165V53.2727H173.824ZM175.142 45.6364C175.142 46.2955 175.239 46.8769 175.432 47.3807C175.625 47.8807 175.907 48.2727 176.279 48.5568C176.65 48.8371 177.104 48.9773 177.642 48.9773C178.203 48.9773 178.671 48.8295 179.046 48.5341C179.425 48.2348 179.709 47.8333 179.898 47.3295C180.091 46.822 180.188 46.2576 180.188 45.6364C180.188 45.0227 180.093 44.4697 179.904 43.9773C179.718 43.4811 179.436 43.089 179.057 42.8011C178.682 42.5095 178.211 42.3636 177.642 42.3636C177.097 42.3636 176.639 42.5019 176.267 42.7784C175.896 43.0511 175.616 43.4337 175.426 43.9261C175.237 44.4148 175.142 44.9848 175.142 45.6364ZM188.615 45.0227V46.2727H183.797V45.0227H188.615ZM184.115 41.2727V50H182.774V41.2727H184.115ZM189.638 41.2727V50H188.297V41.2727H189.638ZM194.832 50.1818C194.044 50.1818 193.353 49.9943 192.758 49.6193C192.167 49.2443 191.705 48.7197 191.372 48.0455C191.042 47.3712 190.878 46.5833 190.878 45.6818C190.878 44.7727 191.042 43.9792 191.372 43.3011C191.705 42.6231 192.167 42.0966 192.758 41.7216C193.353 41.3466 194.044 41.1591 194.832 41.1591C195.62 41.1591 196.309 41.3466 196.9 41.7216C197.495 42.0966 197.957 42.6231 198.287 43.3011C198.62 43.9792 198.787 44.7727 198.787 45.6818C198.787 46.5833 198.62 47.3712 198.287 48.0455C197.957 48.7197 197.495 49.2443 196.9 49.6193C196.309 49.9943 195.62 50.1818 194.832 50.1818ZM194.832 48.9773C195.431 48.9773 195.923 48.8239 196.309 48.517C196.696 48.2102 196.982 47.8068 197.167 47.3068C197.353 46.8068 197.446 46.2652 197.446 45.6818C197.446 45.0985 197.353 44.5549 197.167 44.0511C196.982 43.5473 196.696 43.1402 196.309 42.8295C195.923 42.5189 195.431 42.3636 194.832 42.3636C194.234 42.3636 193.741 42.5189 193.355 42.8295C192.968 43.1402 192.682 43.5473 192.497 44.0511C192.311 44.5549 192.218 45.0985 192.218 45.6818C192.218 46.2652 192.311 46.8068 192.497 47.3068C192.682 47.8068 192.968 48.2102 193.355 48.517C193.741 48.8239 194.234 48.9773 194.832 48.9773ZM210.211 38L210.893 38.8182C210.627 39.0758 210.321 39.2557 209.972 39.358C209.624 39.4602 209.23 39.5227 208.79 39.5455C208.351 39.5682 207.862 39.5909 207.324 39.6136C206.718 39.6364 206.216 39.7841 205.819 40.0568C205.421 40.3295 205.114 40.7235 204.898 41.2386C204.682 41.7538 204.544 42.3864 204.484 43.1364H204.597C204.893 42.5909 205.302 42.1894 205.824 41.9318C206.347 41.6742 206.908 41.5455 207.506 41.5455C208.188 41.5455 208.802 41.7045 209.347 42.0227C209.893 42.3409 210.324 42.8125 210.643 43.4375C210.961 44.0625 211.12 44.8333 211.12 45.75C211.12 46.6629 210.957 47.4508 210.631 48.1136C210.309 48.7765 209.857 49.2879 209.273 49.6477C208.694 50.0038 208.014 50.1818 207.234 50.1818C206.453 50.1818 205.77 49.9981 205.182 49.6307C204.595 49.2595 204.139 48.7102 203.813 47.983C203.487 47.2519 203.324 46.3485 203.324 45.2727V44.3409C203.324 42.3977 203.654 40.9242 204.313 39.9205C204.976 38.9167 205.972 38.3977 207.302 38.3636C207.771 38.3485 208.19 38.3447 208.557 38.3523C208.925 38.3598 209.245 38.3428 209.518 38.3011C209.79 38.2595 210.021 38.1591 210.211 38ZM207.234 48.9773C207.76 48.9773 208.213 48.8447 208.591 48.5795C208.974 48.3144 209.268 47.9413 209.472 47.4602C209.677 46.9754 209.779 46.4053 209.779 45.75C209.779 45.1136 209.675 44.572 209.466 44.125C209.262 43.678 208.968 43.3371 208.586 43.1023C208.203 42.8674 207.745 42.75 207.211 42.75C206.821 42.75 206.47 42.8163 206.16 42.9489C205.849 43.0814 205.584 43.2765 205.364 43.5341C205.145 43.7917 204.974 44.1061 204.853 44.4773C204.735 44.8485 204.673 45.2727 204.665 45.75C204.665 46.7273 204.895 47.5095 205.353 48.0966C205.811 48.6837 206.438 48.9773 207.234 48.9773ZM213.235 53.2727C213.007 53.2727 212.805 53.2538 212.627 53.2159C212.449 53.1818 212.326 53.1477 212.257 53.1136L212.598 51.9318C212.924 52.0152 213.212 52.0455 213.462 52.0227C213.712 52 213.934 51.8883 214.127 51.6875C214.324 51.4905 214.504 51.1705 214.666 50.7273L214.916 50.0455L211.689 41.2727H213.144L215.553 48.2273H215.644L218.053 41.2727H219.507L215.803 51.2727C215.636 51.7235 215.43 52.0966 215.184 52.392C214.937 52.6913 214.651 52.9129 214.326 53.0568C214.004 53.2008 213.64 53.2727 213.235 53.2727ZM218.811 52.5V48.75H219.538C219.716 48.5644 219.87 48.3636 219.999 48.1477C220.127 47.9318 220.239 47.6761 220.334 47.3807C220.432 47.0814 220.516 46.7178 220.584 46.2898C220.652 45.858 220.713 45.3371 220.766 44.7273L221.061 41.2727H226.607V48.75H227.947V52.5H226.607V50H220.152V52.5H218.811ZM221.061 48.75H225.266V42.5227H222.311L222.084 44.7273C221.989 45.6402 221.872 46.4375 221.732 47.1193C221.591 47.8011 221.368 48.3447 221.061 48.75ZM232.586 50.1818C231.745 50.1818 231.02 49.9962 230.41 49.625C229.804 49.25 229.336 48.7273 229.007 48.0568C228.681 47.3826 228.518 46.5985 228.518 45.7045C228.518 44.8106 228.681 44.0227 229.007 43.3409C229.336 42.6553 229.795 42.1212 230.382 41.7386C230.973 41.3523 231.662 41.1591 232.45 41.1591C232.905 41.1591 233.353 41.2348 233.797 41.3864C234.24 41.5379 234.643 41.7841 235.007 42.125C235.37 42.4621 235.66 42.9091 235.876 43.4659C236.092 44.0227 236.2 44.7083 236.2 45.5227V46.0909H229.473V44.9318H234.836C234.836 44.4394 234.738 44 234.541 43.6136C234.348 43.2273 234.071 42.9223 233.711 42.6989C233.355 42.4754 232.935 42.3636 232.45 42.3636C231.916 42.3636 231.454 42.4962 231.064 42.7614C230.677 43.0227 230.38 43.3636 230.172 43.7841C229.963 44.2045 229.859 44.6553 229.859 45.1364V45.9091C229.859 46.5682 229.973 47.1269 230.2 47.5852C230.431 48.0398 230.751 48.3864 231.16 48.625C231.569 48.8598 232.045 48.9773 232.586 48.9773C232.939 48.9773 233.257 48.928 233.541 48.8295C233.829 48.7273 234.077 48.5758 234.285 48.375C234.494 48.1705 234.655 47.9167 234.768 47.6136L236.064 47.9773C235.927 48.4167 235.698 48.803 235.376 49.1364C235.054 49.4659 234.656 49.7235 234.183 49.9091C233.709 50.0909 233.177 50.1818 232.586 50.1818ZM236.627 42.5227V41.2727H243.718V42.5227H240.855V50H239.514V42.5227H236.627ZM252.12 50.1818C251.332 50.1818 250.64 49.9943 250.046 49.6193C249.455 49.2443 248.993 48.7197 248.659 48.0455C248.33 47.3712 248.165 46.5833 248.165 45.6818C248.165 44.7727 248.33 43.9792 248.659 43.3011C248.993 42.6231 249.455 42.0966 250.046 41.7216C250.64 41.3466 251.332 41.1591 252.12 41.1591C252.907 41.1591 253.597 41.3466 254.188 41.7216C254.782 42.0966 255.245 42.6231 255.574 43.3011C255.907 43.9792 256.074 44.7727 256.074 45.6818C256.074 46.5833 255.907 47.3712 255.574 48.0455C255.245 48.7197 254.782 49.2443 254.188 49.6193C253.597 49.9943 252.907 50.1818 252.12 50.1818ZM252.12 48.9773C252.718 48.9773 253.211 48.8239 253.597 48.517C253.983 48.2102 254.269 47.8068 254.455 47.3068C254.64 46.8068 254.733 46.2652 254.733 45.6818C254.733 45.0985 254.64 44.5549 254.455 44.0511C254.269 43.5473 253.983 43.1402 253.597 42.8295C253.211 42.5189 252.718 42.3636 252.12 42.3636C251.521 42.3636 251.029 42.5189 250.642 42.8295C250.256 43.1402 249.97 43.5473 249.784 44.0511C249.599 44.5549 249.506 45.0985 249.506 45.6818C249.506 46.2652 249.599 46.8068 249.784 47.3068C249.97 47.8068 250.256 48.2102 250.642 48.517C251.029 48.8239 251.521 48.9773 252.12 48.9773ZM257.321 50V41.2727H264.185V50H262.844V42.5227H258.662V50H257.321ZM264.646 42.5227V41.2727H271.737V42.5227H268.873V50H267.532V42.5227H264.646ZM274.234 48.0227L278.438 41.2727H279.984V50H278.643V43.25L274.461 50H272.893V41.2727H274.234V48.0227ZM286.413 48.1818L289.458 41.2727H290.731L286.958 50H285.867L282.163 41.2727H283.413L286.413 48.1818ZM282.981 41.2727V50H281.64V41.2727H282.981ZM289.844 50V41.2727H291.185V50H289.844ZM295.408 50.2045C294.855 50.2045 294.353 50.1004 293.902 49.892C293.452 49.6799 293.094 49.375 292.828 48.9773C292.563 48.5758 292.431 48.0909 292.431 47.5227C292.431 47.0227 292.529 46.6174 292.726 46.3068C292.923 45.9924 293.186 45.7462 293.516 45.5682C293.845 45.3902 294.209 45.2576 294.607 45.1705C295.008 45.0795 295.412 45.0076 295.817 44.9545C296.347 44.8864 296.777 44.8352 297.107 44.8011C297.44 44.7633 297.683 44.7008 297.834 44.6136C297.989 44.5265 298.067 44.375 298.067 44.1591V44.1136C298.067 43.553 297.914 43.1174 297.607 42.8068C297.304 42.4962 296.844 42.3409 296.226 42.3409C295.586 42.3409 295.084 42.4811 294.72 42.7614C294.357 43.0417 294.101 43.3409 293.953 43.6591L292.681 43.2045C292.908 42.6742 293.211 42.2614 293.59 41.9659C293.972 41.6667 294.389 41.4583 294.84 41.3409C295.294 41.2197 295.741 41.1591 296.181 41.1591C296.461 41.1591 296.783 41.1932 297.147 41.2614C297.514 41.3258 297.868 41.4602 298.209 41.6648C298.554 41.8693 298.84 42.178 299.067 42.5909C299.294 43.0038 299.408 43.5568 299.408 44.25V50H298.067V48.8182H297.999C297.908 49.0076 297.756 49.2102 297.544 49.4261C297.332 49.642 297.05 49.8258 296.698 49.9773C296.345 50.1288 295.916 50.2045 295.408 50.2045ZM295.612 49C296.143 49 296.59 48.8958 296.953 48.6875C297.321 48.4792 297.597 48.2102 297.783 47.8807C297.972 47.5511 298.067 47.2045 298.067 46.8409V45.6136C298.01 45.6818 297.885 45.7443 297.692 45.8011C297.503 45.8542 297.283 45.9015 297.033 45.9432C296.787 45.9811 296.546 46.0152 296.311 46.0455C296.08 46.072 295.893 46.0947 295.749 46.1136C295.4 46.1591 295.075 46.233 294.772 46.3352C294.472 46.4337 294.23 46.5833 294.044 46.7841C293.862 46.9811 293.772 47.25 293.772 47.5909C293.772 48.0568 293.944 48.4091 294.289 48.6477C294.637 48.8826 295.078 49 295.612 49ZM300.283 50V48.75H300.601C300.862 48.75 301.08 48.6989 301.254 48.5966C301.429 48.4905 301.569 48.3068 301.675 48.0455C301.785 47.7803 301.868 47.4129 301.925 46.9432C301.985 46.4697 302.029 45.8674 302.055 45.1364L302.214 41.2727H308.033V50H306.692V42.5227H303.487L303.351 45.6364C303.321 46.3523 303.256 46.983 303.158 47.5284C303.063 48.0701 302.917 48.5246 302.72 48.892C302.527 49.2595 302.269 49.536 301.947 49.7216C301.625 49.9072 301.222 50 300.737 50H300.283ZM310.852 44.4318H313.352C314.375 44.4318 315.157 44.6913 315.699 45.2102C316.24 45.7292 316.511 46.3864 316.511 47.1818C316.511 47.7045 316.39 48.1799 316.147 48.608C315.905 49.0322 315.549 49.3712 315.079 49.625C314.61 49.875 314.034 50 313.352 50H309.693V41.2727H311.034V48.75H313.352C313.882 48.75 314.318 48.6098 314.659 48.3295C315 48.0492 315.17 47.6894 315.17 47.25C315.17 46.7879 315 46.411 314.659 46.1193C314.318 45.8277 313.882 45.6818 313.352 45.6818H310.852V44.4318ZM323.593 45.0227V46.2727H318.775V45.0227H323.593ZM319.093 41.2727V50H317.752V41.2727H319.093ZM324.616 41.2727V50H323.275V41.2727H324.616ZM329.81 50.1818C329.022 50.1818 328.331 49.9943 327.736 49.6193C327.145 49.2443 326.683 48.7197 326.35 48.0455C326.02 47.3712 325.856 46.5833 325.856 45.6818C325.856 44.7727 326.02 43.9792 326.35 43.3011C326.683 42.6231 327.145 42.0966 327.736 41.7216C328.331 41.3466 329.022 41.1591 329.81 41.1591C330.598 41.1591 331.288 41.3466 331.878 41.7216C332.473 42.0966 332.935 42.6231 333.265 43.3011C333.598 43.9792 333.765 44.7727 333.765 45.6818C333.765 46.5833 333.598 47.3712 333.265 48.0455C332.935 48.7197 332.473 49.2443 331.878 49.6193C331.288 49.9943 330.598 50.1818 329.81 50.1818ZM329.81 48.9773C330.409 48.9773 330.901 48.8239 331.288 48.517C331.674 48.2102 331.96 47.8068 332.145 47.3068C332.331 46.8068 332.424 46.2652 332.424 45.6818C332.424 45.0985 332.331 44.5549 332.145 44.0511C331.96 43.5473 331.674 43.1402 331.288 42.8295C330.901 42.5189 330.409 42.3636 329.81 42.3636C329.212 42.3636 328.719 42.5189 328.333 42.8295C327.947 43.1402 327.661 43.5473 327.475 44.0511C327.289 44.5549 327.197 45.0985 327.197 45.6818C327.197 46.2652 327.289 46.8068 327.475 47.3068C327.661 47.8068 327.947 48.2102 328.333 48.517C328.719 48.8239 329.212 48.9773 329.81 48.9773ZM336.353 48.0227L340.557 41.2727H342.103V50H340.762V43.25L336.58 50H335.012V41.2727H336.353V48.0227ZM339.671 38.3636H340.921C340.921 38.9773 340.709 39.4792 340.284 39.8693C339.86 40.2595 339.284 40.4545 338.557 40.4545C337.841 40.4545 337.271 40.2595 336.847 39.8693C336.426 39.4792 336.216 38.9773 336.216 38.3636H337.466C337.466 38.6591 337.548 38.9186 337.71 39.142C337.877 39.3655 338.159 39.4773 338.557 39.4773C338.955 39.4773 339.239 39.3655 339.409 39.142C339.584 38.9186 339.671 38.6591 339.671 38.3636ZM346.527 52.5V48.75H347.254C347.432 48.5644 347.585 48.3636 347.714 48.1477C347.843 47.9318 347.955 47.6761 348.049 47.3807C348.148 47.0814 348.231 46.7178 348.299 46.2898C348.368 45.858 348.428 45.3371 348.481 44.7273L348.777 41.2727H354.322V48.75H355.663V52.5H354.322V50H347.868V52.5H346.527ZM348.777 48.75H352.981V42.5227H350.027L349.799 44.7273C349.705 45.6402 349.587 46.4375 349.447 47.1193C349.307 47.8011 349.084 48.3447 348.777 48.75ZM355.87 50V48.75H356.188C356.45 48.75 356.668 48.6989 356.842 48.5966C357.016 48.4905 357.156 48.3068 357.262 48.0455C357.372 47.7803 357.455 47.4129 357.512 46.9432C357.573 46.4697 357.616 45.8674 357.643 45.1364L357.802 41.2727H363.62V50H362.279V42.5227H359.075L358.938 45.6364C358.908 46.3523 358.844 46.983 358.745 47.5284C358.65 48.0701 358.505 48.5246 358.308 48.892C358.114 49.2595 357.857 49.536 357.535 49.7216C357.213 49.9072 356.81 50 356.325 50H355.87ZM370.53 50V42.5H368.212C367.689 42.5 367.279 42.6212 366.979 42.8636C366.68 43.1061 366.53 43.4394 366.53 43.8636C366.53 44.2803 366.665 44.608 366.934 44.8466C367.207 45.0852 367.58 45.2045 368.053 45.2045H370.871V46.4545H368.053C367.462 46.4545 366.953 46.3504 366.525 46.142C366.097 45.9337 365.767 45.6364 365.536 45.25C365.305 44.8598 365.189 44.3977 365.189 43.8636C365.189 43.3258 365.311 42.8636 365.553 42.4773C365.796 42.0909 366.142 41.7936 366.593 41.5852C367.047 41.3769 367.587 41.2727 368.212 41.2727H371.803V50H370.53ZM364.712 50L367.189 45.6591H368.644L366.167 50H364.712ZM1.22727 69V60.2727H4.79545C5.73485 60.2727 6.48106 60.4848 7.03409 60.9091C7.58712 61.3333 7.86364 61.8939 7.86364 62.5909C7.86364 63.1212 7.70644 63.5322 7.39205 63.8239C7.07765 64.1117 6.67424 64.3068 6.18182 64.4091C6.50379 64.4545 6.81629 64.5682 7.11932 64.75C7.42614 64.9318 7.67992 65.1818 7.88068 65.5C8.08144 65.8144 8.18182 66.2008 8.18182 66.6591C8.18182 67.1061 8.06818 67.5057 7.84091 67.858C7.61364 68.2102 7.28788 68.4886 6.86364 68.6932C6.43939 68.8977 5.93182 69 5.34091 69H1.22727ZM2.5 67.7727H5.34091C5.80303 67.7727 6.16477 67.6629 6.42614 67.4432C6.6875 67.2235 6.81818 66.9242 6.81818 66.5455C6.81818 66.0947 6.6875 65.7405 6.42614 65.483C6.16477 65.2216 5.80303 65.0909 5.34091 65.0909H2.5V67.7727ZM2.5 63.9318H4.79545C5.1553 63.9318 5.46402 63.8826 5.72159 63.7841C5.97917 63.6818 6.17614 63.5379 6.3125 63.3523C6.45265 63.1629 6.52273 62.9394 6.52273 62.6818C6.52273 62.3144 6.36932 62.0265 6.0625 61.8182C5.75568 61.6061 5.33333 61.5 4.79545 61.5H2.5V63.9318ZM11.9798 69.2045C11.4268 69.2045 10.9249 69.1004 10.4741 68.892C10.0234 68.6799 9.66544 68.375 9.40028 67.9773C9.13513 67.5758 9.00256 67.0909 9.00256 66.5227C9.00256 66.0227 9.10104 65.6174 9.29801 65.3068C9.49498 64.9924 9.75824 64.7462 10.0878 64.5682C10.4173 64.3902 10.781 64.2576 11.1787 64.1705C11.5802 64.0795 11.9836 64.0076 12.3889 63.9545C12.9192 63.8864 13.3491 63.8352 13.6787 63.8011C14.012 63.7633 14.2545 63.7008 14.406 63.6136C14.5613 63.5265 14.6389 63.375 14.6389 63.1591V63.1136C14.6389 62.553 14.4855 62.1174 14.1787 61.8068C13.8757 61.4962 13.4154 61.3409 12.798 61.3409C12.1579 61.3409 11.656 61.4811 11.2923 61.7614C10.9287 62.0417 10.673 62.3409 10.5253 62.6591L9.25256 62.2045C9.47983 61.6742 9.78286 61.2614 10.1616 60.9659C10.5442 60.6667 10.9609 60.4583 11.4116 60.3409C11.8662 60.2197 12.3132 60.1591 12.7526 60.1591C13.0329 60.1591 13.3548 60.1932 13.7185 60.2614C14.0859 60.3258 14.4401 60.4602 14.781 60.6648C15.1257 60.8693 15.4116 61.178 15.6389 61.5909C15.8662 62.0038 15.9798 62.5568 15.9798 63.25V69H14.6389V67.8182H14.5707C14.4798 68.0076 14.3283 68.2102 14.1162 68.4261C13.9041 68.642 13.6219 68.8258 13.2696 68.9773C12.9173 69.1288 12.4874 69.2045 11.9798 69.2045ZM12.1844 68C12.7147 68 13.1616 67.8958 13.5253 67.6875C13.8927 67.4792 14.1692 67.2102 14.3548 66.8807C14.5442 66.5511 14.6389 66.2045 14.6389 65.8409V64.6136C14.5821 64.6818 14.4571 64.7443 14.2639 64.8011C14.0745 64.8542 13.8548 64.9015 13.6048 64.9432C13.3586 64.9811 13.1181 65.0152 12.8832 65.0455C12.6522 65.072 12.4647 65.0947 12.3207 65.1136C11.9723 65.1591 11.6465 65.233 11.3435 65.3352C11.0442 65.4337 10.8018 65.5833 10.6162 65.7841C10.4344 65.9811 10.3435 66.25 10.3435 66.5909C10.3435 67.0568 10.5158 67.4091 10.8605 67.6477C11.209 67.8826 11.6503 68 12.1844 68ZM17.6273 60.2727H18.9682V67.75H22.2636V60.2727H23.6045V67.75H26.9V60.2727H28.2409V69H17.6273V60.2727ZM33.5489 69.1818C32.708 69.1818 31.9826 68.9962 31.3727 68.625C30.7667 68.25 30.2989 67.7273 29.9693 67.0568C29.6436 66.3826 29.4807 65.5985 29.4807 64.7045C29.4807 63.8106 29.6436 63.0227 29.9693 62.3409C30.2989 61.6553 30.7572 61.1212 31.3443 60.7386C31.9352 60.3523 32.6246 60.1591 33.4125 60.1591C33.867 60.1591 34.3159 60.2348 34.7591 60.3864C35.2023 60.5379 35.6057 60.7841 35.9693 61.125C36.333 61.4621 36.6227 61.9091 36.8386 62.4659C37.0545 63.0227 37.1625 63.7083 37.1625 64.5227V65.0909H30.4352V63.9318H35.7989C35.7989 63.4394 35.7004 63 35.5034 62.6136C35.3102 62.2273 35.0337 61.9223 34.6739 61.6989C34.3178 61.4754 33.8973 61.3636 33.4125 61.3636C32.8784 61.3636 32.4163 61.4962 32.0261 61.7614C31.6398 62.0227 31.3424 62.3636 31.1341 62.7841C30.9258 63.2045 30.8216 63.6553 30.8216 64.1364V64.9091C30.8216 65.5682 30.9352 66.1269 31.1625 66.5852C31.3936 67.0398 31.7136 67.3864 32.1227 67.625C32.5318 67.8598 33.0072 67.9773 33.5489 67.9773C33.9011 67.9773 34.2193 67.928 34.5034 67.8295C34.7913 67.7273 35.0394 67.5758 35.2477 67.375C35.4561 67.1705 35.617 66.9167 35.7307 66.6136L37.0261 66.9773C36.8898 67.4167 36.6606 67.803 36.3386 68.1364C36.0167 68.4659 35.6189 68.7235 35.1455 68.9091C34.672 69.0909 34.1398 69.1818 33.5489 69.1818ZM43.7886 60.2727V61.5227H39.7432V69H38.4023V60.2727H43.7886ZM48.0384 69.1818C47.2505 69.1818 46.5592 68.9943 45.9645 68.6193C45.3736 68.2443 44.9115 67.7197 44.5781 67.0455C44.2486 66.3712 44.0838 65.5833 44.0838 64.6818C44.0838 63.7727 44.2486 62.9792 44.5781 62.3011C44.9115 61.6231 45.3736 61.0966 45.9645 60.7216C46.5592 60.3466 47.2505 60.1591 48.0384 60.1591C48.8262 60.1591 49.5156 60.3466 50.1065 60.7216C50.7012 61.0966 51.1634 61.6231 51.4929 62.3011C51.8262 62.9792 51.9929 63.7727 51.9929 64.6818C51.9929 65.5833 51.8262 66.3712 51.4929 67.0455C51.1634 67.7197 50.7012 68.2443 50.1065 68.6193C49.5156 68.9943 48.8262 69.1818 48.0384 69.1818ZM48.0384 67.9773C48.6368 67.9773 49.1293 67.8239 49.5156 67.517C49.902 67.2102 50.188 66.8068 50.3736 66.3068C50.5592 65.8068 50.652 65.2652 50.652 64.6818C50.652 64.0985 50.5592 63.5549 50.3736 63.0511C50.188 62.5473 49.902 62.1402 49.5156 61.8295C49.1293 61.5189 48.6368 61.3636 48.0384 61.3636C47.4399 61.3636 46.9474 61.5189 46.5611 61.8295C46.1747 62.1402 45.8887 62.5473 45.7031 63.0511C45.5175 63.5549 45.4247 64.0985 45.4247 64.6818C45.4247 65.2652 45.5175 65.8068 45.7031 66.3068C45.8887 66.8068 46.1747 67.2102 46.5611 67.517C46.9474 67.8239 47.4399 67.9773 48.0384 67.9773ZM56.9398 72.2727V60.2727H58.2352V61.6591H58.3943C58.4928 61.5076 58.6292 61.3144 58.8034 61.0795C58.9814 60.8409 59.2352 60.6288 59.5648 60.4432C59.8981 60.2538 60.3489 60.1591 60.917 60.1591C61.6519 60.1591 62.2996 60.3428 62.8602 60.7102C63.4208 61.0777 63.8583 61.5985 64.1727 62.2727C64.4871 62.947 64.6443 63.7424 64.6443 64.6591C64.6443 65.5833 64.4871 66.3845 64.1727 67.0625C63.8583 67.7367 63.4227 68.2595 62.8659 68.6307C62.3091 68.9981 61.667 69.1818 60.9398 69.1818C60.3792 69.1818 59.9303 69.089 59.5932 68.9034C59.2561 68.714 58.9966 68.5 58.8148 68.2614C58.633 68.0189 58.4928 67.8182 58.3943 67.6591H58.2807V72.2727H56.9398ZM58.258 64.6364C58.258 65.2955 58.3545 65.8769 58.5477 66.3807C58.7409 66.8807 59.0231 67.2727 59.3943 67.5568C59.7655 67.8371 60.2201 67.9773 60.758 67.9773C61.3186 67.9773 61.7864 67.8295 62.1614 67.5341C62.5402 67.2348 62.8242 66.8333 63.0136 66.3295C63.2068 65.822 63.3034 65.2576 63.3034 64.6364C63.3034 64.0227 63.2087 63.4697 63.0193 62.9773C62.8337 62.4811 62.5515 62.089 62.1727 61.8011C61.7977 61.5095 61.3261 61.3636 60.758 61.3636C60.2125 61.3636 59.7542 61.5019 59.383 61.7784C59.0117 62.0511 58.7314 62.4337 58.542 62.9261C58.3527 63.4148 58.258 63.9848 58.258 64.6364ZM69.5489 69.1818C68.708 69.1818 67.9826 68.9962 67.3727 68.625C66.7667 68.25 66.2989 67.7273 65.9693 67.0568C65.6436 66.3826 65.4807 65.5985 65.4807 64.7045C65.4807 63.8106 65.6436 63.0227 65.9693 62.3409C66.2989 61.6553 66.7572 61.1212 67.3443 60.7386C67.9352 60.3523 68.6246 60.1591 69.4125 60.1591C69.867 60.1591 70.3159 60.2348 70.7591 60.3864C71.2023 60.5379 71.6057 60.7841 71.9693 61.125C72.333 61.4621 72.6227 61.9091 72.8386 62.4659C73.0545 63.0227 73.1625 63.7083 73.1625 64.5227V65.0909H66.4352V63.9318H71.7989C71.7989 63.4394 71.7004 63 71.5034 62.6136C71.3102 62.2273 71.0337 61.9223 70.6739 61.6989C70.3178 61.4754 69.8973 61.3636 69.4125 61.3636C68.8784 61.3636 68.4163 61.4962 68.0261 61.7614C67.6398 62.0227 67.3424 62.3636 67.1341 62.7841C66.9258 63.2045 66.8216 63.6553 66.8216 64.1364V64.9091C66.8216 65.5682 66.9352 66.1269 67.1625 66.5852C67.3936 67.0398 67.7136 67.3864 68.1227 67.625C68.5318 67.8598 69.0072 67.9773 69.5489 67.9773C69.9011 67.9773 70.2193 67.928 70.5034 67.8295C70.7913 67.7273 71.0394 67.5758 71.2477 67.375C71.4561 67.1705 71.617 66.9167 71.7307 66.6136L73.0261 66.9773C72.8898 67.4167 72.6606 67.803 72.3386 68.1364C72.0167 68.4659 71.6189 68.7235 71.1455 68.9091C70.672 69.0909 70.1398 69.1818 69.5489 69.1818ZM79.7886 60.2727V61.5227H75.7432V69H74.4023V60.2727H79.7886ZM82.2869 67.0227L86.4915 60.2727H88.0369V69H86.696V62.25L82.5142 69H80.946V60.2727H82.2869V67.0227ZM93.2383 69.1818C92.4505 69.1818 91.7592 68.9943 91.1645 68.6193C90.5736 68.2443 90.1115 67.7197 89.7781 67.0455C89.4486 66.3712 89.2838 65.5833 89.2838 64.6818C89.2838 63.7727 89.4486 62.9792 89.7781 62.3011C90.1115 61.6231 90.5736 61.0966 91.1645 60.7216C91.7592 60.3466 92.4505 60.1591 93.2383 60.1591C94.0262 60.1591 94.7156 60.3466 95.3065 60.7216C95.9012 61.0966 96.3633 61.6231 96.6929 62.3011C97.0262 62.9792 97.1929 63.7727 97.1929 64.6818C97.1929 65.5833 97.0262 66.3712 96.6929 67.0455C96.3633 67.7197 95.9012 68.2443 95.3065 68.6193C94.7156 68.9943 94.0262 69.1818 93.2383 69.1818ZM93.2383 67.9773C93.8368 67.9773 94.3293 67.8239 94.7156 67.517C95.102 67.2102 95.388 66.8068 95.5736 66.3068C95.7592 65.8068 95.852 65.2652 95.852 64.6818C95.852 64.0985 95.7592 63.5549 95.5736 63.0511C95.388 62.5473 95.102 62.1402 94.7156 61.8295C94.3293 61.5189 93.8368 61.3636 93.2383 61.3636C92.6399 61.3636 92.1474 61.5189 91.7611 61.8295C91.3747 62.1402 91.0887 62.5473 90.9031 63.0511C90.7175 63.5549 90.6247 64.0985 90.6247 64.6818C90.6247 65.2652 90.7175 65.8068 90.9031 66.3068C91.0887 66.8068 91.3747 67.2102 91.7611 67.517C92.1474 67.8239 92.6399 67.9773 93.2383 67.9773ZM104.281 64.0227V65.2727H99.4625V64.0227H104.281ZM99.7807 60.2727V69H98.4398V60.2727H99.7807ZM105.303 60.2727V69H103.963V60.2727H105.303ZM109.52 69.2045C108.967 69.2045 108.466 69.1004 108.015 68.892C107.564 68.6799 107.206 68.375 106.941 67.9773C106.676 67.5758 106.543 67.0909 106.543 66.5227C106.543 66.0227 106.642 65.6174 106.839 65.3068C107.036 64.9924 107.299 64.7462 107.628 64.5682C107.958 64.3902 108.322 64.2576 108.719 64.1705C109.121 64.0795 109.524 64.0076 109.93 63.9545C110.46 63.8864 110.89 63.8352 111.219 63.8011C111.553 63.7633 111.795 63.7008 111.947 63.6136C112.102 63.5265 112.18 63.375 112.18 63.1591V63.1136C112.18 62.553 112.026 62.1174 111.719 61.8068C111.416 61.4962 110.956 61.3409 110.339 61.3409C109.698 61.3409 109.197 61.4811 108.833 61.7614C108.469 62.0417 108.214 62.3409 108.066 62.6591L106.793 62.2045C107.02 61.6742 107.323 61.2614 107.702 60.9659C108.085 60.6667 108.502 60.4583 108.952 60.3409C109.407 60.2197 109.854 60.1591 110.293 60.1591C110.573 60.1591 110.895 60.1932 111.259 60.2614C111.627 60.3258 111.981 60.4602 112.322 60.6648C112.666 60.8693 112.952 61.178 113.18 61.5909C113.407 62.0038 113.52 62.5568 113.52 63.25V69H112.18V67.8182H112.111C112.02 68.0076 111.869 68.2102 111.657 68.4261C111.445 68.642 111.162 68.8258 110.81 68.9773C110.458 69.1288 110.028 69.2045 109.52 69.2045ZM109.725 68C110.255 68 110.702 67.8958 111.066 67.6875C111.433 67.4792 111.71 67.2102 111.895 66.8807C112.085 66.5511 112.18 66.2045 112.18 65.8409V64.6136C112.123 64.6818 111.998 64.7443 111.805 64.8011C111.615 64.8542 111.395 64.9015 111.145 64.9432C110.899 64.9811 110.659 65.0152 110.424 65.0455C110.193 65.072 110.005 65.0947 109.861 65.1136C109.513 65.1591 109.187 65.233 108.884 65.3352C108.585 65.4337 108.342 65.5833 108.157 65.7841C107.975 65.9811 107.884 66.25 107.884 66.5909C107.884 67.0568 108.056 67.4091 108.401 67.6477C108.75 67.8826 109.191 68 109.725 68ZM116.145 69.0909C115.865 69.0909 115.624 68.9905 115.424 68.7898C115.223 68.589 115.122 68.3485 115.122 68.0682C115.122 67.7879 115.223 67.5473 115.424 67.3466C115.624 67.1458 115.865 67.0455 116.145 67.0455C116.425 67.0455 116.666 67.1458 116.867 67.3466C117.068 67.5473 117.168 67.7879 117.168 68.0682C117.168 68.2538 117.121 68.4242 117.026 68.5795C116.935 68.7348 116.812 68.8598 116.657 68.9545C116.505 69.0455 116.335 69.0909 116.145 69.0909Z" fill="#4A4339"/>
</svg>
