<svg width="784" height="73" viewBox="0 0 784 73" fill="none" xmlns="http://www.w3.org/2000/svg">
<path d="M2.27557 64V37.8182H12.7585C14.6847 37.8182 16.2912 38.1037 17.5781 38.6747C18.8651 39.2457 19.8324 40.0384 20.4801 41.0526C21.1278 42.0582 21.4517 43.2173 21.4517 44.5298C21.4517 45.5526 21.2472 46.4517 20.8381 47.2273C20.429 47.9943 19.8665 48.625 19.1506 49.1193C18.4432 49.6051 17.6335 49.9503 16.7216 50.1548V50.4105C17.7188 50.4531 18.652 50.7344 19.5213 51.2543C20.3991 51.7741 21.1108 52.5028 21.6562 53.4403C22.2017 54.3693 22.4744 55.4773 22.4744 56.7642C22.4744 58.1534 22.1293 59.3935 21.4389 60.4844C20.7571 61.5668 19.7472 62.4233 18.4091 63.054C17.071 63.6847 15.4219 64 13.4616 64H2.27557ZM7.81108 59.4744H12.3239C13.8665 59.4744 14.9915 59.1804 15.6989 58.5923C16.4063 57.9957 16.7599 57.2031 16.7599 56.2145C16.7599 55.4901 16.5852 54.8509 16.2358 54.2969C15.8864 53.7429 15.3878 53.3082 14.7401 52.9929C14.1009 52.6776 13.3381 52.5199 12.4517 52.5199H7.81108V59.4744ZM7.81108 48.7741H11.9148C12.6733 48.7741 13.3466 48.642 13.9347 48.3778C14.5313 48.1051 15 47.7216 15.3409 47.2273C15.6903 46.733 15.8651 46.1406 15.8651 45.4503C15.8651 44.5043 15.5284 43.7415 14.8551 43.1619C14.1903 42.5824 13.2443 42.2926 12.017 42.2926H7.81108V48.7741ZM29.7735 64.3707C28.5207 64.3707 27.4042 64.1534 26.4241 63.7188C25.444 63.2756 24.6684 62.6236 24.0974 61.7628C23.5349 60.8935 23.2536 59.8111 23.2536 58.5156C23.2536 57.4247 23.4539 56.5085 23.8545 55.767C24.255 55.0256 24.8005 54.429 25.4908 53.9773C26.1812 53.5256 26.9653 53.1847 27.8431 52.9545C28.7295 52.7244 29.6585 52.5625 30.63 52.4688C31.7721 52.3494 32.6925 52.2386 33.3914 52.1364C34.0903 52.0256 34.5974 51.8636 34.9127 51.6506C35.2281 51.4375 35.3857 51.1222 35.3857 50.7045V50.6278C35.3857 49.8182 35.13 49.1918 34.6187 48.7486C34.1158 48.3054 33.3999 48.0838 32.471 48.0838C31.4908 48.0838 30.711 48.3011 30.1315 48.7358C29.5519 49.1619 29.1684 49.6989 28.9809 50.3466L23.944 49.9375C24.1996 48.7443 24.7025 47.7131 25.4525 46.8438C26.2025 45.9659 27.1698 45.2926 28.3545 44.8239C29.5477 44.3466 30.9283 44.108 32.4965 44.108C33.5874 44.108 34.6315 44.2358 35.6286 44.4915C36.6343 44.7472 37.5249 45.1435 38.3005 45.6804C39.0846 46.2173 39.7025 46.9077 40.1542 47.7514C40.6059 48.5866 40.8317 49.5881 40.8317 50.7557V64H35.667V61.277H35.5136C35.1982 61.8906 34.7764 62.4318 34.2479 62.9006C33.7195 63.3608 33.0846 63.723 32.3431 63.9872C31.6016 64.2429 30.7451 64.3707 29.7735 64.3707ZM31.3332 60.6122C32.1343 60.6122 32.8417 60.4545 33.4553 60.1392C34.069 59.8153 34.5505 59.3807 34.8999 58.8352C35.2494 58.2898 35.4241 57.6719 35.4241 56.9815V54.8977C35.2536 55.0085 35.0192 55.1108 34.721 55.2045C34.4312 55.2898 34.1031 55.3707 33.7366 55.4474C33.3701 55.5156 33.0036 55.5795 32.6371 55.6392C32.2707 55.6903 31.9383 55.7372 31.64 55.7798C31.0008 55.8736 30.4425 56.0227 29.9653 56.2273C29.488 56.4318 29.1173 56.7088 28.8531 57.0582C28.5889 57.3991 28.4567 57.8253 28.4567 58.3366C28.4567 59.0781 28.7252 59.6449 29.2621 60.0369C29.8076 60.4205 30.4979 60.6122 31.3332 60.6122ZM43.2569 44.3636H48.46V59.679H53.9955V44.3636H59.1987V59.679H64.7342V44.3636H69.9373V64H43.2569V44.3636ZM77.9587 64.3707C76.7058 64.3707 75.5893 64.1534 74.6092 63.7188C73.6291 63.2756 72.8535 62.6236 72.2825 61.7628C71.72 60.8935 71.4388 59.8111 71.4388 58.5156C71.4388 57.4247 71.6391 56.5085 72.0396 55.767C72.4402 55.0256 72.9857 54.429 73.676 53.9773C74.3663 53.5256 75.1504 53.1847 76.0283 52.9545C76.9146 52.7244 77.8436 52.5625 78.8152 52.4688C79.9572 52.3494 80.8777 52.2386 81.5766 52.1364C82.2754 52.0256 82.7825 51.8636 83.0979 51.6506C83.4132 51.4375 83.5709 51.1222 83.5709 50.7045V50.6278C83.5709 49.8182 83.3152 49.1918 82.8038 48.7486C82.301 48.3054 81.5851 48.0838 80.6561 48.0838C79.676 48.0838 78.8962 48.3011 78.3166 48.7358C77.7371 49.1619 77.3535 49.6989 77.166 50.3466L72.1291 49.9375C72.3848 48.7443 72.8876 47.7131 73.6376 46.8438C74.3876 45.9659 75.355 45.2926 76.5396 44.8239C77.7328 44.3466 79.1135 44.108 80.6817 44.108C81.7726 44.108 82.8166 44.2358 83.8138 44.4915C84.8195 44.7472 85.7101 45.1435 86.4857 45.6804C87.2697 46.2173 87.8876 46.9077 88.3393 47.7514C88.791 48.5866 89.0169 49.5881 89.0169 50.7557V64H83.8521V61.277H83.6987C83.3834 61.8906 82.9615 62.4318 82.4331 62.9006C81.9047 63.3608 81.2697 63.723 80.5283 63.9872C79.7868 64.2429 78.9303 64.3707 77.9587 64.3707ZM79.5183 60.6122C80.3195 60.6122 81.0268 60.4545 81.6405 60.1392C82.2541 59.8153 82.7357 59.3807 83.0851 58.8352C83.4345 58.2898 83.6092 57.6719 83.6092 56.9815V54.8977C83.4388 55.0085 83.2044 55.1108 82.9061 55.2045C82.6163 55.2898 82.2882 55.3707 81.9217 55.4474C81.5553 55.5156 81.1888 55.5795 80.8223 55.6392C80.4558 55.6903 80.1234 55.7372 79.8251 55.7798C79.1859 55.8736 78.6277 56.0227 78.1504 56.2273C77.6732 56.4318 77.3024 56.7088 77.0382 57.0582C76.774 57.3991 76.6419 57.8253 76.6419 58.3366C76.6419 59.0781 76.9104 59.6449 77.4473 60.0369C77.9928 60.4205 78.6831 60.6122 79.5183 60.6122ZM114.299 37.1534L115.961 40.7074C115.407 41.1676 114.794 41.5085 114.12 41.7301C113.447 41.9432 112.642 42.0838 111.704 42.152C110.775 42.2202 109.642 42.267 108.304 42.2926C106.787 42.3097 105.551 42.5526 104.596 43.0213C103.642 43.4901 102.917 44.2273 102.423 45.233C101.929 46.2301 101.605 47.5341 101.451 49.1449H101.643C102.231 47.9432 103.058 47.0142 104.123 46.358C105.197 45.7017 106.522 45.3736 108.099 45.3736C109.77 45.3736 111.231 45.7401 112.484 46.473C113.745 47.206 114.725 48.2585 115.424 49.6307C116.123 51.0028 116.473 52.6477 116.473 54.5653C116.473 56.5597 116.081 58.294 115.297 59.7685C114.521 61.2344 113.417 62.3722 111.985 63.1818C110.554 63.983 108.849 64.3835 106.872 64.3835C104.886 64.3835 103.173 63.9659 101.733 63.1307C100.301 62.2955 99.1928 61.0639 98.4087 59.4361C97.6332 57.8082 97.2454 55.8054 97.2454 53.4276V51.8168C97.2454 47.0866 98.1658 43.5795 100.007 41.2955C101.848 39.0114 104.554 37.8523 108.125 37.8182C109.096 37.8011 109.974 37.7969 110.758 37.8054C111.542 37.8139 112.228 37.7756 112.816 37.6903C113.413 37.6051 113.907 37.4261 114.299 37.1534ZM106.897 60.1648C107.733 60.1648 108.449 59.9474 109.045 59.5128C109.65 59.0781 110.115 58.456 110.439 57.6463C110.771 56.8366 110.937 55.8693 110.937 54.7443C110.937 53.6278 110.771 52.6818 110.439 51.9062C110.115 51.1222 109.65 50.5256 109.045 50.1165C108.44 49.7074 107.716 49.5028 106.872 49.5028C106.241 49.5028 105.674 49.6179 105.172 49.848C104.669 50.0781 104.238 50.419 103.88 50.8707C103.531 51.3139 103.258 51.8636 103.062 52.5199C102.875 53.1676 102.781 53.9091 102.781 54.7443C102.781 56.4233 103.143 57.7486 103.868 58.7202C104.6 59.6832 105.61 60.1648 106.897 60.1648ZM127.236 64.3835C125.216 64.3835 123.478 63.9744 122.02 63.1562C120.571 62.3295 119.455 61.1619 118.671 59.6534C117.887 58.1364 117.495 56.3423 117.495 54.2713C117.495 52.2514 117.887 50.4787 118.671 48.9531C119.455 47.4276 120.559 46.2386 121.982 45.3864C123.414 44.5341 125.093 44.108 127.019 44.108C128.314 44.108 129.52 44.3168 130.637 44.7344C131.762 45.1435 132.742 45.7614 133.577 46.5881C134.421 47.4148 135.077 48.4545 135.546 49.7074C136.015 50.9517 136.249 52.4091 136.249 54.0795V55.5753H119.668V52.2003H131.123C131.123 51.4162 130.952 50.7216 130.611 50.1165C130.27 49.5114 129.797 49.0384 129.192 48.6974C128.596 48.348 127.901 48.1733 127.108 48.1733C126.282 48.1733 125.549 48.3651 124.91 48.7486C124.279 49.1236 123.785 49.6307 123.427 50.2699C123.069 50.9006 122.885 51.6037 122.877 52.3793V55.5881C122.877 56.5597 123.056 57.3991 123.414 58.1065C123.78 58.8139 124.296 59.3594 124.961 59.7429C125.625 60.1264 126.414 60.3182 127.326 60.3182C127.931 60.3182 128.485 60.233 128.988 60.0625C129.49 59.892 129.921 59.6364 130.279 59.2955C130.637 58.9545 130.91 58.5369 131.097 58.0426L136.134 58.375C135.878 59.5852 135.354 60.642 134.562 61.5455C133.777 62.4403 132.763 63.1392 131.519 63.642C130.283 64.1364 128.856 64.3835 127.236 64.3835ZM136.993 58.4389H142.273C142.298 59.0866 142.588 59.598 143.142 59.973C143.696 60.348 144.412 60.5355 145.29 60.5355C146.176 60.5355 146.922 60.331 147.527 59.9219C148.132 59.5043 148.435 58.9077 148.435 58.1321C148.435 57.6548 148.315 57.2415 148.077 56.892C147.838 56.5341 147.506 56.2528 147.08 56.0483C146.654 55.8437 146.159 55.7415 145.597 55.7415H142.771V52.1747H145.597C146.44 52.1747 147.088 51.9787 147.54 51.5866C148 51.1946 148.23 50.7045 148.23 50.1165C148.23 49.4517 147.992 48.919 147.514 48.5185C147.046 48.1094 146.411 47.9048 145.61 47.9048C144.8 47.9048 144.127 48.0881 143.59 48.4545C143.061 48.8125 142.788 49.2812 142.771 49.8608H137.517C137.534 48.6847 137.888 47.6662 138.578 46.8054C139.277 45.9446 140.215 45.2798 141.391 44.8111C142.575 44.3423 143.901 44.108 145.367 44.108C146.969 44.108 148.35 44.3338 149.509 44.7855C150.676 45.2287 151.571 45.8636 152.193 46.6903C152.824 47.517 153.139 48.5014 153.139 49.6435C153.139 50.6832 152.798 51.5526 152.117 52.2514C151.435 52.9503 150.48 53.4489 149.253 53.7472V53.9517C150.063 54.0028 150.796 54.2202 151.452 54.6037C152.108 54.9872 152.632 55.5156 153.024 56.1889C153.416 56.8537 153.612 57.642 153.612 58.554C153.612 59.7727 153.254 60.8168 152.538 61.6861C151.831 62.5554 150.851 63.2244 149.598 63.6932C148.354 64.1534 146.926 64.3835 145.315 64.3835C143.747 64.3835 142.341 64.1577 141.097 63.706C139.861 63.2457 138.877 62.5724 138.144 61.6861C137.419 60.7997 137.036 59.7173 136.993 58.4389ZM164.024 64.3835C162.039 64.3835 160.321 63.9616 158.872 63.1179C157.432 62.2656 156.32 61.081 155.536 59.5639C154.752 58.0384 154.36 56.2699 154.36 54.2585C154.36 52.2301 154.752 50.4574 155.536 48.9403C156.32 47.4148 157.432 46.2301 158.872 45.3864C160.321 44.5341 162.039 44.108 164.024 44.108C166.01 44.108 167.723 44.5341 169.164 45.3864C170.612 46.2301 171.729 47.4148 172.513 48.9403C173.297 50.4574 173.689 52.2301 173.689 54.2585C173.689 56.2699 173.297 58.0384 172.513 59.5639C171.729 61.081 170.612 62.2656 169.164 63.1179C167.723 63.9616 166.01 64.3835 164.024 64.3835ZM164.05 60.1648C164.953 60.1648 165.708 59.9091 166.313 59.3977C166.918 58.8778 167.374 58.1705 167.681 57.2756C167.996 56.3807 168.154 55.3622 168.154 54.2202C168.154 53.0781 167.996 52.0597 167.681 51.1648C167.374 50.2699 166.918 49.5625 166.313 49.0426C165.708 48.5227 164.953 48.2628 164.05 48.2628C163.138 48.2628 162.371 48.5227 161.749 49.0426C161.135 49.5625 160.671 50.2699 160.355 51.1648C160.049 52.0597 159.895 53.0781 159.895 54.2202C159.895 55.3622 160.049 56.3807 160.355 57.2756C160.671 58.1705 161.135 58.8778 161.749 59.3977C162.371 59.9091 163.138 60.1648 164.05 60.1648ZM175.43 64V44.3636H192.599V64H187.396V48.6463H180.57V64H175.43ZM200.745 64.3707C199.493 64.3707 198.376 64.1534 197.396 63.7188C196.416 63.2756 195.64 62.6236 195.069 61.7628C194.507 60.8935 194.225 59.8111 194.225 58.5156C194.225 57.4247 194.426 56.5085 194.826 55.767C195.227 55.0256 195.772 54.429 196.463 53.9773C197.153 53.5256 197.937 53.1847 198.815 52.9545C199.701 52.7244 200.63 52.5625 201.602 52.4688C202.744 52.3494 203.664 52.2386 204.363 52.1364C205.062 52.0256 205.569 51.8636 205.885 51.6506C206.2 51.4375 206.358 51.1222 206.358 50.7045V50.6278C206.358 49.8182 206.102 49.1918 205.591 48.7486C205.088 48.3054 204.372 48.0838 203.443 48.0838C202.463 48.0838 201.683 48.3011 201.103 48.7358C200.524 49.1619 200.14 49.6989 199.953 50.3466L194.916 49.9375C195.172 48.7443 195.674 47.7131 196.424 46.8438C197.174 45.9659 198.142 45.2926 199.326 44.8239C200.52 44.3466 201.9 44.108 203.468 44.108C204.559 44.108 205.603 44.2358 206.6 44.4915C207.606 44.7472 208.497 45.1435 209.272 45.6804C210.056 46.2173 210.674 46.9077 211.126 47.7514C211.578 48.5866 211.804 49.5881 211.804 50.7557V64H206.639V61.277H206.485C206.17 61.8906 205.748 62.4318 205.22 62.9006C204.691 63.3608 204.056 63.723 203.315 63.9872C202.574 64.2429 201.717 64.3707 200.745 64.3707ZM202.305 60.6122C203.106 60.6122 203.814 60.4545 204.427 60.1392C205.041 59.8153 205.522 59.3807 205.872 58.8352C206.221 58.2898 206.396 57.6719 206.396 56.9815V54.8977C206.225 55.0085 205.991 55.1108 205.693 55.2045C205.403 55.2898 205.075 55.3707 204.708 55.4474C204.342 55.5156 203.975 55.5795 203.609 55.6392C203.243 55.6903 202.91 55.7372 202.612 55.7798C201.973 55.8736 201.414 56.0227 200.937 56.2273C200.46 56.4318 200.089 56.7088 199.825 57.0582C199.561 57.3991 199.429 57.8253 199.429 58.3366C199.429 59.0781 199.697 59.6449 200.234 60.0369C200.779 60.4205 201.47 60.6122 202.305 60.6122ZM223.101 64.3835C221.09 64.3835 219.359 63.9574 217.911 63.1051C216.47 62.2443 215.362 61.0511 214.587 59.5256C213.82 58 213.436 56.2443 213.436 54.2585C213.436 52.2472 213.824 50.483 214.599 48.9659C215.384 47.4403 216.496 46.2514 217.936 45.3991C219.376 44.5384 221.09 44.108 223.075 44.108C224.788 44.108 226.288 44.419 227.575 45.0412C228.862 45.6634 229.881 46.5369 230.631 47.6619C231.381 48.7869 231.794 50.108 231.871 51.625H226.732C226.587 50.6449 226.203 49.8565 225.581 49.2599C224.967 48.6548 224.162 48.3523 223.165 48.3523C222.321 48.3523 221.584 48.5824 220.953 49.0426C220.331 49.4943 219.845 50.1548 219.496 51.0241C219.146 51.8935 218.972 52.946 218.972 54.1818C218.972 55.4347 219.142 56.5 219.483 57.3778C219.832 58.2557 220.323 58.9247 220.953 59.3849C221.584 59.8452 222.321 60.0753 223.165 60.0753C223.787 60.0753 224.345 59.9474 224.84 59.6918C225.342 59.4361 225.756 59.0653 226.08 58.5795C226.412 58.0852 226.629 57.4929 226.732 56.8026H231.871C231.786 58.3026 231.376 59.6236 230.644 60.7656C229.919 61.8991 228.918 62.7855 227.639 63.4247C226.361 64.0639 224.848 64.3835 223.101 64.3835ZM247.224 52.0085V56.2912H236.971V52.0085H247.224ZM238.761 44.3636V64H233.558V44.3636H238.761ZM250.637 44.3636V64H245.472V44.3636H250.637ZM261.935 64.3835C259.949 64.3835 258.231 63.9616 256.783 63.1179C255.342 62.2656 254.23 61.081 253.446 59.5639C252.662 58.0384 252.27 56.2699 252.27 54.2585C252.27 52.2301 252.662 50.4574 253.446 48.9403C254.23 47.4148 255.342 46.2301 256.783 45.3864C258.231 44.5341 259.949 44.108 261.935 44.108C263.92 44.108 265.633 44.5341 267.074 45.3864C268.523 46.2301 269.639 47.4148 270.423 48.9403C271.207 50.4574 271.599 52.2301 271.599 54.2585C271.599 56.2699 271.207 58.0384 270.423 59.5639C269.639 61.081 268.523 62.2656 267.074 63.1179C265.633 63.9616 263.92 64.3835 261.935 64.3835ZM261.96 60.1648C262.864 60.1648 263.618 59.9091 264.223 59.3977C264.828 58.8778 265.284 58.1705 265.591 57.2756C265.906 56.3807 266.064 55.3622 266.064 54.2202C266.064 53.0781 265.906 52.0597 265.591 51.1648C265.284 50.2699 264.828 49.5625 264.223 49.0426C263.618 48.5227 262.864 48.2628 261.96 48.2628C261.048 48.2628 260.281 48.5227 259.659 49.0426C259.045 49.5625 258.581 50.2699 258.265 51.1648C257.959 52.0597 257.805 53.0781 257.805 54.2202C257.805 55.3622 257.959 56.3807 258.265 57.2756C258.581 58.1705 259.045 58.8778 259.659 59.3977C260.281 59.9091 261.048 60.1648 261.96 60.1648ZM282.213 64.3835C280.201 64.3835 278.471 63.9574 277.022 63.1051C275.582 62.2443 274.474 61.0511 273.698 59.5256C272.931 58 272.548 56.2443 272.548 54.2585C272.548 52.2472 272.936 50.483 273.711 48.9659C274.495 47.4403 275.608 46.2514 277.048 45.3991C278.488 44.5384 280.201 44.108 282.187 44.108C283.9 44.108 285.4 44.419 286.687 45.0412C287.974 45.6634 288.992 46.5369 289.742 47.6619C290.492 48.7869 290.906 50.108 290.983 51.625H285.843C285.698 50.6449 285.315 49.8565 284.693 49.2599C284.079 48.6548 283.274 48.3523 282.277 48.3523C281.433 48.3523 280.696 48.5824 280.065 49.0426C279.443 49.4943 278.957 50.1548 278.608 51.0241C278.258 51.8935 278.083 52.946 278.083 54.1818C278.083 55.4347 278.254 56.5 278.595 57.3778C278.944 58.2557 279.434 58.9247 280.065 59.3849C280.696 59.8452 281.433 60.0753 282.277 60.0753C282.899 60.0753 283.457 59.9474 283.951 59.6918C284.454 59.4361 284.867 59.0653 285.191 58.5795C285.524 58.0852 285.741 57.4929 285.843 56.8026H290.983C290.897 58.3026 290.488 59.6236 289.755 60.7656C289.031 61.8991 288.029 62.7855 286.751 63.4247C285.473 64.0639 283.96 64.3835 282.213 64.3835ZM291.33 48.6463V44.3636H309.126V48.6463H302.798V64H297.607V48.6463H291.33ZM314.041 50.3977H319.908C322.508 50.3977 324.536 51.0199 325.994 52.2642C327.451 53.5 328.18 55.1534 328.18 57.2244C328.18 58.571 327.852 59.7557 327.195 60.7784C326.539 61.7926 325.593 62.5852 324.357 63.1562C323.122 63.7188 321.639 64 319.908 64H310.627V44.3636H315.83V59.7173H319.908C320.82 59.7173 321.57 59.4872 322.158 59.027C322.747 58.5668 323.045 57.9787 323.053 57.2628C323.045 56.5043 322.747 55.8864 322.158 55.4091C321.57 54.9233 320.82 54.6804 319.908 54.6804H314.041V50.3977ZM348.758 51.0881V55.4091H336.817V51.0881H348.758ZM371.797 52.0085V56.2912H361.544V52.0085H371.797ZM363.333 44.3636V64H358.13V44.3636H363.333ZM375.21 44.3636V64H370.045V44.3636H375.21ZM383.234 64.3707C381.982 64.3707 380.865 64.1534 379.885 63.7188C378.905 63.2756 378.129 62.6236 377.558 61.7628C376.996 60.8935 376.715 59.8111 376.715 58.5156C376.715 57.4247 376.915 56.5085 377.315 55.767C377.716 55.0256 378.261 54.429 378.952 53.9773C379.642 53.5256 380.426 53.1847 381.304 52.9545C382.19 52.7244 383.119 52.5625 384.091 52.4688C385.233 52.3494 386.153 52.2386 386.852 52.1364C387.551 52.0256 388.058 51.8636 388.374 51.6506C388.689 51.4375 388.847 51.1222 388.847 50.7045V50.6278C388.847 49.8182 388.591 49.1918 388.08 48.7486C387.577 48.3054 386.861 48.0838 385.932 48.0838C384.952 48.0838 384.172 48.3011 383.592 48.7358C383.013 49.1619 382.629 49.6989 382.442 50.3466L377.405 49.9375C377.661 48.7443 378.163 47.7131 378.913 46.8438C379.663 45.9659 380.631 45.2926 381.815 44.8239C383.009 44.3466 384.389 44.108 385.957 44.108C387.048 44.108 388.092 44.2358 389.09 44.4915C390.095 44.7472 390.986 45.1435 391.761 45.6804C392.546 46.2173 393.163 46.9077 393.615 47.7514C394.067 48.5866 394.293 49.5881 394.293 50.7557V64H389.128V61.277H388.975C388.659 61.8906 388.237 62.4318 387.709 62.9006C387.18 63.3608 386.546 63.723 385.804 63.9872C385.063 64.2429 384.206 64.3707 383.234 64.3707ZM384.794 60.6122C385.595 60.6122 386.303 60.4545 386.916 60.1392C387.53 59.8153 388.011 59.3807 388.361 58.8352C388.71 58.2898 388.885 57.6719 388.885 56.9815V54.8977C388.715 55.0085 388.48 55.1108 388.182 55.2045C387.892 55.2898 387.564 55.3707 387.198 55.4474C386.831 55.5156 386.465 55.5795 386.098 55.6392C385.732 55.6903 385.399 55.7372 385.101 55.7798C384.462 55.8736 383.903 56.0227 383.426 56.2273C382.949 56.4318 382.578 56.7088 382.314 57.0582C382.05 57.3991 381.918 57.8253 381.918 58.3366C381.918 59.0781 382.186 59.6449 382.723 60.0369C383.269 60.4205 383.959 60.6122 384.794 60.6122ZM396.718 44.3636H401.921V59.679H407.456V44.3636H412.66V59.679H418.195V44.3636H423.398V64H396.718V44.3636ZM432.352 64V44.3636H449.521V64H444.318V48.6463H437.491V64H432.352ZM452.068 71.3636V44.3636H457.437V47.6619H457.68C457.919 47.1335 458.264 46.5966 458.716 46.0511C459.176 45.4972 459.772 45.0369 460.505 44.6705C461.247 44.2955 462.167 44.108 463.267 44.108C464.699 44.108 466.02 44.483 467.23 45.233C468.44 45.9744 469.407 47.0952 470.132 48.5952C470.856 50.0866 471.218 51.9574 471.218 54.2074C471.218 56.3977 470.865 58.2472 470.157 59.7557C469.458 61.2557 468.504 62.3935 467.294 63.169C466.092 63.9361 464.745 64.3196 463.254 64.3196C462.197 64.3196 461.298 64.1449 460.556 63.7955C459.824 63.446 459.223 63.0071 458.754 62.4787C458.285 61.9418 457.927 61.4006 457.68 60.8551H457.514V71.3636H452.068ZM457.399 54.1818C457.399 55.3494 457.561 56.3679 457.885 57.2372C458.208 58.1065 458.677 58.7841 459.291 59.2699C459.904 59.7472 460.65 59.9858 461.528 59.9858C462.414 59.9858 463.164 59.7429 463.778 59.2571C464.392 58.7628 464.856 58.081 465.172 57.2116C465.495 56.3338 465.657 55.3239 465.657 54.1818C465.657 53.0483 465.5 52.0511 465.184 51.1903C464.869 50.3295 464.404 49.6562 463.791 49.1705C463.177 48.6847 462.423 48.4418 461.528 48.4418C460.642 48.4418 459.892 48.6761 459.278 49.1449C458.673 49.6136 458.208 50.2784 457.885 51.1392C457.561 52 457.399 53.0142 457.399 54.1818ZM478.252 56.8153L485.322 44.3636H490.691V64H485.501V51.5099L478.457 64H473.049V44.3636H478.252V56.8153ZM502.129 64.3835C500.143 64.3835 498.426 63.9616 496.977 63.1179C495.537 62.2656 494.424 61.081 493.64 59.5639C492.856 58.0384 492.464 56.2699 492.464 54.2585C492.464 52.2301 492.856 50.4574 493.64 48.9403C494.424 47.4148 495.537 46.2301 496.977 45.3864C498.426 44.5341 500.143 44.108 502.129 44.108C504.115 44.108 505.828 44.5341 507.268 45.3864C508.717 46.2301 509.834 47.4148 510.618 48.9403C511.402 50.4574 511.794 52.2301 511.794 54.2585C511.794 56.2699 511.402 58.0384 510.618 59.5639C509.834 61.081 508.717 62.2656 507.268 63.1179C505.828 63.9616 504.115 64.3835 502.129 64.3835ZM502.155 60.1648C503.058 60.1648 503.812 59.9091 504.417 59.3977C505.023 58.8778 505.478 58.1705 505.785 57.2756C506.101 56.3807 506.258 55.3622 506.258 54.2202C506.258 53.0781 506.101 52.0597 505.785 51.1648C505.478 50.2699 505.023 49.5625 504.417 49.0426C503.812 48.5227 503.058 48.2628 502.155 48.2628C501.243 48.2628 500.476 48.5227 499.853 49.0426C499.24 49.5625 498.775 50.2699 498.46 51.1648C498.153 52.0597 498 53.0781 498 54.2202C498 55.3622 498.153 56.3807 498.46 57.2756C498.775 58.1705 499.24 58.8778 499.853 59.3977C500.476 59.9091 501.243 60.1648 502.155 60.1648ZM513.535 71.3636V44.3636H518.904V47.6619H519.147C519.386 47.1335 519.731 46.5966 520.183 46.0511C520.643 45.4972 521.24 45.0369 521.973 44.6705C522.714 44.2955 523.634 44.108 524.734 44.108C526.166 44.108 527.487 44.483 528.697 45.233C529.907 45.9744 530.875 47.0952 531.599 48.5952C532.323 50.0866 532.686 51.9574 532.686 54.2074C532.686 56.3977 532.332 58.2472 531.625 59.7557C530.926 61.2557 529.971 62.3935 528.761 63.169C527.559 63.9361 526.213 64.3196 524.721 64.3196C523.664 64.3196 522.765 64.1449 522.024 63.7955C521.291 63.446 520.69 63.0071 520.221 62.4787C519.752 61.9418 519.394 61.4006 519.147 60.8551H518.981V71.3636H513.535ZM518.866 54.1818C518.866 55.3494 519.028 56.3679 519.352 57.2372C519.676 58.1065 520.144 58.7841 520.758 59.2699C521.372 59.7472 522.117 59.9858 522.995 59.9858C523.882 59.9858 524.632 59.7429 525.245 59.2571C525.859 58.7628 526.323 58.081 526.639 57.2116C526.963 56.3338 527.125 55.3239 527.125 54.1818C527.125 53.0483 526.967 52.0511 526.651 51.1903C526.336 50.3295 525.872 49.6562 525.258 49.1705C524.644 48.6847 523.89 48.4418 522.995 48.4418C522.109 48.4418 521.359 48.6761 520.745 49.1449C520.14 49.6136 519.676 50.2784 519.352 51.1392C519.028 52 518.866 53.0142 518.866 54.1818ZM539.719 56.8153L546.789 44.3636H552.158V64H546.968V51.5099L539.924 64H534.516V44.3636H539.719V56.8153ZM552.752 48.6463V44.3636H570.548V48.6463H564.219V64H559.029V48.6463H552.752ZM580.295 64.3835C578.275 64.3835 576.536 63.9744 575.079 63.1562C573.63 62.3295 572.514 61.1619 571.729 59.6534C570.945 58.1364 570.553 56.3423 570.553 54.2713C570.553 52.2514 570.945 50.4787 571.729 48.9531C572.514 47.4276 573.617 46.2386 575.041 45.3864C576.472 44.5341 578.151 44.108 580.077 44.108C581.373 44.108 582.579 44.3168 583.695 44.7344C584.82 45.1435 585.801 45.7614 586.636 46.5881C587.479 47.4148 588.136 48.4545 588.604 49.7074C589.073 50.9517 589.308 52.4091 589.308 54.0795V55.5753H572.727V52.2003H584.181C584.181 51.4162 584.011 50.7216 583.67 50.1165C583.329 49.5114 582.856 49.0384 582.251 48.6974C581.654 48.348 580.96 48.1733 580.167 48.1733C579.34 48.1733 578.607 48.3651 577.968 48.7486C577.337 49.1236 576.843 49.6307 576.485 50.2699C576.127 50.9006 575.944 51.6037 575.935 52.3793V55.5881C575.935 56.5597 576.114 57.3991 576.472 58.1065C576.839 58.8139 577.354 59.3594 578.019 59.7429C578.684 60.1264 579.472 60.3182 580.384 60.3182C580.989 60.3182 581.543 60.233 582.046 60.0625C582.549 59.892 582.979 59.6364 583.337 59.2955C583.695 58.9545 583.968 58.5369 584.156 58.0426L589.193 58.375C588.937 59.5852 588.413 60.642 587.62 61.5455C586.836 62.4403 585.822 63.1392 584.577 63.642C583.342 64.1364 581.914 64.3835 580.295 64.3835ZM589.547 48.6463V44.3636H607.342V48.6463H601.014V64H595.824V48.6463H589.547Z" fill="white"/>
<path d="M1.53409 23V21.4659L10.9432 7.42045H1.43182V5.54545H13.4659V7.07954L4.05682 21.125H13.5682V23H1.53409ZM15.9136 23V5.54545H26.4477V7.42045H18.0273V13.3182H25.9023V15.1932H18.0273V21.125H26.5841V23H15.9136ZM29.0574 23V5.54545H34.9551C36.3188 5.54545 37.4381 5.77841 38.3131 6.24432C39.1881 6.70454 39.8358 7.33807 40.2563 8.14489C40.6767 8.9517 40.8869 9.86932 40.8869 10.8977C40.8869 11.9261 40.6767 12.8381 40.2563 13.6335C39.8358 14.429 39.1909 15.054 38.3216 15.5085C37.4523 15.9574 36.3415 16.1818 34.9892 16.1818H30.2165V14.2727H34.921C35.8528 14.2727 36.6028 14.1364 37.171 13.8636C37.7449 13.5909 38.1597 13.2045 38.4153 12.7045C38.6767 12.1989 38.8074 11.5966 38.8074 10.8977C38.8074 10.1989 38.6767 9.58807 38.4153 9.06534C38.154 8.54261 37.7364 8.1392 37.1625 7.85511C36.5886 7.56534 35.8301 7.42045 34.8869 7.42045H31.171V23H29.0574ZM37.2733 15.1591L41.5688 23H39.1142L34.8869 15.1591H37.2733ZM57.0499 5.54545V23H55.0044L45.493 9.29545H45.3226V23H43.209V5.54545H45.2544L54.7999 19.2841H54.9703V5.54545H57.0499ZM74.8065 14.2727C74.8065 16.1136 74.4741 17.7045 73.8094 19.0455C73.1446 20.3864 72.2327 21.4205 71.0736 22.1477C69.9145 22.875 68.5906 23.2386 67.102 23.2386C65.6134 23.2386 64.2895 22.875 63.1304 22.1477C61.9713 21.4205 61.0594 20.3864 60.3946 19.0455C59.7298 17.7045 59.3974 16.1136 59.3974 14.2727C59.3974 12.4318 59.7298 10.8409 60.3946 9.5C61.0594 8.15909 61.9713 7.125 63.1304 6.39773C64.2895 5.67045 65.6134 5.30682 67.102 5.30682C68.5906 5.30682 69.9145 5.67045 71.0736 6.39773C72.2327 7.125 73.1446 8.15909 73.8094 9.5C74.4741 10.8409 74.8065 12.4318 74.8065 14.2727ZM72.7611 14.2727C72.7611 12.7614 72.5082 11.4858 72.0026 10.446C71.5026 9.40625 70.8236 8.61932 69.9656 8.08523C69.1134 7.55114 68.1588 7.28409 67.102 7.28409C66.0452 7.28409 65.0878 7.55114 64.2298 8.08523C63.3776 8.61932 62.6986 9.40625 62.1929 10.446C61.6929 11.4858 61.4429 12.7614 61.4429 14.2727C61.4429 15.7841 61.6929 17.0597 62.1929 18.0994C62.6986 19.1392 63.3776 19.9261 64.2298 20.4602C65.0878 20.9943 66.0452 21.2614 67.102 21.2614C68.1588 21.2614 69.1134 20.9943 69.9656 20.4602C70.8236 19.9261 71.5026 19.1392 72.0026 18.0994C72.5082 17.0597 72.7611 15.7841 72.7611 14.2727ZM81.831 23.2386C80.6832 23.2386 79.6946 23.0284 78.8651 22.608C78.0355 22.1875 77.3963 21.6108 76.9474 20.8778C76.4986 20.1449 76.2741 19.3068 76.2741 18.3636C76.2741 17.6364 76.4276 16.9915 76.7344 16.429C77.0469 15.8608 77.4759 15.3352 78.0213 14.8523C78.5724 14.3636 79.206 13.875 79.9219 13.3864L82.4446 11.5114C82.9389 11.1875 83.3338 10.8409 83.6293 10.4716C83.9304 10.1023 84.081 9.61932 84.081 9.02273C84.081 8.57955 83.8849 8.15057 83.4929 7.73579C83.1065 7.32102 82.598 7.11364 81.9673 7.11364C81.5241 7.11364 81.1321 7.22727 80.7912 7.45454C80.456 7.67614 80.1918 7.96023 79.9986 8.30682C79.8111 8.64773 79.7173 9 79.7173 9.36364C79.7173 9.77273 79.8281 10.1875 80.0497 10.608C80.277 11.0227 80.5639 11.4489 80.9105 11.8864C81.2628 12.3182 81.6264 12.7614 82.0014 13.2159L90.0128 23H87.5923L80.9787 15.0227C80.3651 14.2841 79.8082 13.6136 79.3082 13.0114C78.8082 12.4091 78.4105 11.8153 78.1151 11.2301C77.8196 10.6449 77.6719 10.0114 77.6719 9.32954C77.6719 8.54545 77.8452 7.85795 78.1918 7.26704C78.544 6.67045 79.0355 6.20739 79.6662 5.87784C80.3026 5.54261 81.0469 5.375 81.8991 5.375C82.7741 5.375 83.527 5.54545 84.1577 5.88636C84.7884 6.22159 85.2741 6.66761 85.6151 7.22443C85.956 7.77557 86.1264 8.375 86.1264 9.02273C86.1264 9.85795 85.919 10.5824 85.5043 11.196C85.0895 11.8097 84.5241 12.3807 83.8082 12.9091L80.331 15.5C79.5469 16.0795 79.0156 16.642 78.7372 17.1875C78.4588 17.733 78.3196 18.125 78.3196 18.3636C78.3196 18.9091 78.4616 19.4176 78.7457 19.8892C79.0298 20.3608 79.4304 20.7415 79.9474 21.0312C80.4645 21.321 81.0696 21.4659 81.7628 21.4659C82.4219 21.4659 83.0639 21.3267 83.6889 21.0483C84.3139 20.7642 84.8793 20.3551 85.3849 19.821C85.8963 19.2869 86.2997 18.6449 86.5952 17.8949C86.8963 17.1449 87.0469 16.3011 87.0469 15.3636H88.9901C88.9901 16.5227 88.8565 17.4687 88.5895 18.2017C88.3224 18.9347 88.0213 19.5085 87.6861 19.9233C87.3509 20.3381 87.081 20.6477 86.8764 20.8523C86.8082 20.9375 86.7457 21.0227 86.6889 21.108C86.6321 21.1932 86.5696 21.2784 86.5014 21.3636C85.9389 21.9943 85.2287 22.4659 84.3707 22.7784C83.5128 23.0852 82.6662 23.2386 81.831 23.2386ZM91.3121 23V5.54545H101.846V7.42045H93.4257V13.3182H101.301V15.1932H93.4257V21.125H101.983V23H91.3121ZM105.479 5.54545L109.979 12.8068H110.115L114.615 5.54545H117.104L111.615 14.2727L117.104 23H114.615L110.115 15.875H109.979L105.479 23H102.99L108.615 14.2727L102.99 5.54545H105.479ZM132.418 11H130.305C130.18 10.392 129.961 9.85795 129.649 9.39773C129.342 8.9375 128.967 8.55114 128.524 8.23864C128.086 7.92045 127.6 7.68182 127.066 7.52273C126.532 7.36364 125.975 7.28409 125.396 7.28409C124.339 7.28409 123.382 7.55114 122.524 8.08523C121.671 8.61932 120.992 9.40625 120.487 10.446C119.987 11.4858 119.737 12.7614 119.737 14.2727C119.737 15.7841 119.987 17.0597 120.487 18.0994C120.992 19.1392 121.671 19.9261 122.524 20.4602C123.382 20.9943 124.339 21.2614 125.396 21.2614C125.975 21.2614 126.532 21.1818 127.066 21.0227C127.6 20.8636 128.086 20.6278 128.524 20.3153C128.967 19.9972 129.342 19.608 129.649 19.1477C129.961 18.6818 130.18 18.1477 130.305 17.5455H132.418C132.259 18.4375 131.97 19.2358 131.549 19.9403C131.129 20.6449 130.606 21.2443 129.981 21.7386C129.356 22.2273 128.654 22.5994 127.876 22.8551C127.103 23.1108 126.276 23.2386 125.396 23.2386C123.907 23.2386 122.583 22.875 121.424 22.1477C120.265 21.4205 119.353 20.3864 118.688 19.0455C118.024 17.7045 117.691 16.1136 117.691 14.2727C117.691 12.4318 118.024 10.8409 118.688 9.5C119.353 8.15909 120.265 7.125 121.424 6.39773C122.583 5.67045 123.907 5.30682 125.396 5.30682C126.276 5.30682 127.103 5.43466 127.876 5.69034C128.654 5.94602 129.356 6.32102 129.981 6.81534C130.606 7.30398 131.129 7.90057 131.549 8.60511C131.97 9.30398 132.259 10.1023 132.418 11ZM134.634 23V5.54545H136.748V13.3182H146.054V5.54545H148.168V23H146.054V15.1932H136.748V23H134.634ZM151.915 23H149.7L156.109 5.54545H158.29L164.7 23H162.484L157.268 8.30682H157.131L151.915 23ZM152.734 16.1818H161.665V18.0568H152.734V16.1818ZM180.059 5.54545V23H178.014L168.502 9.29545H168.332V23H166.218V5.54545H168.264L177.809 19.2841H177.98V5.54545H180.059ZM195.02 11C194.833 10.4261 194.586 9.91193 194.279 9.45739C193.978 8.99716 193.617 8.60511 193.197 8.28125C192.782 7.95739 192.31 7.71023 191.782 7.53977C191.253 7.36932 190.674 7.28409 190.043 7.28409C189.009 7.28409 188.069 7.55114 187.222 8.08523C186.376 8.61932 185.702 9.40625 185.202 10.446C184.702 11.4858 184.452 12.7614 184.452 14.2727C184.452 15.7841 184.705 17.0597 185.211 18.0994C185.716 19.1392 186.401 19.9261 187.265 20.4602C188.128 20.9943 189.1 21.2614 190.18 21.2614C191.18 21.2614 192.06 21.0483 192.822 20.6222C193.589 20.1903 194.185 19.5824 194.611 18.7983C195.043 18.0085 195.259 17.0795 195.259 16.0114L195.907 16.1477H190.657V14.2727H197.305V16.1477C197.305 17.5852 196.998 18.8352 196.384 19.8977C195.776 20.9602 194.935 21.7841 193.861 22.3693C192.793 22.9489 191.566 23.2386 190.18 23.2386C188.634 23.2386 187.276 22.875 186.106 22.1477C184.941 21.4205 184.032 20.3864 183.378 19.0455C182.731 17.7045 182.407 16.1136 182.407 14.2727C182.407 12.892 182.591 11.6506 182.961 10.5483C183.336 9.44034 183.864 8.49716 184.546 7.71875C185.228 6.94034 186.035 6.34375 186.966 5.92898C187.898 5.5142 188.924 5.30682 190.043 5.30682C190.964 5.30682 191.822 5.44602 192.617 5.72443C193.418 5.99716 194.131 6.38636 194.756 6.89204C195.387 7.39204 195.913 7.99148 196.333 8.69034C196.753 9.38352 197.043 10.1534 197.202 11H195.02ZM199.725 23V5.54545H210.259V7.42045H201.838V13.3182H209.713V15.1932H201.838V21.125H210.395V23H199.725ZM214.062 23.1364C213.641 23.1364 213.28 22.9858 212.979 22.6847C212.678 22.3835 212.527 22.0227 212.527 21.6023C212.527 21.1818 212.678 20.821 212.979 20.5199C213.28 20.2187 213.641 20.0682 214.062 20.0682C214.482 20.0682 214.843 20.2187 215.144 20.5199C215.445 20.821 215.596 21.1818 215.596 21.6023C215.596 21.8807 215.525 22.1364 215.383 22.3693C215.246 22.6023 215.062 22.7898 214.829 22.9318C214.601 23.0682 214.346 23.1364 214.062 23.1364ZM224.544 23H222.328L228.737 5.54545H230.919L237.328 23H235.112L229.896 8.30682H229.76L224.544 23ZM225.362 16.1818H234.294V18.0568H225.362V16.1818ZM246.653 9.90909V11.7841H240.585V23H238.574V9.90909H246.653ZM248.389 27.9091V9.90909H250.333V11.9886H250.571C250.719 11.7614 250.923 11.4716 251.185 11.1193C251.452 10.7614 251.833 10.4432 252.327 10.1648C252.827 9.88068 253.503 9.73864 254.355 9.73864C255.458 9.73864 256.429 10.0142 257.27 10.5653C258.111 11.1165 258.767 11.8977 259.239 12.9091C259.71 13.9205 259.946 15.1136 259.946 16.4886C259.946 17.875 259.71 19.0767 259.239 20.0938C258.767 21.1051 258.114 21.8892 257.279 22.446C256.443 22.9972 255.48 23.2727 254.389 23.2727C253.548 23.2727 252.875 23.1335 252.369 22.8551C251.864 22.571 251.475 22.25 251.202 21.892C250.929 21.5284 250.719 21.2273 250.571 20.9886H250.401V27.9091H248.389ZM250.367 16.4545C250.367 17.4432 250.511 18.3153 250.801 19.071C251.091 19.821 251.514 20.4091 252.071 20.8352C252.628 21.2557 253.31 21.4659 254.117 21.4659C254.958 21.4659 255.659 21.2443 256.222 20.8011C256.79 20.3523 257.216 19.75 257.5 18.9943C257.79 18.233 257.935 17.3864 257.935 16.4545C257.935 15.5341 257.793 14.7045 257.509 13.9659C257.23 13.2216 256.807 12.6335 256.239 12.2017C255.676 11.7642 254.969 11.5455 254.117 11.5455C253.298 11.5455 252.611 11.7528 252.054 12.1676C251.497 12.5767 251.077 13.1506 250.793 13.8892C250.509 14.6222 250.367 15.4773 250.367 16.4545ZM267.133 23.2727C265.951 23.2727 264.914 22.9915 264.022 22.429C263.135 21.8665 262.442 21.0795 261.942 20.0682C261.448 19.0568 261.201 17.875 261.201 16.5227C261.201 15.1591 261.448 13.9687 261.942 12.9517C262.442 11.9347 263.135 11.1449 264.022 10.5824C264.914 10.0199 265.951 9.73864 267.133 9.73864C268.314 9.73864 269.348 10.0199 270.235 10.5824C271.127 11.1449 271.82 11.9347 272.314 12.9517C272.814 13.9687 273.064 15.1591 273.064 16.5227C273.064 17.875 272.814 19.0568 272.314 20.0682C271.82 21.0795 271.127 21.8665 270.235 22.429C269.348 22.9915 268.314 23.2727 267.133 23.2727ZM267.133 21.4659C268.03 21.4659 268.769 21.2358 269.348 20.7756C269.928 20.3153 270.357 19.7102 270.635 18.9602C270.914 18.2102 271.053 17.3977 271.053 16.5227C271.053 15.6477 270.914 14.8324 270.635 14.0767C270.357 13.321 269.928 12.7102 269.348 12.2443C268.769 11.7784 268.03 11.5455 267.133 11.5455C266.235 11.5455 265.496 11.7784 264.917 12.2443C264.337 12.7102 263.908 13.321 263.63 14.0767C263.351 14.8324 263.212 15.6477 263.212 16.5227C263.212 17.3977 263.351 18.2102 263.63 18.9602C263.908 19.7102 264.337 20.3153 264.917 20.7756C265.496 21.2358 266.235 21.4659 267.133 21.4659ZM284.651 5L285.673 6.22727C285.276 6.61364 284.815 6.88352 284.293 7.03693C283.77 7.19034 283.179 7.28409 282.52 7.31818C281.861 7.35227 281.128 7.38636 280.321 7.42045C279.412 7.45455 278.659 7.67614 278.062 8.08523C277.466 8.49432 277.006 9.08523 276.682 9.85795C276.358 10.6307 276.151 11.5795 276.06 12.7045H276.23C276.673 11.8864 277.287 11.2841 278.071 10.8977C278.855 10.5114 279.696 10.3182 280.594 10.3182C281.616 10.3182 282.537 10.5568 283.355 11.0341C284.173 11.5114 284.821 12.2188 285.298 13.1562C285.776 14.0938 286.014 15.25 286.014 16.625C286.014 17.9943 285.77 19.1761 285.281 20.1705C284.798 21.1648 284.119 21.9318 283.244 22.4716C282.375 23.0057 281.355 23.2727 280.185 23.2727C279.014 23.2727 277.989 22.9972 277.108 22.446C276.227 21.8892 275.543 21.0653 275.054 19.9744C274.565 18.8778 274.321 17.5227 274.321 15.9091V14.5114C274.321 11.5966 274.815 9.38636 275.804 7.88068C276.798 6.375 278.293 5.59659 280.287 5.54545C280.991 5.52273 281.619 5.51705 282.17 5.52841C282.722 5.53977 283.202 5.5142 283.611 5.4517C284.02 5.3892 284.366 5.23864 284.651 5ZM280.185 21.4659C280.974 21.4659 281.653 21.267 282.222 20.8693C282.795 20.4716 283.236 19.9119 283.543 19.1903C283.849 18.4631 284.003 17.608 284.003 16.625C284.003 15.6705 283.847 14.858 283.534 14.1875C283.227 13.517 282.787 13.0057 282.213 12.6534C281.639 12.3011 280.952 12.125 280.151 12.125C279.565 12.125 279.04 12.2244 278.574 12.4233C278.108 12.6222 277.71 12.9148 277.381 13.3011C277.051 13.6875 276.795 14.1591 276.614 14.7159C276.438 15.2727 276.344 15.9091 276.332 16.625C276.332 18.0909 276.676 19.2642 277.364 20.1449C278.051 21.0256 278.991 21.4659 280.185 21.4659ZM289.902 20.0341L296.209 9.90909H298.527V23H296.516V12.875L290.243 23H287.891V9.90909H289.902V20.0341ZM301.011 27.9091V9.90909H302.954V11.9886H303.193C303.341 11.7614 303.545 11.4716 303.807 11.1193C304.074 10.7614 304.454 10.4432 304.949 10.1648C305.449 9.88068 306.125 9.73864 306.977 9.73864C308.079 9.73864 309.051 10.0142 309.892 10.5653C310.733 11.1165 311.389 11.8977 311.861 12.9091C312.332 13.9205 312.568 15.1136 312.568 16.4886C312.568 17.875 312.332 19.0767 311.861 20.0938C311.389 21.1051 310.736 21.8892 309.9 22.446C309.065 22.9972 308.102 23.2727 307.011 23.2727C306.17 23.2727 305.497 23.1335 304.991 22.8551C304.486 22.571 304.096 22.25 303.824 21.892C303.551 21.5284 303.341 21.2273 303.193 20.9886H303.023V27.9091H301.011ZM302.989 16.4545C302.989 17.4432 303.133 18.3153 303.423 19.071C303.713 19.821 304.136 20.4091 304.693 20.8352C305.25 21.2557 305.932 21.4659 306.739 21.4659C307.579 21.4659 308.281 21.2443 308.844 20.8011C309.412 20.3523 309.838 19.75 310.122 18.9943C310.412 18.233 310.557 17.3864 310.557 16.4545C310.557 15.5341 310.415 14.7045 310.131 13.9659C309.852 13.2216 309.429 12.6335 308.861 12.2017C308.298 11.7642 307.591 11.5455 306.739 11.5455C305.92 11.5455 305.233 11.7528 304.676 12.1676C304.119 12.5767 303.699 13.1506 303.415 13.8892C303.131 14.6222 302.989 15.4773 302.989 16.4545ZM313.079 23L318.397 16.3523L313.147 9.90909H315.534L319.897 15.5H320.988V9.90909H322.999V15.5H324.056L328.42 9.90909H330.806L325.59 16.3523L330.874 23H328.454L324.022 17.375H322.999V23H320.988V17.375H319.965L315.499 23H313.079ZM336.401 23.3068C335.571 23.3068 334.819 23.1506 334.142 22.8381C333.466 22.5199 332.929 22.0625 332.532 21.4659C332.134 20.8636 331.935 20.1364 331.935 19.2841C331.935 18.5341 332.083 17.9261 332.378 17.4602C332.674 16.9886 333.069 16.6193 333.563 16.3523C334.057 16.0852 334.603 15.8864 335.199 15.7557C335.802 15.6193 336.407 15.5114 337.015 15.4318C337.81 15.3295 338.455 15.2528 338.949 15.2017C339.449 15.1449 339.813 15.0511 340.04 14.9205C340.273 14.7898 340.39 14.5625 340.39 14.2386V14.1705C340.39 13.3295 340.16 12.6761 339.699 12.2102C339.245 11.7443 338.554 11.5114 337.628 11.5114C336.668 11.5114 335.915 11.7216 335.37 12.142C334.824 12.5625 334.441 13.0114 334.219 13.4886L332.31 12.8068C332.651 12.0114 333.106 11.392 333.674 10.9489C334.248 10.5 334.873 10.1875 335.549 10.0114C336.231 9.82955 336.901 9.73864 337.56 9.73864C337.981 9.73864 338.464 9.78977 339.009 9.89204C339.56 9.98864 340.091 10.1903 340.603 10.4972C341.12 10.804 341.549 11.267 341.89 11.8864C342.231 12.5057 342.401 13.3352 342.401 14.375V23H340.39V21.2273H340.287C340.151 21.5114 339.924 21.8153 339.606 22.1392C339.287 22.4631 338.864 22.7386 338.336 22.9659C337.807 23.1932 337.162 23.3068 336.401 23.3068ZM336.708 21.5C337.503 21.5 338.174 21.3438 338.719 21.0312C339.27 20.7188 339.685 20.3153 339.964 19.821C340.248 19.3267 340.39 18.8068 340.39 18.2614V16.4205C340.304 16.5227 340.117 16.6165 339.827 16.7017C339.543 16.7812 339.214 16.8523 338.839 16.9148C338.469 16.9716 338.108 17.0227 337.756 17.0682C337.41 17.108 337.128 17.142 336.912 17.1705C336.39 17.2386 335.901 17.3494 335.446 17.5028C334.998 17.6506 334.634 17.875 334.356 18.1761C334.083 18.4716 333.946 18.875 333.946 19.3864C333.946 20.0852 334.205 20.6136 334.722 20.9716C335.245 21.3239 335.907 21.5 336.708 21.5Z" fill="white"/>
</svg>
