<svg width="463" height="39" viewBox="0 0 463 39" fill="none" xmlns="http://www.w3.org/2000/svg">
<path d="M18.1278 30L8.78125 17.5994H6.67898V30H0.528409V0.90909H6.67898V12.5284H7.91477L17.5739 0.90909H25.2301L13.8807 14.4034L25.7557 30H18.1278ZM34.9915 30.4261C32.785 30.4261 30.8769 29.9574 29.267 29.0199C27.6667 28.0729 26.4309 26.7566 25.5597 25.071C24.6884 23.3759 24.2528 21.411 24.2528 19.1761C24.2528 16.9223 24.6884 14.9527 25.5597 13.267C26.4309 11.572 27.6667 10.2557 29.267 9.31818C30.8769 8.37121 32.785 7.89773 34.9915 7.89773C37.1979 7.89773 39.1013 8.37121 40.7017 9.31818C42.3116 10.2557 43.5521 11.572 44.4233 13.267C45.2945 14.9527 45.7301 16.9223 45.7301 19.1761C45.7301 21.411 45.2945 23.3759 44.4233 25.071C43.5521 26.7566 42.3116 28.0729 40.7017 29.0199C39.1013 29.9574 37.1979 30.4261 34.9915 30.4261ZM35.0199 25.7386C36.0237 25.7386 36.8617 25.4545 37.5341 24.8864C38.2064 24.3087 38.7131 23.5227 39.054 22.5284C39.4044 21.5341 39.5795 20.4025 39.5795 19.1335C39.5795 17.8646 39.4044 16.733 39.054 15.7386C38.7131 14.7443 38.2064 13.9583 37.5341 13.3807C36.8617 12.803 36.0237 12.5142 35.0199 12.5142C34.0066 12.5142 33.1544 12.803 32.4631 13.3807C31.7813 13.9583 31.2652 14.7443 30.9148 15.7386C30.5739 16.733 30.4034 17.8646 30.4034 19.1335C30.4034 20.4025 30.5739 21.5341 30.9148 22.5284C31.2652 23.5227 31.7813 24.3087 32.4631 24.8864C33.1544 25.4545 34.0066 25.7386 35.0199 25.7386ZM60.5625 23.3097L66.4716 8.18182H71.0739L62.5653 30H58.5455L50.2358 8.18182H54.8239L60.5625 23.3097ZM53.446 8.18182V30H47.6648V8.18182H53.446ZM67.9773 30V8.18182H73.6875V30H67.9773ZM79.3224 38.1818C78.5554 38.1818 77.8357 38.1203 77.1634 37.9972C76.5005 37.8835 75.9512 37.7367 75.5156 37.5568L76.8793 33.0398C77.5895 33.2576 78.2287 33.3759 78.7969 33.3949C79.3745 33.4138 79.8717 33.2813 80.2884 32.9972C80.7145 32.7131 81.0601 32.2301 81.3253 31.5483L81.6804 30.625L73.8537 8.18182H80.2173L84.7344 24.2045H84.9616L89.5213 8.18182H95.9276L87.4474 32.358C87.0402 33.5322 86.4863 34.5549 85.7855 35.4261C85.0942 36.3068 84.2183 36.9839 83.1577 37.4574C82.0971 37.9403 80.8187 38.1818 79.3224 38.1818ZM117.18 23.3097L123.089 8.18182H127.691L119.183 30H115.163L106.853 8.18182H111.441L117.18 23.3097ZM110.063 8.18182V30H104.282V8.18182H110.063ZM124.594 30V8.18182H130.305V30H124.594ZM136.778 14.8864H143.298C146.186 14.8864 148.44 15.5777 150.059 16.9602C151.678 18.3333 152.488 20.1705 152.488 22.4716C152.488 23.9678 152.123 25.2841 151.394 26.4205C150.665 27.5473 149.614 28.428 148.241 29.0625C146.868 29.6875 145.22 30 143.298 30H132.985V8.18182H138.766V25.2415H143.298C144.311 25.2415 145.144 24.9858 145.798 24.4744C146.451 23.9631 146.782 23.3097 146.792 22.5142C146.782 21.6714 146.451 20.9848 145.798 20.4545C145.144 19.9148 144.311 19.6449 143.298 19.6449H136.778V14.8864ZM154.832 30V8.18182H160.883V30H154.832ZM189.116 0.170453L190.963 4.11932C190.348 4.63068 189.666 5.00947 188.918 5.25568C188.17 5.49242 187.275 5.64867 186.233 5.72443C185.201 5.80019 183.941 5.85227 182.455 5.88068C180.769 5.89962 179.396 6.16951 178.335 6.69034C177.275 7.21117 176.47 8.0303 175.92 9.14773C175.371 10.2557 175.011 11.7045 174.841 13.4943H175.054C175.707 12.1591 176.626 11.1269 177.81 10.3977C179.003 9.66856 180.475 9.30398 182.227 9.30398C184.083 9.30398 185.707 9.71117 187.099 10.5256C188.501 11.34 189.59 12.5095 190.366 14.0341C191.143 15.5587 191.531 17.3864 191.531 19.517C191.531 21.733 191.096 23.66 190.224 25.2983C189.363 26.9271 188.136 28.1913 186.545 29.0909C184.955 29.9811 183.061 30.4261 180.864 30.4261C178.657 30.4261 176.754 29.9621 175.153 29.0341C173.563 28.1061 172.331 26.7377 171.46 24.929C170.598 23.1203 170.168 20.8949 170.168 18.2528V16.4631C170.168 11.2074 171.19 7.31061 173.236 4.77273C175.281 2.23485 178.288 0.946968 182.256 0.90909C183.335 0.89015 184.311 0.885415 185.182 0.894885C186.053 0.904355 186.815 0.861742 187.469 0.767045C188.132 0.672348 188.681 0.473484 189.116 0.170453ZM180.892 25.7386C181.82 25.7386 182.616 25.4972 183.278 25.0142C183.951 24.5312 184.467 23.84 184.827 22.9403C185.196 22.0407 185.381 20.9659 185.381 19.7159C185.381 18.4754 185.196 17.4242 184.827 16.5625C184.467 15.6913 183.951 15.0284 183.278 14.5739C182.606 14.1193 181.801 13.892 180.864 13.892C180.163 13.892 179.533 14.0199 178.974 14.2756C178.416 14.5312 177.938 14.91 177.54 15.4119C177.152 15.9044 176.848 16.5152 176.631 17.2443C176.422 17.964 176.318 18.7879 176.318 19.7159C176.318 21.5814 176.721 23.054 177.526 24.1335C178.34 25.2036 179.462 25.7386 180.892 25.7386ZM197.283 38.1818C196.516 38.1818 195.797 38.1203 195.124 37.9972C194.461 37.8835 193.912 37.7367 193.477 37.5568L194.84 33.0398C195.55 33.2576 196.19 33.3759 196.758 33.3949C197.335 33.4138 197.833 33.2813 198.249 32.9972C198.675 32.7131 199.021 32.2301 199.286 31.5483L199.641 30.625L191.815 8.18182H198.178L202.695 24.2045H202.923L207.482 8.18182H213.888L205.408 32.358C205.001 33.5322 204.447 34.5549 203.746 35.4261C203.055 36.3068 202.179 36.9839 201.119 37.4574C200.058 37.9403 198.78 38.1818 197.283 38.1818ZM211.523 36.392V25.1989H213.199C213.682 24.8958 214.07 24.4129 214.364 23.75C214.667 23.0871 214.913 22.3059 215.102 21.4062C215.301 20.5066 215.453 19.536 215.557 18.4943C215.67 17.4432 215.77 16.3826 215.855 15.3125L216.423 8.18182H233.156V25.1989H236.537V36.392H230.77V30H217.432V36.392H211.523ZM219.222 25.1989H227.446V12.8409H221.565L221.338 15.3125C221.177 17.642 220.945 19.6212 220.642 21.25C220.339 22.8693 219.866 24.1856 219.222 25.1989ZM248.006 30.4261C245.762 30.4261 243.83 29.9716 242.211 29.0625C240.601 28.1439 239.361 26.8466 238.489 25.1705C237.618 23.4848 237.183 21.4915 237.183 19.1903C237.183 16.946 237.618 14.9763 238.489 13.2812C239.361 11.5862 240.587 10.2652 242.168 9.31818C243.759 8.37121 245.625 7.89773 247.765 7.89773C249.204 7.89773 250.544 8.12973 251.785 8.59375C253.035 9.0483 254.124 9.73485 255.052 10.6534C255.989 11.572 256.719 12.7273 257.239 14.1193C257.76 15.5019 258.021 17.1212 258.021 18.9773V20.6392H239.597V16.8892H252.325C252.325 16.018 252.135 15.2462 251.756 14.5739C251.378 13.9015 250.852 13.3759 250.18 12.9972C249.517 12.6089 248.745 12.4148 247.864 12.4148C246.946 12.4148 246.131 12.6278 245.421 13.054C244.72 13.4706 244.171 14.0341 243.773 14.7443C243.376 15.4451 243.172 16.2263 243.163 17.0881V20.6534C243.163 21.733 243.362 22.6657 243.759 23.4517C244.166 24.2377 244.739 24.8438 245.478 25.2699C246.217 25.696 247.093 25.9091 248.106 25.9091C248.778 25.9091 249.394 25.8144 249.952 25.625C250.511 25.4356 250.989 25.1515 251.387 24.7727C251.785 24.3939 252.088 23.9299 252.296 23.3807L257.893 23.75C257.609 25.0947 257.026 26.2689 256.146 27.2727C255.274 28.267 254.147 29.0436 252.765 29.6023C251.392 30.1515 249.806 30.4261 248.006 30.4261ZM272.867 23.3097L278.776 8.18182H283.379L274.87 30H270.85L262.54 8.18182H267.129L272.867 23.3097ZM265.751 8.18182V30H259.969V8.18182H265.751ZM280.282 30V8.18182H285.992V30H280.282ZM295.93 30V8.18182H315.007V30H309.226V12.9403H301.641V30H295.93ZM327.695 30.4261C325.488 30.4261 323.58 29.9574 321.97 29.0199C320.37 28.0729 319.134 26.7566 318.263 25.071C317.392 23.3759 316.956 21.411 316.956 19.1761C316.956 16.9223 317.392 14.9527 318.263 13.267C319.134 11.572 320.37 10.2557 321.97 9.31818C323.58 8.37121 325.488 7.89773 327.695 7.89773C329.901 7.89773 331.804 8.37121 333.405 9.31818C335.015 10.2557 336.255 11.572 337.126 13.267C337.998 14.9527 338.433 16.9223 338.433 19.1761C338.433 21.411 337.998 23.3759 337.126 25.071C336.255 26.7566 335.015 28.0729 333.405 29.0199C331.804 29.9574 329.901 30.4261 327.695 30.4261ZM327.723 25.7386C328.727 25.7386 329.565 25.4545 330.237 24.8864C330.91 24.3087 331.416 23.5227 331.757 22.5284C332.107 21.5341 332.283 20.4025 332.283 19.1335C332.283 17.8646 332.107 16.733 331.757 15.7386C331.416 14.7443 330.91 13.9583 330.237 13.3807C329.565 12.803 328.727 12.5142 327.723 12.5142C326.71 12.5142 325.857 12.803 325.166 13.3807C324.484 13.9583 323.968 14.7443 323.618 15.7386C323.277 16.733 323.107 17.8646 323.107 19.1335C323.107 20.4025 323.277 21.5341 323.618 22.5284C323.968 23.5227 324.484 24.3087 325.166 24.8864C325.857 25.4545 326.71 25.7386 327.723 25.7386ZM339.089 30L339.061 25.1989H339.786C340.297 25.1989 340.737 25.0758 341.107 24.8295C341.485 24.5739 341.798 24.1619 342.044 23.5938C342.29 23.0256 342.484 22.2727 342.626 21.3352C342.768 20.3883 342.863 19.2235 342.911 17.8409L343.266 8.18182H359.857V30H354.089V12.9403H348.706L348.365 19.6023C348.28 21.4299 348.057 23.0019 347.697 24.3182C347.347 25.6345 346.859 26.714 346.234 27.5568C345.609 28.3902 344.857 29.0057 343.976 29.4034C343.095 29.8011 342.072 30 340.908 30H339.089ZM372.491 30.4261C370.246 30.4261 368.315 29.9716 366.695 29.0625C365.085 28.1439 363.845 26.8466 362.974 25.1705C362.103 23.4848 361.667 21.4915 361.667 19.1903C361.667 16.946 362.103 14.9763 362.974 13.2812C363.845 11.5862 365.071 10.2652 366.653 9.31818C368.244 8.37121 370.109 7.89773 372.249 7.89773C373.689 7.89773 375.029 8.12973 376.269 8.59375C377.519 9.0483 378.608 9.73485 379.536 10.6534C380.474 11.572 381.203 12.7273 381.724 14.1193C382.245 15.5019 382.505 17.1212 382.505 18.9773V20.6392H364.082V16.8892H376.809C376.809 16.018 376.62 15.2462 376.241 14.5739C375.862 13.9015 375.336 13.3759 374.664 12.9972C374.001 12.6089 373.229 12.4148 372.349 12.4148C371.43 12.4148 370.616 12.6278 369.906 13.054C369.205 13.4706 368.656 14.0341 368.258 14.7443C367.86 15.4451 367.656 16.2263 367.647 17.0881V20.6534C367.647 21.733 367.846 22.6657 368.244 23.4517C368.651 24.2377 369.224 24.8438 369.962 25.2699C370.701 25.696 371.577 25.9091 372.59 25.9091C373.263 25.9091 373.878 25.8144 374.437 25.625C374.996 25.4356 375.474 25.1515 375.871 24.7727C376.269 24.3939 376.572 23.9299 376.781 23.3807L382.377 23.75C382.093 25.0947 381.511 26.2689 380.63 27.2727C379.759 28.267 378.632 29.0436 377.249 29.6023C375.876 30.1515 374.29 30.4261 372.491 30.4261ZM383.332 23.821H389.198C389.227 24.5407 389.549 25.1089 390.164 25.5256C390.78 25.9422 391.575 26.1506 392.55 26.1506C393.535 26.1506 394.364 25.9233 395.036 25.4688C395.709 25.0047 396.045 24.3419 396.045 23.4801C396.045 22.9498 395.912 22.4905 395.647 22.1023C395.382 21.7045 395.013 21.392 394.539 21.1648C394.066 20.9375 393.516 20.8239 392.891 20.8239H389.752V16.8608H392.891C393.829 16.8608 394.549 16.643 395.05 16.2074C395.562 15.7718 395.817 15.2273 395.817 14.5739C395.817 13.8352 395.552 13.2434 395.022 12.7983C394.501 12.3437 393.796 12.1165 392.906 12.1165C392.006 12.1165 391.258 12.3201 390.661 12.7273C390.074 13.125 389.771 13.6458 389.752 14.2898H383.914C383.933 12.983 384.326 11.8513 385.093 10.8949C385.87 9.93845 386.911 9.19981 388.218 8.67898C389.534 8.15814 391.007 7.89773 392.636 7.89773C394.416 7.89773 395.95 8.14867 397.238 8.65057C398.535 9.14299 399.53 9.84848 400.221 10.767C400.922 11.6856 401.272 12.7794 401.272 14.0483C401.272 15.2036 400.893 16.1695 400.136 16.946C399.378 17.7225 398.317 18.2765 396.954 18.608V18.8352C397.853 18.892 398.668 19.1335 399.397 19.5597C400.126 19.9858 400.709 20.5729 401.144 21.321C401.58 22.0597 401.798 22.9356 401.798 23.9489C401.798 25.303 401.4 26.4631 400.604 27.429C399.818 28.3949 398.729 29.1383 397.337 29.6591C395.955 30.1705 394.369 30.4261 392.579 30.4261C390.836 30.4261 389.274 30.1752 387.891 29.6733C386.518 29.1619 385.424 28.4138 384.61 27.429C383.805 26.4441 383.379 25.2415 383.332 23.821ZM418.693 16.6761V21.4347H407.301V16.6761H418.693ZM409.29 8.18182V30H403.509V8.18182H409.29ZM422.486 8.18182V30H416.747V8.18182H422.486ZM428.973 14.8864H435.493C438.381 14.8864 440.635 15.5777 442.254 16.9602C443.874 18.3333 444.683 20.1705 444.683 22.4716C444.683 23.9678 444.319 25.2841 443.589 26.4205C442.86 27.5473 441.809 28.428 440.436 29.0625C439.063 29.6875 437.415 30 435.493 30H425.18V8.18182H430.962V25.2415H435.493C436.506 25.2415 437.339 24.9858 437.993 24.4744C438.646 23.9631 438.978 23.3097 438.987 22.5142C438.978 21.6714 438.646 20.9848 437.993 20.4545C437.339 19.9148 436.506 19.6449 435.493 19.6449H428.973V14.8864ZM447.027 30V8.18182H453.078V30H447.027ZM459.452 30.3693C458.514 30.3693 457.709 30.0379 457.037 29.375C456.374 28.7027 456.043 27.8977 456.043 26.9602C456.043 26.0322 456.374 25.2367 457.037 24.5739C457.709 23.911 458.514 23.5795 459.452 23.5795C460.361 23.5795 461.156 23.911 461.838 24.5739C462.52 25.2367 462.861 26.0322 462.861 26.9602C462.861 27.5852 462.7 28.1581 462.378 28.679C462.065 29.1903 461.653 29.6023 461.142 29.9148C460.631 30.2178 460.067 30.3693 459.452 30.3693ZM459.452 15.0852C458.514 15.0852 457.709 14.7538 457.037 14.0909C456.374 13.428 456.043 12.6231 456.043 11.6761C456.043 10.7481 456.374 9.95739 457.037 9.30398C457.709 8.6411 458.514 8.30966 459.452 8.30966C460.361 8.30966 461.156 8.6411 461.838 9.30398C462.52 9.95739 462.861 10.7481 462.861 11.6761C462.861 12.3106 462.7 12.8883 462.378 13.4091C462.065 13.9205 461.653 14.3277 461.142 14.6307C460.631 14.9337 460.067 15.0852 459.452 15.0852Z" fill="#4A4339"/>
</svg>
