<svg width="404" height="39" viewBox="0 0 404 39" fill="none" xmlns="http://www.w3.org/2000/svg">
<path d="M0.528409 30V0.90909H19.8324V5.98011H6.67898V11.6619H11.4091C13.7102 11.6619 15.6941 12.036 17.3608 12.7841C19.0369 13.5227 20.3295 14.5691 21.2386 15.9233C22.1477 17.2775 22.6023 18.8731 22.6023 20.7102C22.6023 22.5379 22.1477 24.1525 21.2386 25.554C20.3295 26.946 19.0369 28.035 17.3608 28.821C15.6941 29.607 13.7102 30 11.4091 30H0.528409ZM6.67898 25.0568H11.4091C12.5076 25.0568 13.4356 24.858 14.1932 24.4602C14.9508 24.053 15.5237 23.518 15.9119 22.8551C16.3097 22.1828 16.5085 21.4489 16.5085 20.6534C16.5085 19.4981 16.0682 18.5227 15.1875 17.7273C14.3163 16.9223 13.0568 16.5199 11.4091 16.5199H6.67898V25.0568ZM28.2053 38.1818C27.4382 38.1818 26.7185 38.1203 26.0462 37.9972C25.3833 37.8835 24.834 37.7367 24.3984 37.5568L25.7621 33.0398C26.4723 33.2576 27.1115 33.3759 27.6797 33.3949C28.2573 33.4138 28.7545 33.2813 29.1712 32.9972C29.5973 32.7131 29.9429 32.2301 30.2081 31.5483L30.5632 30.625L22.7365 8.18182H29.1001L33.6172 24.2045H33.8445L38.4041 8.18182H44.8104L36.3303 32.358C35.9231 33.5322 35.3691 34.5549 34.6683 35.4261C33.977 36.3068 33.1011 36.9839 32.0405 37.4574C30.9799 37.9403 29.7015 38.1818 28.2053 38.1818ZM42.4446 36.392V25.1989H44.1207C44.6037 24.8958 44.992 24.4129 45.2855 23.75C45.5885 23.0871 45.8348 22.3059 46.0241 21.4062C46.223 20.5066 46.3745 19.536 46.4787 18.4943C46.5923 17.4432 46.6918 16.3826 46.777 15.3125L47.3452 8.18182H64.0781V25.1989H67.4588V36.392H61.6918V30H48.3537V36.392H42.4446ZM50.1435 25.1989H58.3679V12.8409H52.4872L52.2599 15.3125C52.099 17.642 51.867 19.6212 51.5639 21.25C51.2609 22.8693 50.7874 24.1856 50.1435 25.1989ZM72.7209 38.1818C71.9538 38.1818 71.2341 38.1203 70.5618 37.9972C69.8989 37.8835 69.3497 37.7367 68.9141 37.5568L70.2777 33.0398C70.9879 33.2576 71.6271 33.3759 72.1953 33.3949C72.773 33.4138 73.2701 33.2813 73.6868 32.9972C74.1129 32.7131 74.4586 32.2301 74.7237 31.5483L75.0788 30.625L67.2521 8.18182H73.6158L78.1328 24.2045H78.3601L82.9197 8.18182H89.326L80.8459 32.358C80.4387 33.5322 79.8847 34.5549 79.1839 35.4261C78.4927 36.3068 77.6167 36.9839 76.5561 37.4574C75.4955 37.9403 74.2171 38.1818 72.7209 38.1818ZM124.698 25.2415L124.272 36.25H118.718V30H116.289V25.2415H124.698ZM90.4226 8.18182H96.2038V25.1989H102.354V8.18182H108.136V25.1989H114.286V8.18182H120.067V30H90.4226V8.18182ZM132.094 22.017L139.95 8.18182H145.915V30H140.148V16.1222L132.322 30H126.313V8.18182H132.094V22.017ZM154.548 22.017L162.403 8.18182H168.369V30H162.602V16.1222L154.775 30H148.766V8.18182H154.548V22.017ZM161.366 0.56818H165.585C165.575 2.29167 164.936 3.67898 163.667 4.73011C162.407 5.78125 160.703 6.30682 158.553 6.30682C156.394 6.30682 154.685 5.78125 153.425 4.73011C152.166 3.67898 151.536 2.29167 151.536 0.56818H155.727C155.717 1.22159 155.925 1.80871 156.352 2.32955C156.787 2.85038 157.521 3.1108 158.553 3.1108C159.557 3.1108 160.277 2.85511 160.712 2.34375C161.148 1.83239 161.366 1.24053 161.366 0.56818ZM188.918 37.4148V0.90909H194.955V37.4148H188.918ZM188.918 30.4261C187.241 30.4261 185.712 30.1562 184.33 29.6165C182.947 29.0672 181.754 28.2955 180.75 27.3011C179.746 26.2973 178.97 25.1089 178.42 23.7358C177.871 22.3532 177.597 20.8333 177.597 19.1761C177.597 17.5 177.871 15.9754 178.42 14.6023C178.97 13.2197 179.746 12.0312 180.75 11.0369C181.754 10.0331 182.947 9.26136 184.33 8.72159C185.712 8.17235 187.241 7.89773 188.918 7.89773H190.04V30.4261H188.918ZM188.918 25.7102H189.585V12.6136H188.918C188.103 12.6136 187.379 12.7841 186.744 13.125C186.11 13.4659 185.575 13.9347 185.139 14.5312C184.704 15.1184 184.372 15.8097 184.145 16.6051C183.927 17.4006 183.818 18.2576 183.818 19.1761C183.818 20.3883 184.017 21.4915 184.415 22.4858C184.813 23.4706 185.395 24.2566 186.162 24.8438C186.929 25.4214 187.848 25.7102 188.918 25.7102ZM194.955 30.4261H193.832V7.89773H194.955C196.631 7.89773 198.16 8.17235 199.543 8.72159C200.925 9.26136 202.118 10.0331 203.122 11.0369C204.126 12.0312 204.902 13.2197 205.452 14.6023C206.001 15.9754 206.276 17.5 206.276 19.1761C206.276 20.8333 206.001 22.3532 205.452 23.7358C204.902 25.1089 204.126 26.2973 203.122 27.3011C202.118 28.2955 200.925 29.0672 199.543 29.6165C198.16 30.1562 196.631 30.4261 194.955 30.4261ZM194.955 25.7102C195.769 25.7102 196.493 25.5445 197.128 25.2131C197.762 24.8722 198.297 24.4034 198.733 23.8068C199.169 23.2102 199.5 22.5189 199.727 21.733C199.955 20.9375 200.068 20.0852 200.068 19.1761C200.068 17.9545 199.865 16.8513 199.457 15.8665C199.06 14.8722 198.482 14.0814 197.724 13.4943C196.967 12.9072 196.044 12.6136 194.955 12.6136H194.287V25.7102H194.955ZM211.268 38.1818C210.501 38.1818 209.781 38.1203 209.109 37.9972C208.446 37.8835 207.897 37.7367 207.461 37.5568L208.825 33.0398C209.535 33.2576 210.174 33.3759 210.742 33.3949C211.32 33.4138 211.817 33.2813 212.234 32.9972C212.66 32.7131 213.005 32.2301 213.271 31.5483L213.626 30.625L205.799 8.18182H212.163L216.68 24.2045H216.907L221.467 8.18182H227.873L219.393 32.358C218.986 33.5322 218.432 34.5549 217.731 35.4261C217.04 36.3068 216.164 36.9839 215.103 37.4574C214.042 37.9403 212.764 38.1818 211.268 38.1818ZM244.154 16.6761V21.4347H232.762V16.6761H244.154ZM234.751 8.18182V30H228.969V8.18182H234.751ZM247.947 8.18182V30H242.208V8.18182H247.947ZM250.641 30V8.18182H256.692V16.6477H258.397L264.335 8.18182H271.437L263.724 19.0057L271.522 30H264.335L258.951 22.2585H256.692V30H250.641ZM291.156 8.18182V25.8239H294.636V37.017H288.755V30H272.079V8.18182H277.86V25.2415H285.445V8.18182H291.156ZM302.149 22.017L310.004 8.18182H315.97V30H310.203V16.1222L302.376 30H296.368V8.18182H302.149V22.017ZM328.679 30.4261C326.473 30.4261 324.564 29.9574 322.955 29.0199C321.354 28.0729 320.118 26.7566 319.247 25.071C318.376 23.3759 317.94 21.411 317.94 19.1761C317.94 16.9223 318.376 14.9527 319.247 13.267C320.118 11.572 321.354 10.2557 322.955 9.31818C324.564 8.37121 326.473 7.89773 328.679 7.89773C330.885 7.89773 332.789 8.37121 334.389 9.31818C335.999 10.2557 337.24 11.572 338.111 13.267C338.982 14.9527 339.418 16.9223 339.418 19.1761C339.418 21.411 338.982 23.3759 338.111 25.071C337.24 26.7566 335.999 28.0729 334.389 29.0199C332.789 29.9574 330.885 30.4261 328.679 30.4261ZM328.707 25.7386C329.711 25.7386 330.549 25.4545 331.222 24.8864C331.894 24.3087 332.401 23.5227 332.741 22.5284C333.092 21.5341 333.267 20.4025 333.267 19.1335C333.267 17.8646 333.092 16.733 332.741 15.7386C332.401 14.7443 331.894 13.9583 331.222 13.3807C330.549 12.803 329.711 12.5142 328.707 12.5142C327.694 12.5142 326.842 12.803 326.151 13.3807C325.469 13.9583 324.953 14.7443 324.602 15.7386C324.261 16.733 324.091 17.8646 324.091 19.1335C324.091 20.4025 324.261 21.5341 324.602 22.5284C324.953 23.5227 325.469 24.3087 326.151 24.8864C326.842 25.4545 327.694 25.7386 328.707 25.7386ZM356.537 16.6761V21.4347H345.145V16.6761H356.537ZM347.134 8.18182V30H341.352V8.18182H347.134ZM360.33 8.18182V30H354.591V8.18182H360.33ZM369.246 30.4119C367.854 30.4119 366.613 30.1705 365.524 29.6875C364.435 29.1951 363.573 28.4706 362.939 27.5142C362.314 26.5483 362.001 25.3456 362.001 23.9062C362.001 22.6941 362.224 21.6761 362.669 20.8523C363.114 20.0284 363.72 19.3655 364.487 18.8636C365.254 18.3617 366.125 17.983 367.101 17.7273C368.086 17.4716 369.118 17.2917 370.197 17.1875C371.466 17.0549 372.489 16.9318 373.266 16.8182C374.042 16.6951 374.606 16.5152 374.956 16.2784C375.306 16.0417 375.482 15.6913 375.482 15.2273V15.142C375.482 14.2424 375.197 13.5464 374.629 13.054C374.071 12.5616 373.275 12.3153 372.243 12.3153C371.154 12.3153 370.287 12.5568 369.643 13.0398C369 13.5133 368.573 14.1098 368.365 14.8295L362.768 14.375C363.053 13.0492 363.611 11.9034 364.445 10.9375C365.278 9.96212 366.353 9.21401 367.669 8.69318C368.995 8.16288 370.529 7.89773 372.271 7.89773C373.483 7.89773 374.643 8.03977 375.751 8.32386C376.869 8.60795 377.858 9.0483 378.72 9.64489C379.591 10.2415 380.278 11.0085 380.78 11.946C381.282 12.8741 381.533 13.9867 381.533 15.2841V30H375.794V26.9744H375.624C375.273 27.6562 374.804 28.2576 374.217 28.7784C373.63 29.2898 372.925 29.6922 372.101 29.9858C371.277 30.2699 370.325 30.4119 369.246 30.4119ZM370.979 26.2358C371.869 26.2358 372.655 26.0606 373.337 25.7102C374.018 25.3504 374.554 24.8674 374.942 24.2614C375.33 23.6553 375.524 22.9687 375.524 22.2017V19.8864C375.335 20.0095 375.074 20.1231 374.743 20.2273C374.421 20.322 374.056 20.4119 373.649 20.4972C373.242 20.5729 372.835 20.6439 372.428 20.7102C372.02 20.767 371.651 20.8191 371.32 20.8665C370.609 20.9706 369.989 21.1364 369.459 21.3636C368.929 21.5909 368.517 21.8987 368.223 22.2869C367.929 22.6657 367.783 23.1392 367.783 23.7074C367.783 24.5312 368.081 25.161 368.678 25.5966C369.284 26.0227 370.051 26.2358 370.979 26.2358ZM382.949 30L382.92 25.1989H383.645C384.156 25.1989 384.597 25.0758 384.966 24.8295C385.345 24.5739 385.657 24.1619 385.903 23.5938C386.15 23.0256 386.344 22.2727 386.486 21.3352C386.628 20.3883 386.723 19.2235 386.77 17.8409L387.125 8.18182H403.716V30H397.949V12.9403H392.565L392.224 19.6023C392.139 21.4299 391.917 23.0019 391.557 24.3182C391.206 25.6345 390.719 26.714 390.094 27.5568C389.469 28.3902 388.716 29.0057 387.835 29.4034C386.955 29.8011 385.932 30 384.767 30H382.949Z" fill="#4A4339"/>
</svg>
