<svg width="1004" height="96" viewBox="0 0 1004 96" fill="none" xmlns="http://www.w3.org/2000/svg">
<path d="M20.1278 39L10.7812 26.5994H8.67898V39H2.52841V9.90909H8.67898V21.5284H9.91477L19.5739 9.90909H27.2301L15.8807 23.4034L27.7557 39H20.1278ZM27.4567 39L27.4283 34.1989H28.1527C28.6641 34.1989 29.1044 34.0758 29.4737 33.8295C29.8525 33.5739 30.165 33.1619 30.4112 32.5938C30.6574 32.0256 30.8516 31.2727 30.9936 30.3352C31.1357 29.3883 31.2304 28.2235 31.2777 26.8409L31.6328 17.1818H48.2237V39H42.4567V21.9403H37.0732L36.7322 28.6023C36.647 30.4299 36.4245 32.0019 36.0646 33.3182C35.7143 34.6345 35.2266 35.714 34.6016 36.5568C33.9766 37.3902 33.2237 38.0057 32.343 38.4034C31.4624 38.8011 30.4396 39 29.2749 39H27.4567ZM62.9744 25.804V30.6051H51.142V25.804H62.9744ZM55.8153 17.1818V39H49.7784V17.1818H55.8153ZM69.5085 39.4261C67.3494 39.4261 65.4839 38.9432 63.9119 37.9773C62.34 37.0114 61.1278 35.6761 60.2756 33.9716C59.4328 32.267 59.0114 30.3116 59.0114 28.1051C59.0114 25.8987 59.4328 23.9527 60.2756 22.267C61.1278 20.5814 62.34 19.2652 63.9119 18.3182C65.4839 17.3712 67.3494 16.8977 69.5085 16.8977C71.6771 16.8977 73.5426 17.3712 75.1051 18.3182C76.6771 19.2652 77.8845 20.5814 78.7273 22.267C79.5795 23.9527 80.0057 25.8987 80.0057 28.1051C80.0057 30.3116 79.5795 32.267 78.7273 33.9716C77.8845 35.6761 76.6771 37.0114 75.1051 37.9773C73.5426 38.9432 71.6771 39.4261 69.5085 39.4261ZM69.5085 34.5398C70.6354 34.5398 71.5445 34.2652 72.2358 33.7159C72.9271 33.1572 73.4337 32.3949 73.7557 31.429C74.0777 30.4536 74.2386 29.3456 74.2386 28.1051C74.2386 26.8646 74.0777 25.7661 73.7557 24.8097C73.4337 23.8437 72.9271 23.0862 72.2358 22.5369C71.5445 21.9877 70.6354 21.7131 69.5085 21.7131C68.3911 21.7131 67.482 21.9877 66.7812 22.5369C66.0805 23.0767 65.5644 23.8248 65.233 24.7812C64.911 25.7377 64.75 26.8456 64.75 28.1051C64.75 29.3551 64.911 30.4631 65.233 31.429C65.5644 32.3949 66.0805 33.1572 66.7812 33.7159C67.482 34.2652 68.3911 34.5398 69.5085 34.5398ZM101.053 17.1818V39H95.3139V17.1818H101.053ZM98.2543 26.7557V31.5284C97.7902 31.7367 97.2126 31.9356 96.5213 32.125C95.83 32.3049 95.1056 32.4517 94.348 32.5653C93.5904 32.679 92.8802 32.7358 92.2173 32.7358C89.0829 32.7358 86.616 32.0919 84.8168 30.804C83.0175 29.5066 82.1179 27.4375 82.1179 24.5966V17.1534H87.8281V24.5966C87.8281 25.4394 87.9702 26.107 88.2543 26.5994C88.5478 27.0919 89.0118 27.447 89.6463 27.6648C90.2902 27.8731 91.1473 27.9773 92.2173 27.9773C93.2116 27.9773 94.187 27.8731 95.1435 27.6648C96.0999 27.4564 97.1368 27.1534 98.2543 26.7557ZM113.694 39.4261C111.45 39.4261 109.518 38.9716 107.898 38.0625C106.289 37.1439 105.048 35.8466 104.177 34.1705C103.306 32.4848 102.87 30.4915 102.87 28.1903C102.87 25.946 103.306 23.9763 104.177 22.2812C105.048 20.5862 106.274 19.2652 107.856 18.3182C109.447 17.3712 111.312 16.8977 113.452 16.8977C114.892 16.8977 116.232 17.1297 117.472 17.5938C118.722 18.0483 119.811 18.7348 120.739 19.6534C121.677 20.572 122.406 21.7273 122.927 23.1193C123.448 24.5019 123.708 26.1212 123.708 27.9773V29.6392H105.285V25.8892H118.012C118.012 25.018 117.823 24.2462 117.444 23.5739C117.065 22.9015 116.54 22.3759 115.867 21.9972C115.204 21.6089 114.433 21.4148 113.552 21.4148C112.633 21.4148 111.819 21.6278 111.109 22.054C110.408 22.4706 109.859 23.0341 109.461 23.7443C109.063 24.4451 108.86 25.2263 108.85 26.0881V29.6534C108.85 30.733 109.049 31.6657 109.447 32.4517C109.854 33.2377 110.427 33.8438 111.165 34.2699C111.904 34.696 112.78 34.9091 113.793 34.9091C114.466 34.9091 115.081 34.8144 115.64 34.625C116.199 34.4356 116.677 34.1515 117.075 33.7727C117.472 33.3939 117.775 32.9299 117.984 32.3807L123.58 32.75C123.296 34.0947 122.714 35.2689 121.833 36.2727C120.962 37.267 119.835 38.0436 118.452 38.6023C117.079 39.1515 115.493 39.4261 113.694 39.4261ZM125.657 39V17.1818H134.961C137.65 17.1818 139.776 17.6932 141.339 18.7159C142.901 19.7386 143.683 21.1922 143.683 23.0767C143.683 24.2604 143.242 25.2453 142.362 26.0312C141.481 26.8172 140.259 27.3475 138.697 27.6222C140.004 27.7169 141.116 28.0152 142.035 28.517C142.963 29.0095 143.668 29.6487 144.151 30.4347C144.644 31.2206 144.89 32.0919 144.89 33.0483C144.89 34.2888 144.558 35.3542 143.896 36.2443C143.242 37.1345 142.281 37.8163 141.012 38.2898C139.753 38.7633 138.214 39 136.396 39H125.657ZM131.296 34.4688H136.396C137.238 34.4688 137.897 34.2699 138.37 33.8722C138.853 33.465 139.094 32.911 139.094 32.2102C139.094 31.4337 138.853 30.8229 138.37 30.3778C137.897 29.9328 137.238 29.7102 136.396 29.7102H131.296V34.4688ZM131.296 26.1591H135.089C135.695 26.1591 136.211 26.0739 136.637 25.9034C137.073 25.7235 137.404 25.4678 137.631 25.1364C137.868 24.8049 137.987 24.4119 137.987 23.9574C137.987 23.285 137.717 22.7595 137.177 22.3807C136.637 22.0019 135.898 21.8125 134.961 21.8125H131.296V26.1591ZM150.496 23.8864H157.016C159.905 23.8864 162.158 24.5777 163.778 25.9602C165.397 27.3333 166.207 29.1705 166.207 31.4716C166.207 32.9678 165.842 34.2841 165.113 35.4205C164.384 36.5473 163.333 37.428 161.96 38.0625C160.586 38.6875 158.939 39 157.016 39H146.704V17.1818H152.485V34.2415H157.016C158.03 34.2415 158.863 33.9858 159.516 33.4744C160.17 32.9631 160.501 32.3097 160.511 31.5142C160.501 30.6714 160.17 29.9848 159.516 29.4545C158.863 28.9148 158.03 28.6449 157.016 28.6449H150.496V23.8864ZM168.55 39V17.1818H174.602V39H168.55ZM187.381 39.4261C185.137 39.4261 183.205 38.9716 181.586 38.0625C179.976 37.1439 178.736 35.8466 177.864 34.1705C176.993 32.4848 176.558 30.4915 176.558 28.1903C176.558 25.946 176.993 23.9763 177.864 22.2812C178.736 20.5862 179.962 19.2652 181.543 18.3182C183.134 17.3712 185 16.8977 187.14 16.8977C188.579 16.8977 189.919 17.1297 191.16 17.5938C192.41 18.0483 193.499 18.7348 194.427 19.6534C195.364 20.572 196.094 21.7273 196.614 23.1193C197.135 24.5019 197.396 26.1212 197.396 27.9773V29.6392H178.972V25.8892H191.7C191.7 25.018 191.51 24.2462 191.131 23.5739C190.753 22.9015 190.227 22.3759 189.555 21.9972C188.892 21.6089 188.12 21.4148 187.239 21.4148C186.321 21.4148 185.506 21.6278 184.796 22.054C184.095 22.4706 183.546 23.0341 183.148 23.7443C182.751 24.4451 182.547 25.2263 182.538 26.0881V29.6534C182.538 30.733 182.737 31.6657 183.134 32.4517C183.541 33.2377 184.114 33.8438 184.853 34.2699C185.592 34.696 186.468 34.9091 187.481 34.9091C188.153 34.9091 188.769 34.8144 189.327 34.625C189.886 34.4356 190.364 34.1515 190.762 33.7727C191.16 33.3939 191.463 32.9299 191.671 32.3807L197.268 32.75C196.984 34.0947 196.401 35.2689 195.521 36.2727C194.649 37.267 193.522 38.0436 192.14 38.6023C190.767 39.1515 189.181 39.4261 187.381 39.4261ZM2.41477 87V65.1818H21.4915V87H15.7102V69.9403H8.125V87H2.41477ZM24.321 95.1818V65.1818H30.2869V68.8466H30.5568C30.822 68.2595 31.2055 67.6629 31.7074 67.0568C32.2188 66.4413 32.8816 65.9299 33.696 65.5227C34.5199 65.1061 35.5426 64.8977 36.7642 64.8977C38.3551 64.8977 39.8229 65.3144 41.1676 66.1477C42.5123 66.9716 43.5871 68.2169 44.392 69.8835C45.197 71.5407 45.5994 73.6193 45.5994 76.1193C45.5994 78.553 45.2064 80.608 44.4205 82.2841C43.6439 83.9508 42.5833 85.215 41.2386 86.0767C39.9034 86.929 38.4072 87.3551 36.75 87.3551C35.5758 87.3551 34.5767 87.161 33.7528 86.7727C32.9384 86.3845 32.2708 85.8968 31.75 85.3097C31.2292 84.7131 30.8314 84.1117 30.5568 83.5057H30.3722V95.1818H24.321ZM30.2443 76.0909C30.2443 77.3883 30.4242 78.5199 30.7841 79.4858C31.1439 80.4517 31.6648 81.2045 32.3466 81.7443C33.0284 82.2746 33.857 82.5398 34.8324 82.5398C35.8172 82.5398 36.6506 82.2699 37.3324 81.7301C38.0142 81.1809 38.5303 80.4233 38.8807 79.4574C39.2405 78.482 39.4205 77.3598 39.4205 76.0909C39.4205 74.8314 39.2453 73.7235 38.8949 72.767C38.5445 71.8106 38.0284 71.0625 37.3466 70.5227C36.6648 69.983 35.8267 69.7131 34.8324 69.7131C33.8475 69.7131 33.0142 69.9735 32.3324 70.4943C31.66 71.0152 31.1439 71.7538 30.7841 72.7102C30.4242 73.6667 30.2443 74.7936 30.2443 76.0909ZM57.5767 87.4261C55.3324 87.4261 53.4006 86.9716 51.7812 86.0625C50.1714 85.1439 48.9309 83.8466 48.0597 82.1705C47.1884 80.4848 46.7528 78.4915 46.7528 76.1903C46.7528 73.946 47.1884 71.9763 48.0597 70.2812C48.9309 68.5862 50.1572 67.2652 51.7386 66.3182C53.3295 65.3712 55.1951 64.8977 57.3352 64.8977C58.7746 64.8977 60.1146 65.1297 61.3551 65.5938C62.6051 66.0483 63.6941 66.7348 64.6222 67.6534C65.5597 68.572 66.2888 69.7273 66.8097 71.1193C67.3305 72.5019 67.5909 74.1212 67.5909 75.9773V77.6392H49.1676V73.8892H61.8949C61.8949 73.018 61.7055 72.2462 61.3267 71.5739C60.9479 70.9015 60.4223 70.3759 59.75 69.9972C59.0871 69.6089 58.3153 69.4148 57.4347 69.4148C56.5161 69.4148 55.7017 69.6278 54.9915 70.054C54.2907 70.4706 53.7415 71.0341 53.3438 71.7443C52.946 72.4451 52.7424 73.2263 52.733 74.0881V77.6534C52.733 78.733 52.9318 79.6657 53.3295 80.4517C53.7367 81.2377 54.3097 81.8438 55.0483 82.2699C55.7869 82.696 56.6629 82.9091 57.6761 82.9091C58.3485 82.9091 58.964 82.8144 59.5227 82.625C60.0814 82.4356 60.5597 82.1515 60.9574 81.7727C61.3551 81.3939 61.6581 80.9299 61.8665 80.3807L67.4631 80.75C67.179 82.0947 66.5966 83.2689 65.7159 84.2727C64.8447 85.267 63.7178 86.0436 62.3352 86.6023C60.9621 87.1515 59.3759 87.4261 57.5767 87.4261ZM75.321 79.017L83.1761 65.1818H89.142V87H83.375V73.1222L75.5483 87H69.5398V65.1818H75.321V79.017ZM104.891 80.3097L110.8 65.1818H115.402L106.893 87H102.874L94.5639 65.1818H99.152L104.891 80.3097ZM97.7741 65.1818V87H91.9929V65.1818H97.7741ZM112.305 87V65.1818H118.016V87H112.305ZM123.651 95.1818C122.884 95.1818 122.164 95.1203 121.491 94.9972C120.829 94.8835 120.279 94.7367 119.844 94.5568L121.207 90.0398C121.918 90.2576 122.557 90.3759 123.125 90.3949C123.703 90.4138 124.2 90.2813 124.616 89.9972C125.043 89.7131 125.388 89.2301 125.653 88.5483L126.009 87.625L118.182 65.1818H124.545L129.062 81.2045H129.29L133.849 65.1818H140.256L131.776 89.358C131.368 90.5322 130.814 91.5549 130.114 92.4261C129.422 93.3068 128.546 93.9839 127.486 94.4574C126.425 94.9403 125.147 95.1818 123.651 95.1818ZM175.628 82.2415L175.202 93.25H169.648V87H167.219V82.2415H175.628ZM141.352 65.1818H147.134V82.1989H153.284V65.1818H159.065V82.1989H165.216V65.1818H170.997V87H141.352V65.1818ZM186.952 87.4261C184.707 87.4261 182.776 86.9716 181.156 86.0625C179.546 85.1439 178.306 83.8466 177.435 82.1705C176.563 80.4848 176.128 78.4915 176.128 76.1903C176.128 73.946 176.563 71.9763 177.435 70.2812C178.306 68.5862 179.532 67.2652 181.114 66.3182C182.705 65.3712 184.57 64.8977 186.71 64.8977C188.15 64.8977 189.49 65.1297 190.73 65.5938C191.98 66.0483 193.069 66.7348 193.997 67.6534C194.935 68.572 195.664 69.7273 196.185 71.1193C196.705 72.5019 196.966 74.1212 196.966 75.9773V77.6392H178.543V73.8892H191.27C191.27 73.018 191.08 72.2462 190.702 71.5739C190.323 70.9015 189.797 70.3759 189.125 69.9972C188.462 69.6089 187.69 69.4148 186.81 69.4148C185.891 69.4148 185.077 69.6278 184.366 70.054C183.666 70.4706 183.116 71.0341 182.719 71.7443C182.321 72.4451 182.117 73.2263 182.108 74.0881V77.6534C182.108 78.733 182.307 79.6657 182.705 80.4517C183.112 81.2377 183.685 81.8438 184.423 82.2699C185.162 82.696 186.038 82.9091 187.051 82.9091C187.723 82.9091 188.339 82.8144 188.898 82.625C189.456 82.4356 189.935 82.1515 190.332 81.7727C190.73 81.3939 191.033 80.9299 191.241 80.3807L196.838 80.75C196.554 82.0947 195.972 83.2689 195.091 84.2727C194.22 85.267 193.093 86.0436 191.71 86.6023C190.337 87.1515 188.751 87.4261 186.952 87.4261ZM208.773 87.4261C206.538 87.4261 204.616 86.9527 203.006 86.0057C201.405 85.0492 200.174 83.7235 199.312 82.0284C198.46 80.3333 198.034 78.3826 198.034 76.1761C198.034 73.9413 198.465 71.9811 199.327 70.2955C200.198 68.6004 201.434 67.2794 203.034 66.3324C204.634 65.3759 206.538 64.8977 208.744 64.8977C210.648 64.8977 212.314 65.2434 213.744 65.9347C215.174 66.6259 216.306 67.5966 217.139 68.8466C217.973 70.0966 218.432 71.5644 218.517 73.25H212.807C212.646 72.161 212.22 71.285 211.528 70.6222C210.847 69.9498 209.952 69.6136 208.844 69.6136C207.906 69.6136 207.087 69.8693 206.386 70.3807C205.695 70.8826 205.155 71.6165 204.767 72.5824C204.379 73.5483 204.185 74.7178 204.185 76.0909C204.185 77.483 204.374 78.6667 204.753 79.642C205.141 80.6174 205.686 81.3608 206.386 81.8722C207.087 82.3835 207.906 82.6392 208.844 82.6392C209.535 82.6392 210.155 82.4972 210.705 82.2131C211.263 81.929 211.723 81.517 212.082 80.9773C212.452 80.428 212.693 79.7699 212.807 79.0028H218.517C218.422 80.6695 217.968 82.1373 217.153 83.4062C216.348 84.6657 215.236 85.6506 213.815 86.3608C212.395 87.071 210.714 87.4261 208.773 87.4261ZM218.903 69.9403V65.1818H238.676V69.9403H231.645V87H225.878V69.9403H218.903ZM240.344 87V65.1818H249.648C252.338 65.1818 254.464 65.6932 256.026 66.7159C257.589 67.7386 258.37 69.1922 258.37 71.0767C258.37 72.2604 257.93 73.2453 257.049 74.0312C256.168 74.8172 254.947 75.3475 253.384 75.6222C254.691 75.7169 255.804 76.0152 256.722 76.517C257.65 77.0095 258.356 77.6487 258.839 78.4347C259.331 79.2206 259.577 80.0919 259.577 81.0483C259.577 82.2888 259.246 83.3542 258.583 84.2443C257.93 85.1345 256.969 85.8163 255.7 86.2898C254.44 86.7633 252.901 87 251.083 87H240.344ZM245.984 82.4688H251.083C251.926 82.4688 252.584 82.2699 253.058 81.8722C253.54 81.465 253.782 80.911 253.782 80.2102C253.782 79.4337 253.54 78.8229 253.058 78.3778C252.584 77.9328 251.926 77.7102 251.083 77.7102H245.984V82.4688ZM245.984 74.1591H249.776C250.382 74.1591 250.898 74.0739 251.325 73.9034C251.76 73.7235 252.092 73.4678 252.319 73.1364C252.556 72.8049 252.674 72.4119 252.674 71.9574C252.674 71.285 252.404 70.7595 251.864 70.3807C251.325 70.0019 250.586 69.8125 249.648 69.8125H245.984V74.1591ZM267.613 87.4119C266.221 87.4119 264.98 87.1705 263.891 86.6875C262.802 86.1951 261.941 85.4706 261.306 84.5142C260.681 83.5483 260.369 82.3456 260.369 80.9062C260.369 79.6941 260.591 78.6761 261.036 77.8523C261.481 77.0284 262.087 76.3655 262.854 75.8636C263.621 75.3617 264.493 74.983 265.468 74.7273C266.453 74.4716 267.485 74.2917 268.565 74.1875C269.834 74.0549 270.856 73.9318 271.633 73.8182C272.409 73.6951 272.973 73.5152 273.323 73.2784C273.674 73.0417 273.849 72.6913 273.849 72.2273V72.142C273.849 71.2424 273.565 70.5464 272.996 70.054C272.438 69.5616 271.642 69.3153 270.61 69.3153C269.521 69.3153 268.655 69.5568 268.011 70.0398C267.367 70.5133 266.941 71.1098 266.732 71.8295L261.136 71.375C261.42 70.0492 261.978 68.9034 262.812 67.9375C263.645 66.9621 264.72 66.214 266.036 65.6932C267.362 65.1629 268.896 64.8977 270.638 64.8977C271.851 64.8977 273.011 65.0398 274.119 65.3239C275.236 65.608 276.226 66.0483 277.087 66.6449C277.959 67.2415 278.645 68.0085 279.147 68.946C279.649 69.8741 279.9 70.9867 279.9 72.2841V87H274.161V83.9744H273.991C273.64 84.6562 273.172 85.2576 272.585 85.7784C271.997 86.2898 271.292 86.6922 270.468 86.9858C269.644 87.2699 268.692 87.4119 267.613 87.4119ZM269.346 83.2358C270.236 83.2358 271.022 83.0606 271.704 82.7102C272.386 82.3504 272.921 81.8674 273.309 81.2614C273.697 80.6553 273.891 79.9687 273.891 79.2017V76.8864C273.702 77.0095 273.442 77.1231 273.11 77.2273C272.788 77.322 272.424 77.4119 272.016 77.4972C271.609 77.5729 271.202 77.6439 270.795 77.7102C270.388 77.767 270.018 77.8191 269.687 77.8665C268.977 77.9706 268.356 78.1364 267.826 78.3636C267.296 78.5909 266.884 78.8987 266.59 79.2869C266.297 79.6657 266.15 80.1392 266.15 80.7074C266.15 81.5312 266.448 82.161 267.045 82.5966C267.651 83.0227 268.418 83.2358 269.346 83.2358Z" fill="#4A4339"/>
<path d="M471.761 19V4.45455H476.676C477.817 4.45455 478.75 4.66051 479.474 5.07244C480.204 5.47964 480.743 6.03125 481.094 6.72727C481.444 7.4233 481.619 8.19981 481.619 9.05682C481.619 9.91383 481.444 10.6927 481.094 11.3935C480.748 12.0942 480.213 12.6529 479.489 13.0696C478.764 13.4815 477.836 13.6875 476.705 13.6875H473.182V12.125H476.648C477.429 12.125 478.056 11.9901 478.53 11.7202C479.003 11.4503 479.347 11.0857 479.56 10.6264C479.777 10.1624 479.886 9.6392 479.886 9.05682C479.886 8.47443 479.777 7.9536 479.56 7.49432C479.347 7.03504 479.001 6.67519 478.523 6.41477C478.045 6.14962 477.41 6.01705 476.619 6.01705H473.523V19H471.761ZM486.44 19.2557C485.748 19.2557 485.121 19.1255 484.558 18.8651C483.994 18.5999 483.547 18.2188 483.215 17.7216C482.884 17.2197 482.718 16.6136 482.718 15.9034C482.718 15.2784 482.841 14.7718 483.087 14.3835C483.334 13.9905 483.663 13.6828 484.075 13.4602C484.487 13.2377 484.941 13.072 485.438 12.9631C485.94 12.8494 486.444 12.7595 486.951 12.6932C487.614 12.608 488.151 12.544 488.563 12.5014C488.98 12.4541 489.283 12.3759 489.472 12.267C489.666 12.1581 489.763 11.9687 489.763 11.6989V11.642C489.763 10.9413 489.572 10.3968 489.188 10.0085C488.809 9.62027 488.234 9.42614 487.462 9.42614C486.662 9.42614 486.035 9.60133 485.58 9.9517C485.126 10.3021 484.806 10.6761 484.621 11.0739L483.031 10.5057C483.315 9.8428 483.693 9.3267 484.167 8.95739C484.645 8.58333 485.166 8.32292 485.729 8.17614C486.298 8.02462 486.856 7.94886 487.406 7.94886C487.756 7.94886 488.158 7.99148 488.613 8.0767C489.072 8.1572 489.515 8.32528 489.941 8.58097C490.372 8.83665 490.729 9.22254 491.013 9.73864C491.298 10.2547 491.44 10.946 491.44 11.8125V19H489.763V17.5227H489.678C489.565 17.7595 489.375 18.0128 489.11 18.2827C488.845 18.5526 488.492 18.7822 488.052 18.9716C487.612 19.161 487.074 19.2557 486.44 19.2557ZM486.695 17.75C487.358 17.75 487.917 17.6198 488.371 17.3594C488.831 17.099 489.176 16.7628 489.408 16.3509C489.645 15.9389 489.763 15.5057 489.763 15.0511V13.517C489.692 13.6023 489.536 13.6804 489.295 13.7514C489.058 13.8177 488.783 13.8769 488.471 13.929C488.163 13.9763 487.862 14.0189 487.569 14.0568C487.28 14.09 487.046 14.1184 486.866 14.142C486.43 14.1989 486.023 14.2912 485.644 14.419C485.27 14.5421 484.967 14.7292 484.735 14.9801C484.508 15.2263 484.394 15.5625 484.394 15.9886C484.394 16.571 484.61 17.0114 485.04 17.3097C485.476 17.6032 486.028 17.75 486.695 17.75ZM501.596 4L502.448 5.02273C502.116 5.3447 501.733 5.5696 501.297 5.69744C500.862 5.82528 500.369 5.90341 499.82 5.93182C499.271 5.96023 498.66 5.98864 497.988 6.01705C497.23 6.04545 496.603 6.23011 496.105 6.57102C495.608 6.91193 495.225 7.40436 494.955 8.0483C494.685 8.69223 494.512 9.48295 494.436 10.4205H494.578C494.948 9.73864 495.459 9.23674 496.113 8.91477C496.766 8.5928 497.467 8.43182 498.215 8.43182C499.067 8.43182 499.834 8.63068 500.516 9.02841C501.198 9.42614 501.738 10.0156 502.135 10.7969C502.533 11.5781 502.732 12.5417 502.732 13.6875C502.732 14.8286 502.528 15.8134 502.121 16.642C501.719 17.4706 501.153 18.1098 500.424 18.5597C499.699 19.0047 498.849 19.2273 497.874 19.2273C496.899 19.2273 496.044 18.9976 495.31 18.5384C494.576 18.0743 494.006 17.3878 493.598 16.4787C493.191 15.5649 492.988 14.4356 492.988 13.0909V11.9261C492.988 9.49716 493.4 7.6553 494.223 6.40057C495.052 5.14583 496.297 4.49716 497.959 4.45455C498.546 4.43561 499.069 4.43087 499.529 4.44034C499.988 4.44981 500.388 4.4285 500.729 4.37642C501.07 4.32434 501.359 4.19886 501.596 4ZM497.874 17.7216C498.532 17.7216 499.098 17.5559 499.571 17.2244C500.05 16.893 500.417 16.4266 500.672 15.8253C500.928 15.2192 501.056 14.5066 501.056 13.6875C501.056 12.892 500.926 12.215 500.665 11.6562C500.409 11.0975 500.042 10.6714 499.564 10.3778C499.086 10.0843 498.513 9.9375 497.846 9.9375C497.358 9.9375 496.92 10.0204 496.532 10.1861C496.143 10.3518 495.812 10.5956 495.537 10.9176C495.263 11.2396 495.05 11.6326 494.898 12.0966C494.751 12.5606 494.673 13.0909 494.664 13.6875C494.664 14.9091 494.95 15.8868 495.523 16.6207C496.096 17.3546 496.88 17.7216 497.874 17.7216ZM508.728 19.2273C507.743 19.2273 506.879 18.9929 506.135 18.5241C505.397 18.0554 504.819 17.3996 504.402 16.5568C503.99 15.714 503.784 14.7292 503.784 13.6023C503.784 12.4659 503.99 11.474 504.402 10.6264C504.819 9.77888 505.397 9.12074 506.135 8.65199C506.879 8.18324 507.743 7.94886 508.728 7.94886C509.712 7.94886 510.574 8.18324 511.313 8.65199C512.056 9.12074 512.634 9.77888 513.046 10.6264C513.462 11.474 513.671 12.4659 513.671 13.6023C513.671 14.7292 513.462 15.714 513.046 16.5568C512.634 17.3996 512.056 18.0554 511.313 18.5241C510.574 18.9929 509.712 19.2273 508.728 19.2273ZM508.728 17.7216C509.476 17.7216 510.091 17.5298 510.574 17.1463C511.057 16.7628 511.415 16.2585 511.647 15.6335C511.879 15.0085 511.995 14.3314 511.995 13.6023C511.995 12.8731 511.879 12.1937 511.647 11.5639C511.415 10.9342 511.057 10.4252 510.574 10.0369C510.091 9.64867 509.476 9.45455 508.728 9.45455C507.98 9.45455 507.364 9.64867 506.881 10.0369C506.398 10.4252 506.041 10.9342 505.809 11.5639C505.577 12.1937 505.461 12.8731 505.461 13.6023C505.461 14.3314 505.577 15.0085 505.809 15.6335C506.041 16.2585 506.398 16.7628 506.881 17.1463C507.364 17.5298 507.98 17.7216 508.728 17.7216ZM513.804 9.65341V8.09091H522.667V9.65341H519.088V19H517.412V9.65341H513.804ZM526.756 19.2557C526.065 19.2557 525.437 19.1255 524.874 18.8651C524.31 18.5999 523.863 18.2188 523.532 17.7216C523.2 17.2197 523.034 16.6136 523.034 15.9034C523.034 15.2784 523.158 14.7718 523.404 14.3835C523.65 13.9905 523.979 13.6828 524.391 13.4602C524.803 13.2377 525.257 13.072 525.755 12.9631C526.257 12.8494 526.761 12.7595 527.267 12.6932C527.93 12.608 528.468 12.544 528.88 12.5014C529.296 12.4541 529.599 12.3759 529.789 12.267C529.983 12.1581 530.08 11.9687 530.08 11.6989V11.642C530.08 10.9413 529.888 10.3968 529.505 10.0085C529.126 9.62027 528.551 9.42614 527.779 9.42614C526.979 9.42614 526.351 9.60133 525.897 9.9517C525.442 10.3021 525.123 10.6761 524.938 11.0739L523.347 10.5057C523.631 9.8428 524.01 9.3267 524.483 8.95739C524.962 8.58333 525.482 8.32292 526.046 8.17614C526.614 8.02462 527.173 7.94886 527.722 7.94886C528.072 7.94886 528.475 7.99148 528.929 8.0767C529.389 8.1572 529.831 8.32528 530.257 8.58097C530.688 8.83665 531.046 9.22254 531.33 9.73864C531.614 10.2547 531.756 10.946 531.756 11.8125V19H530.08V17.5227H529.995C529.881 17.7595 529.692 18.0128 529.426 18.2827C529.161 18.5526 528.809 18.7822 528.368 18.9716C527.928 19.161 527.391 19.2557 526.756 19.2557ZM527.012 17.75C527.675 17.75 528.233 17.6198 528.688 17.3594C529.147 17.099 529.493 16.7628 529.725 16.3509C529.962 15.9389 530.08 15.5057 530.08 15.0511V13.517C530.009 13.6023 529.853 13.6804 529.611 13.7514C529.374 13.8177 529.1 13.8769 528.787 13.929C528.48 13.9763 528.179 14.0189 527.885 14.0568C527.596 14.09 527.362 14.1184 527.182 14.142C526.747 14.1989 526.339 14.2912 525.961 14.419C525.587 14.5421 525.283 14.7292 525.051 14.9801C524.824 15.2263 524.711 15.5625 524.711 15.9886C524.711 16.571 524.926 17.0114 525.357 17.3097C525.792 17.6032 526.344 17.75 527.012 17.75ZM538.389 19.2273C537.338 19.2273 536.431 18.9953 535.669 18.5312C534.911 18.0625 534.327 17.4091 533.915 16.571C533.508 15.7282 533.304 14.7481 533.304 13.6307C533.304 12.5133 533.508 11.5284 533.915 10.6761C534.327 9.81913 534.9 9.15152 535.634 8.6733C536.372 8.19034 537.234 7.94886 538.219 7.94886C538.787 7.94886 539.348 8.04356 539.902 8.23295C540.456 8.42235 540.96 8.73011 541.415 9.15625C541.869 9.57765 542.232 10.1364 542.501 10.8324C542.771 11.5284 542.906 12.3854 542.906 13.4034V14.1136H534.497V12.6648H541.202C541.202 12.0492 541.079 11.5 540.832 11.017C540.591 10.5341 540.245 10.1529 539.795 9.87358C539.35 9.59422 538.825 9.45455 538.219 9.45455C537.551 9.45455 536.973 9.62026 536.486 9.9517C536.003 10.2784 535.631 10.7045 535.371 11.2301C535.11 11.7557 534.98 12.3191 534.98 12.9205V13.8864C534.98 14.7102 535.122 15.4086 535.406 15.9815C535.695 16.5497 536.095 16.983 536.607 17.2812C537.118 17.5748 537.712 17.7216 538.389 17.7216C538.83 17.7216 539.227 17.66 539.582 17.5369C539.942 17.4091 540.252 17.2197 540.513 16.9688C540.773 16.7131 540.974 16.3958 541.116 16.017L542.736 16.4716C542.565 17.0208 542.279 17.5038 541.876 17.9205C541.474 18.3324 540.977 18.6544 540.385 18.8864C539.793 19.1136 539.128 19.2273 538.389 19.2273ZM550.422 16.7273L554.229 8.09091H555.82L551.104 19H549.74L545.109 8.09091H546.672L550.422 16.7273ZM546.132 8.09091V19H544.456V8.09091H546.132ZM554.712 19V8.09091H556.388V19H554.712ZM570.382 12.7784V14.3409H564.359V12.7784H570.382ZM564.757 8.09091V19H563.081V8.09091H564.757ZM571.661 8.09091V19H569.984V8.09091H571.661ZM576.932 19.2557C576.241 19.2557 575.613 19.1255 575.05 18.8651C574.486 18.5999 574.039 18.2188 573.707 17.7216C573.376 17.2197 573.21 16.6136 573.21 15.9034C573.21 15.2784 573.333 14.7718 573.58 14.3835C573.826 13.9905 574.155 13.6828 574.567 13.4602C574.979 13.2377 575.433 13.072 575.93 12.9631C576.432 12.8494 576.937 12.7595 577.443 12.6932C578.106 12.608 578.643 12.544 579.055 12.5014C579.472 12.4541 579.775 12.3759 579.964 12.267C580.159 12.1581 580.256 11.9687 580.256 11.6989V11.642C580.256 10.9413 580.064 10.3968 579.68 10.0085C579.302 9.62027 578.726 9.42614 577.955 9.42614C577.154 9.42614 576.527 9.60133 576.072 9.9517C575.618 10.3021 575.298 10.6761 575.114 11.0739L573.523 10.5057C573.807 9.8428 574.186 9.3267 574.659 8.95739C575.137 8.58333 575.658 8.32292 576.222 8.17614C576.79 8.02462 577.348 7.94886 577.898 7.94886C578.248 7.94886 578.651 7.99148 579.105 8.0767C579.564 8.1572 580.007 8.32528 580.433 8.58097C580.864 8.83665 581.222 9.22254 581.506 9.73864C581.79 10.2547 581.932 10.946 581.932 11.8125V19H580.256V17.5227H580.17C580.057 17.7595 579.867 18.0128 579.602 18.2827C579.337 18.5526 578.984 18.7822 578.544 18.9716C578.104 19.161 577.566 19.2557 576.932 19.2557ZM577.188 17.75C577.85 17.75 578.409 17.6198 578.864 17.3594C579.323 17.099 579.669 16.7628 579.901 16.3509C580.137 15.9389 580.256 15.5057 580.256 15.0511V13.517C580.185 13.6023 580.028 13.6804 579.787 13.7514C579.55 13.8177 579.276 13.8769 578.963 13.929C578.655 13.9763 578.355 14.0189 578.061 14.0568C577.772 14.09 577.538 14.1184 577.358 14.142C576.922 14.1989 576.515 14.2912 576.136 14.419C575.762 14.5421 575.459 14.7292 575.227 14.9801C575 15.2263 574.886 15.5625 574.886 15.9886C574.886 16.571 575.102 17.0114 575.533 17.3097C575.968 17.6032 576.52 17.75 577.188 17.75ZM582.826 22.125V17.4375H583.735C583.958 17.2055 584.15 16.9545 584.311 16.6847C584.472 16.4148 584.611 16.0952 584.73 15.7259C584.853 15.3518 584.957 14.8973 585.042 14.3622C585.127 13.8224 585.203 13.1714 585.27 12.4091L585.639 8.09091H592.571V17.4375H594.247V22.125H592.571V19H584.502V22.125H582.826ZM585.639 17.4375H590.895V9.65341H587.201L586.917 12.4091C586.799 13.5502 586.652 14.5469 586.477 15.3991C586.302 16.2514 586.022 16.9309 585.639 17.4375ZM599.472 9.65341V8.09091H608.335V9.65341H604.756V19H603.08V9.65341H599.472ZM613.788 19.2273C612.737 19.2273 611.83 18.9953 611.067 18.5312C610.31 18.0625 609.725 17.4091 609.313 16.571C608.906 15.7282 608.702 14.7481 608.702 13.6307C608.702 12.5133 608.906 11.5284 609.313 10.6761C609.725 9.81913 610.298 9.15152 611.032 8.6733C611.771 8.19034 612.632 7.94886 613.617 7.94886C614.185 7.94886 614.746 8.04356 615.3 8.23295C615.854 8.42235 616.359 8.73011 616.813 9.15625C617.268 9.57765 617.63 10.1364 617.9 10.8324C618.17 11.5284 618.305 12.3854 618.305 13.4034V14.1136H609.896V12.6648H616.6C616.6 12.0492 616.477 11.5 616.231 11.017C615.989 10.5341 615.644 10.1529 615.194 9.87358C614.749 9.59422 614.223 9.45455 613.617 9.45455C612.95 9.45455 612.372 9.62026 611.884 9.9517C611.401 10.2784 611.03 10.7045 610.769 11.2301C610.509 11.7557 610.379 12.3191 610.379 12.9205V13.8864C610.379 14.7102 610.521 15.4086 610.805 15.9815C611.094 16.5497 611.494 16.983 612.005 17.2812C612.516 17.5748 613.111 17.7216 613.788 17.7216C614.228 17.7216 614.626 17.66 614.981 17.5369C615.341 17.4091 615.651 17.2197 615.911 16.9688C616.172 16.7131 616.373 16.3958 616.515 16.017L618.134 16.4716C617.964 17.0208 617.677 17.5038 617.275 17.9205C616.872 18.3324 616.375 18.6544 615.783 18.8864C615.192 19.1136 614.526 19.2273 613.788 19.2273ZM625.82 16.7273L629.627 8.09091H631.218L626.502 19H625.138L620.508 8.09091H622.07L625.82 16.7273ZM621.531 8.09091V19H619.854V8.09091H621.531ZM630.11 19V8.09091H631.786V19H630.11ZM636.354 17.0114L636.241 17.7784C636.16 18.3182 636.037 18.8958 635.871 19.5114C635.71 20.1269 635.542 20.7069 635.367 21.2514C635.192 21.7959 635.048 22.2292 634.934 22.5511H633.656C633.717 22.2481 633.798 21.848 633.897 21.3509C633.996 20.8537 634.096 20.2973 634.195 19.6818C634.299 19.071 634.385 18.446 634.451 17.8068L634.536 17.0114H636.354ZM651.494 8.09091V19H649.818V8.09091H651.494ZM650.841 13.2898V14.8523C650.462 14.9943 650.085 15.1198 649.711 15.2287C649.337 15.3329 648.944 15.4157 648.532 15.4773C648.12 15.5341 647.668 15.5625 647.176 15.5625C645.94 15.5625 644.948 15.2287 644.2 14.5611C643.457 13.8935 643.085 12.892 643.085 11.5568V8.0625H644.761V11.5568C644.761 12.1155 644.868 12.5748 645.081 12.9347C645.294 13.2945 645.583 13.562 645.947 13.7372C646.312 13.9124 646.721 14 647.176 14C647.886 14 648.528 13.9361 649.1 13.8082C649.678 13.6757 650.258 13.5028 650.841 13.2898ZM652.085 9.65341V8.09091H660.949V9.65341H657.369V19H655.693V9.65341H652.085ZM666.259 19.2273C665.274 19.2273 664.41 18.9929 663.667 18.5241C662.928 18.0554 662.35 17.3996 661.934 16.5568C661.522 15.714 661.316 14.7292 661.316 13.6023C661.316 12.4659 661.522 11.474 661.934 10.6264C662.35 9.77888 662.928 9.12074 663.667 8.65199C664.41 8.18324 665.274 7.94886 666.259 7.94886C667.244 7.94886 668.105 8.18324 668.844 8.65199C669.587 9.12074 670.165 9.77888 670.577 10.6264C670.994 11.474 671.202 12.4659 671.202 13.6023C671.202 14.7292 670.994 15.714 670.577 16.5568C670.165 17.3996 669.587 18.0554 668.844 18.5241C668.105 18.9929 667.244 19.2273 666.259 19.2273ZM666.259 17.7216C667.007 17.7216 667.623 17.5298 668.105 17.1463C668.588 16.7628 668.946 16.2585 669.178 15.6335C669.41 15.0085 669.526 14.3314 669.526 13.6023C669.526 12.8731 669.41 12.1937 669.178 11.5639C668.946 10.9342 668.588 10.4252 668.105 10.0369C667.623 9.64867 667.007 9.45455 666.259 9.45455C665.511 9.45455 664.895 9.64867 664.412 10.0369C663.929 10.4252 663.572 10.9342 663.34 11.5639C663.108 12.1937 662.992 12.8731 662.992 13.6023C662.992 14.3314 663.108 15.0085 663.34 15.6335C663.572 16.2585 663.929 16.7628 664.412 17.1463C664.895 17.5298 665.511 17.7216 666.259 17.7216ZM680.857 4L681.71 5.02273C681.378 5.3447 680.995 5.5696 680.559 5.69744C680.123 5.82528 679.631 5.90341 679.082 5.93182C678.532 5.96023 677.922 5.98864 677.249 6.01705C676.492 6.04545 675.864 6.23011 675.367 6.57102C674.87 6.91193 674.487 7.40436 674.217 8.0483C673.947 8.69223 673.774 9.48295 673.698 10.4205H673.84C674.21 9.73864 674.721 9.23674 675.374 8.91477C676.028 8.5928 676.728 8.43182 677.477 8.43182C678.329 8.43182 679.096 8.63068 679.778 9.02841C680.46 9.42614 680.999 10.0156 681.397 10.7969C681.795 11.5781 681.994 12.5417 681.994 13.6875C681.994 14.8286 681.79 15.8134 681.383 16.642C680.98 17.4706 680.415 18.1098 679.685 18.5597C678.961 19.0047 678.111 19.2273 677.136 19.2273C676.16 19.2273 675.306 18.9976 674.572 18.5384C673.838 18.0743 673.267 17.3878 672.86 16.4787C672.453 15.5649 672.249 14.4356 672.249 13.0909V11.9261C672.249 9.49716 672.661 7.6553 673.485 6.40057C674.314 5.14583 675.559 4.49716 677.221 4.45455C677.808 4.43561 678.331 4.43087 678.79 4.44034C679.25 4.44981 679.65 4.4285 679.991 4.37642C680.332 4.32434 680.621 4.19886 680.857 4ZM677.136 17.7216C677.794 17.7216 678.36 17.5559 678.833 17.2244C679.311 16.893 679.678 16.4266 679.934 15.8253C680.19 15.2192 680.317 14.5066 680.317 13.6875C680.317 12.892 680.187 12.215 679.927 11.6562C679.671 11.0975 679.304 10.6714 678.826 10.3778C678.348 10.0843 677.775 9.9375 677.107 9.9375C676.62 9.9375 676.182 10.0204 675.793 10.1861C675.405 10.3518 675.074 10.5956 674.799 10.9176C674.524 11.2396 674.311 11.6326 674.16 12.0966C674.013 12.5606 673.935 13.0909 673.925 13.6875C673.925 14.9091 674.212 15.8868 674.785 16.6207C675.358 17.3546 676.141 17.7216 677.136 17.7216ZM685.006 12.0398H688.131C689.41 12.0398 690.388 12.3641 691.065 13.0128C691.742 13.6615 692.08 14.483 692.08 15.4773C692.08 16.1307 691.929 16.7249 691.626 17.2599C691.323 17.7902 690.878 18.214 690.29 18.5312C689.703 18.8438 688.984 19 688.131 19H683.558V8.09091H685.234V17.4375H688.131C688.794 17.4375 689.339 17.2623 689.765 16.9119C690.191 16.5616 690.404 16.1117 690.404 15.5625C690.404 14.9848 690.191 14.5137 689.765 14.1491C689.339 13.7846 688.794 13.6023 688.131 13.6023H685.006V12.0398ZM693.813 19V8.09091H695.489V19H693.813ZM702.183 19V8.09091H710.762V19H709.086V9.65341H703.859V19H702.183ZM717.255 19.2273C716.27 19.2273 715.406 18.9929 714.663 18.5241C713.924 18.0554 713.346 17.3996 712.93 16.5568C712.518 15.714 712.312 14.7292 712.312 13.6023C712.312 12.4659 712.518 11.474 712.93 10.6264C713.346 9.77888 713.924 9.12074 714.663 8.65199C715.406 8.18324 716.27 7.94886 717.255 7.94886C718.24 7.94886 719.102 8.18324 719.84 8.65199C720.584 9.12074 721.161 9.77888 721.573 10.6264C721.99 11.474 722.198 12.4659 722.198 13.6023C722.198 14.7292 721.99 15.714 721.573 16.5568C721.161 17.3996 720.584 18.0554 719.84 18.5241C719.102 18.9929 718.24 19.2273 717.255 19.2273ZM717.255 17.7216C718.003 17.7216 718.619 17.5298 719.102 17.1463C719.585 16.7628 719.942 16.2585 720.174 15.6335C720.406 15.0085 720.522 14.3314 720.522 13.6023C720.522 12.8731 720.406 12.1937 720.174 11.5639C719.942 10.9342 719.585 10.4252 719.102 10.0369C718.619 9.64867 718.003 9.45455 717.255 9.45455C716.507 9.45455 715.891 9.64867 715.408 10.0369C714.925 10.4252 714.568 10.9342 714.336 11.5639C714.104 12.1937 713.988 12.8731 713.988 13.6023C713.988 14.3314 714.104 15.0085 714.336 15.6335C714.568 16.2585 714.925 16.7628 715.408 17.1463C715.891 17.5298 716.507 17.7216 717.255 17.7216ZM723.757 19V8.09091H728.217C729.391 8.09091 730.324 8.35606 731.015 8.88636C731.707 9.41667 732.052 10.1174 732.052 10.9886C732.052 11.6515 731.856 12.1652 731.463 12.5298C731.07 12.8897 730.565 13.1335 729.95 13.2614C730.352 13.3182 730.743 13.4602 731.122 13.6875C731.505 13.9148 731.823 14.2273 732.074 14.625C732.324 15.018 732.45 15.5009 732.45 16.0739C732.45 16.6326 732.308 17.1321 732.024 17.5724C731.74 18.0128 731.333 18.3608 730.802 18.6165C730.272 18.8722 729.637 19 728.899 19H723.757ZM725.348 17.4659H728.899C729.476 17.4659 729.929 17.3286 730.255 17.054C730.582 16.7794 730.745 16.4053 730.745 15.9318C730.745 15.3684 730.582 14.9257 730.255 14.6037C729.929 14.277 729.476 14.1136 728.899 14.1136H725.348V17.4659ZM725.348 12.6648H728.217C728.667 12.6648 729.053 12.6032 729.375 12.4801C729.697 12.3523 729.943 12.1723 730.113 11.9403C730.288 11.7036 730.376 11.4242 730.376 11.1023C730.376 10.643 730.184 10.2831 729.801 10.0227C729.417 9.75758 728.889 9.625 728.217 9.625H725.348V12.6648ZM735.436 12.0398H738.561C739.839 12.0398 740.817 12.3641 741.494 13.0128C742.171 13.6615 742.51 14.483 742.51 15.4773C742.51 16.1307 742.358 16.7249 742.055 17.2599C741.752 17.7902 741.307 18.214 740.72 18.5312C740.133 18.8438 739.413 19 738.561 19H733.987V8.09091H735.663V17.4375H738.561C739.224 17.4375 739.768 17.2623 740.195 16.9119C740.621 16.5616 740.834 16.1117 740.834 15.5625C740.834 14.9848 740.621 14.5137 740.195 14.1491C739.768 13.7846 739.224 13.6023 738.561 13.6023H735.436V12.0398ZM744.243 19V8.09091H745.919V19H744.243ZM752.419 19.2273C751.396 19.2273 750.516 18.9858 749.777 18.5028C749.038 18.0199 748.47 17.3546 748.072 16.5071C747.675 15.6596 747.476 14.6913 747.476 13.6023C747.476 12.4943 747.679 11.5166 748.087 10.669C748.499 9.81676 749.071 9.15152 749.805 8.6733C750.544 8.19034 751.406 7.94886 752.391 7.94886C753.158 7.94886 753.849 8.09091 754.464 8.375C755.08 8.65909 755.584 9.05682 755.977 9.56818C756.37 10.0795 756.614 10.6761 756.709 11.358H755.033C754.905 10.8608 754.621 10.4205 754.18 10.0369C753.745 9.64867 753.158 9.45455 752.419 9.45455C751.766 9.45455 751.193 9.625 750.7 9.96591C750.213 10.3021 749.831 10.7779 749.557 11.3935C749.287 12.0043 749.152 12.7216 749.152 13.5455C749.152 14.3883 749.285 15.1222 749.55 15.7472C749.82 16.3722 750.198 16.8575 750.686 17.2031C751.179 17.5488 751.756 17.7216 752.419 17.7216C752.855 17.7216 753.25 17.6458 753.605 17.4943C753.96 17.3428 754.261 17.125 754.507 16.8409C754.753 16.5568 754.929 16.2159 755.033 15.8182H756.709C756.614 16.4621 756.38 17.0421 756.006 17.5582C755.636 18.0696 755.146 18.4768 754.536 18.7798C753.929 19.0781 753.224 19.2273 752.419 19.2273ZM759.835 16.5284L765.091 8.09091H767.023V19H765.347V10.5625L760.119 19H758.159V8.09091H759.835V16.5284ZM767.608 9.65341V8.09091H776.472V9.65341H772.892V19H771.216V9.65341H767.608ZM779.366 12.0398H782.491C783.769 12.0398 784.747 12.3641 785.424 13.0128C786.101 13.6615 786.44 14.483 786.44 15.4773C786.44 16.1307 786.288 16.7249 785.985 17.2599C785.682 17.7902 785.237 18.214 784.65 18.5312C784.063 18.8438 783.343 19 782.491 19H777.917V8.09091H779.593V17.4375H782.491C783.154 17.4375 783.698 17.2623 784.124 16.9119C784.55 16.5616 784.763 16.1117 784.763 15.5625C784.763 14.9848 784.55 14.5137 784.124 14.1491C783.698 13.7846 783.154 13.6023 782.491 13.6023H779.366V12.0398ZM791.451 22.125V17.4375H792.36C792.583 17.2055 792.775 16.9545 792.936 16.6847C793.097 16.4148 793.236 16.0952 793.355 15.7259C793.478 15.3518 793.582 14.8973 793.667 14.3622C793.752 13.8224 793.828 13.1714 793.895 12.4091L794.264 8.09091H801.196V17.4375H802.872V22.125H801.196V19H793.127V22.125H791.451ZM794.264 17.4375H799.52V9.65341H795.826L795.542 12.4091C795.424 13.5502 795.277 14.5469 795.102 15.3991C794.927 16.2514 794.647 16.9309 794.264 17.4375ZM808.528 19.2273C807.544 19.2273 806.679 18.9929 805.936 18.5241C805.197 18.0554 804.62 17.3996 804.203 16.5568C803.791 15.714 803.585 14.7292 803.585 13.6023C803.585 12.4659 803.791 11.474 804.203 10.6264C804.62 9.77888 805.197 9.12074 805.936 8.65199C806.679 8.18324 807.544 7.94886 808.528 7.94886C809.513 7.94886 810.375 8.18324 811.114 8.65199C811.857 9.12074 812.435 9.77888 812.847 10.6264C813.263 11.474 813.472 12.4659 813.472 13.6023C813.472 14.7292 813.263 15.714 812.847 16.5568C812.435 17.3996 811.857 18.0554 811.114 18.5241C810.375 18.9929 809.513 19.2273 808.528 19.2273ZM808.528 17.7216C809.277 17.7216 809.892 17.5298 810.375 17.1463C810.858 16.7628 811.215 16.2585 811.447 15.6335C811.679 15.0085 811.795 14.3314 811.795 13.6023C811.795 12.8731 811.679 12.1937 811.447 11.5639C811.215 10.9342 810.858 10.4252 810.375 10.0369C809.892 9.64867 809.277 9.45455 808.528 9.45455C807.78 9.45455 807.165 9.64867 806.682 10.0369C806.199 10.4252 805.841 10.9342 805.609 11.5639C805.377 12.1937 805.261 12.8731 805.261 13.6023C805.261 14.3314 805.377 15.0085 805.609 15.6335C805.841 16.2585 806.199 16.7628 806.682 17.1463C807.165 17.5298 807.78 17.7216 808.528 17.7216ZM815.831 8.09091L818.445 12.5511L821.058 8.09091H822.99L819.467 13.5455L822.99 19H821.058L818.445 14.767L815.831 19H813.899L817.365 13.5455L813.899 8.09091H815.831ZM828.364 19.2273C827.379 19.2273 826.515 18.9929 825.772 18.5241C825.033 18.0554 824.456 17.3996 824.039 16.5568C823.627 15.714 823.421 14.7292 823.421 13.6023C823.421 12.4659 823.627 11.474 824.039 10.6264C824.456 9.77888 825.033 9.12074 825.772 8.65199C826.515 8.18324 827.379 7.94886 828.364 7.94886C829.349 7.94886 830.211 8.18324 830.95 8.65199C831.693 9.12074 832.271 9.77888 832.683 10.6264C833.099 11.474 833.308 12.4659 833.308 13.6023C833.308 14.7292 833.099 15.714 832.683 16.5568C832.271 17.3996 831.693 18.0554 830.95 18.5241C830.211 18.9929 829.349 19.2273 828.364 19.2273ZM828.364 17.7216C829.112 17.7216 829.728 17.5298 830.211 17.1463C830.694 16.7628 831.051 16.2585 831.283 15.6335C831.515 15.0085 831.631 14.3314 831.631 13.6023C831.631 12.8731 831.515 12.1937 831.283 11.5639C831.051 10.9342 830.694 10.4252 830.211 10.0369C829.728 9.64867 829.112 9.45455 828.364 9.45455C827.616 9.45455 827.001 9.64867 826.518 10.0369C826.035 10.4252 825.677 10.9342 825.445 11.5639C825.213 12.1937 825.097 12.8731 825.097 13.6023C825.097 14.3314 825.213 15.0085 825.445 15.6335C825.677 16.2585 826.035 16.7628 826.518 17.1463C827.001 17.5298 827.616 17.7216 828.364 17.7216ZM833.701 22.125V17.4375H834.61C834.833 17.2055 835.025 16.9545 835.186 16.6847C835.347 16.4148 835.486 16.0952 835.605 15.7259C835.728 15.3518 835.832 14.8973 835.917 14.3622C836.002 13.8224 836.078 13.1714 836.145 12.4091L836.514 8.09091H843.446V17.4375H845.122V22.125H843.446V19H835.377V22.125H833.701ZM836.514 17.4375H841.77V9.65341H838.076L837.792 12.4091C837.674 13.5502 837.527 14.5469 837.352 15.3991C837.177 16.2514 836.897 16.9309 836.514 17.4375ZM853.648 12.7784V14.3409H847.625V12.7784H853.648ZM848.023 8.09091V19H846.347V8.09091H848.023ZM854.926 8.09091V19H853.25V8.09091H854.926ZM861.419 19.2273C860.434 19.2273 859.57 18.9929 858.827 18.5241C858.088 18.0554 857.51 17.3996 857.094 16.5568C856.682 15.714 856.476 14.7292 856.476 13.6023C856.476 12.4659 856.682 11.474 857.094 10.6264C857.51 9.77888 858.088 9.12074 858.827 8.65199C859.57 8.18324 860.434 7.94886 861.419 7.94886C862.404 7.94886 863.266 8.18324 864.004 8.65199C864.748 9.12074 865.325 9.77888 865.737 10.6264C866.154 11.474 866.362 12.4659 866.362 13.6023C866.362 14.7292 866.154 15.714 865.737 16.5568C865.325 17.3996 864.748 18.0554 864.004 18.5241C863.266 18.9929 862.404 19.2273 861.419 19.2273ZM861.419 17.7216C862.167 17.7216 862.783 17.5298 863.266 17.1463C863.749 16.7628 864.106 16.2585 864.338 15.6335C864.57 15.0085 864.686 14.3314 864.686 13.6023C864.686 12.8731 864.57 12.1937 864.338 11.5639C864.106 10.9342 863.749 10.4252 863.266 10.0369C862.783 9.64867 862.167 9.45455 861.419 9.45455C860.671 9.45455 860.055 9.64867 859.572 10.0369C859.089 10.4252 858.732 10.9342 858.5 11.5639C858.268 12.1937 858.152 12.8731 858.152 13.6023C858.152 14.3314 858.268 15.0085 858.5 15.6335C858.732 16.2585 859.089 16.7628 859.572 17.1463C860.055 17.5298 860.671 17.7216 861.419 17.7216ZM872.353 19.2273C871.33 19.2273 870.449 18.9858 869.711 18.5028C868.972 18.0199 868.404 17.3546 868.006 16.5071C867.608 15.6596 867.409 14.6913 867.409 13.6023C867.409 12.4943 867.613 11.5166 868.02 10.669C868.432 9.81676 869.005 9.15152 869.739 8.6733C870.478 8.19034 871.339 7.94886 872.324 7.94886C873.091 7.94886 873.783 8.09091 874.398 8.375C875.014 8.65909 875.518 9.05682 875.911 9.56818C876.304 10.0795 876.548 10.6761 876.642 11.358H874.966C874.838 10.8608 874.554 10.4205 874.114 10.0369C873.678 9.64867 873.091 9.45455 872.353 9.45455C871.699 9.45455 871.126 9.625 870.634 9.96591C870.146 10.3021 869.765 10.7779 869.49 11.3935C869.221 12.0043 869.086 12.7216 869.086 13.5455C869.086 14.3883 869.218 15.1222 869.483 15.7472C869.753 16.3722 870.132 16.8575 870.62 17.2031C871.112 17.5488 871.69 17.7216 872.353 17.7216C872.788 17.7216 873.184 17.6458 873.539 17.4943C873.894 17.3428 874.194 17.125 874.441 16.8409C874.687 16.5568 874.862 16.2159 874.966 15.8182H876.642C876.548 16.4621 876.313 17.0421 875.939 17.5582C875.57 18.0696 875.08 18.4768 874.469 18.7798C873.863 19.0781 873.158 19.2273 872.353 19.2273ZM877.233 9.65341V8.09091H886.097V9.65341H882.517V19H880.841V9.65341H877.233ZM888.991 12.0398H892.116C893.394 12.0398 894.372 12.3641 895.049 13.0128C895.726 13.6615 896.065 14.483 896.065 15.4773C896.065 16.1307 895.913 16.7249 895.61 17.2599C895.307 17.7902 894.862 18.214 894.275 18.5312C893.688 18.8438 892.968 19 892.116 19H887.542V8.09091H889.218V17.4375H892.116C892.779 17.4375 893.323 17.2623 893.749 16.9119C894.175 16.5616 894.388 16.1117 894.388 15.5625C894.388 14.9848 894.175 14.5137 893.749 14.1491C893.323 13.7846 892.779 13.6023 892.116 13.6023H888.991V12.0398ZM906.673 22.7216V4.45455H908.349V22.7216H906.673ZM906.673 19.2273C905.934 19.2273 905.262 19.0947 904.656 18.8295C904.05 18.5597 903.529 18.1785 903.093 17.6861C902.658 17.1889 902.322 16.5947 902.085 15.9034C901.848 15.2121 901.73 14.4451 901.73 13.6023C901.73 12.75 901.848 11.9782 902.085 11.2869C902.322 10.5909 902.658 9.99432 903.093 9.49716C903.529 9 904.05 8.61884 904.656 8.35369C905.262 8.08381 905.934 7.94886 906.673 7.94886H907.184V19.2273H906.673ZM906.673 17.7216H906.957V9.45455H906.673C906.114 9.45455 905.629 9.56818 905.217 9.79545C904.805 10.018 904.464 10.3234 904.194 10.7116C903.929 11.0952 903.73 11.5355 903.598 12.0327C903.47 12.5298 903.406 13.053 903.406 13.6023C903.406 14.3314 903.522 15.0085 903.754 15.6335C903.986 16.2585 904.343 16.7628 904.826 17.1463C905.309 17.5298 905.925 17.7216 906.673 17.7216ZM908.349 19.2273H907.838V7.94886H908.349C909.088 7.94886 909.76 8.08381 910.366 8.35369C910.972 8.61884 911.493 9 911.929 9.49716C912.364 9.99432 912.7 10.5909 912.937 11.2869C913.174 11.9782 913.292 12.75 913.292 13.6023C913.292 14.4451 913.174 15.2121 912.937 15.9034C912.7 16.5947 912.364 17.1889 911.929 17.6861C911.493 18.1785 910.972 18.5597 910.366 18.8295C909.76 19.0947 909.088 19.2273 908.349 19.2273ZM908.349 17.7216C908.913 17.7216 909.398 17.6127 909.805 17.3949C910.217 17.1723 910.556 16.8693 910.821 16.4858C911.091 16.0975 911.289 15.6572 911.417 15.1648C911.55 14.6676 911.616 14.1468 911.616 13.6023C911.616 12.8731 911.5 12.1937 911.268 11.5639C911.036 10.9342 910.679 10.4252 910.196 10.0369C909.713 9.64867 909.097 9.45455 908.349 9.45455H908.065V17.7216H908.349ZM919.428 19.2273C918.377 19.2273 917.47 18.9953 916.708 18.5312C915.951 18.0625 915.366 17.4091 914.954 16.571C914.547 15.7282 914.343 14.7481 914.343 13.6307C914.343 12.5133 914.547 11.5284 914.954 10.6761C915.366 9.81913 915.939 9.15152 916.673 8.6733C917.411 8.19034 918.273 7.94886 919.258 7.94886C919.826 7.94886 920.387 8.04356 920.941 8.23295C921.495 8.42235 921.999 8.73011 922.454 9.15625C922.908 9.57765 923.271 10.1364 923.54 10.8324C923.81 11.5284 923.945 12.3854 923.945 13.4034V14.1136H915.536V12.6648H922.241C922.241 12.0492 922.118 11.5 921.871 11.017C921.63 10.5341 921.284 10.1529 920.835 9.87358C920.389 9.59422 919.864 9.45455 919.258 9.45455C918.59 9.45455 918.013 9.62026 917.525 9.9517C917.042 10.2784 916.67 10.7045 916.41 11.2301C916.149 11.7557 916.019 12.3191 916.019 12.9205V13.8864C916.019 14.7102 916.161 15.4086 916.445 15.9815C916.734 16.5497 917.134 16.983 917.646 17.2812C918.157 17.5748 918.751 17.7216 919.428 17.7216C919.869 17.7216 920.266 17.66 920.621 17.5369C920.981 17.4091 921.291 17.2197 921.552 16.9688C921.812 16.7131 922.013 16.3958 922.156 16.017L923.775 16.4716C923.604 17.0208 923.318 17.5038 922.915 17.9205C922.513 18.3324 922.016 18.6544 921.424 18.8864C920.832 19.1136 920.167 19.2273 919.428 19.2273ZM925.495 23.0909V8.09091H927.114V9.82386H927.313C927.436 9.63447 927.607 9.39299 927.825 9.09943C928.047 8.80114 928.364 8.53598 928.776 8.30398C929.193 8.06723 929.756 7.94886 930.467 7.94886C931.385 7.94886 932.195 8.1785 932.896 8.63778C933.596 9.09706 934.143 9.74811 934.536 10.5909C934.929 11.4337 935.126 12.428 935.126 13.5739C935.126 14.7292 934.929 15.7306 934.536 16.5781C934.143 17.4209 933.599 18.0743 932.903 18.5384C932.207 18.9976 931.404 19.2273 930.495 19.2273C929.794 19.2273 929.233 19.1113 928.812 18.8793C928.39 18.6425 928.066 18.375 927.839 18.0767C927.612 17.7737 927.436 17.5227 927.313 17.3239H927.171V23.0909H925.495ZM927.143 13.5455C927.143 14.3693 927.263 15.0961 927.505 15.7259C927.746 16.3509 928.099 16.8409 928.563 17.196C929.027 17.5464 929.595 17.7216 930.268 17.7216C930.969 17.7216 931.553 17.5369 932.022 17.1676C932.496 16.7936 932.851 16.2917 933.087 15.6619C933.329 15.0275 933.45 14.322 933.45 13.5455C933.45 12.7784 933.331 12.0871 933.094 11.4716C932.862 10.8513 932.51 10.3613 932.036 10.0014C931.567 9.63684 930.978 9.45455 930.268 9.45455C929.586 9.45455 929.013 9.62737 928.549 9.97301C928.085 10.3139 927.735 10.7921 927.498 11.4077C927.261 12.0185 927.143 12.7311 927.143 13.5455ZM942.648 16.7273L946.455 8.09091H948.046L943.33 19H941.967L937.336 8.09091H938.898L942.648 16.7273ZM938.359 8.09091V19H936.683V8.09091H938.359ZM946.938 19V8.09091H948.614V19H946.938ZM955.256 19.2273C954.205 19.2273 953.299 18.9953 952.536 18.5312C951.779 18.0625 951.194 17.4091 950.782 16.571C950.375 15.7282 950.171 14.7481 950.171 13.6307C950.171 12.5133 950.375 11.5284 950.782 10.6761C951.194 9.81913 951.767 9.15152 952.501 8.6733C953.239 8.19034 954.101 7.94886 955.086 7.94886C955.654 7.94886 956.215 8.04356 956.769 8.23295C957.323 8.42235 957.827 8.73011 958.282 9.15625C958.737 9.57765 959.099 10.1364 959.369 10.8324C959.638 11.5284 959.773 12.3854 959.773 13.4034V14.1136H951.364V12.6648H958.069C958.069 12.0492 957.946 11.5 957.7 11.017C957.458 10.5341 957.112 10.1529 956.663 9.87358C956.218 9.59422 955.692 9.45455 955.086 9.45455C954.418 9.45455 953.841 9.62026 953.353 9.9517C952.87 10.2784 952.498 10.7045 952.238 11.2301C951.978 11.7557 951.847 12.3191 951.847 12.9205V13.8864C951.847 14.7102 951.989 15.4086 952.273 15.9815C952.562 16.5497 952.962 16.983 953.474 17.2812C953.985 17.5748 954.579 17.7216 955.256 17.7216C955.697 17.7216 956.094 17.66 956.45 17.5369C956.809 17.4091 957.12 17.2197 957.38 16.9688C957.64 16.7131 957.842 16.3958 957.984 16.017L959.603 16.4716C959.433 17.0208 959.146 17.5038 958.744 17.9205C958.341 18.3324 957.844 18.6544 957.252 18.8864C956.66 19.1136 955.995 19.2273 955.256 19.2273ZM961.323 23.0909V8.09091H962.942V9.82386H963.141C963.264 9.63447 963.435 9.39299 963.653 9.09943C963.875 8.80114 964.192 8.53598 964.604 8.30398C965.021 8.06723 965.585 7.94886 966.295 7.94886C967.213 7.94886 968.023 8.1785 968.724 8.63778C969.424 9.09706 969.971 9.74811 970.364 10.5909C970.757 11.4337 970.954 12.428 970.954 13.5739C970.954 14.7292 970.757 15.7306 970.364 16.5781C969.971 17.4209 969.427 18.0743 968.731 18.5384C968.035 18.9976 967.232 19.2273 966.323 19.2273C965.622 19.2273 965.061 19.1113 964.64 18.8793C964.219 18.6425 963.894 18.375 963.667 18.0767C963.44 17.7737 963.264 17.5227 963.141 17.3239H962.999V23.0909H961.323ZM962.971 13.5455C962.971 14.3693 963.092 15.0961 963.333 15.7259C963.575 16.3509 963.927 16.8409 964.391 17.196C964.855 17.5464 965.424 17.7216 966.096 17.7216C966.797 17.7216 967.381 17.5369 967.85 17.1676C968.324 16.7936 968.679 16.2917 968.915 15.6619C969.157 15.0275 969.278 14.322 969.278 13.5455C969.278 12.7784 969.159 12.0871 968.923 11.4716C968.691 10.8513 968.338 10.3613 967.864 10.0014C967.396 9.63684 966.806 9.45455 966.096 9.45455C965.414 9.45455 964.841 9.62737 964.377 9.97301C963.913 10.3139 963.563 10.7921 963.326 11.4077C963.089 12.0185 962.971 12.7311 962.971 13.5455ZM976.942 19.2273C975.958 19.2273 975.094 18.9929 974.35 18.5241C973.612 18.0554 973.034 17.3996 972.617 16.5568C972.205 15.714 971.999 14.7292 971.999 13.6023C971.999 12.4659 972.205 11.474 972.617 10.6264C973.034 9.77888 973.612 9.12074 974.35 8.65199C975.094 8.18324 975.958 7.94886 976.942 7.94886C977.927 7.94886 978.789 8.18324 979.528 8.65199C980.271 9.12074 980.849 9.77888 981.261 10.6264C981.677 11.474 981.886 12.4659 981.886 13.6023C981.886 14.7292 981.677 15.714 981.261 16.5568C980.849 17.3996 980.271 18.0554 979.528 18.5241C978.789 18.9929 977.927 19.2273 976.942 19.2273ZM976.942 17.7216C977.691 17.7216 978.306 17.5298 978.789 17.1463C979.272 16.7628 979.629 16.2585 979.862 15.6335C980.094 15.0085 980.21 14.3314 980.21 13.6023C980.21 12.8731 980.094 12.1937 979.862 11.5639C979.629 10.9342 979.272 10.4252 978.789 10.0369C978.306 9.64867 977.691 9.45455 976.942 9.45455C976.194 9.45455 975.579 9.64867 975.096 10.0369C974.613 10.4252 974.255 10.9342 974.023 11.5639C973.791 12.1937 973.675 12.8731 973.675 13.6023C973.675 14.3314 973.791 15.0085 974.023 15.6335C974.255 16.2585 974.613 16.7628 975.096 17.1463C975.579 17.5298 976.194 17.7216 976.942 17.7216ZM983.444 19V8.09091H987.904C989.079 8.09091 990.011 8.35606 990.703 8.88636C991.394 9.41667 991.74 10.1174 991.74 10.9886C991.74 11.6515 991.543 12.1652 991.15 12.5298C990.757 12.8897 990.253 13.1335 989.637 13.2614C990.04 13.3182 990.431 13.4602 990.809 13.6875C991.193 13.9148 991.51 14.2273 991.761 14.625C992.012 15.018 992.137 15.5009 992.137 16.0739C992.137 16.6326 991.995 17.1321 991.711 17.5724C991.427 18.0128 991.02 18.3608 990.49 18.6165C989.959 18.8722 989.325 19 988.586 19H983.444ZM985.035 17.4659H988.586C989.164 17.4659 989.616 17.3286 989.943 17.054C990.27 16.7794 990.433 16.4053 990.433 15.9318C990.433 15.3684 990.27 14.9257 989.943 14.6037C989.616 14.277 989.164 14.1136 988.586 14.1136H985.035V17.4659ZM985.035 12.6648H987.904C988.354 12.6648 988.74 12.6032 989.062 12.4801C989.384 12.3523 989.63 12.1723 989.801 11.9403C989.976 11.7036 990.064 11.4242 990.064 11.1023C990.064 10.643 989.872 10.2831 989.488 10.0227C989.105 9.75758 988.577 9.625 987.904 9.625H985.035V12.6648ZM996.175 17.0114L996.061 17.7784C995.981 18.3182 995.857 18.8958 995.692 19.5114C995.531 20.1269 995.363 20.7069 995.188 21.2514C995.012 21.7959 994.868 22.2292 994.754 22.5511H993.476C993.537 22.2481 993.618 21.848 993.717 21.3509C993.817 20.8537 993.916 20.2973 994.016 19.6818C994.12 19.071 994.205 18.446 994.271 17.8068L994.357 17.0114H996.175ZM475.966 43.2273C474.943 43.2273 474.063 42.9858 473.324 42.5028C472.585 42.0199 472.017 41.3546 471.619 40.5071C471.222 39.6596 471.023 38.6913 471.023 37.6023C471.023 36.4943 471.226 35.5166 471.634 34.669C472.045 33.8168 472.618 33.1515 473.352 32.6733C474.091 32.1903 474.953 31.9489 475.938 31.9489C476.705 31.9489 477.396 32.0909 478.011 32.375C478.627 32.6591 479.131 33.0568 479.524 33.5682C479.917 34.0795 480.161 34.6761 480.256 35.358H478.58C478.452 34.8608 478.168 34.4205 477.727 34.0369C477.292 33.6487 476.705 33.4545 475.966 33.4545C475.313 33.4545 474.74 33.625 474.247 33.9659C473.759 34.3021 473.378 34.7779 473.104 35.3935C472.834 36.0043 472.699 36.7216 472.699 37.5455C472.699 38.3883 472.831 39.1222 473.097 39.7472C473.366 40.3722 473.745 40.8575 474.233 41.2031C474.725 41.5488 475.303 41.7216 475.966 41.7216C476.402 41.7216 476.797 41.6458 477.152 41.4943C477.507 41.3428 477.808 41.125 478.054 40.8409C478.3 40.5568 478.475 40.2159 478.58 39.8182H480.256C480.161 40.4621 479.927 41.0421 479.553 41.5582C479.183 42.0696 478.693 42.4768 478.082 42.7798C477.476 43.0781 476.771 43.2273 475.966 43.2273ZM486.138 43.2273C485.153 43.2273 484.289 42.9929 483.545 42.5241C482.807 42.0554 482.229 41.3996 481.812 40.5568C481.401 39.714 481.195 38.7292 481.195 37.6023C481.195 36.4659 481.401 35.474 481.812 34.6264C482.229 33.7789 482.807 33.1207 483.545 32.652C484.289 32.1832 485.153 31.9489 486.138 31.9489C487.123 31.9489 487.984 32.1832 488.723 32.652C489.466 33.1207 490.044 33.7789 490.456 34.6264C490.873 35.474 491.081 36.4659 491.081 37.6023C491.081 38.7292 490.873 39.714 490.456 40.5568C490.044 41.3996 489.466 42.0554 488.723 42.5241C487.984 42.9929 487.123 43.2273 486.138 43.2273ZM486.138 41.7216C486.886 41.7216 487.501 41.5298 487.984 41.1463C488.467 40.7628 488.825 40.2585 489.057 39.6335C489.289 39.0085 489.405 38.3314 489.405 37.6023C489.405 36.8731 489.289 36.1937 489.057 35.5639C488.825 34.9342 488.467 34.4252 487.984 34.0369C487.501 33.6487 486.886 33.4545 486.138 33.4545C485.39 33.4545 484.774 33.6487 484.291 34.0369C483.808 34.4252 483.451 34.9342 483.219 35.5639C482.987 36.1937 482.871 36.8731 482.871 37.6023C482.871 38.3314 482.987 39.0085 483.219 39.6335C483.451 40.2585 483.808 40.7628 484.291 41.1463C484.774 41.5298 485.39 41.7216 486.138 41.7216ZM491.958 40.2159H493.748C493.785 40.7083 494.008 41.0824 494.415 41.3381C494.827 41.5938 495.362 41.7216 496.02 41.7216C496.693 41.7216 497.268 41.5843 497.746 41.3097C498.224 41.0303 498.463 40.5805 498.463 39.9602C498.463 39.5956 498.373 39.2784 498.194 39.0085C498.014 38.7339 497.76 38.5208 497.434 38.3693C497.107 38.2178 496.721 38.142 496.276 38.142H494.401V36.6364H496.276C496.944 36.6364 497.436 36.4848 497.753 36.1818C498.075 35.8788 498.236 35.5 498.236 35.0455C498.236 34.5578 498.063 34.1671 497.718 33.8736C497.372 33.5753 496.882 33.4261 496.248 33.4261C495.608 33.4261 495.076 33.5705 494.65 33.8594C494.223 34.1435 493.998 34.5104 493.975 34.9602H492.213C492.232 34.3731 492.412 33.8546 492.753 33.4048C493.094 32.9503 493.558 32.5952 494.145 32.3395C494.732 32.0791 495.405 31.9489 496.162 31.9489C496.929 31.9489 497.595 32.0838 498.158 32.3537C498.726 32.6188 499.164 32.9811 499.472 33.4403C499.784 33.8949 499.941 34.411 499.941 34.9886C499.941 35.6042 499.768 36.1013 499.422 36.4801C499.077 36.8589 498.643 37.1288 498.123 37.2898V37.4034C498.534 37.4318 498.892 37.5644 499.195 37.8011C499.503 38.0331 499.742 38.3385 499.912 38.7173C500.083 39.0914 500.168 39.5057 500.168 39.9602C500.168 40.6231 499.99 41.2008 499.635 41.6932C499.28 42.1809 498.792 42.5597 498.172 42.8295C497.552 43.0947 496.844 43.2273 496.049 43.2273C495.277 43.2273 494.586 43.1018 493.975 42.8509C493.364 42.5952 492.879 42.2424 492.519 41.7926C492.164 41.3381 491.977 40.8125 491.958 40.2159ZM500.358 46.125V41.4375H501.267C501.489 41.2055 501.681 40.9545 501.842 40.6847C502.003 40.4148 502.143 40.0952 502.261 39.7259C502.384 39.3518 502.488 38.8973 502.574 38.3622C502.659 37.8224 502.734 37.1714 502.801 36.4091L503.17 32.0909H510.102V41.4375H511.778V46.125H510.102V43H502.034V46.125H500.358ZM503.17 41.4375H508.426V33.6534H504.733L504.449 36.4091C504.33 37.5502 504.183 38.5469 504.008 39.3991C503.833 40.2514 503.554 40.9309 503.17 41.4375ZM516.213 43.2557C515.522 43.2557 514.894 43.1255 514.331 42.8651C513.768 42.5999 513.32 42.2188 512.989 41.7216C512.657 41.2197 512.491 40.6136 512.491 39.9034C512.491 39.2784 512.615 38.7718 512.861 38.3835C513.107 37.9905 513.436 37.6828 513.848 37.4602C514.26 37.2377 514.714 37.072 515.212 36.9631C515.714 36.8494 516.218 36.7595 516.724 36.6932C517.387 36.608 517.925 36.544 518.337 36.5014C518.753 36.4541 519.056 36.3759 519.246 36.267C519.44 36.1581 519.537 35.9687 519.537 35.6989V35.642C519.537 34.9413 519.345 34.3968 518.962 34.0085C518.583 33.6203 518.008 33.4261 517.236 33.4261C516.436 33.4261 515.808 33.6013 515.354 33.9517C514.899 34.3021 514.58 34.6761 514.395 35.0739L512.804 34.5057C513.088 33.8428 513.467 33.3267 513.94 32.9574C514.419 32.5833 514.939 32.3229 515.503 32.1761C516.071 32.0246 516.63 31.9489 517.179 31.9489C517.529 31.9489 517.932 31.9915 518.386 32.0767C518.846 32.1572 519.288 32.3253 519.714 32.581C520.145 32.8366 520.503 33.2225 520.787 33.7386C521.071 34.2547 521.213 34.946 521.213 35.8125V43H519.537V41.5227H519.452C519.338 41.7595 519.149 42.0128 518.884 42.2827C518.618 42.5526 518.266 42.7822 517.825 42.9716C517.385 43.161 516.848 43.2557 516.213 43.2557ZM516.469 41.75C517.132 41.75 517.69 41.6198 518.145 41.3594C518.604 41.099 518.95 40.7628 519.182 40.3509C519.419 39.9389 519.537 39.5057 519.537 39.0511V37.517C519.466 37.6023 519.31 37.6804 519.068 37.7514C518.831 37.8177 518.557 37.8769 518.244 37.929C517.937 37.9763 517.636 38.0189 517.342 38.0568C517.054 38.09 516.819 38.1184 516.639 38.142C516.204 38.1989 515.796 38.2912 515.418 38.419C515.044 38.5421 514.741 38.7292 514.509 38.9801C514.281 39.2263 514.168 39.5625 514.168 39.9886C514.168 40.571 514.383 41.0114 514.814 41.3097C515.25 41.6032 515.801 41.75 516.469 41.75ZM523.272 43V32.0909H527.733C528.907 32.0909 529.84 32.3561 530.531 32.8864C531.222 33.4167 531.568 34.1174 531.568 34.9886C531.568 35.6515 531.371 36.1652 530.978 36.5298C530.585 36.8897 530.081 37.1335 529.466 37.2614C529.868 37.3182 530.259 37.4602 530.637 37.6875C531.021 37.9148 531.338 38.2273 531.589 38.625C531.84 39.018 531.966 39.5009 531.966 40.0739C531.966 40.6326 531.824 41.1321 531.539 41.5724C531.255 42.0128 530.848 42.3608 530.318 42.6165C529.788 42.8722 529.153 43 528.414 43H523.272ZM524.863 41.4659H528.414C528.992 41.4659 529.444 41.3286 529.771 41.054C530.098 40.7794 530.261 40.4053 530.261 39.9318C530.261 39.3684 530.098 38.9257 529.771 38.6037C529.444 38.277 528.992 38.1136 528.414 38.1136H524.863V41.4659ZM524.863 36.6648H527.733C528.182 36.6648 528.568 36.6032 528.89 36.4801C529.212 36.3523 529.458 36.1723 529.629 35.9403C529.804 35.7036 529.892 35.4242 529.892 35.1023C529.892 34.643 529.7 34.2831 529.316 34.0227C528.933 33.7576 528.405 33.625 527.733 33.625H524.863V36.6648ZM536.713 43.2557C536.022 43.2557 535.394 43.1255 534.831 42.8651C534.268 42.5999 533.82 42.2188 533.489 41.7216C533.157 41.2197 532.991 40.6136 532.991 39.9034C532.991 39.2784 533.115 38.7718 533.361 38.3835C533.607 37.9905 533.936 37.6828 534.348 37.4602C534.76 37.2377 535.214 37.072 535.712 36.9631C536.214 36.8494 536.718 36.7595 537.224 36.6932C537.887 36.608 538.425 36.544 538.837 36.5014C539.253 36.4541 539.556 36.3759 539.746 36.267C539.94 36.1581 540.037 35.9687 540.037 35.6989V35.642C540.037 34.9413 539.845 34.3968 539.462 34.0085C539.083 33.6203 538.508 33.4261 537.736 33.4261C536.936 33.4261 536.308 33.6013 535.854 33.9517C535.399 34.3021 535.08 34.6761 534.895 35.0739L533.304 34.5057C533.588 33.8428 533.967 33.3267 534.44 32.9574C534.919 32.5833 535.439 32.3229 536.003 32.1761C536.571 32.0246 537.13 31.9489 537.679 31.9489C538.029 31.9489 538.432 31.9915 538.886 32.0767C539.346 32.1572 539.788 32.3253 540.214 32.581C540.645 32.8366 541.003 33.2225 541.287 33.7386C541.571 34.2547 541.713 34.946 541.713 35.8125V43H540.037V41.5227H539.952C539.838 41.7595 539.649 42.0128 539.384 42.2827C539.118 42.5526 538.766 42.7822 538.325 42.9716C537.885 43.161 537.348 43.2557 536.713 43.2557ZM536.969 41.75C537.632 41.75 538.19 41.6198 538.645 41.3594C539.104 41.099 539.45 40.7628 539.682 40.3509C539.919 39.9389 540.037 39.5057 540.037 39.0511V37.517C539.966 37.6023 539.81 37.6804 539.568 37.7514C539.331 37.8177 539.057 37.8769 538.744 37.929C538.437 37.9763 538.136 38.0189 537.842 38.0568C537.554 38.09 537.319 38.1184 537.139 38.142C536.704 38.1989 536.296 38.2912 535.918 38.419C535.544 38.5421 535.241 38.7292 535.009 38.9801C534.781 39.2263 534.668 39.5625 534.668 39.9886C534.668 40.571 534.883 41.0114 535.314 41.3097C535.75 41.6032 536.301 41.75 536.969 41.75ZM550.335 43V33.625H547.437C546.784 33.625 546.27 33.7765 545.896 34.0795C545.522 34.3826 545.335 34.7992 545.335 35.3295C545.335 35.8504 545.503 36.2599 545.839 36.5582C546.18 36.8565 546.646 37.0057 547.238 37.0057H550.761V38.5682H547.238C546.5 38.5682 545.863 38.438 545.328 38.1776C544.793 37.9171 544.381 37.5455 544.092 37.0625C543.803 36.5748 543.659 35.9972 543.659 35.3295C543.659 34.6572 543.81 34.0795 544.113 33.5966C544.416 33.1136 544.85 32.742 545.413 32.4815C545.981 32.2211 546.656 32.0909 547.437 32.0909H551.926V43H550.335ZM543.062 43L546.159 37.5739H547.977L544.88 43H543.062ZM566.724 28L567.577 29.0227C567.245 29.3447 566.862 29.5696 566.426 29.6974C565.991 29.8253 565.498 29.9034 564.949 29.9318C564.4 29.9602 563.789 29.9886 563.116 30.017C562.359 30.0455 561.732 30.2301 561.234 30.571C560.737 30.9119 560.354 31.4044 560.084 32.0483C559.814 32.6922 559.641 33.483 559.565 34.4205H559.707C560.077 33.7386 560.588 33.2367 561.241 32.9148C561.895 32.5928 562.596 32.4318 563.344 32.4318C564.196 32.4318 564.963 32.6307 565.645 33.0284C566.327 33.4261 566.866 34.0156 567.264 34.7969C567.662 35.5781 567.861 36.5417 567.861 37.6875C567.861 38.8286 567.657 39.8134 567.25 40.642C566.848 41.4706 566.282 42.1098 565.553 42.5597C564.828 43.0047 563.978 43.2273 563.003 43.2273C562.027 43.2273 561.173 42.9976 560.439 42.5384C559.705 42.0743 559.134 41.3878 558.727 40.4787C558.32 39.5649 558.116 38.4356 558.116 37.0909V35.9261C558.116 33.4972 558.528 31.6553 559.352 30.4006C560.181 29.1458 561.426 28.4972 563.088 28.4545C563.675 28.4356 564.198 28.4309 564.658 28.4403C565.117 28.4498 565.517 28.4285 565.858 28.3764C566.199 28.3243 566.488 28.1989 566.724 28ZM563.003 41.7216C563.661 41.7216 564.227 41.5559 564.7 41.2244C565.179 40.893 565.545 40.4266 565.801 39.8253C566.057 39.2192 566.185 38.5066 566.185 37.6875C566.185 36.892 566.054 36.215 565.794 35.6562C565.538 35.0975 565.171 34.6714 564.693 34.3778C564.215 34.0843 563.642 33.9375 562.974 33.9375C562.487 33.9375 562.049 34.0204 561.661 34.1861C561.272 34.3518 560.941 34.5956 560.666 34.9176C560.392 35.2396 560.179 35.6326 560.027 36.0966C559.88 36.5606 559.802 37.0909 559.793 37.6875C559.793 38.9091 560.079 39.8868 560.652 40.6207C561.225 41.3546 562.009 41.7216 563.003 41.7216ZM573.857 43.2273C572.872 43.2273 572.008 42.9929 571.264 42.5241C570.526 42.0554 569.948 41.3996 569.531 40.5568C569.119 39.714 568.913 38.7292 568.913 37.6023C568.913 36.4659 569.119 35.474 569.531 34.6264C569.948 33.7789 570.526 33.1207 571.264 32.652C572.008 32.1832 572.872 31.9489 573.857 31.9489C574.841 31.9489 575.703 32.1832 576.442 32.652C577.185 33.1207 577.763 33.7789 578.175 34.6264C578.591 35.474 578.8 36.4659 578.8 37.6023C578.8 38.7292 578.591 39.714 578.175 40.5568C577.763 41.3996 577.185 42.0554 576.442 42.5241C575.703 42.9929 574.841 43.2273 573.857 43.2273ZM573.857 41.7216C574.605 41.7216 575.22 41.5298 575.703 41.1463C576.186 40.7628 576.544 40.2585 576.776 39.6335C577.008 39.0085 577.124 38.3314 577.124 37.6023C577.124 36.8731 577.008 36.1937 576.776 35.5639C576.544 34.9342 576.186 34.4252 575.703 34.0369C575.22 33.6487 574.605 33.4545 573.857 33.4545C573.108 33.4545 572.493 33.6487 572.01 34.0369C571.527 34.4252 571.17 34.9342 570.938 35.5639C570.705 36.1937 570.589 36.8731 570.589 37.6023C570.589 38.3314 570.705 39.0085 570.938 39.6335C571.17 40.2585 571.527 40.7628 572.01 41.1463C572.493 41.5298 573.108 41.7216 573.857 41.7216ZM579.392 43V41.4375H579.79C580.117 41.4375 580.389 41.3736 580.607 41.2457C580.825 41.1132 581 40.8835 581.132 40.5568C581.27 40.2254 581.374 39.7661 581.445 39.179C581.521 38.5871 581.575 37.8343 581.608 36.9205L581.807 32.0909H589.08V43H587.404V33.6534H583.398L583.228 37.5455C583.19 38.4403 583.109 39.2287 582.986 39.9105C582.868 40.5876 582.685 41.1558 582.439 41.6151C582.198 42.0743 581.876 42.42 581.473 42.652C581.071 42.884 580.567 43 579.961 43H579.392ZM595.729 43.2273C594.678 43.2273 593.771 42.9953 593.009 42.5312C592.251 42.0625 591.667 41.4091 591.255 40.571C590.847 39.7282 590.644 38.7481 590.644 37.6307C590.644 36.5133 590.847 35.5284 591.255 34.6761C591.667 33.8191 592.239 33.1515 592.973 32.6733C593.712 32.1903 594.574 31.9489 595.559 31.9489C596.127 31.9489 596.688 32.0436 597.242 32.233C597.796 32.4223 598.3 32.7301 598.755 33.1562C599.209 33.5777 599.571 34.1364 599.841 34.8324C600.111 35.5284 600.246 36.3854 600.246 37.4034V38.1136H591.837V36.6648H598.542C598.542 36.0492 598.418 35.5 598.172 35.017C597.931 34.5341 597.585 34.1529 597.135 33.8736C596.69 33.5942 596.165 33.4545 595.559 33.4545C594.891 33.4545 594.313 33.6203 593.826 33.9517C593.343 34.2784 592.971 34.7045 592.711 35.2301C592.45 35.7557 592.32 36.3191 592.32 36.9205V37.8864C592.32 38.7102 592.462 39.4086 592.746 39.9815C593.035 40.5497 593.435 40.983 593.946 41.2812C594.458 41.5748 595.052 41.7216 595.729 41.7216C596.169 41.7216 596.567 41.66 596.922 41.5369C597.282 41.4091 597.592 41.2197 597.853 40.9688C598.113 40.7131 598.314 40.3958 598.456 40.017L600.076 40.4716C599.905 41.0208 599.619 41.5038 599.216 41.9205C598.814 42.3324 598.317 42.6544 597.725 42.8864C597.133 43.1136 596.468 43.2273 595.729 43.2273ZM606.37 43.2273C605.319 43.2273 604.412 42.9953 603.65 42.5312C602.892 42.0625 602.307 41.4091 601.895 40.571C601.488 39.7282 601.284 38.7481 601.284 37.6307C601.284 36.5133 601.488 35.5284 601.895 34.6761C602.307 33.8191 602.88 33.1515 603.614 32.6733C604.353 32.1903 605.214 31.9489 606.199 31.9489C606.767 31.9489 607.328 32.0436 607.882 32.233C608.436 32.4223 608.941 32.7301 609.395 33.1562C609.85 33.5777 610.212 34.1364 610.482 34.8324C610.752 35.5284 610.887 36.3854 610.887 37.4034V38.1136H602.478V36.6648H609.182C609.182 36.0492 609.059 35.5 608.813 35.017C608.571 34.5341 608.226 34.1529 607.776 33.8736C607.331 33.5942 606.805 33.4545 606.199 33.4545C605.532 33.4545 604.954 33.6203 604.466 33.9517C603.983 34.2784 603.612 34.7045 603.351 35.2301C603.091 35.7557 602.961 36.3191 602.961 36.9205V37.8864C602.961 38.7102 603.103 39.4086 603.387 39.9815C603.676 40.5497 604.076 40.983 604.587 41.2812C605.098 41.5748 605.693 41.7216 606.37 41.7216C606.81 41.7216 607.208 41.66 607.563 41.5369C607.923 41.4091 608.233 41.2197 608.493 40.9688C608.754 40.7131 608.955 40.3958 609.097 40.017L610.716 40.4716C610.546 41.0208 610.259 41.5038 609.857 41.9205C609.454 42.3324 608.957 42.6544 608.365 42.8864C607.774 43.1136 607.108 43.2273 606.37 43.2273ZM620.669 33.5114C620.291 33.5161 619.909 33.6132 619.526 33.8026C619.147 33.992 618.83 34.2429 618.574 34.5554C618.323 34.8632 618.198 35.2064 618.198 35.5852H616.55C616.55 35.1117 616.664 34.6572 616.891 34.2216C617.118 33.786 617.424 33.3977 617.807 33.0568C618.195 32.7159 618.636 32.446 619.128 32.2472C619.625 32.0483 620.139 31.9489 620.669 31.9489C621.664 31.9489 622.507 32.1998 623.198 32.7017C623.894 33.2036 624.422 33.8665 624.782 34.6903C625.146 35.5142 625.328 36.4091 625.328 37.375V37.7727C625.328 38.7339 625.146 39.6288 624.782 40.4574C624.422 41.2812 623.894 41.9441 623.198 42.446C622.507 42.9479 621.664 43.1989 620.669 43.1989C619.874 43.1989 619.166 43.0237 618.546 42.6733C617.926 42.3182 617.438 41.8447 617.083 41.2528C616.728 40.661 616.55 40.0028 616.55 39.2784H618.198C618.198 39.6903 618.314 40.0762 618.546 40.4361C618.783 40.7912 619.088 41.08 619.462 41.3026C619.841 41.5204 620.243 41.6316 620.669 41.6364C621.304 41.6316 621.844 41.4328 622.289 41.0398C622.734 40.6468 623.072 40.1544 623.304 39.5625C623.536 38.9706 623.652 38.3741 623.652 37.7727V37.375C623.652 36.7595 623.536 36.1581 623.304 35.571C623.077 34.9792 622.741 34.4891 622.296 34.1009C621.855 33.7126 621.313 33.5161 620.669 33.5114ZM624.334 36.7216V38.2841H619.561V36.7216H624.334ZM631.314 46.7216V28.4545H632.99V46.7216H631.314ZM631.314 43.2273C630.575 43.2273 629.903 43.0947 629.297 42.8295C628.69 42.5597 628.17 42.1785 627.734 41.6861C627.298 41.1889 626.962 40.5947 626.725 39.9034C626.489 39.2121 626.37 38.4451 626.37 37.6023C626.37 36.75 626.489 35.9782 626.725 35.2869C626.962 34.5909 627.298 33.9943 627.734 33.4972C628.17 33 628.69 32.6188 629.297 32.3537C629.903 32.0838 630.575 31.9489 631.314 31.9489H631.825V43.2273H631.314ZM631.314 41.7216H631.598V33.4545H631.314C630.755 33.4545 630.27 33.5682 629.858 33.7955C629.446 34.018 629.105 34.3234 628.835 34.7116C628.57 35.0952 628.371 35.5355 628.238 36.0327C628.11 36.5298 628.047 37.053 628.047 37.6023C628.047 38.3314 628.163 39.0085 628.395 39.6335C628.627 40.2585 628.984 40.7628 629.467 41.1463C629.95 41.5298 630.565 41.7216 631.314 41.7216ZM632.99 43.2273H632.478V31.9489H632.99C633.728 31.9489 634.401 32.0838 635.007 32.3537C635.613 32.6188 636.134 33 636.569 33.4972C637.005 33.9943 637.341 34.5909 637.578 35.2869C637.815 35.9782 637.933 36.75 637.933 37.6023C637.933 38.4451 637.815 39.2121 637.578 39.9034C637.341 40.5947 637.005 41.1889 636.569 41.6861C636.134 42.1785 635.613 42.5597 635.007 42.8295C634.401 43.0947 633.728 43.2273 632.99 43.2273ZM632.99 41.7216C633.553 41.7216 634.038 41.6127 634.446 41.3949C634.858 41.1723 635.196 40.8693 635.461 40.4858C635.731 40.0975 635.93 39.6572 636.058 39.1648C636.19 38.6676 636.257 38.1468 636.257 37.6023C636.257 36.8731 636.141 36.1937 635.909 35.5639C635.677 34.9342 635.319 34.4252 634.836 34.0369C634.353 33.6487 633.738 33.4545 632.99 33.4545H632.706V41.7216H632.99ZM643.927 46.7216V28.4545H645.603V46.7216H643.927ZM643.927 43.2273C643.188 43.2273 642.516 43.0947 641.91 42.8295C641.304 42.5597 640.783 42.1785 640.347 41.6861C639.912 41.1889 639.576 40.5947 639.339 39.9034C639.102 39.2121 638.984 38.4451 638.984 37.6023C638.984 36.75 639.102 35.9782 639.339 35.2869C639.576 34.5909 639.912 33.9943 640.347 33.4972C640.783 33 641.304 32.6188 641.91 32.3537C642.516 32.0838 643.188 31.9489 643.927 31.9489H644.438V43.2273H643.927ZM643.927 41.7216H644.211V33.4545H643.927C643.368 33.4545 642.883 33.5682 642.471 33.7955C642.059 34.018 641.718 34.3234 641.448 34.7116C641.183 35.0952 640.984 35.5355 640.852 36.0327C640.724 36.5298 640.66 37.053 640.66 37.6023C640.66 38.3314 640.776 39.0085 641.008 39.6335C641.24 40.2585 641.597 40.7628 642.08 41.1463C642.563 41.5298 643.179 41.7216 643.927 41.7216ZM645.603 43.2273H645.092V31.9489H645.603C646.342 31.9489 647.014 32.0838 647.62 32.3537C648.226 32.6188 648.747 33 649.183 33.4972C649.618 33.9943 649.954 34.5909 650.191 35.2869C650.428 35.9782 650.546 36.75 650.546 37.6023C650.546 38.4451 650.428 39.2121 650.191 39.9034C649.954 40.5947 649.618 41.1889 649.183 41.6861C648.747 42.1785 648.226 42.5597 647.62 42.8295C647.014 43.0947 646.342 43.2273 645.603 43.2273ZM645.603 41.7216C646.166 41.7216 646.652 41.6127 647.059 41.3949C647.471 41.1723 647.809 40.8693 648.075 40.4858C648.344 40.0975 648.543 39.6572 648.671 39.1648C648.804 38.6676 648.87 38.1468 648.87 37.6023C648.87 36.8731 648.754 36.1937 648.522 35.5639C648.29 34.9342 647.933 34.4252 647.45 34.0369C646.967 33.6487 646.351 33.4545 645.603 33.4545H645.319V41.7216H645.603ZM656.682 43.2273C655.631 43.2273 654.724 42.9953 653.962 42.5312C653.204 42.0625 652.62 41.4091 652.208 40.571C651.801 39.7282 651.597 38.7481 651.597 37.6307C651.597 36.5133 651.801 35.5284 652.208 34.6761C652.62 33.8191 653.193 33.1515 653.926 32.6733C654.665 32.1903 655.527 31.9489 656.512 31.9489C657.08 31.9489 657.641 32.0436 658.195 32.233C658.749 32.4223 659.253 32.7301 659.708 33.1562C660.162 33.5777 660.525 34.1364 660.794 34.8324C661.064 35.5284 661.199 36.3854 661.199 37.4034V38.1136H652.79V36.6648H659.495C659.495 36.0492 659.372 35.5 659.125 35.017C658.884 34.5341 658.538 34.1529 658.088 33.8736C657.643 33.5942 657.118 33.4545 656.512 33.4545C655.844 33.4545 655.266 33.6203 654.779 33.9517C654.296 34.2784 653.924 34.7045 653.664 35.2301C653.403 35.7557 653.273 36.3191 653.273 36.9205V37.8864C653.273 38.7102 653.415 39.4086 653.699 39.9815C653.988 40.5497 654.388 40.983 654.9 41.2812C655.411 41.5748 656.005 41.7216 656.682 41.7216C657.123 41.7216 657.52 41.66 657.875 41.5369C658.235 41.4091 658.545 41.2197 658.806 40.9688C659.066 40.7131 659.267 40.3958 659.409 40.017L661.029 40.4716C660.858 41.0208 660.572 41.5038 660.169 41.9205C659.767 42.3324 659.27 42.6544 658.678 42.8864C658.086 43.1136 657.421 43.2273 656.682 43.2273ZM662.749 43V32.0909H664.425V36.8352H665.533L669.453 32.0909H671.613L667.209 37.3466L671.669 43H669.51L665.931 38.3977H664.425V43H662.749ZM671.866 33.6534V32.0909H680.73V33.6534H677.15V43H675.474V33.6534H671.866ZM683.851 40.5284L689.107 32.0909H691.038V43H689.362V34.5625L684.135 43H682.175V32.0909H683.851V40.5284ZM693.108 43V32.0909H697.569C698.743 32.0909 699.676 32.3561 700.367 32.8864C701.058 33.4167 701.404 34.1174 701.404 34.9886C701.404 35.6515 701.207 36.1652 700.814 36.5298C700.421 36.8897 699.917 37.1335 699.301 37.2614C699.704 37.3182 700.095 37.4602 700.473 37.6875C700.857 37.9148 701.174 38.2273 701.425 38.625C701.676 39.018 701.801 39.5009 701.801 40.0739C701.801 40.6326 701.659 41.1321 701.375 41.5724C701.091 42.0128 700.684 42.3608 700.154 42.6165C699.623 42.8722 698.989 43 698.25 43H693.108ZM694.699 41.4659H698.25C698.828 41.4659 699.28 41.3286 699.607 41.054C699.934 40.7794 700.097 40.4053 700.097 39.9318C700.097 39.3684 699.934 38.9257 699.607 38.6037C699.28 38.277 698.828 38.1136 698.25 38.1136H694.699V41.4659ZM694.699 36.6648H697.569C698.018 36.6648 698.404 36.6032 698.726 36.4801C699.048 36.3523 699.294 36.1723 699.465 35.9403C699.64 35.7036 699.728 35.4242 699.728 35.1023C699.728 34.643 699.536 34.2831 699.152 34.0227C698.769 33.7576 698.241 33.625 697.569 33.625H694.699V36.6648ZM710.64 36.7784V38.3409H704.617V36.7784H710.64ZM705.015 32.0909V43H703.339V32.0909H705.015ZM711.918 32.0909V43H710.242V32.0909H711.918ZM715.428 36.0398H718.553C719.832 36.0398 720.809 36.3641 721.487 37.0128C722.164 37.6615 722.502 38.483 722.502 39.4773C722.502 40.1307 722.351 40.7249 722.048 41.2599C721.745 41.7902 721.299 42.214 720.712 42.5312C720.125 42.8438 719.406 43 718.553 43H713.979V32.0909H715.656V41.4375H718.553C719.216 41.4375 719.761 41.2623 720.187 40.9119C720.613 40.5616 720.826 40.1117 720.826 39.5625C720.826 38.9848 720.613 38.5137 720.187 38.1491C719.761 37.7846 719.216 37.6023 718.553 37.6023H715.428V36.0398ZM724.235 43V32.0909H725.911V43H724.235ZM732.553 43.2273C731.502 43.2273 730.595 42.9953 729.833 42.5312C729.076 42.0625 728.491 41.4091 728.079 40.571C727.672 39.7282 727.468 38.7481 727.468 37.6307C727.468 36.5133 727.672 35.5284 728.079 34.6761C728.491 33.8191 729.064 33.1515 729.798 32.6733C730.536 32.1903 731.398 31.9489 732.383 31.9489C732.951 31.9489 733.512 32.0436 734.066 32.233C734.62 32.4223 735.124 32.7301 735.579 33.1562C736.033 33.5777 736.396 34.1364 736.665 34.8324C736.935 35.5284 737.07 36.3854 737.07 37.4034V38.1136H728.661V36.6648H735.366C735.366 36.0492 735.243 35.5 734.996 35.017C734.755 34.5341 734.409 34.1529 733.96 33.8736C733.514 33.5942 732.989 33.4545 732.383 33.4545C731.715 33.4545 731.138 33.6203 730.65 33.9517C730.167 34.2784 729.795 34.7045 729.535 35.2301C729.274 35.7557 729.144 36.3191 729.144 36.9205V37.8864C729.144 38.7102 729.286 39.4086 729.57 39.9815C729.859 40.5497 730.259 40.983 730.771 41.2812C731.282 41.5748 731.876 41.7216 732.553 41.7216C732.994 41.7216 733.391 41.66 733.746 41.5369C734.106 41.4091 734.416 41.2197 734.677 40.9688C734.937 40.7131 735.138 40.3958 735.281 40.017L736.9 40.4716C736.729 41.0208 736.443 41.5038 736.04 41.9205C735.638 42.3324 735.141 42.6544 734.549 42.8864C733.957 43.1136 733.292 43.2273 732.553 43.2273ZM744.921 40.5284L750.177 32.0909H752.109V43H750.433V34.5625L745.205 43H743.245V32.0909H744.921V40.5284ZM766.9 28L767.752 29.0227C767.421 29.3447 767.038 29.5696 766.602 29.6974C766.166 29.8253 765.674 29.9034 765.125 29.9318C764.575 29.9602 763.965 29.9886 763.292 30.017C762.535 30.0455 761.907 30.2301 761.41 30.571C760.913 30.9119 760.529 31.4044 760.26 32.0483C759.99 32.6922 759.817 33.483 759.741 34.4205H759.883C760.252 33.7386 760.764 33.2367 761.417 32.9148C762.071 32.5928 762.771 32.4318 763.52 32.4318C764.372 32.4318 765.139 32.6307 765.821 33.0284C766.502 33.4261 767.042 34.0156 767.44 34.7969C767.838 35.5781 768.037 36.5417 768.037 37.6875C768.037 38.8286 767.833 39.8134 767.426 40.642C767.023 41.4706 766.458 42.1098 765.728 42.5597C765.004 43.0047 764.154 43.2273 763.179 43.2273C762.203 43.2273 761.349 42.9976 760.615 42.5384C759.881 42.0743 759.31 41.3878 758.903 40.4787C758.496 39.5649 758.292 38.4356 758.292 37.0909V35.9261C758.292 33.4972 758.704 31.6553 759.528 30.4006C760.357 29.1458 761.602 28.4972 763.264 28.4545C763.851 28.4356 764.374 28.4309 764.833 28.4403C765.293 28.4498 765.693 28.4285 766.034 28.3764C766.375 28.3243 766.663 28.1989 766.9 28ZM763.179 41.7216C763.837 41.7216 764.403 41.5559 764.876 41.2244C765.354 40.893 765.721 40.4266 765.977 39.8253C766.233 39.2192 766.36 38.5066 766.36 37.6875C766.36 36.892 766.23 36.215 765.97 35.6562C765.714 35.0975 765.347 34.6714 764.869 34.3778C764.391 34.0843 763.818 33.9375 763.15 33.9375C762.663 33.9375 762.225 34.0204 761.836 34.1861C761.448 34.3518 761.117 34.5956 760.842 34.9176C760.567 35.2396 760.354 35.6326 760.203 36.0966C760.056 36.5606 759.978 37.0909 759.968 37.6875C759.968 38.9091 760.255 39.8868 760.828 40.6207C761.401 41.3546 762.184 41.7216 763.179 41.7216ZM774.174 43.2273C773.123 43.2273 772.217 42.9953 771.454 42.5312C770.697 42.0625 770.112 41.4091 769.7 40.571C769.293 39.7282 769.089 38.7481 769.089 37.6307C769.089 36.5133 769.293 35.5284 769.7 34.6761C770.112 33.8191 770.685 33.1515 771.419 32.6733C772.157 32.1903 773.019 31.9489 774.004 31.9489C774.572 31.9489 775.133 32.0436 775.687 32.233C776.241 32.4223 776.745 32.7301 777.2 33.1562C777.654 33.5777 778.017 34.1364 778.287 34.8324C778.556 35.5284 778.691 36.3854 778.691 37.4034V38.1136H770.282V36.6648H776.987C776.987 36.0492 776.864 35.5 776.618 35.017C776.376 34.5341 776.03 34.1529 775.581 33.8736C775.136 33.5942 774.61 33.4545 774.004 33.4545C773.336 33.4545 772.759 33.6203 772.271 33.9517C771.788 34.2784 771.416 34.7045 771.156 35.2301C770.895 35.7557 770.765 36.3191 770.765 36.9205V37.8864C770.765 38.7102 770.907 39.4086 771.191 39.9815C771.48 40.5497 771.88 40.983 772.392 41.2812C772.903 41.5748 773.497 41.7216 774.174 41.7216C774.615 41.7216 775.012 41.66 775.368 41.5369C775.727 41.4091 776.038 41.2197 776.298 40.9688C776.558 40.7131 776.76 40.3958 776.902 40.017L778.521 40.4716C778.35 41.0208 778.064 41.5038 777.662 41.9205C777.259 42.3324 776.762 42.6544 776.17 42.8864C775.578 43.1136 774.913 43.2273 774.174 43.2273ZM779.559 40.2159H781.349C781.387 40.7083 781.609 41.0824 782.017 41.3381C782.429 41.5938 782.964 41.7216 783.622 41.7216C784.294 41.7216 784.869 41.5843 785.348 41.3097C785.826 41.0303 786.065 40.5805 786.065 39.9602C786.065 39.5956 785.975 39.2784 785.795 39.0085C785.615 38.7339 785.362 38.5208 785.035 38.3693C784.708 38.2178 784.323 38.142 783.877 38.142H782.002V36.6364H783.877C784.545 36.6364 785.038 36.4848 785.355 36.1818C785.677 35.8788 785.838 35.5 785.838 35.0455C785.838 34.5578 785.665 34.1671 785.319 33.8736C784.974 33.5753 784.484 33.4261 783.849 33.4261C783.21 33.4261 782.677 33.5705 782.251 33.8594C781.825 34.1435 781.6 34.5104 781.576 34.9602H779.815C779.834 34.3731 780.014 33.8546 780.355 33.4048C780.696 32.9503 781.16 32.5952 781.747 32.3395C782.334 32.0791 783.006 31.9489 783.764 31.9489C784.531 31.9489 785.196 32.0838 785.76 32.3537C786.328 32.6188 786.766 32.9811 787.074 33.4403C787.386 33.8949 787.542 34.411 787.542 34.9886C787.542 35.6042 787.369 36.1013 787.024 36.4801C786.678 36.8589 786.245 37.1288 785.724 37.2898V37.4034C786.136 37.4318 786.493 37.5644 786.797 37.8011C787.104 38.0331 787.343 38.3385 787.514 38.7173C787.684 39.0914 787.77 39.5057 787.77 39.9602C787.77 40.6231 787.592 41.2008 787.237 41.6932C786.882 42.1809 786.394 42.5597 785.774 42.8295C785.154 43.0947 784.446 43.2273 783.65 43.2273C782.878 43.2273 782.187 43.1018 781.576 42.8509C780.966 42.5952 780.48 42.2424 780.12 41.7926C779.765 41.3381 779.578 40.8125 779.559 40.2159ZM793.556 43.2273C792.571 43.2273 791.707 42.9929 790.963 42.5241C790.225 42.0554 789.647 41.3996 789.23 40.5568C788.819 39.714 788.613 38.7292 788.613 37.6023C788.613 36.4659 788.819 35.474 789.23 34.6264C789.647 33.7789 790.225 33.1207 790.963 32.652C791.707 32.1832 792.571 31.9489 793.556 31.9489C794.541 31.9489 795.402 32.1832 796.141 32.652C796.884 33.1207 797.462 33.7789 797.874 34.6264C798.291 35.474 798.499 36.4659 798.499 37.6023C798.499 38.7292 798.291 39.714 797.874 40.5568C797.462 41.3996 796.884 42.0554 796.141 42.5241C795.402 42.9929 794.541 43.2273 793.556 43.2273ZM793.556 41.7216C794.304 41.7216 794.919 41.5298 795.402 41.1463C795.885 40.7628 796.243 40.2585 796.475 39.6335C796.707 39.0085 796.823 38.3314 796.823 37.6023C796.823 36.8731 796.707 36.1937 796.475 35.5639C796.243 34.9342 795.885 34.4252 795.402 34.0369C794.919 33.6487 794.304 33.4545 793.556 33.4545C792.808 33.4545 792.192 33.6487 791.709 34.0369C791.226 34.4252 790.869 34.9342 790.637 35.5639C790.405 36.1937 790.289 36.8731 790.289 37.6023C790.289 38.3314 790.405 39.0085 790.637 39.6335C790.869 40.2585 791.226 40.7628 791.709 41.1463C792.192 41.5298 792.808 41.7216 793.556 41.7216ZM800.058 43V32.0909H808.637V43H806.961V33.6534H801.734V43H800.058ZM813.908 43.2557C813.217 43.2557 812.59 43.1255 812.026 42.8651C811.463 42.5999 811.015 42.2188 810.684 41.7216C810.353 41.2197 810.187 40.6136 810.187 39.9034C810.187 39.2784 810.31 38.7718 810.556 38.3835C810.802 37.9905 811.131 37.6828 811.543 37.4602C811.955 37.2377 812.41 37.072 812.907 36.9631C813.409 36.8494 813.913 36.7595 814.42 36.6932C815.083 36.608 815.62 36.544 816.032 36.5014C816.449 36.4541 816.752 36.3759 816.941 36.267C817.135 36.1581 817.232 35.9687 817.232 35.6989V35.642C817.232 34.9413 817.04 34.3968 816.657 34.0085C816.278 33.6203 815.703 33.4261 814.931 33.4261C814.131 33.4261 813.504 33.6013 813.049 33.9517C812.594 34.3021 812.275 34.6761 812.09 35.0739L810.499 34.5057C810.783 33.8428 811.162 33.3267 811.636 32.9574C812.114 32.5833 812.635 32.3229 813.198 32.1761C813.766 32.0246 814.325 31.9489 814.874 31.9489C815.225 31.9489 815.627 31.9915 816.082 32.0767C816.541 32.1572 816.984 32.3253 817.41 32.581C817.841 32.8366 818.198 33.2225 818.482 33.7386C818.766 34.2547 818.908 34.946 818.908 35.8125V43H817.232V41.5227H817.147C817.033 41.7595 816.844 42.0128 816.579 42.2827C816.314 42.5526 815.961 42.7822 815.521 42.9716C815.08 43.161 814.543 43.2557 813.908 43.2557ZM814.164 41.75C814.827 41.75 815.386 41.6198 815.84 41.3594C816.299 41.099 816.645 40.7628 816.877 40.3509C817.114 39.9389 817.232 39.5057 817.232 39.0511V37.517C817.161 37.6023 817.005 37.6804 816.763 37.7514C816.527 37.8177 816.252 37.8769 815.94 37.929C815.632 37.9763 815.331 38.0189 815.038 38.0568C814.749 38.09 814.514 38.1184 814.335 38.142C813.899 38.1989 813.492 38.2912 813.113 38.419C812.739 38.5421 812.436 38.7292 812.204 38.9801C811.977 39.2263 811.863 39.5625 811.863 39.9886C811.863 40.571 812.078 41.0114 812.509 41.3097C812.945 41.6032 813.496 41.75 814.164 41.75ZM825.4 43.2273C824.377 43.2273 823.496 42.9858 822.757 42.5028C822.019 42.0199 821.451 41.3546 821.053 40.5071C820.655 39.6596 820.456 38.6913 820.456 37.6023C820.456 36.4943 820.66 35.5166 821.067 34.669C821.479 33.8168 822.052 33.1515 822.786 32.6733C823.525 32.1903 824.386 31.9489 825.371 31.9489C826.138 31.9489 826.829 32.0909 827.445 32.375C828.06 32.6591 828.565 33.0568 828.958 33.5682C829.351 34.0795 829.595 34.6761 829.689 35.358H828.013C827.885 34.8608 827.601 34.4205 827.161 34.0369C826.725 33.6487 826.138 33.4545 825.4 33.4545C824.746 33.4545 824.173 33.625 823.681 33.9659C823.193 34.3021 822.812 34.7779 822.537 35.3935C822.267 36.0043 822.132 36.7216 822.132 37.5455C822.132 38.3883 822.265 39.1222 822.53 39.7472C822.8 40.3722 823.179 40.8575 823.667 41.2031C824.159 41.5488 824.737 41.7216 825.4 41.7216C825.835 41.7216 826.23 41.6458 826.586 41.4943C826.941 41.3428 827.241 41.125 827.488 40.8409C827.734 40.5568 827.909 40.2159 828.013 39.8182H829.689C829.595 40.4621 829.36 41.0421 828.986 41.5582C828.617 42.0696 828.127 42.4768 827.516 42.7798C826.91 43.0781 826.204 43.2273 825.4 43.2273ZM838.441 36.7784V38.3409H832.418V36.7784H838.441ZM832.816 32.0909V43H831.14V32.0909H832.816ZM839.719 32.0909V43H838.043V32.0909H839.719ZM843.229 36.0398H846.354C847.632 36.0398 848.61 36.3641 849.287 37.0128C849.964 37.6615 850.303 38.483 850.303 39.4773C850.303 40.1307 850.151 40.7249 849.848 41.2599C849.545 41.7902 849.1 42.214 848.513 42.5312C847.926 42.8438 847.206 43 846.354 43H841.78V32.0909H843.456V41.4375H846.354C847.017 41.4375 847.561 41.2623 847.988 40.9119C848.414 40.5616 848.627 40.1117 848.627 39.5625C848.627 38.9848 848.414 38.5137 847.988 38.1491C847.561 37.7846 847.017 37.6023 846.354 37.6023H843.229V36.0398ZM852.036 43V32.0909H853.712V43H852.036ZM860.354 43.2273C859.303 43.2273 858.396 42.9953 857.634 42.5312C856.876 42.0625 856.292 41.4091 855.88 40.571C855.472 39.7282 855.269 38.7481 855.269 37.6307C855.269 36.5133 855.472 35.5284 855.88 34.6761C856.292 33.8191 856.864 33.1515 857.598 32.6733C858.337 32.1903 859.199 31.9489 860.184 31.9489C860.752 31.9489 861.313 32.0436 861.867 32.233C862.421 32.4223 862.925 32.7301 863.38 33.1562C863.834 33.5777 864.196 34.1364 864.466 34.8324C864.736 35.5284 864.871 36.3854 864.871 37.4034V38.1136H856.462V36.6648H863.167C863.167 36.0492 863.043 35.5 862.797 35.017C862.556 34.5341 862.21 34.1529 861.76 33.8736C861.315 33.5942 860.79 33.4545 860.184 33.4545C859.516 33.4545 858.938 33.6203 858.451 33.9517C857.968 34.2784 857.596 34.7045 857.336 35.2301C857.075 35.7557 856.945 36.3191 856.945 36.9205V37.8864C856.945 38.7102 857.087 39.4086 857.371 39.9815C857.66 40.5497 858.06 40.983 858.571 41.2812C859.083 41.5748 859.677 41.7216 860.354 41.7216C860.794 41.7216 861.192 41.66 861.547 41.5369C861.907 41.4091 862.217 41.2197 862.478 40.9688C862.738 40.7131 862.939 40.3958 863.081 40.017L864.701 40.4716C864.53 41.0208 864.244 41.5038 863.841 41.9205C863.439 42.3324 862.942 42.6544 862.35 42.8864C861.758 43.1136 861.093 43.2273 860.354 43.2273ZM872.125 47.0909C871.841 47.0909 871.588 47.0672 871.365 47.0199C871.143 46.9773 870.989 46.9347 870.904 46.892L871.33 45.4148C871.737 45.5189 872.097 45.5568 872.409 45.5284C872.722 45.5 872.999 45.3603 873.24 45.1094C873.487 44.8632 873.712 44.4631 873.915 43.9091L874.228 43.0568L870.194 32.0909H872.012L875.023 40.7841H875.137L878.148 32.0909H879.966L875.336 44.5909C875.127 45.1544 874.869 45.6207 874.561 45.9901C874.254 46.3641 873.896 46.6411 873.489 46.821C873.087 47.0009 872.632 47.0909 872.125 47.0909ZM885.22 43.2273C884.197 43.2273 883.316 42.9858 882.578 42.5028C881.839 42.0199 881.271 41.3546 880.873 40.5071C880.475 39.6596 880.277 38.6913 880.277 37.6023C880.277 36.4943 880.48 35.5166 880.887 34.669C881.299 33.8168 881.872 33.1515 882.606 32.6733C883.345 32.1903 884.207 31.9489 885.191 31.9489C885.958 31.9489 886.65 32.0909 887.265 32.375C887.881 32.6591 888.385 33.0568 888.778 33.5682C889.171 34.0795 889.415 34.6761 889.51 35.358H887.833C887.706 34.8608 887.422 34.4205 886.981 34.0369C886.546 33.6487 885.958 33.4545 885.22 33.4545C884.566 33.4545 883.993 33.625 883.501 33.9659C883.013 34.3021 882.632 34.7779 882.358 35.3935C882.088 36.0043 881.953 36.7216 881.953 37.5455C881.953 38.3883 882.085 39.1222 882.35 39.7472C882.62 40.3722 882.999 40.8575 883.487 41.2031C883.979 41.5488 884.557 41.7216 885.22 41.7216C885.655 41.7216 886.051 41.6458 886.406 41.4943C886.761 41.3428 887.062 41.125 887.308 40.8409C887.554 40.5568 887.729 40.2159 887.833 39.8182H889.51C889.415 40.4621 889.181 41.0421 888.806 41.5582C888.437 42.0696 887.947 42.4768 887.336 42.7798C886.73 43.0781 886.025 43.2273 885.22 43.2273ZM889.994 43V41.4375H890.392C890.718 41.4375 890.991 41.3736 891.208 41.2457C891.426 41.1132 891.601 40.8835 891.734 40.5568C891.871 40.2254 891.975 39.7661 892.047 39.179C892.122 38.5871 892.177 37.8343 892.21 36.9205L892.409 32.0909H899.681V43H898.005V33.6534H894L893.829 37.5455C893.791 38.4403 893.711 39.2287 893.588 39.9105C893.469 40.5876 893.287 41.1558 893.041 41.6151C892.799 42.0743 892.477 42.42 892.075 42.652C891.672 42.884 891.168 43 890.562 43H889.994ZM906.189 43.2273C905.204 43.2273 904.34 42.9929 903.596 42.5241C902.858 42.0554 902.28 41.3996 901.863 40.5568C901.451 39.714 901.245 38.7292 901.245 37.6023C901.245 36.4659 901.451 35.474 901.863 34.6264C902.28 33.7789 902.858 33.1207 903.596 32.652C904.34 32.1832 905.204 31.9489 906.189 31.9489C907.173 31.9489 908.035 32.1832 908.774 32.652C909.517 33.1207 910.095 33.7789 910.507 34.6264C910.923 35.474 911.132 36.4659 911.132 37.6023C911.132 38.7292 910.923 39.714 910.507 40.5568C910.095 41.3996 909.517 42.0554 908.774 42.5241C908.035 42.9929 907.173 43.2273 906.189 43.2273ZM906.189 41.7216C906.937 41.7216 907.552 41.5298 908.035 41.1463C908.518 40.7628 908.876 40.2585 909.108 39.6335C909.34 39.0085 909.456 38.3314 909.456 37.6023C909.456 36.8731 909.34 36.1937 909.108 35.5639C908.876 34.9342 908.518 34.4252 908.035 34.0369C907.552 33.6487 906.937 33.4545 906.189 33.4545C905.44 33.4545 904.825 33.6487 904.342 34.0369C903.859 34.4252 903.502 34.9342 903.27 35.5639C903.038 36.1937 902.922 36.8731 902.922 37.6023C902.922 38.3314 903.038 39.0085 903.27 39.6335C903.502 40.2585 903.859 40.7628 904.342 41.1463C904.825 41.5298 905.44 41.7216 906.189 41.7216ZM912.69 43V32.0909H917.151C918.325 32.0909 919.258 32.3561 919.949 32.8864C920.64 33.4167 920.986 34.1174 920.986 34.9886C920.986 35.6515 920.789 36.1652 920.396 36.5298C920.003 36.8897 919.499 37.1335 918.884 37.2614C919.286 37.3182 919.677 37.4602 920.055 37.6875C920.439 37.9148 920.756 38.2273 921.007 38.625C921.258 39.018 921.384 39.5009 921.384 40.0739C921.384 40.6326 921.241 41.1321 920.957 41.5724C920.673 42.0128 920.266 42.3608 919.736 42.6165C919.205 42.8722 918.571 43 917.832 43H912.69ZM914.281 41.4659H917.832C918.41 41.4659 918.862 41.3286 919.189 41.054C919.516 40.7794 919.679 40.4053 919.679 39.9318C919.679 39.3684 919.516 38.9257 919.189 38.6037C918.862 38.277 918.41 38.1136 917.832 38.1136H914.281V41.4659ZM914.281 36.6648H917.151C917.6 36.6648 917.986 36.6032 918.308 36.4801C918.63 36.3523 918.876 36.1723 919.047 35.9403C919.222 35.7036 919.31 35.4242 919.31 35.1023C919.31 34.643 919.118 34.2831 918.734 34.0227C918.351 33.7576 917.823 33.625 917.151 33.625H914.281V36.6648ZM924.597 40.5284L929.853 32.0909H931.784V43H930.108V34.5625L924.881 43H922.921V32.0909H924.597V40.5284ZM940.417 43V33.625H937.519C936.866 33.625 936.352 33.7765 935.978 34.0795C935.604 34.3826 935.417 34.7992 935.417 35.3295C935.417 35.8504 935.585 36.2599 935.921 36.5582C936.262 36.8565 936.728 37.0057 937.32 37.0057H940.843V38.5682H937.32C936.582 38.5682 935.945 38.438 935.41 38.1776C934.875 37.9171 934.463 37.5455 934.174 37.0625C933.885 36.5748 933.741 35.9972 933.741 35.3295C933.741 34.6572 933.892 34.0795 934.195 33.5966C934.498 33.1136 934.932 32.742 935.495 32.4815C936.063 32.2211 936.738 32.0909 937.519 32.0909H942.008V43H940.417ZM933.144 43L936.241 37.5739H938.059L934.962 43H933.144ZM947.545 46.125V41.4375H948.454C948.677 41.2055 948.868 40.9545 949.029 40.6847C949.19 40.4148 949.33 40.0952 949.449 39.7259C949.572 39.3518 949.676 38.8973 949.761 38.3622C949.846 37.8224 949.922 37.1714 949.988 36.4091L950.358 32.0909H957.289V41.4375H958.966V46.125H957.289V43H949.221V46.125H947.545ZM950.358 41.4375H955.613V33.6534H951.92L951.636 36.4091C951.518 37.5502 951.371 38.5469 951.196 39.3991C951.02 40.2514 950.741 40.9309 950.358 41.4375ZM959.224 43V41.4375H959.622C959.949 41.4375 960.221 41.3736 960.439 41.2457C960.657 41.1132 960.832 40.8835 960.964 40.5568C961.102 40.2254 961.206 39.7661 961.277 39.179C961.353 38.5871 961.407 37.8343 961.44 36.9205L961.639 32.0909H968.912V43H967.236V33.6534H963.23L963.06 37.5455C963.022 38.4403 962.941 39.2287 962.818 39.9105C962.7 40.5876 962.518 41.1558 962.271 41.6151C962.03 42.0743 961.708 42.42 961.305 42.652C960.903 42.884 960.399 43 959.793 43H959.224ZM977.55 43V33.625H974.652C973.999 33.625 973.485 33.7765 973.111 34.0795C972.737 34.3826 972.55 34.7992 972.55 35.3295C972.55 35.8504 972.718 36.2599 973.054 36.5582C973.395 36.8565 973.861 37.0057 974.453 37.0057H977.976V38.5682H974.453C973.714 38.5682 973.078 38.438 972.543 38.1776C972.008 37.9171 971.596 37.5455 971.307 37.0625C971.018 36.5748 970.874 35.9972 970.874 35.3295C970.874 34.6572 971.025 34.0795 971.328 33.5966C971.631 33.1136 972.064 32.742 972.628 32.4815C973.196 32.2211 973.871 32.0909 974.652 32.0909H979.141V43H977.55ZM970.277 43L973.374 37.5739H975.192L972.095 43H970.277ZM470.909 57.6534V56.0909H479.773V57.6534H476.193V67H474.517V57.6534H470.909ZM485.083 67.2273C484.098 67.2273 483.234 66.9929 482.491 66.5241C481.752 66.0554 481.174 65.3996 480.758 64.5568C480.346 63.714 480.14 62.7292 480.14 61.6023C480.14 60.4659 480.346 59.474 480.758 58.6264C481.174 57.7789 481.752 57.1207 482.491 56.652C483.234 56.1832 484.098 55.9489 485.083 55.9489C486.068 55.9489 486.93 56.1832 487.668 56.652C488.412 57.1207 488.989 57.7789 489.401 58.6264C489.818 59.474 490.026 60.4659 490.026 61.6023C490.026 62.7292 489.818 63.714 489.401 64.5568C488.989 65.3996 488.412 66.0554 487.668 66.5241C486.93 66.9929 486.068 67.2273 485.083 67.2273ZM485.083 65.7216C485.831 65.7216 486.447 65.5298 486.93 65.1463C487.413 64.7628 487.77 64.2585 488.002 63.6335C488.234 63.0085 488.35 62.3314 488.35 61.6023C488.35 60.8731 488.234 60.1937 488.002 59.5639C487.77 58.9342 487.413 58.4252 486.93 58.0369C486.447 57.6487 485.831 57.4545 485.083 57.4545C484.335 57.4545 483.719 57.6487 483.237 58.0369C482.754 58.4252 482.396 58.9342 482.164 59.5639C481.932 60.1937 481.816 60.8731 481.816 61.6023C481.816 62.3314 481.932 63.0085 482.164 63.6335C482.396 64.2585 482.754 64.7628 483.237 65.1463C483.719 65.5298 484.335 65.7216 485.083 65.7216ZM491.585 71.0909V56.0909H493.204V57.8239H493.403C493.526 57.6345 493.697 57.393 493.914 57.0994C494.137 56.8011 494.454 56.536 494.866 56.304C495.283 56.0672 495.846 55.9489 496.556 55.9489C497.475 55.9489 498.285 56.1785 498.985 56.6378C499.686 57.0971 500.233 57.7481 500.626 58.5909C501.019 59.4337 501.216 60.428 501.216 61.5739C501.216 62.7292 501.019 63.7306 500.626 64.5781C500.233 65.4209 499.689 66.0743 498.993 66.5384C498.297 66.9976 497.494 67.2273 496.585 67.2273C495.884 67.2273 495.323 67.1113 494.902 66.8793C494.48 66.6425 494.156 66.375 493.929 66.0767C493.701 65.7737 493.526 65.5227 493.403 65.3239H493.261V71.0909H491.585ZM493.233 61.5455C493.233 62.3693 493.353 63.0961 493.595 63.7259C493.836 64.3509 494.189 64.8409 494.653 65.196C495.117 65.5464 495.685 65.7216 496.358 65.7216C497.058 65.7216 497.643 65.5369 498.112 65.1676C498.585 64.7936 498.94 64.2917 499.177 63.6619C499.419 63.0275 499.539 62.322 499.539 61.5455C499.539 60.7784 499.421 60.0871 499.184 59.4716C498.952 58.8513 498.6 58.3613 498.126 58.0014C497.657 57.6368 497.068 57.4545 496.358 57.4545C495.676 57.4545 495.103 57.6274 494.639 57.973C494.175 58.3139 493.824 58.7921 493.588 59.4077C493.351 60.0185 493.233 60.7311 493.233 61.5455ZM509.505 56.0909V57.6534H504.449V67H502.772V56.0909H509.505ZM514.817 67.2273C513.833 67.2273 512.969 66.9929 512.225 66.5241C511.487 66.0554 510.909 65.3996 510.492 64.5568C510.08 63.714 509.874 62.7292 509.874 61.6023C509.874 60.4659 510.08 59.474 510.492 58.6264C510.909 57.7789 511.487 57.1207 512.225 56.652C512.969 56.1832 513.833 55.9489 514.817 55.9489C515.802 55.9489 516.664 56.1832 517.403 56.652C518.146 57.1207 518.724 57.7789 519.136 58.6264C519.552 59.474 519.761 60.4659 519.761 61.6023C519.761 62.7292 519.552 63.714 519.136 64.5568C518.724 65.3996 518.146 66.0554 517.403 66.5241C516.664 66.9929 515.802 67.2273 514.817 67.2273ZM514.817 65.7216C515.566 65.7216 516.181 65.5298 516.664 65.1463C517.147 64.7628 517.504 64.2585 517.737 63.6335C517.969 63.0085 518.085 62.3314 518.085 61.6023C518.085 60.8731 517.969 60.1937 517.737 59.5639C517.504 58.9342 517.147 58.4252 516.664 58.0369C516.181 57.6487 515.566 57.4545 514.817 57.4545C514.069 57.4545 513.454 57.6487 512.971 58.0369C512.488 58.4252 512.13 58.9342 511.898 59.5639C511.666 60.1937 511.55 60.8731 511.55 61.6023C511.55 62.3314 511.666 63.0085 511.898 63.6335C512.13 64.2585 512.488 64.7628 512.971 65.1463C513.454 65.5298 514.069 65.7216 514.817 65.7216ZM521.319 67V56.0909H525.779C526.954 56.0909 527.886 56.3561 528.578 56.8864C529.269 57.4167 529.615 58.1174 529.615 58.9886C529.615 59.6515 529.418 60.1652 529.025 60.5298C528.632 60.8897 528.128 61.1335 527.512 61.2614C527.915 61.3182 528.306 61.4602 528.684 61.6875C529.068 61.9148 529.385 62.2273 529.636 62.625C529.887 63.018 530.012 63.5009 530.012 64.0739C530.012 64.6326 529.87 65.1321 529.586 65.5724C529.302 66.0128 528.895 66.3608 528.365 66.6165C527.834 66.8722 527.2 67 526.461 67H521.319ZM522.91 65.4659H526.461C527.039 65.4659 527.491 65.3286 527.818 65.054C528.145 64.7794 528.308 64.4053 528.308 63.9318C528.308 63.3684 528.145 62.9257 527.818 62.6037C527.491 62.277 527.039 62.1136 526.461 62.1136H522.91V65.4659ZM522.91 60.6648H525.779C526.229 60.6648 526.615 60.6032 526.937 60.4801C527.259 60.3523 527.505 60.1723 527.676 59.9403C527.851 59.7036 527.939 59.4242 527.939 59.1023C527.939 58.643 527.747 58.2831 527.363 58.0227C526.98 57.7576 526.452 57.625 525.779 57.625H522.91V60.6648ZM530.584 67V65.4375H530.982C531.308 65.4375 531.58 65.3736 531.798 65.2457C532.016 65.1132 532.191 64.8835 532.324 64.5568C532.461 64.2254 532.565 63.7661 532.636 63.179C532.712 62.5871 532.767 61.8343 532.8 60.9205L532.999 56.0909H540.271V67H538.595V57.6534H534.589L534.419 61.5455C534.381 62.4403 534.301 63.2287 534.178 63.9105C534.059 64.5876 533.877 65.1558 533.631 65.6151C533.389 66.0743 533.067 66.42 532.665 66.652C532.262 66.884 531.758 67 531.152 67H530.584ZM544.023 64.5284L549.278 56.0909H551.21V67H549.534V58.5625L544.307 67H542.347V56.0909H544.023V64.5284ZM554.502 67.1136C554.151 67.1136 553.851 66.9882 553.6 66.7372C553.349 66.4863 553.223 66.1856 553.223 65.8352C553.223 65.4848 553.349 65.1842 553.6 64.9332C553.851 64.6823 554.151 64.5568 554.502 64.5568C554.852 64.5568 555.153 64.6823 555.404 64.9332C555.655 65.1842 555.78 65.4848 555.78 65.8352C555.78 66.0672 555.721 66.2803 555.603 66.4744C555.489 66.6686 555.335 66.8248 555.141 66.9432C554.952 67.0568 554.739 67.1136 554.502 67.1136Z" fill="#4A4339"/>
</svg>
