<svg width="222" height="64" viewBox="0 0 222 64" fill="none" xmlns="http://www.w3.org/2000/svg">
<path d="M0.795455 24V20.9545L1.47727 20.9318C2.40152 20.9091 3.12879 20.5947 3.65909 19.9886C4.19697 19.3826 4.58712 18.4053 4.82955 17.0568C5.07955 15.7083 5.24621 13.9091 5.32955 11.6591L5.72727 0.727272H20.4432V24H16.9773V3.70454H9.03409L8.67045 12.5909C8.57197 15.0833 8.32197 17.178 7.92045 18.875C7.51894 20.5644 6.83712 21.8409 5.875 22.7045C4.92045 23.5682 3.56061 24 1.79545 24H0.795455ZM31.0364 24.3523C29.4 24.3523 27.972 23.9773 26.7523 23.2273C25.5326 22.4773 24.5856 21.428 23.9114 20.0795C23.2371 18.7311 22.9 17.1553 22.9 15.3523C22.9 13.5417 23.2371 11.9583 23.9114 10.6023C24.5856 9.24621 25.5326 8.19318 26.7523 7.44318C27.972 6.69318 29.4 6.31818 31.0364 6.31818C32.6727 6.31818 34.1008 6.69318 35.3205 7.44318C36.5402 8.19318 37.4871 9.24621 38.1614 10.6023C38.8356 11.9583 39.1727 13.5417 39.1727 15.3523C39.1727 17.1553 38.8356 18.7311 38.1614 20.0795C37.4871 21.428 36.5402 22.4773 35.3205 23.2273C34.1008 23.9773 32.6727 24.3523 31.0364 24.3523ZM31.0477 21.5C32.1083 21.5 32.9871 21.2197 33.6841 20.6591C34.3811 20.0985 34.8962 19.3523 35.2295 18.4205C35.5705 17.4886 35.7409 16.4621 35.7409 15.3409C35.7409 14.2273 35.5705 13.2045 35.2295 12.2727C34.8962 11.3333 34.3811 10.5795 33.6841 10.0114C32.9871 9.44318 32.1083 9.15909 31.0477 9.15909C29.9795 9.15909 29.0932 9.44318 28.3886 10.0114C27.6917 10.5795 27.1727 11.3333 26.8318 12.2727C26.4985 13.2045 26.3318 14.2273 26.3318 15.3409C26.3318 16.4621 26.4985 17.4886 26.8318 18.4205C27.1727 19.3523 27.6917 20.0985 28.3886 20.6591C29.0932 21.2197 29.9795 21.5 31.0477 21.5ZM52.5244 6.54545V9.47727H44.7176V24H41.3653V6.54545H52.5244ZM57.8449 19.2386L65.5381 6.54545H69.1972V24H65.8676V11.2955L58.2085 24H54.5153V6.54545H57.8449V19.2386ZM79.5176 24.3523C77.8282 24.3523 76.3737 23.9697 75.154 23.2045C73.9419 22.4318 73.01 21.3674 72.3585 20.0114C71.707 18.6553 71.3812 17.1023 71.3812 15.3523C71.3812 13.5795 71.7146 12.0152 72.3812 10.6591C73.0479 9.29545 73.9873 8.23106 75.1994 7.46591C76.4116 6.70076 77.8396 6.31818 79.4835 6.31818C80.8093 6.31818 81.9911 6.56439 83.029 7.05682C84.0669 7.54167 84.904 8.22348 85.5403 9.10227C86.1843 9.98106 86.5669 11.0076 86.6881 12.1818H83.3812C83.1994 11.3636 82.7828 10.6591 82.1312 10.0682C81.4873 9.47727 80.6237 9.18182 79.5403 9.18182C78.5934 9.18182 77.7638 9.43182 77.0517 9.93182C76.3472 10.4242 75.7979 11.1288 75.404 12.0455C75.01 12.9545 74.8131 14.0303 74.8131 15.2727C74.8131 16.5455 75.0062 17.6439 75.3926 18.5682C75.779 19.4924 76.3244 20.2083 77.029 20.7159C77.7411 21.2235 78.5782 21.4773 79.5403 21.4773C80.1843 21.4773 80.7676 21.3598 81.2903 21.125C81.8206 20.8826 82.2638 20.5379 82.6199 20.0909C82.9835 19.6439 83.2373 19.1061 83.3812 18.4773H86.6881C86.5669 19.6061 86.1994 20.6136 85.5858 21.5C84.9722 22.3864 84.1502 23.0833 83.1199 23.5909C82.0972 24.0985 80.8964 24.3523 79.5176 24.3523ZM87.4006 9.47727V6.54545H102.128V9.47727H96.4347V24H93.1165V9.47727H87.4006ZM107.451 19.2386L115.144 6.54545H118.803V24H115.474V11.2955L107.815 24H104.122V6.54545H107.451V19.2386ZM135.783 6.54545V24H132.465V6.54545H135.783ZM134.34 14.6477V17.5795C133.817 17.7917 133.264 17.9811 132.681 18.1477C132.097 18.3068 131.484 18.4318 130.84 18.5227C130.196 18.6136 129.525 18.6591 128.828 18.6591C126.669 18.6591 124.953 18.1326 123.681 17.0795C122.408 16.0189 121.772 14.3977 121.772 12.2159V6.51136H125.078V12.2159C125.078 13.0417 125.23 13.7121 125.533 14.2273C125.836 14.7424 126.268 15.1212 126.828 15.3636C127.389 15.6061 128.056 15.7273 128.828 15.7273C129.851 15.7273 130.794 15.6326 131.658 15.4432C132.529 15.2462 133.423 14.9811 134.34 14.6477ZM146.226 24.3523C144.506 24.3523 143.025 23.9848 141.782 23.25C140.548 22.5076 139.593 21.4659 138.919 20.125C138.252 18.7765 137.919 17.197 137.919 15.3864C137.919 13.5985 138.252 12.0227 138.919 10.6591C139.593 9.29545 140.532 8.23106 141.737 7.46591C142.949 6.70076 144.366 6.31818 145.987 6.31818C146.972 6.31818 147.926 6.48106 148.851 6.80682C149.775 7.13258 150.604 7.64394 151.339 8.34091C152.074 9.03788 152.654 9.94318 153.078 11.0568C153.502 12.1629 153.714 13.5076 153.714 15.0909V16.2955H139.839V13.75H150.385C150.385 12.8561 150.203 12.0644 149.839 11.375C149.476 10.678 148.964 10.1288 148.305 9.72727C147.654 9.32576 146.888 9.125 146.01 9.125C145.055 9.125 144.222 9.35985 143.51 9.82955C142.805 10.2917 142.26 10.8977 141.873 11.6477C141.495 12.3902 141.305 13.197 141.305 14.0682V16.0568C141.305 17.2235 141.51 18.2159 141.919 19.0341C142.335 19.8523 142.915 20.4773 143.657 20.9091C144.4 21.3333 145.267 21.5455 146.26 21.5455C146.904 21.5455 147.491 21.4545 148.021 21.2727C148.551 21.0833 149.01 20.803 149.396 20.4318C149.782 20.0606 150.078 19.6023 150.282 19.0568L153.498 19.6364C153.241 20.5833 152.779 21.4129 152.112 22.125C151.453 22.8295 150.623 23.3788 149.623 23.7727C148.631 24.1591 147.498 24.3523 146.226 24.3523ZM163.236 24.3523C161.547 24.3523 160.092 23.9697 158.873 23.2045C157.661 22.4318 156.729 21.3674 156.077 20.0114C155.426 18.6553 155.1 17.1023 155.1 15.3523C155.1 13.5795 155.433 12.0152 156.1 10.6591C156.767 9.29545 157.706 8.23106 158.918 7.46591C160.13 6.70076 161.558 6.31818 163.202 6.31818C164.528 6.31818 165.71 6.56439 166.748 7.05682C167.786 7.54167 168.623 8.22348 169.259 9.10227C169.903 9.98106 170.286 11.0076 170.407 12.1818H167.1C166.918 11.3636 166.502 10.6591 165.85 10.0682C165.206 9.47727 164.342 9.18182 163.259 9.18182C162.312 9.18182 161.483 9.43182 160.77 9.93182C160.066 10.4242 159.517 11.1288 159.123 12.0455C158.729 12.9545 158.532 14.0303 158.532 15.2727C158.532 16.5455 158.725 17.6439 159.111 18.5682C159.498 19.4924 160.043 20.2083 160.748 20.7159C161.46 21.2235 162.297 21.4773 163.259 21.4773C163.903 21.4773 164.486 21.3598 165.009 21.125C165.539 20.8826 165.983 20.5379 166.339 20.0909C166.702 19.6439 166.956 19.1061 167.1 18.4773H170.407C170.286 19.6061 169.918 20.6136 169.305 21.5C168.691 22.3864 167.869 23.0833 166.839 23.5909C165.816 24.0985 164.615 24.3523 163.236 24.3523ZM172.44 24V6.54545H175.838V13.8636H177.474L183.236 6.54545H187.44L180.679 15.0341L187.52 24H183.304L178.043 17.0227H175.838V24H172.44ZM191.889 19.2386L199.582 6.54545H203.241V24H199.911V11.2955L192.252 24H188.559V6.54545H191.889V19.2386ZM213.732 24.3523C212.012 24.3523 210.531 23.9848 209.289 23.25C208.054 22.5076 207.099 21.4659 206.425 20.125C205.758 18.7765 205.425 17.197 205.425 15.3864C205.425 13.5985 205.758 12.0227 206.425 10.6591C207.099 9.29545 208.039 8.23106 209.243 7.46591C210.455 6.70076 211.872 6.31818 213.493 6.31818C214.478 6.31818 215.433 6.48106 216.357 6.80682C217.281 7.13258 218.111 7.64394 218.845 8.34091C219.58 9.03788 220.16 9.94318 220.584 11.0568C221.008 12.1629 221.22 13.5076 221.22 15.0909V16.2955H207.345V13.75H217.891C217.891 12.8561 217.709 12.0644 217.345 11.375C216.982 10.678 216.47 10.1288 215.811 9.72727C215.16 9.32576 214.395 9.125 213.516 9.125C212.561 9.125 211.728 9.35985 211.016 9.82955C210.311 10.2917 209.766 10.8977 209.38 11.6477C209.001 12.3902 208.811 13.197 208.811 14.0682V16.0568C208.811 17.2235 209.016 18.2159 209.425 19.0341C209.842 19.8523 210.421 20.4773 211.164 20.9091C211.906 21.3333 212.773 21.5455 213.766 21.5455C214.41 21.5455 214.997 21.4545 215.527 21.2727C216.058 21.0833 216.516 20.803 216.902 20.4318C217.289 20.0606 217.584 19.6023 217.789 19.0568L221.005 19.6364C220.747 20.5833 220.285 21.4129 219.618 22.125C218.959 22.8295 218.13 23.3788 217.13 23.7727C216.137 24.1591 215.005 24.3523 213.732 24.3523ZM2.28409 63V45.5455H5.68182V52.8636H7.31818L13.0795 45.5455H17.2841L10.5227 54.0341L17.3636 63H13.1477L7.88636 56.0227H5.68182V63H2.28409ZM25.0364 63.3523C23.4 63.3523 21.972 62.9773 20.7523 62.2273C19.5326 61.4773 18.5856 60.428 17.9114 59.0795C17.2371 57.7311 16.9 56.1553 16.9 54.3523C16.9 52.5417 17.2371 50.9583 17.9114 49.6023C18.5856 48.2462 19.5326 47.1932 20.7523 46.4432C21.972 45.6932 23.4 45.3182 25.0364 45.3182C26.6727 45.3182 28.1008 45.6932 29.3205 46.4432C30.5402 47.1932 31.4871 48.2462 32.1614 49.6023C32.8356 50.9583 33.1727 52.5417 33.1727 54.3523C33.1727 56.1553 32.8356 57.7311 32.1614 59.0795C31.4871 60.428 30.5402 61.4773 29.3205 62.2273C28.1008 62.9773 26.6727 63.3523 25.0364 63.3523ZM25.0477 60.5C26.1083 60.5 26.9871 60.2197 27.6841 59.6591C28.3811 59.0985 28.8962 58.3523 29.2295 57.4205C29.5705 56.4886 29.7409 55.4621 29.7409 54.3409C29.7409 53.2273 29.5705 52.2045 29.2295 51.2727C28.8962 50.3333 28.3811 49.5795 27.6841 49.0114C26.9871 48.4432 26.1083 48.1591 25.0477 48.1591C23.9795 48.1591 23.0932 48.4432 22.3886 49.0114C21.6917 49.5795 21.1727 50.3333 20.8318 51.2727C20.4985 52.2045 20.3318 53.2273 20.3318 54.3409C20.3318 55.4621 20.4985 56.4886 20.8318 57.4205C21.1727 58.3523 21.6917 59.0985 22.3886 59.6591C23.0932 60.2197 23.9795 60.5 25.0477 60.5ZM45.1608 58.7955L50.7972 45.5455H53.729L46.4222 63H43.8994L36.7403 45.5455H39.6381L45.1608 58.7955ZM38.6949 45.5455V63H35.3653V45.5455H38.6949ZM51.7176 63V45.5455H55.0244V63H51.7176ZM57.9528 63V45.5455H72.1915V63H68.8619V48.4773H61.2597V63H57.9528ZM80.2136 63.3864C79.1076 63.3864 78.1076 63.1818 77.2136 62.7727C76.3197 62.3561 75.6114 61.7538 75.0886 60.9659C74.5735 60.178 74.3159 59.2121 74.3159 58.0682C74.3159 57.0833 74.5053 56.2727 74.8841 55.6364C75.2629 55 75.7742 54.4962 76.4182 54.125C77.0621 53.7538 77.7818 53.4735 78.5773 53.2841C79.3727 53.0947 80.1833 52.9508 81.0091 52.8523C82.0545 52.7311 82.903 52.6326 83.5545 52.5568C84.2061 52.4735 84.6795 52.3409 84.975 52.1591C85.2705 51.9773 85.4182 51.6818 85.4182 51.2727V51.1932C85.4182 50.2008 85.1379 49.4318 84.5773 48.8864C84.0242 48.3409 83.1985 48.0682 82.1 48.0682C80.9561 48.0682 80.0545 48.322 79.3955 48.8295C78.7439 49.3295 78.2932 49.8864 78.0432 50.5L74.85 49.7727C75.2288 48.7121 75.7818 47.8561 76.5091 47.2045C77.2439 46.5455 78.0886 46.0682 79.0432 45.7727C79.9977 45.4697 81.0015 45.3182 82.0545 45.3182C82.7515 45.3182 83.4902 45.4015 84.2705 45.5682C85.0583 45.7273 85.7932 46.0227 86.475 46.4545C87.1644 46.8864 87.7288 47.5038 88.1682 48.3068C88.6076 49.1023 88.8273 50.1364 88.8273 51.4091V63H85.5091V60.6136H85.3727C85.153 61.053 84.8235 61.4848 84.3841 61.9091C83.9447 62.3333 83.3803 62.6856 82.6909 62.9659C82.0015 63.2462 81.1758 63.3864 80.2136 63.3864ZM80.9523 60.6591C81.8917 60.6591 82.6947 60.4735 83.3614 60.1023C84.0356 59.7311 84.547 59.2462 84.8955 58.6477C85.2515 58.0417 85.4295 57.3939 85.4295 56.7045V54.4545C85.3083 54.5758 85.0735 54.6894 84.725 54.7955C84.3841 54.8939 83.9939 54.9811 83.5545 55.0568C83.1152 55.125 82.6871 55.1894 82.2705 55.25C81.8538 55.303 81.5053 55.3485 81.225 55.3864C80.5659 55.4697 79.9636 55.6098 79.4182 55.8068C78.8803 56.0038 78.4485 56.2879 78.1227 56.6591C77.8045 57.0227 77.6455 57.5076 77.6455 58.1136C77.6455 58.9545 77.9561 59.5909 78.5773 60.0227C79.1985 60.447 79.9902 60.6591 80.9523 60.6591ZM103.582 52.8068V55.75H94.1278V52.8068H103.582ZM95.0824 45.5455V63H91.7528V45.5455H95.0824ZM105.957 45.5455V63H102.639V45.5455H105.957ZM112.232 58.2386L119.926 45.5455H123.585V63H120.255V50.2955L112.596 63H108.903V45.5455H112.232V58.2386ZM129.882 58.2386L137.576 45.5455H141.235V63H137.905V50.2955L130.246 63H126.553V45.5455H129.882V58.2386Z" fill="white"/>
</svg>
