<svg width="156" height="31" viewBox="0 0 156 31" fill="none" xmlns="http://www.w3.org/2000/svg">
<path d="M0.528409 30V0.90909H6.67898V12.9119H19.1648V0.90909H25.3011V30H19.1648V17.983H6.67898V30H0.528409ZM38.1165 30.4261C35.91 30.4261 34.0019 29.9574 32.392 29.0199C30.7917 28.0729 29.5559 26.7566 28.6847 25.071C27.8134 23.3759 27.3778 21.411 27.3778 19.1761C27.3778 16.9223 27.8134 14.9527 28.6847 13.267C29.5559 11.572 30.7917 10.2557 32.392 9.31818C34.0019 8.37121 35.91 7.89773 38.1165 7.89773C40.3229 7.89773 42.2263 8.37121 43.8267 9.31818C45.4366 10.2557 46.6771 11.572 47.5483 13.267C48.4195 14.9527 48.8551 16.9223 48.8551 19.1761C48.8551 21.411 48.4195 23.3759 47.5483 25.071C46.6771 26.7566 45.4366 28.0729 43.8267 29.0199C42.2263 29.9574 40.3229 30.4261 38.1165 30.4261ZM38.1449 25.7386C39.1487 25.7386 39.9867 25.4545 40.6591 24.8864C41.3314 24.3087 41.8381 23.5227 42.179 22.5284C42.5294 21.5341 42.7045 20.4025 42.7045 19.1335C42.7045 17.8646 42.5294 16.733 42.179 15.7386C41.8381 14.7443 41.3314 13.9583 40.6591 13.3807C39.9867 12.803 39.1487 12.5142 38.1449 12.5142C37.1316 12.5142 36.2794 12.803 35.5881 13.3807C34.9063 13.9583 34.3902 14.7443 34.0398 15.7386C33.6989 16.733 33.5284 17.8646 33.5284 19.1335C33.5284 20.4025 33.6989 21.5341 34.0398 22.5284C34.3902 23.5227 34.9063 24.3087 35.5881 24.8864C36.2794 25.4545 37.1316 25.7386 38.1449 25.7386ZM50.7898 30V8.18182H60.0938C62.7831 8.18182 64.9091 8.69318 66.4716 9.71591C68.0341 10.7386 68.8153 12.1922 68.8153 14.0767C68.8153 15.2604 68.375 16.2453 67.4943 17.0312C66.6136 17.8172 65.392 18.3475 63.8295 18.6222C65.1364 18.7169 66.2491 19.0152 67.1676 19.517C68.0956 20.0095 68.8011 20.6487 69.2841 21.4347C69.7765 22.2206 70.0227 23.0919 70.0227 24.0483C70.0227 25.2888 69.6913 26.3542 69.0284 27.2443C68.375 28.1345 67.4138 28.8163 66.1449 29.2898C64.8854 29.7633 63.3466 30 61.5284 30H50.7898ZM56.429 25.4688H61.5284C62.3712 25.4688 63.0294 25.2699 63.5028 24.8722C63.9858 24.465 64.2273 23.911 64.2273 23.2102C64.2273 22.4337 63.9858 21.8229 63.5028 21.3778C63.0294 20.9328 62.3712 20.7102 61.5284 20.7102H56.429V25.4688ZM56.429 17.1591H60.2216C60.8277 17.1591 61.3438 17.0739 61.7699 16.9034C62.2055 16.7235 62.5369 16.4678 62.7642 16.1364C63.0009 15.8049 63.1193 15.4119 63.1193 14.9574C63.1193 14.285 62.8494 13.7595 62.3097 13.3807C61.7699 13.0019 61.0312 12.8125 60.0938 12.8125H56.429V17.1591ZM81.6946 30.4261C79.4882 30.4261 77.58 29.9574 75.9702 29.0199C74.3698 28.0729 73.134 26.7566 72.2628 25.071C71.3916 23.3759 70.956 21.411 70.956 19.1761C70.956 16.9223 71.3916 14.9527 72.2628 13.267C73.134 11.572 74.3698 10.2557 75.9702 9.31818C77.58 8.37121 79.4882 7.89773 81.6946 7.89773C83.901 7.89773 85.8045 8.37121 87.4048 9.31818C89.0147 10.2557 90.2552 11.572 91.1264 13.267C91.9976 14.9527 92.4332 16.9223 92.4332 19.1761C92.4332 21.411 91.9976 23.3759 91.1264 25.071C90.2552 26.7566 89.0147 28.0729 87.4048 29.0199C85.8045 29.9574 83.901 30.4261 81.6946 30.4261ZM81.723 25.7386C82.7268 25.7386 83.5649 25.4545 84.2372 24.8864C84.9096 24.3087 85.4162 23.5227 85.7571 22.5284C86.1075 21.5341 86.2827 20.4025 86.2827 19.1335C86.2827 17.8646 86.1075 16.733 85.7571 15.7386C85.4162 14.7443 84.9096 13.9583 84.2372 13.3807C83.5649 12.803 82.7268 12.5142 81.723 12.5142C80.7098 12.5142 79.8575 12.803 79.1662 13.3807C78.4844 13.9583 77.9683 14.7443 77.6179 15.7386C77.277 16.733 77.1065 17.8646 77.1065 19.1335C77.1065 20.4025 77.277 21.5341 77.6179 22.5284C77.9683 23.5227 78.4844 24.3087 79.1662 24.8864C79.8575 25.4545 80.7098 25.7386 81.723 25.7386ZM104.226 30.4261C101.991 30.4261 100.069 29.9527 98.4588 29.0057C96.8584 28.0492 95.6274 26.7235 94.7656 25.0284C93.9134 23.3333 93.4872 21.3826 93.4872 19.1761C93.4872 16.9413 93.9181 14.9811 94.7798 13.2955C95.651 11.6004 96.8868 10.2794 98.4872 9.33239C100.088 8.37595 101.991 7.89773 104.197 7.89773C106.101 7.89773 107.768 8.24337 109.197 8.93466C110.627 9.62595 111.759 10.5966 112.592 11.8466C113.426 13.0966 113.885 14.5644 113.97 16.25H108.26C108.099 15.161 107.673 14.285 106.982 13.6222C106.3 12.9498 105.405 12.6136 104.297 12.6136C103.359 12.6136 102.54 12.8693 101.839 13.3807C101.148 13.8826 100.608 14.6165 100.22 15.5824C99.8319 16.5483 99.6378 17.7178 99.6378 19.0909C99.6378 20.483 99.8272 21.6667 100.206 22.642C100.594 23.6174 101.139 24.3608 101.839 24.8722C102.54 25.3835 103.359 25.6392 104.297 25.6392C104.988 25.6392 105.608 25.4972 106.158 25.2131C106.716 24.929 107.176 24.517 107.536 23.9773C107.905 23.428 108.146 22.7699 108.26 22.0028H113.97C113.875 23.6695 113.421 25.1373 112.607 26.4062C111.802 27.6657 110.689 28.6506 109.268 29.3608C107.848 30.071 106.167 30.4261 104.226 30.4261ZM114.357 12.9403V8.18182H134.129V12.9403H127.098V30H121.331V12.9403H114.357ZM141.579 22.017L149.434 8.18182H155.4V30H149.633V16.1222L141.806 30H135.798V8.18182H141.579V22.017Z" fill="#4A4339"/>
</svg>
