<svg width="187" height="39" viewBox="0 0 187 39" fill="none" xmlns="http://www.w3.org/2000/svg">
<path d="M24.2585 0.90909V30H18.179V5.90909H6.41761V30H0.338068V0.90909H24.2585ZM34.2223 30.4119C32.8303 30.4119 31.5897 30.1705 30.5007 29.6875C29.4117 29.1951 28.55 28.4706 27.9155 27.5142C27.2905 26.5483 26.978 25.3456 26.978 23.9062C26.978 22.6941 27.2005 21.6761 27.6456 20.8523C28.0907 20.0284 28.6967 19.3655 29.4638 18.8636C30.2308 18.3617 31.102 17.983 32.0774 17.7273C33.0623 17.4716 34.0945 17.2917 35.174 17.1875C36.4429 17.0549 37.4657 16.9318 38.2422 16.8182C39.0187 16.6951 39.5822 16.5152 39.9325 16.2784C40.2829 16.0417 40.4581 15.6913 40.4581 15.2273V15.142C40.4581 14.2424 40.174 13.5464 39.6058 13.054C39.0471 12.5616 38.2517 12.3153 37.2195 12.3153C36.1304 12.3153 35.264 12.5568 34.62 13.0398C33.9761 13.5133 33.55 14.1098 33.3416 14.8295L27.745 14.375C28.0291 13.0492 28.5878 11.9034 29.4212 10.9375C30.2545 9.96212 31.3293 9.21401 32.6456 8.69318C33.9714 8.16288 35.5054 7.89773 37.2479 7.89773C38.46 7.89773 39.62 8.03977 40.728 8.32386C41.8454 8.60795 42.835 9.0483 43.6967 9.64489C44.5679 10.2415 45.2545 11.0085 45.7564 11.946C46.2583 12.8741 46.5092 13.9867 46.5092 15.2841V30H40.7706V26.9744H40.6001C40.2498 27.6562 39.781 28.2576 39.1939 28.7784C38.6068 29.2898 37.9013 29.6922 37.0774 29.9858C36.2536 30.2699 35.3018 30.4119 34.2223 30.4119ZM35.9553 26.2358C36.8454 26.2358 37.6314 26.0606 38.3132 25.7102C38.995 25.3504 39.5301 24.8674 39.9183 24.2614C40.3066 23.6553 40.5007 22.9687 40.5007 22.2017V19.8864C40.3113 20.0095 40.0509 20.1231 39.7195 20.2273C39.3975 20.322 39.0329 20.4119 38.6257 20.4972C38.2185 20.5729 37.8113 20.6439 37.4041 20.7102C36.9969 20.767 36.6276 20.8191 36.2962 20.8665C35.5859 20.9706 34.9657 21.1364 34.4354 21.3636C33.9051 21.5909 33.4931 21.8987 33.1996 22.2869C32.906 22.6657 32.7592 23.1392 32.7592 23.7074C32.7592 24.5312 33.0575 25.161 33.6541 25.5966C34.2602 26.0227 35.0272 26.2358 35.9553 26.2358ZM49.2038 38.1818V8.18182H55.1697V11.8466H55.4396C55.7048 11.2595 56.0883 10.6629 56.5902 10.0568C57.1016 9.44129 57.7644 8.92992 58.5788 8.52273C59.4027 8.10606 60.4254 7.89773 61.647 7.89773C63.2379 7.89773 64.7057 8.31439 66.0504 9.14773C67.3951 9.97159 68.4699 11.2169 69.2749 12.8835C70.0798 14.5407 70.4822 16.6193 70.4822 19.1193C70.4822 21.553 70.0893 23.608 69.3033 25.2841C68.5268 26.9508 67.4661 28.215 66.1214 29.0767C64.7862 29.929 63.29 30.3551 61.6328 30.3551C60.4586 30.3551 59.4595 30.161 58.6357 29.7727C57.8213 29.3845 57.1536 28.8968 56.6328 28.3097C56.112 27.7131 55.7143 27.1117 55.4396 26.5057H55.255V38.1818H49.2038ZM55.1271 19.0909C55.1271 20.3883 55.3071 21.5199 55.6669 22.4858C56.0268 23.4517 56.5476 24.2045 57.2294 24.7443C57.9112 25.2746 58.7398 25.5398 59.7152 25.5398C60.7 25.5398 61.5334 25.2699 62.2152 24.7301C62.897 24.1809 63.4131 23.4233 63.7635 22.4574C64.1233 21.482 64.3033 20.3598 64.3033 19.0909C64.3033 17.8314 64.1281 16.7235 63.7777 15.767C63.4273 14.8106 62.9112 14.0625 62.2294 13.5227C61.5476 12.983 60.7095 12.7131 59.7152 12.7131C58.7304 12.7131 57.897 12.9735 57.2152 13.4943C56.5429 14.0152 56.0268 14.7538 55.6669 15.7102C55.3071 16.6667 55.1271 17.7936 55.1271 19.0909ZM70.4034 12.9403V8.18182H90.1761V12.9403H83.1449V30H77.3778V12.9403H70.4034ZM107.029 16.6761V21.4347H95.6371V16.6761H107.029ZM97.6257 8.18182V30H91.8445V8.18182H97.6257ZM110.822 8.18182V30H105.083V8.18182H110.822ZM123.46 30.4261C121.215 30.4261 119.283 29.9716 117.664 29.0625C116.054 28.1439 114.814 26.8466 113.942 25.1705C113.071 23.4848 112.636 21.4915 112.636 19.1903C112.636 16.946 113.071 14.9763 113.942 13.2812C114.814 11.5862 116.04 10.2652 117.621 9.31818C119.212 8.37121 121.078 7.89773 123.218 7.89773C124.657 7.89773 125.997 8.12973 127.238 8.59375C128.488 9.0483 129.577 9.73485 130.505 10.6534C131.442 11.572 132.172 12.7273 132.692 14.1193C133.213 15.5019 133.474 17.1212 133.474 18.9773V20.6392H115.05V16.8892H127.778C127.778 16.018 127.588 15.2462 127.21 14.5739C126.831 13.9015 126.305 13.3759 125.633 12.9972C124.97 12.6089 124.198 12.4148 123.317 12.4148C122.399 12.4148 121.585 12.6278 120.874 13.054C120.174 13.4706 119.624 14.0341 119.227 14.7443C118.829 15.4451 118.625 16.2263 118.616 17.0881V20.6534C118.616 21.733 118.815 22.6657 119.212 23.4517C119.62 24.2377 120.192 24.8438 120.931 25.2699C121.67 25.696 122.546 25.9091 123.559 25.9091C124.231 25.9091 124.847 25.8144 125.406 25.625C125.964 25.4356 126.442 25.1515 126.84 24.7727C127.238 24.3939 127.541 23.9299 127.749 23.3807L133.346 23.75C133.062 25.0947 132.479 26.2689 131.599 27.2727C130.728 28.267 129.601 29.0436 128.218 29.6023C126.845 30.1515 125.259 30.4261 123.46 30.4261ZM135.423 38.1818V8.18182H141.388V11.8466H141.658C141.924 11.2595 142.307 10.6629 142.809 10.0568C143.32 9.44129 143.983 8.92992 144.798 8.52273C145.621 8.10606 146.644 7.89773 147.866 7.89773C149.457 7.89773 150.924 8.31439 152.269 9.14773C153.614 9.97159 154.689 11.2169 155.494 12.8835C156.299 14.5407 156.701 16.6193 156.701 19.1193C156.701 21.553 156.308 23.608 155.522 25.2841C154.746 26.9508 153.685 28.215 152.34 29.0767C151.005 29.929 149.509 30.3551 147.852 30.3551C146.677 30.3551 145.678 30.161 144.854 29.7727C144.04 29.3845 143.372 28.8968 142.852 28.3097C142.331 27.7131 141.933 27.1117 141.658 26.5057H141.474V38.1818H135.423ZM141.346 19.0909C141.346 20.3883 141.526 21.5199 141.886 22.4858C142.246 23.4517 142.766 24.2045 143.448 24.7443C144.13 25.2746 144.959 25.5398 145.934 25.5398C146.919 25.5398 147.752 25.2699 148.434 24.7301C149.116 24.1809 149.632 23.4233 149.982 22.4574C150.342 21.482 150.522 20.3598 150.522 19.0909C150.522 17.8314 150.347 16.7235 149.996 15.767C149.646 14.8106 149.13 14.0625 148.448 13.5227C147.766 12.983 146.928 12.7131 145.934 12.7131C144.949 12.7131 144.116 12.9735 143.434 13.4943C142.762 14.0152 142.246 14.7538 141.886 15.7102C141.526 16.6667 141.346 17.7936 141.346 19.0909ZM162.528 14.8864H169.048C171.936 14.8864 174.19 15.5777 175.809 16.9602C177.428 18.3333 178.238 20.1705 178.238 22.4716C178.238 23.9678 177.873 25.2841 177.144 26.4205C176.415 27.5473 175.364 28.428 173.991 29.0625C172.618 29.6875 170.97 30 169.048 30H158.735V8.18182H164.516V25.2415H169.048C170.061 25.2415 170.894 24.9858 171.548 24.4744C172.201 23.9631 172.532 23.3097 172.542 22.5142C172.532 21.6714 172.201 20.9848 171.548 20.4545C170.894 19.9148 170.061 19.6449 169.048 19.6449H162.528V14.8864ZM180.582 30V8.18182H186.633V30H180.582Z" fill="#4A4339"/>
</svg>
