<svg width="244" height="70" viewBox="0 0 244 70" fill="none" xmlns="http://www.w3.org/2000/svg">
<path d="M18.75 0.727272V24H15.25V3.72727H4.29545V24H0.795455V0.727272H18.75ZM29.7693 24.3523C28.0496 24.3523 26.5686 23.9848 25.3261 23.25C24.0913 22.5076 23.1367 21.4659 22.4625 20.125C21.7958 18.7765 21.4625 17.197 21.4625 15.3864C21.4625 13.5985 21.7958 12.0227 22.4625 10.6591C23.1367 9.29545 24.0761 8.23106 25.2807 7.46591C26.4928 6.70076 27.9095 6.31818 29.5307 6.31818C30.5155 6.31818 31.4701 6.48106 32.3943 6.80682C33.3186 7.13258 34.1481 7.64394 34.883 8.34091C35.6178 9.03788 36.1973 9.94318 36.6216 11.0568C37.0458 12.1629 37.258 13.5076 37.258 15.0909V16.2955H23.383V13.75H33.9284C33.9284 12.8561 33.7466 12.0644 33.383 11.375C33.0193 10.678 32.508 10.1288 31.8489 9.72727C31.1973 9.32576 30.4322 9.125 29.5534 9.125C28.5989 9.125 27.7655 9.35985 27.0534 9.82955C26.3489 10.2917 25.8034 10.8977 25.417 11.6477C25.0383 12.3902 24.8489 13.197 24.8489 14.0682V16.0568C24.8489 17.2235 25.0534 18.2159 25.4625 19.0341C25.8792 19.8523 26.4587 20.4773 27.2011 20.9091C27.9436 21.3333 28.811 21.5455 29.8034 21.5455C30.4473 21.5455 31.0345 21.4545 31.5648 21.2727C32.0951 21.0833 32.5534 20.803 32.9398 20.4318C33.3261 20.0606 33.6216 19.6023 33.8261 19.0568L37.042 19.6364C36.7845 20.5833 36.3223 21.4129 35.6557 22.125C34.9966 22.8295 34.167 23.3788 33.167 23.7727C32.1746 24.1591 31.042 24.3523 29.7693 24.3523ZM39.4278 30.5455V6.54545H42.746V9.375H43.0301C43.2271 9.01136 43.5112 8.59091 43.8824 8.11364C44.2536 7.63636 44.7687 7.2197 45.4278 6.86364C46.0869 6.5 46.9581 6.31818 48.0415 6.31818C49.4506 6.31818 50.7081 6.67424 51.8142 7.38636C52.9203 8.09848 53.7877 9.125 54.4165 10.4659C55.0528 11.8068 55.371 13.4205 55.371 15.3068C55.371 17.1932 55.0566 18.8106 54.4278 20.1591C53.7991 21.5 52.9354 22.5341 51.8369 23.2614C50.7384 23.9811 49.4847 24.3409 48.0756 24.3409C47.015 24.3409 46.1475 24.1629 45.4733 23.8068C44.8066 23.4508 44.2839 23.0341 43.9051 22.5568C43.5263 22.0795 43.2347 21.6553 43.0301 21.2841H42.8256V30.5455H39.4278ZM42.7574 15.2727C42.7574 16.5 42.9354 17.5758 43.2915 18.5C43.6475 19.4242 44.1627 20.1477 44.8369 20.6705C45.5112 21.1856 46.3369 21.4432 47.3142 21.4432C48.3294 21.4432 49.1778 21.1742 49.8597 20.6364C50.5415 20.0909 51.0566 19.3523 51.4051 18.4205C51.7612 17.4886 51.9392 16.4394 51.9392 15.2727C51.9392 14.1212 51.765 13.0871 51.4165 12.1705C51.0756 11.2538 50.5604 10.5303 49.871 10C49.1892 9.4697 48.3369 9.20455 47.3142 9.20455C46.3294 9.20455 45.496 9.45833 44.8142 9.96591C44.14 10.4735 43.6286 11.1818 43.2801 12.0909C42.9316 13 42.7574 14.0606 42.7574 15.2727ZM65.1006 24.3523C63.3809 24.3523 61.8998 23.9848 60.6574 23.25C59.4225 22.5076 58.468 21.4659 57.7938 20.125C57.1271 18.7765 56.7938 17.197 56.7938 15.3864C56.7938 13.5985 57.1271 12.0227 57.7938 10.6591C58.468 9.29545 59.4074 8.23106 60.6119 7.46591C61.8241 6.70076 63.2407 6.31818 64.8619 6.31818C65.8468 6.31818 66.8013 6.48106 67.7256 6.80682C68.6498 7.13258 69.4794 7.64394 70.2142 8.34091C70.9491 9.03788 71.5286 9.94318 71.9528 11.0568C72.3771 12.1629 72.5892 13.5076 72.5892 15.0909V16.2955H58.7142V13.75H69.2597C69.2597 12.8561 69.0778 12.0644 68.7142 11.375C68.3506 10.678 67.8392 10.1288 67.1801 9.72727C66.5286 9.32576 65.7634 9.125 64.8847 9.125C63.9301 9.125 63.0968 9.35985 62.3847 9.82955C61.6801 10.2917 61.1347 10.8977 60.7483 11.6477C60.3695 12.3902 60.1801 13.197 60.1801 14.0682V16.0568C60.1801 17.2235 60.3847 18.2159 60.7938 19.0341C61.2104 19.8523 61.79 20.4773 62.5324 20.9091C63.2748 21.3333 64.1422 21.5455 65.1347 21.5455C65.7786 21.5455 66.3657 21.4545 66.896 21.2727C67.4263 21.0833 67.8847 20.803 68.271 20.4318C68.6574 20.0606 68.9528 19.6023 69.1574 19.0568L72.3733 19.6364C72.1157 20.5833 71.6536 21.4129 70.9869 22.125C70.3278 22.8295 69.4983 23.3788 68.4983 23.7727C67.5059 24.1591 66.3733 24.3523 65.1006 24.3523ZM74.7591 30.5455V6.54545H78.0773V9.375H78.3614C78.5583 9.01136 78.8424 8.59091 79.2136 8.11364C79.5848 7.63636 80.1 7.2197 80.7591 6.86364C81.4182 6.5 82.2894 6.31818 83.3727 6.31818C84.7818 6.31818 86.0394 6.67424 87.1455 7.38636C88.2515 8.09848 89.1189 9.125 89.7477 10.4659C90.3841 11.8068 90.7023 13.4205 90.7023 15.3068C90.7023 17.1932 90.3879 18.8106 89.7591 20.1591C89.1303 21.5 88.2667 22.5341 87.1682 23.2614C86.0697 23.9811 84.8159 24.3409 83.4068 24.3409C82.3462 24.3409 81.4788 24.1629 80.8045 23.8068C80.1379 23.4508 79.6152 23.0341 79.2364 22.5568C78.8576 22.0795 78.5659 21.6553 78.3614 21.2841H78.1568V30.5455H74.7591ZM78.0886 15.2727C78.0886 16.5 78.2667 17.5758 78.6227 18.5C78.9788 19.4242 79.4939 20.1477 80.1682 20.6705C80.8424 21.1856 81.6682 21.4432 82.6455 21.4432C83.6606 21.4432 84.5091 21.1742 85.1909 20.6364C85.8727 20.0909 86.3879 19.3523 86.7364 18.4205C87.0924 17.4886 87.2705 16.4394 87.2705 15.2727C87.2705 14.1212 87.0962 13.0871 86.7477 12.1705C86.4068 11.2538 85.8917 10.5303 85.2023 10C84.5205 9.4697 83.6682 9.20455 82.6455 9.20455C81.6606 9.20455 80.8273 9.45833 80.1455 9.96591C79.4712 10.4735 78.9598 11.1818 78.6114 12.0909C78.2629 13 78.0886 14.0606 78.0886 15.2727ZM97.9886 24.3864C96.8826 24.3864 95.8826 24.1818 94.9886 23.7727C94.0947 23.3561 93.3864 22.7538 92.8636 21.9659C92.3485 21.178 92.0909 20.2121 92.0909 19.0682C92.0909 18.0833 92.2803 17.2727 92.6591 16.6364C93.0379 16 93.5492 15.4962 94.1932 15.125C94.8371 14.7538 95.5568 14.4735 96.3523 14.2841C97.1477 14.0947 97.9583 13.9508 98.7841 13.8523C99.8295 13.7311 100.678 13.6326 101.33 13.5568C101.981 13.4735 102.455 13.3409 102.75 13.1591C103.045 12.9773 103.193 12.6818 103.193 12.2727V12.1932C103.193 11.2008 102.913 10.4318 102.352 9.88636C101.799 9.34091 100.973 9.06818 99.875 9.06818C98.7311 9.06818 97.8295 9.32197 97.1705 9.82955C96.5189 10.3295 96.0682 10.8864 95.8182 11.5L92.625 10.7727C93.0038 9.71212 93.5568 8.85606 94.2841 8.20455C95.0189 7.54545 95.8636 7.06818 96.8182 6.77273C97.7727 6.4697 98.7765 6.31818 99.8295 6.31818C100.527 6.31818 101.265 6.40152 102.045 6.56818C102.833 6.72727 103.568 7.02273 104.25 7.45454C104.939 7.88636 105.504 8.50379 105.943 9.30682C106.383 10.1023 106.602 11.1364 106.602 12.4091V24H103.284V21.6136H103.148C102.928 22.053 102.598 22.4848 102.159 22.9091C101.72 23.3333 101.155 23.6856 100.466 23.9659C99.7765 24.2462 98.9508 24.3864 97.9886 24.3864ZM98.7273 21.6591C99.6667 21.6591 100.47 21.4735 101.136 21.1023C101.811 20.7311 102.322 20.2462 102.67 19.6477C103.027 19.0417 103.205 18.3939 103.205 17.7045V15.4545C103.083 15.5758 102.848 15.6894 102.5 15.7955C102.159 15.8939 101.769 15.9811 101.33 16.0568C100.89 16.125 100.462 16.1894 100.045 16.25C99.6288 16.303 99.2803 16.3485 99 16.3864C98.3409 16.4697 97.7386 16.6098 97.1932 16.8068C96.6553 17.0038 96.2235 17.2879 95.8977 17.6591C95.5795 18.0227 95.4205 18.5076 95.4205 19.1136C95.4205 19.9545 95.7311 20.5909 96.3523 21.0227C96.9735 21.447 97.7652 21.6591 98.7273 21.6591ZM122.994 0.045454L124.403 2.19318C123.88 2.67045 123.285 3.01136 122.619 3.21591C121.96 3.41288 121.198 3.53788 120.335 3.59091C119.471 3.63636 118.482 3.67803 117.369 3.71591C116.111 3.75379 115.077 4.02651 114.266 4.53409C113.456 5.03409 112.831 5.77651 112.391 6.76136C111.96 7.73864 111.679 8.96591 111.551 10.4432H111.766C112.335 9.35985 113.123 8.54924 114.13 8.01136C115.145 7.47348 116.285 7.20454 117.551 7.20454C118.96 7.20454 120.213 7.52651 121.312 8.17045C122.41 8.81439 123.274 9.75758 123.903 11C124.539 12.2348 124.857 13.7462 124.857 15.5341C124.857 17.3447 124.524 18.9091 123.857 20.2273C123.198 21.5455 122.266 22.5644 121.062 23.2841C119.865 23.9962 118.452 24.3523 116.823 24.3523C115.195 24.3523 113.774 23.9848 112.562 23.25C111.357 22.5076 110.422 21.4091 109.755 19.9545C109.096 18.5 108.766 16.7045 108.766 14.5682V12.8409C108.766 8.84848 109.479 5.8447 110.903 3.82954C112.327 1.81439 114.456 0.780303 117.289 0.727272C118.206 0.704545 119.024 0.700757 119.744 0.715908C120.463 0.723484 121.092 0.689393 121.63 0.613636C122.176 0.530303 122.63 0.340909 122.994 0.045454ZM116.835 21.5C117.782 21.5 118.596 21.2614 119.278 20.7841C119.967 20.2992 120.498 19.6136 120.869 18.7273C121.24 17.8409 121.426 16.7955 121.426 15.5909C121.426 14.4091 121.24 13.4053 120.869 12.5795C120.498 11.7538 119.967 11.125 119.278 10.6932C118.588 10.2538 117.763 10.0341 116.801 10.0341C116.088 10.0341 115.452 10.1591 114.891 10.4091C114.331 10.6515 113.85 11.0114 113.448 11.4886C113.054 11.9659 112.748 12.5492 112.528 13.2386C112.316 13.9205 112.202 14.7045 112.187 15.5909C112.187 17.3939 112.6 18.8295 113.426 19.8977C114.259 20.9659 115.395 21.5 116.835 21.5ZM134.405 24.3523C132.769 24.3523 131.341 23.9773 130.121 23.2273C128.901 22.4773 127.954 21.428 127.28 20.0795C126.606 18.7311 126.269 17.1553 126.269 15.3523C126.269 13.5417 126.606 11.9583 127.28 10.6023C127.954 9.24621 128.901 8.19318 130.121 7.44318C131.341 6.69318 132.769 6.31818 134.405 6.31818C136.041 6.31818 137.47 6.69318 138.689 7.44318C139.909 8.19318 140.856 9.24621 141.53 10.6023C142.204 11.9583 142.541 13.5417 142.541 15.3523C142.541 17.1553 142.204 18.7311 141.53 20.0795C140.856 21.428 139.909 22.4773 138.689 23.2273C137.47 23.9773 136.041 24.3523 134.405 24.3523ZM134.416 21.5C135.477 21.5 136.356 21.2197 137.053 20.6591C137.75 20.0985 138.265 19.3523 138.598 18.4205C138.939 17.4886 139.11 16.4621 139.11 15.3409C139.11 14.2273 138.939 13.2045 138.598 12.2727C138.265 11.3333 137.75 10.5795 137.053 10.0114C136.356 9.44318 135.477 9.15909 134.416 9.15909C133.348 9.15909 132.462 9.44318 131.757 10.0114C131.06 10.5795 130.541 11.3333 130.201 12.2727C129.867 13.2045 129.701 14.2273 129.701 15.3409C129.701 16.4621 129.867 17.4886 130.201 18.4205C130.541 19.3523 131.06 20.0985 131.757 20.6591C132.462 21.2197 133.348 21.5 134.416 21.5ZM142.632 9.47727V6.54545H157.359V9.47727H151.666V24H148.348V9.47727H142.632ZM172.552 6.54545V24H169.234V6.54545H172.552ZM171.109 14.6477V17.5795C170.586 17.7917 170.033 17.9811 169.449 18.1477C168.866 18.3068 168.252 18.4318 167.609 18.5227C166.965 18.6136 166.294 18.6591 165.597 18.6591C163.438 18.6591 161.722 18.1326 160.449 17.0795C159.177 16.0189 158.54 14.3977 158.54 12.2159V6.51136H161.847V12.2159C161.847 13.0417 161.999 13.7121 162.302 14.2273C162.605 14.7424 163.037 15.1212 163.597 15.3636C164.158 15.6061 164.824 15.7273 165.597 15.7273C166.62 15.7273 167.563 15.6326 168.427 15.4432C169.298 15.2462 170.192 14.9811 171.109 14.6477ZM178.801 19.2386L186.494 6.54545H190.153V24H186.824V11.2955L179.165 24H175.472V6.54545H178.801V19.2386ZM193.122 24V6.54545H196.519V13.8636H198.156L203.917 6.54545H208.122L201.36 15.0341L208.201 24H203.985L198.724 17.0227H196.519V24H193.122ZM212.57 19.2386L220.263 6.54545H223.922V24H220.593V11.2955L212.934 24H209.24V6.54545H212.57V19.2386ZM3.61364 58.2386L11.3068 45.5455H14.9659V63H11.6364V50.2955L3.97727 63H0.284091V45.5455H3.61364V58.2386ZM24.8028 63V45.5455H39.0415V63H35.7119V48.4773H28.1097V63H24.8028ZM41.9841 69.5455V45.5455H45.3023V48.375H45.5864C45.7833 48.0114 46.0674 47.5909 46.4386 47.1136C46.8098 46.6364 47.325 46.2197 47.9841 45.8636C48.6432 45.5 49.5144 45.3182 50.5977 45.3182C52.0068 45.3182 53.2644 45.6742 54.3705 46.3864C55.4765 47.0985 56.3439 48.125 56.9727 49.4659C57.6091 50.8068 57.9273 52.4205 57.9273 54.3068C57.9273 56.1932 57.6129 57.8106 56.9841 59.1591C56.3553 60.5 55.4917 61.5341 54.3932 62.2614C53.2947 62.9811 52.0409 63.3409 50.6318 63.3409C49.5712 63.3409 48.7038 63.1629 48.0295 62.8068C47.3629 62.4508 46.8402 62.0341 46.4614 61.5568C46.0826 61.0795 45.7909 60.6553 45.5864 60.2841H45.3818V69.5455H41.9841ZM45.3136 54.2727C45.3136 55.5 45.4917 56.5758 45.8477 57.5C46.2038 58.4242 46.7189 59.1477 47.3932 59.6705C48.0674 60.1856 48.8932 60.4432 49.8705 60.4432C50.8856 60.4432 51.7341 60.1742 52.4159 59.6364C53.0977 59.0909 53.6129 58.3523 53.9614 57.4205C54.3174 56.4886 54.4955 55.4394 54.4955 54.2727C54.4955 53.1212 54.3212 52.0871 53.9727 51.1705C53.6318 50.2538 53.1167 49.5303 52.4273 49C51.7455 48.4697 50.8932 48.2045 49.8705 48.2045C48.8856 48.2045 48.0523 48.4583 47.3705 48.9659C46.6962 49.4735 46.1848 50.1818 45.8364 51.0909C45.4879 52 45.3136 53.0606 45.3136 54.2727ZM67.4864 63.3523C65.85 63.3523 64.422 62.9773 63.2023 62.2273C61.9826 61.4773 61.0356 60.428 60.3614 59.0795C59.6871 57.7311 59.35 56.1553 59.35 54.3523C59.35 52.5417 59.6871 50.9583 60.3614 49.6023C61.0356 48.2462 61.9826 47.1932 63.2023 46.4432C64.422 45.6932 65.85 45.3182 67.4864 45.3182C69.1227 45.3182 70.5508 45.6932 71.7705 46.4432C72.9902 47.1932 73.9371 48.2462 74.6114 49.6023C75.2856 50.9583 75.6227 52.5417 75.6227 54.3523C75.6227 56.1553 75.2856 57.7311 74.6114 59.0795C73.9371 60.428 72.9902 61.4773 71.7705 62.2273C70.5508 62.9773 69.1227 63.3523 67.4864 63.3523ZM67.4977 60.5C68.5583 60.5 69.4371 60.2197 70.1341 59.6591C70.8311 59.0985 71.3462 58.3523 71.6795 57.4205C72.0205 56.4886 72.1909 55.4621 72.1909 54.3409C72.1909 53.2273 72.0205 52.2045 71.6795 51.2727C71.3462 50.3333 70.8311 49.5795 70.1341 49.0114C69.4371 48.4432 68.5583 48.1591 67.4977 48.1591C66.4295 48.1591 65.5432 48.4432 64.8386 49.0114C64.1417 49.5795 63.6227 50.3333 63.2818 51.2727C62.9485 52.2045 62.7818 53.2273 62.7818 54.3409C62.7818 55.4621 62.9485 56.4886 63.2818 57.4205C63.6227 58.3523 64.1417 59.0985 64.8386 59.6591C65.5432 60.2197 66.4295 60.5 67.4977 60.5ZM81.1449 58.2386L88.8381 45.5455H92.4972V63H89.1676V50.2955L81.5085 63H77.8153V45.5455H81.1449V58.2386ZM94.4313 58.3864H97.9085C97.954 59.0985 98.2759 59.6477 98.8744 60.0341C99.4805 60.4205 100.265 60.6136 101.227 60.6136C102.204 60.6136 103.037 60.4053 103.727 59.9886C104.416 59.5644 104.761 58.9091 104.761 58.0227C104.761 57.4924 104.628 57.0303 104.363 56.6364C104.105 56.2348 103.738 55.9242 103.261 55.7045C102.791 55.4848 102.234 55.375 101.59 55.375H98.7494V52.7045H101.59C102.552 52.7045 103.272 52.4848 103.749 52.0455C104.227 51.6061 104.465 51.0568 104.465 50.3977C104.465 49.6856 104.208 49.1136 103.693 48.6818C103.185 48.2424 102.477 48.0227 101.568 48.0227C100.643 48.0227 99.8744 48.2311 99.2608 48.6477C98.6472 49.0568 98.3252 49.5871 98.2949 50.2386H94.8631C94.8858 49.2614 95.1813 48.4053 95.7494 47.6705C96.3252 46.928 97.0979 46.3523 98.0676 45.9432C99.0449 45.5265 100.155 45.3182 101.397 45.3182C102.693 45.3182 103.814 45.5265 104.761 45.9432C105.708 46.3598 106.439 46.9356 106.954 47.6705C107.477 48.4053 107.738 49.25 107.738 50.2045C107.738 51.1667 107.45 51.9545 106.874 52.5682C106.306 53.1742 105.564 53.6098 104.647 53.875V54.0568C105.321 54.1023 105.92 54.3068 106.443 54.6705C106.965 55.0341 107.374 55.5152 107.67 56.1136C107.965 56.7121 108.113 57.3902 108.113 58.1477C108.113 59.2159 107.818 60.1402 107.227 60.9205C106.643 61.7008 105.833 62.303 104.795 62.7273C103.765 63.1439 102.587 63.3523 101.261 63.3523C99.9729 63.3523 98.8176 63.1515 97.7949 62.75C96.7797 62.3409 95.9729 61.7652 95.3744 61.0227C94.7835 60.2803 94.4691 59.4015 94.4313 58.3864ZM110.022 63V45.5455H117.26C119.23 45.5455 120.791 45.9659 121.942 46.8068C123.094 47.6402 123.669 48.7727 123.669 50.2045C123.669 51.2273 123.344 52.0379 122.692 52.6364C122.041 53.2348 121.177 53.6364 120.101 53.8409C120.881 53.9318 121.597 54.1667 122.249 54.5455C122.9 54.9167 123.423 55.4167 123.817 56.0455C124.219 56.6742 124.419 57.4242 124.419 58.2955C124.419 59.2197 124.181 60.0379 123.703 60.75C123.226 61.4545 122.533 62.0076 121.624 62.4091C120.722 62.803 119.635 63 118.363 63H110.022ZM113.215 60.1591H118.363C119.203 60.1591 119.863 59.9583 120.34 59.5568C120.817 59.1553 121.056 58.6098 121.056 57.9205C121.056 57.1098 120.817 56.4735 120.34 56.0114C119.863 55.5417 119.203 55.3068 118.363 55.3068H113.215V60.1591ZM113.215 52.8182H117.294C117.931 52.8182 118.476 52.7273 118.931 52.5455C119.393 52.3636 119.745 52.1061 119.988 51.7727C120.238 51.4318 120.363 51.0303 120.363 50.5682C120.363 49.8939 120.086 49.3674 119.533 48.9886C118.98 48.6098 118.222 48.4205 117.26 48.4205H113.215V52.8182ZM133.899 63.3523C132.262 63.3523 130.834 62.9773 129.615 62.2273C128.395 61.4773 127.448 60.428 126.774 59.0795C126.1 57.7311 125.762 56.1553 125.762 54.3523C125.762 52.5417 126.1 50.9583 126.774 49.6023C127.448 48.2462 128.395 47.1932 129.615 46.4432C130.834 45.6932 132.262 45.3182 133.899 45.3182C135.535 45.3182 136.963 45.6932 138.183 46.4432C139.403 47.1932 140.35 48.2462 141.024 49.6023C141.698 50.9583 142.035 52.5417 142.035 54.3523C142.035 56.1553 141.698 57.7311 141.024 59.0795C140.35 60.428 139.403 61.4773 138.183 62.2273C136.963 62.9773 135.535 63.3523 133.899 63.3523ZM133.91 60.5C134.971 60.5 135.85 60.2197 136.547 59.6591C137.244 59.0985 137.759 58.3523 138.092 57.4205C138.433 56.4886 138.603 55.4621 138.603 54.3409C138.603 53.2273 138.433 52.2045 138.092 51.2727C137.759 50.3333 137.244 49.5795 136.547 49.0114C135.85 48.4432 134.971 48.1591 133.91 48.1591C132.842 48.1591 131.956 48.4432 131.251 49.0114C130.554 49.5795 130.035 50.3333 129.694 51.2727C129.361 52.2045 129.194 53.2273 129.194 54.3409C129.194 55.4621 129.361 56.4886 129.694 57.4205C130.035 58.3523 130.554 59.0985 131.251 59.6591C131.956 60.2197 132.842 60.5 133.91 60.5ZM142.523 68.0341V60.0568H143.944C144.307 59.7235 144.614 59.3258 144.864 58.8636C145.122 58.4015 145.338 57.8523 145.512 57.2159C145.694 56.5795 145.845 55.8371 145.966 54.9886C146.088 54.1326 146.194 53.1553 146.285 52.0568L146.83 45.5455H158.694V60.0568H161.376V68.0341H158.057V63H145.887V68.0341H142.523ZM147.58 60.0568H155.376V48.4545H149.876L149.512 52.0568C149.338 53.8902 149.118 55.4811 148.853 56.8295C148.588 58.1705 148.163 59.2462 147.58 60.0568ZM166.426 58.2386L174.119 45.5455H177.778V63H174.449V50.2955L166.79 63H163.097V45.5455H166.426V58.2386ZM178.582 48.4773V45.5455H193.309V48.4773H187.616V63H184.298V48.4773H178.582ZM202.013 63.3523C200.293 63.3523 198.812 62.9848 197.57 62.25C196.335 61.5076 195.38 60.4659 194.706 59.125C194.04 57.7765 193.706 56.197 193.706 54.3864C193.706 52.5985 194.04 51.0227 194.706 49.6591C195.38 48.2955 196.32 47.2311 197.524 46.4659C198.737 45.7008 200.153 45.3182 201.774 45.3182C202.759 45.3182 203.714 45.4811 204.638 45.8068C205.562 46.1326 206.392 46.6439 207.127 47.3409C207.862 48.0379 208.441 48.9432 208.865 50.0568C209.29 51.1629 209.502 52.5076 209.502 54.0909V55.2955H195.627V52.75H206.172C206.172 51.8561 205.99 51.0644 205.627 50.375C205.263 49.678 204.752 49.1288 204.093 48.7273C203.441 48.3258 202.676 48.125 201.797 48.125C200.843 48.125 200.009 48.3598 199.297 48.8295C198.593 49.2917 198.047 49.8977 197.661 50.6477C197.282 51.3902 197.093 52.197 197.093 53.0682V55.0568C197.093 56.2235 197.297 57.2159 197.706 58.0341C198.123 58.8523 198.702 59.4773 199.445 59.9091C200.187 60.3333 201.055 60.5455 202.047 60.5455C202.691 60.5455 203.278 60.4545 203.809 60.2727C204.339 60.0833 204.797 59.803 205.184 59.4318C205.57 59.0606 205.865 58.6023 206.07 58.0568L209.286 58.6364C209.028 59.5833 208.566 60.4129 207.899 61.125C207.24 61.8295 206.411 62.3788 205.411 62.7727C204.418 63.1591 203.286 63.3523 202.013 63.3523ZM210.297 63L210.285 60.0568H210.91C211.395 60.0568 211.8 59.9545 212.126 59.75C212.459 59.5379 212.732 59.1818 212.944 58.6818C213.156 58.1818 213.319 57.4924 213.433 56.6136C213.547 55.7273 213.63 54.6136 213.683 53.2727L213.99 45.5455H226.172V63H222.842V48.4773H217.137L216.865 54.4091C216.797 55.8485 216.649 57.1061 216.422 58.1818C216.202 59.2576 215.88 60.1553 215.456 60.875C215.031 61.5871 214.486 62.1212 213.819 62.4773C213.153 62.8258 212.342 63 211.387 63H210.297ZM232.432 58.2386L240.126 45.5455H243.785V63H240.455V50.2955L232.796 63H229.103V45.5455H232.432V58.2386Z" fill="white"/>
</svg>
