<svg width="318" height="108" viewBox="0 0 318 108" fill="none" xmlns="http://www.w3.org/2000/svg">
<path d="M19.75 0.727272V24H16.25V3.72727H5.29545V24H1.79545V0.727272H19.75ZM30.5989 24.3523C28.9625 24.3523 27.5345 23.9773 26.3148 23.2273C25.0951 22.4773 24.1481 21.428 23.4739 20.0795C22.7996 18.7311 22.4625 17.1553 22.4625 15.3523C22.4625 13.5417 22.7996 11.9583 23.4739 10.6023C24.1481 9.24621 25.0951 8.19318 26.3148 7.44318C27.5345 6.69318 28.9625 6.31818 30.5989 6.31818C32.2352 6.31818 33.6633 6.69318 34.883 7.44318C36.1027 8.19318 37.0496 9.24621 37.7239 10.6023C38.3981 11.9583 38.7352 13.5417 38.7352 15.3523C38.7352 17.1553 38.3981 18.7311 37.7239 20.0795C37.0496 21.428 36.1027 22.4773 34.883 23.2273C33.6633 23.9773 32.2352 24.3523 30.5989 24.3523ZM30.6102 21.5C31.6708 21.5 32.5496 21.2197 33.2466 20.6591C33.9436 20.0985 34.4587 19.3523 34.792 18.4205C35.133 17.4886 35.3034 16.4621 35.3034 15.3409C35.3034 14.2273 35.133 13.2045 34.792 12.2727C34.4587 11.3333 33.9436 10.5795 33.2466 10.0114C32.5496 9.44318 31.6708 9.15909 30.6102 9.15909C29.542 9.15909 28.6557 9.44318 27.9511 10.0114C27.2542 10.5795 26.7352 11.3333 26.3943 12.2727C26.061 13.2045 25.8943 14.2273 25.8943 15.3409C25.8943 16.4621 26.061 17.4886 26.3943 18.4205C26.7352 19.3523 27.2542 20.0985 27.9511 20.6591C28.6557 21.2197 29.542 21.5 30.6102 21.5ZM38.8256 9.47727V6.54545H53.5528V9.47727H47.8597V24H44.5415V9.47727H38.8256ZM55.5466 30.5455V6.54545H58.8648V9.375H59.1489C59.3458 9.01136 59.6299 8.59091 60.0011 8.11364C60.3723 7.63636 60.8875 7.2197 61.5466 6.86364C62.2057 6.5 63.0769 6.31818 64.1602 6.31818C65.5693 6.31818 66.8269 6.67424 67.933 7.38636C69.039 8.09848 69.9064 9.125 70.5352 10.4659C71.1716 11.8068 71.4898 13.4205 71.4898 15.3068C71.4898 17.1932 71.1754 18.8106 70.5466 20.1591C69.9178 21.5 69.0542 22.5341 67.9557 23.2614C66.8572 23.9811 65.6034 24.3409 64.1943 24.3409C63.1337 24.3409 62.2663 24.1629 61.592 23.8068C60.9254 23.4508 60.4027 23.0341 60.0239 22.5568C59.6451 22.0795 59.3534 21.6553 59.1489 21.2841H58.9443V30.5455H55.5466ZM58.8761 15.2727C58.8761 16.5 59.0542 17.5758 59.4102 18.5C59.7663 19.4242 60.2814 20.1477 60.9557 20.6705C61.6299 21.1856 62.4557 21.4432 63.433 21.4432C64.4481 21.4432 65.2966 21.1742 65.9784 20.6364C66.6602 20.0909 67.1754 19.3523 67.5239 18.4205C67.8799 17.4886 68.058 16.4394 68.058 15.2727C68.058 14.1212 67.8837 13.0871 67.5352 12.1705C67.1943 11.2538 66.6792 10.5303 65.9898 10C65.308 9.4697 64.4557 9.20455 63.433 9.20455C62.4481 9.20455 61.6148 9.45833 60.933 9.96591C60.2587 10.4735 59.7473 11.1818 59.3989 12.0909C59.0504 13 58.8761 14.0606 58.8761 15.2727ZM81.2193 24.3523C79.4996 24.3523 78.0186 23.9848 76.7761 23.25C75.5413 22.5076 74.5867 21.4659 73.9125 20.125C73.2458 18.7765 72.9125 17.197 72.9125 15.3864C72.9125 13.5985 73.2458 12.0227 73.9125 10.6591C74.5867 9.29545 75.5261 8.23106 76.7307 7.46591C77.9428 6.70076 79.3595 6.31818 80.9807 6.31818C81.9655 6.31818 82.9201 6.48106 83.8443 6.80682C84.7686 7.13258 85.5981 7.64394 86.333 8.34091C87.0678 9.03788 87.6473 9.94318 88.0716 11.0568C88.4958 12.1629 88.708 13.5076 88.708 15.0909V16.2955H74.833V13.75H85.3784C85.3784 12.8561 85.1966 12.0644 84.833 11.375C84.4693 10.678 83.958 10.1288 83.2989 9.72727C82.6473 9.32576 81.8822 9.125 81.0034 9.125C80.0489 9.125 79.2155 9.35985 78.5034 9.82955C77.7989 10.2917 77.2534 10.8977 76.867 11.6477C76.4883 12.3902 76.2989 13.197 76.2989 14.0682V16.0568C76.2989 17.2235 76.5034 18.2159 76.9125 19.0341C77.3292 19.8523 77.9087 20.4773 78.6511 20.9091C79.3936 21.3333 80.261 21.5455 81.2534 21.5455C81.8973 21.5455 82.4845 21.4545 83.0148 21.2727C83.5451 21.0833 84.0034 20.803 84.3898 20.4318C84.7761 20.0606 85.0716 19.6023 85.2761 19.0568L88.492 19.6364C88.2345 20.5833 87.7723 21.4129 87.1057 22.125C86.4466 22.8295 85.617 23.3788 84.617 23.7727C83.6246 24.1591 82.492 24.3523 81.2193 24.3523ZM104.344 0.045454L105.753 2.19318C105.23 2.67045 104.635 3.01136 103.969 3.21591C103.31 3.41288 102.548 3.53788 101.685 3.59091C100.821 3.63636 99.8324 3.67803 98.7188 3.71591C97.4612 3.75379 96.4271 4.02651 95.6165 4.53409C94.8059 5.03409 94.1809 5.77651 93.7415 6.76136C93.3097 7.73864 93.0294 8.96591 92.9006 10.4432H93.1165C93.6847 9.35985 94.4725 8.54924 95.4801 8.01136C96.4953 7.47348 97.6354 7.20454 98.9006 7.20454C100.31 7.20454 101.563 7.52651 102.662 8.17045C103.76 8.81439 104.624 9.75758 105.253 11C105.889 12.2348 106.207 13.7462 106.207 15.5341C106.207 17.3447 105.874 18.9091 105.207 20.2273C104.548 21.5455 103.616 22.5644 102.412 23.2841C101.215 23.9962 99.8021 24.3523 98.1733 24.3523C96.5445 24.3523 95.1241 23.9848 93.9119 23.25C92.7074 22.5076 91.7718 21.4091 91.1051 19.9545C90.446 18.5 90.1165 16.7045 90.1165 14.5682V12.8409C90.1165 8.84848 90.8286 5.8447 92.2528 3.82954C93.6771 1.81439 95.8059 0.780303 98.6392 0.727272C99.5559 0.704545 100.374 0.700757 101.094 0.715908C101.813 0.723484 102.442 0.689393 102.98 0.613636C103.526 0.530303 103.98 0.340909 104.344 0.045454ZM98.1847 21.5C99.1316 21.5 99.946 21.2614 100.628 20.7841C101.317 20.2992 101.848 19.6136 102.219 18.7273C102.59 17.8409 102.776 16.7955 102.776 15.5909C102.776 14.4091 102.59 13.4053 102.219 12.5795C101.848 11.7538 101.317 11.125 100.628 10.6932C99.9384 10.2538 99.1127 10.0341 98.1506 10.0341C97.4384 10.0341 96.8021 10.1591 96.2415 10.4091C95.6809 10.6515 95.1998 11.0114 94.7983 11.4886C94.4044 11.9659 94.0975 12.5492 93.8778 13.2386C93.6657 13.9205 93.5521 14.7045 93.5369 15.5909C93.5369 17.3939 93.9498 18.8295 94.7756 19.8977C95.6089 20.9659 96.7453 21.5 98.1847 21.5ZM111.732 19.2386L119.426 6.54545H123.085V24H119.755V11.2955L112.096 24H108.403V6.54545H111.732V19.2386ZM123.888 9.47727V6.54545H138.615V9.47727H132.922V24H129.604V9.47727H123.888ZM147.319 24.3523C145.6 24.3523 144.119 23.9848 142.876 23.25C141.641 22.5076 140.687 21.4659 140.012 20.125C139.346 18.7765 139.012 17.197 139.012 15.3864C139.012 13.5985 139.346 12.0227 140.012 10.6591C140.687 9.29545 141.626 8.23106 142.831 7.46591C144.043 6.70076 145.459 6.31818 147.081 6.31818C148.066 6.31818 149.02 6.48106 149.944 6.80682C150.869 7.13258 151.698 7.64394 152.433 8.34091C153.168 9.03788 153.747 9.94318 154.172 11.0568C154.596 12.1629 154.808 13.5076 154.808 15.0909V16.2955H140.933V13.75H151.478C151.478 12.8561 151.297 12.0644 150.933 11.375C150.569 10.678 150.058 10.1288 149.399 9.72727C148.747 9.32576 147.982 9.125 147.103 9.125C146.149 9.125 145.316 9.35985 144.603 9.82955C143.899 10.2917 143.353 10.8977 142.967 11.6477C142.588 12.3902 142.399 13.197 142.399 14.0682V16.0568C142.399 17.2235 142.603 18.2159 143.012 19.0341C143.429 19.8523 144.009 20.4773 144.751 20.9091C145.494 21.3333 146.361 21.5455 147.353 21.5455C147.997 21.5455 148.584 21.4545 149.115 21.2727C149.645 21.0833 150.103 20.803 150.49 20.4318C150.876 20.0606 151.172 19.6023 151.376 19.0568L154.592 19.6364C154.334 20.5833 153.872 21.4129 153.206 22.125C152.547 22.8295 151.717 23.3788 150.717 23.7727C149.725 24.1591 148.592 24.3523 147.319 24.3523ZM155.603 24L155.591 21.0568H156.216C156.701 21.0568 157.107 20.9545 157.432 20.75C157.766 20.5379 158.038 20.1818 158.251 19.6818C158.463 19.1818 158.626 18.4924 158.739 17.6136C158.853 16.7273 158.936 15.6136 158.989 14.2727L159.296 6.54545H171.478V24H168.148V9.47727H162.444L162.171 15.4091C162.103 16.8485 161.955 18.1061 161.728 19.1818C161.508 20.2576 161.186 21.1553 160.762 21.875C160.338 22.5871 159.792 23.1212 159.126 23.4773C158.459 23.8258 157.648 24 156.694 24H155.603ZM177.739 19.2386L185.432 6.54545H189.091V24H185.761V11.2955L178.102 24H174.409V6.54545H177.739V19.2386ZM2.27273 53.3409C2.27273 50.4924 2.64773 47.8712 3.39773 45.4773C4.14773 43.0833 5.24242 40.875 6.68182 38.8523H9.79545C9.23485 39.6023 8.71212 40.5227 8.22727 41.6136C7.74242 42.7045 7.31818 43.9015 6.95455 45.2045C6.59091 46.5 6.30682 47.8447 6.10227 49.2386C5.89773 50.625 5.79545 51.9924 5.79545 53.3409C5.79545 55.1439 5.97349 56.9697 6.32955 58.8182C6.68561 60.6667 7.16667 62.3826 7.77273 63.9659C8.37879 65.5492 9.05303 66.8409 9.79545 67.8409H6.68182C5.24242 65.8182 4.14773 63.6098 3.39773 61.2159C2.64773 58.822 2.27273 56.197 2.27273 53.3409ZM18.8176 63.3523C17.1812 63.3523 15.7532 62.9773 14.5335 62.2273C13.3138 61.4773 12.3669 60.428 11.6926 59.0795C11.0184 57.7311 10.6812 56.1553 10.6812 54.3523C10.6812 52.5417 11.0184 50.9583 11.6926 49.6023C12.3669 48.2462 13.3138 47.1932 14.5335 46.4432C15.7532 45.6932 17.1812 45.3182 18.8176 45.3182C20.454 45.3182 21.882 45.6932 23.1017 46.4432C24.3214 47.1932 25.2684 48.2462 25.9426 49.6023C26.6169 50.9583 26.954 52.5417 26.954 54.3523C26.954 56.1553 26.6169 57.7311 25.9426 59.0795C25.2684 60.428 24.3214 61.4773 23.1017 62.2273C21.882 62.9773 20.454 63.3523 18.8176 63.3523ZM18.829 60.5C19.8896 60.5 20.7684 60.2197 21.4653 59.6591C22.1623 59.0985 22.6775 58.3523 23.0108 57.4205C23.3517 56.4886 23.5222 55.4621 23.5222 54.3409C23.5222 53.2273 23.3517 52.2045 23.0108 51.2727C22.6775 50.3333 22.1623 49.5795 21.4653 49.0114C20.7684 48.4432 19.8896 48.1591 18.829 48.1591C17.7608 48.1591 16.8744 48.4432 16.1699 49.0114C15.4729 49.5795 14.954 50.3333 14.6131 51.2727C14.2797 52.2045 14.1131 53.2273 14.1131 54.3409C14.1131 55.4621 14.2797 56.4886 14.6131 57.4205C14.954 58.3523 15.4729 59.0985 16.1699 59.6591C16.8744 60.2197 17.7608 60.5 18.829 60.5ZM29.1466 63V45.5455H43.3852V63H40.0557V48.4773H32.4534V63H29.1466ZM44.1631 48.4773V45.5455H58.8903V48.4773H53.1972V63H49.879V48.4773H44.1631ZM67.4239 63.3523C65.7875 63.3523 64.3595 62.9773 63.1398 62.2273C61.9201 61.4773 60.9731 60.428 60.2989 59.0795C59.6246 57.7311 59.2875 56.1553 59.2875 54.3523C59.2875 52.5417 59.6246 50.9583 60.2989 49.6023C60.9731 48.2462 61.9201 47.1932 63.1398 46.4432C64.3595 45.6932 65.7875 45.3182 67.4239 45.3182C69.0602 45.3182 70.4883 45.6932 71.708 46.4432C72.9277 47.1932 73.8746 48.2462 74.5489 49.6023C75.2231 50.9583 75.5602 52.5417 75.5602 54.3523C75.5602 56.1553 75.2231 57.7311 74.5489 59.0795C73.8746 60.428 72.9277 61.4773 71.708 62.2273C70.4883 62.9773 69.0602 63.3523 67.4239 63.3523ZM67.4352 60.5C68.4958 60.5 69.3746 60.2197 70.0716 59.6591C70.7686 59.0985 71.2837 58.3523 71.617 57.4205C71.958 56.4886 72.1284 55.4621 72.1284 54.3409C72.1284 53.2273 71.958 52.2045 71.617 51.2727C71.2837 50.3333 70.7686 49.5795 70.0716 49.0114C69.3746 48.4432 68.4958 48.1591 67.4352 48.1591C66.367 48.1591 65.4807 48.4432 64.7761 49.0114C64.0792 49.5795 63.5602 50.3333 63.2193 51.2727C62.886 52.2045 62.7193 53.2273 62.7193 54.3409C62.7193 55.4621 62.886 56.4886 63.2193 57.4205C63.5602 58.3523 64.0792 59.0985 64.7761 59.6591C65.4807 60.2197 66.367 60.5 67.4352 60.5ZM77.7528 63V45.5455H84.9915C86.9612 45.5455 88.5218 45.9659 89.6733 46.8068C90.8248 47.6402 91.4006 48.7727 91.4006 50.2045C91.4006 51.2273 91.0748 52.0379 90.4233 52.6364C89.7718 53.2348 88.9081 53.6364 87.8324 53.8409C88.6127 53.9318 89.3286 54.1667 89.9801 54.5455C90.6316 54.9167 91.1544 55.4167 91.5483 56.0455C91.9498 56.6742 92.1506 57.4242 92.1506 58.2955C92.1506 59.2197 91.9119 60.0379 91.4347 60.75C90.9574 61.4545 90.2642 62.0076 89.3551 62.4091C88.4536 62.803 87.3665 63 86.0938 63H77.7528ZM80.946 60.1591H86.0938C86.9347 60.1591 87.5938 59.9583 88.071 59.5568C88.5483 59.1553 88.7869 58.6098 88.7869 57.9205C88.7869 57.1098 88.5483 56.4735 88.071 56.0114C87.5938 55.5417 86.9347 55.3068 86.0938 55.3068H80.946V60.1591ZM80.946 52.8182H85.0256C85.6619 52.8182 86.2074 52.7273 86.6619 52.5455C87.1241 52.3636 87.4763 52.1061 87.7188 51.7727C87.9688 51.4318 88.0938 51.0303 88.0938 50.5682C88.0938 49.8939 87.8172 49.3674 87.2642 48.9886C86.7112 48.6098 85.9536 48.4205 84.9915 48.4205H80.946V52.8182ZM97.6074 58.2386L105.301 45.5455H108.96V63H105.63V50.2955L97.971 63H94.2778V45.5455H97.6074V58.2386ZM111.928 63V45.5455H115.326V52.8636H116.962L122.723 45.5455H126.928L120.166 54.0341L127.007 63H122.791L117.53 56.0227H115.326V63H111.928ZM131.376 58.2386L139.069 45.5455H142.728V63H139.399V50.2955L131.74 63H128.047V45.5455H131.376V58.2386ZM150.117 59.8182L149.947 61.0568C149.833 61.9659 149.64 62.9129 149.367 63.8977C149.102 64.8902 148.825 65.8106 148.538 66.6591C148.257 67.5076 148.026 68.1818 147.844 68.6818H145.435C145.534 68.2121 145.67 67.5758 145.844 66.7727C146.019 65.9773 146.189 65.0871 146.356 64.1023C146.522 63.1174 146.647 62.1136 146.731 61.0909L146.844 59.8182H150.117ZM159.809 69.5455V45.5455H163.127V48.375H163.411C163.608 48.0114 163.892 47.5909 164.264 47.1136C164.635 46.6364 165.15 46.2197 165.809 45.8636C166.468 45.5 167.339 45.3182 168.423 45.3182C169.832 45.3182 171.089 45.6742 172.195 46.3864C173.302 47.0985 174.169 48.125 174.798 49.4659C175.434 50.8068 175.752 52.4205 175.752 54.3068C175.752 56.1932 175.438 57.8106 174.809 59.1591C174.18 60.5 173.317 61.5341 172.218 62.2614C171.12 62.9811 169.866 63.3409 168.457 63.3409C167.396 63.3409 166.529 63.1629 165.855 62.8068C165.188 62.4508 164.665 62.0341 164.286 61.5568C163.908 61.0795 163.616 60.6553 163.411 60.2841H163.207V69.5455H159.809ZM163.139 54.2727C163.139 55.5 163.317 56.5758 163.673 57.5C164.029 58.4242 164.544 59.1477 165.218 59.6705C165.892 60.1856 166.718 60.4432 167.695 60.4432C168.711 60.4432 169.559 60.1742 170.241 59.6364C170.923 59.0909 171.438 58.3523 171.786 57.4205C172.142 56.4886 172.32 55.4394 172.32 54.2727C172.32 53.1212 172.146 52.0871 171.798 51.1705C171.457 50.2538 170.942 49.5303 170.252 49C169.57 48.4697 168.718 48.2045 167.695 48.2045C166.711 48.2045 165.877 48.4583 165.195 48.9659C164.521 49.4735 164.01 50.1818 163.661 51.0909C163.313 52 163.139 53.0606 163.139 54.2727ZM185.311 63.3523C183.675 63.3523 182.247 62.9773 181.027 62.2273C179.808 61.4773 178.861 60.428 178.186 59.0795C177.512 57.7311 177.175 56.1553 177.175 54.3523C177.175 52.5417 177.512 50.9583 178.186 49.6023C178.861 48.2462 179.808 47.1932 181.027 46.4432C182.247 45.6932 183.675 45.3182 185.311 45.3182C186.948 45.3182 188.376 45.6932 189.595 46.4432C190.815 47.1932 191.762 48.2462 192.436 49.6023C193.111 50.9583 193.448 52.5417 193.448 54.3523C193.448 56.1553 193.111 57.7311 192.436 59.0795C191.762 60.428 190.815 61.4773 189.595 62.2273C188.376 62.9773 186.948 63.3523 185.311 63.3523ZM185.323 60.5C186.383 60.5 187.262 60.2197 187.959 59.6591C188.656 59.0985 189.171 58.3523 189.505 57.4205C189.845 56.4886 190.016 55.4621 190.016 54.3409C190.016 53.2273 189.845 52.2045 189.505 51.2727C189.171 50.3333 188.656 49.5795 187.959 49.0114C187.262 48.4432 186.383 48.1591 185.323 48.1591C184.255 48.1591 183.368 48.4432 182.664 49.0114C181.967 49.5795 181.448 50.3333 181.107 51.2727C180.773 52.2045 180.607 53.2273 180.607 54.3409C180.607 55.4621 180.773 56.4886 181.107 57.4205C181.448 58.3523 181.967 59.0985 182.664 59.6591C183.368 60.2197 184.255 60.5 185.323 60.5ZM194.606 58.3864H198.084C198.129 59.0985 198.451 59.6477 199.049 60.0341C199.655 60.4205 200.44 60.6136 201.402 60.6136C202.379 60.6136 203.212 60.4053 203.902 59.9886C204.591 59.5644 204.936 58.9091 204.936 58.0227C204.936 57.4924 204.803 57.0303 204.538 56.6364C204.28 56.2348 203.913 55.9242 203.436 55.7045C202.966 55.4848 202.409 55.375 201.765 55.375H198.924V52.7045H201.765C202.727 52.7045 203.447 52.4848 203.924 52.0455C204.402 51.6061 204.64 51.0568 204.64 50.3977C204.64 49.6856 204.383 49.1136 203.868 48.6818C203.36 48.2424 202.652 48.0227 201.743 48.0227C200.818 48.0227 200.049 48.2311 199.436 48.6477C198.822 49.0568 198.5 49.5871 198.47 50.2386H195.038C195.061 49.2614 195.356 48.4053 195.924 47.6705C196.5 46.928 197.273 46.3523 198.243 45.9432C199.22 45.5265 200.33 45.3182 201.572 45.3182C202.868 45.3182 203.989 45.5265 204.936 45.9432C205.883 46.3598 206.614 46.9356 207.129 47.6705C207.652 48.4053 207.913 49.25 207.913 50.2045C207.913 51.1667 207.625 51.9545 207.049 52.5682C206.481 53.1742 205.739 53.6098 204.822 53.875V54.0568C205.496 54.1023 206.095 54.3068 206.618 54.6705C207.14 55.0341 207.549 55.5152 207.845 56.1136C208.14 56.7121 208.288 57.3902 208.288 58.1477C208.288 59.2159 207.993 60.1402 207.402 60.9205C206.818 61.7008 206.008 62.303 204.97 62.7273C203.94 63.1439 202.762 63.3523 201.436 63.3523C200.148 63.3523 198.993 63.1515 197.97 62.75C196.955 62.3409 196.148 61.7652 195.549 61.0227C194.959 60.2803 194.644 59.4015 194.606 58.3864ZM222.026 52.8068V55.75H212.572V52.8068H222.026ZM213.526 45.5455V63H210.197V45.5455H213.526ZM224.401 45.5455V63H221.083V45.5455H224.401ZM230.676 58.2386L238.369 45.5455H242.028V63H238.699V50.2955L231.04 63H227.347V45.5455H230.676V58.2386ZM259.008 45.5455V63H255.69V45.5455H259.008ZM257.565 53.6477V56.5795C257.042 56.7917 256.489 56.9811 255.906 57.1477C255.322 57.3068 254.709 57.4318 254.065 57.5227C253.421 57.6136 252.75 57.6591 252.053 57.6591C249.894 57.6591 248.178 57.1326 246.906 56.0795C245.633 55.0189 244.997 53.3977 244.997 51.2159V45.5114H248.303V51.2159C248.303 52.0417 248.455 52.7121 248.758 53.2273C249.061 53.7424 249.493 54.1212 250.053 54.3636C250.614 54.6061 251.281 54.7273 252.053 54.7273C253.076 54.7273 254.019 54.6326 254.883 54.4432C255.754 54.2462 256.648 53.9811 257.565 53.6477ZM273.757 52.8068V55.75H264.303V52.8068H273.757ZM265.257 45.5455V63H261.928V45.5455H265.257ZM276.132 45.5455V63H272.814V45.5455H276.132ZM281.635 51.5455H286.703C288.839 51.5455 290.483 52.0758 291.635 53.1364C292.786 54.197 293.362 55.5644 293.362 57.2386C293.362 58.3295 293.104 59.3106 292.589 60.1818C292.074 61.053 291.32 61.7424 290.328 62.25C289.335 62.75 288.127 63 286.703 63H279.078V45.5455H282.407V60.0682H286.703C287.68 60.0682 288.483 59.8144 289.112 59.3068C289.741 58.7917 290.055 58.1364 290.055 57.3409C290.055 56.5 289.741 55.8144 289.112 55.2841C288.483 54.7462 287.68 54.4773 286.703 54.4773H281.635V51.5455ZM295.839 63V45.5455H299.237V63H295.839ZM309.719 63.3523C308 63.3523 306.519 62.9848 305.276 62.25C304.041 61.5076 303.087 60.4659 302.413 59.125C301.746 57.7765 301.413 56.197 301.413 54.3864C301.413 52.5985 301.746 51.0227 302.413 49.6591C303.087 48.2955 304.026 47.2311 305.231 46.4659C306.443 45.7008 307.859 45.3182 309.481 45.3182C310.466 45.3182 311.42 45.4811 312.344 45.8068C313.269 46.1326 314.098 46.6439 314.833 47.3409C315.568 48.0379 316.147 48.9432 316.572 50.0568C316.996 51.1629 317.208 52.5076 317.208 54.0909V55.2955H303.333V52.75H313.878C313.878 51.8561 313.697 51.0644 313.333 50.375C312.969 49.678 312.458 49.1288 311.799 48.7273C311.147 48.3258 310.382 48.125 309.503 48.125C308.549 48.125 307.716 48.3598 307.003 48.8295C306.299 49.2917 305.753 49.8977 305.367 50.6477C304.988 51.3902 304.799 52.197 304.799 53.0682V55.0568C304.799 56.2235 305.003 57.2159 305.413 58.0341C305.829 58.8523 306.409 59.4773 307.151 59.9091C307.894 60.3333 308.761 60.5455 309.753 60.5455C310.397 60.5455 310.984 60.4545 311.515 60.2727C312.045 60.0833 312.503 59.803 312.89 59.4318C313.276 59.0606 313.572 58.6023 313.776 58.0568L316.992 58.6364C316.734 59.5833 316.272 60.4129 315.606 61.125C314.947 61.8295 314.117 62.3788 313.117 62.7727C312.125 63.1591 310.992 63.3523 309.719 63.3523ZM8.63636 102.352C6.94697 102.352 5.49242 101.97 4.27273 101.205C3.06061 100.432 2.12879 99.3674 1.47727 98.0114C0.825758 96.6553 0.5 95.1023 0.5 93.3523C0.5 91.5795 0.833333 90.0152 1.5 88.6591C2.16667 87.2955 3.10606 86.2311 4.31818 85.4659C5.5303 84.7008 6.95833 84.3182 8.60227 84.3182C9.92803 84.3182 11.1098 84.5644 12.1477 85.0568C13.1856 85.5417 14.0227 86.2235 14.6591 87.1023C15.303 87.9811 15.6856 89.0076 15.8068 90.1818H12.5C12.3182 89.3636 11.9015 88.6591 11.25 88.0682C10.6061 87.4773 9.74242 87.1818 8.65909 87.1818C7.71212 87.1818 6.88258 87.4318 6.17045 87.9318C5.46591 88.4242 4.91667 89.1288 4.52273 90.0455C4.12879 90.9545 3.93182 92.0303 3.93182 93.2727C3.93182 94.5455 4.125 95.6439 4.51136 96.5682C4.89773 97.4924 5.44318 98.2083 6.14773 98.7159C6.85985 99.2235 7.69697 99.4773 8.65909 99.4773C9.30303 99.4773 9.88636 99.3598 10.4091 99.125C10.9394 98.8826 11.3826 98.5379 11.7386 98.0909C12.1023 97.6439 12.3561 97.1061 12.5 96.4773H15.8068C15.6856 97.6061 15.3182 98.6136 14.7045 99.5C14.0909 100.386 13.2689 101.083 12.2386 101.591C11.2159 102.098 10.0152 102.352 8.63636 102.352ZM25.3631 102.352C23.6434 102.352 22.1623 101.985 20.9199 101.25C19.685 100.508 18.7305 99.4659 18.0562 98.125C17.3896 96.7765 17.0562 95.197 17.0562 93.3864C17.0562 91.5985 17.3896 90.0227 18.0562 88.6591C18.7305 87.2955 19.6699 86.2311 20.8744 85.4659C22.0866 84.7008 23.5032 84.3182 25.1244 84.3182C26.1093 84.3182 27.0638 84.4811 27.9881 84.8068C28.9123 85.1326 29.7419 85.6439 30.4767 86.3409C31.2116 87.0379 31.7911 87.9432 32.2153 89.0568C32.6396 90.1629 32.8517 91.5076 32.8517 93.0909V94.2955H18.9767V91.75H29.5222C29.5222 90.8561 29.3403 90.0644 28.9767 89.375C28.6131 88.678 28.1017 88.1288 27.4426 87.7273C26.7911 87.3258 26.0259 87.125 25.1472 87.125C24.1926 87.125 23.3593 87.3598 22.6472 87.8295C21.9426 88.2917 21.3972 88.8977 21.0108 89.6477C20.632 90.3902 20.4426 91.197 20.4426 92.0682V94.0568C20.4426 95.2235 20.6472 96.2159 21.0562 97.0341C21.4729 97.8523 22.0525 98.4773 22.7949 98.9091C23.5373 99.3333 24.4047 99.5455 25.3972 99.5455C26.0411 99.5455 26.6282 99.4545 27.1585 99.2727C27.6888 99.0833 28.1472 98.803 28.5335 98.4318C28.9199 98.0606 29.2153 97.6023 29.4199 97.0568L32.6358 97.6364C32.3782 98.5833 31.9161 99.4129 31.2494 100.125C30.5903 100.83 29.7608 101.379 28.7608 101.773C27.7684 102.159 26.6358 102.352 25.3631 102.352ZM33.4818 87.4773V84.5455H48.2091V87.4773H42.5159V102H39.1977V87.4773H33.4818ZM53.5324 97.2386L61.2256 84.5455H64.8847V102H61.5551V89.2955L53.896 102H50.2028V84.5455H53.5324V97.2386ZM78.0511 97.2386L85.7443 84.5455H89.4034V102H86.0739V89.2955L78.4148 102H74.7216V84.5455H78.0511V97.2386ZM98.2631 87.4773V84.5455H112.99V87.4773H107.297V102H103.979V87.4773H98.2631ZM114.504 102.216C113.883 102.216 113.349 101.996 112.902 101.557C112.455 101.11 112.231 100.572 112.231 99.9432C112.231 99.322 112.455 98.7917 112.902 98.3523C113.349 97.9053 113.883 97.6818 114.504 97.6818C115.125 97.6818 115.659 97.9053 116.106 98.3523C116.553 98.7917 116.777 99.322 116.777 99.9432C116.777 100.36 116.671 100.742 116.459 101.091C116.254 101.432 115.981 101.705 115.64 101.909C115.299 102.114 114.921 102.216 114.504 102.216ZM118.023 107.034V99.0568H119.444C119.807 98.7235 120.114 98.3258 120.364 97.8636C120.622 97.4015 120.838 96.8523 121.012 96.2159C121.194 95.5795 121.345 94.8371 121.466 93.9886C121.588 93.1326 121.694 92.1553 121.785 91.0568L122.33 84.5455H134.194V99.0568H136.876V107.034H133.557V102H121.387V107.034H118.023ZM123.08 99.0568H130.876V87.4545H125.376L125.012 91.0568C124.838 92.8902 124.618 94.4811 124.353 95.8295C124.088 97.1705 123.663 98.2462 123.08 99.0568ZM140.835 102.216C140.214 102.216 139.68 101.996 139.233 101.557C138.786 101.11 138.562 100.572 138.562 99.9432C138.562 99.322 138.786 98.7917 139.233 98.3523C139.68 97.9053 140.214 97.6818 140.835 97.6818C141.456 97.6818 141.991 97.9053 142.438 98.3523C142.884 98.7917 143.108 99.322 143.108 99.9432C143.108 100.36 143.002 100.742 142.79 101.091C142.585 101.432 142.312 101.705 141.972 101.909C141.631 102.114 141.252 102.216 140.835 102.216ZM152.593 92.3409C152.593 95.197 152.218 97.822 151.468 100.216C150.718 102.61 149.623 104.818 148.184 106.841H145.07C145.631 106.091 146.154 105.17 146.639 104.08C147.123 102.989 147.548 101.795 147.911 100.5C148.275 99.197 148.559 97.8485 148.764 96.4545C148.968 95.0606 149.07 93.6894 149.07 92.3409C149.07 90.5455 148.892 88.7235 148.536 86.875C148.18 85.0265 147.699 83.3106 147.093 81.7273C146.487 80.1439 145.813 78.8523 145.07 77.8523H148.184C149.623 79.875 150.718 82.0833 151.468 84.4773C152.218 86.8712 152.593 89.4924 152.593 92.3409Z" fill="white"/>
</svg>
