<svg width="344" height="70" viewBox="0 0 344 70" fill="none" xmlns="http://www.w3.org/2000/svg">
<path d="M20.8864 8.29545H17.3409C17.2045 7.53788 16.9508 6.87121 16.5795 6.29545C16.2083 5.7197 15.7538 5.23106 15.2159 4.82954C14.678 4.42803 14.0758 4.125 13.4091 3.92045C12.75 3.71591 12.0492 3.61364 11.3068 3.61364C9.96591 3.61364 8.76515 3.95076 7.70455 4.625C6.65152 5.29924 5.81818 6.28788 5.20455 7.59091C4.59848 8.89394 4.29545 10.4848 4.29545 12.3636C4.29545 14.2576 4.59848 15.8561 5.20455 17.1591C5.81818 18.4621 6.6553 19.447 7.71591 20.1136C8.77652 20.7803 9.9697 21.1136 11.2955 21.1136C12.0303 21.1136 12.7273 21.0152 13.3864 20.8182C14.053 20.6136 14.6553 20.3144 15.1932 19.9205C15.7311 19.5265 16.1856 19.0455 16.5568 18.4773C16.9356 17.9015 17.197 17.2424 17.3409 16.5L20.8864 16.5114C20.697 17.6553 20.3295 18.7083 19.7841 19.6705C19.2462 20.625 18.553 21.4508 17.7045 22.1477C16.8636 22.8371 15.9015 23.3712 14.8182 23.75C13.7348 24.1288 12.553 24.3182 11.2727 24.3182C9.25758 24.3182 7.46212 23.8409 5.88636 22.8864C4.31061 21.9242 3.06818 20.5492 2.15909 18.7614C1.25758 16.9735 0.806818 14.8409 0.806818 12.3636C0.806818 9.87879 1.26136 7.74621 2.17045 5.96591C3.07955 4.17803 4.32197 2.80682 5.89773 1.85227C7.47349 0.890151 9.26515 0.40909 11.2727 0.40909C12.5076 0.40909 13.6591 0.587121 14.7273 0.943182C15.803 1.29167 16.7689 1.80682 17.625 2.48864C18.4811 3.16288 19.1894 3.98864 19.75 4.96591C20.3106 5.93561 20.6894 7.04545 20.8864 8.29545ZM30.7381 24.3523C29.0184 24.3523 27.5373 23.9848 26.2949 23.25C25.06 22.5076 24.1055 21.4659 23.4312 20.125C22.7646 18.7765 22.4312 17.197 22.4312 15.3864C22.4312 13.5985 22.7646 12.0227 23.4312 10.6591C24.1055 9.29545 25.0449 8.23106 26.2494 7.46591C27.4616 6.70076 28.8782 6.31818 30.4994 6.31818C31.4843 6.31818 32.4388 6.48106 33.3631 6.80682C34.2873 7.13258 35.1169 7.64394 35.8517 8.34091C36.5866 9.03788 37.1661 9.94318 37.5903 11.0568C38.0146 12.1629 38.2267 13.5076 38.2267 15.0909V16.2955H24.3517V13.75H34.8972C34.8972 12.8561 34.7153 12.0644 34.3517 11.375C33.9881 10.678 33.4767 10.1288 32.8176 9.72727C32.1661 9.32576 31.4009 9.125 30.5222 9.125C29.5676 9.125 28.7343 9.35985 28.0222 9.82955C27.3176 10.2917 26.7722 10.8977 26.3858 11.6477C26.007 12.3902 25.8176 13.197 25.8176 14.0682V16.0568C25.8176 17.2235 26.0222 18.2159 26.4312 19.0341C26.8479 19.8523 27.4275 20.4773 28.1699 20.9091C28.9123 21.3333 29.7797 21.5455 30.7722 21.5455C31.4161 21.5455 32.0032 21.4545 32.5335 21.2727C33.0638 21.0833 33.5222 20.803 33.9085 20.4318C34.2949 20.0606 34.5903 19.6023 34.7949 19.0568L38.0108 19.6364C37.7532 20.5833 37.2911 21.4129 36.6244 22.125C35.9653 22.8295 35.1358 23.3788 34.1358 23.7727C33.1434 24.1591 32.0108 24.3523 30.7381 24.3523ZM39.0216 24L39.0102 21.0568H39.6352C40.1201 21.0568 40.5254 20.9545 40.8511 20.75C41.1845 20.5379 41.4572 20.1818 41.6693 19.6818C41.8814 19.1818 42.0443 18.4924 42.158 17.6136C42.2716 16.7273 42.3549 15.6136 42.408 14.2727L42.7148 6.54545H54.8966V24H51.567V9.47727H45.8625L45.5898 15.4091C45.5216 16.8485 45.3739 18.1061 45.1466 19.1818C44.9269 20.2576 44.6049 21.1553 44.1807 21.875C43.7564 22.5871 43.211 23.1212 42.5443 23.4773C41.8777 23.8258 41.067 24 40.1125 24H39.0216ZM60.3847 12.5455H65.4528C67.5892 12.5455 69.2331 13.0758 70.3847 14.1364C71.5362 15.197 72.1119 16.5644 72.1119 18.2386C72.1119 19.3295 71.8544 20.3106 71.3392 21.1818C70.8241 22.053 70.0703 22.7424 69.0778 23.25C68.0854 23.75 66.8771 24 65.4528 24H57.8278V6.54545H61.1574V21.0682H65.4528C66.4301 21.0682 67.2331 20.8144 67.8619 20.3068C68.4907 19.7917 68.8051 19.1364 68.8051 18.3409C68.8051 17.5 68.4907 16.8144 67.8619 16.2841C67.2331 15.7462 66.4301 15.4773 65.4528 15.4773H60.3847V12.5455ZM81.6739 24.3523C79.9845 24.3523 78.5299 23.9697 77.3102 23.2045C76.0981 22.4318 75.1663 21.3674 74.5148 20.0114C73.8633 18.6553 73.5375 17.1023 73.5375 15.3523C73.5375 13.5795 73.8708 12.0152 74.5375 10.6591C75.2042 9.29545 76.1436 8.23106 77.3557 7.46591C78.5678 6.70076 79.9958 6.31818 81.6398 6.31818C82.9655 6.31818 84.1473 6.56439 85.1852 7.05682C86.2231 7.54167 87.0602 8.22348 87.6966 9.10227C88.3405 9.98106 88.7231 11.0076 88.8443 12.1818H85.5375C85.3557 11.3636 84.939 10.6591 84.2875 10.0682C83.6436 9.47727 82.7799 9.18182 81.6966 9.18182C80.7496 9.18182 79.9201 9.43182 79.208 9.93182C78.5034 10.4242 77.9542 11.1288 77.5602 12.0455C77.1663 12.9545 76.9693 14.0303 76.9693 15.2727C76.9693 16.5455 77.1625 17.6439 77.5489 18.5682C77.9352 19.4924 78.4807 20.2083 79.1852 20.7159C79.8973 21.2235 80.7345 21.4773 81.6966 21.4773C82.3405 21.4773 82.9239 21.3598 83.4466 21.125C83.9769 20.8826 84.4201 20.5379 84.7761 20.0909C85.1398 19.6439 85.3936 19.1061 85.5375 18.4773H88.8443C88.7231 19.6061 88.3557 20.6136 87.742 21.5C87.1284 22.3864 86.3064 23.0833 85.2761 23.5909C84.2534 24.0985 83.0527 24.3523 81.6739 24.3523ZM90.8778 24V6.54545H94.2756V13.8636H95.9119L101.673 6.54545H105.878L99.1165 15.0341L105.957 24H101.741L96.4801 17.0227H94.2756V24H90.8778ZM113.63 24.3523C111.994 24.3523 110.566 23.9773 109.346 23.2273C108.126 22.4773 107.179 21.428 106.505 20.0795C105.831 18.7311 105.494 17.1553 105.494 15.3523C105.494 13.5417 105.831 11.9583 106.505 10.6023C107.179 9.24621 108.126 8.19318 109.346 7.44318C110.566 6.69318 111.994 6.31818 113.63 6.31818C115.266 6.31818 116.695 6.69318 117.914 7.44318C119.134 8.19318 120.081 9.24621 120.755 10.6023C121.429 11.9583 121.766 13.5417 121.766 15.3523C121.766 17.1553 121.429 18.7311 120.755 20.0795C120.081 21.428 119.134 22.4773 117.914 23.2273C116.695 23.9773 115.266 24.3523 113.63 24.3523ZM113.641 21.5C114.702 21.5 115.581 21.2197 116.278 20.6591C116.975 20.0985 117.49 19.3523 117.823 18.4205C118.164 17.4886 118.335 16.4621 118.335 15.3409C118.335 14.2273 118.164 13.2045 117.823 12.2727C117.49 11.3333 116.975 10.5795 116.278 10.0114C115.581 9.44318 114.702 9.15909 113.641 9.15909C112.573 9.15909 111.687 9.44318 110.982 10.0114C110.285 10.5795 109.766 11.3333 109.426 12.2727C109.092 13.2045 108.926 14.2273 108.926 15.3409C108.926 16.4621 109.092 17.4886 109.426 18.4205C109.766 19.3523 110.285 20.0985 110.982 20.6591C111.687 21.2197 112.573 21.5 113.641 21.5ZM125.953 6.54545L129.806 13.3409L133.692 6.54545H137.408L131.965 15.2727L137.453 24H133.738L129.806 17.4773L125.885 24H122.158L127.59 15.2727L122.226 6.54545H125.953ZM145.961 24.3523C144.325 24.3523 142.897 23.9773 141.677 23.2273C140.458 22.4773 139.511 21.428 138.836 20.0795C138.162 18.7311 137.825 17.1553 137.825 15.3523C137.825 13.5417 138.162 11.9583 138.836 10.6023C139.511 9.24621 140.458 8.19318 141.677 7.44318C142.897 6.69318 144.325 6.31818 145.961 6.31818C147.598 6.31818 149.026 6.69318 150.245 7.44318C151.465 8.19318 152.412 9.24621 153.086 10.6023C153.761 11.9583 154.098 13.5417 154.098 15.3523C154.098 17.1553 153.761 18.7311 153.086 20.0795C152.412 21.428 151.465 22.4773 150.245 23.2273C149.026 23.9773 147.598 24.3523 145.961 24.3523ZM145.973 21.5C147.033 21.5 147.912 21.2197 148.609 20.6591C149.306 20.0985 149.821 19.3523 150.155 18.4205C150.495 17.4886 150.666 16.4621 150.666 15.3409C150.666 14.2273 150.495 13.2045 150.155 12.2727C149.821 11.3333 149.306 10.5795 148.609 10.0114C147.912 9.44318 147.033 9.15909 145.973 9.15909C144.905 9.15909 144.018 9.44318 143.314 10.0114C142.617 10.5795 142.098 11.3333 141.757 12.2727C141.423 13.2045 141.257 14.2273 141.257 15.3409C141.257 16.4621 141.423 17.4886 141.757 18.4205C142.098 19.3523 142.617 20.0985 143.314 20.6591C144.018 21.2197 144.905 21.5 145.973 21.5ZM155.256 19.3864H158.734C158.779 20.0985 159.101 20.6477 159.699 21.0341C160.305 21.4205 161.09 21.6136 162.052 21.6136C163.029 21.6136 163.862 21.4053 164.552 20.9886C165.241 20.5644 165.586 19.9091 165.586 19.0227C165.586 18.4924 165.453 18.0303 165.188 17.6364C164.93 17.2348 164.563 16.9242 164.086 16.7045C163.616 16.4848 163.059 16.375 162.415 16.375H159.574V13.7045H162.415C163.377 13.7045 164.097 13.4848 164.574 13.0455C165.052 12.6061 165.29 12.0568 165.29 11.3977C165.29 10.6856 165.033 10.1136 164.518 9.68182C164.01 9.24242 163.302 9.02273 162.393 9.02273C161.468 9.02273 160.699 9.23106 160.086 9.64773C159.472 10.0568 159.15 10.5871 159.12 11.2386H155.688C155.711 10.2614 156.006 9.4053 156.574 8.67045C157.15 7.92803 157.923 7.35227 158.893 6.94318C159.87 6.52652 160.98 6.31818 162.222 6.31818C163.518 6.31818 164.639 6.52652 165.586 6.94318C166.533 7.35985 167.264 7.93561 167.779 8.67045C168.302 9.4053 168.563 10.25 168.563 11.2045C168.563 12.1667 168.275 12.9545 167.699 13.5682C167.131 14.1742 166.389 14.6098 165.472 14.875V15.0568C166.146 15.1023 166.745 15.3068 167.268 15.6705C167.79 16.0341 168.199 16.5152 168.495 17.1136C168.79 17.7121 168.938 18.3902 168.938 19.1477C168.938 20.2159 168.643 21.1402 168.052 21.9205C167.468 22.7008 166.658 23.303 165.62 23.7273C164.59 24.1439 163.412 24.3523 162.086 24.3523C160.798 24.3523 159.643 24.1515 158.62 23.75C157.605 23.3409 156.798 22.7652 156.199 22.0227C155.609 21.2803 155.294 20.4015 155.256 19.3864ZM181.256 24V9.44318H177.074C176.081 9.44318 175.309 9.67424 174.756 10.1364C174.203 10.5985 173.926 11.2045 173.926 11.9545C173.926 12.697 174.18 13.2955 174.688 13.75C175.203 14.197 175.922 14.4205 176.847 14.4205H182.244V17.1705H176.847C175.559 17.1705 174.445 16.9583 173.506 16.5341C172.574 16.1023 171.854 15.4924 171.347 14.7045C170.847 13.9167 170.597 12.9848 170.597 11.9091C170.597 10.8106 170.854 9.86364 171.369 9.06818C171.892 8.26515 172.638 7.64394 173.608 7.20454C174.585 6.76515 175.741 6.54545 177.074 6.54545H184.449V24H181.256ZM169.801 24L174.722 15.1818H178.199L173.278 24H169.801ZM190.701 19.2386L198.394 6.54545H202.053V24H198.724V11.2955L191.065 24H187.372V6.54545H190.701V19.2386ZM196.94 0.636362H199.735C199.735 1.91667 199.281 2.95833 198.372 3.76136C197.47 4.55682 196.25 4.95454 194.712 4.95454C193.182 4.95454 191.966 4.55682 191.065 3.76136C190.163 2.95833 189.712 1.91667 189.712 0.636362H192.497C192.497 1.20454 192.663 1.70833 192.997 2.14773C193.33 2.57954 193.902 2.79545 194.712 2.79545C195.508 2.79545 196.076 2.57954 196.417 2.14773C196.766 1.71591 196.94 1.21212 196.94 0.636362ZM212.374 24.3523C210.684 24.3523 209.23 23.9697 208.01 23.2045C206.798 22.4318 205.866 21.3674 205.215 20.0114C204.563 18.6553 204.238 17.1023 204.238 15.3523C204.238 13.5795 204.571 12.0152 205.238 10.6591C205.904 9.29545 206.844 8.23106 208.056 7.46591C209.268 6.70076 210.696 6.31818 212.34 6.31818C213.666 6.31818 214.847 6.56439 215.885 7.05682C216.923 7.54167 217.76 8.22348 218.397 9.10227C219.041 9.98106 219.423 11.0076 219.544 12.1818H216.238C216.056 11.3636 215.639 10.6591 214.988 10.0682C214.344 9.47727 213.48 9.18182 212.397 9.18182C211.45 9.18182 210.62 9.43182 209.908 9.93182C209.203 10.4242 208.654 11.1288 208.26 12.0455C207.866 12.9545 207.669 14.0303 207.669 15.2727C207.669 16.5455 207.863 17.6439 208.249 18.5682C208.635 19.4924 209.181 20.2083 209.885 20.7159C210.597 21.2235 211.434 21.4773 212.397 21.4773C213.041 21.4773 213.624 21.3598 214.147 21.125C214.677 20.8826 215.12 20.5379 215.476 20.0909C215.84 19.6439 216.094 19.1061 216.238 18.4773H219.544C219.423 19.6061 219.056 20.6136 218.442 21.5C217.828 22.3864 217.006 23.0833 215.976 23.5909C214.953 24.0985 213.753 24.3523 212.374 24.3523ZM220.257 9.47727V6.54545H234.984V9.47727H229.291V24H225.973V9.47727H220.257ZM236.978 24V6.54545H244.216C246.186 6.54545 247.747 6.96591 248.898 7.80682C250.05 8.64015 250.626 9.77273 250.626 11.2045C250.626 12.2273 250.3 13.0379 249.648 13.6364C248.997 14.2348 248.133 14.6364 247.057 14.8409C247.838 14.9318 248.554 15.1667 249.205 15.5455C249.857 15.9167 250.379 16.4167 250.773 17.0455C251.175 17.6742 251.376 18.4242 251.376 19.2955C251.376 20.2197 251.137 21.0379 250.66 21.75C250.182 22.4545 249.489 23.0076 248.58 23.4091C247.679 23.803 246.591 24 245.319 24H236.978ZM240.171 21.1591H245.319C246.16 21.1591 246.819 20.9583 247.296 20.5568C247.773 20.1553 248.012 19.6098 248.012 18.9205C248.012 18.1098 247.773 17.4735 247.296 17.0114C246.819 16.5417 246.16 16.3068 245.319 16.3068H240.171V21.1591ZM240.171 13.8182H244.251C244.887 13.8182 245.432 13.7273 245.887 13.5455C246.349 13.3636 246.701 13.1061 246.944 12.7727C247.194 12.4318 247.319 12.0303 247.319 11.5682C247.319 10.8939 247.042 10.3674 246.489 9.98864C245.936 9.60985 245.179 9.42045 244.216 9.42045H240.171V13.8182ZM261.026 24.3523C259.306 24.3523 257.825 23.9848 256.582 23.25C255.348 22.5076 254.393 21.4659 253.719 20.125C253.052 18.7765 252.719 17.197 252.719 15.3864C252.719 13.5985 253.052 12.0227 253.719 10.6591C254.393 9.29545 255.332 8.23106 256.537 7.46591C257.749 6.70076 259.166 6.31818 260.787 6.31818C261.772 6.31818 262.726 6.48106 263.651 6.80682C264.575 7.13258 265.404 7.64394 266.139 8.34091C266.874 9.03788 267.454 9.94318 267.878 11.0568C268.302 12.1629 268.514 13.5076 268.514 15.0909V16.2955H254.639V13.75H265.185C265.185 12.8561 265.003 12.0644 264.639 11.375C264.276 10.678 263.764 10.1288 263.105 9.72727C262.454 9.32576 261.688 9.125 260.81 9.125C259.855 9.125 259.022 9.35985 258.31 9.82955C257.605 10.2917 257.06 10.8977 256.673 11.6477C256.295 12.3902 256.105 13.197 256.105 14.0682V16.0568C256.105 17.2235 256.31 18.2159 256.719 19.0341C257.135 19.8523 257.715 20.4773 258.457 20.9091C259.2 21.3333 260.067 21.5455 261.06 21.5455C261.704 21.5455 262.291 21.4545 262.821 21.2727C263.351 21.0833 263.81 20.803 264.196 20.4318C264.582 20.0606 264.878 19.6023 265.082 19.0568L268.298 19.6364C268.041 20.5833 267.579 21.4129 266.912 22.125C266.253 22.8295 265.423 23.3788 264.423 23.7727C263.431 24.1591 262.298 24.3523 261.026 24.3523ZM282.514 13.8068V16.75H273.059V13.8068H282.514ZM274.014 6.54545V24H270.684V6.54545H274.014ZM284.889 6.54545V24H281.57V6.54545H284.889ZM299.664 13.8068V16.75H290.209V13.8068H299.664ZM291.164 6.54545V24H287.834V6.54545H291.164ZM302.039 6.54545V24H298.72V6.54545H302.039ZM307.541 12.5455H312.609C314.745 12.5455 316.389 13.0758 317.541 14.1364C318.692 15.197 319.268 16.5644 319.268 18.2386C319.268 19.3295 319.011 20.3106 318.495 21.1818C317.98 22.053 317.227 22.7424 316.234 23.25C315.242 23.75 314.033 24 312.609 24H304.984V6.54545H308.314V21.0682H312.609C313.586 21.0682 314.389 20.8144 315.018 20.3068C315.647 19.7917 315.961 19.1364 315.961 18.3409C315.961 17.5 315.647 16.8144 315.018 16.2841C314.389 15.7462 313.586 15.4773 312.609 15.4773H307.541V12.5455ZM321.745 24V6.54545H325.143V24H321.745ZM335.626 24.3523C333.906 24.3523 332.425 23.9848 331.182 23.25C329.948 22.5076 328.993 21.4659 328.319 20.125C327.652 18.7765 327.319 17.197 327.319 15.3864C327.319 13.5985 327.652 12.0227 328.319 10.6591C328.993 9.29545 329.932 8.23106 331.137 7.46591C332.349 6.70076 333.766 6.31818 335.387 6.31818C336.372 6.31818 337.326 6.48106 338.251 6.80682C339.175 7.13258 340.004 7.64394 340.739 8.34091C341.474 9.03788 342.054 9.94318 342.478 11.0568C342.902 12.1629 343.114 13.5076 343.114 15.0909V16.2955H329.239V13.75H339.785C339.785 12.8561 339.603 12.0644 339.239 11.375C338.876 10.678 338.364 10.1288 337.705 9.72727C337.054 9.32576 336.288 9.125 335.41 9.125C334.455 9.125 333.622 9.35985 332.91 9.82955C332.205 10.2917 331.66 10.8977 331.273 11.6477C330.895 12.3902 330.705 13.197 330.705 14.0682V16.0568C330.705 17.2235 330.91 18.2159 331.319 19.0341C331.735 19.8523 332.315 20.4773 333.057 20.9091C333.8 21.3333 334.667 21.5455 335.66 21.5455C336.304 21.5455 336.891 21.4545 337.421 21.2727C337.951 21.0833 338.41 20.803 338.796 20.4318C339.182 20.0606 339.478 19.6023 339.682 19.0568L342.898 19.6364C342.641 20.5833 342.179 21.4129 341.512 22.125C340.853 22.8295 340.023 23.3788 339.023 23.7727C338.031 24.1591 336.898 24.3523 335.626 24.3523ZM4.61364 58.2386L12.3068 45.5455H15.9659V63H12.6364V50.2955L4.97727 63H1.28409V45.5455H4.61364V58.2386ZM30.7636 52.8068V55.75H21.3091V52.8068H30.7636ZM22.2636 45.5455V63H18.9341V45.5455H22.2636ZM33.1386 45.5455V63H29.8205V45.5455H33.1386ZM43.4364 63.3523C41.747 63.3523 40.2924 62.9697 39.0727 62.2045C37.8606 61.4318 36.9288 60.3674 36.2773 59.0114C35.6258 57.6553 35.3 56.1023 35.3 54.3523C35.3 52.5795 35.6333 51.0152 36.3 49.6591C36.9667 48.2955 37.9061 47.2311 39.1182 46.4659C40.3303 45.7008 41.7583 45.3182 43.4023 45.3182C44.728 45.3182 45.9098 45.5644 46.9477 46.0568C47.9856 46.5417 48.8227 47.2235 49.4591 48.1023C50.103 48.9811 50.4856 50.0076 50.6068 51.1818H47.3C47.1182 50.3636 46.7015 49.6591 46.05 49.0682C45.4061 48.4773 44.5424 48.1818 43.4591 48.1818C42.5121 48.1818 41.6826 48.4318 40.9705 48.9318C40.2659 49.4242 39.7167 50.1288 39.3227 51.0455C38.9288 51.9545 38.7318 53.0303 38.7318 54.2727C38.7318 55.5455 38.925 56.6439 39.3114 57.5682C39.6977 58.4924 40.2432 59.2083 40.9477 59.7159C41.6598 60.2235 42.497 60.4773 43.4591 60.4773C44.103 60.4773 44.6864 60.3598 45.2091 60.125C45.7394 59.8826 46.1826 59.5379 46.5386 59.0909C46.9023 58.6439 47.1561 58.1061 47.3 57.4773H50.6068C50.4856 58.6061 50.1182 59.6136 49.5045 60.5C48.8909 61.3864 48.0689 62.0833 47.0386 62.5909C46.0159 63.0985 44.8152 63.3523 43.4364 63.3523ZM51.3193 48.4773V45.5455H66.0466V48.4773H60.3534V63H57.0352V48.4773H51.3193ZM71.3699 58.2386L79.0631 45.5455H82.7222V63H79.3926V50.2955L71.7335 63H68.0403V45.5455H71.3699V58.2386ZM83.5256 48.4773V45.5455H98.2528V48.4773H92.5597V63H89.2415V48.4773H83.5256ZM102.394 69.5455C101.887 69.5455 101.425 69.5038 101.008 69.4205C100.591 69.3447 100.281 69.2614 100.076 69.1705L100.894 66.3864C101.516 66.553 102.069 66.625 102.553 66.6023C103.038 66.5795 103.466 66.3977 103.838 66.0568C104.216 65.7159 104.55 65.1591 104.838 64.3864L105.258 63.2273L98.8716 45.5455H102.508L106.928 59.0909H107.11L111.531 45.5455H115.178L107.985 65.3295C107.652 66.2386 107.228 67.0076 106.713 67.6364C106.197 68.2727 105.584 68.75 104.872 69.0682C104.159 69.3864 103.334 69.5455 102.394 69.5455ZM115.794 48.4773V45.5455H130.522V48.4773H124.828V63H121.51V48.4773H115.794ZM135.072 51.5455H140.14C142.277 51.5455 143.921 52.0758 145.072 53.1364C146.224 54.197 146.799 55.5644 146.799 57.2386C146.799 58.3295 146.542 59.3106 146.027 60.1818C145.512 61.053 144.758 61.7424 143.765 62.25C142.773 62.75 141.565 63 140.14 63H132.515V45.5455H135.845V60.0682H140.14C141.118 60.0682 141.921 59.8144 142.549 59.3068C143.178 58.7917 143.493 58.1364 143.493 57.3409C143.493 56.5 143.178 55.8144 142.549 55.2841C141.921 54.7462 141.118 54.4773 140.14 54.4773H135.072V51.5455ZM149.277 63V45.5455H152.674V63H149.277Z" fill="white"/>
</svg>
