<svg width="297" height="30" viewBox="0 0 297 30" fill="none" xmlns="http://www.w3.org/2000/svg">
<path d="M9.95455 3.40909H14.1477C15.9205 3.40909 17.4924 3.79924 18.8636 4.57954C20.2424 5.35227 21.322 6.43939 22.1023 7.84091C22.8902 9.23485 23.2841 10.8561 23.2841 12.7045C23.2841 14.5379 22.8902 16.1477 22.1023 17.5341C21.322 18.9205 20.2424 20.0038 18.8636 20.7841C17.4924 21.5568 15.9205 21.9432 14.1477 21.9432H9.95455C8.18182 21.9432 6.60606 21.5606 5.22727 20.7955C3.84848 20.0227 2.76515 18.947 1.97727 17.5682C1.19697 16.1894 0.806818 14.5795 0.806818 12.7386C0.806818 10.8826 1.20076 9.25379 1.98864 7.85227C2.77652 6.45076 3.85606 5.35985 5.22727 4.57954C6.60606 3.79924 8.18182 3.40909 9.95455 3.40909ZM9.95455 6.44318C8.74242 6.44318 7.70833 6.69697 6.85227 7.20454C5.99621 7.70454 5.34091 8.42424 4.88636 9.36364C4.43182 10.303 4.20455 11.428 4.20455 12.7386C4.20455 14.0189 4.43182 15.1212 4.88636 16.0455C5.34848 16.9621 6.00758 17.6705 6.86364 18.1705C7.7197 18.6629 8.75 18.9091 9.95455 18.9091H14.1591C15.3636 18.9091 16.3902 18.6629 17.2386 18.1705C18.0947 17.6705 18.7462 16.9583 19.1932 16.0341C19.6477 15.1023 19.875 13.9924 19.875 12.7045C19.875 11.4091 19.6477 10.2955 19.1932 9.36364C18.7462 8.42424 18.0947 7.70454 17.2386 7.20454C16.3902 6.69697 15.3636 6.44318 14.1591 6.44318H9.95455ZM13.7841 0.318182V24.9545H10.3409V0.318182H13.7841ZM30.8574 24.3864C29.7513 24.3864 28.7513 24.1818 27.8574 23.7727C26.9634 23.3561 26.2551 22.7538 25.7324 21.9659C25.2172 21.178 24.9597 20.2121 24.9597 19.0682C24.9597 18.0833 25.1491 17.2727 25.5278 16.6364C25.9066 16 26.418 15.4962 27.0619 15.125C27.7059 14.7538 28.4256 14.4735 29.221 14.2841C30.0165 14.0947 30.8271 13.9508 31.6528 13.8523C32.6983 13.7311 33.5468 13.6326 34.1983 13.5568C34.8498 13.4735 35.3233 13.3409 35.6187 13.1591C35.9142 12.9773 36.0619 12.6818 36.0619 12.2727V12.1932C36.0619 11.2008 35.7816 10.4318 35.221 9.88636C34.668 9.34091 33.8422 9.06818 32.7437 9.06818C31.5998 9.06818 30.6983 9.32197 30.0392 9.82955C29.3877 10.3295 28.9369 10.8864 28.6869 11.5L25.4937 10.7727C25.8725 9.71212 26.4256 8.85606 27.1528 8.20455C27.8877 7.54545 28.7324 7.06818 29.6869 6.77273C30.6415 6.4697 31.6453 6.31818 32.6983 6.31818C33.3953 6.31818 34.1339 6.40152 34.9142 6.56818C35.7021 6.72727 36.4369 7.02273 37.1187 7.45454C37.8081 7.88636 38.3725 8.50379 38.8119 9.30682C39.2513 10.1023 39.471 11.1364 39.471 12.4091V24H36.1528V21.6136H36.0165C35.7968 22.053 35.4672 22.4848 35.0278 22.9091C34.5884 23.3333 34.0241 23.6856 33.3347 23.9659C32.6453 24.2462 31.8195 24.3864 30.8574 24.3864ZM31.596 21.6591C32.5354 21.6591 33.3384 21.4735 34.0051 21.1023C34.6794 20.7311 35.1907 20.2462 35.5392 19.6477C35.8953 19.0417 36.0733 18.3939 36.0733 17.7045V15.4545C35.9521 15.5758 35.7172 15.6894 35.3687 15.7955C35.0278 15.8939 34.6377 15.9811 34.1983 16.0568C33.7589 16.125 33.3309 16.1894 32.9142 16.25C32.4975 16.303 32.1491 16.3485 31.8687 16.3864C31.2097 16.4697 30.6074 16.6098 30.0619 16.8068C29.5241 17.0038 29.0922 17.2879 28.7665 17.6591C28.4483 18.0227 28.2892 18.5076 28.2892 19.1136C28.2892 19.9545 28.5998 20.5909 29.221 21.0227C29.8422 21.447 30.6339 21.6591 31.596 21.6591ZM49.7489 24.3523C48.0595 24.3523 46.6049 23.9697 45.3852 23.2045C44.1731 22.4318 43.2413 21.3674 42.5898 20.0114C41.9383 18.6553 41.6125 17.1023 41.6125 15.3523C41.6125 13.5795 41.9458 12.0152 42.6125 10.6591C43.2792 9.29545 44.2186 8.23106 45.4307 7.46591C46.6428 6.70076 48.0708 6.31818 49.7148 6.31818C51.0405 6.31818 52.2223 6.56439 53.2602 7.05682C54.2981 7.54167 55.1352 8.22348 55.7716 9.10227C56.4155 9.98106 56.7981 11.0076 56.9193 12.1818H53.6125C53.4307 11.3636 53.014 10.6591 52.3625 10.0682C51.7186 9.47727 50.8549 9.18182 49.7716 9.18182C48.8246 9.18182 47.9951 9.43182 47.283 9.93182C46.5784 10.4242 46.0292 11.1288 45.6352 12.0455C45.2413 12.9545 45.0443 14.0303 45.0443 15.2727C45.0443 16.5455 45.2375 17.6439 45.6239 18.5682C46.0102 19.4924 46.5557 20.2083 47.2602 20.7159C47.9723 21.2235 48.8095 21.4773 49.7716 21.4773C50.4155 21.4773 50.9989 21.3598 51.5216 21.125C52.0519 20.8826 52.4951 20.5379 52.8511 20.0909C53.2148 19.6439 53.4686 19.1061 53.6125 18.4773H56.9193C56.7981 19.6061 56.4307 20.6136 55.817 21.5C55.2034 22.3864 54.3814 23.0833 53.3511 23.5909C52.3284 24.0985 51.1277 24.3523 49.7489 24.3523ZM66.3051 24.3523C64.6688 24.3523 63.2407 23.9773 62.021 23.2273C60.8013 22.4773 59.8544 21.428 59.1801 20.0795C58.5059 18.7311 58.1688 17.1553 58.1688 15.3523C58.1688 13.5417 58.5059 11.9583 59.1801 10.6023C59.8544 9.24621 60.8013 8.19318 62.021 7.44318C63.2407 6.69318 64.6688 6.31818 66.3051 6.31818C67.9415 6.31818 69.3695 6.69318 70.5892 7.44318C71.8089 8.19318 72.7559 9.24621 73.4301 10.6023C74.1044 11.9583 74.4415 13.5417 74.4415 15.3523C74.4415 17.1553 74.1044 18.7311 73.4301 20.0795C72.7559 21.428 71.8089 22.4773 70.5892 23.2273C69.3695 23.9773 67.9415 24.3523 66.3051 24.3523ZM66.3165 21.5C67.3771 21.5 68.2559 21.2197 68.9528 20.6591C69.6498 20.0985 70.165 19.3523 70.4983 18.4205C70.8392 17.4886 71.0097 16.4621 71.0097 15.3409C71.0097 14.2273 70.8392 13.2045 70.4983 12.2727C70.165 11.3333 69.6498 10.5795 68.9528 10.0114C68.2559 9.44318 67.3771 9.15909 66.3165 9.15909C65.2483 9.15909 64.3619 9.44318 63.6574 10.0114C62.9604 10.5795 62.4415 11.3333 62.1006 12.2727C61.7672 13.2045 61.6006 14.2273 61.6006 15.3409C61.6006 16.4621 61.7672 17.4886 62.1006 18.4205C62.4415 19.3523 62.9604 20.0985 63.6574 20.6591C64.3619 21.2197 65.2483 21.5 66.3165 21.5ZM76.6341 24V6.54545H83.8727C85.8424 6.54545 87.403 6.96591 88.5545 7.80682C89.7061 8.64015 90.2818 9.77273 90.2818 11.2045C90.2818 12.2273 89.9561 13.0379 89.3045 13.6364C88.653 14.2348 87.7894 14.6364 86.7136 14.8409C87.4939 14.9318 88.2098 15.1667 88.8614 15.5455C89.5129 15.9167 90.0356 16.4167 90.4295 17.0455C90.8311 17.6742 91.0318 18.4242 91.0318 19.2955C91.0318 20.2197 90.7932 21.0379 90.3159 21.75C89.8386 22.4545 89.1455 23.0076 88.2364 23.4091C87.3348 23.803 86.2477 24 84.975 24H76.6341ZM79.8273 21.1591H84.975C85.8159 21.1591 86.475 20.9583 86.9523 20.5568C87.4295 20.1553 87.6682 19.6098 87.6682 18.9205C87.6682 18.1098 87.4295 17.4735 86.9523 17.0114C86.475 16.5417 85.8159 16.3068 84.975 16.3068H79.8273V21.1591ZM79.8273 13.8182H83.9068C84.5432 13.8182 85.0886 13.7273 85.5432 13.5455C86.0053 13.3636 86.3576 13.1061 86.6 12.7727C86.85 12.4318 86.975 12.0303 86.975 11.5682C86.975 10.8939 86.6985 10.3674 86.1455 9.98864C85.5924 9.60985 84.8348 9.42045 83.8727 9.42045H79.8273V13.8182ZM100.511 24.3523C98.875 24.3523 97.447 23.9773 96.2273 23.2273C95.0076 22.4773 94.0606 21.428 93.3864 20.0795C92.7121 18.7311 92.375 17.1553 92.375 15.3523C92.375 13.5417 92.7121 11.9583 93.3864 10.6023C94.0606 9.24621 95.0076 8.19318 96.2273 7.44318C97.447 6.69318 98.875 6.31818 100.511 6.31818C102.148 6.31818 103.576 6.69318 104.795 7.44318C106.015 8.19318 106.962 9.24621 107.636 10.6023C108.311 11.9583 108.648 13.5417 108.648 15.3523C108.648 17.1553 108.311 18.7311 107.636 20.0795C106.962 21.428 106.015 22.4773 104.795 23.2273C103.576 23.9773 102.148 24.3523 100.511 24.3523ZM100.523 21.5C101.583 21.5 102.462 21.2197 103.159 20.6591C103.856 20.0985 104.371 19.3523 104.705 18.4205C105.045 17.4886 105.216 16.4621 105.216 15.3409C105.216 14.2273 105.045 13.2045 104.705 12.2727C104.371 11.3333 103.856 10.5795 103.159 10.0114C102.462 9.44318 101.583 9.15909 100.523 9.15909C99.4545 9.15909 98.5682 9.44318 97.8636 10.0114C97.1667 10.5795 96.6477 11.3333 96.3068 12.2727C95.9735 13.2045 95.8068 14.2273 95.8068 15.3409C95.8068 16.4621 95.9735 17.4886 96.3068 18.4205C96.6477 19.3523 97.1667 20.0985 97.8636 20.6591C98.5682 21.2197 99.4545 21.5 100.523 21.5ZM124.852 6.54545V24H121.534V6.54545H124.852ZM123.409 14.6477V17.5795C122.886 17.7917 122.333 17.9811 121.749 18.1477C121.166 18.3068 120.552 18.4318 119.909 18.5227C119.265 18.6136 118.594 18.6591 117.897 18.6591C115.738 18.6591 114.022 18.1326 112.749 17.0795C111.477 16.0189 110.84 14.3977 110.84 12.2159V6.51136H114.147V12.2159C114.147 13.0417 114.299 13.7121 114.602 14.2273C114.905 14.7424 115.337 15.1212 115.897 15.3636C116.458 15.6061 117.124 15.7273 117.897 15.7273C118.92 15.7273 119.863 15.6326 120.727 15.4432C121.598 15.2462 122.492 14.9811 123.409 14.6477ZM139.601 13.8068V16.75H130.147V13.8068H139.601ZM131.101 6.54545V24H127.772V6.54545H131.101ZM141.976 6.54545V24H138.658V6.54545H141.976ZM147.478 12.5455H152.547C154.683 12.5455 156.327 13.0758 157.478 14.1364C158.63 15.197 159.206 16.5644 159.206 18.2386C159.206 19.3295 158.948 20.3106 158.433 21.1818C157.918 22.053 157.164 22.7424 156.172 23.25C155.179 23.75 153.971 24 152.547 24H144.922V6.54545H148.251V21.0682H152.547C153.524 21.0682 154.327 20.8144 154.956 20.3068C155.584 19.7917 155.899 19.1364 155.899 18.3409C155.899 17.5 155.584 16.8144 154.956 16.2841C154.327 15.7462 153.524 15.4773 152.547 15.4773H147.478V12.5455ZM161.683 24V6.54545H165.081V24H161.683ZM175.563 24.3523C173.843 24.3523 172.362 23.9848 171.12 23.25C169.885 22.5076 168.93 21.4659 168.256 20.125C167.59 18.7765 167.256 17.197 167.256 15.3864C167.256 13.5985 167.59 12.0227 168.256 10.6591C168.93 9.29545 169.87 8.23106 171.074 7.46591C172.287 6.70076 173.703 6.31818 175.324 6.31818C176.309 6.31818 177.264 6.48106 178.188 6.80682C179.112 7.13258 179.942 7.64394 180.677 8.34091C181.412 9.03788 181.991 9.94318 182.415 11.0568C182.84 12.1629 183.052 13.5076 183.052 15.0909V16.2955H169.177V13.75H179.722C179.722 12.8561 179.54 12.0644 179.177 11.375C178.813 10.678 178.302 10.1288 177.643 9.72727C176.991 9.32576 176.226 9.125 175.347 9.125C174.393 9.125 173.559 9.35985 172.847 9.82955C172.143 10.2917 171.597 10.8977 171.211 11.6477C170.832 12.3902 170.643 13.197 170.643 14.0682V16.0568C170.643 17.2235 170.847 18.2159 171.256 19.0341C171.673 19.8523 172.252 20.4773 172.995 20.9091C173.737 21.3333 174.605 21.5455 175.597 21.5455C176.241 21.5455 176.828 21.4545 177.359 21.2727C177.889 21.0833 178.347 20.803 178.734 20.4318C179.12 20.0606 179.415 19.6023 179.62 19.0568L182.836 19.6364C182.578 20.5833 182.116 21.4129 181.449 22.125C180.79 22.8295 179.961 23.3788 178.961 23.7727C177.968 24.1591 176.836 24.3523 175.563 24.3523ZM191.056 19.3864H194.534C194.579 20.0985 194.901 20.6477 195.499 21.0341C196.105 21.4205 196.89 21.6136 197.852 21.6136C198.829 21.6136 199.662 21.4053 200.352 20.9886C201.041 20.5644 201.386 19.9091 201.386 19.0227C201.386 18.4924 201.253 18.0303 200.988 17.6364C200.73 17.2348 200.363 16.9242 199.886 16.7045C199.416 16.4848 198.859 16.375 198.215 16.375H195.374V13.7045H198.215C199.177 13.7045 199.897 13.4848 200.374 13.0455C200.852 12.6061 201.09 12.0568 201.09 11.3977C201.09 10.6856 200.833 10.1136 200.318 9.68182C199.81 9.24242 199.102 9.02273 198.193 9.02273C197.268 9.02273 196.499 9.23106 195.886 9.64773C195.272 10.0568 194.95 10.5871 194.92 11.2386H191.488C191.511 10.2614 191.806 9.4053 192.374 8.67045C192.95 7.92803 193.723 7.35227 194.693 6.94318C195.67 6.52652 196.78 6.31818 198.022 6.31818C199.318 6.31818 200.439 6.52652 201.386 6.94318C202.333 7.35985 203.064 7.93561 203.579 8.67045C204.102 9.4053 204.363 10.25 204.363 11.2045C204.363 12.1667 204.075 12.9545 203.499 13.5682C202.931 14.1742 202.189 14.6098 201.272 14.875V15.0568C201.946 15.1023 202.545 15.3068 203.068 15.6705C203.59 16.0341 203.999 16.5152 204.295 17.1136C204.59 17.7121 204.738 18.3902 204.738 19.1477C204.738 20.2159 204.443 21.1402 203.852 21.9205C203.268 22.7008 202.458 23.303 201.42 23.7273C200.39 24.1439 199.212 24.3523 197.886 24.3523C196.598 24.3523 195.443 24.1515 194.42 23.75C193.405 23.3409 192.598 22.7652 191.999 22.0227C191.409 21.2803 191.094 20.4015 191.056 19.3864ZM211.726 24.3864C210.62 24.3864 209.62 24.1818 208.726 23.7727C207.832 23.3561 207.124 22.7538 206.601 21.9659C206.086 21.178 205.828 20.2121 205.828 19.0682C205.828 18.0833 206.018 17.2727 206.397 16.6364C206.775 16 207.287 15.4962 207.931 15.125C208.575 14.7538 209.294 14.4735 210.09 14.2841C210.885 14.0947 211.696 13.9508 212.522 13.8523C213.567 13.7311 214.416 13.6326 215.067 13.5568C215.719 13.4735 216.192 13.3409 216.488 13.1591C216.783 12.9773 216.931 12.6818 216.931 12.2727V12.1932C216.931 11.2008 216.65 10.4318 216.09 9.88636C215.537 9.34091 214.711 9.06818 213.613 9.06818C212.469 9.06818 211.567 9.32197 210.908 9.82955C210.256 10.3295 209.806 10.8864 209.556 11.5L206.363 10.7727C206.741 9.71212 207.294 8.85606 208.022 8.20455C208.756 7.54545 209.601 7.06818 210.556 6.77273C211.51 6.4697 212.514 6.31818 213.567 6.31818C214.264 6.31818 215.003 6.40152 215.783 6.56818C216.571 6.72727 217.306 7.02273 217.988 7.45454C218.677 7.88636 219.241 8.50379 219.681 9.30682C220.12 10.1023 220.34 11.1364 220.34 12.4091V24H217.022V21.6136H216.885C216.666 22.053 216.336 22.4848 215.897 22.9091C215.457 23.3333 214.893 23.6856 214.203 23.9659C213.514 24.2462 212.688 24.3864 211.726 24.3864ZM212.465 21.6591C213.404 21.6591 214.207 21.4735 214.874 21.1023C215.548 20.7311 216.059 20.2462 216.408 19.6477C216.764 19.0417 216.942 18.3939 216.942 17.7045V15.4545C216.821 15.5758 216.586 15.6894 216.238 15.7955C215.897 15.8939 215.506 15.9811 215.067 16.0568C214.628 16.125 214.2 16.1894 213.783 16.25C213.366 16.303 213.018 16.3485 212.738 16.3864C212.078 16.4697 211.476 16.6098 210.931 16.8068C210.393 17.0038 209.961 17.2879 209.635 17.6591C209.317 18.0227 209.158 18.5076 209.158 19.1136C209.158 19.9545 209.469 20.5909 210.09 21.0227C210.711 21.447 211.503 21.6591 212.465 21.6591ZM223.265 24V6.54545H230.504C232.474 6.54545 234.034 6.96591 235.186 7.80682C236.337 8.64015 236.913 9.77273 236.913 11.2045C236.913 12.2273 236.587 13.0379 235.936 13.6364C235.284 14.2348 234.421 14.6364 233.345 14.8409C234.125 14.9318 234.841 15.1667 235.493 15.5455C236.144 15.9167 236.667 16.4167 237.061 17.0455C237.462 17.6742 237.663 18.4242 237.663 19.2955C237.663 20.2197 237.424 21.0379 236.947 21.75C236.47 22.4545 235.777 23.0076 234.868 23.4091C233.966 23.803 232.879 24 231.606 24H223.265ZM226.459 21.1591H231.606C232.447 21.1591 233.106 20.9583 233.584 20.5568C234.061 20.1553 234.299 19.6098 234.299 18.9205C234.299 18.1098 234.061 17.4735 233.584 17.0114C233.106 16.5417 232.447 16.3068 231.606 16.3068H226.459V21.1591ZM226.459 13.8182H230.538C231.174 13.8182 231.72 13.7273 232.174 13.5455C232.637 13.3636 232.989 13.1061 233.231 12.7727C233.481 12.4318 233.606 12.0303 233.606 11.5682C233.606 10.8939 233.33 10.3674 232.777 9.98864C232.224 9.60985 231.466 9.42045 230.504 9.42045H226.459V13.8182ZM247.143 24.3523C245.506 24.3523 244.078 23.9773 242.859 23.2273C241.639 22.4773 240.692 21.428 240.018 20.0795C239.343 18.7311 239.006 17.1553 239.006 15.3523C239.006 13.5417 239.343 11.9583 240.018 10.6023C240.692 9.24621 241.639 8.19318 242.859 7.44318C244.078 6.69318 245.506 6.31818 247.143 6.31818C248.779 6.31818 250.207 6.69318 251.427 7.44318C252.646 8.19318 253.593 9.24621 254.268 10.6023C254.942 11.9583 255.279 13.5417 255.279 15.3523C255.279 17.1553 254.942 18.7311 254.268 20.0795C253.593 21.428 252.646 22.4773 251.427 23.2273C250.207 23.9773 248.779 24.3523 247.143 24.3523ZM247.154 21.5C248.215 21.5 249.093 21.2197 249.79 20.6591C250.487 20.0985 251.002 19.3523 251.336 18.4205C251.677 17.4886 251.847 16.4621 251.847 15.3409C251.847 14.2273 251.677 13.2045 251.336 12.2727C251.002 11.3333 250.487 10.5795 249.79 10.0114C249.093 9.44318 248.215 9.15909 247.154 9.15909C246.086 9.15909 245.199 9.44318 244.495 10.0114C243.798 10.5795 243.279 11.3333 242.938 12.2727C242.605 13.2045 242.438 14.2273 242.438 15.3409C242.438 16.4621 242.605 17.4886 242.938 18.4205C243.279 19.3523 243.798 20.0985 244.495 20.6591C245.199 21.2197 246.086 21.5 247.154 21.5ZM255.767 29.0341V21.0568H257.188C257.551 20.7235 257.858 20.3258 258.108 19.8636C258.366 19.4015 258.581 18.8523 258.756 18.2159C258.938 17.5795 259.089 16.8371 259.21 15.9886C259.331 15.1326 259.438 14.1553 259.528 13.0568L260.074 6.54545H271.938V21.0568H274.619V29.0341H271.301V24H259.131V29.0341H255.767ZM260.824 21.0568H268.619V9.45455H263.119L262.756 13.0568C262.581 14.8902 262.362 16.4811 262.097 17.8295C261.831 19.1705 261.407 20.2462 260.824 21.0568ZM278.897 12.5455H283.965C286.102 12.5455 287.746 13.0758 288.897 14.1364C290.049 15.197 290.624 16.5644 290.624 18.2386C290.624 19.3295 290.367 20.3106 289.852 21.1818C289.337 22.053 288.583 22.7424 287.59 23.25C286.598 23.75 285.39 24 283.965 24H276.34V6.54545H279.67V21.0682H283.965C284.943 21.0682 285.746 20.8144 286.374 20.3068C287.003 19.7917 287.318 19.1364 287.318 18.3409C287.318 17.5 287.003 16.8144 286.374 16.2841C285.746 15.7462 284.943 15.4773 283.965 15.4773H278.897V12.5455ZM293.102 24V6.54545H296.499V24H293.102Z" fill="white"/>
</svg>
