<svg width="140" height="31" viewBox="0 0 140 31" fill="none" xmlns="http://www.w3.org/2000/svg">
<path d="M9.95455 3.40909H14.1477C15.9205 3.40909 17.4924 3.79924 18.8636 4.57954C20.2424 5.35227 21.322 6.43939 22.1023 7.84091C22.8902 9.23485 23.2841 10.8561 23.2841 12.7045C23.2841 14.5379 22.8902 16.1477 22.1023 17.5341C21.322 18.9205 20.2424 20.0038 18.8636 20.7841C17.4924 21.5568 15.9205 21.9432 14.1477 21.9432H9.95455C8.18182 21.9432 6.60606 21.5606 5.22727 20.7955C3.84848 20.0227 2.76515 18.947 1.97727 17.5682C1.19697 16.1894 0.806818 14.5795 0.806818 12.7386C0.806818 10.8826 1.20076 9.25379 1.98864 7.85227C2.77652 6.45076 3.85606 5.35985 5.22727 4.57954C6.60606 3.79924 8.18182 3.40909 9.95455 3.40909ZM9.95455 6.44318C8.74242 6.44318 7.70833 6.69697 6.85227 7.20454C5.99621 7.70454 5.34091 8.42424 4.88636 9.36364C4.43182 10.303 4.20455 11.428 4.20455 12.7386C4.20455 14.0189 4.43182 15.1212 4.88636 16.0455C5.34848 16.9621 6.00758 17.6705 6.86364 18.1705C7.7197 18.6629 8.75 18.9091 9.95455 18.9091H14.1591C15.3636 18.9091 16.3902 18.6629 17.2386 18.1705C18.0947 17.6705 18.7462 16.9583 19.1932 16.0341C19.6477 15.1023 19.875 13.9924 19.875 12.7045C19.875 11.4091 19.6477 10.2955 19.1932 9.36364C18.7462 8.42424 18.0947 7.70454 17.2386 7.20454C16.3902 6.69697 15.3636 6.44318 14.1591 6.44318H9.95455ZM13.7841 0.318182V24.9545H10.3409V0.318182H13.7841ZM33.3006 24.3523C31.5809 24.3523 30.0998 23.9848 28.8574 23.25C27.6225 22.5076 26.668 21.4659 25.9937 20.125C25.3271 18.7765 24.9937 17.197 24.9937 15.3864C24.9937 13.5985 25.3271 12.0227 25.9937 10.6591C26.668 9.29545 27.6074 8.23106 28.8119 7.46591C30.0241 6.70076 31.4407 6.31818 33.0619 6.31818C34.0468 6.31818 35.0013 6.48106 35.9256 6.80682C36.8498 7.13258 37.6794 7.64394 38.4142 8.34091C39.1491 9.03788 39.7286 9.94318 40.1528 11.0568C40.5771 12.1629 40.7892 13.5076 40.7892 15.0909V16.2955H26.9142V13.75H37.4597C37.4597 12.8561 37.2778 12.0644 36.9142 11.375C36.5506 10.678 36.0392 10.1288 35.3801 9.72727C34.7286 9.32576 33.9634 9.125 33.0847 9.125C32.1301 9.125 31.2968 9.35985 30.5847 9.82955C29.8801 10.2917 29.3347 10.8977 28.9483 11.6477C28.5695 12.3902 28.3801 13.197 28.3801 14.0682V16.0568C28.3801 17.2235 28.5847 18.2159 28.9937 19.0341C29.4104 19.8523 29.99 20.4773 30.7324 20.9091C31.4748 21.3333 32.3422 21.5455 33.3347 21.5455C33.9786 21.5455 34.5657 21.4545 35.096 21.2727C35.6263 21.0833 36.0847 20.803 36.471 20.4318C36.8574 20.0606 37.1528 19.6023 37.3574 19.0568L40.5733 19.6364C40.3157 20.5833 39.8536 21.4129 39.1869 22.125C38.5278 22.8295 37.6983 23.3788 36.6983 23.7727C35.7059 24.1591 34.5733 24.3523 33.3006 24.3523ZM42.9591 30.5455V6.54545H46.2773V9.375H46.5614C46.7583 9.01136 47.0424 8.59091 47.4136 8.11364C47.7848 7.63636 48.3 7.2197 48.9591 6.86364C49.6182 6.5 50.4894 6.31818 51.5727 6.31818C52.9818 6.31818 54.2394 6.67424 55.3455 7.38636C56.4515 8.09848 57.3189 9.125 57.9477 10.4659C58.5841 11.8068 58.9023 13.4205 58.9023 15.3068C58.9023 17.1932 58.5879 18.8106 57.9591 20.1591C57.3303 21.5 56.4667 22.5341 55.3682 23.2614C54.2697 23.9811 53.0159 24.3409 51.6068 24.3409C50.5462 24.3409 49.6788 24.1629 49.0045 23.8068C48.3379 23.4508 47.8152 23.0341 47.4364 22.5568C47.0576 22.0795 46.7659 21.6553 46.5614 21.2841H46.3568V30.5455H42.9591ZM46.2886 15.2727C46.2886 16.5 46.4667 17.5758 46.8227 18.5C47.1788 19.4242 47.6939 20.1477 48.3682 20.6705C49.0424 21.1856 49.8682 21.4432 50.8455 21.4432C51.8606 21.4432 52.7091 21.1742 53.3909 20.6364C54.0727 20.0909 54.5879 19.3523 54.9364 18.4205C55.2924 17.4886 55.4705 16.4394 55.4705 15.2727C55.4705 14.1212 55.2962 13.0871 54.9477 12.1705C54.6068 11.2538 54.0917 10.5303 53.4023 10C52.7205 9.4697 51.8682 9.20455 50.8455 9.20455C49.8606 9.20455 49.0273 9.45833 48.3455 9.96591C47.6712 10.4735 47.1598 11.1818 46.8114 12.0909C46.4629 13 46.2886 14.0606 46.2886 15.2727ZM70.9045 19.7955L76.5409 6.54545H79.4727L72.1659 24H69.6432L62.4841 6.54545H65.3818L70.9045 19.7955ZM64.4386 6.54545V24H61.1091V6.54545H64.4386ZM77.4614 24V6.54545H80.7682V24H77.4614ZM91.2193 24.3523C89.4996 24.3523 88.0186 23.9848 86.7761 23.25C85.5413 22.5076 84.5867 21.4659 83.9125 20.125C83.2458 18.7765 82.9125 17.197 82.9125 15.3864C82.9125 13.5985 83.2458 12.0227 83.9125 10.6591C84.5867 9.29545 85.5261 8.23106 86.7307 7.46591C87.9428 6.70076 89.3595 6.31818 90.9807 6.31818C91.9655 6.31818 92.9201 6.48106 93.8443 6.80682C94.7686 7.13258 95.5981 7.64394 96.333 8.34091C97.0678 9.03788 97.6473 9.94318 98.0716 11.0568C98.4958 12.1629 98.708 13.5076 98.708 15.0909V16.2955H84.833V13.75H95.3784C95.3784 12.8561 95.1966 12.0644 94.833 11.375C94.4693 10.678 93.958 10.1288 93.2989 9.72727C92.6473 9.32576 91.8822 9.125 91.0034 9.125C90.0489 9.125 89.2155 9.35985 88.5034 9.82955C87.7989 10.2917 87.2534 10.8977 86.867 11.6477C86.4883 12.3902 86.2989 13.197 86.2989 14.0682V16.0568C86.2989 17.2235 86.5034 18.2159 86.9125 19.0341C87.3292 19.8523 87.9087 20.4773 88.6511 20.9091C89.3936 21.3333 90.261 21.5455 91.2534 21.5455C91.8973 21.5455 92.4845 21.4545 93.0148 21.2727C93.5451 21.0833 94.0034 20.803 94.3898 20.4318C94.7761 20.0606 95.0716 19.6023 95.2761 19.0568L98.492 19.6364C98.2345 20.5833 97.7723 21.4129 97.1057 22.125C96.4466 22.8295 95.617 23.3788 94.617 23.7727C93.6246 24.1591 92.492 24.3523 91.2193 24.3523ZM100.878 30.5455V6.54545H104.196V9.375H104.48C104.677 9.01136 104.961 8.59091 105.332 8.11364C105.704 7.63636 106.219 7.2197 106.878 6.86364C107.537 6.5 108.408 6.31818 109.491 6.31818C110.901 6.31818 112.158 6.67424 113.264 7.38636C114.37 8.09848 115.238 9.125 115.866 10.4659C116.503 11.8068 116.821 13.4205 116.821 15.3068C116.821 17.1932 116.507 18.8106 115.878 20.1591C115.249 21.5 114.385 22.5341 113.287 23.2614C112.188 23.9811 110.935 24.3409 109.526 24.3409C108.465 24.3409 107.598 24.1629 106.923 23.8068C106.257 23.4508 105.734 23.0341 105.355 22.5568C104.976 22.0795 104.685 21.6553 104.48 21.2841H104.276V30.5455H100.878ZM104.207 15.2727C104.207 16.5 104.385 17.5758 104.741 18.5C105.098 19.4242 105.613 20.1477 106.287 20.6705C106.961 21.1856 107.787 21.4432 108.764 21.4432C109.779 21.4432 110.628 21.1742 111.31 20.6364C111.991 20.0909 112.507 19.3523 112.855 18.4205C113.211 17.4886 113.389 16.4394 113.389 15.2727C113.389 14.1212 113.215 13.0871 112.866 12.1705C112.526 11.2538 112.01 10.5303 111.321 10C110.639 9.4697 109.787 9.20455 108.764 9.20455C107.779 9.20455 106.946 9.45833 106.264 9.96591C105.59 10.4735 105.079 11.1818 104.73 12.0909C104.382 13 104.207 14.0606 104.207 15.2727ZM121.585 12.5455H126.653C128.789 12.5455 130.433 13.0758 131.585 14.1364C132.736 15.197 133.312 16.5644 133.312 18.2386C133.312 19.3295 133.054 20.3106 132.539 21.1818C132.024 22.053 131.27 22.7424 130.278 23.25C129.285 23.75 128.077 24 126.653 24H119.028V6.54545H122.357V21.0682H126.653C127.63 21.0682 128.433 20.8144 129.062 20.3068C129.691 19.7917 130.005 19.1364 130.005 18.3409C130.005 17.5 129.691 16.8144 129.062 16.2841C128.433 15.7462 127.63 15.4773 126.653 15.4773H121.585V12.5455ZM135.789 24V6.54545H139.187V24H135.789Z" fill="white"/>
</svg>
